<svg xmlns="http://www.w3.org/2000/svg" viewBox="0 0 181.277 126.545"><g id="Layer_2" data-name="Layer 2"><g id="Alaska"><g id="Alaska-2" data-name="Alaska"><rect width="181.277" height="126.545" style="fill:#0f204b"/><polygon points="150.666 23.876 154.579 21.133 149.743 21.133 148.248 16.586 146.753 21.133 141.917 21.133 145.83 23.876 144.335 28.389 148.248 25.562 152.161 28.397 150.666 23.876" style="fill:#ffb612"/><polygon points="30.208 49.133 29.317 46.423 28.426 49.133 25.542 49.133 27.875 50.692 26.984 53.344 29.317 51.64 31.649 53.3 30.758 50.699 33.091 49.133 30.208 49.133" style="fill:#ffb612"/><polygon points="51.587 56.133 50.696 53.423 49.805 56.133 46.922 56.133 49.255 58.115 48.364 60.978 50.696 59.38 53.029 61.093 52.138 58.096 54.471 56.133 51.587 56.133" style="fill:#ffb612"/><polygon points="62.213 68.133 61.322 65.423 60.431 68.133 57.548 68.133 59.88 69.746 58.989 72.425 61.322 70.734 63.655 72.402 62.764 69.75 65.096 68.133 62.213 68.133" style="fill:#ffb612"/><polygon points="72.967 79.133 72.076 76.423 71.185 79.133 68.301 79.133 70.634 81.067 69.743 83.907 72.076 82.296 74.408 84.004 73.517 81.051 75.85 79.133 72.967 79.133" style="fill:#ffb612"/><polygon points="73.095 98.133 72.204 95.423 71.313 98.133 68.429 98.133 70.762 99.678 69.871 102.324 72.204 100.616 74.536 102.275 73.645 99.686 75.978 98.133 73.095 98.133" style="fill:#ffb612"/><polygon points="100.491 103.133 99.6 100.423 98.709 103.133 95.826 103.133 98.158 104.646 97.267 107.275 99.6 105.559 101.933 107.214 101.042 104.656 103.374 103.133 100.491 103.133" style="fill:#ffb612"/><polygon points="104.844 88.133 103.953 85.423 103.062 88.133 100.178 88.133 102.511 90.059 101.62 92.896 103.953 91.283 106.285 92.99 105.394 90.044 107.727 88.133 104.844 88.133" style="fill:#ffb612"/></g></g></g></svg>