<svg xmlns="http://www.w3.org/2000/svg" viewBox="0 0 188.529 125.686"><g id="Layer_2" data-name="Layer 2"><g id="Arizona"><g id="Arizona-2" data-name="Arizona"><rect id="rect4" width="188.529" height="125.686" style="fill:#002868"/><path id="rect6" d="M0,0H188.529V62.843H0Z" style="fill:#bf0a30"/><g id="use3885"><path id="path3787" d="M188.529,40.917,94.264,62.843,188.529,14.73Z" style="fill:#fed700"/></g><g id="use3887"><path id="path3805" d="M166.923,0,94.264,62.843,139.756,0Z" style="fill:#fed700"/></g><g id="use3889"><path id="path3811" d="M118.811,0,94.264,62.843,103.106,0Z" style="fill:#fed700"/></g><path id="path3783" d="M0,40.917,94.264,62.843,0,14.73Z" style="fill:#f0f"/><path id="path3787-2" data-name="path3787" d="M0,40.917,94.264,62.843,0,14.73Z" style="fill:#fed700"/><path id="path3805-2" data-name="path3805" d="M21.605,0,94.264,62.843,48.772,0Z" style="fill:#fed700"/><path id="path3811-2" data-name="path3811" d="M69.718,0,94.264,62.843,85.422,0Z" style="fill:#fed700"/><polygon points="106.891 70.112 127.322 55.133 102.068 55.133 94.264 31.116 86.306 55.133 61.207 55.133 81.487 70.003 73.834 94.197 94.264 79.387 114.695 94.18 106.891 70.112" style="fill:#ce5c17"/></g></g></g></svg>