<svg xmlns="http://www.w3.org/2000/svg" viewBox="0 0 199 124"><g id="Layer_2" data-name="Layer 2"><g id="Arkansas"><g id="Arkansas-2" data-name="Arkansas"><path d="M0,0V124H199V0ZM99.414,113.206,16.468,61.235,99.414,10.22l83.635,50.914Z" style="fill:#bf0a30"/><path d="M22.5,61.235l76.92,51.971,77.559-52.072L99.42,10.22ZM85.33,21.977,88,22.849l1.656-2.269,0,2.809,2.671.872-2.675.865-.005,2.807L88,25.659l-2.674.863,1.655-2.271ZM74.207,29.392l2.672.872L78.535,28l0,2.809,2.671.872-2.674.865-.005,2.807-1.65-2.274-2.674.863,1.656-2.271Zm-11.122,7,2.672.872L67.413,35l0,2.809,2.671.872-2.675.865,0,2.807-1.649-2.274-2.674.863,1.655-2.271ZM51.962,43.81l2.672.872,1.656-2.269,0,2.809,2.671.872-2.674.865-.006,2.807-1.649-2.274-2.674.863,1.656-2.271ZM40.839,51.225l2.673.872,1.656-2.269,0,2.809,2.671.872-2.675.865,0,2.807-1.649-2.274-2.674.863L42.487,53.5Zm-6.8,11.89-1.649,2.274-.005-2.807-2.675-.865,2.671-.872,0-2.809,1.656,2.269,2.672-.872-1.647,2.274,1.655,2.271Zm9.887,7.034-1.649,2.274-.005-2.807L39.6,68.751l2.671-.872,0-2.809,1.656,2.269,2.672-.872-1.647,2.274L46.6,71.012Zm9.887,6.591-1.65,2.275-.005-2.808-2.674-.865,2.67-.872,0-2.809,1.655,2.269,2.673-.872L54.83,75.333l1.656,2.27ZM63.7,83.331l-1.649,2.275L62.044,82.8l-2.675-.864,2.671-.873,0-2.809,1.656,2.269,2.672-.872-1.647,2.275,1.655,2.27Zm9.887,7-1.649,2.275L71.931,89.8l-2.675-.864,2.671-.873,0-2.808,1.656,2.268,2.672-.872L74.6,88.927l1.655,2.27Zm9.887,6.591L81.822,99.2l-.005-2.808-2.674-.864,2.67-.873,0-2.809,1.655,2.269,2.673-.871L84.49,95.518l1.656,2.27Zm9.886,7L91.709,106.2,91.7,103.4l-2.675-.864,2.671-.873,0-2.808,1.656,2.268,2.673-.871-1.648,2.274,1.655,2.27ZM42.091,61.354,99.935,22.99,158.26,61.278,99.935,100.436ZM107.364,103.4l-.005,2.808-1.65-2.275-2.674.863,1.656-2.27-1.648-2.274,2.673.871,1.655-2.268,0,2.808,2.67.873Zm9.886-7,0,2.808L115.6,96.925l-2.674.863,1.655-2.27-1.647-2.274,2.672.871,1.656-2.269,0,2.809,2.671.873Zm9.887-6.591,0,2.808-1.649-2.275-2.674.863,1.655-2.27-1.647-2.275,2.672.872,1.656-2.268,0,2.808,2.671.873Zm9.887-7,0,2.808-1.65-2.275-2.674.863,1.656-2.27L132.7,79.649l2.673.872,1.655-2.269,0,2.809,2.671.873Zm9.886-6.591,0,2.808-1.649-2.275-2.674.863,1.655-2.27-1.647-2.275,2.672.872,1.656-2.269,0,2.809,2.671.872Zm15.453-16.774,2.673.872,1.655-2.269,0,2.809,2.671.872-2.675.865,0,2.807-1.65-2.274-2.674.863,1.656-2.271ZM156.8,69.616l0,2.807-1.649-2.274-2.674.863,1.655-2.271-1.647-2.274,2.672.872,1.656-2.269,0,2.809,2.671.872Zm-2.7-19.788,1.656,2.269,2.672-.872L156.777,53.5l1.656,2.271-2.674-.863-1.649,2.274-.005-2.807-2.675-.865,2.671-.872Zm-11.123-7.415,1.656,2.269,2.673-.872-1.648,2.274,1.655,2.271-2.674-.863-1.649,2.274,0-2.807-2.675-.865,2.671-.872ZM131.852,35l1.656,2.269,2.672-.872-1.648,2.274,1.656,2.271-2.674-.863-1.65,2.274,0-2.807-2.674-.865,2.671-.872Zm-11.123-7,1.656,2.269,2.672-.872-1.647,2.274,1.655,2.271-2.674-.863-1.649,2.274-.005-2.807-2.675-.865,2.671-.872ZM109.607,20.58l1.656,2.269,2.672-.872-1.648,2.274,1.656,2.271-2.674-.863-1.65,2.274,0-2.807-2.674-.865,2.671-.872Zm-6.623-4.4-2.269,1.656.872,2.673-2.274-1.648-2.271,1.655.863-2.674L95.631,16.2l2.807,0,.865-2.675.872,2.671Z" style="fill:#002868"/><path d="M99.935,22.99,42.091,61.354l57.844,39.082L158.26,61.278ZM98.169,35.536l1.572-4.719,1.567,4.718,5.077,0-4.106,2.915,1.565,4.721-4.1-2.917-4.11,2.915,1.57-4.718-4.106-2.92ZM86.449,75.274l-4.11,2.914,1.569-4.718L79.8,70.55h5.075l1.572-4.719,1.567,4.719,5.077,0-4.106,2.915,1.565,4.722ZM101.308,85.83l-1.567,4.719L98.169,85.83H93.094l4.106-2.92-1.57-4.718,4.11,2.915,4.1-2.917-1.565,4.721,4.106,2.915Zm11.723-10.556-4.11,2.914,1.57-4.718-4.106-2.92h5.075l1.572-4.719,1.567,4.719,5.077,0-4.106,2.915,1.566,4.722Z" style="fill:#fff"/><polygon points="98.438 16.19 95.631 16.195 97.905 17.844 97.042 20.518 99.313 18.863 101.587 20.511 100.715 17.838 102.984 16.182 100.175 16.186 99.303 13.515 98.438 16.19" style="fill:#fff"/><polygon points="103.844 78.191 99.74 81.108 95.63 78.193 97.2 82.911 93.094 85.831 98.169 85.83 99.741 90.549 101.308 85.83 106.385 85.827 102.279 82.912 103.844 78.191" style="fill:#002868"/><polygon points="93.094 70.554 88.017 70.551 86.45 65.832 84.878 70.551 79.803 70.55 83.908 73.47 82.339 78.188 86.449 75.274 90.553 78.191 88.988 73.469 93.094 70.554" style="fill:#002868"/><polygon points="96.025 100.247 93.352 101.118 91.696 98.85 91.7 101.658 89.029 102.531 91.704 103.395 91.709 106.203 93.358 103.928 96.032 104.791 94.377 102.521 96.025 100.247" style="fill:#fff"/><polygon points="107.371 98.85 105.716 101.118 103.043 100.247 104.691 102.521 103.035 104.791 105.709 103.928 107.359 106.203 107.364 103.395 110.038 102.531 107.368 101.658 107.371 98.85" style="fill:#fff"/><polygon points="119.676 70.554 114.599 70.551 113.032 65.832 111.46 70.551 106.385 70.55 110.491 73.47 108.921 78.188 113.031 75.274 117.136 78.191 115.57 73.469 119.676 70.554" style="fill:#002868"/><polygon points="95.63 43.173 99.74 40.258 103.844 43.175 102.279 38.454 106.385 35.539 101.308 35.535 99.741 30.817 98.169 35.536 93.094 35.535 97.2 38.455 95.63 43.173" style="fill:#002868"/><polygon points="154.105 54.374 154.11 57.181 155.759 54.907 158.433 55.77 156.777 53.499 158.425 51.225 155.753 52.097 154.097 49.828 154.101 52.637 151.43 53.509 154.105 54.374" style="fill:#fff"/><polygon points="142.982 46.959 142.987 49.766 144.636 47.492 147.31 48.355 145.655 46.084 147.303 43.81 144.63 44.682 142.974 42.413 142.978 45.222 140.307 46.094 142.982 46.959" style="fill:#fff"/><polygon points="131.859 39.544 131.864 42.351 133.514 40.077 136.188 40.94 134.532 38.669 136.18 36.395 133.508 37.267 131.852 34.998 131.856 37.807 129.185 38.679 131.859 39.544" style="fill:#fff"/><polygon points="120.737 32.541 120.742 35.348 122.391 33.074 125.065 33.937 123.41 31.666 125.057 29.392 122.385 30.264 120.729 27.995 120.733 30.804 118.062 31.676 120.737 32.541" style="fill:#fff"/><polygon points="109.614 25.126 109.619 27.933 111.269 25.659 113.943 26.522 112.287 24.251 113.935 21.977 111.263 22.849 109.607 20.58 109.611 23.389 106.94 24.261 109.614 25.126" style="fill:#fff"/><polygon points="46.591 66.467 43.919 67.339 42.263 65.07 42.267 67.879 39.596 68.751 42.271 69.616 42.276 72.423 43.925 70.149 46.599 71.012 44.944 68.741 46.591 66.467" style="fill:#fff"/><polygon points="56.478 73.058 53.805 73.93 52.15 71.661 52.153 74.47 49.483 75.342 52.157 76.207 52.162 79.015 53.812 76.74 56.486 77.603 54.83 75.333 56.478 73.058" style="fill:#fff"/><polygon points="66.364 79.649 63.692 80.521 62.036 78.252 62.04 81.061 59.369 81.934 62.044 82.798 62.049 85.606 63.698 83.331 66.372 84.194 64.717 81.924 66.364 79.649" style="fill:#fff"/><polygon points="76.251 86.652 73.579 87.524 71.923 85.256 71.927 88.064 69.256 88.937 71.931 89.801 71.936 92.609 73.585 90.334 76.259 91.197 74.604 88.927 76.251 86.652" style="fill:#fff"/><polygon points="86.138 93.244 83.465 94.115 81.81 91.846 81.813 94.655 79.143 95.528 81.817 96.392 81.822 99.2 83.472 96.925 86.146 97.788 84.49 95.518 86.138 93.244" style="fill:#fff"/><polygon points="36.704 59.433 34.032 60.305 32.376 58.036 32.38 60.845 29.709 61.717 32.384 62.582 32.389 65.389 34.038 63.115 36.712 63.978 35.057 61.707 36.704 59.433" style="fill:#fff"/><polygon points="43.506 54.907 45.155 57.181 45.16 54.374 47.835 53.509 45.164 52.637 45.168 49.828 43.512 52.097 40.839 51.225 42.487 53.499 40.832 55.77 43.506 54.907" style="fill:#fff"/><polygon points="54.628 47.492 56.277 49.766 56.283 46.959 58.957 46.094 56.286 45.222 56.29 42.413 54.634 44.682 51.962 43.81 53.61 46.084 51.954 48.355 54.628 47.492" style="fill:#fff"/><polygon points="65.751 40.077 67.4 42.351 67.405 39.544 70.08 38.679 67.409 37.807 67.413 34.998 65.757 37.267 63.085 36.395 64.732 38.669 63.077 40.94 65.751 40.077" style="fill:#fff"/><polygon points="76.873 33.074 78.523 35.348 78.528 32.541 81.202 31.676 78.531 30.804 78.535 27.995 76.879 30.264 74.207 29.392 75.855 31.666 74.199 33.937 76.873 33.074" style="fill:#fff"/><polygon points="87.996 25.659 89.645 27.933 89.65 25.126 92.325 24.261 89.654 23.389 89.658 20.58 88.002 22.849 85.33 21.977 86.977 24.251 85.322 26.522 87.996 25.659" style="fill:#fff"/><polygon points="165.029 63.115 166.679 65.389 166.684 62.582 169.359 61.717 166.688 60.845 166.691 58.036 165.036 60.305 162.363 59.433 164.011 61.707 162.355 63.978 165.029 63.115" style="fill:#fff"/><polygon points="156.805 65.07 155.149 67.339 152.477 66.467 154.124 68.741 152.469 71.012 155.143 70.149 156.792 72.423 156.797 69.616 159.472 68.751 156.801 67.879 156.805 65.07" style="fill:#fff"/><polygon points="146.918 71.661 145.262 73.93 142.59 73.058 144.237 75.333 142.582 77.603 145.256 76.74 146.905 79.015 146.91 76.207 149.585 75.342 146.914 74.47 146.918 71.661" style="fill:#fff"/><polygon points="137.031 78.252 135.376 80.521 132.703 79.649 134.351 81.924 132.695 84.194 135.369 83.331 137.019 85.606 137.024 82.798 139.699 81.934 137.028 81.061 137.031 78.252" style="fill:#fff"/><polygon points="127.145 85.256 125.489 87.524 122.817 86.652 124.464 88.927 122.809 91.197 125.483 90.334 127.132 92.609 127.137 89.801 129.812 88.937 127.141 88.064 127.145 85.256" style="fill:#fff"/><polygon points="117.258 91.846 115.602 94.115 112.93 93.244 114.577 95.518 112.922 97.788 115.596 96.925 117.245 99.2 117.25 96.392 119.925 95.528 117.254 94.655 117.258 91.846" style="fill:#fff"/></g></g></g></svg>