<svg xmlns="http://www.w3.org/2000/svg" viewBox="0 0 185.592 123.915"><g id="Layer_2" data-name="Layer 2"><g id="Connecticut"><g id="Connecticut-2" data-name="Connecticut"><path id="path14" d="M0,0H185.592V123.915H0V0Z" style="fill:#0c2d83"/><rect id="rect2397" x="88.663" y="17.279" width="9.613" height="6.684" style="fill:#129612"/><path id="path8" d="M84.094,22.137c0,.145.47.32,1.314.32a18.71,18.71,0,0,1,2.1.141c.658.1.841-.078.635-.284C87.835,21.963,84.094,21.807,84.094,22.137Z"/><path id="path2325" d="M100.9,22.137l-.842.376,1.925.1A5.162,5.162,0,0,0,104,22.36c0-.1-.364-.261-.775-.261a2.914,2.914,0,0,1-1.088-.2,1.941,1.941,0,0,0-1.237.241Z"/><path id="path6" d="M93.319,14.358a8.841,8.841,0,0,1-.824,1.073,1.681,1.681,0,0,0-.391.826c0,.33-.062.288-.227-.186-.37-1.011-.659-1.176-1.338-.826a5.023,5.023,0,0,1-1.3.434,1.941,1.941,0,0,0-.947.392,2.266,2.266,0,0,1-1.277.371c-1.215.1-1.812.434-3.377,1.837a2.185,2.185,0,0,1-.906.577c-.391,0-.37.124.165.723.288.33.577.474.8.412a.445.445,0,0,1,.494.1,1.066,1.066,0,0,0,.68.227c.453.021.412.062-.289.248A4.129,4.129,0,0,0,82.9,21.725c-.947,1.011-1.05,1.258-.494,1.258a.967.967,0,0,1,.618.248,2.935,2.935,0,0,0,1.318.268c.947.021,1.091.1,1.152.475.083.577.35.577,1.709-.042a7.15,7.15,0,0,0,3.11-2.373c.6-.825.617-1.258.061-1.258-.391,0-.638-.991-.37-1.424a1.239,1.239,0,0,1,1.832,0c.453.433.535.433,1.338.186a1.4,1.4,0,0,1,1.5.082c.679.372.7.372,1.214-.165.577-.577,1.339-.7,1.75-.289.351.351.309,1.383-.061,1.527-.391.165-.391.557.02,1.362a5.341,5.341,0,0,0,2.7,2.208c1.523.763,1.667.763,1.894.186.123-.372.329-.454,1.235-.475a2.908,2.908,0,0,0,1.3-.268.964.964,0,0,1,.617-.248c.577,0,.453-.351-.473-1.3a4.656,4.656,0,0,0-1.709-1.114c-.7-.186-.742-.227-.289-.248a1.066,1.066,0,0,0,.68-.227.445.445,0,0,1,.494-.1c.226.062.515-.082.8-.412.535-.6.556-.723.165-.723a2.315,2.315,0,0,1-.906-.6,5.345,5.345,0,0,0-3.871-1.857c-.144-.021-.288-.227-.35-.454-.1-.371-.227-.413-.8-.309a10.4,10.4,0,0,1-1.091.165,3.225,3.225,0,0,0-1.133.515c-.721.475-1.009.372-1.029-.35a3.056,3.056,0,0,0-.721-1.114,4.138,4.138,0,0,1-.721-.991c0-.413-.638-.1-1.07.5Zm1.316.926a3.768,3.768,0,0,1,.887,1.117c.288.949.591,1.087,1.58.551a3.8,3.8,0,0,1,1.3-.487,1.238,1.238,0,0,0,.742-.265c.412-.412.364-.163.034.91-.473,1.568.051.448-1.184-.274-.041-.041-.492,1.009-.286.782s.338-.538.276-.6a7.087,7.087,0,0,0-2.376,1.555c-.247.33-.186.351-.742.062-.577-.309-.572-.275-.572-1.884,0-.97-.192-1.659-.316-1.659s-.214.765-.214,1.735c0,1.589-.029,1.545-.544,1.73-.72.289-.985.3-.861-.011.1-.31-1.576-2.066-1.8-1.86a1.026,1.026,0,0,0,.292.788,1.178,1.178,0,0,1,.335.536c0,.041-.257-.015-.73.026-.721.041-.854.085-1.246-.369a2.182,2.182,0,0,1-.439-.677c0-.309.775-.723,1.207-.723.247,0,.4-.1.4-.2s.161-.273.346-.335c.391-.144.813.457.813.994a.6.6,0,0,0,.284.483c.247.206.447.224.633-.251.1-.289.222-.607.222-.648a2.862,2.862,0,0,1,.55-.7,2.559,2.559,0,0,0,.652-.847c0-.31.042-.2.762.524ZM88.17,17.259c0,.557-.615.919-1.563.919-.7,0-1.689.451-1.689.74,0,.1.182.183.388.1a5.324,5.324,0,0,1,.926-.243c.494-.083.522-.088.522.366a2.788,2.788,0,0,1-.14.8c-.144.351-.847.412-.847.082,0-.124-.276-.19-.626-.19-.33,0-.55-.1-.55-.227,0-.144-.249-.177-.537-.095-.721.186-.7-.131-.124-.709a5.629,5.629,0,0,1,2.876-1.748c1.462-.248,1.364-.307,1.364.209Zm13.12.017c1.029.165,3.2,1.669,2.934,2.1-.083.1-.165.124-.453.062-.288-.083-.511,0-.511.145,0,.124-.217.227-.567.227-.33,0-.711,0-.711.122,0,.413-.588.333-.712-.142-.149-.438.528-.744.943-.852a2.3,2.3,0,0,0,1.312-.205c0-.248-.618-.392-1.668-.392a3.24,3.24,0,0,1-1.543-.326,3.088,3.088,0,0,1-.5-.321c-.021,0-.068-.159.015-.407.082-.33.091-.416.421-.354.226.062.766.212,1.137.274ZM89.159,18.464c.659.619.5.936-.533.956l-.928.1.8.329a4.489,4.489,0,0,1,1.446.537l.576.475-.658.351c-.8.392-.895.248-1.8-.082-.412-.144-.659-.236-.6-.4a.315.315,0,0,0-.078-.367c-.35-.227-.074-1.132.544-1.689a3.775,3.775,0,0,1,.71-.561,1.186,1.186,0,0,1,.521.356Zm10.813.27a2.1,2.1,0,0,1,.556,1.946c-.041.371-.838.774-1.558.774-.6,0-1.41-.575-1.2-.906a11.049,11.049,0,0,1,1.176-.719c.617-.413.832-.842.585-.842a1.375,1.375,0,0,0-.813.334c-.535.474-.368.152.187-.488s.433-.677,1.071-.1ZM86.839,21.515a2.559,2.559,0,0,0,1.456.506c1.112.124,1.153.013.823.364a7.82,7.82,0,0,1-1.614.91c-1.133.577-1.189.64-1.271.31-.1-.536-.449-.681-1.211-.557-.659.124-1.986-.21-1.986-.5a3.526,3.526,0,0,1,1.5-1.383,3.129,3.129,0,0,1,2.3.349Zm17.341.352c.329.371.609.613.609.7,0,.33-1.159.584-1.941.461s-1.179.053-1.2.59c0,.1-.109.148-.336.127a7.552,7.552,0,0,1-2.541-1.426c-.289-.331-.349-.186.742-.289a2.666,2.666,0,0,0,1.331-.373,2.144,2.144,0,0,1,1.926-.477A1.9,1.9,0,0,1,104.18,21.867Z"/><path id="path1394" d="M93.8,14.719a5.168,5.168,0,0,1-.627.8,2.889,2.889,0,0,0-.716,1.092c-.2.61-.321.768-.5.663a1.7,1.7,0,0,1-.47-.9c-.164-.663-.716-.911-1.1-.489a.919.919,0,0,1-.5.278,1.826,1.826,0,0,0-1.037.557,1.324,1.324,0,0,0-.194.287,2.79,2.79,0,0,0,.336.481c.47.6.649.686,1.492.648a2.459,2.459,0,0,0,.754-.083c.029-.03-.015-.15-.1-.263-.38-.467-.612-.874-.537-.949.142-.143,1.343.971,1.626,1.513a.749.749,0,0,1,.09.317c0,.128.045.158.224.158a1.979,1.979,0,0,0,1.134-.475,8.467,8.467,0,0,0,.141-1.558c.053-1.363.09-1.657.224-1.657.1,0,.142.384.209,1.815a12.03,12.03,0,0,0,.119,1.423,2.014,2.014,0,0,0,.918.527c.119,0,.351-.158.679-.474a11.03,11.03,0,0,1,1.126-.9c.881-.6,1.015-.58.56.068a1.872,1.872,0,0,0-.261.452c0,.12.708.429.977.429a.511.511,0,0,0,.41-.2,6.984,6.984,0,0,0,.679-1.98c.052-.377-.022-.414-.343-.181a2.231,2.231,0,0,1-.709.264,7.954,7.954,0,0,0-1.268.451c-1.082.482-1.238.46-1.5-.233a4.328,4.328,0,0,0-.321-.67,7.258,7.258,0,0,0-1.358-1.393c-.045,0-.112.083-.149.181Z" style="fill:#129612"/><path id="path1396" d="M86.832,16.992a5.576,5.576,0,0,0-2.656,1.484c-.522.474-.776.836-.716,1,.037.106.119.121.515.076s.47-.031.574.105c.082.113.254.181.6.226s.522.113.612.226a.573.573,0,0,0,.686.075c.209-.075.343-.444.343-.956,0-.61-.134-.663-1.007-.392a2.33,2.33,0,0,1-.679.128c-.171-.022-.179-.03-.067-.188a2.8,2.8,0,0,1,1.612-.55c1.134-.128,1.559-.406,1.559-1.016v-.339l-.425.008a5.594,5.594,0,0,0-.948.112Z" style="fill:#129612"/><path id="path1398" d="M99.857,16.962a1.181,1.181,0,0,0-.126.286c-.023.106-.067.241-.082.309-.045.158.567.565,1.059.715a9.511,9.511,0,0,0,1.335.174c.948.067,1.418.18,1.418.346a3.812,3.812,0,0,1-1.112.1,4.573,4.573,0,0,0-1.223.105c-.075.068-.09.181-.06.414.06.467.231.746.5.844.3.105.253.113.462-.113a.985.985,0,0,1,.657-.256.949.949,0,0,0,.574-.2c.075-.106.2-.136.6-.136.448,0,.5-.015.522-.158.045-.339-1.059-1.348-2.1-1.92-.79-.429-2.23-.731-2.416-.5Z" style="fill:#129612"/><path id="path1400" d="M88.205,18.34a2.632,2.632,0,0,0-1.03,1.529.587.587,0,0,0,.03.474,1.147,1.147,0,0,1,.105.384c0,.249.253.459.768.633a2.166,2.166,0,0,0,1.835-.158l.627-.294-.329-.294a4.66,4.66,0,0,0-1.79-.911l-.612-.173.687-.038c.738-.045,1.052-.18,1.052-.451a2.434,2.434,0,0,0-.9-.964A1.414,1.414,0,0,0,88.205,18.34Z" style="fill:#129612"/><path id="path1402" d="M98.91,18.694c-.358.4-.6.8-.53.866.023.023.2-.068.4-.2.365-.248.671-.361.746-.278s-.2.331-.8.76c-.97.7-1.052.821-.791,1.16a1.859,1.859,0,0,0,1.007.534,2.6,2.6,0,0,0,1.4-.489c.276-.241.276-.241.269-.836a1.983,1.983,0,0,0-.7-1.641c-.433-.369-.582-.354-1,.12Z" style="fill:#129612"/><path id="path1404" d="M84.512,21.089c-.41.128-1.649,1.325-1.581,1.536.037.128.5.338.939.421a8.725,8.725,0,0,0,1.157.076c.858,0,1.029.067,1.164.489.067.2.126.264.268.264a12.027,12.027,0,0,0,2.395-1.228c.3-.233.507-.489.447-.549a6.811,6.811,0,0,0-.805-.144,3.113,3.113,0,0,1-1.53-.451,2.319,2.319,0,0,0-.611-.294,5.153,5.153,0,0,0-1.843-.12ZM86.869,22.1c.843.105,1.336.263,1.336.436,0,.053-.105.068-.314.03-.179-.022-1.022-.082-1.887-.128a13.383,13.383,0,0,1-1.746-.158c-.194-.067-.149-.173.105-.233a12.649,12.649,0,0,1,2.506.053Z" style="fill:#129612"/><path id="path1406" d="M101.931,21.058a2.249,2.249,0,0,0-1.014.422c-.194.211-.373.271-1.216.4-1.149.181-1.2.188-1.2.256a6.2,6.2,0,0,0,2.335,1.559c.6.241.8.218.9-.1.142-.414.194-.437,1.343-.482a2.811,2.811,0,0,0,1.425-.226,1.247,1.247,0,0,0,.388-.256,4.03,4.03,0,0,0-1.03-1.212,4.194,4.194,0,0,0-.492-.241A4.951,4.951,0,0,0,101.931,21.058Zm.187.942a7.424,7.424,0,0,0,1,.173c.723.083.947.211.522.3-.127.023-.963.045-1.85.038l-1.612-.008.41-.188a4.6,4.6,0,0,1,1.12-.392,1.692,1.692,0,0,1,.41.076Z" style="fill:#129612"/><path id="path10969" d="M79.545,83.053h0c2.979,3.618,11.077,3.934,13.355,8.22,3.47-4.6,10.9-5.164,15.248-8.712h0" style="fill:none;stroke:#d2d2d2;stroke-width:0.8393079999999999px"/><path id="path42" d="M76.133,40.108c-.5.2-1.212.338-1.347.878.033.2.4.237.707.169-.033-.371.068-.506.539-.405-.067-.2.068-.405.1-.642Z" style="fill:#b68c5b;stroke:#000;stroke-width:0.101185px"/><path id="path50" d="M110.8,40.108c.506.2,1.213.338,1.348.878-.034.2-.4.237-.708.169.034-.371-.067-.506-.539-.405.068-.2-.067-.405-.1-.642Z" style="fill:#b68c5b;stroke:#000;stroke-width:0.101185px"/><path id="path56" d="M96.147,57.666c.438.135,1.112.3,1.213.777,0,.2-.337.2-.64.168.033-.337-.068-.472-.506-.4.068-.169-.067-.371-.067-.54Z" style="fill:#b68c5b;stroke:#000;stroke-width:0.101185px"/><path id="path58" d="M96.989,21.707c.371,0,.708.067,1.078.1,2.292,6.618,13.309,6.618,15.6,2.33a3.394,3.394,0,0,1-1.28-3.343,2.5,2.5,0,0,1,2.527-2.633c.842-.034,1.381.54,1.448,2.971.169,3.95-4.75,8-9.4,7.732-3.234-.2-10.175-2.262-9.973-7.158Z" style="fill:#fff"/><path id="path86" d="M83.007,50.643a3.452,3.452,0,0,0-.472-1.249c0,.067-.269.135-.269.067a3.855,3.855,0,0,1,.438,1.115,1.438,1.438,0,0,0,.269.1h0l.034-.034Zm.337-11.818a3.467,3.467,0,0,0-.472-1.249c0,.068-.27.135-.27.068a3.783,3.783,0,0,1,.438,1.114,1.469,1.469,0,0,0,.27.1h0l.034-.034ZM74.55,42.27a3.428,3.428,0,0,1,.472-1.25c0,.068.269.135.269.068a3.839,3.839,0,0,0-.438,1.114,1.309,1.309,0,0,1-.269.1h0l-.034-.033Z" style="fill:lime;stroke:#000;stroke-width:0.101185px"/><path id="path88" d="M82.805,50.035a1.151,1.151,0,0,1,.4.135c.269.27.809.844.809,1.216,0-.27.3-1.013.033-1.249a1.355,1.355,0,0,0-1.246-.1Zm0,.135c-.169,0-.337.2-.438.372a3.249,3.249,0,0,0-.3,1.756c-.134-.372-.808-1.013-.673-1.452a1.69,1.69,0,0,1,1.415-.676Zm-.1-.3a.733.733,0,0,0-.371.406c-.168.405-.539,1.283-.3,1.755-.169-.371-.809-1.013-.708-1.485a1.587,1.587,0,0,1,1.382-.676Zm.438-11.648a1.138,1.138,0,0,1,.4.135c.269.27.808.844.808,1.215,0-.27.3-1.013.034-1.249a1.358,1.358,0,0,0-1.246-.1Zm0,.135c-.169,0-.337.2-.438.371a3.249,3.249,0,0,0-.3,1.756c-.134-.372-.808-1.013-.674-1.452a1.692,1.692,0,0,1,1.416-.675Zm-.1-.3a.73.73,0,0,0-.37.405c-.169.405-.539,1.283-.3,1.756-.169-.372-.809-1.013-.708-1.486a1.588,1.588,0,0,1,1.381-.675Zm-8.288,3.613a1.124,1.124,0,0,0-.4.135c-.27.27-.809.844-.809,1.215,0-.27-.3-1.013-.034-1.249a1.36,1.36,0,0,1,1.247-.1Zm0,.135c.169,0,.337.2.438.371a3.238,3.238,0,0,1,.3,1.756c.135-.372.809-1.013.674-1.452a1.69,1.69,0,0,0-1.415-.675Zm.1-.3a.728.728,0,0,1,.371.405c.168.4.539,1.283.3,1.756.168-.372.809-1.013.708-1.486a1.59,1.59,0,0,0-1.382-.675Z" style="fill:#7eff00;stroke:#000;stroke-width:0.101185px"/><path id="path94" d="M82.7,49.9a.815.815,0,0,0-.438.27c-.2.27-.573.946-.337,1.216-.169-.27-.944-.709-.809-1.013A2.46,2.46,0,0,1,82.7,49.9Zm-.034.034a.708.708,0,0,1,.438.439,2.779,2.779,0,0,1,.3,1.722c.169-.338.809-.979.708-1.452a1.785,1.785,0,0,0-1.449-.709Zm.37-11.851a.811.811,0,0,0-.438.27c-.2.27-.572.945-.336,1.215-.169-.27-.944-.709-.809-1.013a2.452,2.452,0,0,1,1.583-.472Zm-.033.033a.71.71,0,0,1,.438.439,2.781,2.781,0,0,1,.3,1.722c.168-.337.809-.979.708-1.452a1.788,1.788,0,0,0-1.449-.709Zm-8.154,3.411a.809.809,0,0,1,.438.27c.2.27.573.945.337,1.215.169-.27.944-.709.809-1.013a2.453,2.453,0,0,0-1.584-.472Zm.034.033a.705.705,0,0,0-.438.439,2.767,2.767,0,0,0-.3,1.722c-.169-.337-.809-.979-.708-1.451a1.786,1.786,0,0,1,1.449-.71Z" style="fill:#7eff00;stroke:#000;stroke-width:0.033728px"/><path id="path96" d="M104.031,50.643a3.416,3.416,0,0,1,.472-1.249c0,.067.269.135.269.067a3.855,3.855,0,0,0-.438,1.115,1.438,1.438,0,0,1-.269.1h0l-.034-.034Zm-.337-11.818a3.467,3.467,0,0,1,.472-1.249c0,.068.269.135.269.068A3.839,3.839,0,0,0,104,38.758a1.438,1.438,0,0,1-.269.1h0l-.034-.034Zm8.794,3.445a3.446,3.446,0,0,0-.472-1.25c0,.068-.269.135-.269.068a3.839,3.839,0,0,1,.438,1.114,1.309,1.309,0,0,0,.269.1h0l.034-.033Z" style="fill:lime;stroke:#000;stroke-width:0.101185px"/><path id="path98" d="M104.233,50.035a1.144,1.144,0,0,0-.4.135c-.27.27-.809.844-.809,1.216,0-.27-.3-1.013-.034-1.249a1.357,1.357,0,0,1,1.247-.1Zm0,.135c.169,0,.337.2.438.372a3.238,3.238,0,0,1,.3,1.756c.135-.372.809-1.013.674-1.452a1.691,1.691,0,0,0-1.415-.676Zm.1-.3a.733.733,0,0,1,.371.406c.168.405.539,1.283.3,1.755.169-.371.809-1.013.708-1.485a1.587,1.587,0,0,0-1.382-.676ZM103.9,38.218a1.131,1.131,0,0,0-.4.135c-.27.27-.809.844-.809,1.215,0-.27-.3-1.013-.033-1.249a1.358,1.358,0,0,1,1.246-.1Zm0,.135c.169,0,.337.2.438.371a3.238,3.238,0,0,1,.3,1.756c.135-.372.809-1.013.674-1.452a1.689,1.689,0,0,0-1.415-.675Zm.1-.3a.728.728,0,0,1,.371.405c.168.405.539,1.283.3,1.756.169-.372.809-1.013.708-1.486A1.589,1.589,0,0,0,104,38.049Zm8.289,3.613a1.124,1.124,0,0,1,.4.135c.27.27.809.844.809,1.215,0-.27.3-1.013.033-1.249a1.358,1.358,0,0,0-1.246-.1Zm0,.135c-.169,0-.337.2-.438.371a3.249,3.249,0,0,0-.3,1.756c-.134-.372-.808-1.013-.673-1.452a1.689,1.689,0,0,1,1.415-.675Zm-.1-.3a.728.728,0,0,0-.371.405c-.168.4-.539,1.283-.3,1.756-.169-.372-.809-1.013-.708-1.486a1.589,1.589,0,0,1,1.382-.675Z" style="fill:#7eff00;stroke:#000;stroke-width:0.101185px"/><path id="path104" d="M104.334,49.9a.815.815,0,0,1,.438.27c.2.27.573.946.337,1.216.169-.27.944-.709.809-1.013a2.46,2.46,0,0,0-1.584-.473Zm.034.034a.705.705,0,0,0-.438.439,2.772,2.772,0,0,0-.3,1.722c-.169-.338-.809-.979-.708-1.452a1.785,1.785,0,0,1,1.449-.709ZM104,38.083a.8.8,0,0,1,.438.27c.2.27.573.945.337,1.215.169-.27.944-.709.809-1.013A2.453,2.453,0,0,0,104,38.083Zm.034.033a.705.705,0,0,0-.438.439,2.774,2.774,0,0,0-.3,1.722c-.169-.337-.809-.979-.708-1.452a1.788,1.788,0,0,1,1.449-.709Zm8.154,3.411a.809.809,0,0,0-.438.27c-.2.27-.573.945-.337,1.215-.169-.27-.944-.709-.809-1.013a2.453,2.453,0,0,1,1.584-.472Zm-.034.033a.708.708,0,0,1,.438.439,2.781,2.781,0,0,1,.3,1.722c.169-.337.809-.979.708-1.451a1.786,1.786,0,0,0-1.449-.71Z" style="fill:#7eff00;stroke:#000;stroke-width:0.033728px"/><path id="path106" d="M89.307,67.964a3.452,3.452,0,0,1,.472-1.249c0,.067.27.135.27.067a3.8,3.8,0,0,0-.438,1.115,1.443,1.443,0,0,1-.27.1h0l-.034-.034ZM88.97,56.147a3.465,3.465,0,0,1,.472-1.25c0,.068.27.135.27.068a3.821,3.821,0,0,0-.438,1.114,1.293,1.293,0,0,1-.27.1h0l-.034-.033Zm8.794,3.444a3.428,3.428,0,0,0-.472-1.25c0,.068-.269.135-.269.068a3.811,3.811,0,0,1,.438,1.114,1.309,1.309,0,0,0,.269.1h0l.034-.033Z" style="fill:lime;stroke:#000;stroke-width:0.101185px"/><path id="path108" d="M89.51,67.356a1.157,1.157,0,0,0-.405.135c-.269.271-.808.845-.808,1.216,0-.27-.3-1.013-.034-1.249a1.36,1.36,0,0,1,1.247-.1Zm0,.135c.168,0,.336.2.438.372a3.257,3.257,0,0,1,.3,1.756c.135-.372.808-1.013.674-1.452a1.693,1.693,0,0,0-1.415-.676Zm.1-.3a.726.726,0,0,1,.37.405c.169.405.539,1.283.3,1.755.169-.371.809-1.012.708-1.485a1.583,1.583,0,0,0-1.381-.675Zm-.438-11.649a1.137,1.137,0,0,0-.405.135c-.269.27-.808.844-.808,1.215,0-.27-.3-1.012-.034-1.249a1.36,1.36,0,0,1,1.247-.1Zm0,.135c.168,0,.337.2.438.371a3.257,3.257,0,0,1,.3,1.756c.135-.371.808-1.013.674-1.452a1.69,1.69,0,0,0-1.415-.675Zm.1-.3a.73.73,0,0,1,.37.405c.169.405.539,1.283.3,1.756.168-.372.808-1.013.707-1.486a1.588,1.588,0,0,0-1.381-.675Zm8.288,3.613a1.124,1.124,0,0,1,.4.135c.27.27.809.844.809,1.215,0-.27.3-1.012.034-1.249a1.36,1.36,0,0,0-1.247-.1Zm0,.135c-.168,0-.337.2-.438.371a3.248,3.248,0,0,0-.3,1.756c-.135-.371-.809-1.013-.674-1.452a1.69,1.69,0,0,1,1.415-.675Zm-.1-.3a.728.728,0,0,0-.371.405c-.168.405-.539,1.283-.3,1.756-.168-.372-.809-1.013-.708-1.486a1.59,1.59,0,0,1,1.382-.675Z" style="fill:#7eff00;stroke:#000;stroke-width:0.101185px"/><path id="path114" d="M89.611,67.221a.822.822,0,0,1,.438.27c.2.271.572.946.337,1.216.168-.27.943-.709.808-1.013a2.457,2.457,0,0,0-1.583-.473Zm.033.034a.708.708,0,0,0-.438.439,2.779,2.779,0,0,0-.3,1.722c-.168-.338-.809-.979-.708-1.452a1.785,1.785,0,0,1,1.449-.709ZM89.274,55.4a.816.816,0,0,1,.438.27c.2.27.572.945.337,1.215.168-.27.943-.709.808-1.012a2.451,2.451,0,0,0-1.583-.473Zm.033.033a.709.709,0,0,0-.438.44,2.778,2.778,0,0,0-.3,1.722c-.168-.338-.809-.98-.707-1.452a1.785,1.785,0,0,1,1.448-.71Zm8.154,3.411a.809.809,0,0,0-.438.27c-.2.27-.573.945-.337,1.215-.169-.27-.943-.709-.809-1.013a2.453,2.453,0,0,1,1.584-.472Zm-.034.033a.705.705,0,0,1,.438.439,2.767,2.767,0,0,1,.3,1.722c.169-.337.809-.979.708-1.451a1.786,1.786,0,0,0-1.449-.71Z" style="fill:#7eff00;stroke:#000;stroke-width:0.033728px"/><path id="path10873" d="M111.342,98.657c-3.1,3.776-4.653,2.443-7.979,1.444s-6.869-2.664-10.082-3.441S82.087,95.324,77.212,95.1c-4.513-.207-6.08-2.028-6.2-3.441a13.609,13.609,0,0,1,4.356-.077c2.956.3,3.1.224,3.693-.666a4.377,4.377,0,0,0,.4-.739.96.96,0,0,0,.411-.85c0-1.113-.777-2.774-8.755-2.774-2.71,0-4.712-.093-6.24-.241l2.362-6.091c.72-2-2.6-2.33-2.6-2.33A34.987,34.987,0,0,1,57.6,77.56a28.991,28.991,0,0,0-9.64-.776A36.272,36.272,0,0,1,34,75.229c.555,2.278,4.987,5.384,4.987,5.384L32,83.835l1.994.5A36.249,36.249,0,0,0,47.96,85.89a31.307,31.307,0,0,1,7.628.335l-1.543,4.969c2.8,2.906,4.741,4.434,13.565,5.281l-1.7,2.148.366.073c3.177,4.369,4.949,5.772,12.338,5.924s10.786.073,16.473,2.663,8.3,3.5,12.8,2.163c0,0,.081.235.9-1.694.92-2.17,1.148-6.317,2.033-7.06a13.9,13.9,0,0,0,2.069-2.812l-1.551.777" style="fill:#ffd300"/><path id="path10875" d="M131.732,88.626c.96.443,1.994.739,5.1-.15s12.113-2.44,16.841-2.071a44.842,44.842,0,0,0-6.722-4.072l4.95-4.071a11.1,11.1,0,0,1-3.028-.371c-5.245-1.478-10.27.223-14.7,2.076-.877.364-1.6.642-2.2.849l-1.048-3.664s-1.8-1.316-6.078.117c-3.9,1.312-4.781,3.437-4.559,3.953s2.069,4,2.069,4l-.043.127A47.9,47.9,0,0,1,116,87.66c-7.313,2.225-8.938,3.256-15.439,8l1.7,4.072,3.546,1.109a4.667,4.667,0,0,0,1.624.223l.091.057c3.7-2.528,5.958-3.533,11.582-5.242,7.314-2.221,10.932-4.369,10.12-6.44l-1.254-3.406s1.624-.961,2.289-.666l1.478,3.256" style="fill:#ffd300"/><path id="path10877" d="M56.1,84.943l.863-3.029c.124-.743,1.282-1.2,4.529-.728,2.244.328,4.033.686,5.048-.134l.045-.019c.134-1.445-1.9-1.305-1.9-1.305h-.054a34.987,34.987,0,0,1-7.037-.335,28.944,28.944,0,0,0-9.642-.778,36.023,36.023,0,0,1-12.511-1.143,26.334,26.334,0,0,0,3.536,3.088L34,82.946A36.233,36.233,0,0,0,47.958,84.5a30.512,30.512,0,0,1,8.157.434" style="fill:#fff"/><path id="path10879" d="M71.346,91.472a12.727,12.727,0,0,1,3.77.055c2.513.363,3.44.119,3.641-.2l-1.643,3.784s-6.394.073-6.1-3.553" style="fill:#fff"/><path id="path10881" d="M112.762,98.068l-1.328,1.9c-2.431,3.267-5.424,2.27-8.846,1.465-3.325-.995-6.871-2.662-10.084-3.44S81.313,96.66,76.438,96.436,70.121,94.1,70.231,92.66a1.618,1.618,0,0,1,.095-.449l.82-1.463.122-.159c.546-.68,1.958-.607,4.393-.257a9.385,9.385,0,0,0,3.27.081l.055-.193c0-1.111-.664-2.333-8.643-2.333s-9.807-.777-11.581-1.555c-1.044-.457-2.55-1.979-2.265-2.968l-1.8,5.855c3.028,3.187,4.487,4.812,13.722,5.7l-1.552,2.3c3.176,4.365,4.95,5.772,12.337,5.92s10.786.073,16.475,2.663,8.488,3.452,12.993,2.12" style="fill:#fff"/><path id="path10883" d="M57.134,82.769A5.556,5.556,0,0,0,59.539,85a14.927,14.927,0,0,0,5.418,1.322l-.008.008,1.735-4.714c-.718,2-3.062,1.47-5.926,1.05" style="fill:#fff"/><path id="path10885" d="M131.14,86.994c.96.447,2,.743,5.1-.146s10.454-2.479,15.181-2.108L146.757,82.5l3.429-2.759c-.208-.04-.424-.089-.651-.144-5.244-1.482-10.269.221-14.7,2.071s-4.95,1.482-5.54.812l-1.182-2.294a1.737,1.737,0,0,1,.96-1.405c.887-.368,1.034-.445,1.034-.445s-.96-1.332-4.655,0-3.915,3.037-3.84,3.332a6.1,6.1,0,0,0,1.476-.368c.74-.3,2.514-1.332,3.031-.073a6.164,6.164,0,0,1,.515,1.515c.814,2.071-2.879,4.107-10.192,6.328s-8.793,3.11-15.294,7.848l1.034,2.814,3.393,1.054c4.623-3.287,6.7-4.322,13.008-6.235,7.314-2.221,10.934-4.369,10.12-6.442L127.52,84.85s1.331-1.181,2.144-.889L131.14,87" style="fill:#fff"/><path id="path142" d="M58.526,89.215a.951.951,0,0,0,.156,1.425.742.742,0,0,0,.356.1l-.075-.815.59.315.043.433a1.253,1.253,0,0,0,.586-.461,1,1,0,0,0-.139-1.438,1.164,1.164,0,0,0-1.517.445l-.532-.388a1.814,1.814,0,0,1,2.42-.57,1.582,1.582,0,0,1,.317,2.326,2.161,2.161,0,0,1-1.054.784l.053.694-.582-.3-.024-.351a1.513,1.513,0,0,1-.82-.252,1.574,1.574,0,0,1-.31-2.333l.532.388"/><path id="path144" d="M63.089,89.4l.67.065-.527,1.768c-.116.388-.244.942.327,1s.769-.489.887-.881l.527-1.765.67.065-.564,1.89A1.524,1.524,0,0,1,63.4,92.772c-.923-.092-1.1-.707-.874-1.478l.563-1.89"/><path id="path146" d="M67.431,92.9l-.683-.013.681-3.173.682.015-.68,3.171"/><path id="path148" d="M70.1,99.2l-.534-.375,1.587-2.278L70.6,96.16l.324-.467,1.637,1.143-.323.467-.553-.386L70.1,99.2"/><path id="path150" d="M74.455,98.552l-.3.568.082.021c.35.109.647.089.838-.272s-.024-.512-.36-.616l-.087-.028-.171.327-.641-.179.429-.808.859.256c.643.2.95.589.614,1.224a1.127,1.127,0,0,1-1.1.617l.257,1.527-.769-.231-.155-1.43-.01,0-.633,1.192-.635-.193,1.144-2.15.641.179"/><path id="path152" d="M78.386,99.689l-.389.676.8.063-.131-1.214H78.66l-.274.475-.558-.157.849-1.287.512.039.464,3.429-.7-.049-.093-.709-1.174-.089-.446.666-.7-.053,1.288-1.947.558.157"/><path id="path154" d="M82.013,98.4l.48.027,1.29,2.367h0l.482-2.186.663.034-.73,3.319-.477-.028-1.289-2.367h-.009l-.486,2.209-.663-.033.734-3.342"/><path id="path156" d="M88.28,99.658a.5.5,0,0,0-.433-.312.487.487,0,0,0-.509.32c-.147.546,1.247.453.952,1.539a1.291,1.291,0,0,1-1.408,1,.975.975,0,0,1-.863-.735l.532-.355a.56.56,0,0,0,.478.532.551.551,0,0,0,.561-.423c.09-.335-.2-.462-.441-.59-.385-.214-.645-.457-.509-.957a1.173,1.173,0,0,1,2.067-.42l-.427.4"/><path id="path158" d="M90.663,102.663l-.637-.122.987-2.653-.656-.126.2-.544,1.953.383-.2.538-.658-.126-.988,2.65"/><path id="path160" d="M93.723,100.02l.606.239L93.641,102c-.154.382-.334.936.181,1.141s.763-.321.914-.7l.686-1.745.606.243L95.3,102.8c-.3.759-.85,1.208-1.682.877s-.926-1.034-.625-1.793l.735-1.862"/><path id="path162" d="M97.257,104.472l.852.355-.219.524-1.453-.605,1.278-3.09.6.25-1.06,2.566"/><path id="path164" d="M100.034,106.163l-.614-.221,1.123-3.151.614.215-1.123,3.157"/><path id="path166" d="M102.805,106.867l-.651-.126.763-2.633-.673-.132.156-.538,2,.392-.156.536-.672-.132-.763,2.637"/><path id="path168" d="M105.479,96.2a.593.593,0,0,0-.572,0,.4.4,0,0,0-.171.532c.275.489,1.315-.366,1.864.615a1.056,1.056,0,0,1-.4,1.535,1.173,1.173,0,0,1-1.213-.065l.167-.565a.681.681,0,0,0,.761.13.447.447,0,0,0,.139-.631c-.169-.3-.495-.23-.772-.191a.947.947,0,0,1-1.094-.435.976.976,0,0,1,.36-1.352,1.371,1.371,0,0,1,.977-.123l-.045.546"/><path id="path170" d="M106.584,94.739l.577-.307.881,1.651c.192.361.5.857.987.6s.246-.792.051-1.159l-.879-1.651.574-.308.94,1.768c.384.723.37,1.431-.421,1.851s-1.384.043-1.768-.678l-.942-1.766"/><path id="path172" d="M111.839,92.9a.611.611,0,0,0-.568-.037.4.4,0,0,0-.211.516c.238.511,1.339-.266,1.813.753a1.055,1.055,0,0,1-.509,1.5,1.19,1.19,0,0,1-1.207-.15l.206-.554a.686.686,0,0,0,.751.183.442.442,0,0,0,.185-.618c-.145-.316-.476-.266-.755-.247a.953.953,0,0,1-1.06-.512.977.977,0,0,1,.458-1.324,1.358,1.358,0,0,1,.985-.05l-.086.538"/><path id="path174" d="M115.416,94.227l-.606.238-1.018-2.582-.626.247-.208-.528,1.858-.735.209.528-.626.246,1.017,2.586"/><path id="path176" d="M117.687,93.407l-.615.213-1.08-3.169.618-.211,1.077,3.167"/><path id="path178" d="M117.859,89.735l.442-.157,2.435,1.627,0,0L120,89.077l.612-.219,1.128,3.224-.442.154-2.433-1.62h-.007l.751,2.148-.616.215-1.134-3.244"/><path id="path18" d="M89.846,22.112c.472,1.857,4.313,1.722,5.155,1.655h0l3.538-1.013-.1.059c1.078,2.768,5.189,4.33,8.524,4.3,3.268-.033,5.425-1.08,6.739-2.971-1.146-1.216-1.449-1.587-1.314-3.714a2.492,2.492,0,0,1,2.325-2.262c1.347-.034,2.493,1.046,3.47,1.992,1.55,1.485,2.763,3.241,4.447,4.558,1.55,1.283,3.268,1.249,4.684,2.228a11.393,11.393,0,0,1,3.874,4.525c.573,1.486-.471,3.072-1.449,3.072-1.111,0-2.291-.979-2.089-1.89-1.954-1.452-5.727,1.654-6.637,5-1.213,4.355.64,9.049,2.864,10.939-.708,1.857-3.167,3.411-4.448,4.592a5.283,5.283,0,0,0,1.651,5.2c1.719.27,4.583.2,6.436.338.842.3.674,1.452.909,2.329a9.965,9.965,0,0,1,.708,3.714c-.573,3.883-1.786,7.192-5.458,9.725a24.954,24.954,0,0,1-5.728,2.971c-.977-.878-1.853-2.161-2.931-2.667-3.471-.068-7.716,1.722-8.895,4.254-.573,1.249.91,2.6,2.594,3.984-3.538,2.566-7.715,3.849-11.59,5.605a12.87,12.87,0,0,0-4.447,3.748c-2.022-2.431-3.066-3.478-4.953-4.356-3.336-1.519-7.345-2.4-9.872-5,1.55-.912,2.493-1.654,2.729-3.073-2.156-2.735-4.683-5.638-8.019-6.482-1.112.439-2.527,2.4-3.4,3.849-8.221-1.722-14.892-10.8-10.579-18.3.943.371,2.324,1.046,3.47.438,2.156-1.35,4.717-3.072,4.885-5.6-.067-2.431-1.92-4.153-4.11-5.268,1.449-1.046,3.032-4.76,3.133-7.428.1-2.5-1.28-4.794-2.594-6.921a6.291,6.291,0,0,0-2.864-2.3,5.155,5.155,0,0,1-2.965,1.924c-1.112.034-2.729-.878-2.729-2.026a3.477,3.477,0,0,1,1.382-2.87c2.762-1.688,6-2.8,8.524-4.828,1.516-1.249,2.223-3.478,3.807-4.761a6.034,6.034,0,0,1,1.92-1.148C72.072,25.078,74.5,25.9,77.91,27.06a14.212,14.212,0,0,0,11.936-4.948Z" style="fill:#fff"/><path id="path24" d="M88.937,21.741c-.506,3.14-5.869,5.11-8.969,5.221a10.5,10.5,0,0,1-7.237-3.634c.741-.169,1.583-1.756,1.482-3a2.552,2.552,0,0,0-1.954-2.229,2.984,2.984,0,0,0-1.819.135C68.991,25.522,76.5,28.7,80.311,28.6c3.808-.135,9.46-2.921,9.19-6.736v-.076Z" style="fill:#fff"/><path id="path180" d="M122.623,88.657l.3.678.95-.419.228.52-.949.418.361.827.986-.429.228.518-1.581.694L121.8,88.4l1.582-.7.229.518-.986.435"/><path id="path182" d="M127.178,89.365l-.567.323L125.577,87.1l-.586.332-.277-.493,1.738-.985.279.492-.585.335,1.032,2.582"/><path id="path1408" d="M108.374,81.263c.022.028-.022.046-.043.069h-.024v-.065l.067,0"/><path id="path1410" d="M108.333,81.555l-.045-.065c.043-.045.133.043.045.065"/><path id="path1412" d="M108.6,81.482h0"/><path id="path184" d="M35.313,77.462a35.794,35.794,0,0,0,12.564,1.159,29.047,29.047,0,0,1,9.642.779,34.959,34.959,0,0,0,7.034.335M33.915,82.957a36.429,36.429,0,0,0,13.962,1.555,28.811,28.811,0,0,1,7.915.3M64.555,77.9s3.324.331,2.6,2.333-2.844,1.528-5.707,1.108c-7.591-1.108-3.768,2.887-1.994,3.665s3.6,1.555,11.579,1.555,8.755,1.665,8.755,2.775-1.109,1.443-4.212,1-4.543-.443-4.653,1,1.329,3.553,6.2,3.778,12.855.777,16.069,1.555,6.759,2.44,10.082,3.441,4.877,2.331,7.978-1.445M64.425,79.735s2.13.1,2.126,1.4m4.3,10.464c.722-.311,2.012-.207,3.951.069,2.08.3,3.266.247,3.819-.153M79,90.42c-.063-1.833-1.345-2.527-8.737-2.527-7.978,0-9.807-.772-11.581-1.551a4.217,4.217,0,0,1-2.243-2.479m.6-1.046a6.956,6.956,0,0,1,3.642-.138c2.476.339,4.873.573,5.815-.609l.59-1.575M54.546,89.342c3.028,3.179,4.56,4.7,13.795,5.589m-1.182,1.555c-8.822-.852-10.4-2.375-13.2-5.286l3.073-9.5M71.3,90.412l-5.32,8.218c3.176,4.367,5.17,5.849,12.558,6s10.787.073,16.474,2.662,8.2,3.48,12.706,2.148a6.05,6.05,0,0,0,1.331-2.552c.442-1.667,2.991-6.773,3.766-8.659l-.885,1.438c-3.1,3.776-6.1,2.779-9.42,1.778S95.636,98.776,92.423,98s-11.192-1.33-16.067-1.555c-4.672-.211-6.19-2.158-6.212-3.59l-.1-.666M108.6,107.955c-4.506,1.336-7.019.67-12.706-1.921s-9.088-2.517-16.474-2.667-9.382-1.627-12.558-5.993M55.48,86.228a31.286,31.286,0,0,0-7.6-.331,36.233,36.233,0,0,1-13.962-1.555l-1.994-.5L38.9,80.623s-4.433-3.109-4.987-5.384A36.3,36.3,0,0,0,47.877,76.79a28.907,28.907,0,0,1,9.642.781,35.349,35.349,0,0,0,7.036.331" style="fill:none"/><path id="path186" d="M66.642,81.932l-1.477,4.219m12.041,8.811,2.438-5.181m48.609-9.329,3.473,8.143c.959.443,1.994.739,5.1-.15S148.937,86,153.665,86.374c-1.4-1.628-6.8-3.926-6.8-3.926l5.025-4.217a11.126,11.126,0,0,1-3.029-.37c-5.245-1.478-10.269.222-14.7,2.075s-4.949,1.478-5.539.812c-1.257-.812-.148-1.628,1.329-2.444s1.182-1.628-.222-1.7a10.819,10.819,0,0,0-9.085,3.335c-.96,1.18-.3,2.512,2.511,1.332,1.53-.648,2.438-1.041,2.955-.077.813,2.073-2.808,4.221-10.121,6.438s-8.938,3.26-15.439,8l1.7,3.994m19.28-17.914c-.073-1.923,5.911-5.033,8.5-3.626m-3.841,3.185,3.029,8.139c.812,2.075-2.807,4.219-10.12,6.44-5.668,1.721-7.919,2.734-11.669,5.3m21.671-18.8c.592.666,1.3,1.137,5.732-.716s9.457-3.553,14.7-2.071c.075.02.374.109.446.128m-18.841,7.27c.96.448,1.994.743,5.1-.145s10.49-2.367,15.217-2M101.215,96.886c6.5-4.738,7.906-5.627,15.219-7.848s11.028-4.414,10.216-6.485m-21.069,18.193c4.613-3.283,6.692-4.313,12.995-6.231,7.313-2.221,10.934-4.365,10.119-6.438m-8.42-6.809,1.994,3.849m8.643-7.922.961,3.48m-.517-1.7c-1.331.591-2.881,1.482-2.143,2.073m-8.051,1.7c.368.445,1.107.369,2.436-.225s2.586-.739,2.362-.145m1.554,2.37A3.187,3.187,0,0,1,129.805,84m-1.922,2a3.768,3.768,0,0,1,2.512-.594" style="fill:none"/><path id="path10807" d="M121.134,82.792c.431.664,1.7.186,3.1-.407.9-.255,1.7-.489,1.612.1-.11,1-3.424,2.73-3.529,2.513a20.008,20.008,0,0,0-1.183-2.21Z" style="fill:#fff"/><path id="path10830" d="M131.765,80.71c-.931.338-.536.165-1.181.373-.729.038-1.463.322-1.446-.472a4.8,4.8,0,0,1,2.178-1.493c.2.644.226.841.449,1.592Z" style="fill:#fff"/><path id="path10974" d="M59.247,27.608,61.9,26.22c2.588-1.633,2.879-1.645,4.223-3.327,1.757-2.2.71-1.573,2.414-3.288.235,2.861,5.249,10.91,10.606,10.852a13.26,13.26,0,0,0,11.885-6.7,33.359,33.359,0,0,1,4.717-.067c1.448,4.186,6.873,6.854,11.287,6.82,4.784-.034,11.186-3.14,10.647-10.737,6.954,9.067,6.565,4.2,12.095,9.656-10.095-.779-17.419,12.892-9.1,22.549-1.171,1.462-1.821,3.514-.828,3.624l4.081,3.648c8.412,7.842-2.545,14.343-8.037,15.829l-8.322,5.807h-2.291c-2.628,3.107-9.232,3.174-12.365,6.922-4.044-4.659-9.165-3.174-11.389-7.293H80.075s-4.115-1.991-10.485-5.4c-7.376-3.395-10.653-5.466-7.982-14.755,6.589-4.372,6.11-6.7,4.653-9.424,5.326-7.959,5.476-19.208-7.952-22.882l.938-.443Z" style="fill:#fff"/><path id="path90" d="M83.647,50.677a.62.62,0,0,1,.876-.27.564.564,0,0,1,.067.911.588.588,0,0,1-.1,1.148.588.588,0,0,1-.168,1.115.652.652,0,0,1-.27,1.012.49.49,0,0,1-.337.507.55.55,0,0,1-.1.675.624.624,0,0,1-.3.405.585.585,0,0,1-.573.439,1.195,1.195,0,0,1-.572-1.587c-.506-.2-.573-.742-.236-.979a.65.65,0,0,1-.135-.4.534.534,0,0,1-.236-.709.587.587,0,0,1-.371-.945.588.588,0,0,1,.135-1.013.579.579,0,0,1,1.045-.405.549.549,0,0,1,.64.168.605.605,0,0,1,.64-.067Zm.337-11.818a.621.621,0,0,1,.876-.27.565.565,0,0,1,.067.912.588.588,0,0,1-.1,1.148.588.588,0,0,1-.168,1.114.653.653,0,0,1-.27,1.013.489.489,0,0,1-.337.506.551.551,0,0,1-.1.676.629.629,0,0,1-.3.405.586.586,0,0,1-.573.439.569.569,0,0,1-.573-.574.564.564,0,0,1,0-1.013c-.505-.2-.572-.743-.235-.979a.651.651,0,0,1-.135-.406.532.532,0,0,1-.236-.708.588.588,0,0,1-.371-.946.588.588,0,0,1,.135-1.013,1.448,1.448,0,0,1,1.685-.236.6.6,0,0,1,.64-.068ZM73.91,42.3a.621.621,0,0,0-.876-.27.565.565,0,0,0-.068.912.588.588,0,0,0,.1,1.148.588.588,0,0,0,.169,1.114.653.653,0,0,0,.269,1.013.492.492,0,0,0,.337.506.554.554,0,0,0,.1.676.631.631,0,0,0,.3.405.585.585,0,0,0,.572.439.569.569,0,0,0,.573-.574.564.564,0,0,0,0-1.013c.506-.2.573-.743.236-.979a.651.651,0,0,0,.135-.406A.535.535,0,0,0,76,44.565a.587.587,0,0,0,.37-.945.588.588,0,0,0-.134-1.013,1.448,1.448,0,0,0-1.685-.236.605.605,0,0,0-.64-.068Z" style="fill:#b400b4;stroke:#000;stroke-width:0.101185px"/><path id="path100" d="M103.391,50.677a.62.62,0,0,0-.876-.27.564.564,0,0,0-.068.911.588.588,0,0,0,.1,1.148.589.589,0,0,0,.169,1.115.652.652,0,0,0,.269,1.012.492.492,0,0,0,.338.507.551.551,0,0,0,.1.675.628.628,0,0,0,.3.405.584.584,0,0,0,.572.439,1.194,1.194,0,0,0,.573-1.587c.506-.2.573-.742.236-.979a.65.65,0,0,0,.135-.4.535.535,0,0,0,.236-.709.587.587,0,0,0,.37-.945.588.588,0,0,0-.134-1.013.579.579,0,0,0-1.045-.405.549.549,0,0,0-.64.168.605.605,0,0,0-.64-.067Zm-.337-11.818a.621.621,0,0,0-.876-.27.564.564,0,0,0-.067.912.588.588,0,0,0,.1,1.148.588.588,0,0,0,.168,1.114.653.653,0,0,0,.27,1.013.49.49,0,0,0,.336.506.553.553,0,0,0,.1.676.626.626,0,0,0,.3.405.585.585,0,0,0,.573.439.568.568,0,0,0,.572-.574.564.564,0,0,0,0-1.013c.506-.2.573-.743.236-.979a.651.651,0,0,0,.135-.406.532.532,0,0,0,.236-.708.588.588,0,0,0,.37-.946.588.588,0,0,0-.134-1.013,1.448,1.448,0,0,0-1.685-.236.6.6,0,0,0-.64-.068ZM113.128,42.3a.621.621,0,0,1,.876-.27.564.564,0,0,1,.067.912.588.588,0,0,1-.1,1.148.588.588,0,0,1-.168,1.114.653.653,0,0,1-.27,1.013.489.489,0,0,1-.337.506.551.551,0,0,1-.1.676.626.626,0,0,1-.3.405.585.585,0,0,1-.573.439.568.568,0,0,1-.572-.574.564.564,0,0,1,0-1.013c-.506-.2-.573-.743-.236-.979a.651.651,0,0,1-.135-.406.533.533,0,0,1-.236-.709.588.588,0,0,1-.371-.945.588.588,0,0,1,.135-1.013,1.448,1.448,0,0,1,1.685-.236.605.605,0,0,1,.64-.068Z" style="fill:#b400b4;stroke:#000;stroke-width:0.101185px"/><path id="path92" d="M82.535,55.4c-.135.506.236,1.013.64.911a.6.6,0,0,1-1.044-.27c-.1-.168.067-.574.4-.641Zm.4-.439c-.134.439.337.81.742.743a.62.62,0,0,1-1.045-.237.342.342,0,0,1,.3-.506Zm.371-.946c-.135.473.236.98.64.878a.6.6,0,0,1-1.044-.236.481.481,0,0,1,.4-.642Zm-1.078-.945c-.169.473.236.979.64.878a.614.614,0,0,1-1.078-.236.536.536,0,0,1,.438-.642Zm.741-.439c-.135.507.236,1.013.674.878a.627.627,0,0,1-1.078-.2.544.544,0,0,1,.4-.675ZM82,52.027a.541.541,0,0,0,.64.743.614.614,0,0,1-1.078-.236c-.067-.2.067-.439.438-.507Zm1.651-.033a.648.648,0,0,0,.64.877.623.623,0,0,1-1.078-.236.522.522,0,0,1,.438-.641Zm-.91-.642c-.135.507.068.912.472.844a.471.471,0,0,1-.876-.169.556.556,0,0,1,.4-.675Zm-1.381-.371c-.135.506.236,1.013.674.911a.633.633,0,0,1-1.078-.236.543.543,0,0,1,.4-.675Zm.337-.608c-.135.506.236.979.64.912a.6.6,0,0,1-1.044-.237.509.509,0,0,1,.4-.675Zm1.55.27c-.135.473.235.979.64.912a.608.608,0,0,1-1.045-.237.532.532,0,0,1,.405-.675Zm.808-.3a.666.666,0,0,0,.64.912.6.6,0,0,1-1.044-.237.521.521,0,0,1,.4-.675Zm-1.179-6.753c-.135.507.236,1.013.64.912a.6.6,0,0,1-1.044-.27c-.1-.169.067-.574.4-.642Zm.4-.439c-.134.439.337.811.742.743a.62.62,0,0,1-1.045-.236.342.342,0,0,1,.3-.507Zm.371-.945c-.135.473.236.979.64.878a.6.6,0,0,1-1.044-.237.48.48,0,0,1,.4-.641Zm-1.078-.946c-.169.473.236.98.64.878a.613.613,0,0,1-1.078-.236.536.536,0,0,1,.438-.642Zm.741-.438c-.135.506.236,1.012.674.878a.627.627,0,0,1-1.078-.2.543.543,0,0,1,.4-.675Zm-.977-.608a.541.541,0,0,0,.64.743.614.614,0,0,1-1.078-.237c-.067-.2.067-.439.438-.506Zm1.651-.034a.649.649,0,0,0,.64.878.624.624,0,0,1-1.078-.236.522.522,0,0,1,.438-.642Zm-.91-.642c-.135.507.068.912.472.845a.471.471,0,0,1-.876-.169.557.557,0,0,1,.4-.676Zm-1.381-.371c-.135.507.236,1.013.674.912a.633.633,0,0,1-1.078-.237.543.543,0,0,1,.4-.675Zm.337-.608c-.135.507.236.979.64.912a.6.6,0,0,1-1.045-.236.511.511,0,0,1,.405-.676Zm1.55.27c-.135.473.235.98.64.912a.608.608,0,0,1-1.045-.236.532.532,0,0,1,.405-.676Zm.808-.3a.665.665,0,0,0,.64.911.6.6,0,0,1-1.044-.236.52.52,0,0,1,.4-.675ZM75.022,47.03c.134.507-.236,1.013-.641.912a.6.6,0,0,0,1.045-.27c.1-.169-.067-.574-.4-.642Zm-.405-.439c.135.439-.337.811-.741.743a.62.62,0,0,0,1.045-.236.343.343,0,0,0-.3-.507Zm-.37-.945c.134.473-.236.979-.64.878a.6.6,0,0,0,1.044-.237.481.481,0,0,0-.4-.641Zm1.078-.946c.168.473-.236.98-.64.878a.613.613,0,0,0,1.078-.236.537.537,0,0,0-.438-.642Zm-.741-.438c.134.506-.236,1.012-.674.877a.627.627,0,0,0,1.078-.2.543.543,0,0,0-.4-.675Zm.977-.608a.541.541,0,0,1-.64.743A.614.614,0,0,0,76,44.16c.067-.2-.068-.439-.438-.506ZM73.91,43.62a.649.649,0,0,1-.64.878.624.624,0,0,0,1.078-.236.524.524,0,0,0-.438-.642Zm.909-.642c.135.507-.067.912-.471.845a.471.471,0,0,0,.876-.169.558.558,0,0,0-.405-.676Zm1.382-.371c.135.507-.236,1.013-.674.912a.633.633,0,0,0,1.078-.237.544.544,0,0,0-.4-.675ZM75.864,42c.135.507-.236.979-.64.912a.6.6,0,0,0,1.044-.236.51.51,0,0,0-.4-.676Zm-1.55.271c.135.472-.236.979-.64.911a.608.608,0,0,0,1.044-.236.531.531,0,0,0-.4-.675Zm-.809-.3a.664.664,0,0,1-.64.911.6.6,0,0,0,1.045-.236.52.52,0,0,0-.405-.675Z" style="fill:#642864;stroke:#000;stroke-width:0.101185px"/><path id="path116" d="M59.961,59.557a3.313,3.313,0,0,0,1.988-.034c-3.167,7.023,1.819,12.8,8.423,15.971-.3.506-.606.877-.91,1.316-6.536-2.937-12.9-9.217-9.5-17.253Zm21.462,21.17H79.975v1.79h0c2.863,3.477,10.646,3.781,12.836,7.9,3.336-4.423,10.479-4.963,14.657-8.373h0V81.1h-2.291c-2.629,3.107-9.232,3.174-12.366,6.922-4.043-4.659-9.164-3.174-11.388-7.293Zm42.183-22.149a14.791,14.791,0,0,1,2.123.1c4.009,8.947-.876,13.877-8.491,18.1a12.063,12.063,0,0,0-1.448-1.486c5.492-1.486,13.14-7.766,7.816-16.713Zm-1.516-8.036-1.516,1.317c-8.322-9.657-1.55-23.771,9.1-22.217,1.011.135,1.819,2.363,1.415,2.228-12.331-5.065-14.656,13.472-9,18.672ZM97.057,21.707c.1.675.572,1.08,1.01.945.472-.168.607-.979.506-1.452-.068-.607-.539-1.519-1.314-1.519a1.829,1.829,0,0,0-1.55,1.79c-.034.776-.034,1.62-.068,2.431,1.449,4.186,6.874,6.854,11.288,6.82,4.784-.034,11.185-3.14,10.646-10.737-.4-.371-.775-.777-1.145-1.148.91,6.28-5.121,10.1-9.535,9.994-3.673-.1-10.411-2.836-9.838-7.124ZM91.3,20.8a9.206,9.206,0,0,1-.37,3.174c-1.247,2.6-3.1,6.145-10.782,6.483-8.289.338-12.3-6.348-11.287-11.311a4.373,4.373,0,0,1,1.617-.912c-1.449,5,3.5,10.366,9.838,10.366,4.481,0,9.7-3.782,9.1-6.787-1.752,0-1.954-2.7.472-2.667A1.4,1.4,0,0,1,91.3,20.8ZM57.6,28.156C71.416,30.891,71.652,43.688,66.16,51.15c-.471-.574-.943-1.148-1.415-1.689,5.425-6.314,2.932-17.929-8.557-20.495l1.415-.81ZM113.735,24.1c.977-1.182,1.347-1.553,1.381-2.5.034-.541-.135-1.959-.674-1.959-.573,0-.775,1.115-.842,1.655-.068.709.842,1.587.135,2.8Zm13.881,8.509c1.145.3,1.786-.338,2.392.067.4.271.472.608.3.878a.955.955,0,0,1-1.044.405c-.708-.2-.944-.877-1.651-1.35ZM72.764,23.4a5.484,5.484,0,0,1-1.179-2.7c-.034-.642.371-1.654.876-1.418a1.71,1.71,0,0,1,.64,1.958,4.733,4.733,0,0,0-.337,2.161ZM60.466,31.9c-1.347-.675-2.088-1.182-3.2-1.047a1.377,1.377,0,0,0-1.247,1.452,1.364,1.364,0,0,0,1.752.844c1.011-.27,1.381-1.013,2.7-1.249Z" style="fill:#ffd312"/><path id="path102" d="M104.5,55.4c.134.506-.236,1.013-.641.911a.6.6,0,0,0,1.045-.27c.1-.168-.067-.574-.4-.641Zm-.405-.439c.135.439-.336.81-.741.743a.62.62,0,0,0,1.045-.237.342.342,0,0,0-.3-.506Zm-.37-.946c.134.473-.236.98-.64.878a.6.6,0,0,0,1.044-.236.481.481,0,0,0-.4-.642Zm1.078-.945c.168.473-.236.979-.64.878a.614.614,0,0,0,1.078-.236.536.536,0,0,0-.438-.642Zm-.741-.439c.135.507-.236,1.013-.674.878a.627.627,0,0,0,1.078-.2.544.544,0,0,0-.4-.675Zm.977-.608a.541.541,0,0,1-.64.743.614.614,0,0,0,1.078-.236c.067-.2-.068-.439-.438-.507Zm-1.651-.033a.649.649,0,0,1-.64.877.624.624,0,0,0,1.078-.236.522.522,0,0,0-.438-.641Zm.909-.642c.135.507-.067.912-.471.844a.471.471,0,0,0,.876-.169.557.557,0,0,0-.405-.675Zm1.382-.371c.135.506-.236,1.013-.674.911a.633.633,0,0,0,1.078-.236.543.543,0,0,0-.4-.675Zm-.337-.608c.135.506-.236.979-.64.912a.6.6,0,0,0,1.044-.237.51.51,0,0,0-.4-.675Zm-1.55.27c.135.473-.236.979-.64.912a.608.608,0,0,0,1.045-.237.533.533,0,0,0-.405-.675Zm-.809-.3a.665.665,0,0,1-.64.912.6.6,0,0,0,1.045-.237.521.521,0,0,0-.405-.675Zm1.18-6.753c.134.507-.236,1.013-.64.912a.6.6,0,0,0,1.044-.27c.1-.169-.067-.574-.4-.642Zm-.4-.439c.134.439-.338.811-.742.743a.62.62,0,0,0,1.045-.236.342.342,0,0,0-.3-.507Zm-.371-.945c.135.473-.236.979-.64.878a.6.6,0,0,0,1.044-.237.48.48,0,0,0-.4-.641Zm1.078-.946c.168.473-.236.98-.64.878a.613.613,0,0,0,1.078-.236.537.537,0,0,0-.438-.642Zm-.741-.438c.134.506-.236,1.012-.674.878a.627.627,0,0,0,1.078-.2.543.543,0,0,0-.4-.675Zm.977-.608a.541.541,0,0,1-.64.743.614.614,0,0,0,1.078-.237c.067-.2-.067-.439-.438-.506Zm-1.651-.034a.649.649,0,0,1-.64.878.624.624,0,0,0,1.078-.236.524.524,0,0,0-.438-.642Zm.91-.641c.134.506-.068.911-.472.844a.471.471,0,0,0,.876-.169.558.558,0,0,0-.4-.676h0Zm1.381-.372c.135.507-.236,1.013-.674.912a.633.633,0,0,0,1.078-.237.544.544,0,0,0-.4-.675Zm-.337-.608c.135.507-.236.98-.64.912a.6.6,0,0,0,1.044-.236.51.51,0,0,0-.4-.676Zm-1.55.27c.135.473-.236.98-.64.912a.608.608,0,0,0,1.045-.236.532.532,0,0,0-.405-.676Zm-.808-.3a.665.665,0,0,1-.64.911.6.6,0,0,0,1.044-.236.52.52,0,0,0-.4-.675Zm9.366,8.508c-.135.507.236,1.013.64.912a.6.6,0,0,1-1.044-.27c-.1-.169.067-.574.4-.642Zm.405-.439c-.135.439.336.811.741.743a.62.62,0,0,1-1.045-.236.343.343,0,0,1,.3-.507Zm.37-.945c-.135.473.236.979.64.878a.6.6,0,0,1-1.044-.237.481.481,0,0,1,.4-.641Zm-1.078-.946c-.169.473.236.98.64.878a.613.613,0,0,1-1.078-.236.536.536,0,0,1,.438-.642Zm.741-.438c-.135.506.236,1.012.674.877a.627.627,0,0,1-1.078-.2.543.543,0,0,1,.4-.675Zm-.977-.608a.541.541,0,0,0,.64.743.614.614,0,0,1-1.078-.237c-.067-.2.067-.439.438-.506Zm1.651-.034a.649.649,0,0,0,.64.878.624.624,0,0,1-1.078-.236.523.523,0,0,1,.438-.642Zm-.91-.642c-.135.507.068.912.472.845a.471.471,0,0,1-.876-.169.557.557,0,0,1,.4-.676Zm-1.381-.371c-.135.507.236,1.013.674.912a.633.633,0,0,1-1.078-.237.544.544,0,0,1,.4-.675Zm.337-.608c-.135.507.236.979.64.912a.6.6,0,0,1-1.044-.236.51.51,0,0,1,.4-.676Zm1.55.271c-.135.472.236.979.64.911a.608.608,0,0,1-1.045-.236.531.531,0,0,1,.405-.675Zm.808-.3a.665.665,0,0,0,.641.911.6.6,0,0,1-1.045-.236.52.52,0,0,1,.4-.675Z" style="fill:#642864;stroke:#000;stroke-width:0.101185px"/><path id="path52" d="M91.565,74.346c.2-.642.674-.676.674-1.587h0V53.513h0a.49.49,0,0,1,.5-.473h0a.556.556,0,0,1,.573.473V72.759c.269.911-.169,1.418.606,1.452a29.2,29.2,0,0,1,6,.81c.2.169.168.338,0,.506h-12.5a.609.609,0,0,1,.235-.742c2.056-.608,3.841-.169,3.909-.439Zm14.353-15.768c.236-.709.741-.743.741-1.722h0V35.584h0a.505.505,0,0,1,.539-.506h0a.594.594,0,0,1,.607.54q0,10.585.033,21.238c.27.979-.236,1.553.607,1.587a28.743,28.743,0,0,1,6.469.878c.236.168.168.371,0,.573H101.437a.72.72,0,0,1,.269-.844c2.224-.675,4.111-.169,4.212-.472Zm-24.933,0c-.236-.709-.741-.743-.741-1.722h0V35.584h0a.505.505,0,0,0-.539-.506h0a.533.533,0,0,0-.539.54q0,10.585-.034,21.238c-.269.979.169,1.553-.606,1.587a28.727,28.727,0,0,0-6.469.878c-.236.168-.169.371,0,.573H85.466a.72.72,0,0,0-.269-.844c-2.224-.675-4.111-.169-4.212-.472Z" style="fill:#961e1d;stroke:#000;stroke-width:0.378664px"/><path id="path54" d="M90.925,53.31a1.134,1.134,0,0,0,1.145.743A4.608,4.608,0,0,1,94.6,55.1a5.652,5.652,0,0,1,1.617,2.735,1.482,1.482,0,0,1-.3,1.384,23.869,23.869,0,0,1-2.527,1.722,6.329,6.329,0,0,0-2.224,2.3,2.475,2.475,0,0,0,.135,2.229c.64,1.215,1.954,2.228,3,3.41.2.2.808-.034.909.3.506,1.485.169,2.768.472,4.322.169.945,1.449.945,2.022,1.215a9.693,9.693,0,0,1-3.437-.608,1.026,1.026,0,0,0,.405-.911,5.539,5.539,0,0,0-1.011-3.242c-.843-.878-1.921-1.924-2.729-2.836a3.369,3.369,0,0,1-1.112-1.891,3.945,3.945,0,0,1,.808-3.072c.843-1.283,2.561-1.959,3.808-2.769a2.429,2.429,0,0,0,.707-1.621,2.689,2.689,0,0,0-1.449-2.093c-.606-.1-1.92.034-2.527-.135-.2-.068-.033-.338-.336-.338-.337-.034-.573.2-.708.54.034-.27-.371-.405-.775-.3a2.41,2.41,0,0,1,1.752-.946c.067-.371-.3-.743-.64-.979.337.135.472.068.472-.2Zm14.285-18a1.234,1.234,0,0,0,1.213.81,5.38,5.38,0,0,1,2.763,1.148,6.817,6.817,0,0,1,1.718,3.039,1.666,1.666,0,0,1-.337,1.519,20.3,20.3,0,0,1-2.695,1.891,7,7,0,0,0-2.426,2.533,2.873,2.873,0,0,0,.169,2.464c.707,1.351,2.088,2.465,3.2,3.748.236.27.876,0,1.011.372.539,1.62.169,3.039.472,4.761.2,1.046,1.617,1.046,2.224,1.316a10.621,10.621,0,0,1-3.74-.641,1.178,1.178,0,0,0,.471-1.013,6.647,6.647,0,0,0-1.078-3.613c-.943-.945-2.089-2.093-2.965-3.106A3.785,3.785,0,0,1,104,48.482a4.494,4.494,0,0,1,.91-3.41c.876-1.418,2.729-2.161,4.077-3.039a2.586,2.586,0,0,0,.741-1.789,2.756,2.756,0,0,0-1.516-2.3c-.674-.135-2.089,0-2.763-.169-.2-.068-.034-.372-.37-.372-.337-.033-.573.237-.742.574.034-.27-.4-.405-.842-.3a2.613,2.613,0,0,1,1.887-1.08c.067-.371-.337-.81-.708-1.047.371.135.539.068.539-.236Zm-23.45,0a1.234,1.234,0,0,1-1.213.81,5.384,5.384,0,0,0-2.763,1.148,6.817,6.817,0,0,0-1.718,3.039A1.666,1.666,0,0,0,76.4,41.83a20.314,20.314,0,0,0,2.7,1.891,7.005,7.005,0,0,1,2.425,2.533,2.873,2.873,0,0,1-.168,2.464c-.708,1.351-2.089,2.465-3.2,3.748-.236.27-.876,0-1.011.372-.539,1.62-.168,3.039-.471,4.761-.2,1.046-1.618,1.046-2.224,1.316a10.625,10.625,0,0,0,3.74-.641,1.179,1.179,0,0,1-.472-1.013A6.647,6.647,0,0,1,78.8,53.648c.944-.945,2.089-2.093,2.965-3.106a4.1,4.1,0,0,0,1.146-2.06,4.738,4.738,0,0,0-.843-3.41c-.876-1.418-2.729-2.161-4.076-3.039a2.59,2.59,0,0,1-.742-1.789,2.754,2.754,0,0,1,1.517-2.3c.673-.135,2.089,0,2.762-.169.2-.068.034-.372.371-.372.27-.033.505.237.674.574-.034-.27.4-.405.842-.3a2.611,2.611,0,0,0-1.819-1.08c-.068-.371.337-.81.64-1.047-.3.135-.472.068-.472-.236Z" style="fill:#961e1d;stroke:#000;stroke-width:0.378664px"/><path id="path110" d="M88.667,68a.62.62,0,0,0-.876-.27.564.564,0,0,0-.067.911.588.588,0,0,0,.1,1.148.588.588,0,0,0,.168,1.115.653.653,0,0,0,.27,1.013.489.489,0,0,0,.337.506.55.55,0,0,0,.1.675.631.631,0,0,0,.3.406.586.586,0,0,0,.573.438,1.193,1.193,0,0,0,.573-1.586c.5-.2.572-.743.236-.98a.649.649,0,0,0,.134-.405.534.534,0,0,0,.236-.709.587.587,0,0,0,.371-.945.588.588,0,0,0-.135-1.013,1.451,1.451,0,0,0-1.685-.237.6.6,0,0,0-.64-.067ZM88.33,56.18a.621.621,0,0,0-.876-.27.565.565,0,0,0-.067.912.588.588,0,0,0,.1,1.148.588.588,0,0,0,.168,1.114.653.653,0,0,0,.27,1.013.489.489,0,0,0,.337.506.551.551,0,0,0,.1.676.629.629,0,0,0,.3.4.587.587,0,0,0,.573.439,1.194,1.194,0,0,0,.573-1.587c.5-.2.573-.743.236-.979a.649.649,0,0,0,.134-.405.534.534,0,0,0,.236-.709.588.588,0,0,0,.371-.946.588.588,0,0,0-.135-1.013,1.448,1.448,0,0,0-1.685-.236.6.6,0,0,0-.64-.068ZM98.4,59.624a.621.621,0,0,1,.876-.27.564.564,0,0,1,.068.912.588.588,0,0,1-.1,1.148.588.588,0,0,1-.169,1.114.653.653,0,0,1-.269,1.013.49.49,0,0,1-.337.506.554.554,0,0,1-.1.676.631.631,0,0,1-.3.405.585.585,0,0,1-.572.439,1.194,1.194,0,0,1-.573-1.587c-.506-.2-.573-.743-.236-.979a.65.65,0,0,1-.135-.405.536.536,0,0,1-.236-.71.587.587,0,0,1-.37-.945.588.588,0,0,1,.134-1.013,1.448,1.448,0,0,1,1.685-.236.605.605,0,0,1,.64-.068Z" style="fill:#b400b4;stroke:#000;stroke-width:0.101185px"/><path id="path112" d="M89.779,71.631c.135.506-.236,1.013-.64.911a.6.6,0,0,0,1.044-.27c.1-.169-.067-.574-.4-.641Zm-.4-.439c.135.439-.337.81-.742.743a.62.62,0,0,0,1.045-.237.341.341,0,0,0-.3-.506ZM89,70.246c.135.473-.236.979-.64.878a.6.6,0,0,0,1.044-.236.48.48,0,0,0-.4-.642Zm1.078-.945c.169.473-.236.979-.64.878a.614.614,0,0,0,1.078-.236.536.536,0,0,0-.438-.642Zm-.741-.439c.135.506-.236,1.013-.674.878a.627.627,0,0,0,1.078-.2.543.543,0,0,0-.4-.675Zm.977-.608a.541.541,0,0,1-.64.743.614.614,0,0,0,1.078-.236c.068-.2-.067-.439-.438-.507Zm-1.651-.033a.648.648,0,0,1-.64.877.624.624,0,0,0,1.078-.236.521.521,0,0,0-.438-.641Zm.91-.642c.135.506-.067.912-.472.844a.471.471,0,0,0,.876-.169.556.556,0,0,0-.4-.675Zm1.381-.372c.135.507-.236,1.014-.674.912a.634.634,0,0,0,1.079-.236.545.545,0,0,0-.405-.676Zm-.337-.607c.135.506-.235.979-.64.911a.6.6,0,0,0,1.045-.236.51.51,0,0,0-.405-.675Zm-1.549.27c.134.473-.236.979-.641.911a.608.608,0,0,0,1.045-.236.532.532,0,0,0-.4-.675Zm-.809-.3a.666.666,0,0,1-.64.912.6.6,0,0,0,1.044-.237.521.521,0,0,0-.4-.675Zm1.179-6.753c.135.507-.236,1.013-.64.912a.6.6,0,0,0,1.044-.27c.1-.169-.067-.574-.4-.642Zm-.4-.439c.135.439-.337.811-.741.743a.619.619,0,0,0,1.044-.236.342.342,0,0,0-.3-.507Zm-.371-.945c.135.473-.236.979-.64.878a.6.6,0,0,0,1.045-.237.481.481,0,0,0-.405-.641Zm1.078-.946c.169.473-.235.98-.64.878a.614.614,0,0,0,1.078-.236.536.536,0,0,0-.438-.642ZM89,57.044c.135.507-.236,1.013-.674.878a.627.627,0,0,0,1.078-.2.544.544,0,0,0-.4-.676Zm.977-.607a.541.541,0,0,1-.64.743.614.614,0,0,0,1.078-.237c.068-.2-.067-.439-.438-.506ZM88.33,56.4a.649.649,0,0,1-.64.878.624.624,0,0,0,1.078-.237.522.522,0,0,0-.438-.641Zm.91-.642c.135.507-.067.912-.472.845a.471.471,0,0,0,.876-.169.556.556,0,0,0-.4-.676Zm1.381-.371c.135.506-.235,1.013-.673.912a.633.633,0,0,0,1.078-.237.544.544,0,0,0-.405-.675Zm-.337-.608c.135.507-.235.979-.64.912a.6.6,0,0,0,1.045-.236.511.511,0,0,0-.4-.676Zm-1.549.27c.134.473-.236.98-.641.912a.608.608,0,0,0,1.045-.236.532.532,0,0,0-.4-.676Zm-.809-.3a.665.665,0,0,1-.64.912.6.6,0,0,0,1.044-.236.521.521,0,0,0-.4-.676Zm9.366,8.509c-.134.507.236,1.013.641.912a.6.6,0,0,1-1.045-.27c-.1-.169.068-.574.4-.642Zm.405-.439c-.135.439.337.811.741.743a.619.619,0,0,1-1.044-.236.342.342,0,0,1,.3-.507Zm.37-.945c-.134.473.236.979.641.878a.6.6,0,0,1-1.045-.237.481.481,0,0,1,.4-.641Zm-1.078-.946c-.168.473.236.979.64.878a.614.614,0,0,1-1.078-.236.537.537,0,0,1,.438-.642Zm.741-.439c-.134.507.236,1.013.674.878a.627.627,0,0,1-1.078-.2.545.545,0,0,1,.4-.676Zm-.977-.607a.542.542,0,0,0,.641.743.614.614,0,0,1-1.079-.237c-.067-.2.068-.439.438-.506Zm1.651-.034a.649.649,0,0,0,.64.878.624.624,0,0,1-1.078-.237.523.523,0,0,1,.438-.641Zm-.909-.642c-.135.507.067.912.471.845a.471.471,0,0,1-.876-.169.558.558,0,0,1,.405-.676Zm-1.382-.371c-.135.506.236,1.013.674.912a.633.633,0,0,1-1.078-.237.544.544,0,0,1,.4-.675Zm.337-.608c-.135.507.236.979.64.912a.6.6,0,0,1-1.044-.236.51.51,0,0,1,.4-.676ZM98,58.5c-.135.473.236.98.64.912a.608.608,0,0,1-1.044-.236A.532.532,0,0,1,98,58.5Zm.809-.3a.665.665,0,0,0,.64.912.6.6,0,0,1-1.045-.236.521.521,0,0,1,.405-.676Z" style="fill:#642864;stroke:#000;stroke-width:0.101185px"/><path id="path40" d="M80.716,36.327a1.431,1.431,0,0,1,1.381-.642,5.662,5.662,0,0,1-.707-3.714c.168.439.269.541.572.473.068-.405.472-.574.809-.675a.946.946,0,0,1,.067,1.013.451.451,0,0,1,.809-.1,1.188,1.188,0,0,1-.1,1.52,1.5,1.5,0,0,0,1.819-1.216c.337.338.337.473.135.878.371-.3,1.011-.1,1.449.3,0,.507-.472,1.182-.876,1.182.3.033.471.236.505.675a1.951,1.951,0,0,0-2.156.4,1.29,1.29,0,0,1,1.011.979.59.59,0,0,1-.641.507c.337,0,.506.236.54.709a.825.825,0,0,1-.944-.135c-.2.236-.1.405-.067.81-.977-.3-1.719-1.857-2.022-3.005a1.184,1.184,0,0,0-1.348.574c-.168.2-.438-.27-.235-.54ZM77.549,37.61c-.169-.507-.539-.945-1.045-.912a5.118,5.118,0,0,0,1.752-3.072c-.269.337-.37.371-.64.236.067-.405-.2-.641-.472-.844a.9.9,0,0,0-.4.878.417.417,0,0,0-.674-.338,1.153,1.153,0,0,0-.371,1.385,1.357,1.357,0,0,1-1.246-1.587c-.4.169-.472.27-.371.709-.236-.372-.909-.372-1.381-.169-.169.506.034,1.215.4,1.317-.269-.034-.471.067-.64.439a1.819,1.819,0,0,1,1.786,1.013,1.1,1.1,0,0,0-1.18.54c-.067.371.169.54.438.675-.3-.1-.539,0-.707.4.236.3.539.27.876.169.1.27-.034.405-.2.743,1.011.034,2.089-1.148,2.7-2.06.506,0,.843.338,1.045.912.067.2.438-.135.337-.439Zm1.145,15.025a1.682,1.682,0,0,0-1.583-.3c.539-.844.876-2.735.4-3.511-.1.405-.236.472-.573.506-.135-.337-.573-.439-.943-.472a.76.76,0,0,0,0,.979.551.551,0,0,0-.91.033,1.008,1.008,0,0,0,.236,1.385,1.6,1.6,0,0,1-2.123-.777c-.37.372-.37.507-.033.844a1.755,1.755,0,0,0-1.618.541,1.121,1.121,0,0,0,1.112.945.669.669,0,0,0-.539.709,2.464,2.464,0,0,1,2.46-.034c-.775.338-.944.676-.977,1.081.067.337.4.371.774.337a.617.617,0,0,0-.539.743,1.017,1.017,0,0,0,1.045-.337c.2.2.135.371.1.81,1.112-.507,1.752-2.06,1.954-3.208a1.47,1.47,0,0,1,1.584.3c.2.135.471-.371.168-.574Zm3.5-4.963a1.32,1.32,0,0,0,1.348.135,4.762,4.762,0,0,0,.3,3.343c0-.406.067-.473.371-.507a.844.844,0,0,0,.842.371.74.74,0,0,0-.135-.877.421.421,0,0,0,.741-.1,1.1,1.1,0,0,0-.438-1.283,1.349,1.349,0,0,1,1.854.574c.2-.337.235-.439-.068-.743.405.169.944-.168,1.179-.607-.1-.473-.64-.912-1.044-.811.27-.1.371-.27.3-.641a1.919,1.919,0,0,1-1.988.135,1,1,0,0,0,.607-1.081c-.1-.3-.4-.3-.708-.27.3-.067.438-.27.371-.743a.7.7,0,0,0-.775.372c-.3-.169-.27-.338-.3-.709-.809.54-1.045,2.026-1.045,3.072a1.18,1.18,0,0,1-1.347-.135c-.2-.2-.3.3-.068.507Zm9.7,6.55a1.286,1.286,0,0,0-1.281-.574,4.918,4.918,0,0,0,.641-3.376c-.135.405-.236.472-.506.439a1.013,1.013,0,0,0-.741-.642.836.836,0,0,0-.067.945.419.419,0,0,0-.742-.1,1.077,1.077,0,0,0,.068,1.385,1.4,1.4,0,0,1-1.685-1.115c-.3.3-.337.439-.1.811a1.122,1.122,0,0,0-1.348.27c0,.439.4,1.08.809,1.08-.3.034-.438.2-.472.608a1.8,1.8,0,0,1,1.988.371,1.194,1.194,0,0,0-.943.878c.033.338.337.439.606.473-.3-.034-.472.2-.5.608.3.2.572.1.876-.1.168.2.1.372.033.743.944-.27,1.618-1.688,1.921-2.735.438-.169.876.068,1.247.507.134.2.4-.237.2-.473Zm2.931,1.148a1.065,1.065,0,0,1,.977-.81,4.939,4.939,0,0,1-1.651-2.8c.27.3.371.338.606.237-.067-.372.2-.608.472-.777a.785.785,0,0,1,.337.81.386.386,0,0,1,.64-.3.993.993,0,0,1,.337,1.249A1.238,1.238,0,0,0,97.7,51.521c.4.169.438.236.37.641.2-.337.809-.337,1.247-.135.169.439,0,1.081-.371,1.182a.532.532,0,0,1,.607.4,1.684,1.684,0,0,0-1.651.912c.674-.034.876.169,1.078.506.067.3-.135.473-.4.574.269-.067.505.034.674.405a.716.716,0,0,1-.809.136c-.1.236,0,.371.168.675-.909.034-1.92-1.047-2.493-1.857a.992.992,0,0,0-.943.81c-.068.2-.438-.135-.337-.405ZM93.755,69.011a1.576,1.576,0,0,1,1.482-.27,3.91,3.91,0,0,1-.37-3.208c.1.371.2.439.5.473.135-.3.539-.405.91-.439a.708.708,0,0,1,0,.878.487.487,0,0,1,.808.033.882.882,0,0,1-.2,1.284,1.485,1.485,0,0,0,1.954-.71c.371.338.371.439.068.743a1.656,1.656,0,0,1,1.482.507,1.019,1.019,0,0,1-1.044.844.6.6,0,0,1,.5.641,2.5,2.5,0,0,0-2.291-.033c.741.3.876.607.943.979-.067.3-.4.337-.741.337a.539.539,0,0,1,.506.642.878.878,0,0,1-.944-.27c-.236.169-.168.3-.135.709a4.1,4.1,0,0,1-1.785-2.9,1.423,1.423,0,0,0-1.483.27c-.168.135-.4-.337-.168-.506ZM90.52,64.486c-.4.237-.909.406-1.246.135A4.287,4.287,0,0,1,89,67.66c-.034-.371-.067-.439-.337-.472a.833.833,0,0,1-.808.337.7.7,0,0,1,.134-.776.388.388,0,0,1-.674-.1,1,1,0,0,1,.405-1.181,1.264,1.264,0,0,0-1.719.54c-.2-.3-.2-.405.068-.676-.371.169-.876-.168-1.112-.574.1-.405.606-.81.977-.709a.438.438,0,0,1-.27-.607,1.77,1.77,0,0,0,1.82.135c-.539-.3-.607-.608-.573-.946.135-.3.371-.3.674-.27-.3-.067-.4-.27-.371-.675a.68.68,0,0,1,.742.338c.269-.136.269-.3.269-.642.741.473.977,1.823.977,2.769a1.128,1.128,0,0,0,1.281-.1c.168-.168.235.271.033.439Zm15.735-28.159a1.434,1.434,0,0,0-1.382-.642,5.669,5.669,0,0,0,.708-3.714c-.169.439-.27.541-.573.473-.067-.405-.472-.574-.808-.675a.944.944,0,0,0-.068,1.013.451.451,0,0,0-.808-.1,1.188,1.188,0,0,0,.1,1.52,1.5,1.5,0,0,1-1.819-1.216c-.337.338-.337.473-.135.878-.37-.3-1.01-.1-1.448.3,0,.507.471,1.182.876,1.182-.3.033-.472.236-.506.675a1.95,1.95,0,0,1,2.156.4,1.288,1.288,0,0,0-1.01.979.588.588,0,0,0,.64.507c-.337,0-.5.236-.539.709a.823.823,0,0,0,.943-.135c.2.236.1.405.068.81.977-.3,1.718-1.857,2.021-3.005a1.184,1.184,0,0,1,1.348.574c.168.2.438-.27.236-.54Zm3.167,1.283c.168-.507.539-.945,1.044-.912a5.123,5.123,0,0,1-1.752-3.072c.27.337.371.371.64.236-.067-.405.2-.641.472-.844a.9.9,0,0,1,.4.878.417.417,0,0,1,.674-.338,1.151,1.151,0,0,1,.371,1.385,1.358,1.358,0,0,0,1.247-1.587c.4.169.471.27.37.709.236-.372.91-.372,1.382-.169.168.506-.034,1.215-.405,1.317.27-.034.472.067.64.439a1.817,1.817,0,0,0-1.785,1.013,1.1,1.1,0,0,1,1.179.54c.067.371-.168.54-.438.675.3-.1.539,0,.708.4-.236.3-.54.27-.876.169-.1.27.033.405.2.743-1.011.034-2.089-1.148-2.7-2.06-.5,0-.842.338-1.044.912-.068.2-.438-.135-.337-.439Zm-1.146,15.025a1.684,1.684,0,0,1,1.584-.3c-.539-.844-.876-2.735-.4-3.511.1.405.235.472.572.506.135-.337.573-.439.944-.472a.761.761,0,0,1,0,.979.55.55,0,0,1,.909.033,1.009,1.009,0,0,1-.235,1.385,1.6,1.6,0,0,0,2.122-.777c.371.372.371.507.034.844a1.753,1.753,0,0,1,1.617.541,1.12,1.12,0,0,1-1.112.945.669.669,0,0,1,.539.709,2.462,2.462,0,0,0-2.459-.034c.775.338.943.676.977,1.081-.067.337-.4.371-.775.337a.616.616,0,0,1,.539.743,1.017,1.017,0,0,1-1.045-.337c-.2.2-.134.371-.1.81-1.112-.507-1.753-2.06-1.955-3.208a1.468,1.468,0,0,0-1.583.3c-.2.135-.472-.371-.169-.574Zm-3.5-4.963a1.32,1.32,0,0,1-1.348.135,4.762,4.762,0,0,1-.3,3.343c0-.406-.067-.473-.37-.507a.846.846,0,0,1-.843.371.743.743,0,0,1,.135-.877.421.421,0,0,1-.741-.1,1.1,1.1,0,0,1,.438-1.283,1.348,1.348,0,0,0-1.853.574c-.2-.337-.236-.439.067-.743-.4.169-.943-.168-1.179-.607.1-.473.64-.912,1.044-.811-.269-.1-.37-.27-.3-.641a1.919,1.919,0,0,0,1.988.135,1,1,0,0,1-.606-1.081c.1-.3.4-.3.707-.27-.3-.067-.438-.27-.37-.743a.7.7,0,0,1,.774.372c.3-.169.27-.338.3-.709.808.54,1.044,2.026,1.044,3.072a1.182,1.182,0,0,0,1.348-.135c.2-.2.3.3.067.507Z" style="fill:#129612;stroke:#000;stroke-width:0.378664px"/><path id="path2348" d="M72.943,74.887c-.046.019-.284.056-.522.093-.54.074-.692.079-.875.7a2.891,2.891,0,0,1-.437.857,2.276,2.276,0,0,0-.447,1.348c.055.314.408.419,1.031.281.8-.167.992-.249,1.029-.064s-.445.58-1.022,1.005a1.934,1.934,0,0,0-.778,1.683,10.37,10.37,0,0,1-.169,1.318,5.732,5.732,0,0,0-.14.9,3.42,3.42,0,0,0,1.954.171c1.154-.185,1.762-.756,1.881-1.68a3.273,3.273,0,0,1,.738-1.694c.329-.342.368-.287.625-.028.238.24.13.2-.154,1.608-.274,1.367-.179,1.929.306,2.335.394.333.86.287,1.006-.138a4.9,4.9,0,0,1,.52-.958,1.7,1.7,0,0,0,.3-1.977c-.238-.545-.371-.636-.161-.636.055,0,.129.1.376.363a2.517,2.517,0,0,0,.845.544c.605,0,.645-2.7.069-3.065-.293-.185-.394.064-.394.988,0,.666.087.85-.013.85-.138,0-.171-.162-.3-.587a.608.608,0,0,0-.979-.266l-.353.29.048,1.444c.054,1.091.094,1-.025,1-.192,0-.141-.134-.224-1.3a5.364,5.364,0,0,0-.173-1.214A1.388,1.388,0,0,0,76,78.621a1.2,1.2,0,0,0-.912-.065,3.909,3.909,0,0,0-2.118,2.053c-.266.536-.261.665-.462.582-.129-.047-.129,0,0-.316a8.259,8.259,0,0,1,1.521-1.991c.861-.942.85-1.126.713-1.6-.165-.564-.29-.789-1.087-.9-.458-.064-.942-.04-.942-.123,0-.212.22-.268,1.08-.268.8,0,.87-.018,1.035-.222a1.434,1.434,0,0,0,.238-.453c.092-.378-.155-.48-1.153-.471a8.15,8.15,0,0,0-.971.037Z" style="fill:#129612"/><path id="path2346" d="M71.319,74.785a8.87,8.87,0,0,0-1.263,2.988,1.013,1.013,0,0,0,1.541.709c.405-.2.506-.2.354.026a2,2,0,0,1-.783.506c-.506.2-.607.405-.607,1.241a4.061,4.061,0,0,1-.227,1.139,6.854,6.854,0,0,0-.072,1.039c0,1.063.862,1.454,2.616,1.025a2.126,2.126,0,0,0,1.3-.58,7.5,7.5,0,0,0,.628-1.509,3.209,3.209,0,0,1,.606-1.241c.152-.1.2-.025.126.178-.707,1.722-.758,2.279-.353,3.14.353.759.556.886,1.288.886.784,0,.247-.219,1.106-1.218a3.045,3.045,0,0,1,.618-.944c.179-.352.155-.334.137-.536-.038-.437.414-.341.54-.341.985,0,1.364-2.152.657-3.545-.48-.937-.657-.937-1.339,0a1.664,1.664,0,0,1-3.083-.886,1.962,1.962,0,0,1,.4-1.165.684.684,0,0,0,.152-.887c-.2-.354-.657-.455-2.123-.506-1.693-.076-1.9-.025-2.224.481Zm3.841.456c-.177.709-.581.962-1.415.81-.505-.076-.91-.025-1.011.152-.126.177.076.279.531.279.884,0,1.213.228,1.441.937.126.43-.026.734-.759,1.392a5.656,5.656,0,0,0-1.617,2.355c0,.456.581,0,.783-.607.38-1.039,1.845-2.127,2.578-1.9.783.228.935.558.935,1.925,0,.709.126,1.216.278,1.216.177,0,.227-.431.1-1.292-.126-.988-.1-1.367.152-1.519.581-.38.985-.254.985.278,0,.279.127.507.278.507.177,0,.227-.279.152-.684-.253-1.342.429-1.9.707-.582.228.987-.076,2.279-.5,2.279a1.192,1.192,0,0,1-.733-.557c-.48-.659-.884-.38-.455.3a1.587,1.587,0,0,1-.2,2.077,1.912,1.912,0,0,0-.5.886c0,.557-.859.355-1.163-.278a2.739,2.739,0,0,1,.076-1.9c.354-1.392.278-1.8-.3-1.8-.405,0-1.137,1.241-1.137,1.95-.026,1.191-1.112,1.773-3.058,1.646-.657-.05-.682-.1-.455-1.013a8.682,8.682,0,0,0,.228-1.7c0-.583.2-.912.884-1.368,1.011-.683,1.213-1.443.329-1.139-1.188.38-1.592.278-1.517-.405a1.721,1.721,0,0,1,.43-.887,1.4,1.4,0,0,0,.43-.886c.05-.506.252-.658.96-.76,1.642-.228,2.653-.126,2.577.279Z"/><path id="path2343" d="M61.934,49.5c-.055.167-.219.278-.567.4a5.4,5.4,0,0,0-1.792.925c-.009.083.355.405.785.683,1.153.757,1.175.627-.106.738a2.52,2.52,0,0,0-1.9.978c-.348.323-.792.7-1.021.87a2.081,2.081,0,0,0-.607.726c-.055.222.288.429.837.956a2.706,2.706,0,0,0,1.663.893c.384,0,.8-.229,1.641-.848A8.754,8.754,0,0,1,61.987,55c.394-.139.391-.09.6.049.311.213.3.531-.016.845a1.335,1.335,0,0,1-.463.313,5.968,5.968,0,0,0-1.473,1.734c-.238.526-.245,1.015.011,1.191a.592.592,0,0,0,.84-.067,1.652,1.652,0,0,1,.62-.264c.348,0,.541-.348.9-.681.477-.443.836-.538.928-1.074.036-.222-.038-.458.008-.486.146-.092.282.1.282.405,0,1.091.934,1.331,1.419.37a2.547,2.547,0,0,1,.472-.505,2.121,2.121,0,0,0,.39-1.139c-.073-.185-.486-.057-.7.165a3.444,3.444,0,0,0-.512.7c-.229.462-.367.665-.5.536-.028-.028.173-.238.256-.533.183-.62-.055-.817-.549-.817-.394,0-.732.2-1.309.971-1.126,1.506-1.05,1.171,0-.455a2.646,2.646,0,0,0,.345-1.07,1.524,1.524,0,0,0-.559-1.164,2.65,2.65,0,0,0-2.193.059c-.449.167-1.14.439-1.295.466-.266.047-.217.161-.079-.06a4.283,4.283,0,0,1,2.7-.978c.76-.009.945-.273,1.119-.633.3-.6.41-.827-.249-1.52-.33-.342-.661-.614-.661-.651,0-.185.178-.021.636.321.687.527.934.638,1.355.638.449,0,1.191-.34,1.09-.6a2.05,2.05,0,0,0-.644-.561,7.458,7.458,0,0,1-.989-.647c-.924-.7-1.673-.779-1.838-.364Z" style="fill:#129612"/><path id="path12" d="M61.488,49.173a2.265,2.265,0,0,1-1.137.507c-1.188.228-1.643,1.494-.657,1.8.732.228.606.583-.152.431-.531-.1-.834.051-1.339.633a4.365,4.365,0,0,1-1.087.912.646.646,0,0,0-.455.506,1.1,1.1,0,0,1-.379.684c-.328.279-.227.481.809,1.418a5.14,5.14,0,0,0,1.668,1.114,3.93,3.93,0,0,0,2.3-1.241,1.6,1.6,0,0,1,.834-.531c.2,0-.076.43-.632.937-1.238,1.19-1.642,2.684-.808,3.114.707.38,2.148-.076,3.108-.962.379-.354.682-.532.682-.38a.568.568,0,0,0,.405.431c.454.177,1.364-.253,1.364-.659a.872.872,0,0,1,.354-.557,2.287,2.287,0,0,0,.505-1.241l.177-.962-1.137.152c-1.011.152-1.213.1-1.794-.481-.531-.532-.657-.836-.531-1.368a2.125,2.125,0,0,1,1.718-1.57c.657,0,.531-1.24-.176-1.62a8.531,8.531,0,0,1-1.213-.861c-.809-.633-2-.735-2.426-.2Zm2.148.785a4.465,4.465,0,0,0,1.187.785c.632.2.531.785-.2.912a1.513,1.513,0,0,1-1.339-.456c-.657-.582-1.061-.76-1.061-.481a2.849,2.849,0,0,0,.682.734c.531.456.632.709.48,1.241-.152.608-.278.684-1.238.684-1.087,0-2.729.684-2.906,1.215-.051.178.379.076,1.011-.2a5.782,5.782,0,0,1,2-.507c.733,0,.96.127,1.213.684.253.582.227.76-.177,1.317-.733.987-1.112,1.8-.859,1.8.126,0,.556-.456.935-1.013.505-.76.859-1.013,1.238-.962.531.1.581.227.278,1.012-.1.254-.076.456.076.456s.379-.354.53-.759c.3-.912,1.163-1.089.885-.2a1.167,1.167,0,0,1-.379.658.4.4,0,0,0-.228.355,1.091,1.091,0,0,1-.429.608c-.581.4-1.087.025-1.087-.811,0-.329-.1-.607-.253-.607-.126,0-.252.278-.252.607A2.192,2.192,0,0,1,61.943,58.7a.557.557,0,0,0-.531.3c-.051.152-.3.227-.531.126-.328-.126-.4-.329-.278-.861.152-.709,1.39-2.1,1.82-2.1.3,0,.606-.734.4-1.038-.253-.43-1.086-.228-1.92.481-1.365,1.19-2.047,1.216-3.21.178-.985-.912-1.01-.912-.505-1.419a1.836,1.836,0,0,1,.657-.481,2.3,2.3,0,0,0,.783-.709,1.777,1.777,0,0,1,1.618-.683c1.339,0,1.465-.38.328-.988-.48-.279-.884-.557-.884-.659,0-.2.884-.658,1.718-.886.3-.1.556-.278.556-.405,0-.456.935-.228,1.668.405Z"/><path id="path2339" d="M124.192,50.151a4.456,4.456,0,0,0-.784.4c-.257.194-.982.595-1.239.743-.54.3-.376.606,0,.856a1.7,1.7,0,0,0,1.882-.309c1.035-.776,1.036-.774.148.095a1.161,1.161,0,0,0-.418,1.47c.155.49.419.711,1.161.711a4.644,4.644,0,0,1,2.688,1.007c.366.407.318.107-1.056-.4a3.751,3.751,0,0,0-2.426-.176A2.393,2.393,0,0,0,123.4,56c.037.12.417.575.71,1.028.5.776.641,1.069.531,1.18-.082.074-.156-.184-.788-1.007-.595-.767-1-.936-1.486-.88-.247.027-.2.186-.191.528a3.242,3.242,0,0,0,.083.684c.119.508-.22.333-.55-.286-.338-.638-.6-1.136-.829-1.136-.256,0-.187.775.1,1.163a4.871,4.871,0,0,1,.357.592c.2.434.6.785.879.785.348,0,.54-.259.641-.878.137-.831.384-.933.5-.2a1.847,1.847,0,0,0,.659,1.192,2.131,2.131,0,0,0,1.208.628.824.824,0,0,1,.43.231c.266.25.412.278.687.139a.871.871,0,0,0,.234-1.055,4.971,4.971,0,0,0-1.76-1.947.768.768,0,0,1-.456-.763.353.353,0,0,1,.184-.316c.348-.167.779.053,1.685.718a11.076,11.076,0,0,0,1.051.677,1.655,1.655,0,0,0,1.55-.078,5.308,5.308,0,0,0,1.578-1.478c0-.231-.269-.548-.708-.843a9.384,9.384,0,0,1-.985-.837,2.265,2.265,0,0,0-1.791-.9c-.8-.074-1.122-.073-1.031-.313a3.162,3.162,0,0,1,.77-.583c.75-.49.778-.527.641-.684a5.889,5.889,0,0,0-1.639-.8c-.293-.1-.467-.231-.522-.379-.11-.277-.449-.286-.952-.037Z" style="fill:#129612"/><path id="path1322" d="M125.642,49.8a2.269,2.269,0,0,0,1.137.506c1.187.228,1.642,1.494.657,1.8-.733.228-.607.582.151.431.531-.1.834.05,1.34.633a4.333,4.333,0,0,0,1.086.911.646.646,0,0,1,.455.507,1.107,1.107,0,0,0,.379.683c.329.279.228.482-.809,1.419a5.185,5.185,0,0,1-1.667,1.114,3.935,3.935,0,0,1-2.3-1.241,1.6,1.6,0,0,0-.834-.532c-.2,0,.076.431.632.937,1.238,1.19,1.643,2.684.809,3.115-.708.38-2.148-.076-3.109-.962-.379-.355-.682-.532-.682-.38a.567.567,0,0,1-.4.43c-.455.177-1.365-.253-1.365-.658a.868.868,0,0,0-.354-.557,2.287,2.287,0,0,1-.5-1.241l-.177-.962,1.137.152c1.011.151,1.213.1,1.794-.482.531-.531.658-.835.531-1.367a2.125,2.125,0,0,0-1.718-1.57c-.657,0-.531-1.241.177-1.621a8.531,8.531,0,0,0,1.213-.861c.808-.633,2-.734,2.425-.2Zm-2.148.785a4.492,4.492,0,0,1-1.188.785c-.632.2-.531.785.2.911a1.506,1.506,0,0,0,1.339-.456c.657-.582,1.062-.759,1.062-.481a2.876,2.876,0,0,1-.683.735c-.53.456-.631.709-.48,1.241.152.607.278.683,1.239.683,1.086,0,2.729.684,2.905,1.216.051.177-.378.076-1.01-.2a5.807,5.807,0,0,0-2-.506c-.732,0-.96.126-1.212.683-.253.583-.228.76.176,1.317.733.988,1.112,1.8.86,1.8-.127,0-.556-.456-.935-1.013-.506-.759-.86-1.013-1.239-.962-.53.1-.581.228-.278,1.013.1.253.076.456-.075.456s-.379-.355-.531-.76c-.3-.912-1.162-1.089-.885-.2a1.164,1.164,0,0,0,.38.659.4.4,0,0,1,.227.354,1.085,1.085,0,0,0,.43.608c.581.405,1.086.026,1.086-.81,0-.329.1-.608.253-.608.126,0,.253.279.253.608a2.19,2.19,0,0,0,1.794,1.671.558.558,0,0,1,.53.3c.051.152.3.228.531.127.328-.127.4-.33.278-.861-.152-.709-1.39-2.1-1.819-2.1-.3,0-.607-.735-.4-1.038.253-.431,1.087-.228,1.921.481,1.364,1.19,2.047,1.215,3.209.177.985-.912,1.011-.912.505-1.418a1.827,1.827,0,0,0-.657-.481,2.313,2.313,0,0,1-.783-.709,1.777,1.777,0,0,0-1.617-.684c-1.34,0-1.466-.38-.329-.988.48-.278.885-.557.885-.658,0-.2-.885-.658-1.719-.886-.3-.1-.556-.279-.556-.406,0-.455-.935-.227-1.667.406Z"/><path id="path1414" d="M112.017,75.084c-.284.111-.311.194-.174.527a.889.889,0,0,0,1.083.646c.7-.065.98-.033,1.044.142.073.194.164.084-.559.158a1.376,1.376,0,0,0-1.031.458c-.558.629-.483,1.1.488,2.139,1.08,1.155,1.442.949,1.614,2.215-.11.185-.261.017-.572-.574a3.981,3.981,0,0,0-2.223-2.083,1.681,1.681,0,0,0-1.383.618,10.607,10.607,0,0,0-.076,1.322c-.064,1.063-.046,1.35-.238,1.063-.11-.175-.077-.119.032-1.071.129-.961.065-1.512-.274-1.688-.431-.222-.871-.037-.926.259-.073.351-.256.7-.366.711-.055.01-.1-.351-.119-.859a3.151,3.151,0,0,0-.129-1c-.347-.425-.659.36-.6,1.525.064,1.4.412,1.645,1.181.85a.493.493,0,0,1,.475-.2c.2,0,.077.057-.152.565a1.76,1.76,0,0,0,.273,2,7.1,7.1,0,0,1,.54.933c.174.416.764.385,1.176.006.256-.231.326-.389.363-.916a5.981,5.981,0,0,0-.238-1.388c-.311-1.321-.395-1.646.127-1.646.458,0,.989.993,1.136,2,.119.832.666,1.3,1.691,1.519a5.547,5.547,0,0,0,1.789.013c.338-.074.357-.24.146-1.358a11.574,11.574,0,0,1-.146-1.191,1.8,1.8,0,0,0-.841-1.655c-1.072-.887-1.307-1.164-.291-.905,1.044.277,1.521.009,1.421-.619a3.01,3.01,0,0,0-.425-.8,4.46,4.46,0,0,1-.39-1.088,1.175,1.175,0,0,0-.476-.573,6.709,6.709,0,0,0-2.946-.058Z" style="fill:#129612"/><path id="path1324" d="M115.583,74.951a8.87,8.87,0,0,1,1.263,2.988,1.013,1.013,0,0,1-1.541.709c-.4-.2-.505-.2-.354.026a1.983,1.983,0,0,0,.784.506c.5.2.606.4.606,1.241a1.946,1.946,0,0,0,.227,1.14A1.709,1.709,0,0,1,116.8,82.6c0,1.064-1.056,1.213-2.109,1.22a6.414,6.414,0,0,1-1.964-.7,8.28,8.28,0,0,1-.627-1.587,3.206,3.206,0,0,0-.607-1.24c-.151-.1-.085.951-.009,1.154.708,1.722.29.989.2,2.4-.432.447-.647.65-1.25.613-.632-.039-.715-.257-1.105-.827-.253-.633-.934-1.862-.891-1.413.014.156-.278-.76-.405-.76-.985,0-1.364-2.152-.657-3.545.481-.937.657-.937,1.34,0a1.664,1.664,0,0,0,3.083-.886,1.958,1.958,0,0,0-.405-1.165.683.683,0,0,1-.151-.886c.2-.355.657-.456,2.122-.507,1.693-.076,1.9-.025,2.224.481Zm-3.841.456c.177.709.581.962,1.415.81.506-.076.91-.025,1.011.152.126.178-.076.279-.531.279-.884,0-1.213.228-1.44.937-.127.43.025.734.758,1.393a5.644,5.644,0,0,1,1.617,2.355c0,.456-.581,0-.783-.608-.379-1.038-1.845-2.127-2.578-1.9-.783.228-.935.557-.935,1.924,0,.709-.126,1.216-.278,1.216-.176,0-.227-.431-.1-1.292.127-.987.1-1.367-.151-1.519-.581-.38-.986-.253-.986.278,0,.279-.126.507-.278.507-.177,0-.227-.279-.151-.684.252-1.342-.43-1.9-.708-.582-.227.987.076,2.279.506,2.279a1.187,1.187,0,0,0,.732-.557c.48-.659.885-.38.455.3a1.586,1.586,0,0,0,.2,2.076,1.916,1.916,0,0,1,.506.886c0,.558.859.355,1.162-.278a2.737,2.737,0,0,0-.076-1.9c-.354-1.393-.278-1.8.3-1.8.4,0,1.137,1.241,1.137,1.95.025,1.19,1.112,1.772,3.057,1.646.657-.051.682-.1.455-1.013a8.772,8.772,0,0,1-.227-1.7c0-.582-.2-.912-.885-1.367-1.01-.684-1.213-1.444-.328-1.14,1.187.38,1.592.279,1.516-.405a1.717,1.717,0,0,0-.43-.886,1.4,1.4,0,0,1-.429-.887c-.051-.506-.253-.658-.961-.759-1.642-.228-2.653-.127-2.577.278Z"/><path id="path118" d="M93.719,19.918a1.893,1.893,0,0,1,1.887,1.924,1.915,1.915,0,0,1-1.887,1.925,1.944,1.944,0,0,1-1.92-1.925,1.921,1.921,0,0,1,1.92-1.924Zm-28.74,41.4a2.2,2.2,0,0,1-2.257-2.2,2.258,2.258,0,1,1,4.515,0,2.183,2.183,0,0,1-2.258,2.2Zm.034-9.758a2.178,2.178,0,0,1,0,4.355,2.178,2.178,0,0,1,0-4.355Zm-4.077-5.166A2.161,2.161,0,1,1,58.78,48.55a2.167,2.167,0,0,1,2.156-2.161ZM126,47.537a2.519,2.519,0,0,0-2.527,2.5A2.548,2.548,0,0,0,126,52.568a2.519,2.519,0,0,0,2.493-2.533,2.49,2.49,0,0,0-2.493-2.5Zm-4.448,13.607a2.313,2.313,0,1,0-2.324-2.33,2.325,2.325,0,0,0,2.324,2.33Zm.3-9.556a2.33,2.33,0,0,1,0,4.66,2.33,2.33,0,0,1,0-4.66Zm-9.029,21.069a1.739,1.739,0,1,0,1.752,1.722,1.727,1.727,0,0,0-1.752-1.722Zm-2.763,2.229a1.849,1.849,0,0,1,1.853,1.857,1.853,1.853,0,1,1-3.706,0,1.849,1.849,0,0,1,1.853-1.857Zm-3.268,2.059a2.28,2.28,0,1,1-2.258,2.263,2.276,2.276,0,0,1,2.258-2.263Zm-33.677-4.49a1.908,1.908,0,1,1-1.92,1.891c0-1.047,1.5-1.891,2.544-1.891Zm3.657,1.924a2.178,2.178,0,1,0,2.19,2.195,2.182,2.182,0,0,0-2.19-2.195Zm3.571,6.28a1.941,1.941,0,1,1,0-3.882,1.942,1.942,0,1,1,0,3.882Z" style="fill:#ffd300;stroke:#000;stroke-width:0.378664px"/></g></g></g></svg>