<svg xmlns="http://www.w3.org/2000/svg" viewBox="0 0 186.925 116.828"><g id="Layer_2" data-name="Layer 2"><g id="Georgia"><g id="Georgia-2" data-name="Georgia"><path d="M0,0H186.925V116.828H0Z" style="fill:#fff"/><path d="M0,0H186.925V38.943H0Z" style="fill:#b50027"/><path d="M0,0H77.886V77.886H0Z" style="fill:#002d56"/><path d="M40.686,10.649,43.46,8.693l-3.4-.049-1-3.244L37.966,8.614l-3.4-.048L37.29,10.6,36.2,13.815l2.774-1.956,2.72,2.035Z" style="fill:#fff"/><path d="M27.344,13.037l1.547-3.021L25.862,11.55l-2.4-2.405.525,3.354L20.96,14.033l3.354.539.526,3.354,1.547-3.021,3.354.538Z" style="fill:#fff"/><path d="M16.6,21.418l-.034-3.395L14.594,20.79l-3.24-1.016L13.377,22.5l-1.969,2.766,3.22-1.082,2.024,2.726-.034-3.394,3.22-1.082Z" style="fill:#fff"/><path d="M11.06,33.807,9.453,30.818l-.458,3.364-3.342.606,3.059,1.473-.458,3.365L10.6,37.172l3.058,1.473-1.607-2.99L14.4,33.2Z" style="fill:#fff"/><path d="M11.842,47.32l-2.812-1.9,1.157,3.192L7.51,50.7l3.393-.116,1.158,3.191L13,50.511l3.392-.116-2.812-1.9.939-3.264Z" style="fill:#fff"/><path d="M18.844,59l-3.373-.376,2.508,2.289L16.58,64l2.95-1.679,2.508,2.288-.685-3.326,2.949-1.68-3.373-.376L20.244,55.9Z" style="fill:#fff"/><path d="M30.493,66.009l-3.162,1.235,3.284.86.2,3.39,1.831-2.858,3.284.861L33.777,66.87l1.831-2.858-3.161,1.234-2.153-2.627Z" style="fill:#fff"/><path d="M43.994,66.844l-2.226,2.562,3.308-.764,1.751,2.909.293-3.382,3.308-.764L47.3,66.079,47.6,62.7,45.369,65.26l-3.126-1.326Z" style="fill:#fff"/><path d="M56.413,61.321l-.78,3.3,2.574-2.213,2.9,1.762L59.8,61.042l2.573-2.213-3.384.279-1.311-3.131-.78,3.3-3.385.279Z" style="fill:#fff"/><path d="M64.8,50.6l.844,3.287,1.251-3.156,3.388.212-2.615-2.163,1.25-3.155-2.867,1.819-2.616-2.163.844,3.287-2.867,1.82Z" style="fill:#fff"/><path d="M63.267,24.312l3.184,1.173-1.886-2.822L66.664,20l-3.265.924L61.513,18.1l-.132,3.392-3.266.924L61.3,23.587l-.131,3.393Z" style="fill:#fff"/><path d="M53.642,14.676l3.364-.441-2.981-1.622.619-3.337-2.462,2.335L49.2,9.989l1.459,3.065L48.2,15.39l3.364-.441,1.46,3.065Z" style="fill:#fff"/><path d="M67.237,37.285,69.511,39.8l-.359-3.376,3.1-1.386-3.321-.7-.359-3.375-1.694,2.943-3.32-.7,2.274,2.518-1.693,2.943Z" style="fill:#fff"/><path d="M24.844,56.522h-.983v-.11l.12-.009a.465.465,0,0,0,.111-.018.166.166,0,0,0,.074-.054.181.181,0,0,0,.023-.1V54.65a.208.208,0,0,0-.017-.089.136.136,0,0,0-.08-.062.67.67,0,0,0-.117-.034.724.724,0,0,0-.114-.02v-.109h.983v.109a.924.924,0,0,0-.114.012.737.737,0,0,0-.115.025.118.118,0,0,0-.078.06.2.2,0,0,0-.021.092v1.583a.194.194,0,0,0,.022.091.157.157,0,0,0,.077.061.758.758,0,0,0,.105.028.84.84,0,0,0,.124.015v.11Z" style="fill:#eed000;stroke:#eed000;stroke-miterlimit:3.8637;stroke-width:0.176681px"/><path d="M27.538,54.445a.649.649,0,0,0-.132.025.477.477,0,0,0-.128.047.219.219,0,0,0-.075.148,1.753,1.753,0,0,0-.019.278v1.6H27.05l-1.323-1.788v1.127a1.432,1.432,0,0,0,.023.292.274.274,0,0,0,.074.144.348.348,0,0,0,.146.063.848.848,0,0,0,.147.031v.11h-.9v-.11a.934.934,0,0,0,.14-.029.369.369,0,0,0,.123-.049.225.225,0,0,0,.074-.131,1.615,1.615,0,0,0,.02-.3V54.822a.411.411,0,0,0-.025-.141.257.257,0,0,0-.066-.11.458.458,0,0,0-.151-.086.5.5,0,0,0-.152-.04v-.109h.623L27.035,56v-1.04a1.355,1.355,0,0,0-.024-.293.233.233,0,0,0-.071-.137.489.489,0,0,0-.142-.057.709.709,0,0,0-.148-.031v-.109h.888v.109Z" style="fill:#eed000;stroke:#eed000;stroke-miterlimit:3.8637;stroke-width:0.176681px"/><path d="M30.758,55.648c-.024,0-.057.008-.1.016a.378.378,0,0,0-.1.027.147.147,0,0,0-.066.067.242.242,0,0,0-.018.1v.17c0,.123,0,.206,0,.249s0,.079.007.106a2.331,2.331,0,0,1-.408.142,1.681,1.681,0,0,1-.4.049,1.071,1.071,0,0,1-.4-.078,1.006,1.006,0,0,1-.338-.223,1.089,1.089,0,0,1-.233-.356,1.232,1.232,0,0,1-.086-.469,1.268,1.268,0,0,1,.082-.462,1.1,1.1,0,0,1,.234-.371,1.016,1.016,0,0,1,.347-.239,1.109,1.109,0,0,1,.434-.086,1.071,1.071,0,0,1,.322.044,1.167,1.167,0,0,1,.241.108l.063-.1h.123l.014.764h-.126a1.989,1.989,0,0,0-.08-.248.893.893,0,0,0-.123-.221.563.563,0,0,0-.185-.154.532.532,0,0,0-.258-.058.624.624,0,0,0-.294.067.651.651,0,0,0-.225.2A.968.968,0,0,0,29.04,55a1.661,1.661,0,0,0-.051.427,1.517,1.517,0,0,0,.049.393,1.017,1.017,0,0,0,.146.317.7.7,0,0,0,.239.216.664.664,0,0,0,.324.078.715.715,0,0,0,.247-.041.448.448,0,0,0,.158-.088,1.084,1.084,0,0,0,.013-.162c0-.054,0-.1,0-.138v-.121a.333.333,0,0,0-.018-.114.124.124,0,0,0-.073-.074.5.5,0,0,0-.138-.033c-.058-.009-.1-.014-.136-.016v-.112h.957v.112Z" style="fill:#eed000;stroke:#eed000;stroke-miterlimit:3.8637;stroke-width:0.176681px"/><path d="M32.906,54.594a1.093,1.093,0,0,1,.226.366,1.308,1.308,0,0,1,.081.471,1.277,1.277,0,0,1-.083.473,1.041,1.041,0,0,1-.231.362.985.985,0,0,1-.332.228,1.073,1.073,0,0,1-.825-.005,1,1,0,0,1-.331-.238,1.1,1.1,0,0,1-.218-.363,1.322,1.322,0,0,1-.079-.457,1.261,1.261,0,0,1,.084-.475,1.1,1.1,0,0,1,.229-.362,1,1,0,0,1,.335-.231,1.041,1.041,0,0,1,.4-.08,1.027,1.027,0,0,1,.409.082.991.991,0,0,1,.333.229Zm-.23,1.55a1,1,0,0,0,.125-.317,1.842,1.842,0,0,0,.04-.4,1.772,1.772,0,0,0-.045-.413,1,1,0,0,0-.128-.32.607.607,0,0,0-.212-.2.573.573,0,0,0-.292-.074.564.564,0,0,0-.314.085.664.664,0,0,0-.211.226,1.1,1.1,0,0,0-.115.318,1.883,1.883,0,0,0-.037.382,1.812,1.812,0,0,0,.04.4.989.989,0,0,0,.126.318.624.624,0,0,0,.209.212.572.572,0,0,0,.3.076.584.584,0,0,0,.3-.077.594.594,0,0,0,.215-.216Z" style="fill:#eed000;stroke:#eed000;stroke-miterlimit:3.8637;stroke-width:0.176681px"/><path d="M35.632,55.442a1.043,1.043,0,0,1-.1.483.972.972,0,0,1-.272.336,1.173,1.173,0,0,1-.38.2,1.483,1.483,0,0,1-.435.065h-.905v-.11a1.1,1.1,0,0,0,.115-.007.464.464,0,0,0,.1-.02.137.137,0,0,0,.066-.059.2.2,0,0,0,.021-.1V54.653a.235.235,0,0,0-.018-.094.131.131,0,0,0-.069-.066.4.4,0,0,0-.1-.034.842.842,0,0,0-.1-.014v-.109H34.5a1.258,1.258,0,0,1,.388.061,1.132,1.132,0,0,1,.332.164.95.95,0,0,1,.3.358,1.169,1.169,0,0,1,.109.523Zm-.377,0a1.26,1.26,0,0,0-.058-.4.926.926,0,0,0-.171-.312.748.748,0,0,0-.262-.2.784.784,0,0,0-.343-.073l-.143,0-.117,0v1.681a.213.213,0,0,0,.082.194.457.457,0,0,0,.25.054.794.794,0,0,0,.342-.069.615.615,0,0,0,.237-.193.822.822,0,0,0,.138-.3,1.553,1.553,0,0,0,.045-.394Z" style="fill:#eed000;stroke:#eed000;stroke-miterlimit:3.8637;stroke-width:0.176681px"/><path d="M39.8,54.445a.34.34,0,0,0-.09.018.439.439,0,0,0-.093.042.322.322,0,0,0-.088.079.38.38,0,0,0-.057.121q-.109.357-.254.832t-.312,1.012h-.142l-.551-1.682-.574,1.682h-.135q-.153-.539-.315-1.118l-.219-.778a.251.251,0,0,0-.042-.085.275.275,0,0,0-.163-.106.5.5,0,0,0-.092-.017v-.109h.891v.109a1.4,1.4,0,0,0-.2.023c-.055.011-.082.03-.082.057a.287.287,0,0,0,.005.042l.008.04c.023.09.065.24.124.448s.15.519.268.934l.545-1.623h.151l.549,1.658c.074-.255.137-.477.191-.667s.1-.354.132-.49c.025-.095.04-.161.046-.2a.555.555,0,0,0,.009-.09c0-.035-.024-.065-.072-.088a.651.651,0,0,0-.231-.048v-.109H39.8Z" style="fill:#eed000;stroke:#eed000;stroke-miterlimit:3.8637;stroke-width:0.176681px"/><path d="M41.922,55.878l-.042.644H40.068v-.11l.123-.012a.388.388,0,0,0,.1-.022.129.129,0,0,0,.067-.06.2.2,0,0,0,.021-.094V54.653a.221.221,0,0,0-.017-.089.131.131,0,0,0-.071-.065.581.581,0,0,0-.113-.036.843.843,0,0,0-.11-.018v-.109h1.689v.526h-.115a.709.709,0,0,0-.134-.248.324.324,0,0,0-.194-.144c-.032,0-.07-.008-.114-.01s-.094,0-.151,0h-.343v.869h.246a.518.518,0,0,0,.173-.021.25.25,0,0,0,.1-.076.413.413,0,0,0,.057-.119.742.742,0,0,0,.032-.141h.115v.855h-.115a.627.627,0,0,0-.034-.156.4.4,0,0,0-.055-.12.225.225,0,0,0-.11-.079.568.568,0,0,0-.16-.018h-.246v.656a.7.7,0,0,0,.014.156.14.14,0,0,0,.054.086.241.241,0,0,0,.109.039c.046.005.112.007.2.007h.134a1.375,1.375,0,0,0,.14-.006.89.89,0,0,0,.12-.021.2.2,0,0,0,.089-.045.929.929,0,0,0,.148-.224,1.478,1.478,0,0,0,.1-.221Z" style="fill:#eed000;stroke:#eed000;stroke-miterlimit:3.8637;stroke-width:0.176681px"/><path d="M45.133,54.929h-.106a.642.642,0,0,0-.051-.131.963.963,0,0,0-.08-.145.691.691,0,0,0-.1-.123.2.2,0,0,0-.105-.062q-.048-.006-.12-.009l-.134,0h-.089V56.2a.2.2,0,0,0,.022.094.14.14,0,0,0,.075.065.891.891,0,0,0,.115.029.8.8,0,0,0,.139.02v.11H43.667v-.11L43.8,56.4a.524.524,0,0,0,.123-.023A.145.145,0,0,0,44,56.32a.193.193,0,0,0,.024-.1V54.456H43.93l-.119,0q-.07,0-.135.009a.189.189,0,0,0-.106.062.824.824,0,0,0-.1.123,1,1,0,0,0-.082.148.885.885,0,0,0-.049.128h-.108v-.593h1.9v.593Z" style="fill:#eed000;stroke:#eed000;stroke-miterlimit:3.8637;stroke-width:0.176681px"/><path d="M47.615,56.522h-.588c-.13-.2-.248-.381-.354-.53s-.218-.3-.341-.461h-.223v.693a.242.242,0,0,0,.017.1.115.115,0,0,0,.072.061.413.413,0,0,0,.1.02.98.98,0,0,0,.117.011v.11h-.924v-.11c.025,0,.06-.005.107-.011a.33.33,0,0,0,.1-.02.123.123,0,0,0,.066-.058.2.2,0,0,0,.022-.1v-1.58a.261.261,0,0,0-.016-.1.11.11,0,0,0-.072-.063.761.761,0,0,0-.1-.025.878.878,0,0,0-.105-.015v-.109H46.5a1.079,1.079,0,0,1,.26.029.673.673,0,0,1,.22.091.463.463,0,0,1,.153.161.472.472,0,0,1,.057.239.6.6,0,0,1-.039.224.456.456,0,0,1-.114.168.687.687,0,0,1-.166.115,1.306,1.306,0,0,1-.214.082q.162.215.268.36l.263.356a.762.762,0,0,0,.122.137.651.651,0,0,0,.109.071.381.381,0,0,0,.1.031.76.76,0,0,0,.1.012v.11Zm-.809-1.63a.4.4,0,0,0-.436-.432h-.261V55.4h.2a.477.477,0,0,0,.5-.507Z" style="fill:#eed000;stroke:#eed000;stroke-miterlimit:3.8637;stroke-width:0.176681px"/><path d="M49.9,54.445a.884.884,0,0,0-.126.018.423.423,0,0,0-.135.051.217.217,0,0,0-.072.147,1.484,1.484,0,0,0-.021.271v.95a.634.634,0,0,1-.075.316.655.655,0,0,1-.2.22.821.821,0,0,1-.257.119.955.955,0,0,1-.257.037,1.08,1.08,0,0,1-.351-.052.771.771,0,0,1-.259-.139.6.6,0,0,1-.155-.2.561.561,0,0,1-.052-.238V54.653a.192.192,0,0,0-.019-.089.156.156,0,0,0-.071-.068.311.311,0,0,0-.1-.034.734.734,0,0,0-.1-.017v-.109h.91v.109a.823.823,0,0,0-.11.014.737.737,0,0,0-.1.023.114.114,0,0,0-.071.062.258.258,0,0,0-.017.094v1.207a.93.93,0,0,0,.019.185.489.489,0,0,0,.077.179.455.455,0,0,0,.163.139.618.618,0,0,0,.283.053.659.659,0,0,0,.283-.053.478.478,0,0,0,.182-.142.533.533,0,0,0,.089-.174.681.681,0,0,0,.026-.184v-.9a1.326,1.326,0,0,0-.024-.279.235.235,0,0,0-.073-.143.4.4,0,0,0-.147-.06.87.87,0,0,0-.142-.025v-.109H49.9v.109Z" style="fill:#eed000;stroke:#eed000;stroke-miterlimit:3.8637;stroke-width:0.176681px"/><path d="M51.518,55.519a.491.491,0,0,1,.1.169.651.651,0,0,1-.18.69.77.77,0,0,1-.531.188,1.019,1.019,0,0,1-.292-.044,1.157,1.157,0,0,1-.252-.111l-.066.112h-.124l-.021-.749h.125a1.644,1.644,0,0,0,.089.252.891.891,0,0,0,.137.208.62.62,0,0,0,.186.144.55.55,0,0,0,.249.054.568.568,0,0,0,.185-.027.332.332,0,0,0,.129-.079.3.3,0,0,0,.072-.119.456.456,0,0,0,.025-.158.437.437,0,0,0-.074-.244.449.449,0,0,0-.22-.172c-.067-.027-.143-.056-.229-.088s-.161-.064-.223-.093a.727.727,0,0,1-.288-.217.571.571,0,0,1-.1-.353.535.535,0,0,1,.05-.232.609.609,0,0,1,.145-.193.652.652,0,0,1,.211-.125.724.724,0,0,1,.254-.046.755.755,0,0,1,.269.046,1.265,1.265,0,0,1,.218.108l.063-.1h.123l.013.725h-.125a2.387,2.387,0,0,0-.077-.239.81.81,0,0,0-.109-.206.49.49,0,0,0-.162-.142.464.464,0,0,0-.233-.054.361.361,0,0,0-.25.094.3.3,0,0,0-.1.23.4.4,0,0,0,.066.236.494.494,0,0,0,.193.152c.075.036.148.067.22.094s.143.053.211.083a1.641,1.641,0,0,1,.177.091.678.678,0,0,1,.149.119Z" style="fill:#eed000;stroke:#eed000;stroke-miterlimit:3.8637;stroke-width:0.176681px"/><path d="M53.881,54.929h-.106a.642.642,0,0,0-.051-.131,1.06,1.06,0,0,0-.08-.145.7.7,0,0,0-.1-.123.19.19,0,0,0-.1-.062q-.048-.006-.12-.009l-.134,0H53.1V56.2a.209.209,0,0,0,.021.094.146.146,0,0,0,.076.065.891.891,0,0,0,.115.029.805.805,0,0,0,.138.02v.11h-1.03v-.11l.13-.012a.5.5,0,0,0,.123-.023.141.141,0,0,0,.074-.057.184.184,0,0,0,.025-.1V54.456h-.089l-.119,0q-.07,0-.135.009a.189.189,0,0,0-.106.062.766.766,0,0,0-.1.123,1,1,0,0,0-.082.148.78.78,0,0,0-.049.128h-.108v-.593h1.9Z" style="fill:#eed000;stroke:#eed000;stroke-miterlimit:3.8637;stroke-width:0.176681px"/><path d="M39.021,28.834l.007,0s.271.1.274.519q.358-.066.289.379s-.284-.077-.33.085a.354.354,0,0,0,.159.456s.3.234.48-.209.253-.593.253-.593a1.117,1.117,0,0,1,.637-.6.506.506,0,0,1,.322-.007s.244.053.251.256a.321.321,0,0,1-.214.352c-.152.066-.34-.075-.34-.075a.136.136,0,0,0-.127.039.63.63,0,0,0-.14.193,4.2,4.2,0,0,0-.2.505c-.051.172-.164.693-.691.771H38.406c-.527-.078-.639-.6-.69-.771a4.391,4.391,0,0,0-.2-.505.628.628,0,0,0-.141-.193.135.135,0,0,0-.126-.039s-.188.141-.34.075a.32.32,0,0,1-.214-.352c.007-.2.251-.256.251-.256a.5.5,0,0,1,.321.007,1.122,1.122,0,0,1,.638.6s.067.15.252.593.48.209.48.209a.353.353,0,0,0,.159-.456c-.046-.162-.329-.085-.329-.085q-.069-.446.289-.379c0-.422.272-.519.274-.519l.007,0Z" style="fill:#eed000"/><path d="M40.57,43.052H37.557L37.912,31.3h2.316Z" style="fill:#eed000;stroke:#002d56;stroke-miterlimit:3.8637;stroke-width:0.918303px"/><path d="M40.557,49.589h-3.2V44.251h3.2Z" style="fill:#eed000;stroke:#002d56;stroke-miterlimit:3.8637;stroke-width:0.918303px"/><path d="M37.305,43.642h3.243c.226,0,.409.138.409.308s-.183.307-.409.307H37.305c-.226,0-.409-.137-.409-.307S37.079,43.642,37.305,43.642Z" style="fill:#eed000;stroke:#002d56;stroke-miterlimit:3.8637;stroke-width:0.918303px"/><path d="M37.545,43.065h2.832a.333.333,0,0,1,.364.289h0a.333.333,0,0,1-.364.288H37.545a.333.333,0,0,1-.364-.288h0A.333.333,0,0,1,37.545,43.065Z" style="fill:#eed000;stroke:#002d56;stroke-miterlimit:3.8637;stroke-width:0.918303px"/><path d="M38.079,45.251h1.71V48.77h-1.71Z" style="fill:none;stroke:#002d56;stroke-miterlimit:3.8637;stroke-width:0.918303px"/><path d="M38.044,30.887h1.963c.162,0,.292.095.292.212s-.13.213-.292.213H38.044c-.162,0-.292-.1-.292-.213S37.882,30.887,38.044,30.887Z" style="fill:#eed000;stroke:#002d56;stroke-miterlimit:3.8637;stroke-width:0.5300429999999999px"/><path d="M22.925,50.228H55.533v1.1H22.925Z" style="fill:#eed000;stroke:#002d56;stroke-miterlimit:3.8637;stroke-width:1.0817400000000001px"/><path d="M21.534,51.318H56.947v1.164H21.534Z" style="fill:#eed000;stroke:#002d56;stroke-miterlimit:3.8637;stroke-width:0.649057px"/><path d="M23.889,26.353H54.335v.674H23.889Z" style="fill:#eed000;stroke:#002d56;stroke-miterlimit:3.8637;stroke-width:1.0331100000000002px"/><path d="M48.6,26.332a10.241,10.241,0,0,0-19,0H25.814a13.8,13.8,0,0,1,26.573,0Z" style="fill:#eed000;stroke:#002d56;stroke-linejoin:round;stroke-width:0.5300429999999999px"/><path d="M24.708,27.035a2.921,2.921,0,0,1,.964,1.252H52.757s.445-1.048,1.059-1.253Z" style="fill:#eed000;stroke:#002d56;stroke-miterlimit:3.8637;stroke-width:0.649057px"/><path d="M31.427,28.531a9.156,9.156,0,0,0,7.612,4.246,9.637,9.637,0,0,0,7.611-4.1l1.344,1.992s.5.673-.468,1.523c-3.406,3-6.1,3.59-8.487,3.573a12.442,12.442,0,0,1-8.518-3.573.992.992,0,0,1-.35-1.1Z" style="fill:#eed000;stroke:#002d56;stroke-linejoin:round;stroke-width:0.5300429999999999px"/><path d="M30.12,31.54s-.154-.871,1.22-.168l.1-2.827" style="fill:none;stroke:#002d56;stroke-miterlimit:3.8637;stroke-width:0.688735px"/><path d="M48.089,30.947c-.439-.945-1.242.212-1.242.212l-.2-2.467" style="fill:none;stroke:#002d56;stroke-miterlimit:3.8637;stroke-width:0.688735px"/><path d="M25.526,28.338H52.757a.179.179,0,0,1,.175.183v.061a.178.178,0,0,1-.175.182H25.526a.179.179,0,0,1-.176-.182v-.061A.18.18,0,0,1,25.526,28.338Z" style="fill:#eed000;stroke:#002d56;stroke-miterlimit:3.8637;stroke-width:0.540872px"/><path d="M27.933,28.8l.007,0a.511.511,0,0,1,.274.52c.238-.045.335.081.289.378,0,0-.284-.077-.33.085a.352.352,0,0,0,.159.456s.295.234.48-.209.253-.593.253-.593a1.12,1.12,0,0,1,.637-.6.506.506,0,0,1,.322-.007s.244.053.25.257a.321.321,0,0,1-.213.352.4.4,0,0,1-.34-.076.136.136,0,0,0-.127.039.641.641,0,0,0-.141.193,4.391,4.391,0,0,0-.2.5c-.051.172-.163.693-.69.771H27.318c-.527-.078-.639-.6-.69-.771a4.391,4.391,0,0,0-.2-.5.641.641,0,0,0-.141-.193.135.135,0,0,0-.126-.039s-.188.141-.34.076a.32.32,0,0,1-.214-.352c.007-.2.251-.257.251-.257a.5.5,0,0,1,.321.007,1.125,1.125,0,0,1,.638.6s.066.151.252.593.48.209.48.209a.352.352,0,0,0,.159-.456c-.046-.162-.33-.085-.33-.085q-.069-.446.29-.378a.509.509,0,0,1,.273-.52l.008,0Z" style="fill:#eed000"/><path d="M29.447,43.052H26.434l.4-11.755H29.06Z" style="fill:#eed000;stroke:#002d56;stroke-miterlimit:3.8637;stroke-width:0.918303px"/><path d="M29.54,49.589h-3.2V44.251h3.2Z" style="fill:#eed000;stroke:#002d56;stroke-miterlimit:3.8637;stroke-width:0.918303px"/><path d="M26.319,43.642h3.243c.226,0,.409.138.409.308h0c0,.17-.183.307-.409.307H26.319c-.226,0-.409-.137-.409-.307h0c0-.17.183-.308.409-.308Z" style="fill:#eed000;stroke:#002d56;stroke-miterlimit:3.8637;stroke-width:0.918303px"/><path d="M26.525,43.065h2.831a.333.333,0,0,1,.364.289h0a.333.333,0,0,1-.364.288H26.525a.333.333,0,0,1-.364-.288h0A.333.333,0,0,1,26.525,43.065Z" style="fill:#eed000;stroke:#002d56;stroke-miterlimit:3.8637;stroke-width:0.918303px"/><path d="M27.086,45.251H28.8V48.77H27.086Z" style="fill:none;stroke:#002d56;stroke-miterlimit:3.8637;stroke-width:0.918303px"/><path d="M26.959,30.932h1.963c.162,0,.293.1.293.212s-.131.213-.293.213H26.959c-.161,0-.292-.095-.292-.213s.131-.212.292-.212Z" style="fill:#eed000;stroke:#002d56;stroke-miterlimit:3.8637;stroke-width:0.5300429999999999px"/><path d="M25.662,49.6H30.22v.615H25.662Z" style="fill:#eed000;stroke:#002d56;stroke-miterlimit:3.8637;stroke-width:0.441708px"/><path d="M50.274,28.834l.007,0s.271.1.274.519c.238-.044.335.082.289.379,0,0-.284-.077-.33.085a.354.354,0,0,0,.159.456s.3.234.48-.209.253-.593.253-.593a1.117,1.117,0,0,1,.637-.6.506.506,0,0,1,.322-.007s.244.053.251.256a.321.321,0,0,1-.214.352c-.152.066-.34-.075-.34-.075a.136.136,0,0,0-.127.039.614.614,0,0,0-.14.193,4.315,4.315,0,0,0-.2.505c-.05.172-.163.693-.69.771H49.659c-.527-.078-.639-.6-.69-.771a4.391,4.391,0,0,0-.2-.505.628.628,0,0,0-.141-.193A.135.135,0,0,0,48.5,29.4s-.188.141-.34.075a.32.32,0,0,1-.214-.352c.007-.2.251-.256.251-.256a.5.5,0,0,1,.321.007,1.122,1.122,0,0,1,.638.6s.067.15.252.593.48.209.48.209a.353.353,0,0,0,.159-.456c-.046-.162-.329-.085-.329-.085q-.069-.446.289-.379a.508.508,0,0,1,.273-.519l.008,0Z" style="fill:#eed000"/><path d="M51.845,43.052H48.833l.4-11.755h2.226Z" style="fill:#eed000;stroke:#002d56;stroke-miterlimit:3.8637;stroke-width:0.918303px"/><path d="M52.012,49.589h-3.2l-.033-5.338h3.233Z" style="fill:#eed000;stroke:#002d56;stroke-miterlimit:3.8637;stroke-width:0.918303px"/><path d="M48.783,43.642h3.243c.226,0,.409.138.409.308s-.183.307-.409.307H48.783c-.226,0-.409-.137-.409-.307S48.557,43.642,48.783,43.642Z" style="fill:#eed000;stroke:#002d56;stroke-miterlimit:3.8637;stroke-width:0.918303px"/><path d="M48.948,43.065h2.831a.333.333,0,0,1,.364.289h0a.333.333,0,0,1-.364.288H48.948a.333.333,0,0,1-.365-.288h0A.333.333,0,0,1,48.948,43.065Z" style="fill:#eed000;stroke:#002d56;stroke-miterlimit:3.8637;stroke-width:0.918303px"/><path d="M49.528,45.251h1.709V48.77H49.528Z" style="fill:none;stroke:#002d56;stroke-miterlimit:3.8637;stroke-width:0.918303px"/><path d="M49.342,30.887h1.964c.161,0,.292.095.292.212s-.131.213-.292.213H49.342c-.161,0-.292-.1-.292-.213S49.181,30.887,49.342,30.887Z" style="fill:#eed000;stroke:#002d56;stroke-miterlimit:3.8637;stroke-width:0.5300429999999999px"/><path d="M36.6,49.6h4.558v.615H36.6Z" style="fill:#eed000;stroke:#002d56;stroke-miterlimit:3.8637;stroke-width:0.441708px"/><path d="M19.682,41.268a2.263,2.263,0,0,0-1.592-.41,1.31,1.31,0,0,1,1.534-.4c.6.249,1.11,1.172,2.629.2a14.141,14.141,0,0,1,3.448-1.9c1.375-.462,2.454-.557,2.776-.674s.824-.3,1.081-1.845c.058-.352,1.461,2.929,1.461,2.929a2.606,2.606,0,0,1-1.549,1.7c-1.344.615-3.673.983-4.967,2.02a8.6,8.6,0,0,0-1.79,1.707,4.18,4.18,0,0,1-2.447,1.955,5.092,5.092,0,0,0,1.447-2.329c.058-.249-.037-1.369.409-1.816-.474.475-1.673-.461-1.52-.337a3.645,3.645,0,0,0-.92-.8Z" style="fill:#eed000;stroke:#002d56;stroke-miterlimit:3.8637;stroke-width:0.803519px"/><path d="M48.681,36.273s.234,1.333,2.849,2.006a7.4,7.4,0,0,1,3.448,1.728,3.467,3.467,0,0,0,2.7.6,8.1,8.1,0,0,1,1.867-.433,3.393,3.393,0,0,1-.42.814,4.232,4.232,0,0,1-1.52,1.347,2.428,2.428,0,0,1-1.256.425,3.006,3.006,0,0,1,.54,1.537c.073.952,1.344,1.919,1.344,1.919a5.1,5.1,0,0,1-2.439-1.45,8.205,8.205,0,0,0-2.425-2.094c-.453-.22-2.761-1.011-3.244-1.2s-1.986-.981-2.191-2.255a5.608,5.608,0,0,1,.745-2.944Z" style="fill:#eed000;stroke:#002d56;stroke-miterlimit:3.8637;stroke-width:0.803519px"/><path d="M23.888,37.3c-1.775-.7-1.227-1.165-1.227-1.165a5.2,5.2,0,0,1,3.172-2.594c2.892-1.113,5.843-.615,5.054.674-.479.783-1.307,2.152-1.307,2.152s-.344-.922-1.921-.337-2.065.834-2.159,1.144c-.146.483-.087.791,1.052.615a3.555,3.555,0,0,1-2.507-.425Z" style="fill:#eed000;stroke:#002d56;stroke-miterlimit:3.8637;stroke-width:0.803519px"/><path d="M50.938,35.984a4.528,4.528,0,0,1,1.218.594c1.608,1.155,1.312,2.162.866,2.189a22.76,22.76,0,0,0,3.592-.308c.438-.234.584-.5.321-1.054s-2.25-3.954-5.493-4.6-4.528.723-4.251,1.186a10.562,10.562,0,0,1,1.5,2.5c.332-.628,1.081-.807,2.242-.513Z" style="fill:#eed000;stroke:#002d56;stroke-linejoin:round;stroke-width:0.688757px"/><path d="M49.384,35.355l-.626-.9.163.977-.252.042-.284-1.7.27-.046.813,1.139.409-1.344.238-.04.284,1.7-.332.056-.163-.977-.332,1.06Z" style="fill:#002d56"/><path d="M51.968,34.7a.934.934,0,0,1-.3.574.659.659,0,0,1-.952-.194.921.921,0,0,1-.059-.643l.02-.1a1.006,1.006,0,0,1,.29-.565.589.589,0,0,1,.544-.131.563.563,0,0,1,.436.334,1.043,1.043,0,0,1,.044.63Zm-.359-.1.01-.046a1.615,1.615,0,0,0,.043-.474.232.232,0,0,0-.213-.2.237.237,0,0,0-.263.086,1.425,1.425,0,0,0-.155.47l-.008.041a1.51,1.51,0,0,0-.045.489c.017.094.088.154.215.179a.235.235,0,0,0,.252-.094,1.12,1.12,0,0,0,.164-.45Z" style="fill:#002d56"/><path d="M53.352,35.45a1.008,1.008,0,0,1-.436.472.555.555,0,0,1-.507-.044l-.526-.287.821-1.517.473.257a.6.6,0,0,1,.357.448,1.021,1.021,0,0,1-.149.609Zm-.321-.188.023-.041a.826.826,0,0,0,.124-.426.287.287,0,0,0-.151-.253l-.121-.066-.577,1.065.149.081a.262.262,0,0,0,.265.007.914.914,0,0,0,.288-.367Z" style="fill:#002d56"/><path d="M54.29,35.521l-.324.33.347.342-.182.186-.347-.342-.341.348.479.472-.18.183L53,36.31l1.207-1.232.71.7-.18.184Z" style="fill:#002d56"/><path d="M54.462,38.25l-.185-.315a1.774,1.774,0,0,0,.474-.368.237.237,0,0,0,.04-.285l-.044-.075-.666.394-.187-.318,1.484-.876.326.556a.437.437,0,0,1,.077.342.378.378,0,0,1-.177.219l-.081.048a.325.325,0,0,1-.247.046.394.394,0,0,1-.221-.168.472.472,0,0,1-.085.387,1.606,1.606,0,0,1-.508.413Zm.846-.974.041-.024a.2.2,0,0,0,.109-.13.252.252,0,0,0-.044-.168l-.061-.1-.392.232.05.086a.282.282,0,0,0,.139.136A.188.188,0,0,0,55.308,37.276Z" style="fill:#002d56"/><path d="M49.8,40.381l-.306-.223.146-.406-.437-.318-.343.263-.243-.177,1.458-1.072.278.2Zm-.077-.876.209-.633-.525.4Z" style="fill:#002d56"/><path d="M51.72,39.664l-.319-.157-.643,1.321-.331-.162.642-1.321-.327-.16.113-.231.978.478Z" style="fill:#002d56"/><path d="M52.511,39.7l-.673,1.589-.339-.145.673-1.589Z" style="fill:#002d56"/><path d="M53.816,41.275a.931.931,0,0,1-.421.5.659.659,0,0,1-.888-.4.924.924,0,0,1,.082-.64l.04-.09a1.01,1.01,0,0,1,.405-.489.589.589,0,0,1,.56-.009.562.562,0,0,1,.353.42,1.047,1.047,0,0,1-.093.625Zm-.329-.172.019-.042a1.6,1.6,0,0,0,.144-.454.277.277,0,0,0-.439-.215,1.4,1.4,0,0,0-.253.424l-.017.039a1.523,1.523,0,0,0-.15.468c0,.095.054.169.171.221a.237.237,0,0,0,.267-.037,1.145,1.145,0,0,0,.258-.4Z" style="fill:#002d56"/><path d="M54.967,42l.509-.885.227.131-.861,1.495-.137-.079-.168-1.349L54,42.255l-.227-.132.861-1.495.171.1Z" style="fill:#002d56"/><path d="M25.553,36.285l-.229.138L24.05,35.177l.32-.193.8.791-.284-1.1.224-.135.841.769-.333-1.075.256-.154.5,1.714-.229.137-.872-.786Z" style="fill:#002d56"/><path d="M26.828,33.841l.5,1.651-.352.108-.5-1.651Z" style="fill:#002d56"/><path d="M28.808,34.722a.478.478,0,0,1-.115.426.788.788,0,0,1-.46.2,1.778,1.778,0,0,1-.3.02,1,1,0,0,1-.206-.026l-.042-.3a.706.706,0,0,0,.2.047,1.09,1.09,0,0,0,.262,0A.443.443,0,0,0,28.39,35a.2.2,0,0,0,.044-.175.2.2,0,0,0-.067-.126.85.85,0,0,0-.3-.114.731.731,0,0,1-.307-.157.5.5,0,0,1-.144-.312.431.431,0,0,1,.112-.356.674.674,0,0,1,.422-.2,1.187,1.187,0,0,1,.248-.01,1.018,1.018,0,0,1,.16.019l.036.26c-.064-.007-.127-.012-.189-.016a1.025,1.025,0,0,0-.2.01.358.358,0,0,0-.2.077.148.148,0,0,0-.048.128.183.183,0,0,0,.068.13,1.072,1.072,0,0,0,.3.1.679.679,0,0,1,.341.169.517.517,0,0,1,.136.293Z" style="fill:#002d56"/><path d="M34.137,33.548a.421.421,0,0,1-.232.214.43.43,0,0,1-.352-.045,1,1,0,0,1-.18-.112.437.437,0,0,1-.094-.1l.12-.236a.714.714,0,0,0,.083.083.61.61,0,0,0,.119.078.176.176,0,0,0,.12.018.155.155,0,0,0,.1-.094l.585-1.152.329.168Z" style="fill:#002d56"/><path d="M36.008,34.238a.508.508,0,0,1-.269.306.782.782,0,0,1-.836-.333.615.615,0,0,1,.026-.459l.415-1.084.344.132-.432,1.128a.327.327,0,0,0-.02.219.268.268,0,0,0,.171.141.285.285,0,0,0,.212.014.3.3,0,0,0,.144-.186l.429-1.122.255.1Z" style="fill:#002d56"/><path d="M37.83,34.611a.473.473,0,0,1-.222.381.781.781,0,0,1-.494.071,1.733,1.733,0,0,1-.294-.058,1,1,0,0,1-.192-.079l.036-.3a.7.7,0,0,0,.184.1,1.032,1.032,0,0,0,.254.065.428.428,0,0,0,.251-.02.191.191,0,0,0,.088-.157.2.2,0,0,0-.032-.139.846.846,0,0,0-.256-.187.736.736,0,0,1-.256-.231.5.5,0,0,1-.059-.339.428.428,0,0,1,.2-.315.665.665,0,0,1,.459-.081,1.124,1.124,0,0,1,.242.054,1.048,1.048,0,0,1,.149.059l-.032.262c-.059-.024-.119-.045-.179-.065a.931.931,0,0,0-.192-.042.36.36,0,0,0-.217.022.143.143,0,0,0-.079.111.183.183,0,0,0,.032.143,1.082,1.082,0,0,0,.267.173.674.674,0,0,1,.286.251.517.517,0,0,1,.056.319Z" style="fill:#002d56"/><path d="M39.528,33.753l-.356-.006-.026,1.469-.368-.007.025-1.468-.364-.007.005-.257,1.088.019Z" style="fill:#002d56"/><path d="M40.533,33.4l.21,1.713-.366.045-.21-1.713Z" style="fill:#002d56"/><path d="M42.594,34.6a.453.453,0,0,1-.117.088.949.949,0,0,1-.214.092.719.719,0,0,1-.579-.047.886.886,0,0,1-.384-.546l-.02-.066a.9.9,0,0,1,.02-.66.691.691,0,0,1,.44-.381,1.28,1.28,0,0,1,.225-.051.465.465,0,0,1,.15,0l.08.262a.548.548,0,0,0-.135-.007.735.735,0,0,0-.185.035.36.36,0,0,0-.251.248.8.8,0,0,0,.026.464l.007.023a.794.794,0,0,0,.232.406.334.334,0,0,0,.317.058.774.774,0,0,0,.193-.086,1.044,1.044,0,0,0,.117-.087Z" style="fill:#002d56"/><path d="M43.1,32.771l.21.413.434-.222.118.232-.434.222.221.434.6-.3.116.229-.926.473-.782-1.538.887-.453.117.23Z" style="fill:#002d56"/><path d="M24.95,40.99a1.017,1.017,0,0,1,.163.622.554.554,0,0,1-.309.405l-.525.291-.835-1.51.47-.261a.6.6,0,0,1,.569-.061,1.019,1.019,0,0,1,.433.453Zm-.33.17-.023-.041a.828.828,0,0,0-.291-.334.287.287,0,0,0-.3-.008l-.12.067.586,1.06.148-.082a.266.266,0,0,0,.149-.22.932.932,0,0,0-.154-.442Z" style="fill:#002d56"/><path d="M26.5,40.341a.935.935,0,0,1,.073.646.659.659,0,0,1-.894.381.92.92,0,0,1-.412-.5l-.038-.091a1.021,1.021,0,0,1-.08-.631.593.593,0,0,1,.375-.417.562.562,0,0,1,.548.028,1.037,1.037,0,0,1,.391.495Zm-.351.124-.018-.043a1.611,1.611,0,0,0-.232-.416.232.232,0,0,0-.289-.045.237.237,0,0,0-.168.221,1.38,1.38,0,0,0,.137.475l.017.039a1.507,1.507,0,0,0,.239.429.234.234,0,0,0,.278.025.238.238,0,0,0,.155-.221,1.133,1.133,0,0,0-.119-.464Z" style="fill:#002d56"/><path d="M27.86,40.778l-.779-.77.338.931-.239.087L26.591,39.4l.257-.093,1.006.97.158-1.395.227-.083.589,1.622-.317.116-.338-.931-.133,1.1Z" style="fill:#002d56"/><path d="M30.13,23.693a.509.509,0,0,1-.046.164,1.206,1.206,0,0,1-.133.237.864.864,0,0,1-.558.381.943.943,0,0,1-.716-.2l-.063-.045a.965.965,0,0,1-.426-.6.822.822,0,0,1,.144-.661,1.468,1.468,0,0,1,.17-.209.561.561,0,0,1,.135-.11l.25.175a.592.592,0,0,0-.128.092.9.9,0,0,0-.144.165.428.428,0,0,0-.061.4.845.845,0,0,0,.336.395l.022.015a.849.849,0,0,0,.484.191.4.4,0,0,0,.327-.181.882.882,0,0,0,.117-.217,1.428,1.428,0,0,0,.048-.163Z" style="fill:#002d56"/><path d="M31.065,21.387a1,1,0,0,1,.348.636.8.8,0,0,1-.79.819.988.988,0,0,1-.644-.321l-.079-.075a1.086,1.086,0,0,1-.348-.617.7.7,0,0,1,.224-.61.67.67,0,0,1,.593-.231,1.114,1.114,0,0,1,.622.328Zm-.32.295-.037-.036a1.667,1.667,0,0,0-.421-.321.272.272,0,0,0-.325.09.277.277,0,0,0-.086.308,1.476,1.476,0,0,0,.344.428l.034.033a1.59,1.59,0,0,0,.433.331.275.275,0,0,0,.306-.105.278.278,0,0,0,.072-.3,1.2,1.2,0,0,0-.32-.426Z" style="fill:#002d56"/><path d="M32.773,20.21l-.667-.917.249-.181,1.126,1.55-.15.109-1.483-.41.708.973-.249.181-1.126-1.55.187-.136Z" style="fill:#002d56"/><path d="M35.159,19.239a.515.515,0,0,1,.006.494.958.958,0,0,1-.451.37,2.041,2.041,0,0,1-.326.126,1.156,1.156,0,0,1-.239.044l-.139-.3a.883.883,0,0,0,.241-.021,1.308,1.308,0,0,0,.291-.1.528.528,0,0,0,.239-.173.206.206,0,0,0-.006-.2.217.217,0,0,0-.114-.111,1.026,1.026,0,0,0-.367-.018A.863.863,0,0,1,33.9,19.3a.542.542,0,0,1-.261-.282.464.464,0,0,1,.013-.418.81.81,0,0,1,.408-.359,1.473,1.473,0,0,1,.274-.1,1.158,1.158,0,0,1,.184-.035l.123.264c-.073.015-.146.032-.217.05a1.255,1.255,0,0,0-.216.078.442.442,0,0,0-.2.154.157.157,0,0,0-.013.153.2.2,0,0,0,.117.115,1.341,1.341,0,0,0,.368,0,.783.783,0,0,1,.435.061.549.549,0,0,1,.245.264Z" style="fill:#002d56"/><path d="M36.816,17.652l-.4.108.422,1.574-.417.112L36,17.872l-.412.11-.074-.276,1.232-.33Z" style="fill:#002d56"/><path d="M37.935,17.226l.431-.03.134,1.911-.431.03Z" style="fill:#002d56"/><path d="M40.673,17.562l-.415-.029-.114,1.626-.43-.03.113-1.627-.425-.029.02-.285,1.271.089Z" style="fill:#002d56"/><path d="M42.769,19.2a.549.549,0,0,1-.283.357.957.957,0,0,1-1-.319.658.658,0,0,1-.014-.513l.376-1.232.413.126L41.865,18.9a.348.348,0,0,0,0,.245.323.323,0,0,0,.212.146.354.354,0,0,0,.249,0,.33.33,0,0,0,.148-.217l.39-1.274.306.093Z" style="fill:#002d56"/><path d="M45.176,19.082l-.371-.189-.74,1.452-.385-.2.74-1.452-.38-.194.13-.255,1.135.579Z" style="fill:#002d56"/><path d="M46.234,19.423l.349.254-1.126,1.55-.349-.254Z" style="fill:#002d56"/><path d="M47.914,22.226a1,1,0,0,1-.642.336.8.8,0,0,1-.8-.8.984.984,0,0,1,.331-.638l.077-.078a1.088,1.088,0,0,1,.623-.337.706.706,0,0,1,.606.234.67.67,0,0,1,.22.6,1.1,1.1,0,0,1-.338.617Zm-.289-.325.037-.037a1.641,1.641,0,0,0,.328-.415.271.271,0,0,0-.084-.327.278.278,0,0,0-.307-.091,1.47,1.47,0,0,0-.433.336l-.034.034a1.578,1.578,0,0,0-.339.427.329.329,0,0,0,.4.385A1.2,1.2,0,0,0,47.625,21.9Z" style="fill:#002d56"/><path d="M49.1,23.894l.917-.667.181.249L48.651,24.6l-.109-.15.41-1.483-.973.707-.181-.248,1.55-1.126.136.187Z" style="fill:#002d56"/><path d="M45.247,37.833s.1-.116.14-.032.041.157.012.189-.026.052-.068.1-.023.083-.063.109-.058.014-.1.012l-.018.131-.029.111.017.106.075.168-.058-.126.081.137c.061.161.639.322.849.416.436.2.368,1.123.413,1.215a12.654,12.654,0,0,1,.23,1.526c0,.207-.23,1.321-.252,1.55-.012.115-.04.389-.069.666-.006.055-.084-.017-.109.032a.849.849,0,0,0-.021.316c-.013.135-.052.241-.058.309a.3.3,0,0,1-.256.277,10.551,10.551,0,0,1-.054,1.07,1.707,1.707,0,0,0-.008.82,4.522,4.522,0,0,1-.092,1.286s-.237,1.046-.283,1.207a.827.827,0,0,0,.053.423,1.937,1.937,0,0,1,.023.3H43.582c-.052,0,.035-.181.1-.31a.381.381,0,0,1,.264-.172c.138-.023.149-.172.229-.356a1.526,1.526,0,0,0-.022-.815A5.8,5.8,0,0,1,44,47.468a4.028,4.028,0,0,0-.229-1,5.3,5.3,0,0,1-.172-1.09.386.386,0,0,0-.038-.13c-.031-.079-.036-.194-.1-.375a3.576,3.576,0,0,1-.115-1.045,1.977,1.977,0,0,0-.2-.782l-.036-.143-.354.11-.342.268a.46.46,0,0,1-.3.092c-.268.024-.536-.291-.6-.745-.069-.5.03-.718.589-.716h.248l.216.007h.1s.062.123-.035.166a1.106,1.106,0,0,1-.125.05l.124.143a3.181,3.181,0,0,1,.276-.161l.077-.18a.834.834,0,0,0-.008-.267c-.023-.127-.068-.853-.068-1.025s.005-.376.023-.574a2.674,2.674,0,0,1,.1-.755c.109-.213.7-.3.7-.3s.255-.028.289-.1c.013-.026.077-.136.105-.179-.164-.058-.218-.26-.242-.309a2.84,2.84,0,0,1-.075-.31c-.008-.034-.06-.247-.089-.332a.666.666,0,0,1,0-.238l-.187-.021-.226-.017a1.446,1.446,0,0,1-.158-.03c-.033-.013-.142-.036-.142-.036s-.18-.153,0-.277.387-.237.422-.258a.119.119,0,0,0,.047-.054l0-.044a1.161,1.161,0,0,1-.132-.334c-.051-.185.435-.262.435-.262.141-.012.612.05.564.04a1.507,1.507,0,0,0,.35.017,2.922,2.922,0,0,1,.571.1.581.581,0,0,1,.346.287c.071.131.357.3.441.378a2.862,2.862,0,0,1,.337.478c.1.166-.008.126-.042.147a2.882,2.882,0,0,1-.969-.1c.063.008.048-.015-.02-.052v.063l-.051.2Z" style="fill:#eed000;stroke:#eed000;stroke-miterlimit:3.8637;stroke-width:0.176681px"/><path d="M44.3,40.316a7.178,7.178,0,0,1,.138-1.159.23.23,0,0,0,0-.144.37.37,0,0,1-.331-.158" style="fill:none;stroke:#002d56;stroke-miterlimit:3.8637;stroke-width:0.441708px"/><path d="M43.53,45.444l.027-.2a.606.606,0,0,0,.037-.329,5.726,5.726,0,0,1,.057-1.137c.055-.293.515-1.2.561-1.446a9.356,9.356,0,0,0,.046-.965,1.468,1.468,0,0,1-.011-.344" style="fill:none;stroke:#002d56;stroke-miterlimit:3.8637;stroke-width:0.5300429999999999px"/><path d="M43.144,43.047a1.977,1.977,0,0,1,.2.782,3.552,3.552,0,0,0,.07,1.045c.065.181.115.3.147.375.024.061.127.1.127.13a5.368,5.368,0,0,0,.172,1.09,3.709,3.709,0,0,1,.184,1A5.8,5.8,0,0,0,44.2,48.5a1.527,1.527,0,0,1,.023.815c-.081.184-.1.3-.23.356a.489.489,0,0,0-.221.158c-.092.112-.2.324-.146.324h1.928a1.937,1.937,0,0,0-.023-.3c-.023-.115-.16-.276-.115-.436s.345-1.194.345-1.194a4.522,4.522,0,0,0,.092-1.286c-.069-.574-.092-.574-.046-.781s.1-1.03.1-1.03.36-.1.383-.35.164-1.1.187-1.329.252-1.343.252-1.55a12.868,12.868,0,0,0-.229-1.526c-.046-.092,0-.8-.437-1a2.538,2.538,0,0,1-.826-.632l-.081-.137" style="fill:none"/><path d="M44.133,38.737l-.105.179s-.879.188-.988.4a6.787,6.787,0,0,0-.124,1.329c0,.173.045.9.068,1.025a.834.834,0,0,1,.008.267" style="fill:none;stroke:#002d56;stroke-linejoin:round;stroke-width:0.5863809999999999px"/><path d="M44.637,41.613a2.269,2.269,0,0,0,.23,1.056c.1.161.554,1.037.654,1.148.059.067.212.093.251.185.2.471-.011.935.27,1l.079.271" style="fill:none;stroke:#002d56;stroke-miterlimit:3.8637;stroke-width:0.5300429999999999px"/><path d="M45.265,38.728a1.065,1.065,0,0,1-.558.259c-.069,0-.028.141-.059.307a10.292,10.292,0,0,0-.011,1.3c.009.051-.009.077-.012.241" style="fill:none;stroke:#002d56;stroke-miterlimit:3.8637;stroke-width:0.441708px"/><path d="M45.564,39.959l.118.46.16.85.058.517.011.459-.011.39-.046.276-.058.252-.1.827a.767.767,0,0,1,.712.126" style="fill:none;stroke:#002d56;stroke-linecap:round;stroke-linejoin:round;stroke-width:0.5300429999999999px"/><path d="M43.367,39.114l.022.079a6.333,6.333,0,0,0,2.419,3.431l.092.057" style="fill:none;stroke:#002d56;stroke-miterlimit:3.8637;stroke-width:0.5300429999999999px"/><path d="M43.739,39.012a5.539,5.539,0,0,0,2.155,3.038l.017.114" style="fill:none;stroke:#002d56;stroke-miterlimit:3.8637;stroke-width:0.5300429999999999px"/><path d="M44.025,42.773a1.689,1.689,0,0,0,.891-.011" style="fill:none;stroke:#002d56;stroke-miterlimit:3.8637;stroke-width:0.5300429999999999px"/><path d="M44.572,44.562c.069.477.154,1.047.18,1.138.046.161.092.964.092.964l.023.781.022.987V49.58a.71.71,0,0,0-.3.591" style="fill:none;stroke:#002d56;stroke-miterlimit:3.8637;stroke-width:0.5300429999999999px"/><path d="M42.683,42.106c-.117.176-.7-.158-.724.341-.023.383.051.817.422.865l.273-.181.073-.073" style="fill:none;stroke:#002d56;stroke-linejoin:round;stroke-width:0.488645px"/><path d="M42.339,41.9a21.692,21.692,0,0,1,.328-6.328c-1.112,1.616-.655,6.33-.655,6.33Z" style="fill:#eed000"/><path d="M43,41.9l-.08.218a.985.985,0,0,1-.27.12" style="fill:none;stroke:#002d56;stroke-linejoin:round;stroke-width:0.5863809999999999px"/><path d="M42.617,42.184a1.519,1.519,0,0,1,.037.947" style="fill:none;stroke:#002d56;stroke-linejoin:round;stroke-width:0.488645px"/><path d="M42.345,41.916l.225,0h.1s.062.123-.035.166a.435.435,0,0,1-.164.042" style="fill:none;stroke:#002d56;stroke-linejoin:round;stroke-width:0.377334px"/><path d="M42.412,43.282a.46.46,0,0,1-.3.092c-.268.024-.536-.291-.6-.745-.069-.5,0-.712.495-.726" style="fill:none;stroke:#002d56;stroke-miterlimit:3.8637;stroke-width:0.377334px"/><path d="M42.5,42.124h-.357s-.19.05-.2.2a1.375,1.375,0,0,0,.088.73l.106.11" style="fill:none;stroke:#002d56;stroke-miterlimit:3.8637;stroke-width:0.377334px"/><path d="M43.724,37.325l.031.186-.044.08-.193-.013-.227-.007a1.457,1.457,0,0,1-.16-.024c-.033-.011-.143-.029-.143-.029s-.164-.216.009-.347a3.7,3.7,0,0,1,.383-.246c.033-.021.05-.016.05-.016" style="fill:none;stroke:#002d56;stroke-miterlimit:3.8637;stroke-width:0.441708px"/><path d="M43.722,37.366v.21" style="fill:none;stroke:#002d56;stroke-miterlimit:3.8637;stroke-width:0.176681px"/><path d="M43.752,37.522a.628.628,0,0,0-.025.264c.029.085.081.3.089.332a2.84,2.84,0,0,0,.075.31c.025.051.082.267.262.315a.649.649,0,0,0,.5-.062" style="fill:none;stroke:#002d56;stroke-miterlimit:3.8637;stroke-width:0.353362px"/><path d="M44.1,38.323s.087-.032.117-.02a.641.641,0,0,0,.115.023.534.534,0,0,1,.142-.009.363.363,0,0,0,.108.008" style="fill:none;stroke:#002d56;stroke-miterlimit:3.8637;stroke-width:0.265027px"/><path d="M44.178,38.436a.736.736,0,0,0,.3,0" style="fill:none;stroke:#002d56;stroke-miterlimit:3.8637;stroke-width:0.265027px"/><path d="M44.468,37.539a.386.386,0,0,1,.353.045" style="fill:none;stroke:#002d56;stroke-miterlimit:3.8637;stroke-width:0.265027px"/><path d="M44.228,37.528a.384.384,0,0,1-.038.2c-.025.046-.032.129-.048.164a.393.393,0,0,0-.034.128c0,.033,0,.031.052.058s.087,0,.127-.008a.192.192,0,0,1,.109-.013c.036.01.087-.017.086-.053a.173.173,0,0,0-.036-.11.769.769,0,0,0-.074-.054" style="fill:none;stroke:#002d56;stroke-miterlimit:3.8637;stroke-width:0.212px"/><path d="M43.875,37.551a.39.39,0,0,1,.36,0" style="fill:none;stroke:#002d56;stroke-miterlimit:3.8637;stroke-width:0.265027px"/><path d="M44.032,37.7c-.068,0-.124-.016-.123-.033s.056-.029.124-.028.123.016.123.033S44.1,37.705,44.032,37.7Z" style="fill:#002d56;stroke:#002d56;stroke-miterlimit:3.8637;stroke-width:0.176673px"/><path d="M44.133,38.737l.02.006a.649.649,0,0,0,.5-.062" style="fill:none;stroke:#002d56;stroke-miterlimit:3.8637;stroke-width:0.353362px"/><path d="M43.69,36.216s-.471.139-.412.322a1.15,1.15,0,0,0,.146.327,2.942,2.942,0,0,1,.157.366c.028.066.011.187.121.133.623-.306,1.963.224,1.675.2a3,3,0,0,0,1.022.088c.034-.022.1-.065-.009-.227a3.194,3.194,0,0,0-.384-.451,2.32,2.32,0,0,1-.419-.373.639.639,0,0,0-.4-.257,2.845,2.845,0,0,0-.573-.071,1.13,1.13,0,0,1-.342-.026,5.6,5.6,0,0,0-.585-.032Z" style="fill:none;stroke:#002d56;stroke-miterlimit:3.8637;stroke-width:0.3532px"/><path d="M44.825,46.131a1.132,1.132,0,0,0,1.082-.011c.546-.294.1-.056.1-.056" style="fill:none;stroke:#002d56;stroke-miterlimit:3.8637;stroke-width:0.530065px"/><path d="M43.653,46.2a1.343,1.343,0,0,0,1.112-.034" style="fill:none;stroke:#002d56;stroke-miterlimit:3.8637;stroke-width:0.530065px"/><path d="M44.63,37.722c-.072-.008-.128-.028-.126-.046s.061-.026.132-.018.128.028.126.045S44.7,37.729,44.63,37.722Z" style="fill:#002d56;stroke:#002d56;stroke-miterlimit:3.8637;stroke-width:0.176679px"/><path d="M43.913,43.089a2.056,2.056,0,0,0,1.166-.011" style="fill:none;stroke:#002d56;stroke-miterlimit:3.8637;stroke-width:0.5300429999999999px"/><path d="M48.133,49.6h4.558v.615H48.133Z" style="fill:#eed000;stroke:#002d56;stroke-miterlimit:3.8637;stroke-width:0.073613px"/><path d="M0,77.886H186.925v38.942H0Z" style="fill:#b50027"/></g></g></g></svg>