<svg xmlns="http://www.w3.org/2000/svg" xmlns:xlink="http://www.w3.org/1999/xlink" viewBox="0 0 200.659 123.552"><defs><clipPath id="clip-path"><rect x="0.745" y="0.456" width="105.024" height="61.265" style="fill:none"/></clipPath></defs><g id="Layer_2" data-name="Layer 2"><g id="Hawaii"><g id="Hawaii-2" data-name="Hawaii"><rect x="0.675" y="0.549" width="199.256" height="122.439" style="fill:#fff"/><rect x="0.675" y="15.718" width="199.477" height="15.169" style="fill:#cf142b"/><rect x="0.675" y="30.617" width="199.477" height="15.169" style="fill:#00247d"/><rect x="0.675" y="61.768" width="199.477" height="15.169" style="fill:#cf142b"/><rect x="0.675" y="108.089" width="199.477" height="15.169" style="fill:#cf142b"/><rect x="0.675" y="76.667" width="199.477" height="15.169" style="fill:#00247d"/><g style="clip-path:url(#clip-path)"><rect x="0.745" y="0.456" width="105.024" height="61.265" style="fill:#fff"/></g><g style="clip-path:url(#clip-path)"><polygon points="71.068 22.607 105.769 3.182 105.769 0.456 103.373 0.456 63.805 22.607 71.068 22.607" style="fill:#cf142b"/></g><g style="clip-path:url(#clip-path)"><polygon points="69.426 40.803 105.769 61.136 105.769 57.07 76.689 40.803 69.426 40.803" style="fill:#cf142b"/></g><g style="clip-path:url(#clip-path)"><polygon points="0.745 5.124 31.831 22.607 39.094 22.607 0.745 1.052 0.745 5.124" style="fill:#cf142b"/></g><g style="clip-path:url(#clip-path)"><polygon points="37.452 40.803 0.745 61.366 0.745 61.721 7.372 61.721 44.715 40.803 37.452 40.803" style="fill:#cf142b"/></g><g style="clip-path:url(#clip-path)"><polygon points="98.586 0.456 61.812 0.456 61.812 21.054 98.586 0.456" style="fill:#1a237b"/></g><g style="clip-path:url(#clip-path)"><polygon points="45.573 0.456 8.948 0.456 45.573 21.054 45.573 0.456" style="fill:#1a237b"/></g><g style="clip-path:url(#clip-path)"><polygon points="105.769 22.607 105.769 8.553 80.826 22.607 105.769 22.607" style="fill:#1a237b"/></g><g style="clip-path:url(#clip-path)"><polygon points="105.769 54.703 105.769 40.803 80.826 40.803 105.769 54.703" style="fill:#1a237b"/></g><g style="clip-path:url(#clip-path)"><polygon points="11.027 61.721 45.573 61.721 45.573 42.359 11.027 61.721" style="fill:#1a237b"/></g><g style="clip-path:url(#clip-path)"><polygon points="61.812 61.721 96.466 61.721 61.812 42.359 61.812 61.721" style="fill:#1a237b"/></g><g style="clip-path:url(#clip-path)"><polygon points="0.745 40.803 0.745 55.33 26.559 40.803 0.745 40.803" style="fill:#1a237b"/></g><g style="clip-path:url(#clip-path)"><polygon points="0.745 22.607 26.559 22.607 0.745 8.055 0.745 22.607" style="fill:#1a237b"/></g><g style="clip-path:url(#clip-path)"><polygon points="48.82 0.456 48.82 26.248 0.745 26.248 0.745 37.165 48.82 37.165 48.82 61.721 58.564 61.721 58.564 37.165 105.769 37.165 105.769 26.248 58.564 26.248 58.564 0.456 48.82 0.456" style="fill:#cf142b"/></g><rect x="0.56" y="0.56" width="199.539" height="122.431" style="fill:none;stroke:#3e3c3c;stroke-width:1.12056px"/></g></g></g></svg>