<svg xmlns="http://www.w3.org/2000/svg" viewBox="0 0 186.936 125.691"><g id="Layer_2" data-name="Layer 2"><g id="Illinois"><g id="Illinois-2" data-name="Illinois"><path id="path2858" d="M0,124.18H186.906V.525H0Z" style="fill:#fff"/><g id="g4096"><g id="flowRoot3297"><path id="path4080" d="M73.5,112.969v-.542h.461a.971.971,0,0,0,.58-.118c.094-.078.14-.29.14-.631v-4.247c0-.336-.046-.546-.14-.624a.962.962,0,0,0-.58-.119H73.5v-.535H76.86v.535H76.4a.957.957,0,0,0-.583.119c-.091.08-.135.288-.135.624v4.247c0,.341.047.55.14.631a.956.956,0,0,0,.58.118h.457v.542Z" style="fill:#002768"/><path id="path4082" d="M77.444,106.15H80.8v.536h-.506a.98.98,0,0,0-.587.119c-.093.08-.139.287-.139.624v5h1.628a3.566,3.566,0,0,0,1.141-.141.969.969,0,0,0,.565-.453,2.009,2.009,0,0,0,.193-.621,5.916,5.916,0,0,0,.059-.927v-.148h.531v2.832H77.442v-.542h.417a.993.993,0,0,0,.584-.118c.1-.078.142-.29.142-.631v-4.247c0-.336-.046-.546-.139-.624a.979.979,0,0,0-.585-.119h-.417v-.538Z" style="fill:#002768"/><path id="path4084" d="M84.392,106.15h3.354v.536H87.24a.982.982,0,0,0-.587.119c-.093.08-.139.287-.139.624v5h1.628a3.566,3.566,0,0,0,1.141-.141.972.972,0,0,0,.565-.453,1.983,1.983,0,0,0,.193-.621,5.916,5.916,0,0,0,.059-.927v-.148h.531v2.832H84.392v-.542h.417a1,1,0,0,0,.585-.118c.095-.078.142-.29.142-.631v-4.247c0-.336-.047-.546-.14-.624a.98.98,0,0,0-.587-.119h-.417Z" style="fill:#002768"/><path id="path4086" d="M91.358,112.969v-.542h.461a.974.974,0,0,0,.58-.118c.093-.078.14-.29.14-.631v-4.247c0-.336-.047-.546-.14-.624a.964.964,0,0,0-.58-.119h-.461v-.535h3.364v.535h-.458a.955.955,0,0,0-.582.119c-.091.08-.135.288-.135.624v4.247c0,.341.046.55.139.631a.958.958,0,0,0,.58.118h.458v.542Z" style="fill:#002768"/><path id="path4088" d="M102.15,113h-.863l-4.177-5.924v4.605c0,.341.046.55.139.631a.958.958,0,0,0,.58.118h.511v.542H95.308v-.542h.4a.981.981,0,0,0,.582-.118c.095-.078.142-.29.142-.631v-4.236c0-.341-.047-.553-.142-.633a.958.958,0,0,0-.582-.121h-.4v-.535H97.6l3.87,5.478v-4.187c0-.341-.046-.553-.139-.633a.947.947,0,0,0-.58-.121h-.542v-.535h3v.535h-.337a.943.943,0,0,0-.58.121c-.093.08-.14.292-.14.633V113h0Z" style="fill:#002768"/><path id="path4090" d="M104.983,109.555a3.34,3.34,0,0,0,.7,2.218,2.489,2.489,0,0,0,3.707,0,3.874,3.874,0,0,0,0-4.431,2.5,2.5,0,0,0-3.709,0A3.322,3.322,0,0,0,104.983,109.555Zm-1.105,0a3.736,3.736,0,0,1,.288-1.476,3.5,3.5,0,0,1,.838-1.2,3.383,3.383,0,0,1,1.139-.69,4.087,4.087,0,0,1,2.782,0,3.383,3.383,0,0,1,1.139.69,3.458,3.458,0,0,1,.84,1.2,3.972,3.972,0,0,1,0,2.96,3.473,3.473,0,0,1-.84,1.2,3.363,3.363,0,0,1-1.139.69,4.087,4.087,0,0,1-2.782,0,3.383,3.383,0,0,1-1.139-.69,3.473,3.473,0,0,1-.838-1.2A3.775,3.775,0,0,1,103.878,109.555Z" style="fill:#002768"/><path id="path4092" d="M111.9,112.969v-.542h.462a.974.974,0,0,0,.58-.118c.093-.078.14-.29.14-.631v-4.247c0-.336-.047-.546-.14-.624a.964.964,0,0,0-.58-.119H111.9v-.535h3.364v.535h-.457a.955.955,0,0,0-.582.119q-.137.12-.136.624v4.247c0,.341.047.55.14.631a.958.958,0,0,0,.58.118h.457v.542Z" style="fill:#002768"/><path id="path4094" d="M116,112.969v-2.824h.561a2.882,2.882,0,0,0,.834,1.749,2.378,2.378,0,0,0,1.7.637,1.868,1.868,0,0,0,1.186-.351,1.124,1.124,0,0,0,.447-.927.936.936,0,0,0-.337-.767,3.134,3.134,0,0,0-1.236-.474l-.843-.184a4.229,4.229,0,0,1-1.829-.735,1.837,1.837,0,0,1,.2-2.631,2.86,2.86,0,0,1,1.8-.513,2.976,2.976,0,0,1,1.059.187,3.417,3.417,0,0,1,.97.573l.3-.616h.476v2.581h-.55a2.557,2.557,0,0,0-.707-1.584,2.138,2.138,0,0,0-1.535-.55,1.982,1.982,0,0,0-1.177.3.988.988,0,0,0-.421.851.846.846,0,0,0,.334.692,2.477,2.477,0,0,0,1.05.4l.983.2a4.136,4.136,0,0,1,1.85.73,1.646,1.646,0,0,1,.542,1.315,1.924,1.924,0,0,1-.7,1.541,2.733,2.733,0,0,1-1.829.593,3.109,3.109,0,0,1-1.209-.233,3.43,3.43,0,0,1-1.058-.724l-.333.754H116Z" style="fill:#002768"/></g><g id="seal"><g id="water"><path id="path25" d="M112.031,77.983s2.808,5.484,3.7,5.486,3.614.261,4.58.269a21.192,21.192,0,0,1,4.023-.226,8.19,8.19,0,0,0,3.35,0,17.156,17.156,0,0,1,4.064.3,33.772,33.772,0,0,0,3.807-5.719l-23.493-.113" style="fill:#64b4ff"/><path id="path27" d="M115.966,83.4c.894,0,3.687.371,4.653.376a21.275,21.275,0,0,1,4.023-.226,8.2,8.2,0,0,0,3.351,0c.878-.2,2.695.263,3.664.191" style="fill:none;stroke:#3c3c9e;stroke-width:0.192515px"/><path id="path29" d="M62.959,80.285l2.123,3.157c-1.041.316-4.083-.316-5.032.035a27.357,27.357,0,0,1-2.612-3.2l5.521,0Z" style="fill:#64b4ff"/><path id="path31" d="M62.618,80.32l-5.158,0m7.354,3.122c-1.042.317-3.577-.208-4.525.143" style="fill:none;stroke:#000;stroke-width:0.192515px"/><g id="g33"><path id="path35" d="M114.814,79.248a3.126,3.126,0,0,1,2.011.075m6.183,1.875a3.126,3.126,0,0,1,2.011.075m3.355-1.9a3.137,3.137,0,0,1,2.01.075" style="fill:none;stroke:#3c3c9e;stroke-width:0.35896000000000006px"/><path id="path37" d="M120.885,79.848a3.181,3.181,0,0,1,2.013.075" style="fill:none;stroke:#3c3c9e;stroke-width:0.35896000000000006px"/><path id="path39" d="M117.121,79.738a3.129,3.129,0,0,1,2.012.075" style="fill:none;stroke:#3c3c9e;stroke-width:0.35896000000000006px"/><path id="path41" d="M126.768,82.661a3.127,3.127,0,0,1,2.013.076m1.154-.6a3.129,3.129,0,0,1,2.013.078m-4.693-.831a3.163,3.163,0,0,1,2.013.078m-.374-1.235a3.16,3.16,0,0,1,2.012.078" style="fill:none;stroke:#3c3c9e;stroke-width:0.35896000000000006px"/><path id="path43" d="M119.618,81.758a3.123,3.123,0,0,1,2.01.075m-5.253.778a3.142,3.142,0,0,1,2.013.083" style="fill:none;stroke:#3c3c9e;stroke-width:0.35896000000000006px"/></g><g id="g45"><path id="path47" d="M122.788,81.223a1.742,1.742,0,0,1,2.414.1" style="fill:#3c3c9e;stroke:#fff;stroke-width:0.286767px"/><path id="path49" d="M127.021,81.379a1.738,1.738,0,0,1,2.415.095" style="fill:#3c3c9e;stroke:#fff;stroke-width:0.286767px"/><path id="path51" d="M128.69,80.212a1.746,1.746,0,0,1,2.415.095" style="fill:#3c3c9e;stroke:#fff;stroke-width:0.286767px"/><path id="path53" d="M128.183,79.371a1.749,1.749,0,0,1,2.415.1" style="fill:#3c3c9e;stroke:#fff;stroke-width:0.286767px"/><path id="path55" d="M116.948,79.728a1.748,1.748,0,0,1,2.414.09" style="fill:#3c3c9e;stroke:#fff;stroke-width:0.286767px"/><path id="path57" d="M119.447,81.738a1.743,1.743,0,0,1,2.414.09" style="fill:#3c3c9e;stroke:#fff;stroke-width:0.286767px"/><path id="path59" d="M116.17,82.6a1.742,1.742,0,0,1,2.414.095" style="fill:#3c3c9e;stroke:#fff;stroke-width:0.286767px"/><path id="path61" d="M129.729,82.162a1.745,1.745,0,0,1,2.415.088" style="fill:#3c3c9e;stroke:#fff;stroke-width:0.286767px"/><path id="path63" d="M120.672,79.906a1.745,1.745,0,0,1,2.414.095" style="fill:#3c3c9e;stroke:#fff;stroke-width:0.286767px"/><path id="path65" d="M114.624,79.248a1.746,1.746,0,0,1,2.414.088" style="fill:#3c3c9e;stroke:#fff;stroke-width:0.286767px"/><path id="path67" d="M119.121,80.9a1.748,1.748,0,0,1,2.414.095" style="fill:#3c3c9e;stroke:#fff;stroke-width:0.286767px"/><path id="path69" d="M125.144,80.453a1.74,1.74,0,0,1,2.414.09" style="fill:#3c3c9e;stroke:#fff;stroke-width:0.286767px"/><path id="path71" d="M126.57,82.666a1.752,1.752,0,0,1,2.417.088" style="fill:#3c3c9e;stroke:#fff;stroke-width:0.286767px"/><path id="path73" d="M125.292,79.163a1.357,1.357,0,0,1,2.086.093" style="fill:#3c3c9e;stroke:#fff;stroke-width:0.286767px"/><path id="path75" d="M118.112,79.1a1.556,1.556,0,0,1,2.261.1" style="fill:#3c3c9e;stroke:#fff;stroke-width:0.286767px"/><path id="path77" d="M131.343,79.226a1.361,1.361,0,0,1,2.086.092" style="fill:#3c3c9e;stroke:#fff;stroke-width:0.286767px"/><path id="path79" d="M123.889,82.215a1.354,1.354,0,0,1,2.086.092" style="fill:#3c3c9e;stroke:#fff;stroke-width:0.286767px"/><path id="path81" d="M123.3,79.524a1.351,1.351,0,0,1,2.085.093" style="fill:#3c3c9e;stroke:#fff;stroke-width:0.286767px"/><path id="path83" d="M121.229,79.148c.1-.284.55-1.032,1.3.105" style="fill:#3c3c9e;stroke:#fff;stroke-width:0.286767px"/><path id="path85" d="M116.024,80.621a1.357,1.357,0,0,1,2.085.093" style="fill:#3c3c9e;stroke:#fff;stroke-width:0.286767px"/><path id="path87" d="M119.3,82.935a1.38,1.38,0,0,1,2.085.088" style="fill:#3c3c9e;stroke:#fff;stroke-width:0.286767px"/><path id="path89" d="M116.649,81.582a1.385,1.385,0,0,1,2.085.093" style="fill:#3c3c9e;stroke:#fff;stroke-width:0.286767px"/><path id="path91" d="M129.94,81.05a1.386,1.386,0,0,1,2.086.093" style="fill:#3c3c9e;stroke:#fff;stroke-width:0.286767px"/><path id="path93" d="M130.834,80.064a1.385,1.385,0,0,1,2.088.093" style="fill:#3c3c9e;stroke:#fff;stroke-width:0.286767px"/><path id="path95" d="M122.261,83.023a1.352,1.352,0,0,1,2.085.093" style="fill:#3c3c9e;stroke:#fff;stroke-width:0.286767px"/><path id="path97" d="M60.12,81.3a1.747,1.747,0,0,1,2.415.095" style="fill:#3c3c9e;stroke:#fff;stroke-width:0.286767px"/><path id="path99" d="M61.624,82.644a1.352,1.352,0,0,1,2.085.093" style="fill:#3c3c9e;stroke:#fff;stroke-width:0.286767px"/></g></g><g id="rock"><path id="path102" d="M91.933,75.326l.655-2.119.51-.657,3.857.512,5.677,1.242,3.022.555,4.839,8.206,4.949.364-4.5,5.223-15,0-2.785-1.474-4.144-3.772L94.887,78.7l-2.954-3.37Z" style="fill:#b4b4b4"/><path id="path104" d="M102.487,74.194c.931-.158,4.919-.47,6.108,1.817,0,0-.055,0-.522.015.615.04,3.26-.708,4.337,2.472a1.758,1.758,0,0,0-.728-.113s2.573-.269,4.058,4.753c.259.931-3.315-.339-5.252.3m5.232-.088c.8.294.951,1.659,1.361,2.079s1.34.971,1.264,1.679a3.089,3.089,0,0,1-2.2,1.947c-1,.223-3.762-.489-4.8-.381s-4.136,1.049-5.85,1.008-3.461-.788-4.914-.75-3.988.221-4.728-.268m-1.421-1.085a3.034,3.034,0,0,1,2.053-3.812,14.06,14.06,0,0,1,1.6-.391,2.4,2.4,0,0,1,1.438-.209c.409.151.8,1.052,2.213,1.238m.788-6.586c-.484-.04-.856-.9-2.01-.75a3.961,3.961,0,0,0-3.132,2.843c-.264,1.536-.284,2.151.8,3.346" style="fill:#b4b4b4;stroke:#000;stroke-width:0.214574px"/><g id="years"><path id="path107" d="M101.4,79.715V81.76c0,.126.063.209.191.209h.268v.364H100.18v-.364h.284c.13,0,.191-.083.191-.209V80.425h-.465v-.364h.108a.521.521,0,0,0,.545-.346h.557"/><path id="path109" d="M104.68,80.305c0,.278-.208.406-.444.492a.769.769,0,0,1,.582.753c0,.66-.59.845-1.212.845-.472,0-1.167-.095-1.167-.712a.641.641,0,0,1,.5-.645.658.658,0,0,1-.4-.558c0-.665.565-.83,1.127-.83C104.075,79.65,104.68,79.78,104.68,80.305Zm-1.41.913a.492.492,0,0,0-.314.394c0,.374.354.467.665.467.228,0,.53-.08.53-.356,0-.123-.073-.214-.382-.324Zm.733-.637a.3.3,0,0,0,.16-.279c0-.268-.288-.334-.5-.334-.2,0-.46.051-.46.294a.212.212,0,0,0,.161.206l.532.186.111-.073"/><path id="path111" d="M105.885,80.927a.969.969,0,0,1,.66-.2.805.805,0,0,1,.888.791c0,.617-.544.873-1.1.873a1.121,1.121,0,0,1-1.245-1.257c0-.886.409-1.488,1.35-1.488.339,0,.883.17.883.549,0,.269-.155.377-.426.377a.315.315,0,0,1-.337-.286.255.255,0,0,1,.169-.254.391.391,0,0,0-.221-.065c-.445,0-.625.321-.625.718v.238Zm.047.64c0,.331.133.484.354.484s.354-.153.354-.484-.133-.489-.354-.489-.354.153-.354.489"/><path id="path113" d="M109.945,80.305c0,.278-.208.406-.444.492a.769.769,0,0,1,.582.753c0,.66-.592.845-1.212.845-.472,0-1.169-.095-1.169-.712a.64.64,0,0,1,.5-.645.659.659,0,0,1-.407-.558c0-.665.567-.83,1.127-.83C109.343,79.65,109.945,79.78,109.945,80.305Zm-1.41.913a.492.492,0,0,0-.314.394c0,.374.354.467.665.467.231,0,.53-.08.53-.356,0-.123-.073-.214-.384-.324Zm.735-.637a.3.3,0,0,0,.161-.279c0-.268-.289-.334-.507-.334-.2,0-.457.051-.457.294a.212.212,0,0,0,.161.206l.532.186.11-.073"/><path id="path115" d="M105.4,84.657V86.7a.183.183,0,0,0,.191.209h.268v.361h-1.676v-.361h.286a.184.184,0,0,0,.191-.209V85.367H104.2V85h.108a.525.525,0,0,0,.545-.346h.557"/><path id="path117" d="M108.683,85.244c0,.281-.206.411-.444.492a.774.774,0,0,1,.582.753c0,.662-.592.848-1.212.848-.472,0-1.17-.1-1.17-.715a.635.635,0,0,1,.5-.64.663.663,0,0,1-.406-.557c0-.666.567-.834,1.127-.834.416,0,1.021.131,1.021.653Zm-1.41.913a.49.49,0,0,0-.314.394c0,.374.354.467.665.467.228,0,.53-.08.53-.356,0-.123-.073-.211-.384-.324l-.5-.181Zm.732-.632a.292.292,0,0,0,.159-.281c0-.266-.289-.331-.5-.331-.2,0-.457.045-.457.293a.205.205,0,0,0,.161.2l.532.186.11-.068"/><path id="path119" d="M110.668,84.657V86.7a.183.183,0,0,0,.191.209h.266v.361h-1.676v-.361h.286a.183.183,0,0,0,.19-.209V85.367h-.464V85h.108a.517.517,0,0,0,.54-.346h.562"/><path id="path121" d="M113.948,85.244c0,.281-.2.411-.444.492a.774.774,0,0,1,.582.753c0,.662-.592.848-1.212.848-.469,0-1.167-.1-1.167-.715a.635.635,0,0,1,.5-.64.662.662,0,0,1-.406-.557c0-.666.567-.834,1.126-.834.417,0,1.019.131,1.019.653Zm-1.41.913a.492.492,0,0,0-.314.394c0,.374.354.467.665.467.229,0,.53-.08.53-.356,0-.123-.073-.211-.384-.324l-.5-.181Zm.733-.632a.289.289,0,0,0,.16-.281c0-.266-.288-.331-.5-.331-.2,0-.457.045-.457.293a.2.2,0,0,0,.161.2l.529.186.111-.068"/></g></g><g id="shield"><path id="path124" d="M89.456,69.925c.557,1.731,4.146,6.7,8.98,6.583-.264,1.405-7.16,15.545-25.632,16.543-5.21-17.6,4.395-28.635,7.675-29.7,1.1,4.465,7.2,6.488,8.975,6.576Z" style="fill:#ffb30f;stroke:#000;stroke-width:0.238638px"/><path id="path126" d="M88.967,70.7c.509,1.581,2.269,8.859,5.192,11.254-1.141,1.207-8.5,9.4-20.4,9.873a27.875,27.875,0,0,1,2.662-23.494c3.78,2.761,10.92,2.287,12.546,2.367" style="fill:#fff"/><path id="path128" d="M79.942,64.536c1.94,4.2,7.123,5.682,9,6.1.635,3.163,6.884,7,8.275,6.689-.244,1.719-3.519,5.293-4.608,6.249-.018-.02-17.462-12.782-17.457-12.787.486-1.476,3.691-6.222,4.788-6.247" style="fill:#002768"/><g id="g130"><path id="path132" d="M90.909,83.68c.01,0,.932.673.942.668-.758.615-2.7,2.1-3.138,2.4,0,0,2.206-3.067,2.2-3.065" style="fill:#be0a2f"/><path id="path134" d="M74.687,71.8l1.383,1.019-3.193,4.468a24.3,24.3,0,0,1,1.81-5.487" style="fill:#be0a2f"/><path id="path136" d="M77.1,73.569l1.742,1.265-6.51,9.095a16.466,16.466,0,0,1,.052-3.765L77.1,73.569" style="fill:#be0a2f"/><path id="path138" d="M79.859,75.574l1.729,1.282L72.95,88.926a27.252,27.252,0,0,1-.5-3.012l7.406-10.34" style="fill:#be0a2f"/><path id="path140" d="M85.391,79.622,87.12,80.9l-7.138,9.933a20.79,20.79,0,0,1-3.144.753l8.553-11.959" style="fill:#be0a2f"/><path id="path142" d="M82.66,77.629l1.7,1.253L75.174,91.7a5.007,5.007,0,0,1-1.4.106c-.08-.377-.308-.979-.391-1.233L82.66,77.629" style="fill:#be0a2f"/><path id="path144" d="M88.156,81.652l1.734,1.265-3.92,5.436a42.741,42.741,0,0,1-3.932,1.868l6.118-8.569" style="fill:#be0a2f"/></g><path id="star" d="M79.292,68.268l-.464,1.622-.618-1.649,1.433,1.049L77.9,69.214Z" style="fill:#fff"/><g id="use147"><path id="star-2" data-name="star" d="M82.118,68.065l-.464,1.621-.618-1.649,1.433,1.049-1.739-.075Z" style="fill:#fff"/></g><g id="use149"><path id="star-3" data-name="star" d="M79.869,71.011l-.464,1.622-.617-1.649,1.433,1.049-1.74-.076Z" style="fill:#fff"/></g><g id="use151"><path id="star-4" data-name="star" d="M82.806,70.843l-.465,1.621-.617-1.648,1.433,1.049-1.739-.076Z" style="fill:#fff"/></g><g id="use153"><path id="star-5" data-name="star" d="M85.91,70.79l-.464,1.622-.618-1.649,1.433,1.049-1.739-.075Z" style="fill:#fff"/></g><g id="use155"><path id="star-6" data-name="star" d="M89.742,73.589l-.464,1.621-.617-1.649,1.433,1.049-1.739-.075Z" style="fill:#fff"/></g><g id="use157"><path id="star-7" data-name="star" d="M86.761,73.707,86.3,75.328l-.618-1.649,1.433,1.049-1.739-.075Z" style="fill:#fff"/></g><g id="use159"><path id="star-8" data-name="star" d="M83.749,73.8l-.464,1.621-.617-1.649L84.1,74.821l-1.74-.075Z" style="fill:#fff"/></g><g id="use161"><path id="star-9" data-name="star" d="M87.526,76.615l-.464,1.622-.617-1.649,1.433,1.049-1.74-.075Z" style="fill:#fff"/></g><g id="use163"><path id="star-10" data-name="star" d="M90.45,76.375,89.986,78l-.618-1.649L90.8,77.4l-1.74-.075Z" style="fill:#fff"/></g><g id="use165"><path id="star-11" data-name="star" d="M93.113,76.106l-.464,1.621-.618-1.649,1.433,1.049-1.739-.075Z" style="fill:#fff"/></g><g id="use167"><path id="star-12" data-name="star" d="M90.952,79.123l-.464,1.621L89.87,79.1,91.3,80.144l-1.739-.075Z" style="fill:#fff"/></g><g id="use169"><path id="star-13" data-name="star" d="M93.8,78.882,93.336,80.5l-.617-1.649L94.152,79.9l-1.739-.075Z" style="fill:#fff"/></g></g><g id="sun"><path id="path172" d="M114.827,77.9l17.909.025-13.123-5.935-4.786,5.91Z" style="fill:#ffe60f;stroke:#fff;stroke-width:0.050134px"/><path id="path174" d="M120.127,75.471s-3.112-1.538-3.446-1.684a3.535,3.535,0,0,0-1.116-.115s.07.685.371.823,3.968,1.463,3.968,1.463m.484-.954s-2.462-1.478-3.034-1.777a2.657,2.657,0,0,0-1.34-.2s.361.65.67.79,3.446,1.662,3.446,1.662m11.695,2.291s1.82-.251,2.324-.334,1.383-1.232,1.383-1.232a3.188,3.188,0,0,0-1.493-.454c-.522.09-5.14,1.453-5.14,1.453s5.084-1.323,5.546-1.486,1.047-1.127,1.047-1.127a2.537,2.537,0,0,0-1.19-.11c-.414.138-5.629,1.937-5.629,1.937s5.795-1.927,6.259-2.161a4.138,4.138,0,0,0,1.044-1.234,2.543,2.543,0,0,0-1.042-.041c-.15.078-2.474,1.155-4.263,2.126,1.581-.773,3.518-1.724,3.927-1.942a11.908,11.908,0,0,0,2.126-2.244,7.32,7.32,0,0,0-1.749.414c-.4.238-6.616,4.259-6.616,4.259s6.754-4.274,7.3-4.63a5.657,5.657,0,0,0,1.172-1.873,3.9,3.9,0,0,0-1.5.372c-.42.311-7.324,5.476-7.324,5.476s7.406-5.539,7.886-5.925a5.586,5.586,0,0,0,.948-1.85,3.138,3.138,0,0,0-1.523.266c-.439.321-7.6,7.173-7.6,7.173s7.837-7.462,8.462-8.016a7.782,7.782,0,0,0,1.27-2.169,3.726,3.726,0,0,0-1.548.635c-.369.417-8.448,9.346-8.448,9.346s9.135-10.176,9.585-10.653a5.6,5.6,0,0,0,.747-1.91,5.89,5.89,0,0,0-1.568.959c-.464.489-9.1,11.306-9.1,11.306l8.841-11.03a5.228,5.228,0,0,0,.743-1.87,4.178,4.178,0,0,0-1.618,1.029c-.477.622-8.242,11.63-8.242,11.63s6.485-9.243,6.7-9.514a3.258,3.258,0,0,0,.223-1.235,1.912,1.912,0,0,0-.838.484c-.224.334-6.305,10.077-6.305,10.077s6.578-10.5,6.809-10.9a2.373,2.373,0,0,0,.148-1.154,1.774,1.774,0,0,0-.8.446c-.251.309-6.418,11.477-6.418,11.477s6.746-12.119,6.96-12.488a4.89,4.89,0,0,0,.223-1.534,3.034,3.034,0,0,0-1.154.658c-.324.394-6.25,13.276-6.25,13.276s6.443-13.673,6.809-14.493a7.529,7.529,0,0,0,.449-2.131,2.042,2.042,0,0,0-1.1.637c-.258.41-6.553,15.739-6.553,15.739l6.947-16.86.224-1.684s-1.361.9-1.566,1.531c-.1.316-2.641,7.554-3.961,11.755,1.393-4.176,3.848-11.381,3.925-11.567a3.254,3.254,0,0,0-.017-1.268,4.5,4.5,0,0,0-1.1,1.343c-.07.249-1.814,6.259-2.856,10.119.8-2.69,2.111-7.429,2.184-7.652a3.507,3.507,0,0,0-.146-1.6,5.1,5.1,0,0,0-.745,1.566c-.148.64-2.184,9.4-3,12.9.794-3.245,2.626-11.364,2.774-11.921a3.473,3.473,0,0,0-.407-1.8,2.491,2.491,0,0,0-.71,1.042c-.043.331-1.127,7.418-1.734,11.391.672-4.07,1.671-11.492,1.734-11.948a4.667,4.667,0,0,0-.482-1.837s-.58.486-.6.81-1.446,15.535-1.446,15.535,1.5-15.971,1.561-16.569a3.936,3.936,0,0,0-.484-1.608,1.44,1.44,0,0,0-.447.745c-.02.238-.356,7.291-.595,12.348.316-5.258.6-12.82.633-13.322a2.563,2.563,0,0,0-.52-1.491,2.1,2.1,0,0,0-.411,1.2c-.051.927-.169,18.668-.169,18.668s.181-18.931.171-19.528a5.316,5.316,0,0,0-.816-1.8,3.723,3.723,0,0,0-.6,1.835c.033.685.911,19.49.911,19.49s-.72-16.742-.838-17.62a2.822,2.822,0,0,0-1.042-1.572,5.84,5.84,0,0,0-.261,2.091c.078,1.119,1.411,12.315,1.411,12.315C122.735,63.9,122.04,58.154,122,57.8a5.266,5.266,0,0,0-1.1-1.721,16.229,16.229,0,0,0,.093,2.713c.105.547,2.593,14.267,2.593,14.267s-2.332-12.93-2.485-13.688a2.525,2.525,0,0,0-.888-1.312,8.169,8.169,0,0,0,.07,2.469c.115.555,2.966,12.534,2.966,12.534-.2-1.012-2.818-11.921-2.964-12.534a3.216,3.216,0,0,0-.667-1.2,5.921,5.921,0,0,0,0,1.719c.158.5,3.378,12.125,3.378,12.125s-3.481-12.238-3.9-13.4a6.188,6.188,0,0,0-1.242-1.684,6.238,6.238,0,0,0,.183,1.7c.146.349,2.64,7.168,4.078,10.927-1.533-4.111-4.447-11.946-4.577-12.325a8.68,8.68,0,0,0-1.561-1.8,2.416,2.416,0,0,0-.038,1.232c.186.41,6.764,15.433,6.764,15.433s-6.149-14.047-6.578-15.023a4.982,4.982,0,0,0-1.935-1.76,9.39,9.39,0,0,0,.517,2.66c.4.766,7.659,14.3,7.659,14.3s-6.741-12.629-6.989-13.063a5.55,5.55,0,0,0-1.564-1.087,7.917,7.917,0,0,0,.668,2.136c.291.444,6.61,10.325,6.61,10.325-2.015-3.21-5.89-9.339-6.163-9.615a10.089,10.089,0,0,0-1.694-1.031,15.058,15.058,0,0,0,1.207,2.617c.459.58,7.554,9.886,7.554,9.886s-7.037-9.306-7.406-9.673a4.067,4.067,0,0,0-1.488-.69,12.908,12.908,0,0,0,1.227,2.244c.522.612,7.067,8.4,7.067,8.4s-5.978-7.208-6.545-7.788a3.277,3.277,0,0,0-1.639-.712,10.352,10.352,0,0,0,1.6,2.472c.911.943,6.251,6.307,6.251,6.307" style="fill:#ffe60f;stroke:#fff;stroke-width:0.050134px"/><path id="path176" d="M119.7,76.48s-4.7-.959-5.308-1.067a15.188,15.188,0,0,0-2.663.163,11.1,11.1,0,0,0,2.9,1.09c.946.062,4.878.4,4.878.4" style="fill:#ffe60f;stroke:#fff;stroke-width:0.050134px"/><path id="path178" d="M121.036,74.146s-4.605-4.889-5.133-5.258a3.991,3.991,0,0,0-1.754-.376s.116,1.134.708,1.531,5.865,4.442,5.865,4.442-2.851-2.234-3.348-2.6a2.707,2.707,0,0,0-1.6-.188,8.514,8.514,0,0,0,1.361,1.458c.552.379,3.26,1.855,3.26,1.855m-.49.951s-3.734-1.393-4.412-1.614a14.988,14.988,0,0,0-2.943-.11,7.493,7.493,0,0,0,1.842,1.177c.589.128,5.308,1.066,5.308,1.066m-.189.583s-4.878-.5-5.323-.434a14.721,14.721,0,0,0-1.9.67,14.788,14.788,0,0,0,1.973.379c.532.01,5.215-.259,5.215-.259" style="fill:#ffe60f;stroke:#fff;stroke-width:0.050134px"/><path id="path180" d="M127.546,77.913a3.254,3.254,0,1,0-6.508,0h6.508" style="fill:#ffb316"/></g><g id="grass"><path id="path183" d="M67.288,87a5.112,5.112,0,0,1-.278-1.581,5.8,5.8,0,0,1-.4,1.857" style="fill:#fff;stroke:#3f863f;stroke-width:0.20454699999999998px"/><path id="path185" d="M67.022,85.013a5.164,5.164,0,0,0,.5,2.168" style="fill:#fff;stroke:#fff;stroke-width:0.20454699999999998px"/><path id="path187" d="M72.82,94.723a4.106,4.106,0,0,1-.229-1.28,4.611,4.611,0,0,1-.324,1.5" style="fill:#fff;stroke:#3f863f;stroke-width:0.16444px"/><path id="path189" d="M72.6,93.112a4.279,4.279,0,0,0,.406,1.751" style="fill:#fff;stroke:#fff;stroke-width:0.16444px"/><path id="path191" d="M91.846,98.252a5.093,5.093,0,0,0,.23-1.592,5.746,5.746,0,0,0,.46,1.845" style="fill:#fff;stroke:#3f863f;stroke-width:0.20454699999999998px"/><path id="path193" d="M92.049,96.249a5.243,5.243,0,0,1-.432,2.188" style="fill:#fff;stroke:#fff;stroke-width:0.20454699999999998px"/><path id="path195" d="M101.849,97.787a5.041,5.041,0,0,0,.231-1.586,5.709,5.709,0,0,0,.459,1.845" style="fill:#fff;stroke:#3f863f;stroke-width:0.20454699999999998px"/><path id="path197" d="M102.052,95.79a5.285,5.285,0,0,1-.431,2.183" style="fill:#fff;stroke:#fff;stroke-width:0.20454699999999998px"/><path id="path199" d="M68.254,89.407a5.106,5.106,0,0,0,.229-1.588,5.846,5.846,0,0,0,.459,1.844" style="fill:#fff;stroke:#3f863f;stroke-width:0.20454699999999998px"/><path id="path201" d="M68.455,87.407a5.216,5.216,0,0,1-.434,2.191" style="fill:#fff;stroke:#fff;stroke-width:0.20454699999999998px"/><path id="path203" d="M83.242,97.554a5.129,5.129,0,0,0,.231-1.591,5.754,5.754,0,0,0,.459,1.849" style="fill:#fff;stroke:#3f863f;stroke-width:0.20454699999999998px"/><path id="path205" d="M83.446,95.549a5.307,5.307,0,0,1-.432,2.188" style="fill:#fff;stroke:#fff;stroke-width:0.20454699999999998px"/><path id="path207" d="M112.819,99.66a5.128,5.128,0,0,1-.279-1.582,5.724,5.724,0,0,1-.4,1.855" style="fill:#fff;stroke:#3f863f;stroke-width:0.20454699999999998px"/><path id="path209" d="M112.556,97.669a5.243,5.243,0,0,0,.5,2.164" style="fill:#fff;stroke:#fff;stroke-width:0.20454699999999998px"/><path id="path211" d="M86.947,99a4.538,4.538,0,0,1-.251-1.423,5.162,5.162,0,0,1-.362,1.669" style="fill:#fff;stroke:#3f863f;stroke-width:0.18248799999999998px"/><path id="path213" d="M86.708,97.213a4.674,4.674,0,0,0,.452,1.947" style="fill:#fff;stroke:#fff;stroke-width:0.18248799999999998px"/><path id="path215" d="M88.342,99.82a5.16,5.16,0,0,0,.231-1.591,5.682,5.682,0,0,0,.459,1.845" style="fill:#fff;stroke:#3f863f;stroke-width:0.20454699999999998px"/><path id="path217" d="M88.543,97.822a5.276,5.276,0,0,1-.429,2.184" style="fill:#fff;stroke:#fff;stroke-width:0.20454699999999998px"/><path id="path219" d="M90.842,99.1a4.921,4.921,0,0,1-.279-1.581,5.732,5.732,0,0,1-.4,1.857" style="fill:#fff;stroke:#3f863f;stroke-width:0.20454699999999998px"/><path id="path221" d="M90.578,97.11a5.246,5.246,0,0,0,.5,2.171" style="fill:#fff;stroke:#fff;stroke-width:0.20454699999999998px"/><path id="path223" d="M90.167,102.508a5.091,5.091,0,0,1-.279-1.581,5.7,5.7,0,0,1-.4,1.855" style="fill:#fff;stroke:#3f863f;stroke-width:0.20454699999999998px"/><path id="path225" d="M89.9,100.515a5.257,5.257,0,0,0,.5,2.166" style="fill:#fff;stroke:#fff;stroke-width:0.20454699999999998px"/><path id="path227" d="M97.269,97.511a4.644,4.644,0,0,1-.251-1.423,5.17,5.17,0,0,1-.359,1.674" style="fill:#fff;stroke:#3f863f;stroke-width:0.18248799999999998px"/><path id="path229" d="M97.031,95.719a4.72,4.72,0,0,0,.451,1.955" style="fill:#fff;stroke:#fff;stroke-width:0.18248799999999998px"/><path id="path231" d="M98.009,101.484a5.121,5.121,0,0,1-.278-1.581,5.733,5.733,0,0,1-.4,1.855" style="fill:#fff;stroke:#3f863f;stroke-width:0.20454699999999998px"/><path id="path233" d="M97.746,99.491a5.217,5.217,0,0,0,.5,2.164" style="fill:#fff;stroke:#fff;stroke-width:0.20454699999999998px"/><path id="path235" d="M95.477,100.478a5.041,5.041,0,0,0,.231-1.586,5.76,5.76,0,0,0,.459,1.844" style="fill:#fff;stroke:#3f863f;stroke-width:0.20454699999999998px"/><path id="path237" d="M95.678,98.477a5.236,5.236,0,0,1-.432,2.184" style="fill:#fff;stroke:#fff;stroke-width:0.20454699999999998px"/><path id="path239" d="M93.612,102.664a5.057,5.057,0,0,0,.226-1.587,5.773,5.773,0,0,0,.462,1.84" style="fill:#fff;stroke:#3f863f;stroke-width:0.20454699999999998px"/><path id="path241" d="M93.813,100.666a5.2,5.2,0,0,1-.432,2.183" style="fill:#fff;stroke:#fff;stroke-width:0.20454699999999998px"/><path id="path243" d="M93.934,97.453a4.069,4.069,0,0,0,.185-1.287,4.714,4.714,0,0,0,.374,1.493" style="fill:#fff;stroke:#3f863f;stroke-width:0.16444px"/><path id="path245" d="M94.1,95.83a4.24,4.24,0,0,1-.351,1.772" style="fill:#fff;stroke:#fff;stroke-width:0.16444px"/><path id="path247" d="M101.267,102.435a4.162,4.162,0,0,0,.188-1.287,4.616,4.616,0,0,0,.372,1.493" style="fill:#fff;stroke:#3f863f;stroke-width:0.16444px"/><path id="path249" d="M101.433,100.811a4.256,4.256,0,0,1-.349,1.767" style="fill:#fff;stroke:#fff;stroke-width:0.16444px"/><path id="path251" d="M99.633,97.323a4.117,4.117,0,0,0,.186-1.287,4.59,4.59,0,0,0,.374,1.493" style="fill:#fff;stroke:#3f863f;stroke-width:0.16444px"/><path id="path253" d="M99.8,95.7a4.224,4.224,0,0,1-.352,1.77" style="fill:#fff;stroke:#fff;stroke-width:0.16444px"/><path id="path255" d="M96.089,103.08a5.041,5.041,0,0,0,.231-1.586,5.775,5.775,0,0,0,.46,1.845" style="fill:#fff;stroke:#3f863f;stroke-width:0.20454699999999998px"/><path id="path257" d="M96.29,101.08a5.285,5.285,0,0,1-.431,2.183" style="fill:#fff;stroke:#fff;stroke-width:0.20454699999999998px"/><path id="path259" d="M99.254,103.228a5.017,5.017,0,0,0,.229-1.586,5.763,5.763,0,0,0,.461,1.84" style="fill:#fff;stroke:#3f863f;stroke-width:0.20454699999999998px"/><path id="path261" d="M99.457,101.231a5.252,5.252,0,0,1-.431,2.183" style="fill:#fff;stroke:#fff;stroke-width:0.20454699999999998px"/><path id="path263" d="M91.994,102.207a5.03,5.03,0,0,1-.279-1.581,5.714,5.714,0,0,1-.4,1.857" style="fill:#fff;stroke:#3f863f;stroke-width:0.20454699999999998px"/><path id="path265" d="M91.728,100.214a5.172,5.172,0,0,0,.5,2.166" style="fill:#fff;stroke:#fff;stroke-width:0.20454699999999998px"/><path id="path267" d="M92.794,100.124a5.125,5.125,0,0,0,.229-1.591,5.771,5.771,0,0,0,.461,1.842" style="fill:#fff;stroke:#3f863f;stroke-width:0.20454699999999998px"/><path id="path269" d="M93,98.121a5.208,5.208,0,0,1-.432,2.186" style="fill:#fff;stroke:#fff;stroke-width:0.20454699999999998px"/><path id="path271" d="M87.672,101.532a5.091,5.091,0,0,1-.279-1.581,5.757,5.757,0,0,1-.4,1.857" style="fill:#fff;stroke:#3f863f;stroke-width:0.20454699999999998px"/><path id="path273" d="M87.408,99.537a5.2,5.2,0,0,0,.5,2.17" style="fill:#fff;stroke:#fff;stroke-width:0.20454699999999998px"/><path id="path275" d="M85.325,100.638a5.058,5.058,0,0,0,.226-1.586,5.849,5.849,0,0,0,.459,1.845" style="fill:#fff;stroke:#3f863f;stroke-width:0.20454699999999998px"/><path id="path277" d="M85.526,98.638a5.255,5.255,0,0,1-.432,2.189" style="fill:#fff;stroke:#fff;stroke-width:0.20454699999999998px"/><path id="path279" d="M77.99,98.184a5.072,5.072,0,0,0,.225-1.586,5.826,5.826,0,0,0,.46,1.844" style="fill:#fff;stroke:#3f863f;stroke-width:0.20454699999999998px"/><path id="path281" d="M78.19,96.186a5.214,5.214,0,0,1-.431,2.184" style="fill:#fff;stroke:#fff;stroke-width:0.20454699999999998px"/><path id="path283" d="M80.65,99.378a5.087,5.087,0,0,1-.279-1.581,5.738,5.738,0,0,1-.4,1.855" style="fill:#fff;stroke:#3f863f;stroke-width:0.20454699999999998px"/><path id="path285" d="M80.386,97.388a5.272,5.272,0,0,0,.5,2.166" style="fill:#fff;stroke:#fff;stroke-width:0.20454699999999998px"/><path id="path287" d="M81.731,99.833a5.139,5.139,0,0,0,.231-1.591,5.79,5.79,0,0,0,.457,1.849" style="fill:#fff;stroke:#3f863f;stroke-width:0.20454699999999998px"/><path id="path289" d="M81.932,97.835a5.221,5.221,0,0,1-.431,2.183" style="fill:#fff;stroke:#fff;stroke-width:0.20454699999999998px"/><path id="path291" d="M84.407,100.119a4.2,4.2,0,0,1-.226-1.283,4.617,4.617,0,0,1-.324,1.5" style="fill:#fff;stroke:#3f863f;stroke-width:0.16444px"/><path id="path293" d="M84.193,98.5a4.242,4.242,0,0,0,.405,1.759" style="fill:#fff;stroke:#fff;stroke-width:0.16444px"/><path id="path295" d="M85.589,98.164a5.03,5.03,0,0,1-.279-1.581,5.817,5.817,0,0,1-.4,1.857" style="fill:#fff;stroke:#3f863f;stroke-width:0.20454699999999998px"/><path id="path297" d="M85.325,96.171a5.154,5.154,0,0,0,.5,2.166" style="fill:#fff;stroke:#fff;stroke-width:0.20454699999999998px"/><path id="path299" d="M80.542,95.737a5.041,5.041,0,0,0,.231-1.586A5.678,5.678,0,0,0,81.232,96" style="fill:#fff;stroke:#3f863f;stroke-width:0.20454699999999998px"/><path id="path301" d="M80.745,93.737a5.267,5.267,0,0,1-.432,2.183" style="fill:#fff;stroke:#fff;stroke-width:0.20454699999999998px"/><path id="path303" d="M76.371,97.228a5.093,5.093,0,0,1-.279-1.587,5.724,5.724,0,0,1-.4,1.855" style="fill:#fff;stroke:#3f863f;stroke-width:0.20454699999999998px"/><path id="path305" d="M76.105,95.227a5.145,5.145,0,0,0,.5,2.171" style="fill:#fff;stroke:#fff;stroke-width:0.20454699999999998px"/><path id="path307" d="M73.763,95.621a5.153,5.153,0,0,0,.231-1.591,5.709,5.709,0,0,0,.459,1.845" style="fill:#fff;stroke:#3f863f;stroke-width:0.20454699999999998px"/><path id="path309" d="M73.961,93.621a5.245,5.245,0,0,1-.429,2.184" style="fill:#fff;stroke:#fff;stroke-width:0.20454699999999998px"/><path id="path311" d="M77.227,95.5a5.1,5.1,0,0,1-.279-1.581,5.705,5.705,0,0,1-.4,1.855" style="fill:#fff;stroke:#3f863f;stroke-width:0.20454699999999998px"/><path id="path313" d="M76.963,93.511a5.158,5.158,0,0,0,.5,2.166" style="fill:#fff;stroke:#fff;stroke-width:0.20454699999999998px"/><path id="path315" d="M79.021,95.31a4.134,4.134,0,0,0,.186-1.287,4.691,4.691,0,0,0,.374,1.493" style="fill:#fff;stroke:#3f863f;stroke-width:0.16444px"/><path id="path317" d="M79.187,93.686a4.284,4.284,0,0,1-.349,1.772" style="fill:#fff;stroke:#fff;stroke-width:0.16444px"/><path id="path319" d="M95.171,97.391a4.583,4.583,0,0,0,.206-1.428,5.114,5.114,0,0,0,.416,1.659" style="fill:#fff;stroke:#3f863f;stroke-width:0.18248799999999998px"/><path id="path321" d="M95.352,95.594a4.673,4.673,0,0,1-.389,1.965" style="fill:#fff;stroke:#fff;stroke-width:0.18248799999999998px"/><path id="path323" d="M98.218,97.341a5.072,5.072,0,0,0,.231-1.592,5.682,5.682,0,0,0,.459,1.845" style="fill:#fff;stroke:#3f863f;stroke-width:0.20454699999999998px"/><path id="path325" d="M98.418,95.34a5.3,5.3,0,0,1-.431,2.184" style="fill:#fff;stroke:#fff;stroke-width:0.20454699999999998px"/><path id="path327" d="M101.106,99.78a4.2,4.2,0,0,1-.223-1.282,4.623,4.623,0,0,1-.326,1.5" style="fill:#fff;stroke:#3f863f;stroke-width:0.16444px"/><path id="path329" d="M100.89,98.161a4.271,4.271,0,0,0,.405,1.76" style="fill:#fff;stroke:#fff;stroke-width:0.16444px"/><path id="path331" d="M104.068,101.76a3.669,3.669,0,0,1-.206-1.157,4.214,4.214,0,0,1-.294,1.358" style="fill:#fff;stroke:#3f863f;stroke-width:0.148397px"/><path id="path333" d="M103.872,100.312a3.852,3.852,0,0,0,.366,1.579" style="fill:#fff;stroke:#fff;stroke-width:0.148397px"/><path id="path335" d="M102.871,100.508a5.1,5.1,0,0,0,.231-1.591,5.752,5.752,0,0,0,.459,1.842" style="fill:#fff;stroke:#3f863f;stroke-width:0.20454699999999998px"/><path id="path337" d="M103.071,98.5a5.271,5.271,0,0,1-.429,2.191" style="fill:#fff;stroke:#fff;stroke-width:0.20454699999999998px"/><path id="path339" d="M104.364,97.745a5.07,5.07,0,0,1-.279-1.581,5.732,5.732,0,0,1-.4,1.857" style="fill:#fff;stroke:#3f863f;stroke-width:0.20454699999999998px"/><path id="path341" d="M104.1,95.752a5.278,5.278,0,0,0,.5,2.171" style="fill:#fff;stroke:#fff;stroke-width:0.20454699999999998px"/><path id="path343" d="M98.923,99.845a5.041,5.041,0,0,0,.231-1.586,5.682,5.682,0,0,0,.459,1.845" style="fill:#fff;stroke:#3f863f;stroke-width:0.20454699999999998px"/><path id="path345" d="M99.126,97.845a5.267,5.267,0,0,1-.432,2.183" style="fill:#fff;stroke:#fff;stroke-width:0.20454699999999998px"/><path id="path347" d="M105.408,99.582A5.03,5.03,0,0,1,105.129,98a5.616,5.616,0,0,1-.4,1.849" style="fill:#fff;stroke:#3f863f;stroke-width:0.20454699999999998px"/><path id="path349" d="M105.142,97.586a5.2,5.2,0,0,0,.5,2.169" style="fill:#fff;stroke:#fff;stroke-width:0.20454699999999998px"/><path id="path351" d="M111.333,96.964a5.051,5.051,0,0,1-.281-1.581,5.714,5.714,0,0,1-.4,1.857" style="fill:#fff;stroke:#3f863f;stroke-width:0.20454699999999998px"/><path id="path353" d="M111.067,94.974a5.21,5.21,0,0,0,.505,2.168" style="fill:#fff;stroke:#fff;stroke-width:0.20454699999999998px"/><path id="path355" d="M105.689,95.119a5.11,5.11,0,0,0,.228-1.586,5.725,5.725,0,0,0,.46,1.84" style="fill:#fff;stroke:#3f863f;stroke-width:0.20454699999999998px"/><path id="path357" d="M105.89,93.119a5.261,5.261,0,0,1-.429,2.184" style="fill:#fff;stroke:#fff;stroke-width:0.20454699999999998px"/><path id="path359" d="M110.676,99.923a5.041,5.041,0,0,0,.231-1.586,5.682,5.682,0,0,0,.459,1.845" style="fill:#fff;stroke:#3f863f;stroke-width:0.20454699999999998px"/><path id="path361" d="M110.879,97.93a5.251,5.251,0,0,1-.432,2.184" style="fill:#fff;stroke:#fff;stroke-width:0.20454699999999998px"/><path id="path363" d="M114.35,95.739a5.063,5.063,0,0,0,.231-1.591A5.814,5.814,0,0,0,115.04,96" style="fill:#fff;stroke:#3f863f;stroke-width:0.20454699999999998px"/><path id="path365" d="M114.553,93.7a5.285,5.285,0,0,1-.431,2.183" style="fill:#fff;stroke:#fff;stroke-width:0.20454699999999998px"/><path id="path367" d="M107.772,100.591a5.128,5.128,0,0,1-.279-1.582,5.709,5.709,0,0,1-.4,1.855" style="fill:#fff;stroke:#3f863f;stroke-width:0.20454699999999998px"/><path id="path369" d="M107.506,98.6a5.2,5.2,0,0,0,.5,2.166" style="fill:#fff;stroke:#fff;stroke-width:0.20454699999999998px"/><path id="path371" d="M107.473,96.952a5.056,5.056,0,0,0,.231-1.587,5.775,5.775,0,0,0,.46,1.845" style="fill:#fff;stroke:#3f863f;stroke-width:0.20454699999999998px"/><path id="path373" d="M107.677,94.951a5.252,5.252,0,0,1-.432,2.184" style="fill:#fff;stroke:#fff;stroke-width:0.20454699999999998px"/><path id="path375" d="M109.25,97.981a4.12,4.12,0,0,1-.226-1.283,4.733,4.733,0,0,1-.323,1.508" style="fill:#fff;stroke:#3f863f;stroke-width:0.16444px"/><path id="path377" d="M109.034,96.367a4.271,4.271,0,0,0,.4,1.759" style="fill:#fff;stroke:#fff;stroke-width:0.16444px"/><path id="path379" d="M103.772,94.5A5.129,5.129,0,0,0,104,92.911a5.82,5.82,0,0,0,.459,1.845" style="fill:#fff;stroke:#3f863f;stroke-width:0.20454699999999998px"/><path id="path381" d="M103.972,92.5a5.223,5.223,0,0,1-.431,2.183" style="fill:#fff;stroke:#fff;stroke-width:0.20454699999999998px"/><path id="path383" d="M112.448,97.105a5.089,5.089,0,0,0,.231-1.592,5.756,5.756,0,0,0,.459,1.843" style="fill:#fff;stroke:#3f863f;stroke-width:0.20454699999999998px"/><path id="path385" d="M112.651,95.1a5.239,5.239,0,0,1-.432,2.186" style="fill:#fff;stroke:#fff;stroke-width:0.20454699999999998px"/><path id="path387" d="M109.559,101.025a5.159,5.159,0,0,1-.279-1.584,5.724,5.724,0,0,1-.4,1.855" style="fill:#fff;stroke:#3f863f;stroke-width:0.20454699999999998px"/><path id="path389" d="M109.3,99.027a5.221,5.221,0,0,0,.5,2.171" style="fill:#fff;stroke:#fff;stroke-width:0.20454699999999998px"/><path id="path391" d="M109.022,95.1a4.123,4.123,0,0,0,.186-1.288,4.594,4.594,0,0,0,.374,1.494" style="fill:#fff;stroke:#3f863f;stroke-width:0.16444px"/><path id="path393" d="M109.185,93.483a4.2,4.2,0,0,1-.351,1.767" style="fill:#fff;stroke:#fff;stroke-width:0.16444px"/><path id="path395" d="M100.793,92.2a5.109,5.109,0,0,0,.228-1.594,5.764,5.764,0,0,0,.459,1.845" style="fill:#fff;stroke:#3f863f;stroke-width:0.20454699999999998px"/><path id="path397" d="M100.993,90.2a5.206,5.206,0,0,1-.431,2.184" style="fill:#fff;stroke:#fff;stroke-width:0.20454699999999998px"/><path id="path399" d="M107.742,93.84a3.729,3.729,0,0,1-.2-1.157,4.2,4.2,0,0,1-.294,1.357" style="fill:#fff;stroke:#3f863f;stroke-width:0.148397px"/><path id="path401" d="M107.549,92.389a3.778,3.778,0,0,0,.366,1.579" style="fill:#fff;stroke:#fff;stroke-width:0.148397px"/><path id="path403" d="M112.955,94.261a4.622,4.622,0,0,1-.251-1.425,5.166,5.166,0,0,1-.359,1.669" style="fill:#fff;stroke:#3f863f;stroke-width:0.18248799999999998px"/><path id="path405" d="M112.716,92.467a4.719,4.719,0,0,0,.452,1.952" style="fill:#fff;stroke:#fff;stroke-width:0.18248799999999998px"/><path id="path407" d="M103.29,91.965a5.1,5.1,0,0,1-.279-1.581,5.756,5.756,0,0,1-.4,1.854" style="fill:#fff;stroke:#3f863f;stroke-width:0.20454699999999998px"/><path id="path409" d="M103.024,89.975a5.271,5.271,0,0,0,.5,2.168" style="fill:#fff;stroke:#fff;stroke-width:0.20454699999999998px"/><path id="path411" d="M98.579,91.666a5.039,5.039,0,0,1-.279-1.581,5.78,5.78,0,0,1-.4,1.855" style="fill:#fff;stroke:#3f863f;stroke-width:0.20454699999999998px"/><path id="path413" d="M98.311,89.673a5.233,5.233,0,0,0,.5,2.166" style="fill:#fff;stroke:#fff;stroke-width:0.20454699999999998px"/><path id="path415" d="M105.732,91.874a3.8,3.8,0,0,1-.2-1.157,4.2,4.2,0,0,1-.293,1.358" style="fill:#fff;stroke:#3f863f;stroke-width:0.148397px"/><path id="path417" d="M109.489,92.71a4.145,4.145,0,0,0,.185-1.287,4.72,4.72,0,0,0,.374,1.493" style="fill:#fff;stroke:#3f863f;stroke-width:0.16444px"/><path id="path419" d="M109.652,91.091a4.206,4.206,0,0,1-.352,1.767" style="fill:#fff;stroke:#fff;stroke-width:0.16444px"/><path id="path421" d="M111.075,93.729a5.03,5.03,0,0,1-.279-1.581A5.724,5.724,0,0,1,110.4,94" style="fill:#fff;stroke:#3f863f;stroke-width:0.20454699999999998px"/><path id="path423" d="M110.811,91.739a5.236,5.236,0,0,0,.5,2.163" style="fill:#fff;stroke:#fff;stroke-width:0.20454699999999998px"/><path id="path425" d="M110.442,91.393a4.511,4.511,0,0,0,.209-1.426,5.077,5.077,0,0,0,.414,1.656" style="fill:#fff;stroke:#3f863f;stroke-width:0.202542px"/><path id="path427" d="M114.162,98.226a4.606,4.606,0,0,0,.206-1.433,5.119,5.119,0,0,0,.416,1.659" style="fill:#fff;stroke:#3f863f;stroke-width:0.18248799999999998px"/><path id="path429" d="M114.345,96.422a4.734,4.734,0,0,1-.389,1.965" style="fill:#fff;stroke:#fff;stroke-width:0.18248799999999998px"/><path id="path431" d="M107.054,91.807a5.114,5.114,0,0,0,.229-1.589,5.764,5.764,0,0,0,.459,1.845" style="fill:#fff;stroke:#3f863f;stroke-width:0.20454699999999998px"/><path id="path433" d="M107.253,89.8a5.225,5.225,0,0,1-.432,2.188" style="fill:#fff;stroke:#fff;stroke-width:0.20454699999999998px"/><path id="path435" d="M106.407,98.851a4.134,4.134,0,0,0,.186-1.287,4.741,4.741,0,0,0,.371,1.493" style="fill:#fff;stroke:#3f863f;stroke-width:0.16444px"/><path id="path437" d="M106.57,97.228a4.178,4.178,0,0,1-.349,1.766" style="fill:#fff;stroke:#fff;stroke-width:0.16444px"/><path id="path439" d="M111.906,91.3a3.694,3.694,0,0,0,.168-1.157,4.128,4.128,0,0,0,.336,1.338" style="fill:#fff;stroke:#3f863f;stroke-width:0.148397px"/><path id="path441" d="M109.044,91.209a4.084,4.084,0,0,1-.223-1.282,4.627,4.627,0,0,1-.326,1.506" style="fill:#fff;stroke:#3f863f;stroke-width:0.16444px"/><path id="path443" d="M108.831,89.593a4.226,4.226,0,0,0,.407,1.764" style="fill:#fff;stroke:#fff;stroke-width:0.16444px"/><path id="path445" d="M113.607,92.971a4.117,4.117,0,0,0,.186-1.287,4.632,4.632,0,0,0,.371,1.493" style="fill:#fff;stroke:#3f863f;stroke-width:0.16444px"/><path id="path447" d="M113.768,91.355a4.19,4.19,0,0,1-.349,1.769" style="fill:#fff;stroke:#fff;stroke-width:0.16444px"/><path id="path449" d="M113.8,90.971a4.691,4.691,0,0,1-.251-1.428,5.189,5.189,0,0,1-.361,1.674" style="fill:#fff;stroke:#3f863f;stroke-width:0.18248799999999998px"/><path id="path451" d="M113.559,89.171a4.727,4.727,0,0,0,.452,1.956" style="fill:#fff;stroke:#fff;stroke-width:0.18248799999999998px"/><path id="path453" d="M115.823,91.985a5,5,0,0,0,.231-1.591,5.7,5.7,0,0,0,.462,1.842" style="fill:#fff;stroke:#3f863f;stroke-width:0.20454699999999998px"/><path id="path455" d="M116.026,89.98a5.3,5.3,0,0,1-.431,2.191" style="fill:#fff;stroke:#fff;stroke-width:0.20454699999999998px"/><path id="path457" d="M117.854,96.462a5.091,5.091,0,0,1-.279-1.581,5.714,5.714,0,0,1-.4,1.857" style="fill:#fff;stroke:#3f863f;stroke-width:0.20454699999999998px"/><path id="path459" d="M117.587,94.472a5.207,5.207,0,0,0,.5,2.166" style="fill:#fff;stroke:#fff;stroke-width:0.20454699999999998px"/><path id="path461" d="M115.931,97.569a4.583,4.583,0,0,0,.208-1.426,5.081,5.081,0,0,0,.414,1.657" style="fill:#fff;stroke:#3f863f;stroke-width:0.18248799999999998px"/><path id="path463" d="M116.114,95.769a4.642,4.642,0,0,1-.391,1.968" style="fill:#fff;stroke:#fff;stroke-width:0.18248799999999998px"/><path id="path465" d="M115.989,94.4a4.623,4.623,0,0,0,.206-1.433,5.141,5.141,0,0,0,.414,1.657" style="fill:#fff;stroke:#3f863f;stroke-width:0.18248799999999998px"/><path id="path467" d="M116.172,92.6a4.716,4.716,0,0,1-.392,1.972" style="fill:#fff;stroke:#fff;stroke-width:0.18248799999999998px"/><path id="path469" d="M118.453,90.84a4.49,4.49,0,0,1-.251-1.423,5.107,5.107,0,0,1-.361,1.669" style="fill:#fff;stroke:#228b22;stroke-width:0.18248799999999998px"/><path id="path471" d="M118.215,89.046A4.66,4.66,0,0,0,118.667,91" style="fill:#fff;stroke:#fff;stroke-width:0.18248799999999998px"/><path id="path473" d="M117.5,93.744a5,5,0,0,0,.231-1.591A5.709,5.709,0,0,0,118.187,94" style="fill:#fff;stroke:#3f863f;stroke-width:0.20454699999999998px"/><path id="path475" d="M117.7,91.741a5.293,5.293,0,0,1-.431,2.186" style="fill:#fff;stroke:#fff;stroke-width:0.20454699999999998px"/><path id="path477" d="M118.948,95.787a4.169,4.169,0,0,0,.188-1.287,4.579,4.579,0,0,0,.371,1.493" style="fill:#fff;stroke:#3f863f;stroke-width:0.16444px"/><path id="path479" d="M119.113,94.168a4.253,4.253,0,0,1-.348,1.767" style="fill:#fff;stroke:#fff;stroke-width:0.16444px"/><path id="path481" d="M119.462,93.317a4.041,4.041,0,0,1-.226-1.282,4.554,4.554,0,0,1-.326,1.5" style="fill:#fff;stroke:#3f863f;stroke-width:0.16444px"/><path id="path483" d="M119.244,91.7a4.267,4.267,0,0,0,.4,1.759" style="fill:#fff;stroke:#fff;stroke-width:0.16444px"/><path id="path485" d="M120,90.66a5.1,5.1,0,0,0,.231-1.591,5.666,5.666,0,0,0,.457,1.842" style="fill:#fff;stroke:#228b22;stroke-width:0.202542px"/><path id="path487" d="M120.2,88.652a5.216,5.216,0,0,1-.432,2.191" style="fill:#fff;stroke:#fff;stroke-width:0.20454699999999998px"/><path id="path489" d="M121.987,93.132A4.568,4.568,0,0,0,122.2,91.7a5.106,5.106,0,0,0,.414,1.659" style="fill:#fff;stroke:#3f863f;stroke-width:0.18248799999999998px"/><path id="path491" d="M122.17,91.327a4.722,4.722,0,0,1-.386,1.965" style="fill:#fff;stroke:#fff;stroke-width:0.18248799999999998px"/><path id="path493" d="M120.745,93.513a4.622,4.622,0,0,1-.251-1.425,5.222,5.222,0,0,1-.359,1.669" style="fill:#fff;stroke:#3f863f;stroke-width:0.18248799999999998px"/><path id="path495" d="M120.506,91.719a4.7,4.7,0,0,0,.452,1.952" style="fill:#fff;stroke:#fff;stroke-width:0.18248799999999998px"/><path id="path497" d="M120.413,87.339a5.108,5.108,0,0,1-.278-1.581,5.748,5.748,0,0,1-.4,1.855" style="fill:#fff;stroke:#3f863f;stroke-width:0.20454699999999998px"/><path id="path499" d="M120.147,85.349a5.264,5.264,0,0,0,.5,2.166" style="fill:#fff;stroke:#fff;stroke-width:0.20454699999999998px"/><path id="path501" d="M121.6,90.62a5.072,5.072,0,0,0,.231-1.592,5.8,5.8,0,0,0,.46,1.85" style="fill:#fff;stroke:#3f863f;stroke-width:0.20454699999999998px"/><path id="path503" d="M121.8,88.619a5.254,5.254,0,0,1-.431,2.184" style="fill:#fff;stroke:#fff;stroke-width:0.20454699999999998px"/><path id="path505" d="M125.25,90.088a4.542,4.542,0,0,0,.208-1.428,5.16,5.16,0,0,0,.414,1.656" style="fill:#fff;stroke:#3f863f;stroke-width:0.18248799999999998px"/><path id="path507" d="M125.433,88.286a4.711,4.711,0,0,1-.389,1.967" style="fill:#fff;stroke:#fff;stroke-width:0.18248799999999998px"/><path id="path509" d="M123.9,89.628a4.644,4.644,0,0,1-.251-1.423,5.13,5.13,0,0,1-.358,1.674" style="fill:#fff;stroke:#3f863f;stroke-width:0.18248799999999998px"/><path id="path511" d="M123.661,87.834a4.711,4.711,0,0,0,.452,1.955" style="fill:#fff;stroke:#fff;stroke-width:0.18248799999999998px"/><path id="path513" d="M123.977,92.015a3.729,3.729,0,0,1-.2-1.157,4.214,4.214,0,0,1-.294,1.358" style="fill:#fff;stroke:#3f863f;stroke-width:0.148397px"/><path id="path515" d="M123.784,90.559a3.849,3.849,0,0,0,.364,1.584" style="fill:#fff;stroke:#fff;stroke-width:0.148397px"/><path id="path517" d="M121.53,87.141a5.131,5.131,0,0,0,.229-1.594,5.764,5.764,0,0,0,.459,1.845" style="fill:#fff;stroke:#3f863f;stroke-width:0.20454699999999998px"/><path id="path519" d="M121.731,85.143a5.2,5.2,0,0,1-.432,2.184" style="fill:#fff;stroke:#fff;stroke-width:0.20454699999999998px"/><path id="path521" d="M122.946,86.732a5.089,5.089,0,0,0,.226-1.586,5.763,5.763,0,0,0,.461,1.84" style="fill:#fff;stroke:#3f863f;stroke-width:0.20454699999999998px"/><path id="path523" d="M123.146,84.732a5.223,5.223,0,0,1-.431,2.183" style="fill:#fff;stroke:#fff;stroke-width:0.20454699999999998px"/><path id="path525" d="M125.019,87.538a4.589,4.589,0,0,1-.251-1.431,5.175,5.175,0,0,1-.364,1.677" style="fill:#fff;stroke:#3f863f;stroke-width:0.18248799999999998px"/><path id="path527" d="M124.78,85.746a4.669,4.669,0,0,0,.452,1.95" style="fill:#fff;stroke:#fff;stroke-width:0.18248799999999998px"/><path id="path529" d="M126.509,86.807a4.654,4.654,0,0,1-.251-1.425,5.152,5.152,0,0,1-.358,1.669" style="fill:#fff;stroke:#3f863f;stroke-width:0.18248799999999998px"/><path id="path531" d="M126.271,85.015a4.684,4.684,0,0,0,.452,1.953" style="fill:#fff;stroke:#fff;stroke-width:0.18248799999999998px"/><path id="path533" d="M127.32,87.154a4.626,4.626,0,0,0,.208-1.431,5.2,5.2,0,0,0,.414,1.657" style="fill:#fff;stroke:#3f863f;stroke-width:0.18248799999999998px"/><path id="path535" d="M127.5,85.349a4.718,4.718,0,0,1-.391,1.973" style="fill:#fff;stroke:#fff;stroke-width:0.18248799999999998px"/><path id="path537" d="M128.966,86.627a4.055,4.055,0,0,1-.228-1.278,4.581,4.581,0,0,1-.326,1.5" style="fill:#fff;stroke:#3f863f;stroke-width:0.16444px"/><path id="path539" d="M128.751,85.01a4.3,4.3,0,0,0,.4,1.765" style="fill:#fff;stroke:#fff;stroke-width:0.16444px"/><path id="path541" d="M71.008,92.667a5.118,5.118,0,0,0,.23-1.591,5.782,5.782,0,0,0,.457,1.842" style="fill:#fff;stroke:#3f863f;stroke-width:0.20454699999999998px"/><path id="path543" d="M71.208,90.662a5.183,5.183,0,0,1-.434,2.191" style="fill:#fff;stroke:#fff;stroke-width:0.20454699999999998px"/><path id="path545" d="M69.371,92.354a4.941,4.941,0,0,1-.278-1.581,5.742,5.742,0,0,1-.4,1.857" style="fill:#fff;stroke:#3f863f;stroke-width:0.20454699999999998px"/><path id="path547" d="M69.105,90.364a5.273,5.273,0,0,0,.5,2.17" style="fill:#fff;stroke:#fff;stroke-width:0.20454699999999998px"/><path id="path549" d="M68.126,91.393a4.244,4.244,0,0,1-.228-1.28,4.649,4.649,0,0,1-.321,1.5" style="fill:#fff;stroke:#3f863f;stroke-width:0.16444px"/><path id="path551" d="M67.913,89.779a4.237,4.237,0,0,0,.407,1.757" style="fill:#fff;stroke:#fff;stroke-width:0.16444px"/><path id="path553" d="M66.206,90.454a5.051,5.051,0,0,0,.226-1.586,5.736,5.736,0,0,0,.46,1.844" style="fill:#fff;stroke:#3f863f;stroke-width:0.20454699999999998px"/><path id="path555" d="M66.405,88.454a5.2,5.2,0,0,1-.432,2.183" style="fill:#fff;stroke:#fff;stroke-width:0.20454699999999998px"/><path id="path557" d="M63.34,86.822a5.058,5.058,0,0,0,.226-1.586,5.691,5.691,0,0,0,.46,1.845" style="fill:#fff;stroke:#3f863f;stroke-width:0.20454699999999998px"/><path id="path559" d="M63.541,84.822a5.226,5.226,0,0,1-.431,2.184" style="fill:#fff;stroke:#fff;stroke-width:0.20454699999999998px"/><path id="path561" d="M62.605,85.357a3.75,3.75,0,0,1-.206-1.152,4.118,4.118,0,0,1-.291,1.348" style="fill:#fff;stroke:#3f863f;stroke-width:0.148397px"/><path id="path563" d="M62.414,83.9a3.782,3.782,0,0,0,.367,1.584" style="fill:#fff;stroke:#fff;stroke-width:0.148397px"/></g><g id="branches"><path id="path566" d="M67.9,77.195a7.659,7.659,0,0,0,.411,3.511,11.041,11.041,0,0,0-4.55-2.369c-.949-.918-1.932-4.266-1.579-5.463,1.807-.111,5.344,2.866,5.718,4.321Z" style="fill:#3f863f;stroke:#000;stroke-width:0.20454699999999998px"/><path id="path568" d="M71.314,84.1c-1.642-1.071-3.147-1.382-6.814-1.29.557,2.053,6.144,4.508,7.075,4.337a18.606,18.606,0,0,1-.261-3.047Z" style="fill:#3f863f;stroke:#000;stroke-width:0.20454699999999998px"/><path id="path570" d="M71.3,84.044c-4.751-2.108-3.478-8.949-2.638-9.745,2.347,1.293,2.548,4.322,2.844,5.127a31.936,31.936,0,0,0-.206,4.618Z" style="fill:#3f863f;stroke:#000;stroke-width:0.20454699999999998px"/><path id="path572" d="M70.44,83.572a5.367,5.367,0,0,1-2.115-2.828,9.975,9.975,0,0,0-6.315-2.635,5.813,5.813,0,0,0,3.014,4.7,11.9,11.9,0,0,1,5.419.773l0-.008Z" style="fill:#3f863f;stroke:#000;stroke-width:0.20454699999999998px"/><path id="path574" d="M89.8,93.594c-.781.863-3.449,3.588-8.1,1.548a2.377,2.377,0,0,1,1.7-.951,7.118,7.118,0,0,0,4.658-1.383,16.894,16.894,0,0,0,1.75.786Z" style="fill:#3f863f;stroke:#000;stroke-width:0.20454699999999998px"/><path id="path576" d="M89.675,90.735c-1.378-.919-2.831-.806-4.247-1.237-.153,2.8,4.269,3.905,4.653,4.226a5,5,0,0,1,2.181-.427,6.489,6.489,0,0,1-2.587-2.562Z" style="fill:#3f863f;stroke:#000;stroke-width:0.20454699999999998px"/><path id="path578" d="M98.556,93.563c.6-.017,2.422-.444,2.944-.037s1.564,1.606.743,2.432-1.566-.337-1.9-.527-1.413-1.308-5.81-.455c-1.919.374-1.922,1.614-4.121,2.058-1.606.327-1.809.02-3.651-.04.765-.933,1.38-1.5,2.088-2.464s2.778-1.268,3.411-1.235a5.641,5.641,0,0,1-3.18-5.479c1.453.337,3.185.688,5.265,4.769a9.924,9.924,0,0,0-2.883-3.78,8,8,0,0,1,.338-2.934c1.564,1.664,1.785,1.694,2.57,2.472,1.135,1.122.929,2.766,1.526,3.7a3.453,3.453,0,0,0,2.66,1.52Z" style="fill:#3f863f;stroke:#000;stroke-width:0.20454699999999998px"/><path id="path580" d="M88.051,92.808a7,7,0,0,1-6.688.916c1.809-2.284,2.943-2.321,4.883-2.2a6.216,6.216,0,0,0,1.805,1.287Z" style="fill:#3f863f;stroke:#000;stroke-width:0.20454699999999998px"/><path id="path582" d="M71.572,87.146c-.206-.118-2.683.206-3.037.748.113.971,2.774,2.45,3.519,2.246-.13-.82-.5-2.635-.482-2.994Z" style="fill:#3f863f;stroke:#000;stroke-width:0.20454699999999998px"/><path id="path584" d="M101.774,94.464c.261.372.14,1.245-.542.834m.08.027c.5.076.577-.467.5-.783" style="fill:none;stroke:#000;stroke-width:0.20454699999999998px"/><path id="path586" d="M101.817,94.254c.8,1.52-.412,1.5-.766.923" style="fill:none;stroke:#3f863f;stroke-width:0.20454699999999998px"/><path id="path588" d="M92.586,88.052c.223.756,1.649,2.412,1.947,3.466m-4.2-1.96a14.353,14.353,0,0,0,2.622,2.869M87.029,90.84a10.376,10.376,0,0,0,3.451,2.033M86.5,92.5a5.74,5.74,0,0,0-3.6.829M87.627,94a19.481,19.481,0,0,0-4.053.981m9.23-.672c-1.8.145-2.63,1.654-4.128,1.955M68.882,76.209c0,.678.145,4.219,1.2,5.2m-7.123-7.233c.45,1.729,3.148,3.087,3.373,4.144m3.517,10.021a1.986,1.986,0,0,1,1.8.226m-5.4-4.977c.675,0,3.975.758,4.949,2.191M63.25,79.374c.826.3,3.752,2.032,4.425,3.4" style="fill:none;stroke:#000;stroke-width:0.180483px"/></g><g id="ribbon"><path id="path591" d="M58.211,74.588c.614.188,2.346.175,2.906-1a5.035,5.035,0,0,1,.672-1.681c.522-.673,1.313-.8,1.438-1.626.226-1.5-1.453-1.3-1.784-2.134-.284-.707.075-.916.821-1.086.484-.106,1.995.466,5.248,1.8a6.181,6.181,0,0,0,5.272-.11c.826-.55,1.584-2.131,3-3.4.241-.215,3.428-1.272,4.548-3.217A5.282,5.282,0,0,0,78.7,55.624c-2.9-2.17-7-3.593-8.709-4.344s-4.271-1.179-4.56-3.33c-.131-.954.688-1.335,1.363-1.313.891.043,2.06.372,2.768.439.522.056,2.3.279,2.575-1.385a1.952,1.952,0,0,1-.3-.409c-.057.3-.206.911-1.4.836-1.428-.091-2.888-1.022-3.993-1.019-1.337,0-2.263.72-3.6,1.094-1.292.359-2.863.258-3.576,1.566A5.48,5.48,0,0,0,60.6,53.594c2.156,2.1,3.363,3.1,8.41,5.019,3.707,1.4,4.626,2.174,5.075,2.7s.427,1.026.251,1.23c-.223.261-1.36.5-4.226-.731a14.64,14.64,0,0,0-5.846-1.275c-1.192,0-4.489.6-5.067,1.757-.67,1.343-.15,1.644-.022,3.644a5.449,5.449,0,0,0,.183,2.041,2.841,2.841,0,0,0,1.152,1.267c1.172.5.723,1.089.351,1.536a2.835,2.835,0,0,0-.765,2c.188,1.061-1.887,1.8-1.887,1.8ZM95.086,23.556c-1.288.489-1.531.3-1.976.65-.727.579-1.327,1.214-1.493.953-.221-.356,1.908-.725,2.349-2.07.354-1.089-.128-1.293-.386-3.075-.4-2.748-1.732-3.217-2.7-2.918S87.3,18.687,83.054,20.16c-2.986,1.036-7.8,1.556-8.646,3.062-.334.6-1.345,3.077,2.083,5.539a8.285,8.285,0,0,0,3,1.365,22.552,22.552,0,0,0-6.711-.412c-7.09.492-14.559,7.06-13.658,12.275.221,1.285,1.88.768,3.223.989s1.543.858,2.512.7,1.134-1.614,2.105-1.762.894.826,1.935.823,1.905-1.757,2.653-1.681a2,2,0,0,0-.71-.166,1.964,1.964,0,0,1-2.03.427c-.52-.3-.683-.766-1.449-.763-.446,0-.893.236-1.824.913a10.632,10.632,0,0,1,11.253-4.557c3.258.675,3.652-.352,3.8-.879s-.148-1.38,0-2.781c.123-1.139.823-1.947.6-2.7s-.605-1.132-1.86-1.549c-.557-.188-.5-.457-.263-.662A4.691,4.691,0,0,1,80.65,28a31.157,31.157,0,0,0,9.113-3.411c1.686-1.062,2.647-2.193,2.723-1.526.052.464-2.442.8-2.372,1.9.03.469.065,1.205,1.435,1.307.987.078,1.592-.622,2.272-1.212.815-.715,1.132-.923,1.265-1.5Z" style="fill:#fff;stroke:#000;stroke-width:0.16444px"/><path id="path593" d="M69.713,52c-3.619-1.511-6.4-2.987-4.53-5.79-2.149,1.077-5.763.359-5.547,3.167.7,9.216,17.518,7.434,16.022,14.971,3.815-.532,7.278-6.307.9-9.271-2.372-1.1-4.676-2.164-6.846-3.077Zm10-20.956c.65.161-.051,1.3-.239,2.394-.123.715.525,2.161-.063,2.487-2,1.1-10.249-3.207-14.935,6.121-.537,1.07-1.521,0-2.381-.077-1.5-.146-2.618.145-2.209-1.087,3.526-10.656,14.674-11.1,19.827-9.838Zm8.8-12.16c1.338-.569,2.437-1.026,3.137-.818,1.4.422,1.042,3.3,1.546,3.956-.83-.282-2.183.627-3.7,1.628a22.568,22.568,0,0,1-3.84,2.048,25.569,25.569,0,0,1-3.792,1.11c-2.344.494-4.482.843-3.9,1.849-.894-.331-3.725-2.216-2.916-4.369.449-1.2,2.065-1.727,3.95-2.209a45.9,45.9,0,0,0,5.263-1.5c1.726-.665,2.913-1.117,4.256-1.7ZM60.944,61.863c6.409-2.386,9.587,2.39,13.908,1.649.076,1.94-1.588,5.376-4.944,5.148-2.324-.153-7.963-4.38-9.8-.946-.07-2.465-1.446-5,.841-5.851Z" style="fill:#be0a2f;stroke:#000;stroke-width:0.16444px"/><g id="text"><g id="state"><path id="path597" d="M62.286,63.133a.436.436,0,0,0-.444-.178.407.407,0,0,0-.374.424c.03.2.241.274.409.314l.194.043c.384.088.682.251.745.68a.812.812,0,0,1-1.591.314l.313-.113a.487.487,0,1,0,.962-.156c-.038-.274-.276-.361-.51-.422l-.186-.047c-.306-.086-.594-.211-.647-.567a.7.7,0,0,1,.653-.768.732.732,0,0,1,.71.291l-.234.185"/><path id="path599" d="M64.5,65.2l-.321-.028.175-2.286-.61-.045.023-.291,1.541.118-.023.293-.609-.045L64.5,65.2"/><path id="path601" d="M66.159,64.832l-.5.5-.324-.123,2.1-2.078.2,2.952-.324-.123-.048-.708Zm1.026-1.044-.8.816.856.321-.061-1.137"/><path id="path603" d="M68.947,66.562l-.3-.1.718-2.166-.58-.193.1-.278,1.46.486-.092.277-.578-.194-.715,2.166"/><path id="path605" d="M71.043,64.524l1.372.168-.035.294-1.051-.133-.088.717,1.021.126-.035.293L71.2,65.861l-.118.969,1.054.131-.035.293-1.37-.168.311-2.56"/></g><g id="sovereignty"><path id="path608" d="M76.948,61.221a.37.37,0,0,0-.113.392.346.346,0,0,0,.392.281c.168-.043.21-.229.228-.374l.02-.168c.043-.329.151-.6.5-.691a.675.675,0,0,1,.836.512.683.683,0,0,1-.429.808l-.123-.256a.413.413,0,1,0-.216-.8c-.228.058-.281.266-.311.47l-.023.16c-.042.271-.125.527-.421.6a.6.6,0,0,1-.708-.487.628.628,0,0,1,.181-.63l.183.181"/><path id="path610" d="M76.055,58.29a1.153,1.153,0,0,1,1.317,1.892,1.153,1.153,0,0,1-1.317-1.892Zm.158.223a.873.873,0,0,0-.229,1.23.863.863,0,0,0,1.23.211.877.877,0,1,0-1-1.441"/><path id="path612" d="M75.259,57l-1.5.893-.238-.181,2.158-1.257-.647,2.419-.239-.183L75.259,57"/><path id="path614" d="M73.151,57.524l-1.029-.577.12-.216.791.442.3-.54-.768-.429.12-.218.768.426.4-.727-.789-.44.121-.218,1.029.572-1.064,1.925"/><path id="path616" d="M71.193,54.1l.3.133.208,1.117.106.045.379-.848.248.113-.9,2.005-.3-.136a1.143,1.143,0,0,1-.484-.333.623.623,0,0,1,.685-.942Zm.522,1.5-.08-.037c-.256-.116-.552-.194-.7.128s.135.492.384.6l.068.03.323-.723"/><path id="path618" d="M69.836,55.921l-1.09-.452.1-.229.835.344.234-.567-.811-.336.093-.231.813.334.314-.766-.836-.346.1-.234,1.089.452-.833,2.033"/><path id="path620" d="M68.7,53.072l.254.1-.841,2.033-.254-.1.841-2.033"/><path id="path622" d="M65.73,52.972l.035-.081a1.018,1.018,0,0,1,1.388-.542,1.146,1.146,0,1,1-1.609,1.32l.248-.087a.865.865,0,0,0,1.647.16.9.9,0,0,0-.407-1.172.734.734,0,0,0-.921.3l.515.236-.1.229-.8-.359"/><path id="path624" d="M64.42,53.634l-.387-2.364-.916,1.345-.226-.155,1.293-1.893.384,2.364.926-1.355.226.156-1.3,1.9"/><path id="path626" d="M63.406,49.747l.168.218L62.033,51.16l.319.414-.2.153-.8-1.047.2-.15.319.414,1.541-1.2"/><path id="path628" d="M60.944,49.99l-.116-.294.675-.848-1.069-.158-.115-.294,1.415.216.889-.351.1.256-.888.346-.891,1.127"/></g><g id="national"><path id="path631" d="M60.976,39.989l2.48-.384-1.4-.979.166-.233,1.97,1.378-2.48.381,1.408.989-.163.236-1.983-1.388"/><path id="path633" d="M64.548,38.393l.218.6-.221.218-.9-2.489,2.469.946-.221.213-.592-.226Zm-.462-1.222.361.951.585-.577-.946-.374"/><path id="path635" d="M67,36.995l-.228.178-1.235-1.634-.434.334-.158-.211,1.1-.835.158.21-.434.329L67,36.995"/><path id="path637" d="M68.337,36.1l-.246.149-1.2-1.973.246-.151,1.2,1.975"/><path id="path639" d="M70.792,33.662a1.2,1.2,0,0,1-.648,1.581,1.188,1.188,0,0,1-1.576-.645,1.206,1.206,0,0,1,2.224-.936Zm-.264.113a.92.92,0,1,0-1.7.713.92.92,0,1,0,1.7-.713"/><path id="path641" d="M71.512,32.144l2.03,1.48-.306-1.684.284-.05.431,2.369-2.03-1.478.309,1.7-.284.055-.434-2.389"/><path id="path643" d="M75.166,33.537l-.276.572-.309-.005,1.155-2.392,1.049,2.439-.309-.005-.251-.589-1.059-.02Zm.557-1.193-.431.932.82.017-.389-.944"/><path id="path645" d="M77.816,34.069l.693.118-.045.261-.976-.169L77.882,32l.283.047-.349,2.026"/></g><g id="union"><path id="path648" d="M77.139,24.042l.336,1.441c.09.4.3.743.765.632s.5-.5.41-.9l-.334-1.441.3-.072.359,1.543a.917.917,0,1,1-1.782.419l-.356-1.546.3-.068"/><path id="path650" d="M79.812,23.284l2.324,1.408-.485-1.786.3-.081.68,2.517-2.324-1.413.487,1.805-.3.085-.682-2.535"/><path id="path652" d="M84.231,24.728l-.3.1-.77-2.384.3-.1.77,2.382"/><path id="path654" d="M87.346,21.892a1.306,1.306,0,0,1-2.284,1.267,1.306,1.306,0,0,1,2.284-1.267Zm-.271.15a1,1,0,1,0-1.745.966,1,1,0,1,0,1.745-.966"/><path id="path656" d="M87.73,20.117l2.56.9-.836-1.649.276-.141L90.9,21.553l-2.557-.9.843,1.664-.276.143L87.73,20.117"/></g></g><path id="path658" d="M72.7,60.25A3.656,3.656,0,0,1,74.815,64.3" style="fill:none;stroke:#000;stroke-width:0.214574px"/></g><g id="eagle"><path id="path661" d="M99.959,64.918a6.289,6.289,0,0,1,1.459,3.431c.04.7.145,2.095-.9,2.243a3.166,3.166,0,0,1-2.179-.394,1.065,1.065,0,0,0-.477-.778c-.341-.1-.4-.175-.7,0a1.281,1.281,0,0,1-.984-.289c-.668-.876-.756-3.9-2.733-5.581-1.19-1.009-1.471-1.383-4.912-2.914-6.9-3.08-11.193-11.151-11.63-11.756a5.623,5.623,0,0,0-2.216-1.945c-3.147-.825-3.185-2.283-3.277-3.144.783,1.292,3.875,2.324,3.724,1.646a3.744,3.744,0,0,0-1.787-2.093c-1.114-.753-1.189-1.985-1.636-2.206a2.562,2.562,0,0,0-1.825-.191c1.418-2.994,4.919-1.079,4.919-1.079a31.677,31.677,0,0,0,2.272,2.246A6.671,6.671,0,0,0,80.622,43.8c3.5.559,5.976,1.147,6.907,1.352.286-.537.359-4.414-.236-5.31a8.04,8.04,0,0,1-1.86-3.446,34.11,34.11,0,0,0-1.784-5.534c-.74-1.794.6-3.292,2.984-3.511a12.624,12.624,0,0,1,10.242,3.855" style="fill:#785a3c;stroke:#000;stroke-width:0.214574px"/><g id="tail"><path id="path664" d="M99.924,65.244l8.192-6.513L98.5,52l1.423,13.249Z" style="fill:#785a3c"/><path id="path666" d="M107.9,58.611c3.694,4.174,7.23,12.471,7.371,13.562-.038,1.494-.911.844-1.358.5-.017.692-.989.687-1.473.09-.223.9-1.267.62-1.862-.148.188.786-1.172.841-1.712-.005.146.547-.878.316-1.189-.151,0,.3.052.768-.821.151-.966-1.423-7.2-8-6.892-7.7" style="fill:#d2b78c;stroke:#000;stroke-width:0.214574px"/><path id="path668" d="M101.538,64.268s2.191,2.319,2.492,2.678.826,1.187.336,1.578c-.562.452-1.613-.527-1.726-.637-.188-.193-3.654-4.016-3.654-4.016s4.384,5.165,5.21,4.525c.866-.67-2.585-4.05-2.658-4.128"/><path id="path670" d="M107.667,72.474c0-1.081-2.776-4.607-3.451-5.32m4.645,5.466c-.258-1.922-2.71-5.371-3.4-6.239m5.112,6.244a24.282,24.282,0,0,0-3.182-6.656m5.047,6.8a33.076,33.076,0,0,0-3.769-7.406m5.282,7.313c.1-1.322-1.458-4.62-5.167-9.835" style="fill:none;stroke:#000;stroke-width:0.22861099999999998px"/><path id="path672" d="M107.918,72.289c0-1.089-2.791-4.633-3.471-5.351m4.67,5.5c-.258-1.932-2.725-5.4-3.423-6.276m5.145,6.281a24.494,24.494,0,0,0-3.2-6.7m5.075,6.847a33.194,33.194,0,0,0-3.792-7.449m5.313,7.354c.1-1.331-1.466-4.646-5.2-9.894" style="fill:none;stroke:#fff;stroke-width:0.230617px"/><path id="path674" d="M106.72,60c.1.128,3.165,4.347,3.635,5.125.373.62.431,1.3.057,1.526s-.9-.319-1.3-.733-3.691-4.994-3.993-5.368,3.019,4.048,3.414,4.65c.266.417.444.959.223,1.225-.261.321-.936.058-1.165-.2s-2.585-3.187-2.622-3.26,2.063,2.5,2.306,2.883a1.031,1.031,0,0,1-.188,1.431c-.218.148-.668-.111-1.192-.555-1.142-.961-2.387-2.783-2.969-3.272.637.569,1.6,1.847,2.213,2.542s.731,1.32.317,1.586-.919-.095-1.313-.527-2.324-2.449-2.587-2.756,2.261,2.407,2.492,2.678" style="fill:none;stroke:#000;stroke-width:0.22861099999999998px"/></g><g id="head"><path id="path677" d="M77.018,48.557l1.506,2.515,1.114,1.676V50.68l1.785.337-.5-2.124,2.173.279-1-1.566,1.785.336-1.059-1.789,2,.5-1.448-1.734,2.452.113-3.288-.67-2.118-.336-3.4,4.527Z" style="fill:#d2b78c"/><path id="path679" d="M72.21,44.582c-.168-.316.055-.168-.3-.655,1.059.582,1.7-.2,2.643.472.243.278.69.951.542,1.157C74.87,45.95,72.99,45.2,72.21,44.582Z" style="fill:#be0a2f;stroke:#000;stroke-width:0.20454699999999998px"/><path id="path681" d="M76.923,48.9a5.654,5.654,0,0,0-2.216-1.945c-3.147-.825-3.185-2.283-3.278-3.144.783,1.292,3.875,2.324,3.725,1.646a3.739,3.739,0,0,0-1.787-2.093c-1.115-.753-1.19-1.985-1.637-2.206a2.563,2.563,0,0,0-1.824-.191c1.418-2.994,4.919-1.079,4.919-1.079A31.7,31.7,0,0,0,77.1,42.137a6.671,6.671,0,0,0,3.539,1.682" style="fill:#fff;stroke:#000;stroke-width:0.214574px"/><path id="path683" d="M74.88,40.1a4.563,4.563,0,0,0,.3,2.763,5.442,5.442,0,0,1,.891,2.412c.058,1.092-.527,1.777-1.2,1.6-3.147-.826-3.112-1.955-3.386-3,.748,1.473,3.6,2.331,3.833,1.756.12-.3-.512-1.385-1.787-2.238-1.115-.753-1.079-1.584-1.491-2.134a2.56,2.56,0,0,0-1.9-.481c1.676-2.633,4.738-.683,4.738-.683Z" style="fill:#ffb316"/><path id="path685" d="M74.8,39.869c3.539-1.12,4.841,3.107,7.559,3.112-.635.594-1.99.592-3.428.3-1.453-.3-4.131-3.408-4.131-3.408Z" style="fill:#fff;stroke:#000;stroke-width:0.214574px"/><path id="path687" d="M76.587,43.239c.557.449,2.085-.035,2.085-.035a8.961,8.961,0,0,1-2.417-1.835C75.806,42.529,76.26,42.973,76.587,43.239Z" style="fill:#fff;stroke:#000;stroke-width:0.16444px"/><path id="path689" d="M76.9,42.782c.283.234,1.066-.015,1.066-.015a4.636,4.636,0,0,1-1.237-.938c-.364.381,0,.82.171.961"/></g><g id="claws"><path id="path692" d="M88.9,60.807c-.856.14-1.009,4.409.738,5.516.075-.334.559-.313.988.186.148.183.143.58.053.635.231.64.821.883,1.656.939a2.577,2.577,0,0,0,2.59-2.395,5.844,5.844,0,0,0-1.862-2.447A16.506,16.506,0,0,0,88.9,60.8l0,0Z" style="fill:#785a3c;stroke:#000;stroke-width:0.214574px"/><path id="path694" d="M90.759,66.926c0,.524-1.192.82-.374,1.721s.745.823,1.265,1.047,1.566-.076,1.415.825-1.38.635-1.789-.04a1.466,1.466,0,0,0-1.491-.785c-.645.163-.745.3-1.044.974s-.524,1.116-1.119.745-.221-.751.15-1.122.595-.522.52-.9-.891-.447-1.486-.3-1.044-.522-.745-.9a1.349,1.349,0,0,1,1.566,0,2.362,2.362,0,0,0,1.636.525c.372-.146.3-1.87.374-2.392s1.122-.042,1.122.6Z" style="fill:#ffb30f;stroke:#000;stroke-width:0.214574px"/><path id="path696" d="M98.28,69.945c.319.851-1.026,1.864-.208,2.763a2.114,2.114,0,0,0,2.234.524c.336-.032,1.566-.07,1.415.826-.118.71-1.445.437-2.607,0a2.389,2.389,0,0,0-1.75-.153c-.6.3-.69.582-.82,1.423-.113.727-.69,1.081-1.285.705s-.374-.746,0-1.122a1.7,1.7,0,0,0,.429-1.383c-.075-.374-.894-.447-1.491-.3s-1.041-.522-.743-.9a1.34,1.34,0,0,1,1.564,0,2.38,2.38,0,0,0,1.641.524c.369-.148.429-2.908.5-3.433a.79.79,0,0,1,1.119.52v0Z" style="fill:#ffb30f;stroke:#000;stroke-width:0.214574px"/><path id="path698" d="M91.369,63.113A3.943,3.943,0,0,1,93.1,65.259"/><path id="path700" d="M91.18,64.7a3.565,3.565,0,0,1,.974,1.5"/><path id="path702" d="M89.494,64.092a1.579,1.579,0,0,0,.487,1.127"/><path id="path704" d="M96.677,67.618c.035.791,1.182.982,1.255,1.376"/><path id="path706" d="M95.833,65.322a1.526,1.526,0,0,1,1.519,1.092,2.6,2.6,0,0,0-1.519-1.092"/><path id="path708" d="M100.3,69.754c-.627-2.171-1.737-2.487-1.656-2.158.622.582.637.476.881.835.512.751.665,1.509.775,1.323"/><path id="path710" d="M100.65,69.448c-.108-.823-.505-.7-.477-.454a1.7,1.7,0,0,1,.273.353c.045.106.111.224.2.1"/><path id="path712" d="M101.724,73.762a.778.778,0,0,1,.763.989c-.279-.615-.746-.507-.894-.412,0,0,.244-.321.131-.577"/><path id="path714" d="M93.417,72.409a.784.784,0,0,0-.856.911c.336-.59.793-.431.928-.321a.689.689,0,0,1-.072-.59"/><path id="path716" d="M93.085,70.419a.785.785,0,0,1,.51,1.142c-.126-.663-.605-.668-.773-.61,0,0,.314-.256.263-.532"/><path id="path718" d="M86,68.351a.785.785,0,0,0-.712,1.029c.246-.63.717-.547.873-.459a.663.663,0,0,1-.161-.57"/><path id="path720" d="M87.4,71.225a1.543,1.543,0,0,0-.123,1.061c.417-.675.555-.7.721-.743a1.007,1.007,0,0,1-.6-.318"/><path id="path722" d="M95.209,75.845a1.556,1.556,0,0,0-.126,1.062c.417-.675.555-.7.72-.743a1,1,0,0,1-.594-.319"/></g><g id="body"><path id="path725" d="M94.993,63.151c-.076.356.487.376.524.828"/><path id="path727" d="M92.255,62.6c1.756.74,2.035-.8,1.669-1.034l-.058-.038c.582.229.5,2.565-1.611,1.072"/><path id="path729" d="M81.543,47.957c-.733.314-1.187-.665-.916-1.275-.969.721.321,2.043,1.112,1.629.961-.507.53-2.023-.575-1.518.728-.035,1.064.868.379,1.164"/><path id="path731" d="M80.4,49.262c-.515.429-.966-.118-.976-.635-.4.7.609,1.371,1.189.909A.84.84,0,1,0,79.6,48.2c1.052-.018,1.22.715.8,1.066"/><path id="path733" d="M78.747,50.761c-.67.04-.873-.389-.614-.869-.54.419-.123,1.245.624,1.215a.773.773,0,0,0,.384-1.473c.422.662.3,1.086-.394,1.127"/><path id="path735" d="M84.121,47.729a.6.6,0,0,1-.389-.894c-.748.633.035,1.17.354,1.245.8.176,1.415-.8.461-1.458.435.62.229,1.268-.426,1.107"/><path id="path737" d="M80.416,52.46c-.16.527-.825.213-.956-.236-.148.828,1,.913,1.2.326.233-.713-.362-1.139-.919-.7.5-.126.851.058.68.605"/><path id="path739" d="M82.241,53.7c-.065.668-1.042.464-1.348-.033.043,1.024,1.6.818,1.692.078.108-.908-1.2-1.616-1.659-.236.763-.778,1.385-.509,1.315.191"/><path id="path741" d="M83.368,52.226c-.065.675-1.042.465-1.348-.032.04,1.024,1.6.823,1.689.082.108-.913-1.2-1.616-1.659-.238.766-.778,1.388-.507,1.318.188"/><path id="path743" d="M86.2,48.361c-.612-.273-.108-1.139.457-1.275-.979-.281-1.285,1.268-.61,1.582.828.391,1.905-.623.751-1.506.494.973.04,1.485-.6,1.2"/><path id="path745" d="M88.232,46.858c-.066.675-.806.452-.969.138a.664.664,0,0,0,1.315-.088c.108-.906-1.2-1.616-1.659-.238.76-.776,1.383-.505,1.313.188"/><path id="path747" d="M80.637,44.589a.925.925,0,0,1,.168,1.059c-.188.186-.582.47-.579.184a1.271,1.271,0,0,0,.411-.472.993.993,0,0,0,0-.771"/><path id="path749" d="M79.676,47.112a.879.879,0,0,0-.035-1.152.864.864,0,0,0-1.114-.186c-.256.206-.206.667.113,1.039s.78.5,1.036.3"/><path id="path751" d="M79.423,46.888a.663.663,0,0,0,0-.851.632.632,0,0,0-.814-.09c-.185.148-.153.474.071.74s.554.349.738.2" style="fill:#d2b78c"/><path id="path753" d="M78.5,47.719c-.346.319-.763-.151-.956-.517.078.69.677,1.059,1.1.765.525-.356.424-1.046-.319-1.458.537.582.565.853.171,1.21"/><path id="path755" d="M77.8,48.881a.732.732,0,0,0,0-1.042c-.318-.366-.9-.5-1.152-.3s-.2.672.111,1.044.783.5,1.039.3"/><path id="path757" d="M77.548,48.655a.512.512,0,0,0,.042-.733.717.717,0,0,0-.853-.2c-.186.148-.153.474.07.74a.569.569,0,0,0,.741.2" style="fill:#d2b78c"/><path id="path759" d="M82.311,46.251a.439.439,0,0,1,.176-.851c-.873-.319-.994.685-.382,1.129.741.535,2.154-.075,1.2-.943.444.868-.362.951-1,.665"/><path id="path761" d="M83.272,47.807a.566.566,0,0,0-.416.118c-.256.2-.206.665.113,1.036s.783.507,1.039.3a.728.728,0,0,0,0-1.039,1.154,1.154,0,0,0-.736-.416Zm-.035.223a.85.85,0,0,1,.562.269.517.517,0,0,1-.042.74.584.584,0,0,1-.741-.206c-.225-.258-.256-.592-.072-.735A.445.445,0,0,1,83.237,48.03Z"/><path id="path763" d="M82.407,48.934a.762.762,0,0,0-.442.148c-.444.353.007,1.061.13,1.2.369.424.906.583,1.2.347a1.012,1.012,0,0,0-.043-1.331,1.041,1.041,0,0,0-.848-.368Zm.118.223a.69.69,0,0,1,.486.228c.259.3.359.874.143,1.044s-.747,0-1.006-.3-.294-.682-.08-.853A.7.7,0,0,1,82.525,49.157Z"/><path id="path765" d="M85.092,45.161a1.121,1.121,0,0,0-.8.395c-.208.321.012.815.5,1.109.58.346,1.049.256,1.252-.055a1.047,1.047,0,0,0-.344-1.326,1.014,1.014,0,0,0-.6-.123Zm.115.209a.559.559,0,0,1,.287.078.9.9,0,0,1,.348,1.019c-.15.228-.707.24-1.049.04s-.494-.562-.344-.788A.976.976,0,0,1,85.207,45.37Z"/><path id="path767" d="M91.487,59.08a.883.883,0,0,1,1.182.982.925.925,0,0,1-1.5.379c.583.11.921.112,1.162-.339s-.2-.851-.84-1.022"/><path id="path769" d="M91.738,56.618c.231.214.444.713-.063.826-.467.1-.886-.279-.635-.763.1.279.125.62.507.575.336-.043.191-.638.191-.638"/><path id="path771" d="M89.662,57.414c-.13-.148.756-.713,1.313-.171a.752.752,0,0,1-.455,1.323c.216-.191.625-.5.347-.979s-.906-.3-1.2-.173"/><path id="path773" d="M89.235,58.317c.605-.256,2.011.675.974,1.594s-1.97-.369-1.967-.881c.406.492,1.244,1.117,1.724.635.449-.447.165-.936-.731-1.348"/><path id="path775" d="M91.534,50.078c.286-.09.864.08.806.587a.689.689,0,0,1-.881.675c-.452-.128.582.076.565-.657s-.6-.567-.49-.6"/><path id="path777" d="M90.573,52.121c.131-.424,1.318-.991,1.752.012s-.326,1.449-1.2.884c.68.231,1.323-.053.979-.69-.427-.776-1.1-.437-1.533-.2"/><path id="path779" d="M88.392,51.31a.709.709,0,0,0-.647.515c-.322.775.717,1.2,1.039,1.285a1.132,1.132,0,0,0,1.275-.374c.424-.736-.713-1.248-1.062-1.318A2.307,2.307,0,0,0,88.392,51.31Zm.254.367a2.216,2.216,0,0,1,.278.042c.595.1,1.062.487.771.829a1,1,0,0,1-.982.268c-.16-.05-.933-.457-.665-.861A.621.621,0,0,1,88.646,51.677Z"/><path id="path781" d="M89.509,55.356a.477.477,0,0,0-.439.346c-.216.522.487.816.7.871a.771.771,0,0,0,.863-.251c.288-.5-.482-.841-.718-.888A1.577,1.577,0,0,0,89.509,55.356Zm.09.248a1.071,1.071,0,0,1,.271.025c.4.068.718.327.52.563a.691.691,0,0,1-.665.18c-.108-.037-.633-.308-.452-.579A.413.413,0,0,1,89.6,55.6Z"/><path id="path783" d="M88.036,56.237c.14-.2,1.014-.1,1.22.472a1.04,1.04,0,0,1-1,1.32c.6-.339.771-.869.66-1.152a1.073,1.073,0,0,0-.883-.64"/><path id="path785" d="M86.254,57.5c.56-.238,2.138.866,1.182,1.712s-1.82-.339-1.82-.813c.354.685,1.17,1.046,1.594.587.525-.567,0-1.17-.956-1.486"/><path id="path787" d="M90.116,53.762a.709.709,0,0,0-.647.515c-.321.775.718,1.2,1.039,1.285a1.134,1.134,0,0,0,1.275-.374c.424-.736-.71-1.245-1.062-1.318A2.307,2.307,0,0,0,90.116,53.762Zm.256.364a2.535,2.535,0,0,1,.279.04c.595.1,1.062.482.768.828a1.016,1.016,0,0,1-.984.269c-.158-.05-.931-.457-.665-.861A.639.639,0,0,1,90.372,54.126Z"/><path id="path789" d="M89.406,50.226c-.118.008-.241.085-.321.349a.753.753,0,0,0,.512.883.475.475,0,0,0,.635-.258c.208-.5-.354-.853-.527-.9A.842.842,0,0,0,89.406,50.226Zm.138.289a.351.351,0,0,1,.146.022c.3.073.509.294.361.532a.421.421,0,0,1-.487.191c-.078-.038-.462-.364-.253-.592a.426.426,0,0,1,.233-.153Z"/><path id="path791" d="M90.162,50.1c-.008-.154-.224-1.022.675-.924s-.693-.417-.9.058.246,1.164.226.866"/><path id="path793" d="M90.744,48.535c.153-.234.489-.781,1.408-.3.507.268-.035-.542-.655-.527-.829.027-1.034,1.262-.753.831"/><path id="path795" d="M88.528,53.24c.293-.125,1.182.758.617,1.358s-1.779-.11-1.629-1.225c.168.946,1,1.368,1.33.946s-.017-.833-.318-1.079"/><path id="path797" d="M87.85,55.931c.545-.051.638-.934.206-1.238a.767.767,0,0,0-1.275.5.706.706,0,0,1,1.069-.261.649.649,0,0,1,0,1"/><path id="path799" d="M85.712,57.12c.519.414,1.35-.271,1.23-.9a.934.934,0,0,0-1.539-.645c.643-.141,1.13.2,1.152.68a.784.784,0,0,1-.843.868"/><path id="path801" d="M83.877,57.246c.763.065,1-.894.585-1.463-.4-.545-1.6-.568-1.629.424.384-.881,1.059-.6,1.378-.184a.729.729,0,0,1-.334,1.223"/><path id="path803" d="M83.405,54.106c.354-.168,1.444.115,1.2.959s-1.031.075-1.127-.379c.188.231.806.755.884.281.105-.65-.432-.806-.957-.861"/><path id="path805" d="M85.087,53.755c.374-.176,1.516.12,1.26,1.011s-1.087.08-1.185-.394c.2.236.849.793.926.3.111-.685-.451-.853-1-.913"/><path id="path807" d="M87.13,52.871c-.078.781-.8.63-1.212.342a.838.838,0,0,0,1.611-.284c.125-1.052-1.024-1.784-1.92-.648,1.174-.524,1.6-.213,1.521.59"/><path id="path809" d="M87.258,50.891c.16.525-.02.833-.7.665.662.668,1.405-.01,1.076-.81a.825.825,0,0,0-1.621.04.686.686,0,0,1,1.25.1"/><path id="path811" d="M87.77,49.651a.547.547,0,0,1-.128.791c.216.2.9-.294.447-1.029s-1.338-.429-1.331.045c.45-.258.683-.289,1.012.193"/><path id="path813" d="M89.331,48.911c-.091.339-.352.449-.788.391a.669.669,0,0,0,1.182-.308c.263-.816-.9-1.438-1.514-.811.748-.128,1.275.158,1.12.728"/><path id="path815" d="M89.406,47.079c.078-.346.334-.467.771-.424a.663.663,0,0,0-1.162.354.9.9,0,0,0,1.543.748c-.74.158-1.277-.106-1.152-.678"/><path id="path817" d="M84.6,52.051c-.118.007-.241.085-.322.351a.754.754,0,0,0,.517.881.471.471,0,0,0,.633-.254c.213-.507-.354-.855-.527-.9A.806.806,0,0,0,84.6,52.051Zm.138.288a.3.3,0,0,1,.145.028c.294.068.507.288.362.529a.408.408,0,0,1-.487.181c-.078-.033-.46-.356-.254-.585A.4.4,0,0,1,84.741,52.339Z"/><path id="path819" d="M84.329,50.407c-.138.007-.279.1-.371.4a.871.871,0,0,0,.6,1.021.543.543,0,0,0,.733-.3c.246-.585-.409-.989-.608-1.039A1.068,1.068,0,0,0,84.329,50.407Zm.158.339a.377.377,0,0,1,.168.027c.342.08.588.339.419.618a.481.481,0,0,1-.564.21c-.093-.045-.532-.421-.294-.682A.479.479,0,0,1,84.487,50.746Z"/><path id="path821" d="M85.682,50.015A.585.585,0,0,1,84.67,49.7c-.173.693.638,1.059,1.223.59.715-.57.484-1.687-.635-1.471.815.181.958.751.424,1.2"/><path id="path823" d="M81.764,50.906c-.058.613-.55.613-.976.54.557.562,1.2.183,1.27-.495.093-.835-.881-1.2-1.26-.484.547-.321,1.026-.193.966.439"/></g><g id="wings"><g id="g826"><path id="path828" d="M85.87,32.1c-.176.437-.484.61-1.082.467a.753.753,0,0,0,1.243-.432c.072-.336-.3-.994-1.145-.765.766.027,1.014.579.984.73"/><path id="path830" d="M88.746,29.072c-.279.62-1.491.675-2.326.477.81.607,2.4.582,2.657-.344.111-.512-.138-1.426-1.43-1.072,1.089.04,1.167.59,1.1.939"/><path id="path832" d="M86.216,30c-.253.55-.685.685-1.518.484a1.059,1.059,0,0,0,1.769-.434c.111-.507-.138-1.42-1.43-1.067,1.089.033,1.25.666,1.179,1.017"/><path id="path834" d="M87.913,33.68c-.09-.786-1.333-.952-2.226-.783,1-.522,2.457-.111,2.482.793s-.766,1.578-1.943.943c1.064.209,1.777-.163,1.687-.953"/><path id="path836" d="M91.052,29.6c-.047.454-.75.452-1.126.364a.79.79,0,0,0,1.285-.334c.09-.5-.284-.949-1.09-.728.726.028.984.241.931.7"/><path id="path838" d="M92.849,30.166c-.062.585-.976.489-1.453.379.113.085-.13.113.008.166.665.248,1.536.128,1.641-.5s-.359-1.2-1.385-.929c.923.035,1.252.3,1.189.886"/><path id="path840" d="M91.585,31.31c-.063.58-.854,1.045-1.95.9,1.345.442,2.032-.216,2.148-.856s-.648-1.285-1.674-1.011c.921.03,1.538.386,1.476.968"/><path id="path842" d="M92.066,32.031c1.007.015,1.6.474,1.162.948s-1.34.314-1.5.3c.239.215.216.534-.1.888a.848.848,0,0,1-.946.1.733.733,0,0,1,.2.947c-.3.6-1.458.358-1.613.18a.771.771,0,0,1-.3.731c-.293.218-.868.3-1.044.095.59-.053.851-.166,1.065-.592.117-.231-.118-.472-.475-.768.535.318,1.677.753,2.108.178.179-.231.138-.751-1.044-1.225.572.2,1.571.424,1.893.1s.02-.836-.944-1.089c.768.178,2.224.554,2.442.058.181-.407-.075-.635-.9-.851"/><path id="path844" d="M88.284,31.687c-.251.547-1.516.625-2.346.258.851.736,2.459.422,2.6-.21.111-.507-.138-1.421-1.43-1.067,1.089.033,1.247.673,1.179,1.019"/><path id="path846" d="M88.415,38.772c-.053.667-.984.655-1.534.529.743.557,1.82.259,1.878-.487.077-1-1.162-1.561-2.344-1.234,1.061.032,2.075.268,2,1.192"/><path id="path848" d="M89.6,40.938c-.055.67-.983.667-1.538.534.743.557,1.822.264,1.88-.484.077-1-1.162-1.564-2.347-1.242,1.064.035,2.078.271,2,1.192"/><path id="path850" d="M90.638,43.016c-.052.6-.845.617-1.345.5a1.049,1.049,0,0,0,1.7-.437c.178-.813-.507-1.29-1.561-.9,1.009-.04,1.267.151,1.209.839"/><path id="path852" d="M90.591,45.129c-.066.67-.984.665-1.534.529.743.555,1.787.264,1.878-.486.107-.906-.663-1.461-1.848-1.142,1.064.037,1.574.4,1.5,1.1"/><path id="path854" d="M92.445,42.125a1.078,1.078,0,0,1-1.674-.427c-.18-.537.66-.6,1.288-.715-.126-.03.032-.1-.085-.121-.839-.148-1.689.2-1.551.919a1.29,1.29,0,0,0,2.175.484c-.112.056-.06-.2-.153-.14"/><path id="path856" d="M91.768,39.823a1.121,1.121,0,0,1-1.832-.426c-.141-.472.632-.788,1.2-.756-.086-.017-.01-.1-.093-.11-.738-.06-1.571.3-1.448.931a1.317,1.317,0,0,0,2.244.487c-.063.027-.021-.166-.068-.126"/><path id="path858" d="M90.641,37.314c.236.833-.319.956-.894.891-.619-.068-.818-.364-.527-.665,0-.264-.085-.136-.133-.1-.587.515.179.956.67,1.009.766.083,1.316-.291.989-1.149,0,.052-.12-.033-.1.01"/><path id="path860" d="M87.76,36.621c-.055.67-.838.487-1.456.452.7.494,1.742.316,1.8-.427.077-1-1.067-1.425-2.252-1.1,1.065.032,1.978.15,1.908,1.074"/><path id="path862" d="M95.025,32.179c-.012.085-.482.236-.482.236a2.04,2.04,0,0,1-.9-.028,1.165,1.165,0,0,0,.663.206l.9-.5c.09-.5-.56-.986-1.368-.765.728.025,1.283.263,1.192.853"/><path id="path864" d="M93.161,46.444c-.056.555-.816.547-1.27.439.615.459,1.48.216,1.553-.4.088-.753-.547-1.215-1.526-.944.879.026,1.3.329,1.243.9"/></g><path id="path866" d="M84.856,44.567c4.224.78,6.287,1.724,8.159,2.989" style="fill:none;stroke:#000;stroke-width:0.216579px"/><path id="path868" d="M92.526,48.407c1.418-1.9.86-4.45.677-5.271a9.206,9.206,0,0,0-1.114-2.582c-1.29-1.975-1.784-3.627-1.3-5.276s3.948-2.763,5.293-3.513,1.715-1.456,3.895-2.5c3.273-1.569,5.868-.856,11.01-.105s14.153,4.949,16.384,6.374.8,2.244.075,2.093a2.871,2.871,0,0,1,2.023,2.4c-.035.8-.65.926-3.069.065,1.407.921,1.049,1.878-.377,1.677a16.631,16.631,0,0,1-5.584-1.677c.7.871.725,1.443.264,1.89-1.1.512-2.242-.073-4.212-.544,1.059,2.6-1.995,2.032-3.057,1.418.3,2.037-1.621,1.962-2.83,1.418a35.869,35.869,0,0,1,4.093,5.463c.436.879,1.064,3.182-1.669.429a9.4,9.4,0,0,1-1.724-1.945c1.561,1.938.893.972,1.839,2.169,2.026,2.567,2.131,3.1,1.622,3.614-.778.113-1.712-.793-5.457-5.135,4.736,5.87,2.277,5.34,1.868,5.155a23.587,23.587,0,0,1-3.536-3.045l-.249-.238c.3.394-.263-.095,0,.241a1.22,1.22,0,0,1,.058,1.621.876.876,0,0,1-1.089-.017c-.768-.741-2.776-2-3.3-2.435.974.806,2.7,1.885,3.3,2.435.855.778,1.352,1.671.86,2.314-.243.316-1.049.286-1.593-.191-.138-.118-2.191-1.584-2.886-2.126,1.219.906,3.2,2.324,3.784,2.824.768.657,1.963,2.376,1.574,2.956a.583.583,0,0,1-.229.2c-.534.274-1.485-.2-1.759-.429-.319-.263-2.926-2.218-3.825-2.884.487.379,3.414,2.585,3.75,2.831.562.4.974,2.093.429,2.425a1.212,1.212,0,0,1-1.37-.055c-.467-.229-2.174-1.694-3.2-2.505.843.68,2.7,2.093,3.092,2.487.211.211,1.368,1.827.672,2.352a2.15,2.15,0,0,1-2.138-.244c-.351-.233-1.031-.788-1.5-1.036" style="fill:#785a3c;stroke:#000;stroke-width:0.214574px"/><g id="g870"><path id="path872" d="M91.931,38.543a4.248,4.248,0,0,1-.083-2.416c.487-1.649,3.765-2.691,5.107-3.441s1.717-1.461,3.9-2.507c3.272-1.566,5.905-1.042,11.045-.292A42.2,42.2,0,0,1,122.085,33.2a43.662,43.662,0,0,0-10.255-3.172c-3.594-.462-7.177-1.5-10.892.283a29.347,29.347,0,0,0-3.91,2.517c-1.011.56-4.558,2.066-4.9,3.351a2.185,2.185,0,0,0,.038,1.767c.088.507.015.73-.236.594"/><path id="path874" d="M98.019,56.332c.675.55,2.174,1.19,2.475.625s.171-.979-.841-1.659c.806.53,2.532-.186.826-1.767,2.043.964,2.289-1.26,1.2-1.977,1.16.454,1.95-1.014.6-1.958.883.206,1.932-.467.657-1.676,2.307,1.531,3.921,1.039,3.266-.58,2.572.133.885-1.98-1.215-3.125,2.532.924,3.7-1.019,1.972-1.586,2.026.058,2.59-1.5.49-2.065,1.445.073,3.471-1.34.77-2.166,5.815,2.356,8.142.773,5.389-.961.82.15,2.381-2.031-.618-2.3,1.611.434,4.726-1.48.713-2.429,0,0-3.729-.924-5.253-1.152.133.168,4.52,1.134,5.25,1.36s1.652.753,1.408,1.32-1.147.886-2.381.655-4.036-.775-4.279-.813c.451.131,3.957,1.094,4.314,1.187s1.827.512,1.651,1.175c-.208.768-.976.733-1.521.7s-4.053-.909-4.5-.981,4.708,1.28,4.934,1.43,1.165.741,1.049,1.207-1.932.527-2.906.284-7.763-2.04-7.916-2c.583.188,4.053,1.265,4.483,1.476s1.405.487,1.239.976-1.5.9-2.027.808-5.552-1.227-6.322-1.375c.732.243,6.023,1.543,6.379,1.732s1.33.665,1.125,1.054a1.445,1.445,0,0,1-1.652.547c-.883-.171-5.478-1.529-5.945-1.644.805.341,5.569,1.907,5.87,2.133s.994.53.637.946-1.669.352-2.233.221-4.631-1.395-5.082-1.528,4.306,1.742,4.723,1.962c.9.475,2.813,2.1,2.364,2.43a1.431,1.431,0,0,1-1.463.055c-.133-.053-5.361-2.336-5.607-2.487.658.286,5.552,2.7,5.813,3a.782.782,0,0,1-.171,1.091,3.132,3.132,0,0,1-2.158-.529,18.689,18.689,0,0,0-4.746-1.566,18.632,18.632,0,0,1,3.94,1.679c.467.374.693.886.447,1.091a1.337,1.337,0,0,1-1.2.091,25.748,25.748,0,0,0-3.355-1.4c.863.412,2.891,1.5,3.3,1.79.525.381.916,1,.73,1.34s-.788.391-1.2.223-4.332-1.925-4.743-2.09,4.274,2.11,4.65,2.467.881,1.2.615,1.566-.976.371-1.573.055c-.706-.376-3.414-2.038-3.788-2.342.525.4,3.527,2.563,3.788,2.942s.67.964.391,1.2-1.159.073-1.37-.1-3.466-2.372-3.8-2.575c.771.69,3.526,2.971,3.845,3.235s1.069,1,.73,1.244-1.631-.464-1.9-.582-.8-.258-.916-.339.916.738.54,1.037-.374.171-.786.231c.412.3,1.539,1.277.9,1.769s-1.93-.416-2.023-.6.562.753.148,1.072-1.086-.11-1.182-.206.638.454.206.906-.73-.093-.846-.206c-.053.131-.02.545-.414.545-.281,0-.444-.284-.6-.452.017.131.2.879.675.756.278-.073.432-.264.429-.417.168.188.713.339.919.133a.735.735,0,0,0,.13-.755.861.861,0,0,0,.881-.015.606.606,0,0,0,.151-.738c.263.281,1.352.753,1.859.057s-.356-1.465-.579-1.636c.2.055.936-.389.243-1.014"/><path id="path876" d="M107.722,29.37c2.4.154,3.265.753,3.057,1.7-.146.66-.977.678-1.426.6.673.412.577.9.522,1.4-.075.677-.733,1-1.425,1.011.431.133,1.164.57,1.049,1.21a.964.964,0,0,1-1.014.9c.4.15,1.031.434.808,1.3s-.941.884-2.254.565c1.182.339,2.026-.243,2.028-.663a1,1,0,0,0-.785-1.016c-.528-.073-5.085-1.318-5.386-1.318.8.076,4.8.871,5.1.9s1.082-.151,1.145-.527c.113-.675-.487-1.052-.974-1.167s-4.033-.946-4.522-1.057c.788.1,3.787.575,4.09.585.713.043,1.765-.168,1.8-.748a1.4,1.4,0,0,0-.562-1.227,14.652,14.652,0,0,0-4.126-.68,25.87,25.87,0,0,1,4.108.306c.788.078,1.468-.148,1.521-.487.095-.642-.562-1.358-2.753-1.586"/><path id="path878" d="M121.472,32.616c4.277,1.919,7.592,3.453,7.068,4.5-.281.563-.833.46-1.094.5,1.581.5,2.273,2.141,1.9,2.816-.356.645-2.7-.286-2.946-.352.542.276,1.423,1.122.525,1.614s-5.685-1.021-6.486-1.614a1.48,1.48,0,0,1,.447,1.684c-.587,1.042-3.83-.228-4.394-.336.248.6.339,1.446-.206,1.729a3.756,3.756,0,0,1-2.831-.266c.075.429,0,1.383-.77,1.6a3.1,3.1,0,0,1-2.307-.394c-1.179-.68-3.9-1.508-4.628-1.94.71.223,4.365,1.528,4.706,1.636a3.648,3.648,0,0,0,2.306.211c.337-.223.507-1.182-.093-1.413s-5.641-2.111-6.133-2.261,6.284,1.907,6.809,2.1,2.309.748,2.665.359a1.2,1.2,0,0,0-.336-1.734c-.6-.229-7.181-2.472-7.9-2.736.936.264,8.546,2.623,9.037,2.756.284.075,3.06.906,3.471.567s.264-1.182-.486-1.636-5.833-2.4-6.807-2.7c2.382.75,6.681,2.155,7.632,2.512a35.283,35.283,0,0,0,5.308,1.583c1.258-.057,1.13-.715-.093-1.357-.788-.414-10.33-4.038-12.844-4.907,2.045.6,11.8,3.923,13.166,4.415,1.154.416,2.64.946,2.813.479.434-1.189-1.516-2.168-2.266-2.474s-5.627-2.339-13.279-4.829c4.239.718,13.053,4.47,13.655,4.565.409.065,1.426.105,1.22-.62-.121-.4-.718-1.059-6.832-4.06"/><path id="path880" d="M110.056,43.834c.713.133,4.344,5.313,4.638,5.895s.627,1.456.251,1.684-1.463-.379-2.176-1.169a5.913,5.913,0,0,0,1.22.963c.311.166,1.794,2.44.923,2.939s-2.241-1.154-2.612-1.6-1.406-1.751-1.592-1.939,2.435,3.129,1.386,3.6c-.9.4-2.176-.826-2.512-1.087s-4.48-4.377-4.049-4.414c.189-.148,3.8,3.752,4.33,4.166s1.367,1.262,1.97,1.074-.392-1.749-.562-2-2.979-4.34-3.333-4.731c.785.926,4.106,4.352,4.535,4.864s1.666,2.151,2.193,1.731-.9-2.58-1.255-2.974c-1.011-.758-4.158-4.941-5.022-6.086,1.649,1.712,4.571,5.067,4.852,5.391s1.217,1.167,1.48,1-.263-1.393-.464-1.659c-.168-.228-3.3-4.465-4.2-5.632"/><path id="path882" d="M100.835,32.964c.58.209,2.131.53,1.835,1.579-.206.733-1.313.432-1.614.472a.761.761,0,0,1,.131,1.094,1.664,1.664,0,0,1-1.765.371c.487.287.766.65.525,1.132-.224.45-.733.417-1.107.414.4.2.979.563.655,1.26-.226.49-.412.359-.75.434a.848.848,0,0,1,.75.939.8.8,0,0,1-.713.793,1.114,1.114,0,0,1-.489,2c.188.153.477.214.339.906a.768.768,0,0,1-.788.643.967.967,0,0,1,.487,1.127.929.929,0,0,1-1.014.642,15.05,15.05,0,0,1-1.727-.341c.509-.053,1.39.038,1.767.038s.622-.076.672-.374a.807.807,0,0,0-.374-.864,7.482,7.482,0,0,0-1.274-.492c.544-.017,1,.133,1.274.081s.676-.171.713-.535.023-.464-.319-.615a8.641,8.641,0,0,0-1.518-.434c.562.038,1.162,0,1.5,0a1.034,1.034,0,0,0,.828-.663.807.807,0,0,0-.432-.941c-.323-.148-1.558-.153-1.912-.284a12.31,12.31,0,0,1,1.933-.075.75.75,0,0,0,.692-.62c.053-.258-.185-.545-.487-.66a20.552,20.552,0,0,1-2.007-.675c.489-.058,1.425.243,1.8.206s.71-.184.753-.45c.055-.356-.226-.657-.6-.848a14.853,14.853,0,0,1-1.556-.826c.881.133,1.33.357,1.707.359s.845-.02.918-.248a.6.6,0,0,0-.223-.693c-.264-.226-1.426-1.036-1.779-1.363a12.634,12.634,0,0,1,1.611.721c.62.206,1.483.055,1.634-.249s.185-.579-.151-.788c-.251-.15-1.707-.718-2.193-1,1.049.206,1.593.435,2.083.548.313.07,1.573.263,1.744-.229.128-.391-.171-.808-1.559-1.491"/><path id="path884" d="M102.75,32.339c-.6-.737-1.518-.15-.846.7-.243-.851.169-1.057.846-.7"/><path id="path886" d="M100.1,31.358c1.044.557,1.84-.459.894-1.159-.06-.043-.058.118-.136.077.633.708.254,1.173-.758,1.082"/><path id="path888" d="M98.426,33.574c1.348.715,2.352-.723.826-1.566.886,1.109.4,1.679-.826,1.566"/><path id="path890" d="M94.6,35.7c1.345.715,3.609-1.1,2.078-1.935.888,1.1-.856,2.045-2.078,1.935"/><path id="path892" d="M95.673,35.971a1,1,0,0,1-.9,1.619c.449.263.672.509.6.871-.116.542-.555.509-.939.637.974.339,1.95.472.881,1.674,1.257-.637.66-1.451-.131-1.639.169-.1.846-.79.319-1.45.434-.038,1.089-1.22.171-1.712"/><path id="path894" d="M92.463,36.44c.4,0,1.2.254,1.162,1.014a.837.837,0,0,1-.374.7.871.871,0,0,1,.11,1.227c.02-.324.189-1.056-.993-1.132.376-.17.619-.113.825-.416a.724.724,0,0,0,.02-.859,2.434,2.434,0,0,0-.75-.532"/><path id="path896" d="M93.289,40.037c.637-.088,1.46-.128,1.252,1,.545-.133,1.483.469.826,1.277a.851.851,0,0,1,.148,1.41c.451.713.544,1.21.017,1.491.189.753.655,1.544-.768,2a1.074,1.074,0,0,0,.58-1.491c-.281-.391-.223-.356-.637-.544.524-.229.825-.1.825-.776a.9.9,0,0,0-.655-.715c.56-.168.58-.339.525-.736a.852.852,0,0,0-.673-.634c.224-.1.751-.435.467-.811-.319-.427-.881-.168-1.257-.095.281-.3.411-.756.243-.927a2.232,2.232,0,0,0-.893-.451"/><path id="path898" d="M94.067,48.647a1.17,1.17,0,0,1,1.46,1.381c-.223,1.353-.055-.452-.539-.909-.392-.361-1.185-.374-.921-.472"/><path id="path900" d="M99.864,65.006c-1.074-1.21-1.277-1.491-1.277-1.491s.062.063,1.458,1.333l-.181.158"/><path id="path902" d="M95.984,62.421c.791.283,1.257-.035,1.054-.773.75.524,1.481.346,1.463-.638.939.342,1.222-.113,1.034-.9,1.815.173,1.441-1.2.881-1.732.562.527.751,1.694-1.069,1.526.186.785-.1,1.242-1.031.9.02.979-.713,1.169-1.466.637.206.736-.075,1.263-.866.982"/><path id="path904" d="M100.529,63.65c-.078.2-.454.505-1.28-.045.658.113.836.183,1.014-.168.3-.6-.806-1.375-.806-1.375.342.13,1.426.7,1.072,1.588"/><path id="path906" d="M101.844,61.6c-.248.319-.642.472-1.353.038.655.108.911.1,1.087-.241a1.1,1.1,0,0,0-.281-1.172.938.938,0,0,1,.547,1.375"/><path id="path908" d="M97.081,55.564c.148.013-.472.264-.284.527s.113.319.319.357-.617.09-.638-.284a.516.516,0,0,1,.6-.6"/><path id="path910" d="M96.16,57.01c.037.19-.452,1.47-1.689.472-.962-.781-.018-1.544.828-1.321-.188.058-1.3.151-.527,1.075a.825.825,0,0,0,1.388-.226"/><path id="path912" d="M94.059,57.253c.171.246.512.816.113,1.248a.933.933,0,0,1-1.031.035c0,.2-.861,1.086-1.333-.209.188.131.562.452.863.3a.465.465,0,0,0,.171-.66c-.055-.131.723.617,1.124.284.429-.357.093-1,.093-1"/><path id="path914" d="M93.279,49.473c-.048-.276,1.761.55,1.272,1.493s-1.559.148-1.689-.055.934.442,1.277.015c.47-.587-.825-1.222-.86-1.453"/><path id="path916" d="M94.119,52c.244.115.9,1.393-.527,1.528s-.84-1.45-.635-1.581-.449,1.3.618,1.17S94.119,52,94.119,52"/><path id="path918" d="M92.563,53.361a.663.663,0,0,0-.61.476c-.3.736.678,1.14.979,1.213s1.057.205,1.333-.276c.4-.693-.8-1.245-1.129-1.308A2.136,2.136,0,0,0,92.563,53.361Zm.259.341a1.713,1.713,0,0,1,.261.04c.559.093,1.132.532.853.858s-.906.226-1.056.176-.879-.429-.628-.805a.6.6,0,0,1,.57-.269Z"/><path id="path920" d="M93.329,55.107c.394.133,1.142,1.694-.585,1.659s-1.029-1.245-.673-1.586c.036.191-.758,1.333.673,1.268,1.222-.061.622-1.095.585-1.341"/><path id="path922" d="M94.912,54.41c-.158-.015-.336.04-.479.381-.223.542.359.806.582.864s.675.115.881-.239c.3-.519-.484-.9-.73-.949A2.042,2.042,0,0,0,94.912,54.41Zm.181.271c.035.005.068.012.095.017v-.005c.417.071.731.362.525.6a.655.655,0,0,1-.675.17c-.111-.037-.5-.283-.319-.564.138-.214.269-.234.374-.221Z"/></g><g id="g924"><path id="path926" d="M97.435,55.858c.675.549,2.173,1.189,2.474.625s.171-.979-.841-1.659c.806.529,2.533-.186.826-1.767,2.043.964,2.289-1.26,1.2-1.978,1.16.455,1.95-1.014.6-1.957.884.206,1.933-.467.658-1.677,2.306,1.531,3.92,1.039,3.265-.579,2.572.133.886-1.981-1.215-3.128,2.532.924,3.7-1.018,1.973-1.583,2.025.058,2.59-1.5.489-2.066,1.446.073,3.471-1.34.771-2.165,5.815,2.356,8.141.773,5.388-.962.821.151,2.382-2.03-.618-2.3,1.612.434,4.726-1.481.713-2.429,0,0-3.729-.924-5.253-1.152.133.168,4.52,1.134,5.251,1.36s1.651.753,1.408,1.32-1.147.886-2.382.655-4.036-.776-4.279-.813c.452.13,3.958,1.094,4.314,1.187s1.827.512,1.651,1.174c-.208.768-.976.733-1.52.7s-4.054-.909-4.5-.982,4.708,1.28,4.934,1.431,1.165.74,1.049,1.207-1.932.527-2.906.284-7.762-2.041-7.915-2c.582.188,4.053,1.265,4.482,1.476s1.405.486,1.24.976-1.5.9-2.028.808-5.552-1.227-6.322-1.375c.733.243,6.023,1.543,6.38,1.731s1.33.665,1.124,1.054a1.444,1.444,0,0,1-1.652.548c-.883-.171-5.478-1.529-5.945-1.644.806.341,5.569,1.907,5.87,2.133s.994.529.638.946-1.669.351-2.234.221-4.63-1.4-5.082-1.528,4.307,1.741,4.723,1.962c.9.474,2.814,2.1,2.364,2.43a1.433,1.433,0,0,1-1.463.055c-.133-.053-5.361-2.337-5.607-2.487.658.286,5.552,2.7,5.813,3A.782.782,0,0,1,105.1,48a3.128,3.128,0,0,1-2.158-.53A18.8,18.8,0,0,0,98.2,45.9a18.7,18.7,0,0,1,3.94,1.679c.467.374.693.886.447,1.092a1.334,1.334,0,0,1-1.2.09,25.776,25.776,0,0,0-3.355-1.4c.863.412,2.891,1.5,3.3,1.789.525.382.916,1,.731,1.341s-.789.391-1.2.223-4.331-1.925-4.743-2.091,4.274,2.111,4.651,2.467.88,1.205.614,1.566-.976.372-1.573.056c-.7-.377-3.413-2.038-3.787-2.342.524.4,3.526,2.563,3.787,2.942s.67.961.391,1.2-1.159.073-1.37-.1-3.466-2.371-3.805-2.575c.771.691,3.526,2.972,3.843,3.235s1.069,1,.73,1.245-1.631-.464-1.9-.582-.8-.259-.916-.339.916.738.54,1.037-.374.17-.786.228c.412.3,1.539,1.277.9,1.769s-1.93-.416-2.023-.6.562.753.148,1.072-1.087-.11-1.182-.206.637.455.206.906-.731-.093-.846-.205c-.055.13-.02.544-.414.544-.281-.005-.444-.283-.6-.452.018.131.2.879.676.753.278-.072.431-.263.429-.416.168.188.713.338.918.133a.736.736,0,0,0,.131-.756.866.866,0,0,0,.881-.015.605.605,0,0,0,.15-.738c.264.281,1.353.753,1.86.058s-.356-1.466-.58-1.636c.206.055.936-.389.244-1.014" style="fill:#c88e44"/><path id="path928" d="M107.14,28.894c2.4.153,3.265.753,3.056,1.7-.145.66-.976.678-1.425.6.673.411.577.9.522,1.395-.075.678-.73,1-1.426,1.011.432.133,1.165.57,1.049,1.21a.962.962,0,0,1-1.013.9c.4.151,1.031.434.808,1.3s-.941.884-2.254.565c1.182.339,2.025-.243,2.028-.662A1,1,0,0,0,107.7,35.9c-.527-.073-5.085-1.317-5.386-1.317.806.075,4.8.87,5.1.9s1.081-.15,1.144-.527c.113-.675-.487-1.052-.974-1.167s-4.033-.946-4.522-1.057c.788.1,3.787.575,4.091.585.712.043,1.764-.168,1.8-.748a1.394,1.394,0,0,0-.562-1.227,14.652,14.652,0,0,0-4.126-.68,25.87,25.87,0,0,1,4.108.306c.788.078,1.469-.148,1.521-.487.1-.642-.562-1.357-2.753-1.586" style="fill:#c88e44"/><path id="path930" d="M120.89,32.141c4.277,1.92,7.592,3.454,7.068,4.505-.282.562-.834.459-1.095.5,1.581.5,2.274,2.14,1.9,2.815-.356.645-2.7-.286-2.946-.351.544.276,1.425,1.122.524,1.614s-5.684-1.022-6.485-1.614a1.479,1.479,0,0,1,.447,1.682c-.587,1.041-3.83-.229-4.394-.337.248.6.338,1.446-.206,1.729a3.756,3.756,0,0,1-2.831-.266c.075.43,0,1.383-.771,1.6a3.1,3.1,0,0,1-2.306-.394c-1.18-.678-3.9-1.508-4.631-1.94.711.223,4.365,1.528,4.706,1.636a3.644,3.644,0,0,0,2.307.211c.338-.223.507-1.182-.093-1.413s-5.642-2.11-6.134-2.261,6.284,1.907,6.809,2.1,2.309.747,2.665.358a1.2,1.2,0,0,0-.336-1.734c-.6-.228-7.18-2.472-7.9-2.735.936.263,8.546,2.622,9.038,2.755.283.076,3.059.906,3.471.568s.263-1.183-.487-1.637-5.833-2.4-6.807-2.7c2.382.751,6.681,2.156,7.632,2.512a35.206,35.206,0,0,0,5.308,1.584c1.258-.058,1.13-.715-.092-1.358-.788-.414-10.33-4.038-12.845-4.906,2.045.6,11.8,3.923,13.166,4.414,1.154.417,2.64.947,2.813.48.434-1.19-1.516-2.169-2.266-2.475s-5.627-2.339-13.279-4.828c4.239.717,13.053,4.472,13.655,4.565.409.065,1.423.1,1.22-.62-.118-.4-.718-1.054-6.829-4.056" style="fill:#c88e44"/><path id="path932" d="M100.253,32.488c.58.208,2.131.529,1.835,1.578-.206.733-1.313.432-1.614.472a.761.761,0,0,1,.13,1.094A1.662,1.662,0,0,1,98.84,36c.487.286.766.65.525,1.131-.224.45-.733.417-1.107.415.4.2.979.562.655,1.259-.226.49-.414.359-.751.435a.846.846,0,0,1,.751.938.8.8,0,0,1-.713.793,1.115,1.115,0,0,1-.489,2c.188.153.477.213.338.906a.768.768,0,0,1-.788.642.967.967,0,0,1,.487,1.127.928.928,0,0,1-1.014.642,14.617,14.617,0,0,1-1.726-.341c.509-.053,1.39.038,1.767.038s.622-.076.672-.374a.807.807,0,0,0-.374-.864,7.464,7.464,0,0,0-1.275-.492c.545-.015,1,.133,1.275.081s.675-.171.713-.535.023-.464-.319-.615a8.668,8.668,0,0,0-1.518-.434c.562.038,1.162,0,1.5,0a1.033,1.033,0,0,0,.828-.663.807.807,0,0,0-.432-.941c-.324-.148-1.558-.153-1.912-.284a12.3,12.3,0,0,1,1.932-.075.751.751,0,0,0,.693-.62c.053-.258-.186-.544-.487-.66a20.571,20.571,0,0,1-2.008-.675c.49-.058,1.426.243,1.8.2s.71-.183.753-.449c.055-.356-.226-.657-.6-.848a15.334,15.334,0,0,1-1.556-.826c.881.133,1.33.357,1.706.359s.846-.023.919-.248a.6.6,0,0,0-.223-.693c-.264-.226-1.426-1.037-1.78-1.363a12.677,12.677,0,0,1,1.611.72c.62.206,1.484.056,1.634-.248s.186-.58-.15-.788c-.251-.151-1.707-.718-2.194-1,1.049.206,1.594.434,2.083.547.314.07,1.574.264,1.745-.228.128-.387-.174-.806-1.559-1.488" style="fill:#c88e44"/><path id="path934" d="M99.518,30.881c1.044.557,1.839-.459.893-1.159-.06-.043-.058.118-.135.078.635.707.256,1.174-.758,1.081" style="fill:#c88e44"/><path id="path936" d="M97.844,33.1c1.347.715,2.351-.723.825-1.566.884,1.109.4,1.676-.825,1.566" style="fill:#c88e44"/><path id="path938" d="M94.016,35.223c1.346.715,3.609-1.1,2.078-1.935.889,1.107-.855,2.048-2.078,1.935" style="fill:#c88e44"/><path id="path940" d="M95.091,35.494a1,1,0,0,1-.9,1.621c.449.264.672.51.6.871-.115.542-.554.51-.938.638.974.339,1.95.472.881,1.674,1.257-.64.66-1.451-.131-1.639.168-.1.846-.791.321-1.451.432-.037,1.087-1.222.169-1.714" style="fill:#c88e44"/><path id="path942" d="M91.881,35.966c.4,0,1.2.253,1.162,1.014a.84.84,0,0,1-.374.7.87.87,0,0,1,.11,1.227c.02-.324.188-1.057-.994-1.132.377-.171.62-.113.826-.417a.724.724,0,0,0,.02-.858,2.434,2.434,0,0,0-.75-.532" style="fill:#c88e44"/><path id="path944" d="M92.7,39.56c.637-.088,1.461-.128,1.252,1,.545-.133,1.483.469.826,1.277a.852.852,0,0,1,.148,1.411c.452.712.545,1.209.018,1.49.188.753.655,1.544-.768,2a1.074,1.074,0,0,0,.579-1.491c-.281-.391-.223-.356-.637-.544.524-.229.826-.1.828-.773a.9.9,0,0,0-.655-.716c.56-.168.58-.336.525-.735a.854.854,0,0,0-.673-.635c.223-.1.75-.434.467-.81-.319-.427-.881-.169-1.258-.1.281-.3.412-.755.244-.926a2.313,2.313,0,0,0-.9-.454" style="fill:#c88e44"/></g><path id="path946" d="M106.093,51.95c-.768-.74-2.776-2-3.3-2.434.972.808,2.7,1.887,3.3,2.434.856.778,1.353,1.672.861,2.314-.246.316-1.049.286-1.594-.191-.138-.118-2.191-1.583-2.886-2.125,1.22.906,3.2,2.324,3.785,2.823.768.658,1.962,2.377,1.573,2.957m-.231.208c-.534.273-1.485-.2-1.759-.432-.319-.263-2.926-2.218-3.825-2.883.487.378,3.414,2.585,3.75,2.83.562.405.974,2.094.429,2.425a1.212,1.212,0,0,1-1.37-.055c-.467-.229-2.174-1.694-3.2-2.5.843.678,2.7,2.093,3.092,2.487.208.211,1.368,1.827.672,2.352a2.15,2.15,0,0,1-2.138-.244c-.351-.233-1.031-.788-1.5-1.036" style="fill:none;stroke:#c88e44;stroke-width:0.214574px"/></g></g></g></g><rect x="0.551" y="0.525" width="185.859" height="124.642" style="fill:none;stroke:#3e3c3c;stroke-width:1.04993px"/></g></g></g></svg>