<svg xmlns="http://www.w3.org/2000/svg" viewBox="0 0 190.45 123.844"><g id="Layer_2" data-name="Layer 2"><g id="Indiana"><g id="Indiana-2" data-name="Indiana"><rect id="rect1526" width="190.45" height="123.844" style="fill:#000f5d"/><g id="use4474"><path id="path72" d="M117.156,19.571l3.864,0,1.273-3.774,1.18,3.786h3.891l-3.016,2.45,1.093,3.585-3.187-2.154L119.1,25.631,120.171,22Z" style="fill:#d59f0f"/></g><g id="use4472"><path id="path72-2" data-name="path72" d="M134.133,34.735l3.864,0,1.273-3.774,1.18,3.786h3.891l-3.016,2.45,1.093,3.585-3.187-2.154L136.072,40.8l1.076-3.633Z" style="fill:#d59f0f"/></g><g id="use4468"><path id="path72-3" data-name="path72" d="M143.145,56.564l3.864,0,1.273-3.775,1.18,3.786h3.891l-3.016,2.451,1.093,3.585-3.187-2.155-3.159,2.172,1.076-3.633Z" style="fill:#d59f0f"/></g><g id="use4466"><path id="path72-4" data-name="path72" d="M124.77,62.224l3.864,0,1.273-3.774,1.18,3.786h3.891l-3.016,2.451,1.093,3.584-3.187-2.154-3.159,2.172,1.076-3.634Z" style="fill:#d59f0f"/></g><g id="use4464"><path id="path72-5" data-name="path72" d="M139.646,80.717l3.863,0,1.273-3.775,1.18,3.786h3.891l-3.016,2.451,1.093,3.585-3.187-2.155-3.159,2.172,1.076-3.633Z" style="fill:#d59f0f"/></g><g id="use4462"><path id="path72-6" data-name="path72" d="M126.034,99.391l3.864,0,1.273-3.775,1.18,3.786h3.891l-3.016,2.451,1.093,3.585-3.187-2.155-3.159,2.172,1.076-3.634Z" style="fill:#d59f0f"/></g><g id="use4460"><path id="path72-7" data-name="path72" d="M115.637,83.858l3.864,0,1.273-3.774,1.18,3.786h3.891l-3.016,2.451,1.093,3.584-3.187-2.154-3.159,2.171,1.076-3.633Z" style="fill:#d59f0f"/></g><g id="use4458"><path id="path72-8" data-name="path72" d="M105.769,110.987l3.864,0,1.273-3.774,1.18,3.786h3.891l-3.016,2.451,1.093,3.585-3.187-2.155-3.159,2.172,1.076-3.634Z" style="fill:#d59f0f"/></g><g id="use4442"><path id="path72-9" data-name="path72" d="M81.33,110.987l3.863,0,1.273-3.774L87.646,111h3.891l-3.016,2.451,1.093,3.585-3.187-2.155-3.159,2.172,1.076-3.634Z" style="fill:#d59f0f"/></g><g id="use4440"><path id="path72-10" data-name="path72" d="M72.612,83.858l3.864,0,1.273-3.774,1.18,3.786H82.82L79.8,86.317,80.9,89.9,77.71,87.747l-3.159,2.171,1.075-3.633Z" style="fill:#d59f0f"/></g><g id="use4444"><path id="path72-11" data-name="path72" d="M61.023,99.391l3.864,0,1.273-3.775L67.34,99.4h3.891l-3.016,2.451,1.093,3.585-3.187-2.155-3.159,2.172,1.076-3.634Z" style="fill:#d59f0f"/></g><g id="use4446"><path id="path72-12" data-name="path72" d="M47.668,80.717l3.864,0,1.273-3.775,1.18,3.786h3.891L54.86,83.175l1.093,3.585-3.187-2.155-3.159,2.172,1.076-3.633Z" style="fill:#d59f0f"/></g><g id="use4450"><path id="path72-13" data-name="path72" d="M44.658,56.564l3.864,0L49.8,52.786l1.18,3.786h3.891L51.85,59.022l1.093,3.585-3.187-2.155L46.6,62.624l1.075-3.633Z" style="fill:#d59f0f"/></g><g id="use4448"><path id="path72-14" data-name="path72" d="M63.382,62.224l3.863,0,1.273-3.774,1.18,3.786H73.59l-3.016,2.451,1.093,3.584-3.188-2.154L65.32,68.285,66.4,64.651Z" style="fill:#d59f0f"/></g><g id="use4452"><path id="path72-15" data-name="path72" d="M53.868,34.735l3.864,0,1.273-3.774,1.18,3.786h3.891l-3.016,2.45,1.093,3.585-3.187-2.154L55.807,40.8l1.076-3.633Z" style="fill:#d59f0f"/></g><g id="use4454"><path id="path72-16" data-name="path72" d="M70.949,19.571l3.864,0,1.273-3.774,1.18,3.786h3.891l-3.016,2.45,1.093,3.585L76.047,23.46l-3.159,2.171L73.964,22Z" style="fill:#d59f0f"/></g><g id="use4456"><path id="path72-17" data-name="path72" d="M94.094,13.236l3.864,0,1.273-3.775,1.18,3.786H104.3l-3.016,2.451,1.093,3.585-3.187-2.154L96.033,19.3l1.076-3.633Z" style="fill:#d59f0f"/></g><g id="use4438"><path id="path112" d="M119.219,26.648,107.8,42.916l-.708-.5L118.514,26.15Z" style="fill:#d59f0f"/></g><g id="use4436"><path id="path110" d="M135.558,38.039l-26.534,10.2-.312-.81,26.531-10.2Z" style="fill:#d59f0f"/></g><g id="use4434"><path id="path108" d="M141.646,57.617l-32.265-3.865.1-.866,32.272,3.871Z" style="fill:#d59f0f"/></g><path id="path72-18" data-name="path72" d="M94.15,92.846l3.864,0,1.273-3.774,1.18,3.786h3.891l-3.016,2.451,1.093,3.585-3.187-2.155-3.159,2.172,1.076-3.634Z" style="fill:#d59f0f"/><path id="path90" d="M92.068,30.523l5.449.011,1.794-5.323,1.662,5.326,5.48.005L102.2,33.99l1.54,5.051-4.484-3.028L94.8,39.07l1.515-5.127Z" style="fill:#d59f0f"/><path id="path92" d="M92.353,56.69a.15.15,0,0,1-.028-.037c-4.392-5.8.076-7.933.166-12.037,2.907,5.4-1.353,7.074,3.711,12.078Z" style="fill:#d59f0f"/><path id="path94" d="M97.2,56.693c-1.547-2.175-2.631-5.647-2.167-7.915s2.031-4.5,1.813-6.216c.818,1.932,1.588,2.677,1.35,4.1,1.229-3.667,4.055-5.562,7.887-5.751-6.891,5.237,2.1,9.261-3.844,15.789Z" style="fill:#d59f0f"/><path id="path96" d="M103.52,56.7c5.472-6.6-1.491-9.986,4.855-12.944.234,1.952-1.322,1.95-.636,4.339a4.748,4.748,0,0,1-.361,2.6,20.223,20.223,0,0,1,2.7-2.866c-1.887,2.843.139,5.331-4.413,8.871h-2.238" style="fill:#d59f0f"/><path id="path98" d="M102.6,70.949c.244-6.19,1.568-8.075,4.08-10.664-4.873-.011-10.319-.012-14.75-.015,2.5,2.593,3.824,4.478,4.054,10.668Q99.288,70.939,102.6,70.949Z" style="fill:#d59f0f"/><path id="path100" d="M99.265,86.062l1.928,6.047,1.065-17.941q-2.978-.011-5.956-.012l1.022,17.949Z" style="fill:#d59f0f"/><path id="path102" d="M99.237,113.176c.85-.788,1.092-3.358,1.092-3.358l.529-10.486L99.251,98.2l-1.61,1.125.512,10.489s.228,2.562,1.08,3.359Z" style="fill:#d59f0f"/><path id="path104" d="M107.856,59.174l-17.134-.019,0-1.626,17.137.018Z" style="fill:#d59f0f"/><path id="path106" d="M103.685,73.628l-9.039-.01,0-2.023,9.039.014Z" style="fill:#d59f0f"/><path id="path108-2" data-name="path108" d="M56.766,57.617l32.266-3.865-.1-.866L56.659,56.757Z" style="fill:#d59f0f"/><path id="path110-2" data-name="path110" d="M62.9,38.039l26.534,10.2.312-.81-26.53-10.2Z" style="fill:#d59f0f"/><path id="path112-2" data-name="path112" d="M79.327,26.648,90.745,42.916l.709-.5L80.032,26.15Z" style="fill:#d59f0f"/><path id="path114" d="M98.736,37.32l-.008,5.92H99.6l0-5.922Z" style="fill:#d59f0f"/><path id="text2636" d="M89.771,30.606l-3.749-1.923.261-.509L90.032,30.1l-.261.509m.639-1.385-3.03-2.928.436-.451,3.568.713c.079.014.15.031.215.049a1.162,1.162,0,0,1,.173.059l-2.455-2.374L89.7,23.9l3.03,2.928-.432.446-3.629-.711c-.055-.011-.111-.025-.166-.041s-.11-.039-.167-.062l2.455,2.373-.377.391m3.2-6.947-.917.357,1.167,2.993.917-.358a1.141,1.141,0,0,0,.741-.728,1.946,1.946,0,0,0-.14-1.25,1.839,1.839,0,0,0-.735-.978,1.143,1.143,0,0,0-1.033-.036m-.1,4.037-1.531-3.925,1.5-.583a1.707,1.707,0,0,1,1.447,0,2.211,2.211,0,0,1,.989,1.245,2.4,2.4,0,0,1,.128,1.666,1.681,1.681,0,0,1-1.054,1.022l-1.474.574m3.962-1.194-.333-4.2.571-.045.333,4.2-.571.045m2.578-1.724,1.289.247-.29-1.949-1,1.7m-1.527,1.489,2.331-3.843.621.119.748,4.434-.61-.117-.2-1.32-1.629-.312-.678,1.151-.582-.112m4.119.935,2.381-3.476.517.354-.106,3.637c0,.08-.006.154-.013.221a1.088,1.088,0,0,1-.03.18l1.931-2.817.45.309L105.393,27.7l-.512-.35.095-3.7a1.684,1.684,0,0,1,.014-.172q.012-.084.033-.174l-1.931,2.817-.448-.307m5.238,2.293.7,1.111,1.226-1.543-1.926.432m-2.13-.1,4.4-.921.337.536L107.759,31.2l-.331-.525.827-1.048-.883-1.4-1.305.29-.315-.5" style="fill:#d59f0f"/></g></g></g></svg>