<svg xmlns="http://www.w3.org/2000/svg" viewBox="0 0 191.759 122.682"><g id="Layer_2" data-name="Layer 2"><g id="Iowa"><g id="Iowa-2" data-name="Iowa"><rect id="rect1893" width="191.759" height="122.682" style="fill:#fff"/><path id="path70" d="M143.812,122.682h47.947V0H143.812Z" style="fill:#d90026"/><path id="path72" d="M0,122.682H47.6V0H0Z" style="fill:#0a1f62"/><path id="path290" d="M82.069,96.273c-.3.4-.742.818-.707,1.379l-.087.091a62.354,62.354,0,0,0,.278,6.652c.1.451.58.68.718,1l-.237.134c-1.3.071-2.742-.222-3.955-.043-.194-.017-.046-.172-.027-.258.457.009.578-.381.833-.691.1-.2-.055-.476.138-.631-.093-2.21-.012-4.446-.095-6.289a2.022,2.022,0,0,0-1.049-1.21c-.046-.129-.176-.129-.027-.284,1.5-.053,2.589.162,4.217.148" style="fill:#d90026"/><path id="path292" d="M91.241,98.131a7.529,7.529,0,0,1,.593,3.3,6.774,6.774,0,0,1-1.1,3.149,3.869,3.869,0,0,1-3.693,1.011,4.517,4.517,0,0,1-2.671-1.937,6.707,6.707,0,0,1-.195-4.983.339.339,0,0,0,.166-.327c.022.02.043-.023.063-.047a4.059,4.059,0,0,1,.564-1.009c.576-.487,1.063-1.086,1.865-1.147.343-.222.845-.08,1.278-.134a4.816,4.816,0,0,1,3.132,2.12" style="fill:#d90026"/><path id="path294" d="M100.154,96.688c.616,1.327,1.037,2.643,1.717,3.907.238.017.21-.262.317-.4.279-.983.738-1.924,1.019-2.907-.055-.561-.622-.766-.957-1.086l.062-.107c1.214-.071,2.282.033,3.651.071l.111.1c-.3.246-.644.384-.92.649-1.134,1.739-1.476,3.979-2.324,5.906-.261.875-.528,1.574-.77,2.448-.15.111-.21.31-.339.4a8.8,8.8,0,0,1-.546-1.091c-.6-1.571-1.267-3.291-1.974-4.837-.306-.036-.145.307-.338.4-.809,1.774-1.7,3.552-2.51,5.3l-.086.067a4.139,4.139,0,0,1-.485-1.312c-.81-2.261-1.709-4.583-2.582-6.732a3.381,3.381,0,0,0-1.2-1.08c-.067-.151-.391-.053-.4-.3a.725.725,0,0,1,.52-.01,7.159,7.159,0,0,0,1.194-.067,11.044,11.044,0,0,1,1.414.117,8.616,8.616,0,0,1,1.325-.047c.084-.027.217.057.2.145-.214.2-.6.339-.636.709-.1.5.19.73.221,1.123a7.4,7.4,0,0,1,.529,1.4,7.492,7.492,0,0,0,.459,1.161c.3-.095.4-.484.526-.747.6-1.338,1.287-2.785,1.8-4.033.174-.022.253-.393.451-.224a10.06,10.06,0,0,0,.545,1.073" style="fill:#d90026"/><path id="path296" d="M108.414,95.965c1.17,2.77,2.618,5.427,3.786,8.154a3.113,3.113,0,0,0,1.263,1.056c.091.2.048.26-.145.31a4.613,4.613,0,0,0-1.325.027l-2.585.036c-.023-.087-.111-.106-.069-.194.255-.2.581-.272.683-.579a.786.786,0,0,0-.1-.606l.041-.043-.266-.339-2.866.064c-.3.158-.226.589-.176.89-.014.391.923.5.257.818-1.218-.081-2.434-.053-3.563-.074-.068-.04-.026-.128-.049-.191,2.631-.885,2.629-3.942,3.671-5.98a24.428,24.428,0,0,1,1.336-3.394l.109.045" style="fill:#d90026"/><path id="path298" d="M88.826,97.988A11.5,11.5,0,0,1,89,100.715a21.385,21.385,0,0,1-.022,2.886,1.565,1.565,0,0,1-1.066.956c-.583.165-1.009-.455-1.3-.861-.407-.727-.1-1.772-.144-2.533.064-1.066-.265-2.314.209-3.366a1.243,1.243,0,0,1,1.357-.508,2.085,2.085,0,0,1,.8.7" style="fill:#fff"/><path id="path300" d="M109.23,102.892l-1.978-.074.836-2.721,1.142,2.8" style="fill:#fff"/><g id="g5896"><path id="path76" d="M104.982,46.042c.111.522.373.394.754.713a2.64,2.64,0,0,1,.557.358l.05-.05a1.084,1.084,0,0,0,.906.379c.179.17.5.113.73.259a11.481,11.481,0,0,0,4.8.117l-.052-.048c.353.117.673-.089,1.05-.023a22.252,22.252,0,0,0,3.711-.529,57.768,57.768,0,0,1,12.672-.778c.674.035,1.184.449,1.86.507a4.815,4.815,0,0,1,1.543.94c.405.139.51.487.768.8a5.767,5.767,0,0,1,.609,2.731,2.574,2.574,0,0,1-1.176,2.122,3.614,3.614,0,0,0-1.853-1.306c-.176-.074-.478-.167-.654-.26l-.175,0,.05-.028c-.226-.045-.431-.215-.629-.134l.05-.05c-.127-.073-.326-.019-.451-.016-.178-.146-.476-.089-.678-.21l-.674.012,0-.045a78.474,78.474,0,0,0-8.01.348v-.051c-3.07.117-6.305.717-9.07-.073-.319.231-.553-.212-.95-.054a2.878,2.878,0,0,0-.728-.158.91.91,0,0,0-.452-.089v-.052c-.327-.089-.682-.332-1.006-.277a16.4,16.4,0,0,1-1.769-.909c-2.2-1.071-2.418-3.168-3.088-5.4l1.309,1.246" style="fill:#0a1f62"/><path id="path78" d="M103.584,44.333c-.149,0-.181-.248-.377-.166-.062.089-.028.186.018.289a1.667,1.667,0,0,1-.679.154c-.375,0-.482-.095-.482-.095-1.035-.5-1.68-1.408-2.88-1.481-.281-.271-.6.01-.9-.206a8.111,8.111,0,0,1-1.928-.182,11.436,11.436,0,0,0-1.3-.192c-.105-.226-.324-.048-.45-.167-.2-.148-.576-.039-.73-.259a10.137,10.137,0,0,1-6.457-7.263,1.3,1.3,0,0,0-.658.661,5.932,5.932,0,0,1-.351,1.129c-.272.133-.308-.317-.46-.438a9,9,0,0,1-.28-2.613c-.278-.143-.244.255-.44.382-.171.255.065.774-.331.909-.6-.935-.237-1.693-.409-2.687-.323.008-.062.552-.488.459a4.133,4.133,0,0,1-.2-2.39,6.383,6.383,0,0,0,.619-1.408c-.254-.168-.4.16-.595.238-.421.107-.939.443-1.343.255.041-.426.535-.689.65-1.087-.152-.17-.323.054-.5.107a3.656,3.656,0,0,1-1.642.315c-.176-.149-.381-.244-.236-.5a1.3,1.3,0,0,0,.609-.737,3.286,3.286,0,0,1-2.063.4.421.421,0,0,1-.454-.166c-.056-.3.242-.38.361-.632-.23-.192-.446.137-.672.117l-1.349-.02c-.429-.142-.085-.447.01-.677.1-.1.246-.154.268-.329a2.7,2.7,0,0,0-1.19.4,5.183,5.183,0,0,0-.947.192c-.18-.293-.672.066-.73-.3l.318-.36c-.405-.212-.772.194-1.17.2a3.441,3.441,0,0,1-1.676-.061c-.028-.125.043-.327-.131-.345a9.981,9.981,0,0,1-2.908.683c-.1-.069-.278-.115-.331-.216-.076-.17.146-.2.143-.352-.425.012-.792.317-1.214.426-.5.235-1.173.1-1.666.36-.252-.166-.843.17-.855-.352-.381-.244-.669.263-1.069.247-.822.19-1.833.711-2.569.206.073-.077,0-.174-.079-.226a10.463,10.463,0,0,1-3.684.709c-.224-.047-.18-.321-.307-.445-.547.162-1.015.421-1.563.534a4.888,4.888,0,0,1-2.618.131c-.107-.3.264-.4.26-.681-1.143.3-2.3.974-3.576.928-.578-.112-1.022.125-1.478-.142-.026-.073.022-.174-.056-.222a1.6,1.6,0,0,1,.665-.463c.932-.767,1.672-1.21,2.656-1.98A40.109,40.109,0,0,0,56.814,20.9a4.534,4.534,0,0,0,1.172-1.1c-.075-.146-.478-.212-.284-.491a17.668,17.668,0,0,0,2.757-1.756c.3-.107.492-.386.792-.418a21.639,21.639,0,0,1,3.427-1.972,25.967,25.967,0,0,1,4.14-1.535c.093-.224.275.069.422-.085,1.188-.527,2.464-.4,3.582-.7.679.18,1.518-.283,2.271-.028l.149-.077c2.021-.02,3.9-.012,6.022.166.254.2.627.111.9.182a12.527,12.527,0,0,1,1.76.533,2.836,2.836,0,0,1,1.86,2.828c-.226,1.079-.345,2.423.621,3.178.131.271.285.519.418.835.064.628.072.975.159,1.521.1.1.081.321.278.216.388-.529,1.093-.37,1.61-.657a5.567,5.567,0,0,1,2.119-.22c.468-.21.9.081,1.37-.028a5.3,5.3,0,0,0,1.279.244c.58.186,1.127.051,1.657.313.646-.09,1.18.271,1.731.336.623-.037,1.341.816,1.8.032a6.036,6.036,0,0,0,.286-5.166,3.148,3.148,0,0,1,1.557-3c1.184-.7,2.557-.63,3.794-1.23.823-.043,1.43-.778,2.182-.7a8.5,8.5,0,0,1,3.2-.142,2.888,2.888,0,0,0,.728.2,10.086,10.086,0,0,1,1.762.584l.049-.046c1.355.317,2.846,1.032,4.251,1.351a14.792,14.792,0,0,0,1.94.707c.178.243.6.134.829.356.15-.056.277.069.4.111a2.875,2.875,0,0,1,.956.255c1,.1,1.986.6,2.888.713.433.337,1.321-.109,1.438.665,2.6,1.187,4.808,2.784,7.337,4.153a.7.7,0,0,1,.454.263c-.147.077-.093.275-.042.349,1.5.962,2.946,2.154,4.541,3.144a46.064,46.064,0,0,0,5.049,3.653c-.043.248.431.191.211.442a3.929,3.929,0,0,0-1.224-.02,3.914,3.914,0,0,1-1-.154c-.246.154-.5-.19-.749-.058-.181-.243-.4.109-.554-.134-.476-.117-.91-.482-1.408-.418.21.491.867.8,1.077,1.271l-.147.151c-.773-.008-1.624-.062-2.275-.1-.129-.2-.452-.113-.654-.21a8.559,8.559,0,0,0-1.159-.446c-.24.4.966.7.272,1.014l-.075-.1c-.1.051-.3.182-.451.059-.5-.186-1.079-.275-1.58-.461a10.972,10.972,0,0,1-1.97-.982c-.49.487-.873.1-1.424.031a3.661,3.661,0,0,1-1.684-.51c-.276-.02-.581-.288-.8-.155.208.39.956.374.819.929a3.735,3.735,0,0,1-.9-.032c-.327-.166-.676-.134-1.031-.374a14.973,14.973,0,0,1-4.142-2.028,4.074,4.074,0,0,1-1.463-.719c-.681-.3-.968-.9-1.551-1.237l-.072.1a6.686,6.686,0,0,1,1.014,1.774c.077.125.3.117.232.317-.22.255-.425.061-.675.016a12.342,12.342,0,0,0-1.715-.735c-.1-.069-.23-.271-.407-.263-.164.4.415.637.548.982a1.926,1.926,0,0,0,.156.344c-.371.187-.749-.081-1.049-.049a8.254,8.254,0,0,1-1.438-.616c-.123.052-.23-.22-.325.008.085.394.561.511.744.855-.141.278-.492.208-.77.244-.129-.2-.42.008-.526-.218-.3.032-.6-.134-.9-.127a7.965,7.965,0,0,1-1.464-.692.17.17,0,0,0-.043.279c.505.36.694.932,1.249,1.19,0,.174.01.449-.214.453a10.325,10.325,0,0,1-3.126-1.225c-.05,0-.125-.024-.149.025a7.318,7.318,0,0,1,1.115,1.822c-.494.287-.93-.252-1.383-.366-.454-.24-.807-.406-1.237-.646a11.335,11.335,0,0,0,.886,1.725c.155.22-.242.354-.394.231a10.071,10.071,0,0,0-1.92-.978c-.012.622.5,1.186.139,1.79-.068.276.216.743-.207.8a4.307,4.307,0,0,0-1.051-1.323c-.123.129.006.349.085.5.111.57.2,1.219.314,1.736a2.141,2.141,0,0,1-.31.733c-.507-.388-.849-1.2-1.408-1.59.192.742.664,1.829.183,2.613a.393.393,0,0,1-.118.353l-.2,0c-.335-.469-.525-1.188-1.105-1.448-.123.129.006.349-.065.478-.036.649.6,1.1.837,1.7a23.758,23.758,0,0,0,2.834,3.875c-.018.374-.494.285-.716.417-.174.054-.426-.065-.547.109-.5-.237-.978-.178-1.436-.542-.738.491-1.305-.268-2.071.073,1.666.786,1.434,2.784,3.126,3.57a2.6,2.6,0,0,1,.768,1.953,1.784,1.784,0,0,1-.873,1.192l-1.277-1.319"/><path id="path80" d="M103.32,44.784c.045.105.01-.111,0,0,.01.478.42.965.256,1.44a11.994,11.994,0,0,0-1.559,2.954,6.75,6.75,0,0,0-.857,1.891,11.294,11.294,0,0,0-.671,2.456,16.184,16.184,0,0,0-.62,2.433,60.219,60.219,0,0,1-2.46,8.533c-.133.8-.567,1.485-.75,2.261a58.782,58.782,0,0,1-3.623,6.76,18.512,18.512,0,0,1-5.149,5.453,5.924,5.924,0,0,1-1.337.576c-.391.309-.722.016-1.22.129A5.106,5.106,0,0,1,83.057,78.5a4.873,4.873,0,0,1-1.492-3.059,3.626,3.626,0,0,0,2.069-.2c.545-.058.96-.569,1.456-.7.246-.228.664-.487.932-.767a19.959,19.959,0,0,0,2.458-3.023,2.273,2.273,0,0,0,.507-.735c.921-1.265,1.686-2.855,2.529-4.271,1.565-3.824,3.35-7.8,4.866-11.552a6.708,6.708,0,0,0,.547-1.234.074.074,0,0,0,.1-.025v-.153c.048.024.048-.022.072-.049-.078-.175.147-.127.145-.256l-.052-.045.121-.151-.026-.024.026,0c.214-.5.452-.982.692-1.461l-.051-.047a3.624,3.624,0,0,0,.482-.858.13.13,0,0,0,.1-.051c.022-.179.244-.333.289-.529a14.3,14.3,0,0,1,3.2-4.487l1.3-.028" style="fill:#0a1f62"/><path id="path82" d="M110.353,12.534a8.811,8.811,0,0,1,1.355.295c1.884.511,3.7,1.214,5.559,1.8a25.124,25.124,0,0,0,3.4,1.149c.1-.05.228.142.4.065.98.352,2.082.5,2.989.832.156.3-.276.031-.32.231a8.059,8.059,0,0,1-1.114.349,8.363,8.363,0,0,1-4.223-.034,3.606,3.606,0,0,0-.631-.259c-.45-.04-.829-.23-1.255-.3-.028-.175-.25-.046-.377-.07s-.355-.289-.629-.182c-.053-.174-.3,0-.4-.115a11.7,11.7,0,0,0-2.259-.576c-.152-.093-.379-.162-.555-.259a10.409,10.409,0,0,1-1.761-.535c-.4-.115-1.246.151-1.311-.521-.25-.016-.318.3-.595.188-.117.3-.419.284-.665.414a2.409,2.409,0,0,1-1.2-.049l-.625-.036c-.591.388-1.35,1.075-2.11.62-.3.154-.631-.287-.9.069a1.758,1.758,0,0,1,.08,1.3c-.24.454-.714.465-1.038.572a1.877,1.877,0,0,1-.3,1.977c-.1.073-.248.077-.27.229.508.414.224,1.068.135,1.62-.282.727-1.66.608-1.313,1.647-.236.48-.9.771-.69,1.44-.248,1.2-1.928.935-1.849,2.257a2.271,2.271,0,0,1-.325,1.08c-.421.209-.664.514-1.162.548-.187.628-.143,1.451-.913,1.642.306.293-.4,1.279.3,1.162.073-.123.018-.37.218-.351.184.495.825,1.23.361,1.64-.72.212-.887-.507-1.244-.824l-.031-1.469-.225,0a5.352,5.352,0,0,0-1.416,2.675,1.57,1.57,0,0,1-.623-1.109.24.24,0,0,0-.228-.093,3.036,3.036,0,0,0-.432,1.9c-.575-.136-.738-.7-1.075-1.148-.232-.369-.264-.743-.524-1.111-.392.158-.383.657-.549,1.01-.115.5.071.946-.093,1.423l-.151,0a5.365,5.365,0,0,1-1.4-2.214.823.823,0,0,0-.56.612c.08.22-.143.353-.164.527-.211.6.158,1.515-.609,1.81a7.255,7.255,0,0,0-.718,1.311c-.076.025-.1-.048-.153-.069a9.712,9.712,0,0,1,.042-2.7c.168-.278.21-.6.48-.836-.056-.248-.3-.065-.4-.014-.415.483-.928,1.02-1.291,1.5l-.078-.095A5.027,5.027,0,0,1,86.09,30l-.127-.145a7.8,7.8,0,0,0-1.684,1.83l-.175,0a4.755,4.755,0,0,1,1.712-3.929c.047-.1-.054-.146-.08-.222-.2.206-.277-.091-.5.012a6.473,6.473,0,0,1-2.095,1.343,7.439,7.439,0,0,1,.819-1.416c.464-.406.552-1.059,1.3-.877.121-.174.6-.186.441-.507-.254-.17-.472.186-.722.194l-.4.006c.28-.931,1.043-1.368,1.751-2.135-.011-.572-.785-.5-.971-1.023a13.038,13.038,0,0,1-.716-1.858c-.49-.76-1.78-1.453-1.052-2.443.345-.182-.059-.471-.065-.723a3.566,3.566,0,0,1,.069-1.346c-.232-.321-.728-.086-.956-.329-.853-.206-.468-1.984-1.652-1.283-.228-.171-.573.01-.851-.109-.845.146-1.523-1.087-2.305-.3a5.717,5.717,0,0,1-2.862.465,7.3,7.3,0,0,0-1.261-.523,4.43,4.43,0,0,1-2.152.945,6,6,0,0,1-1.978-.23c-1.313.5-2.412,1.675-3.774,2.155-.716.364-1.381.778-2.172,1.095a10.126,10.126,0,0,1-2.727.982,3.13,3.13,0,0,1-1.424-.046c-.326.008-.849.07-1.006-.251a39.5,39.5,0,0,1,5.1-3.254c3.116-1.368,6.107-2.825,9.505-2.853a47.477,47.477,0,0,1,8.2.093c.178.248.444-.154.575.163,1.329.219,2.81.51,3.39,1.894.8,1.2-.941,2.664.333,3.759A5.794,5.794,0,0,1,86.7,22.308a1.537,1.537,0,0,0,.542.762,3.605,3.605,0,0,1,2.372-1.176c.319-.232.772-.166,1.168-.247a15.086,15.086,0,0,1,3,.231c.272-.109.579.186.851.081.03.175.276.016.377.117a9.194,9.194,0,0,1,3.4,1.1c.4-.235.629-.788.946-1.194a5.578,5.578,0,0,0,.22-4.768,2.455,2.455,0,0,1,.67-2.384c.556-.909,1.51-.707,2.351-1.073.252.119.6-.064.819-.167a8.165,8.165,0,0,0,2.456-.851c.476.111.787-.445,1.192-.251a7.772,7.772,0,0,1,3.3.049" style="fill:#a54a00"/><path id="path84" d="M74.445,15.443c-.068.325-.49.41-.659.738a2.671,2.671,0,0,1-1.89.391,4.984,4.984,0,0,1-.559-.488c.293-.231.771-.114,1.116-.3.677.034,1.272-1.249,1.992-.34" style="fill:#a54a00"/><path id="path86" d="M80.242,15.544c.395-.236.754.2,1.123-.077.052.073.278.17.131.32a7.333,7.333,0,0,1-1.783.666c-.748.089-.568-.79-.972-1.052l.093-.328c.4.215.954.231,1.408.471" style="fill:#a54a00"/><path id="path88" d="M78.445,15.581a2.7,2.7,0,0,1,.367.791c.151.1.431.34.183.491-.363.437-1.018.174-1.565.259-.153-.121-.452-.089-.482-.337-.22-.867.857-.815,1.117-1.469l.22-.178c.273.065,0,.3.158.443" style="fill:#a54a00"/><path id="path90" d="M114.663,14.336c-.17.156-.422.085-.593.238.07-.226.371-.133.494-.238l.052.051.047-.051"/><path id="path92" d="M77.539,15.277c-.167.352-.637.588-.883.792a3.577,3.577,0,0,1-1.212.526c-.374-.02-.529-.263-.688-.584-.079-.22.119-.352.165-.527a3.516,3.516,0,0,0,2.467-.2l.151,0" style="fill:#a54a00"/><path id="path94" d="M70.936,16.092a6.526,6.526,0,0,1-1.714,1.563,13.819,13.819,0,0,1-6.335,2.706,2.666,2.666,0,0,1-1.247.078c.244-.281.809-.664,1.152-1.024.72-.19,1.186-.572,1.906-.766a43.417,43.417,0,0,0,4.659-2.8,6.867,6.867,0,0,1,1.579.239" style="fill:#a54a00"/><path id="path96" d="M109.691,15.419c-.014.473-.05,1.095-.593,1.359a2.531,2.531,0,0,1-1.048.122c.042-.374.332-.881-.1-1.221l-.157-.244c.55-.012.986-.618,1.52-.236.125-.049.325.093.377.22" style="fill:#a54a00"/><path id="path98" d="M106.9,15.483a.726.726,0,0,1-.286.675c-.446.109-1.118.251-1.45-.042l-.053-.146c.6-.163,1.152-1.05,1.789-.487" style="fill:#a54a00"/><path id="path100" d="M113.094,16.789c.409.39.569.913,1,1.226l-.024.05c.793.855,1.543,2.035,2.212,2.869-2.6-.07-4.55-2.416-6.49-4.246.016-.475.508-.807.246-1.3.2.018.478.09.726.107.908.406,1.88.311,2.326,1.3" style="fill:#a54a00"/><path id="path102" d="M107.808,16.108c-.093.353-.031.873-.478,1.032a1.361,1.361,0,0,1-1.344.156,4.128,4.128,0,0,1-.088-.572c.244-.3.576.01.843-.245a1.26,1.26,0,0,0,.554-1.008l.511.637" style="fill:#a54a00"/><path id="path104" d="M74.49,16.391a1.8,1.8,0,0,0,.663.561c.551.111.92-.2,1.366-.307.258.319-.214.481-.234.728-1.573,1.183-2.661,2.727-4.651,3.121-.071.178-.3-.016-.371.182l-1.622.085c1.464-1.552,3.185-2.811,4.724-4.417l.175,0-.05.051" style="fill:#a54a00"/><path id="path106" d="M81.383,16.239a3.164,3.164,0,0,0,.115,1.869c-.29.456-.968.293-1.416.355a1.074,1.074,0,0,1-.528-1.26c-.018-.8.968-.321,1.333-.778.226.069.319-.2.5-.186" style="fill:#a54a00"/><path id="path108" d="M82.517,16.789l.631.26c-.067.3.22.966-.2,1.124-.123.032-.25-.043-.324.082a1.417,1.417,0,0,1-.912-.6,2.418,2.418,0,0,1,.121-1.349c.3.042.432.386.684.479" style="fill:#a54a00"/><path id="path110" d="M73.155,16.993c-1.759,1.784-3.623,3.323-6.015,3.675a5.724,5.724,0,0,1-1.545.086c1.126-.977,2.582-1.78,3.685-2.727a12.79,12.79,0,0,0,2.043-1.392c.412.513,1.279.247,1.832.358" style="fill:#a54a00"/><path id="path112" d="M104.762,16.124a1.062,1.062,0,0,1-.206.853c-.3.056-.669.337-.849.016.343-.3-.113-.6,0-.994.4-.085.678.159,1.053.125" style="fill:#a54a00"/><path id="path114" d="M116.375,17.118c.2-.055.226.093.28.216.684.483,1.055,1.451,1.715,1.984.316.715,1.151,1.121,1.466,1.863a4.458,4.458,0,0,1-1.254-.15,6.955,6.955,0,0,1-1.414-.739,5.7,5.7,0,0,1-.861-.528,25.257,25.257,0,0,1-3.175-3.521,6.426,6.426,0,0,1,1.079.2c.631.313,1.529.267,2.164.677" style="fill:#a54a00"/><path id="path116" d="M105.636,17.354a1.368,1.368,0,0,1-.253.95,1.236,1.236,0,0,1-1.246.077,1.358,1.358,0,0,0-.167-.768,1.251,1.251,0,0,0,1.1-.994.167.167,0,0,1,.274-.059c.278.144.212.518.291.794" style="fill:#a54a00"/><path id="path118" d="M79.106,17.265c.262.54-.433.8-.651,1.087-1.622,1.206-2.909,2.829-5.236,2.679l-.1-.1a29.051,29.051,0,0,1,3.741-3.624,3.313,3.313,0,0,0,2.247-.045" style="fill:#a54a00"/><path id="path120" d="M112.261,19.825l.28.17-.05.05c.28.243.71.483.819.9-2.191.271-3.8-1.388-5.182-2.83l.031-.774c.478.138.945-.244,1.417-.378l2.683,2.857" style="fill:#a54a00"/><path id="path122" d="M103.808,18.239a1.331,1.331,0,0,1-.7.962l-.576-.034a2.054,2.054,0,0,0,.145-1.35c.246-.182.464-.459.815-.418a3.813,3.813,0,0,1,.318.84" style="fill:#a54a00"/><path id="path124" d="M107.763,17.4c-.064.555.026,1.2-.617,1.485-.351-.037-.647.167-.926-.049l-.2,0c-.049-.125-.252-.121-.353-.222a3.319,3.319,0,0,0,.306-.877c.119-.224.275.1.45.039.526.066.892-.243,1.341-.376" style="fill:#a54a00"/><path id="path126" d="M130.1,20.13a6.267,6.267,0,0,0,1.367.8l.2.216a11.1,11.1,0,0,1-6.333-1.757c-.361-.463-.736-.483-1.144-.869a10.5,10.5,0,0,1-1.341-.82c-.006-.275.375-.008.444-.235.651.085,1.057-.794,1.668-.26,1.668.913,3.515,1.945,5.135,2.927" style="fill:#a54a00"/><path id="path128" d="M117.958,17.532c.275.069.48.285.777.2.155.174.625.039.855.255,1.2-.023,1.656,1.462,2.517,1.965.452.239.738.685,1.242.92.077.125.2.1.232.272a5.293,5.293,0,0,1-1.773-.058l0-.055a7.519,7.519,0,0,1-3.912-2.905c-.3-.166-.385-.537-.615-.707a.231.231,0,0,1,.276-.008c.1.174.25.02.4.117" style="fill:#a54a00"/><path id="path130" d="M79.939,18.766c.252.093.6-.012.827.13a16.639,16.639,0,0,1-1.545,1.331,5.131,5.131,0,0,1-3.176.917c.806-.864,1.865-1.535,2.644-2.426.3-.057.361-.556.716-.39a1.309,1.309,0,0,0,.534.438" style="fill:#a54a00"/><path id="path132" d="M83.281,18.518a4.307,4.307,0,0,0-.248,1.275c-.294.256-.569.186-.946.147-.127-.147-.351-.143-.5-.262-.157-.275-.391-.716-.1-1.021.208-.755.75.081,1.121-.074a2.916,2.916,0,0,1,.674-.065" style="fill:#a54a00"/><path id="path134" d="M123.2,18.463c.861.481,1.4,1.118,2.182,1.475.793.926,2.265.8,3.06,1.728a7.3,7.3,0,0,1-5.659-1.675,8.161,8.161,0,0,1-2.015-1.922c.371-.135.873-.119,1.343-.256.377.089.71.461,1.089.65" style="fill:#a54a00"/><path id="path136" d="M108.606,19.407c.617.808,1.5,1.388,2.174,2.269-.219.384-.746.244-1.095.226a4.418,4.418,0,0,1-2.537-1.74,2.3,2.3,0,0,1-.742-.8c.524-.064,1.3-.028,1.507-.709.33.166.439.564.693.758" style="fill:#a54a00"/><path id="path138" d="M105.353,19.2a.711.711,0,0,1-.333.733,6.786,6.786,0,0,1-1.4.077c-.712-.558.334-.705.373-1.23.482.339,1.264-.4,1.357.42" style="fill:#a54a00"/><path id="path140" d="M81,19.387c.155.276.391.743.768.832-.236.608-.831.816-1.323,1.2a2.154,2.154,0,0,1-2.016.342c.161-.6.833-.742,1.2-1.2L80.9,19.342h.149L81,19.387" style="fill:#a54a00"/><path id="path142" d="M59.783,20.08a4.789,4.789,0,0,1,1.575-.008c.006.3-.3.155-.442.333a64.959,64.959,0,0,1-5.368,4.707c-.519.263-.934.746-1.531.831a11.253,11.253,0,0,1-2.745,1.284,8.121,8.121,0,0,1-2.172.047c.486-.657,1.452-1.057,2.039-1.618a42.085,42.085,0,0,0,7.466-5.774c.4.167.8-.069,1.178.2" style="fill:#a54a00"/><path id="path144" d="M65.854,20.072c-.541.438-1.061.6-1.449,1.153l-.05-.046c-1.625,1.179-3.168,2.485-4.689,3.743-.25.027-.418.309-.615.461a8.9,8.9,0,0,1-3.61,1.6,4.476,4.476,0,0,1-1.644.186c.139-.453.587-.588.879-.917,2.061-1.639,4.1-3.38,6.079-5.221.922-.046,1.791-.337,2.692-.333.119-.178.422-.008.569-.138.621-.187,1.216-.375,1.834-.589l0,.1" style="fill:#a54a00"/><path id="path146" d="M108.32,22.332a2.651,2.651,0,0,1-2.235-.575c-.508-.312-.671-.958-1.053-1.3-.032-.274.293-.256.44-.41.095-.224.315-.43.309-.727.845.954,1.742,1.931,2.539,3.012" style="fill:#a54a00"/><path id="path148" d="M103.221,19.926a4.334,4.334,0,0,1-.153,1c-.3.053-.49.431-.841.366-.135-.5.2-1.055-.083-1.473a.25.25,0,0,1,.168-.325c.329.216.821-.121.909.43" style="fill:#a54a00"/><path id="path150" d="M69.185,20.5c0,.174-.242.277-.163.5.381.313.948-.071,1.353.216-.929.921-1.835,1.713-2.767,2.532a8.009,8.009,0,0,1-2.975,2.131c-.169.331-.373.063-.568.337-.222.059-.373.085-.62.14-.447.111-.994.3-1.4.03,1.93-1.988,4.34-3.713,6.347-5.527a1.666,1.666,0,0,1,.792-.362" style="fill:#a54a00"/><path id="path152" d="M72.9,21.363c.2-.081.228.121.329.167-1.448,1.208-2.733,2.928-4.411,3.914a8.012,8.012,0,0,1-3.1.816c-.006-.275.367-.332.361-.629,1.1-1.151,2.326-2.125,3.574-3.273a8.656,8.656,0,0,0,1.442-1.377,10.678,10.678,0,0,0,1.838-.491c-.095.224-.708.767-.031.873" style="fill:#a54a00"/><path id="path154" d="M83.219,20.239c.336.467.74.758.974,1.176.008.325-.4.107-.543.285a.979.979,0,0,1-.96-.525c-.159-.372.206-.806.529-.936" style="fill:#a54a00"/><path id="path156" d="M82.448,20.381a1.138,1.138,0,0,0,0,1.022c.105.174.333.345.313.592A3.157,3.157,0,0,1,80,22.779a4.1,4.1,0,0,1,1.27-1.35c.367-.355.634-.662,1-1.044l.175,0" style="fill:#a54a00"/><path id="path158" d="M67.6,21.1a69.792,69.792,0,0,1-6.284,5.006,8.711,8.711,0,0,1-3.134.687.113.113,0,0,0-.051-.095,33.4,33.4,0,0,1,3.58-3c1.006-.893,2.212-1.717,3.219-2.487a18.777,18.777,0,0,0,2.668-.236l0,.123" style="fill:#a54a00"/><path id="path160" d="M104.482,20.447a33.647,33.647,0,0,0,1.69,3.051c-1.246.077-1.92-1-2.809-1.659-1.011-.6.558-.757.268-1.478.326.121.524.016.851.086" style="fill:#a54a00"/><path id="path162" d="M75.778,21.526c.2.194-.141.426-.262.576-1.686,1.733-3.483,4.042-6.161,3.853l0-.124c1.438-1.579,2.987-2.757,4.352-4.258l-.028-.15a4.73,4.73,0,0,0,1.64-.388c.03.225.161.522.387.515.026.027.05,0,.074-.024" style="fill:#a54a00"/><path id="path164" d="M78.344,21.193c-.067.376-.567.337-.484.759a3.191,3.191,0,0,1,.558.312,28.251,28.251,0,0,1-2.912,2.808,4.81,4.81,0,0,1-2.829.808,7.824,7.824,0,0,1,1.361-1.673,30.928,30.928,0,0,0,2.414-2.7c.625.012,1.267-.277,1.892-.317" style="fill:#a54a00"/><path id="path166" d="M118.138,21.266c.361.442.748,1.006,1.157,1.448l0,.123c.334.518.818.956,1.155,1.475l-.05.045c.359.394.77.909,1.1,1.323a5.081,5.081,0,0,1-2.174-1.222l.048-.051a10.765,10.765,0,0,1-2.462-2.861c.125-.054.322-.208.169-.357-.206-.265-.661-.483-.645-.831a7.234,7.234,0,0,0,1.694.908" style="fill:#a54a00"/><path id="path168" d="M114.155,20.758a10.758,10.758,0,0,0,2.139.625c.979,1.424,1.963,3.024,2.846,4.525-.425.008-.831-.329-1.282-.37a9.063,9.063,0,0,1-2.417-2.066c-.54-.612-1.157-1.419-1.67-2.081-.03-.2.345-.232.214-.479l-.458-.414c.273-.032.4.24.628.26" style="fill:#a54a00"/><path id="path170" d="M111.892,21.205l0,.052c.423-.036.829.2,1.351.118a26.248,26.248,0,0,1,2.8,3.6,4.255,4.255,0,0,1,.852,1.277,6.586,6.586,0,0,1-4.284-2.823c-.387-.515-.92-.951-1.257-1.493.214-.5-.46-.537-.57-.885l-.458-.438a3.94,3.94,0,0,0,1.561.588" style="fill:#a54a00"/><path id="path172" d="M122.367,21.522a1.8,1.8,0,0,0,.775.085c2.293,1.992,4.287,4.069,6.734,6.309a9.145,9.145,0,0,1-3.243-.925,44.573,44.573,0,0,1-6.533-6.265,4.915,4.915,0,0,0,2.267.8" style="fill:#a54a00"/><path id="path174" d="M84.562,22.253c.333.417.3,1.045.756,1.431-.216.357-.573.085-.847.143-.2-.244-.633-.432-.619-.881.2-.228.286-1.826.71-.693" style="fill:#a54a00"/><path id="path176" d="M83.582,22.053c-.261.506.538,1.683-.563,1.631a2.164,2.164,0,0,1-1.47.133c.435-.709,1.149-1.123,1.585-1.753.2-.008.224-.008.448-.011" style="fill:#a54a00"/><path id="path178" d="M102.634,21.607c.591.713,1.112,1.744,1.682,2.608,0,.174.2.243.184.443-1.4-.045-2.43-1.441-3.3-2.447.372-.1.658-.735,1.063-.519.071-.178.248-.053.373-.085" style="fill:#a54a00"/><path id="path180" d="M79.887,22.134c-.144.2-.265.378-.436.608.206.269.385.439.734.382.077.123.23.271.057.348-.807.765-1.7,1.283-2.628,2.054a4.617,4.617,0,0,1-.914.417c-.448.058-.966.367-1.4.082.971-1.169,2.052-1.969,3.028-3.087.389-.456.829-.913,1.43-.8h.125" style="fill:#a54a00"/><path id="path182" d="M119.848,21.7c.742-.366,1.115.747,1.6,1.059a39.738,39.738,0,0,1,3.171,3.323c.657.487,1.329,1.368,1.938,1.9-.448-.04-.8-.256-1.254-.293a9.006,9.006,0,0,1-2.782-1.564,28.055,28.055,0,0,1-3.624-4.632c.329.22.648-.039.954.2" style="fill:#a54a00"/><path id="path184" d="M125.191,21.639a1.189,1.189,0,0,0,.681.259,11.992,11.992,0,0,0,1.805,1.4c1.374,1.141,3.03,2.752,4.478,3.843.078.048.1.171.228.117l-.047.054a7.144,7.144,0,0,0,1.325,1.265l-.024.05c0,.051.077.051.127.047l-.048.053a1.092,1.092,0,0,1,.405.341c-.24.325-.526-.218-.9-.109-.254-.194-.652-.134-.859-.378a8.058,8.058,0,0,1-1.487-.689,62.929,62.929,0,0,1-7.158-6.3,2.045,2.045,0,0,1,.569-.212c.325.093.583.386.9.256" style="fill:#a54a00"/><path id="path186" d="M129.559,21.415c.153.146.45.065.629.212a13.086,13.086,0,0,1,1.721-.038c2.858,1.559,5.383,3.949,8.069,5.657.436.487.962.6,1.325,1.1a10.329,10.329,0,0,1-6.351-2.479c-1.168-.9-2.44-1.869-3.656-2.689a15.2,15.2,0,0,0-2.235-1.7c.048-.1.323-.057.5-.061" style="fill:#a54a00"/><path id="path188" d="M109.518,22.253a2.2,2.2,0,0,0,1.5-.155c1.156,1.471,2.54,3.111,3.822,4.58v.073c-.449.012-.853-.279-1.252-.219l0-.052c-2.313-.645-3.1-2.572-4.639-4.212L108.562,22c.272-.133.48.24.728.135l.228.115" style="fill:#a54a00"/><path id="path190" d="M107.055,22.71c.6.208,1.148-.05,1.749.012a30.3,30.3,0,0,1,2.14,3.043c.486.638.921,1.052,1.387,1.689-2.283-.374-3.924-2.257-5.31-3.97a4.112,4.112,0,0,1-.77-.932l-.182-.345c.28.194.68.283.986.5" style="fill:#a54a00"/><path id="path192" d="M101.783,23.819c.519.913,1.354,1.37,1.749,2.283-.248.105-.528-.113-.75-.008-.254-.194-.755-.3-1.011-.576a5.245,5.245,0,0,1-1.708-1.535c.091-.449.589-.433.7-.913a1.722,1.722,0,0,1,.137-.572c.186.495.718.8.879,1.325" style="fill:#a54a00"/><path id="path194" d="M129.452,22.219a52.006,52.006,0,0,0,4.978,3.75c.532.438,1.069.976,1.6,1.367a15.8,15.8,0,0,1,1.833,1.578c-.471.158-.976-.056-1.5-.016a9.435,9.435,0,0,1-2.721-1.115c-.936-.548-1.73-1.408-2.743-2.083a48.9,48.9,0,0,0-4.2-3.647c.523-.109.9.182,1.426.069.5.039.966-.345,1.327.1" style="fill:#a54a00"/><path id="path196" d="M81.583,23.092c-.042.376-.512.584-.527.96.228.193.478.189.729.333-1.249,1.048-2.489,2.622-4.319,2.289l.166-.352a37.81,37.81,0,0,1,3.527-3.167c.15-.031.271-.182.424-.063" style="fill:#a54a00"/><path id="path198" d="M84.606,24.276c.373-.085.746-.194,1.119-.279.051.051.127.1.1.174a4.266,4.266,0,0,1-2.674,1.083l-.176-.118-.05.049c-.1-.125-.254-.142-.183-.321l1-1.045c.3.016.607.336.859.457" style="fill:#a54a00"/><path id="path200" d="M106.856,23.886a40.976,40.976,0,0,1,3.3,4.416,5.649,5.649,0,0,1-1.6-.986c-1.234-.448-1.606-1.485-2.523-2.289a3.1,3.1,0,0,0-.69-.709c-.107-.343-.557-.335-.516-.735a2.846,2.846,0,0,0,2.031.3" style="fill:#a54a00"/><path id="path202" d="M82.807,24.187c.01.45-.791.446-.429,1.006.082.325.5.166.56.463-1.03.872-2.105,1.915-3.507,1.85l-.153-.147a11.709,11.709,0,0,1,2.131-2.019c.414-.383.956-.793,1.4-1.153" style="fill:#a54a00"/><path id="path204" d="M102.82,24.423a25.593,25.593,0,0,1,3.388,4.065,3.314,3.314,0,0,1,.343,1.96c-.351-.089-.335-.487-.641-.707a19.905,19.905,0,0,0-3.27-3.346,2.025,2.025,0,0,0,1.271.024l.22-.28-1.386-1.712.073,0" style="fill:#a54a00"/><path id="path206" d="M108.261,28.666c-.022.178.18.244.109.448a7.32,7.32,0,0,1-1.724-1.137,26.727,26.727,0,0,1-2.688-2.958,1.714,1.714,0,0,0,1-.02c.074-.077.022-.2.044-.3l-.153-.143.1-.077a21.528,21.528,0,0,1,3.317,4.188" style="fill:#a54a00"/><path id="path208" d="M100.511,25.023c.56.483.847,1.079,1.5,1.338.051.175.426.212.408.487-.121.127-.347.058-.5.163-.049-.151-.2-.073-.3-.093a4.354,4.354,0,0,1-1.642-.864,2.252,2.252,0,0,1-.637-.56c.244-.255.664-.487.655-.885.249-.054.333.34.509.41" style="fill:#a54a00"/><path id="path210" d="M84.507,25.4c.129.226-.216.38-.212.6-.239.531-.348,1.253-.964,1.542a3.891,3.891,0,0,1-2.061.592c.583-.734,1.218-1.372,1.85-2.158a.829.829,0,0,1,.766-.418c.224.02.345-.231.621-.162" style="fill:#a54a00"/><path id="path212" d="M99.127,25.726c.422.986,2.146,1.025,1.977,2.425,0,.147.058.472-.212.531a1.545,1.545,0,0,1-1.434-.418c.306-.831-.264-1.768-.48-2.534l.149,0" style="fill:#a54a00"/><path id="path214" d="M99.163,27.32c.156.344-.06.673-.078,1a2.25,2.25,0,0,1-1.4-.24,2.879,2.879,0,0,0,.607-1.861c.047-.123.22-.3.347-.18a2.527,2.527,0,0,1,.528,1.283" style="fill:#a54a00"/><path id="path216" d="M105.355,30.553c.01.5.4,1.21.212,1.713a4.976,4.976,0,0,1-.744-.877c-1.1-1.1-1.753-2.483-3.264-3.071-.133-.349-.118-.747-.25-1.068.5.012,1.156.325,1.521-.13a7.024,7.024,0,0,1,2.525,3.433" style="fill:#a54a00"/><path id="path218" d="M99.1,29.04a1.908,1.908,0,0,1-.266,1.579,1.642,1.642,0,0,1-1.13-.3c-.534-.414.025-1.1-.236-1.618-.026-.1-.129-.22-.03-.3.508.437,1.323,0,1.662.633" style="fill:#a54a00"/><path id="path220" d="M97.175,28.935c.008.4.048,1.022-.345,1.327-.4.085-.478-.111-.8-.176.263-.458.728-.891.591-1.436.345-.283.5.089.557.285" style="fill:#a54a00"/><path id="path222" d="M101.346,28.943l.171-.176c.105.22.224-.081.327.065a8.336,8.336,0,0,1,2.511,3.986c-.071.226.012.648-.206.88-1.168-2-2.967-3.2-4.675-4.711l0-.224c.535.509,1.253.269,1.876.18" style="fill:#a54a00"/><path id="path224" d="M102.55,32.561c-.043.3.107.321.064.618a9.056,9.056,0,0,1-1.323-1.091c-.708-.41-1.2-1.194-1.833-1.582a1.867,1.867,0,0,1,.155-.9c.92.928,2.408,1.617,2.937,2.956" style="fill:#a54a00"/><path id="path226" d="M97.619,31c-.067.3.165.645-.105.9l-.321.154c.046-.247-.226-.065-.329-.19a4.741,4.741,0,0,0-.552-1.238c.5.139,1.236-.621,1.307.373" style="fill:#a54a00"/><path id="path228" d="M98.117,30.935a2.624,2.624,0,0,0,1.248-.053,4.368,4.368,0,0,1,1.513,2.913,1.458,1.458,0,0,1-.381-.3c-.966-.776-1.636-1.682-2.548-2.363l-.006-.223.174,0v.025" style="fill:#a54a00"/><path id="path230" d="M102.3,42.3a4.871,4.871,0,0,0,1.127-.784,2.7,2.7,0,0,0-.883-1.477l.05-.024h-.1c-.492-.762-1.446-.99-2.132-1.523-.252-.043-.409-.413-.609-.437-.119.279-.264.531-.613.588-.915-.828-2.095-1.047-2.862-1.907a5.513,5.513,0,0,1-1.018-.824l.048-.049a5.307,5.307,0,0,1-1.167-2l-.462-.364c-.091-.086-.188-.232-.325-.24l.048-.053c-.48-.236-.363-.589-.818-.806a6.178,6.178,0,0,0-.019,1.35c.027.147.186.519-.139.5a6.3,6.3,0,0,1-1.637-1.81l.022-.024c-.174-.118-.157-.421-.357-.439a3.867,3.867,0,0,0-.186,1.746c.031.426.313.67.3,1.068h-.147A6.339,6.339,0,0,1,88.255,32.1a1.848,1.848,0,0,0-.253.9,6.037,6.037,0,0,0,.87,4.4A10.782,10.782,0,0,0,92.5,40.909c.768.86,2.039.755,2.948,1.234,1.65.039,2.983.457,4.558.473.208.127.664-.035.936.058a3.753,3.753,0,0,0,1.36-.369" style="fill:#fff"/><path id="path232" d="M102.546,42.43a5.164,5.164,0,0,1-1.418.434c-.095.2-.321.13-.42.134-.1.028-.173.151-.072.224a15.518,15.518,0,0,1,1.821,1.01c.179.121.3-.057.446-.162-.2-.268-.63-.333-.962-.6-.152-.171.068-.379.215-.452a4.625,4.625,0,0,1,1.013.572A3.522,3.522,0,0,1,104.9,45.2c.321-.13.388-.507.531-.808.042-1.253-.938-1.964-1.813-2.7a2.887,2.887,0,0,1-1.075.738" style="fill:#ffb30f"/><path id="path234" d="M94.438,33.783c.113.127.093.394.206.521a5.045,5.045,0,0,0,1.639,1.885,11.688,11.688,0,0,1-1.472-4.584l-.163-.545c-.276-.043-.194.277-.391.382a2.414,2.414,0,0,0-.305,1.864l.486.477" style="fill:#a54a00"/><path id="path236" d="M99.892,34.363A3.438,3.438,0,0,1,97.375,32.4c.375.014.492-.384.611-.636a5.6,5.6,0,0,1,1.906,2.6" style="fill:#a54a00"/><path id="path238" d="M95.35,32.316a8.419,8.419,0,0,0,1.091,1.845c.032.325.383.418.538.612l-.05.053c.619.881,2.067.828,2.172,2.2.228.167.186.47.339.666-.1.1-.119.279-.218.279-1.355-.244-2.158-1.574-2.854-2.584a11.1,11.1,0,0,1-.954-2.493.856.856,0,0,1-.139-.574h.075" style="fill:#a54a00"/><path id="path240" d="M98.788,35.232l-.046.228a4.491,4.491,0,0,1-2.781-2.679c.3-.135.752.105.968-.248.617.785,1.166,1.891,1.859,2.7" style="fill:#a54a00"/><path id="path242" d="M101.124,32.44c2.009,1.652,3.241,4.244,4.661,6.382a1.4,1.4,0,0,1-.9.042c-1.712-.608-2.2-2.444-3.007-3.871-.716-.759-.538-1.709-.857-2.549l.1,0" style="fill:#a54a00"/><path id="path244" d="M101.592,35.545c.748,1.083,1.19,1.895,1.867,3.051-.347.183-.851-.029-1.23-.2a14.553,14.553,0,0,1-2.045-3.273c.069-.223.341-.378.161-.675-.107-.321-.365-.639-.322-.94.54.71,1.373,1.039,1.569,2.033" style="fill:#a54a00"/><path id="path246" d="M99.68,34.916a7.625,7.625,0,0,0,1.043,2,5.569,5.569,0,0,0,.879,1.4l0,.1c-.373.159-.654-.182-1-.2a5.675,5.675,0,0,1-1.629-2.431c.145-.252.363-.507.258-.778a1.032,1.032,0,0,1-.692-.786c.307.322.978.178,1.14.7" style="fill:#a54a00"/><path id="path248" d="M100.648,40.307c.2.095.528.185.659.432a.649.649,0,0,1-.49.461c-.726-.109-.867-.827-1.593-.863-.1-.1-.079-.22.046-.251a4.371,4.371,0,0,0,1.378.221"/><path id="path250" d="M68.344,41.238a2.044,2.044,0,0,1,.91.531,1.2,1.2,0,0,1,.179,1.291c-.342.332-.865.445-1.2.851-1.137.572-2.325,1.071-3.463,1.6-.3-.043-.419.3-.72.188-.617.337-1.314.477-1.93.816-.431-.265-.121-.893-.28-1.315.111-.649.724-.041,1.119-.247l.077.1a10.067,10.067,0,0,0,2.015-.371c.742-.34,1.871-.19,2.271-1.245l-.117-.77a3.022,3.022,0,0,0-2.158-.452c-.393.309-1.773.066-1.424,1.157.234.417-.434.679-.052,1.093-.368.085-.668.239-.942.148-.325-.016-.406-.263-.779-.16a3.67,3.67,0,0,1,1.186-1.767,7.02,7.02,0,0,1,4.734-1.651c.149.069.476.038.58.208" style="fill:#0a1f62"/><path id="path252" d="M66.685,43.123c-.061.576-.68.788-1.1.97-.272.155-.5-.012-.72.24-.377-.117-.792.366-.806-.256a3.445,3.445,0,0,1,.2-1.253c.2-.028.45.065.569-.158.779.182,1.664-.487,1.858.457" style="fill:#0a1f62"/><path id="path254" d="M69.97,43.675c-.01.674.246.939.187,1.563.184.447-.155.954-.02,1.4-.607,3.105-3.721,4.568-6.45,5.4a11.405,11.405,0,0,0-5.994,3.546c-.121.1-.066.352-.316.36-.512-.54.03-.873-.333-1.465-.018-1.946-.139-4.037,1.079-5.511A6.844,6.844,0,0,1,59.9,47.907a2.449,2.449,0,0,1,.891-.392c.269-.182.7-.016.866-.317.8-.17,1.484-.731,2.254-.873l-.026-.052c.228.149.545-.235.793-.239.893-.367,1.754-.836,2.62-1.178a16.014,16.014,0,0,0,2.589-1.578c.129.118-.018.251.083.4" style="fill:#0a1f62"/><path id="path256" d="M80.466,52.867a11.023,11.023,0,0,1,2.575.093,3.665,3.665,0,0,1,1.7.24l.049-.054a3.338,3.338,0,0,1,.5,2.285c.123,1.068.55,2.284.748,3.377.061.495-.369.132-.567.233a4.346,4.346,0,0,0-.9-.2c-.506-.212-1.3.028-1.68-.212-.222.127-.476-.089-.674-.035a12.085,12.085,0,0,0-3.045.142c-1.17.175-2.191.3-3.31.519-.2.206-.524.036-.722.166-1.515.357-2.922,1.161-4.409,1.668-.068.251-.4.061-.544.186a38.438,38.438,0,0,1-4.181,1.887,39.579,39.579,0,0,0-8.57,5.526c-.3-.166-.363-.643-.322-.968-.166-1.887-.055-3.661-.075-5.657-.071-1.044,1.4-1.079,1.884-1.786.734-.739,1.9-.964,2.66-1.729,1.63-.859,3.078-2.039,4.891-2.526.542-.337,1.067-.3,1.609-.634.1,0,.226.045.3-.032l-.025-.049c.476.016.914-.442,1.416-.353.2-.178.571-.19.817-.37.349,0,.645-.21,1.069-.2.543-.309,1.394-.2,2.013-.491.224,0,.494-.208.746-.162.418-.26,1.146-.054,1.44-.383a2.756,2.756,0,0,0,1.47-.206,16.883,16.883,0,0,0,2.691-.259c.177.121.3.044.448-.012" style="fill:#0a1f62"/><path id="path258" d="M131.949,52.786a4.429,4.429,0,0,1,1.7,1.135c-.73.889-1.825,1.035-2.839,1.534-.47.232-.954-.255-1.41-.467-.551-.162-1.031-.329-1.483-.491l.023-.052c-.224,0-.378-.192-.529-.263-.084-.37.513-.483.734-.687a6.035,6.035,0,0,0,1.868-1.339,4.74,4.74,0,0,1,1.938.63" style="fill:#0a1f62"/><path id="path260" d="M60.906,54.024a1.206,1.206,0,0,0,.254,1.265,12.583,12.583,0,0,0,1.168.9,1.882,1.882,0,0,0,1.1.2c.051.15.23.243.184.447-.3.155-.718.288-1.039.47a24.23,24.23,0,0,1-3.283,1.693,3.518,3.518,0,0,1-1.218-.82,1.591,1.591,0,0,1-.486-1.685,13.482,13.482,0,0,1,2.595-2.4c.2,0,.636-.588.722-.067" style="fill:#0a1f62"/><path id="path262" d="M121.944,53.406a21.168,21.168,0,0,1,2.254.174,1.79,1.79,0,0,0,.678.158,14.189,14.189,0,0,1,3.624,1.268,14.557,14.557,0,0,1,4.1,2.554,3.664,3.664,0,0,1,1.046,1.024c-.044.275-.058.7-.1,1.026a11.409,11.409,0,0,1-.3,2.122,1.873,1.873,0,0,1-.129.9c-.018.3.093.848-.051,1.075-.574.036-.538-.56-.968-.827a9.564,9.564,0,0,0-1.6-1.234l.05-.032a2.617,2.617,0,0,1-.835-.524l-.05.049a17.278,17.278,0,0,0-2.676-1.287l-.047.05c-.482-.289-1.182-.325-1.662-.614-.1,0-.328-.117-.453-.064a.967.967,0,0,0-.549-.037l.05-.052a8.763,8.763,0,0,0-1.807-.309c-.8-.081-1.726-.085-2.527-.17-.07.178-.173.032-.274.008a19.825,19.825,0,0,0-5.6.921c-.819.194-1.482.754-2.3.95-1.105-1.348-1.535-2.732-2.709-3.932a1.214,1.214,0,0,1-.014-.674,19.4,19.4,0,0,1,2.667-1.306A4.248,4.248,0,0,1,113.1,54.4a10.937,10.937,0,0,1,1.216-.426c.1.1.349.016.5-.089a19.989,19.989,0,0,1,4.308-.54,26.1,26.1,0,0,1,2.824.061" style="fill:#0a1f62"/><path id="path264" d="M84.628,59.265c.027.1.2.042.3.115.226.093.919-.269.855.3-.94,1.493-3.072,1.117-4.637,1.477a27.158,27.158,0,0,1-4.677-.2c-.1-.2-.423.036-.554-.212-.246.2-.378-.218-.676-.085-.129-.146-.252-.069-.405-.216-.049-.047-.347.058-.3-.166.042-.4.647-.141.891-.418v.046a18.223,18.223,0,0,1,2.09-.418,4.792,4.792,0,0,1,1.266-.252,21.884,21.884,0,0,1,4.619-.1c.45.04.752.081,1.226.125" style="fill:#0a1f62"/><path id="path266" d="M116.875,60.2a4.16,4.16,0,0,1,.678,3.572l-.375.008c-.851-1.2-2.334-1.668-3.6-2.216a2.492,2.492,0,0,1-1.46-.487c-.055-.224.219-.256.316-.382,1.017-.3,2.059-.693,3.028-.913a2.531,2.531,0,0,1,.9-.149l.512.567" style="fill:#0a1f62"/><path id="path268" d="M128.982,61.006a27.484,27.484,0,0,1,2.85,2.332,2.251,2.251,0,0,1,.861.654c-.163.4-.74.316-1.111.471-.054-.147-.325-.04-.4-.139-.17.177-.2-.121-.4-.016.023-.073-.052-.1-.1-.146-.05,0-.076.026-.074.049-.456-.263-.984-.453-1.245-.994a3.064,3.064,0,0,1-.955-2.447c.322-.133.31.418.58.236" style="fill:#0a1f62"/><path id="path270" d="M86.3,62.443c.462,1.683.093,3.115-.068,4.861-.694.291-1.519.26-2.237.523a9.158,9.158,0,0,0-3.122,1.192c-1.434.657-2.733,1.759-4.066,2.533-.883.742-1.993,1.318-2.979,1.988a12.242,12.242,0,0,1-2.489,1.523,11.819,11.819,0,0,1-1.9,1.09,22.872,22.872,0,0,1-3.161,1.692c-.341.332-.8.065-1.164.425-.574.034-.663-.584-.871-1.029-.6-1.359-1.724-2.208-2.6-3.384.065-.426.67-.167.993-.248.272-.182.671-.19.94-.422l-.051-.045c.4.065.619-.315.966-.4.888-.444,1.751-.963,2.668-1.357.021-.174.148-.027.22-.128.839-.44,1.444-1.353,2.31-1.721a24.936,24.936,0,0,1,2.654-1.929,44.079,44.079,0,0,1,4.659-2.847,12.7,12.7,0,0,1,1.877-1.036l-.052-.051c.6-.163,1.216-.4,1.787-.509a6.332,6.332,0,0,1,2.307-.729,6.957,6.957,0,0,1,2.916-.386c.2.073.426.19.458.39" style="fill:#0a1f62"/><path id="path272" d="M114.5,62.37a11.788,11.788,0,0,1,2.515,1.869c-.235.776-1.079.919-1.647,1.307a5.608,5.608,0,0,1-1.7-.19,20.489,20.489,0,0,0-2.092-.828c-.155-.216-.6-.186-.76-.455l-.2.008c.024-.056-.028-.08-.028-.1-.151-.02-.325-.167-.5-.163a.125.125,0,0,0-.049-.1,11.6,11.6,0,0,1-1.464-.71c.1-.056.046-.129.046-.206.4.194.924.081,1.305.3.071-.151.148-.026.224,0a7.521,7.521,0,0,1,1.347.019c.42-.235.972-.118,1.34-.406.427.094.766-.362,1.218-.324l.1-.1c.054.174.227.047.352.093" style="fill:#0a1f62"/><path id="path274" d="M108.731,63.57a29.586,29.586,0,0,0,2.8,1.388c.276.041.581.281.831.329a10.923,10.923,0,0,1,1.137.548c.3.093.629.186.956.252a2.442,2.442,0,0,0,.8.259,14.548,14.548,0,0,0,2.991.782c.4.139.98.252,1.482.366a18.127,18.127,0,0,0,2.931.383c.326.015.728.16,1,.027.553.287,1.347-.053,2.079.228,1.348.145,3.122-.018,4.445,0l.047-.046c.054.171.175,0,.25-.007a45.367,45.367,0,0,0,7.325-.886l.18.224-.049.05a9.748,9.748,0,0,1,.912,4.019l.078.074c-.115.447.095.893-.1,1.271a9.663,9.663,0,0,0-2.4-.095c-.027-.149-.251-.044-.4-.068-.026.028-.05.052-.05.078h-.073c0-.026-.026-.05-.052-.074a1.358,1.358,0,0,1-.9.093,9.259,9.259,0,0,1-1.444.183c-.222.126-.474.057-.748.093-.149.027-.295.178-.448.057-.121.2-.425.008-.546.186a19.441,19.441,0,0,1-2.144.2,7.614,7.614,0,0,1-1.5.107,32.69,32.69,0,0,1-4.671-.021,9.755,9.755,0,0,0-1.178-.149c-.278-.143-.849-.054-1.252-.2-.323.081-.8-.133-1.228-.125a8.206,8.206,0,0,0-.855-.228c-.422.086-.777-.158-1.126-.126A3.351,3.351,0,0,0,116.7,72.5l0-.028a10.785,10.785,0,0,1-1.079-.2c-.174-.073-.4-.267-.676-.186a3.04,3.04,0,0,1-.68-.285c-.125,0-.377-.138-.552-.085a5.074,5.074,0,0,0-1.658-.487c-.2-.17-.53-.19-.783-.356h-.125v-.046c-1.034-.352-1.871-.96-2.876-1.285-.082-.248-.355-.216-.534-.341l.05-.045a2.339,2.339,0,0,0-.73-.287c-.357-.414-1.234-.521-1.325-1.141a20.052,20.052,0,0,1,1.868-4.756c.429.142.661.511,1.139.6" style="fill:#0a1f62"/><path id="path276" d="M65.043,64.853c.51.487,1.488.665,1.879,1.432a1.542,1.542,0,0,1-.288,1.627,4.7,4.7,0,0,1-1.549,1.107c-.268.378-.867.366-1.133.747a11.791,11.791,0,0,0-1.43.752c-1.138.5-1.392-.842-2.392-.842-.1-.047-.129-.2-.228-.144l-.049.051c-.254-.221-.528-.14-.853-.206l0-.053a2.617,2.617,0,0,0-.6-.036c.021-.15-.175-.017-.226-.118-.074.077-.175.029-.274.057-.052-.049-.054-.146-.129-.174,1.331-.828,2.2-1.941,3.536-2.745a12.832,12.832,0,0,1,2.541-1.427c.074-.129.246-.2.242-.38a7.291,7.291,0,0,0,.958.356" style="fill:#0a1f62"/><path id="path278" d="M67.9,67.712c-.069.224.135.444.191.668a3.225,3.225,0,0,1-.577,2.2c-.865.394-1.5,1.08-2.392,1.4-1.034.719-2.157.8-3.317,1.369-.129-.171-.627-.085-.756-.309a1.148,1.148,0,0,1,.147-1.3c.441-.361,1.085-.6,1.6-.986.575.065.91-.644,1.509-.656.072-.127.222-.1.32-.18l-.05-.047c.647-.115,1.158-.678,1.777-.939.441-.434,1.153-.972,1.137-1.723l.073-.1c.252.143.083.448.337.592" style="fill:#0a1f62"/><path id="path280" d="M85.79,67.793c-.087,1.67-1.664,2.676-2.894,3.576-.123.028-.174-.019-.228-.146-.089-.669.288-1.776-.793-2-.105-.3.244-.277.39-.41.223-.127.55-.057.768-.289l.028.05a6.8,6.8,0,0,1,.819-.24,9.534,9.534,0,0,1,1.908-.541" style="fill:#0a1f62"/><path id="path282" d="M107.362,69.486a2.581,2.581,0,0,1,.784.434c.222.018.38.24.678.259.133.367.928.2.813.676a2.826,2.826,0,0,1-3.167.17,2.584,2.584,0,0,1-.881-2.622c.373-.085.682.382.962.6a4.4,4.4,0,0,1,.809.483" style="fill:#0a1f62"/><path id="path284" d="M84.733,70.833a9.1,9.1,0,0,0-.559,2.881c0,.269.287.638.069.943-.579-.212-.865.417-1.44.356l-.974.046c-.327-.092-.528-.111-.684-.432a1.566,1.566,0,0,1-.072-1.022,3.058,3.058,0,0,1,.954-.921l0-.1c.794-.366,1.23-.922,2-1.291a2.458,2.458,0,0,1,.714-.463" style="fill:#0a1f62"/><path id="path286" d="M137.79,73.033c.4.138.978.178,1.139.6a.988.988,0,0,1-.56.734c-1.015.349-2.364.43-3.3.8l-.151-.045a7.246,7.246,0,0,0-1.329.929c-.355-.218.066-.478.084-.729.462-.606.743-1.412,1.2-2.045.524-.062.847-.143,1.345-.205a3.619,3.619,0,0,0,1.448-.077l.1.095.024-.049" style="fill:#0a1f62"/><path id="path288" d="M136.053,75.763a1.525,1.525,0,0,0-.641,1.535,3.514,3.514,0,0,0,.843.883c.176.066.551.01.407.313a2.984,2.984,0,0,1-1.022.147v-.05c-.127-.071-.325-.016-.45-.016-.03-.2-.276-.016-.377-.138-.6-.09-.887-.531-1.265-.721l.047-.054c-.331-.316-.137-.542-.069-.944a5.3,5.3,0,0,1,2.394-1.271c.051.069.305.188.133.316" style="fill:#0a1f62"/><path id="path302" d="M110.676,67.385l-.008,0L108.7,69.033l-.24-.111.381-2.382-.01,0-1.45,1.834-.7-.323,2.475-3,.49.228-.329,2.51,2.043-1.718.5.233-1.344,3.519-.7-.321.85-2.113" style="fill:#fff"/><path id="path304" d="M112.731,69.783l-.6.608-.769-.255,2.88-2.966.567.19,0,3.92-.78-.259,0-.8-1.3-.434Zm1.355-1.546-.01,0-.916,1.087.89.293.036-1.376" style="fill:#fff"/><path id="path306" d="M116.454,71.678l-.75-.188,1.072-3.457.749.188-1.071,3.457" style="fill:#fff"/><path id="path308" d="M118.44,68.38l.553.081,1.617,2.782.009,0,.439-2.38.767.112-.666,3.608-.551-.085-1.617-2.78h-.01l-.444,2.4-.768-.117.671-3.627" style="fill:#fff"/><path id="path310" d="M123.882,72.619,123.1,72.6l.117-2.974-.8-.026.022-.607,2.386.073-.023.612-.8-.028-.115,2.974" style="fill:#fff"/><path id="path312" d="M126.4,71.908l-.323.757-.819,0,1.535-3.685.6,0,1.529,3.676-.831,0-.309-.755Zm.663-1.877h-.01l-.433,1.309.946,0-.5-1.3" style="fill:#fff"/><path id="path314" d="M130.578,72.573l-.777.034-.193-3.58.778-.036.192,3.582" style="fill:#fff"/><path id="path316" d="M131.334,68.875l.557-.058,2.406,2.271.01,0L134,68.69l.771-.077.468,3.628-.553.057-2.41-2.271-.01,0,.314,2.414-.774.081-.472-3.651" style="fill:#fff"/><path id="path318" d="M112.825,57.962l.009,0,.034-2.592.442-.113,1.528,2.21h.01l.037-2.544.786-.194-.226,3.847-.552.137-1.454-2.074-.008,0-.037,2.44-.55.133-2.3-3.226.787-.194,1.494,2.17" style="fill:#fff"/><path id="path320" d="M117.109,55.17l.133.776,1.223-.17.1.6-1.224.17.162.959,1.272-.178.105.6-2.041.284-.607-3.543,2.037-.287.1.6-1.269.178" style="fill:#fff"/><path id="path322" d="M122.071,56.986l.01,0,1.335-2.3.448.085.252,2.592.01,0,1.315-2.255.8.146L124.1,58.6l-.561-.105-.254-2.436-.01,0-1.257,2.163-.562-.105-.426-3.81.8.146.24,2.537" style="fill:#fff"/><path id="path324" d="M126.294,59.091l-.746-.2,1.113-3.438.748.194-1.115,3.442" style="fill:#fff"/><path id="path326" d="M127.74,58.867l1.045.313-.214.576-1.783-.535,1.261-3.4.738.219-1.047,2.828" style="fill:#fff"/><path id="path328" d="M129.678,59.6l1.015.378-.259.56-1.734-.645,1.422-3.081.718.265-1.162,2.519" style="fill:#fff"/><path id="path330" d="M115.447,51.4h-.889l-.752-.986h-.01l.022.97h-.734l-.016-3.012.992,0c.744,0,1.258.3,1.256,1.028a.919.919,0,0,1-.772.948ZM113.8,49.945h.1c.4,0,.69-.109.69-.523s-.294-.507-.682-.507h-.1l0,1.03" style="fill:#fff"/><path id="path332" d="M117.144,51.372h-.666l-.008-3.415h.667l.007,3.415" style="fill:#fff"/><path id="path334" d="M120.828,49.311l0,.085c.012.966-.472,1.828-1.534,1.84a1.673,1.673,0,0,1-1.652-1.763,1.7,1.7,0,0,1,1.647-1.833,1.477,1.477,0,0,1,1.362.8l-.585.324a.869.869,0,0,0-.787-.528c-.645.008-.954.669-.946,1.233a1.079,1.079,0,0,0,.981,1.183.8.8,0,0,0,.77-.785l-.726.008-.006-.542,1.474-.018" style="fill:#fff"/><path id="path336" d="M123.107,48.788l-.048-1.346.667-.024.122,3.416-.668.027-.053-1.528-1.236.043.055,1.527-.666.024-.123-3.416.666-.022.05,1.341,1.234-.042" style="fill:#fff"/><path id="path338" d="M126.26,50.748l-.664.04-.173-2.827-.688.041-.036-.58,2.041-.123.036.576-.688.042.172,2.831" style="fill:#fff"/><path id="path340" d="M129.436,48.083a.617.617,0,0,0-.528-.251.407.407,0,0,0-.394.408c.033.572,1.372.257,1.438,1.4a1.08,1.08,0,0,1-1.058,1.227,1.21,1.21,0,0,1-1.089-.608l.407-.441a.7.7,0,0,0,.645.461.456.456,0,0,0,.41-.519c-.02-.352-.351-.433-.625-.518-.448-.159-.781-.359-.811-.889a1,1,0,0,1,.938-1.08,1.414,1.414,0,0,1,.954.329l-.287.479" style="fill:#fff"/><path id="path342" d="M85.988,77.934l.044.768-.639.3-.246-3.741.47-.211,2.638,2.649-.648.293-.538-.544Zm-.218-1.862-.008,0,.173,1.285.74-.336-.905-.953" style="fill:#fff"/><path id="path344" d="M86.393,74.482l.337-.338,2.965.4.006,0-1.632-1.618.466-.471L91.012,74.9l-.337.341-2.965-.4,0,.008,1.646,1.627-.466.478-2.493-2.47" style="fill:#fff"/><path id="path346" d="M89.057,71.49l.555-.77a1.708,1.708,0,0,1,2.769,2l-.551.77ZM91.748,72.6l.064-.085A1.129,1.129,0,1,0,89.979,71.2l-.063.089L91.748,72.6" style="fill:#fff"/><path id="path348" d="M93.335,67.572a1.694,1.694,0,1,1,2.36-.751A1.721,1.721,0,0,1,93.335,67.572Zm.274-.634a1.014,1.014,0,1,0,.863-1.806,1.006,1.006,0,1,0-.863,1.806" style="fill:#fff"/><path id="path350" d="M93.6,63.031l.264-.61,1.759.753c.387.166.946.364,1.172-.155s-.309-.784-.7-.95l-1.759-.755.263-.611,1.881.8c.765.329,1.2.9.843,1.741s-1.081.915-1.849.586l-1.88-.8" style="fill:#fff"/><path id="path352" d="M98.724,58.819l-.281.755-1.583.3,0,.006,1.291.481-.232.622-3.2-1.188.315-.842a.98.98,0,0,1,1.365-.713.9.9,0,0,1,.644.982Zm-2.305.9.03-.081c.129-.338.117-.621-.274-.764s-.565.073-.688.406l-.032.085.964.354" style="fill:#fff"/><path id="path354" d="M65.971,75.732l.008,0L65.353,73.2l.4-.2,2.053,1.838.008,0-.611-2.487L67.925,72l.756,3.794-.5.244-1.944-1.723-.01.008.587,2.384-.5.248-3.061-2.674.716-.348,2.007,1.8" style="fill:#fff"/><path id="path356" d="M69.195,71.815l.432.687,1.081-.544.331.53-1.081.545.532.847,1.12-.564.334.529-1.8.909-1.96-3.129,1.8-.909.331.531-1.122.568" style="fill:#fff"/><path id="path358" d="M74.268,72.213l-.642.39L71.37,69.649l.873-.537a1.239,1.239,0,0,1,1.839.216.965.965,0,0,1-.339,1.582l-.32.192.845,1.107Zm-1.21-1.586.131-.081c.381-.232.53-.434.236-.82s-.577-.283-.934-.061l-.113.069.68.893" style="fill:#fff"/><path id="path360" d="M78.195,69.9l-.795.452L75.722,69.6l-.01,0,.861,1.222-.657.37-2.134-3.023.889-.507a1.218,1.218,0,0,1,1.769.271.875.875,0,0,1-.1,1.23Zm-2.774-.711.085-.047c.363-.2.549-.448.287-.816s-.577-.3-.926-.1l-.089.051.643.909" style="fill:#fff"/><path id="path362" d="M78.858,69.193l-.671.355-2.029-3.089.671-.357,2.029,3.091" style="fill:#fff"/><path id="path364" d="M81.307,67.336l.322.535-2.545,1.237-.032-3.37-1.307.636-.321-.535,2.392-1.164.034,3.368,1.457-.707" style="fill:#fff"/><path id="path366" d="M81.557,64.516l.369.721,1.123-.469.282.552-1.121.466.45.881,1.166-.483.284.552-1.872.778-1.672-3.257,1.874-.776.284.552-1.169.483" style="fill:#fff"/><path id="path368" d="M59.525,64.657l.946-.754.284,1.035-1.722.913-.759-3.915.763-.146.488,2.867" style="fill:#fff"/><path id="path370" d="M62.1,64.106l-.768.137-.682-3.927.767-.13.683,3.92" style="fill:#fff"/><path id="path372" d="M62.433,59.214l.954-.163c.73-.119,1.367-.273,1.5.507a1.376,1.376,0,0,1-.315,1.006.877.877,0,0,1,.883.754c.129.775-.486,1.153-1.135,1.45L63.1,63.14ZM63.752,62.2l.188-.062c.336-.293.718-.182.631-.693s-.486-.228-.871-.162l-.127.024Zm-.276-1.482.093-.015c.375-.062.54-.2.473-.606s-.316-.466-.639-.414l-.1.02.172,1.019" style="fill:#fff"/><path id="path374" d="M66.5,58.069l.184.859,1.21-.507.141.666-1.21.5.226,1.051,1.258-.61.143.662-2.017.776-.841-3.9,2.019-.657.143.661-1.258.5" style="fill:#fff"/><path id="path376" d="M72.007,59.748l-.93.155-1.22-1.428-.01,0,.264,1.586-.768.129-.654-3.935,1.039-.174c.78-.131,1.375.125,1.513.968a1.048,1.048,0,0,1-.622,1.222Zm-2.249-1.806.1-.016c.422-.069.7-.243.621-.726s-.405-.527-.813-.462l-.106.016.2,1.188" style="fill:#fff"/><path id="path378" d="M73.838,59.041l-.764.151-.639-3.246-.789.155-.129-.662,2.341-.459.129.661L73.2,55.8l.639,3.245" style="fill:#fff"/><path id="path380" d="M76.311,58.471l-.773.093-.478-3.956.773-.093.478,3.956" style="fill:#fff"/><path id="path382" d="M78,54.794l.044.877,1.237-.061.034.677-1.238.061.054,1.075,1.285-.061.032.673-2.061.105-.2-3.984,2.063-.1.031.678L78,54.794" style="fill:#fff"/><path id="path384" d="M82.283,54.74a.713.713,0,0,0-.555-.394.478.478,0,0,0-.536.39c-.075.67,1.528.569,1.375,1.9a1.263,1.263,0,0,1-1.46,1.206,1.414,1.414,0,0,1-1.128-.912l.553-.43a.812.812,0,0,0,.649.657.53.53,0,0,0,.575-.509c.047-.41-.318-.568-.613-.728-.486-.266-.829-.569-.76-1.179a1.16,1.16,0,0,1,1.293-1.055,1.623,1.623,0,0,1,1.032.564l-.425.5" style="fill:#fff"/><path id="path386" d="M58.67,50.962a1.713,1.713,0,0,1,1.282-2.015,1.6,1.6,0,0,1,1.743,1.53,1.713,1.713,0,0,1-1.279,2.028A1.6,1.6,0,0,1,58.67,50.962Zm.613-.128c.068.511.542,1.1,1.048,1.021s.811-.794.745-1.3a1.009,1.009,0,0,0-1.039-.958,1.08,1.08,0,0,0-.754,1.242" style="fill:#fff"/><path id="path388" d="M61.642,47.859l.662-.089.262,1.895c.057.418.176,1,.738.925s.517-.673.458-1.091L63.5,47.6l.663-.089.279,2.028c.113.823-.151,1.5-1.059,1.619s-1.347-.447-1.46-1.275l-.281-2.024" style="fill:#fff"/><path id="path390" d="M67.58,49.642l-.8.136-1.056-1.21h-.007l.238,1.357-.659.113-.587-3.363.889-.154c.664-.115,1.176.1,1.3.816a.9.9,0,0,1-.526,1.053l1.2,1.25Zm-1.94-1.531.085-.016c.363-.061.6-.212.526-.622s-.349-.449-.7-.39l-.089.014.176,1.014" style="fill:#fff"/></g></g></g></g></svg>