<svg xmlns="http://www.w3.org/2000/svg" viewBox="0 0 177.847 118.564"><g id="Layer_2" data-name="Layer 2"><g id="Maryland"><g id="Maryland-2" data-name="Maryland"><g id="q1"><rect width="88.923" height="59.282"/><path d="M0,59.282V9.88l14.821,9.881V59.282h14.82V0H44.462V59.282h14.82V0H74.1V59.282h14.82V49.4L14.821,0V19.761L74.1,59.282Z" style="fill:#eaab00"/></g><g id="q2"><rect x="88.923" width="88.923" height="59.282" style="fill:#fff"/><path d="M133.385,0h44.462V29.641H88.923V59.282h44.462Z" style="fill:#981e32"/><path id="cross" d="M133.385,55.132a3.794,3.794,0,0,0,3.794-3.794v-1.9h3.675a3.794,3.794,0,1,0,0-7.588h-3.675V33.435h23.594v3.676a3.794,3.794,0,1,0,7.588,0V33.435h3.32a3.794,3.794,0,0,0,3.794-3.794h-42.09Z" style="fill:#981e32"/><path id="cross-2" data-name="cross" d="M133.385,55.132a3.794,3.794,0,0,1-3.794-3.794v-1.9h-3.676a3.794,3.794,0,0,1,0-7.588h3.676V33.435H106v3.676a3.795,3.795,0,0,1-7.589,0V33.435H95.089A3.794,3.794,0,0,1,91.3,29.641h42.09Z" style="fill:#fff"/><path id="cross-3" data-name="cross" d="M133.385,4.15a3.794,3.794,0,0,1,3.794,3.794v1.9h3.675a3.794,3.794,0,1,1,0,7.588h-3.675v8.418h23.594V22.171a3.794,3.794,0,1,1,7.588,0v3.676h3.32a3.794,3.794,0,0,1,3.794,3.794h-42.09Z" style="fill:#fff"/><path id="cross-4" data-name="cross" d="M133.385,4.15a3.794,3.794,0,0,0-3.794,3.794v1.9h-3.676a3.794,3.794,0,0,0,0,7.588h3.676v8.418H106V22.171a3.795,3.795,0,0,0-7.589,0v3.676H95.089A3.794,3.794,0,0,0,91.3,29.641h42.09Z" style="fill:#981e32"/></g><g id="q2-2" data-name="q2"><rect y="59.282" width="88.923" height="59.282" style="fill:#fff"/><path d="M44.462,59.282H88.923V88.923H0v29.641H44.462Z" style="fill:#981e32"/><path id="cross-5" data-name="cross" d="M44.462,114.415a3.794,3.794,0,0,0,3.794-3.794v-1.9h3.675a3.795,3.795,0,0,0,0-7.589H48.256V92.717H71.85v3.676a3.794,3.794,0,1,0,7.588,0V92.717h3.32a3.794,3.794,0,0,0,3.794-3.794H44.462Z" style="fill:#981e32"/><path id="cross-6" data-name="cross" d="M44.462,114.415a3.794,3.794,0,0,1-3.794-3.794v-1.9H36.992a3.795,3.795,0,0,1,0-7.589h3.676V92.717H17.073v3.676a3.794,3.794,0,0,1-7.588,0V92.717H6.165a3.794,3.794,0,0,1-3.794-3.794H44.462Z" style="fill:#fff"/><path id="cross-7" data-name="cross" d="M44.462,63.432a3.794,3.794,0,0,1,3.794,3.794v1.9h3.675a3.794,3.794,0,1,1,0,7.588H48.256v8.418H71.85V81.454a3.794,3.794,0,1,1,7.588,0v3.675h3.32a3.794,3.794,0,0,1,3.794,3.794H44.462Z" style="fill:#fff"/><g id="q3"><path id="cross-8" data-name="cross" d="M44.462,63.432a3.794,3.794,0,0,0-3.794,3.794v1.9H36.992a3.794,3.794,0,1,0,0,7.588h3.676v8.418H17.073V81.454a3.794,3.794,0,0,0-7.588,0v3.675H6.165a3.794,3.794,0,0,0-3.794,3.794H44.462Z" style="fill:#981e32"/></g></g><g id="q4"><g id="q1-2" data-name="q1"><rect x="88.923" y="59.282" width="88.923" height="59.282"/><path d="M88.923,118.564v-49.4l14.821,9.881v39.521h14.82V59.282h14.821v59.282h14.821V59.282h14.82v59.282h14.821v-9.88l-74.1-49.4V79.043l59.282,39.521Z" style="fill:#eaab00"/></g></g></g></g></g></svg>