<svg xmlns="http://www.w3.org/2000/svg" viewBox="0 0 187 123"><g id="Layer_2" data-name="Layer 2"><g id="Mississippi"><g id="Mississippi-2" data-name="Mississippi"><polygon points="32.37 40.58 1 9.586 1 71.575 32.37 40.58" style="fill:#bf0a30"/><polygon points="42.899 50.855 12.39 81 73.409 81 42.899 50.855" style="fill:#bf0a30"/><polygon points="53.162 40.58 84 71.049 84 10.111 53.162 40.58" style="fill:#bf0a30"/><polygon points="42.899 30.638 72.896 1 12.903 1 42.899 30.638" style="fill:#bf0a30"/><polygon points="85 81 85 82 1 82 1 123 187 123 187 81 85 81" style="fill:#bf0a30"/><polygon points="186.694 1 85 1 85 41 187 41 187 1 186.694 1" style="fill:#002868"/><polygon points="85 41 85 81 186.694 81 187 81 187 41.205 187 41 85 41" style="fill:#fff"/><path d="M84,81V72L52.1,40.58l.293-.24L84,9.164V1H73.853L42.9,31.585l-.237-.234L11.945,1H1V8.639L33.562,40.58l-.359.24L1,72.522V81H11.432L42.9,49.742l.237.317L74.367,81ZM75.567,7l.944-2.868L77.454,7h3.052L78.037,8.345l.943,2.441L76.511,9.07l-2.47,1.887.943-2.64L72.515,7Zm-11.2,10,.943-2.868L66.25,17H69.3l-2.47,1.847.943,2.942-2.469-1.783-2.47,1.753.944-2.908L61.311,17ZM53.16,27l.943-2.868L55.046,27H58.1l-2.47,2.348.944,3.444-2.47-1.85-2.469,1.62.943-3.175L50.107,27ZM42.9,36.132,43.843,39H46.9l-2.469,1.912.943,3.008L42.9,42.128,40.43,43.864l.943-2.943L38.9,39h3.052ZM5.292,7H8.345l.943-2.868L10.231,7h3.053l-2.47,1.345.944,2.441L9.288,9.07,6.819,10.957l.943-2.64ZM16.5,17h3.053l.943-2.868L21.435,17h3.053l-2.47,1.847.943,2.942-2.469-1.783-2.47,1.753.944-2.908ZM30.169,29.387,27.7,27h3.052l.944-2.868L32.639,27h3.052l-2.469,2.348.943,3.444L31.7,30.942l-2.47,1.62ZM11.758,77.116l-2.47-1.8L6.819,77.021l.943-3L5.292,72H8.345l.943-2.868L10.231,72h3.053l-2.47,2.01Zm11.2-11.065-2.469-1.8-2.47,1.718.944-2.978L16.5,61h3.053l.943-2.868L21.435,61h3.053l-2.47,1.977Zm11.2-11.066L31.7,53.19l-2.47,1.726.943-2.96L27.7,50h3.052l.944-2.868L32.639,50h3.052l-2.469,1.945ZM50.107,50H53.16l.943-2.868L55.046,50H58.1l-2.47,1.945.944,3.04-2.47-1.8-2.469,1.726.943-2.96Zm11.2,11h3.053l.943-2.868L66.25,61H69.3l-2.47,1.977.943,3.074-2.469-1.8-2.47,1.718.944-2.978Zm11.2,11h3.052l.944-2.868L77.454,72h3.052l-2.469,2.01.943,3.106-2.469-1.8-2.47,1.709.943-3Z" style="fill:#002868"/><polygon points="9.288 9.07 11.758 10.786 10.814 8.345 13.284 7 10.231 7 9.288 4.132 8.345 7 5.292 7 7.762 8.317 6.819 10.957 9.288 9.07" style="fill:#fff"/><polygon points="20.492 20.006 22.961 21.789 22.018 18.847 24.488 17 21.435 17 20.492 14.132 19.549 17 16.496 17 18.966 18.851 18.022 21.759 20.492 20.006" style="fill:#fff"/><polygon points="31.696 30.942 34.165 32.792 33.222 29.348 35.691 27 32.639 27 31.696 24.132 30.752 27 27.7 27 30.169 29.387 29.226 32.562 31.696 30.942" style="fill:#fff"/><polygon points="54.103 53.19 56.573 54.985 55.629 51.945 58.099 50 55.046 50 54.103 47.132 53.16 50 50.107 50 52.577 51.956 51.634 54.916 54.103 53.19" style="fill:#fff"/><polygon points="62.837 65.969 65.307 64.251 67.776 66.051 66.833 62.977 69.303 61 66.25 61 65.307 58.132 64.364 61 61.311 61 63.781 62.991 62.837 65.969" style="fill:#fff"/><polygon points="74.041 77.021 76.511 75.312 78.98 77.116 78.037 74.01 80.506 72 77.454 72 76.511 69.132 75.567 72 72.515 72 74.984 74.026 74.041 77.021" style="fill:#fff"/><polygon points="74.984 8.317 74.041 10.957 76.511 9.07 78.98 10.786 78.037 8.345 80.506 7 77.454 7 76.511 4.132 75.567 7 72.515 7 74.984 8.317" style="fill:#fff"/><polygon points="63.781 18.851 62.837 21.759 65.307 20.006 67.776 21.789 66.833 18.847 69.303 17 66.25 17 65.307 14.132 64.364 17 61.311 17 63.781 18.851" style="fill:#fff"/><polygon points="52.577 29.387 51.634 32.562 54.103 30.942 56.573 32.792 55.629 29.348 58.099 27 55.046 27 54.103 24.132 53.16 27 50.107 27 52.577 29.387" style="fill:#fff"/><polygon points="35.691 50 32.639 50 31.696 47.132 30.752 50 27.7 50 30.169 51.956 29.226 54.916 31.696 53.19 34.165 54.985 33.222 51.945 35.691 50" style="fill:#fff"/><polygon points="24.488 61 21.435 61 20.492 58.132 19.549 61 16.496 61 18.966 62.991 18.022 65.969 20.492 64.251 22.961 66.051 22.018 62.977 24.488 61" style="fill:#fff"/><polygon points="13.284 72 10.231 72 9.288 69.132 8.345 72 5.292 72 7.762 74.026 6.819 77.021 9.288 75.312 11.758 77.116 10.814 74.01 13.284 72" style="fill:#fff"/><polygon points="41.956 39 38.904 39 41.373 40.921 40.43 43.864 42.899 42.128 45.369 43.92 44.426 40.912 46.895 39 43.843 39 42.899 36.132 41.956 39" style="fill:#fff"/><path d="M85,82V0H0V82H85ZM42.9,50.855,73.409,81H12.39Zm.237-.88-.237-.15L11.432,81H1V72.522l32.32-31.7.125-.24L1,8.639V1H11.945L42.662,31.351l.237.233L73.853,1H84V9.164L52.346,40.34l-.192.24L84,72v9H74.367ZM32.37,40.58,1,71.575V9.586ZM42.9,30.638,12.9,1H72.9ZM53.162,40.58,84,10.111V71.049Z" style="fill:#fff"/></g></g></g></svg>