<svg xmlns="http://www.w3.org/2000/svg" viewBox="0 0 188.755 118.942"><g id="Layer_2" data-name="Layer 2"><g id="Montana"><g id="Montana-2" data-name="Montana"><path id="path76473" d="M0,118.942H188.755V0H0Z" style="fill:#002a86"/><path id="path76474" d="M88.762,99.178c4.271,1.114,11.056.682,11.055.747,0,0,2.1-.235,2.609-.361.25-.186,3.156-.934,3.472-1.03,0,0,2.867-1.145,3.593-1.4,2.369-.874,4.654-2.743,6.71-4.319l1.013-.849c1.013-1.384,2.089-2.012,3.133-3.431a29.954,29.954,0,0,0,5.779-12.191,43.746,43.746,0,0,0,.747-7.063,32.64,32.64,0,0,0-.554-5.274,29.056,29.056,0,0,0-4.151-10.152,27.98,27.98,0,0,0-5.68-6.831c-4.973-4.023-10.149-6.733-17.354-7.416a52.679,52.679,0,0,0-6.678.157c-2.745.179-5.32,1.278-7.783,2.155a30.627,30.627,0,0,0-13,10.444,31.651,31.651,0,0,0-5.354,15.005,32.484,32.484,0,0,0,1.683,12.884c1.535,3.506,3.415,7.334,6.308,10.15a27.453,27.453,0,0,0,11.518,7.676l2.931,1.092"/><path id="path76475" d="M88.933,98.875a29.017,29.017,0,0,0,5.994.735,28.116,28.116,0,0,0,8.256-.634,33.636,33.636,0,0,0,6.759-2.419c1.128-.631,3.074-1.734,3.074-1.734a49,49,0,0,0,6.2-5.574,22.519,22.519,0,0,0,4.049-5.992,32.141,32.141,0,0,0,3.364-13.673,33.763,33.763,0,0,0-1.314-7.942c-1.051-4.256-4.995-10.515-6.219-11.436a31.053,31.053,0,0,0-12.658-8.6A28.718,28.718,0,0,0,95.82,39.926l-3.206.264c-5.175.489-9.253,2.522-13.662,5.386a29.011,29.011,0,0,0-12.1,20.9,29.991,29.991,0,0,0,1,11.845c1.6,4.389,3.507,8.685,7.222,12.167a29.8,29.8,0,0,0,6.609,5.331c1.051.789,7.257,3.05,7.257,3.05" style="fill:#ffd90f"/><path id="path76476" d="M96.241,40.873a19.662,19.662,0,0,1,7.52.633,46.95,46.95,0,0,1,7.518,3.257c2.838,1.053,8.2,7,8.2,7,.282.253,3.511,5.179,3.668,5.56a30.877,30.877,0,0,1,1.906,4.905,61.434,61.434,0,0,1,.9,7.815,28.37,28.37,0,0,1-1.762,9.713A38,38,0,0,1,120,87.344h-.094c-1.868,1.916-3.231,4.123-5.6,5.442.123.157.374.282.407.5-.317.567-1.546.5-1.546.563-.68-.132-1.77,1.1-2.656,1.571-3.493,2.292-9,3.444-9,3.444a74.206,74.206,0,0,1-8.045-.089,28.112,28.112,0,0,1-8.637-2.515c-1.859-.856-3.624-1.9-5.515-2.731a47.845,47.845,0,0,1-7.3-7.876,30.047,30.047,0,0,1-4.383-12.341c-.151-2.176-.094-6-.156-6.256.358-4.541,2.222-8.889,4.414-12.8,1.265-2.346,6.734-7.344,6.734-7.344a44.132,44.132,0,0,1,4.785-3.049,26.133,26.133,0,0,1,12.832-3"/><path id="path76477" d="M121.228,54.59a29.032,29.032,0,0,0-1.974-2.746,6.107,6.107,0,0,0-1.133-1.074c-.881-1.109-5.318-5.215-7.735-6.214-5.889-2.839-8.938-3.21-8.938-3.21a41.913,41.913,0,0,0-6.573-.157c-5.9-.017-12.1,3.346-12.893,3.893,0,0-6.405,4.2-9.087,8.255.283.472.7,1.088.981,1.567.916.095,1.133,1.1,1.351,1.8.094.347.5.824.787.759,1.011-1.072,1.836-2.393,2.849-3.4l.409-.127c1.231.416.91,1.833,1.349,2.717,1.26.952,1.824,2.372,2.736,3.542.474-.5.949-.91,1.362-1.417.945.033,1.39-1.29,2.369-.969,1.543.917.811,2.685,1.533,3.98A3.033,3.033,0,0,1,89.688,63.5c1.991-1.668,4.738-1.882,7.326-1.779,1.579-.249,3-1.159,4.608-.966,2.273-.118,3.822-2.259,6.031-2.188,1.26.414,2.651-.212,3.852-.559,1.519-1.665,4.1-.839,5.935-1.62,1.356-.063,2.15-1.511,3.506-1.537l.278-.256" style="fill:#ffd90f"/><path id="path76478" d="M81.674,52.935c.253-.282.317-.157.569-.468l.314.5c-.286.849-.945-.065-1.516.247a1.648,1.648,0,0,1-1.64.313s-.1.032-.063,0a2.215,2.215,0,0,0-1.893.119c-.443-.094-.85-.507-1.294-.225-.346.157-.6.063-.976.157.094-.378.6-.5.915-.66l.063.032c.442-.093,1.043-.946,1.546-.215.283-.061.569-.346.884-.156.219.632.726.221,1.1.1.159-.252.443-.192.664-.1l.188.16a4.836,4.836,0,0,0,.5-.346c.188.251.22.693.63.536" style="fill:#fff"/><path id="path76479" d="M125.593,70.005a17.491,17.491,0,0,1-.8,6.717,30.128,30.128,0,0,1-4.285,9.264c-.472-.38-.947.092-1.356-.289l-.094.1c-1.072-.161-2.491-.007-3.4-1.02a1.881,1.881,0,0,1-1.131-1.706c-1.1-1.266-2.932-1.238-4.382-1.843a.8.8,0,0,1-.346-.789c-.877-1.486-.653-3.41-2.07-4.679.6-.468,1.17-.343,1.8-.593a.845.845,0,0,0,.413-.912c-.22-.251-.347-.507-.692-.571-1.2-.254-2.085.816-3.192,1.19l-.565-.064a4.491,4.491,0,0,1,2.335-1.065,1.864,1.864,0,0,0,.634-.754c.252-.378-.376-.571-.564-.728a6.263,6.263,0,0,0-4.122,1.913l-.741-.094c-1.83-.837-3.953-1.1-5.643-2.04a3.609,3.609,0,0,0,1,.228,14.163,14.163,0,0,1,2.105-.633,11.123,11.123,0,0,1,2.576.21,13.21,13.21,0,0,0,2.1.314,2.016,2.016,0,0,0,1.734-.472,2.048,2.048,0,0,1,1.473-.474c.682.054,2.92-.25,3.785-.156a10.9,10.9,0,0,0,1.577.317c.843.05,1.948.1,2.211-.157a2.993,2.993,0,0,1,2.261-.578c.792.068,2,.157,2.733.261a17.836,17.836,0,0,0,2.682-.369,13.026,13.026,0,0,0,1.957-.524" style="fill:#1691ff"/><path id="path76480" d="M125.555,69.158c-.066-1.235-.174-2.469-.252-3.664a7.509,7.509,0,0,1-1.2.092c-.127.157-.221-.035-.348-.035l-2.776-.071c-1.641.405-3.375-.105-4.985-.014-2.333.249-4.51.143-6.594.327-1.2-.571-2.4.089-3.6-.136-2.428-.289-4.828.554-7.131.108-.851-.036-1.612.5-2.336.371-1.163-.825-2.649-.132-3.88.05-.538-.128-1.041-.571-1.577-.414-.127.378-.753.031-.849.279l.219.285c.028,1.01.973.983,1.638,1.265.6.286.722.761.973,1.3a5.191,5.191,0,0,1,1.887,1.231,48.744,48.744,0,0,0,5.438-.075,49.3,49.3,0,0,1,7.361-.211c1.841.106,3.629-.472,4.732-.421s6-.418,6.942-.157a10.506,10.506,0,0,0,3.89,0,10.173,10.173,0,0,1,2.442-.109" style="fill:#a8efff"/><path id="path76481" d="M105.62,75.185c-.157-.033-.284-.158-.442-.158" style="fill:#fff"/><path id="path76482" d="M105.179,75.027a16.442,16.442,0,0,0-2.912,3.269.39.39,0,0,0,.157.412c.949-.409,1.2-1.479,1.9-2.2.35-.85.858-.507,1.33-1.455l-.474-.023" style="fill:#a2d100"/><path id="path76483" d="M90.391,90.066a9.955,9.955,0,0,1-1.283.122,14.37,14.37,0,0,1-4.414-.9c.917-.881,2.432-1.223,3.508-2.1a3.747,3.747,0,0,0,.349-1.292,17.713,17.713,0,0,1,1.609,3.718l.231.456" style="fill:#a81800"/><path id="path76484" d="M90.724,90a2.57,2.57,0,0,0,.308-.089,4.338,4.338,0,0,1-.049-4.826c.379-.218.632.189.976.193l1.146-3.06-.157-.061a1.748,1.748,0,0,1-.632.061l-2.271-.006a21.334,21.334,0,0,0-2.461.023c-.82-.129-2.023.595-2.493-.386a15.677,15.677,0,0,1-.275-2.4c-.061-.348.317-.538.569-.63.032.221.347.1.411.127a5.856,5.856,0,0,0,2.43.009c1.23-.155,2.713-.154,3.754-.211-.029-.632-.849-1.2-.405-1.828.569-.191,1.17-.595,1.547-.219l1.57,2.275a14.31,14.31,0,0,0,.825-1.349c.475-.759.7-1.577,1.236-2.271.568.224,1.675-.31,1.64.666-.538.85-.731,1.859-1.365,2.679.411.064,1.168-.028,1.546,0,.694.1,1.356-.374,2.209-.435a6.343,6.343,0,0,1,1.079-2.047c.484-.564.994-1.145,1.539-1.683l-.51-.183a8.858,8.858,0,0,1-1.654-.595A15.157,15.157,0,0,1,97.173,72.3c-.975-1.391-2.458-1.017-3.816-1.5a7.776,7.776,0,0,0-1.436-.327l-.646-.037c.143.611-.767,1.091-.287,1.873-.285.538-1.011.628-1.485.755-.25-.034-.346.312-.285.442a3.216,3.216,0,0,0,1.293.194c1.041.536,2.524.033,3.469.859a.752.752,0,0,1-.35.725c-.755-.225-.978.374-1.766.343-1.419-.8-2.684.37-4.07-.361-1.168.5-1.986-.289-3.122.211-.918.348-1.64-.35-2.46-.354.44.664.091,1.2.467,1.9a.981.981,0,0,1-.7.564.525.525,0,0,0,.411.095.955.955,0,0,1,.566.632.677.677,0,0,1-.413.5,2.8,2.8,0,0,1-2.207-.007c-.221-.155-.5-.285-.44-.6a.38.38,0,0,1,.376-.191.3.3,0,0,0,.223-.378c-.03-.376-.347-.346-.566-.567-.818-.636.162-1.356.007-2.115-.19-.061-.317.1-.5.062a3.969,3.969,0,0,0,.181,2.084.864.864,0,0,1-.853.564c.188.343.914.381.785.98-.662.346-1.765-.134-2.491-.007a.732.732,0,0,1-.409-.634,1.042,1.042,0,0,1,.853-.438c.064-.632-.724-.7-.849-1.2a1.538,1.538,0,0,1,.414-1.353L75.68,75.01c.092.6.595,1.169.247,1.8-.317.471-.853.5-1.264.689a1.786,1.786,0,0,0,.726-.057c.348.06.442.316.63.567a.972.972,0,0,1-.225,1.137c-.283.093-.821.029-1.009.125a6.6,6.6,0,0,0-2.051-.228.747.747,0,0,1-.47-.853,2.509,2.509,0,0,1,1.264-.755c.253-.376-.315-.316-.44-.568a.974.974,0,0,1-.345-1.074,2.473,2.473,0,0,1,1.076-1.2,1.751,1.751,0,0,0-1.072.218c-.253-.031-.349.155-.695.061-.505-.1-1.074.217-1.577-.068l-.063.064-.221-.224a.843.843,0,0,1,.35-1.071,4.283,4.283,0,0,1,2.305-.4.229.229,0,0,0-.03-.35l-.062.065c-.282-.347-.916,0-1.135-.289a2.178,2.178,0,0,1-.973-1.927c.1-.566.917-.595.854-1.194a26.6,26.6,0,0,0-3.564.177c-.357,3.532.642,6.785,1.484,9.974.188.286.6.256.851.414a71.8,71.8,0,0,1,11.2,1.734c.783.759,1.981,1.49,2.388,2.564a6.019,6.019,0,0,1,3-.054c.315.129.788.19.976.411l.033-.061a.739.739,0,0,0,.472.285A11.914,11.914,0,0,1,90.48,89.5l.244.51" style="fill:#a2d100"/><path id="path76485" d="M91.089,70.1a15.349,15.349,0,0,0-1.069-1.71.874.874,0,0,0-.976-.382l-.031.032c-.6-1.071-1.508-2.369-2.832-2.5-.535-.536-.375-1.356-.625-1.988-.545-.852-.947-1.775-1.457-2.621l-.334-.759a6.81,6.81,0,0,1,2.153-1.552l.529.442a1.072,1.072,0,0,1,.477.52c-.037,1.988,1.441,3.347,2.191,5.023a1.952,1.952,0,0,0,.107.871l.238.487c.976.414.562,2.179,1.92,1.805.188.129.472.221.693.35a2.142,2.142,0,0,0,1.51,1.547c.535.35.848.665,1.384,1.017a19.451,19.451,0,0,0-3.145-.531l-.733-.051" style="fill:#e8d9a8"/><path id="path76486" d="M111.273,59.351c.075.037.2.064.2.2.1-.035.19.029.284.029.127.066.442.16.442,0l.123.123c-.029-.057,0-.092.034-.123,1.1.727,2.273-.5,3.089.64,0,.282-.252.469-.252.629-.063-.032-.033-.126-.033-.157a.959.959,0,0,1-.408.031V60.7c-.191.313-.6-.225-.506.282-.157-.225-.5-.094-.632-.129v-.064l-.063.064-.155-.16c-.158.064-.442-.186-.567,0l-.19-.19-.092.126a.157.157,0,0,1-.063-.126h-.156c-.033-.035-.094-.061-.063-.095l-.063.034-.282-.224v.125c-.157-.061-.315.157-.442-.125,0,.125.189.221.031.343l-.219-.343c-.1.029-.347,0-.286.186-.223.409-.124-.064-.378-.064,0,.061-.031.095-.061.095l-.188-.156.061.061-.156.156c-.032-.221-.284-.095-.409-.224l.062-.061c-.127.033-.254.221-.346,0l.063-.061-.063.061c-.127-.317-.507.092-.442-.286-.063,0-.157,0-.19.061l-.094-.156c-.1.156-.251-.317-.284,0a.181.181,0,0,1-.127-.061.178.178,0,0,0,.065-.129l-.129.19a.1.1,0,0,1-.031-.129l-.063.064c-.094.032-.315-.035-.282-.064l-.063.064a.173.173,0,0,1-.061-.128c-.222.06-.346-.1-.442.125-.348-.065-.317.1-.567,0a2.026,2.026,0,0,1-.474.221c-.442-.316-.757.253-1.166.058l.031.064c-.127.031-.285.157-.379.028,0,.16-.221.157-.063.285-.537.691-1.484.688-2.336.753-.882.217-1.053.006-1.683.382,1.163-.2.791.338,1.177.181.284.061.6.382.914.1.473.25,1.074-.47,1.356.128-.033.6-.757.469-1.074.564A4.658,4.658,0,0,0,101,62.294c-.348.157-.371.2-.75.042.031-.031-.442-.056-.474-.12H99.07a2.021,2.021,0,0,0-1.695.068c-.726-.1-1.262.406-1.8.057a11.978,11.978,0,0,1-2.239.154c-.6-.1-1.074.374-1.641.562a4.194,4.194,0,0,0-1.568,1.131l-.662.178-.045-.307c2.405-2.424,6.158-1.561,8.872-2.243,1.58-1.041,3.566-.246,5.178-1.123,1.8-.721,3.353-2.355,5.621-1.624.25-.063.567.033.727-.092.131.4.479.271.848.268l.623.1" style="fill:#e8d9a8"/><path id="path76487" d="M111.505,58.977c.614-.132,1.189-.606,1.894-.555a5.189,5.189,0,0,1,2.083-.751,1.05,1.05,0,0,0,.756-.061l.062.061c.38-.282,1.041-.121,1.452-.438l.632,0c0,.061.031.1.062.1.443-.287,1.137-.063,1.485-.595.383-.731,1.325-.66,1.836-1.1l-.435-.752a8.035,8.035,0,0,0-1.178.527c-1.549,1.448-3.791,1.6-5.81,1.877-1.671-.258-2.655,1.505-4.265,1.629v.094c.063,0,.157,0,.188.063-.061-.128.223-.124.286-.284.156.066-.1.252,0,.191l.094-.125a.209.209,0,0,0,.083.151l.768-.033" style="fill:#e8d9a8"/><path id="path76488" d="M104.5,65.187a25.2,25.2,0,0,0,4.15-.026,8.656,8.656,0,0,0,1.26.289c1.861-.089,3.977-.277,5.807-.27,1.7-.308,3.277.328,4.826.014,1.607-.153,3.059-.024,4.7-.047v-.129a21.492,21.492,0,0,0-3.149-9.04l-.609.048a3.831,3.831,0,0,0-1.768,1.088c-.127.094-.221.094-.349.19-.095-.1-.222.092-.346.092a15.3,15.3,0,0,0-2.494.275,1.793,1.793,0,0,1-1.2.218c-1.072-.035-1.864.971-3,.907a2.149,2.149,0,0,0-.759.47l.283.221c.347-.188.5.064.916,0-.033.094.063.094.125.157l.159-.221.156.221c.094-.031.063-.092.063-.157l.346,0c0,.061.03.094.061.094l.094-.155a.166.166,0,0,0,.063.125l.063-.061c.156,0,.538-.191.851.094l.061.065c.033-.155.285-.033.379.062l.124.129.062-.064c.472.254.032.663.155,1.074a5.664,5.664,0,0,1-1.925.214,7.168,7.168,0,0,0-2.113-.446L111.4,60.5l-.127.126c-1.516.534-2.489-1.234-4.036-.7a2.422,2.422,0,0,1-1.355.122,1.7,1.7,0,0,0-1.2.912c-.885.439-1.9.244-2.749.557.724.757,2.719-.969,2.461.86-1.169.977-2.72-.3-4.08.324a4.562,4.562,0,0,0-1.632-.406c-1.166-.064-1.99.6-3.314.275a15.948,15.948,0,0,1-2.62.214,8.537,8.537,0,0,0-2.369,1.48l-.872.538.078.526.395.351c.5-.024.977-.367,1.593-.217,1.447.92,2.841-.592,4.291.008.879.792,1.86-.339,2.837-.115a9.141,9.141,0,0,0,3.542.028,7.209,7.209,0,0,1,.552-1.383c.158-.121,1.065-.556,1.342-.749a7.822,7.822,0,0,1,2.524-1.156c.632,0,3.859-.146,4.826-.047s2.232.244,2.114.444-.632,1.306-1.1.952-.67-.315-2.012-.315a15.4,15.4,0,0,0-2.444.118c-1.1.119-1.718-.095-2.456.483a5.356,5.356,0,0,0-1.21,1.448" style="fill:#a81800"/><path id="path76489" d="M86.7,58.763a1.953,1.953,0,0,1,.729,1.319,6.824,6.824,0,0,0,1.882,3.76c.031-.061.156-.157.031-.221-.122-.916-1.038-1.356-1.161-2.275-.691-1.039.007-2.587-1.253-3.254-.22.119-.446.232-.674.347l.442.32" style="fill:#a89982"/><path id="path76490" d="M83.523,60.493a3.164,3.164,0,0,0-.167.271h-.19c-.031-.125-.157-.221-.092-.407-.85-.888-1.132-2.151-2.234-2.879-1.354-.794-.308-2.524-1.693-3.255l-.411.484.254.717c.1.31.119.686.4.91.911,1.3,2.928,2.065,2.86,3.734.249,1.894,2.834,2.629,2.8,4.613.156.381-.067.919.311,1.2,1.262.036,1.668,1.488,2.836,1.713a2.574,2.574,0,0,0-2.077-1.71c-1.1-.637-.5-2.179-1.349-3.006-.352-.625-.729-1.277-1.006-1.89l-.24-.5" style="fill:#a89982"/><path id="path76491" d="M78.473,55.015l-1.547,1.83,0,.809a2.335,2.335,0,0,0,.188,1.547c1.165,1.264.844,3.158,2.261,4.328a5.6,5.6,0,0,1,.783,1.832c1.826.667,3.877.864,5.45,2.223a14.977,14.977,0,0,1,1.859.635c.507-.5.724.349,1.2.067a.183.183,0,0,0-.063-.128c-.284.249-.442-.285-.63-.285-1.1,0-1.476-1.833-2.709-1.648-.724-.382-.468-1.2-.687-1.769-.122-1.988-2.9-2.5-2.7-4.677-.468-1.547-2.329-2.372-3.114-3.733a1.3,1.3,0,0,0-.118-.514l-.169-.519" style="fill:#e8d9a8"/><path id="path76492" d="M76.661,57.151l-.4.47c-.221.09-.409.029-.567.155-.945-.507-.879-1.549-1.319-2.308-.975-.1-1.306-1.217-1.746-1.819-.19.221-.115.538-.368.63.03.221.1.614.255.71.786.632,1.162.992,1.982,1.77a11.5,11.5,0,0,1,.564,1.266c.912.064.564,1.105.719,1.7.087,2.147,3.274,2.629,3.046,4.93.061.348.376.759.186,1.076a.2.2,0,0,1-.283-.157c-.726.026-1.482.153-2.178.118l-1.227-.856c-1.135-.486-2.068.332-2.957.959l.449-.054a.594.594,0,0,0,.3-.185,3.453,3.453,0,0,1,1.137-.346,8.279,8.279,0,0,1,1.514.132c.82.129.754,1.074,1.415,1.424.885-.061,1.355.824,2.112,1.079-.061-.6-.754-.887-1.038-1.361.286-.378.284.221.568.16-.032-.475.661-.031.915-.156v.061l.127-.126c1.327-.122,2.9.011,3.687,1.431.315.252.79-.218,1.072-.061,1.137.039,1.353,1.363,2.141,1.9h.19l0-.534c.665-1.261-1.292-.8-1.826-1.459l.062-.061-.062.061c-.221-.411-.693-.379-1.008-.7a11.86,11.86,0,0,1-1.7-.636l.062-.06a2.744,2.744,0,0,1-1.829-.446,3.174,3.174,0,0,1-.914-.289c-.092-1.262-.971-2.214-1.7-3.253C78,60.6,76.059,59.3,76.6,57.6l.059-.449" style="fill:#a89982"/><path id="path76493" d="M73.378,67.847a2,2,0,0,1-.33.05c-.632.03-.381,1.041-1.076.911l-.346.285c-1.2.059-2.366-.008-3.408.082-.063.061-.128.157-.223.125a3.931,3.931,0,0,1-.058-1.827c1.106-.282,2.209-.279,2.937-1.224-.85-.634-1.955-.324-2.871-.071a31.63,31.63,0,0,1,3.946-11.631c-.064.757,1.008.853,1.194,1.58,1.419.26.909,2.023,2.14,2.4.249.7-.037,1.548.435,2.211.5,1.359,2.393,1.838,2.734,3.29a4.515,4.515,0,0,0,.091,1.136c-1.01.125-2.305.373-3.058-.67-.472-.1-1.071-.35-1.515,0A3.988,3.988,0,0,0,72.1,65.687l-.31.27.736.05.374-.061c.4-.075.815-.282,1.227-.377.758.034,1.389-.154,1.926.414.372,1.516,2.078.891,2.739,2.09.409.1.85.573,1.231.225-.031-.221-.284-.187-.442-.286a1.266,1.266,0,0,0-.47-1.135c1.516-.121,3.124-.431,4.035,1.149.127.282.5.188.755.282-.573,1.643-2.745.47-3.819.844l-4.1.241-.285.156c-.094-.156-.282-.41-.5-.442-.658.256-.771-.479-1.137-.731l-.673-.524" style="fill:#e8d9a8"/><path id="path76494" d="M73.791,68.482a9.2,9.2,0,0,1,.672.9c.378.253.947-.09,1.009.573-.414.849.625,1.734-.386,2.27-1.041-.479-1.549,1.065-2.461.214-.378-.037-.82.057-1.071-.289-.25-.378-.692-.853-.5-1.356.064-.6,1.074-.66.855-1.323.222-.632,1.074-.468,1.075-1.227a.649.649,0,0,1,.294-.15l.516.385" style="fill:#008600"/><path id="path76495" d="M114.969,60.731l-.1.126.1-.126" style="fill:#fff"/><path id="path76496" d="M70.371,66.279a4.365,4.365,0,0,1-2.432.846c-.468-1.168.949-.751,1.487-1.006.346-.187.631.13.945.16" style="fill:#a89982"/><path id="path76497" d="M78.447,73.629a.545.545,0,0,0-.209-.038c-.6-.221.035-1.01-.311-1.26-.411.221.029.628-.192.914-.129.537-.853.121-.948.563a4.851,4.851,0,0,0,1.246-.087l.416-.088" style="fill:#a2d100"/><path id="path76498" d="M85.262,72.578a.889.889,0,0,1,.424-.1.851.851,0,0,0,.571-.756c.884-.563-.029-1.291,0-1.987a12.006,12.006,0,0,1-1.068-1.358c-1.227-.982-.98,1.227-2.054,1.255-1.043.82.28,1.452.183,2.369.06.317.219.63.6.567a.788.788,0,0,1,.242.178l1.1-.164" style="fill:#008600"/><path id="path76499" d="M84.813,73.366c.139-.08.3-.165.21-.447l-.743.026a1.26,1.26,0,0,1,.057.439l.476-.018" style="fill:#a81800"/><path id="path76500" d="M88.459,73.683c.033-.156,0-.442-.092-.343l-.341.336.433.011" style="fill:#a81800"/><path id="path76501" d="M87.8,73.9c-1.105.534-1.923-.606-3.027-.132l-.573-.048c-.334.336-.854.152-1.35.262-.284-.1-.606.128-.825.047l-.942-.051a5.662,5.662,0,0,1-1.8.246c-.341-.021-.452-.274-.625-.45l-.543.241a8.272,8.272,0,0,1-1.575.075c-.031-.061-.157-.126-.094-.22h-.221v.094c-.611-.214-1.518-.078-2.1-.438L73.1,73.448a4.685,4.685,0,0,0-2.557.5c-.1.157-.129.477.031.57a7.288,7.288,0,0,0,3.093-.368c.094.126.376-.064.376.157.536.219,1.041.033,1.482.414v-.125l1.925-.059c.127.062.283.188.411.062.285-.217.41-.031.663-.283.062.095.252.16.188.285h.348c.376.035.853-.279,1.166.066-.031.033-.063.065-.031.129.094-.064.315,0,.316-.188a1.656,1.656,0,0,1,1.419.285c.789-.689,1.732.606,2.332.229,1.233-.5,2.43.1,3.6-.275,1.419.635,2.745-.465,4.007.3a4.052,4.052,0,0,0,1.767-.37c-.724-.476-1.83-.228-2.554-.575a7.062,7.062,0,0,1-2.189-.36L87.8,73.9" style="fill:#008600"/><path id="path76502" d="M81.834,73.823a.449.449,0,0,1,.1-.239l-.536-.115a.906.906,0,0,1-.108.261" style="fill:#a81800"/><path id="path76503" d="M82.141,73.436a5.04,5.04,0,0,0,.7-.3,3.519,3.519,0,0,0-.34-2.557l-.884.122a2.615,2.615,0,0,0-.7.851,2.609,2.609,0,0,1,.217,1.074c.19.03.126.251.22.347a.759.759,0,0,1,.059.254l.719.212" style="fill:#008600"/><path id="path76504" d="M73.9,73.344a1.119,1.119,0,0,1-.229-.4c-.324-.043-.343.146-.43.324l.659.071" style="fill:#a81800"/><path id="path76505" d="M90.365,69.46c.125.6.912,1.3.216,1.894l0,1.074c-.567.282-1.483.185-1.768.848-.092-.789-1.673-.068-1.352-1.269-.157-.312-.82-.442-.408-.884-.282-.347.254-.69.348-.975.225-.5-.217-1.009.195-1.544.063-.157.317-.125.442-.03a.531.531,0,0,0,.695.159c.282-.282.6-.5.945-.157.094.381.472.6.691.888" style="fill:#008600"/><path id="path76506" d="M82.76,69.567c-.095.315-.316.407-.475.692-.5.028-1.1.028-1.358.6-.062.125-.1.282-.222.346-.662-.224-1.2-.921-1.924-.731-.409.092-.632.82-1.1.63-.315-.381-.441-.7-.945-.827a1.92,1.92,0,0,0-.918.347c.159-.282-.029-.568-.059-.85.063-.189.284.157.284-.095a61.028,61.028,0,0,1,6.719-.105" style="fill:#a2d100"/><path id="path76507" d="M86.894,70.084c0,.061.032.186-.064.221-.125-.032-.125-.253-.061-.317.031.061.157,0,.127.1" style="fill:#a2d100"/><path id="path76508" d="M77.8,71.539a.579.579,0,0,1-.412.692c-.223.317.25.728-.161,1.01-.283.157-.6-.129-.727.282-.059-.379-.945-.132-.566-.727a7.625,7.625,0,0,1-.057-1.673c.221-.19.41-.442.663-.5.566.064.722.788,1.258.919" style="fill:#008600"/><path id="path76509" d="M80.767,72.052c.093.6-1.107.408-.572,1.2-.347.252-.851.188-1.137.442-.157-.285-.661-.32-.755-.6a.575.575,0,0,0,0-.757c-.346-.127,0-.6-.088-.945.282-.253.5-.631.882-.564.568.219,1.45.571,1.669,1.234" style="fill:#008600"/><path id="path76510" d="M122.605,71.45l.127-.129-.063-.061.125.19.032-.064c.094,0-.157.094-.282.064h-.033v-.221h.032c.031.061-.032.157.062.221" style="fill:#fff"/><path id="path76511" d="M122.258,71.542h-.379l.063-.031c-.032-.035-.063-.1-.126-.064,0,.221-.252,0-.348,0l.063.06c.127-.221.25-.06.411-.186-.034.091.06.126.094.19.031-.157.221-.157.346-.251-.033.126.125.282-.127.282" style="fill:#fff"/><path id="path76512" d="M119.482,71.436c0-.057-.158.129-.348.221-.188-.125-.378.061-.567.157l-.094-.093-.063.061c.157.065.79-.377,1.074-.346" style="fill:#fff"/><path id="path76513" d="M118.06,71.654v.128a.75.75,0,0,0-.945.028l-.063-.031c-.569.439-1.61-.162-2.273.277-.125-.032-.315.029-.409-.066.632-.027,1.3-.439,1.831-.119a1.577,1.577,0,0,0,1.137-.217c.062-.033.062-.126.062-.157.033-.033.063.031.094.031l.063-.092a1.494,1.494,0,0,0,.5.221" style="fill:#fff"/><path id="path76514" d="M120.331,71.6l.063-.061-.063.061.128.125.062-.061v.061a1.383,1.383,0,0,0,.6-.122c-.063,0-.254.408-.507.186h-.156c-.063-.033-.349-.16-.505-.25v-.1c.127.061.283.064.377.157" style="fill:#fff"/><path id="path76515" d="M87.893,73.208c-.158.442-.727.282-1.011.407-.567-.095-.945-.381-1.544-.289-.092-.632.757-.407,1.043-.849l.348-.756c.851.411.09,1.517,1.163,1.487" style="fill:#a2d100"/><path id="path76516" d="M75.653,72.541c-.127.19-.254.411-.128.632a.569.569,0,0,0,.5.286v.221c-.693-.225-1.83.089-2.207-.86.381-.628,1.04.16,1.422-.5.222-.156.377.033.41.221" style="fill:#a2d100"/><path id="path76517" d="M108.182,72.827c-.254.785-1.107.56-1.643.846a13.4,13.4,0,0,0-4.62,4.4.8.8,0,0,0,.409.918c.441.251.757-.221,1.074-.5,1.079-2.3,3.133-3.556,5.281-4.465.347.1.916-.026.977.446-.319.63-1.074.313-1.612.626-1.864,1.067-3.354,3.175-4.776,4.623a4.064,4.064,0,0,1-.951,1.1,34.745,34.745,0,0,0-3.817-.578A7.946,7.946,0,0,1,96.953,82.1c-.122-.632-.816-1.045-1.129-1.581.377-.537.508-1.136,1.108-1.479A10.916,10.916,0,0,0,101,78.58c.762-2.173,2.661-3.938,4.494-5.322.853-.248,1.737-.908,2.684-.435" style="fill:#354600"/><path id="path76518" d="M81.079,73.377c-.286.473-.759.47-1.358.439a.708.708,0,0,0,.851-.439c.1-.251-.219-.536.192-.632.284.035.123.442.315.632" style="fill:#a2d100"/><path id="path76519" d="M83.981,73.387a1.851,1.851,0,0,1-.947.153c.283-.186.158-.534.285-.785.157.282.85.065.662.632" style="fill:#a2d100"/><path id="path76520" d="M113.514,73.126l.062-.061a3.013,3.013,0,0,1-1.485.214c.223-.316.791-.153,1.329-.278l.094.129" style="fill:#fff"/><path id="path76521" d="M114.077,74.832l.063-.064c0,.064,0,.156.061.156l.1-.092-.033.061c.377.16.567-.155.884-.058,0,.061.03.093.061.093l-.157.064v-.064h-.284v.19a.159.159,0,0,0-.127-.065c-.127.129.063,0,0-.061-.062-.031-.094-.125-.156-.1s-.063.1-.063.157a.159.159,0,0,0-.063-.125c0,.186-.221.125-.283.061-.094-.282-.535-.1-.281-.381.155-.058.249.13.282.224" style="fill:#fff"/><path id="path76522" d="M74.567,77.1c.38-.128.932-.221,1.013-.584a1.418,1.418,0,0,0-.186-1.166c-.124-.885-1.258-.8-1.577-.289a1.438,1.438,0,0,0-.7,1.291,2.682,2.682,0,0,0,.764.684l.684.064" style="fill:#008600"/><path id="path76523" d="M73.615,77.756a5.015,5.015,0,0,0-.943.456c-.159.221.029.442.219.536,1.041-.374,1.892.542,2.839-.054.19-.346-.092-.6-.219-.849a3.177,3.177,0,0,0-.8.016l-1.1-.105" style="fill:#008600"/><path id="path76524" d="M73.753,77.664a.531.531,0,0,0,.2-.418l.372-.038c-.141.092-.177.225.009.442l-.581.01" style="fill:#a81800"/><path id="path76525" d="M113.507,74.924c-.223.568-.852.378-1.233.408-.282-.251-.851,0-1.136,0,.127-.129.127-.155.285-.221l.031.063c.127-.192.284-.127.411-.127.223-.282.442.32.632.064a.165.165,0,0,0-.063.1c.126.156.221-.03.347-.03.188-.031.5-.252.726-.252l.062-.093v.157l-.062-.064" style="fill:#fff"/><path id="path76526" d="M78.553,77.246c.18-.04.42.007.493-.085.19,0,.158-.221.158-.378-.63-.442.066-1.23-.341-1.706-.221-.188-.473.061-.663,0v-.125c-.378,0-.6.312-.916.4-.809.731.136,1.1.5,1.7l.77.186" style="fill:#008600"/><path id="path76527" d="M78.552,78.066a1.58,1.58,0,0,0,.523.353,13.9,13.9,0,0,1-2.019-.224c.141-.16.383-.181.575-.256l.919.127" style="fill:#008600"/><path id="path76528" d="M77.8,77.838a.4.4,0,0,0,.111-.271.743.743,0,0,0-.016-.246l.5.017a.3.3,0,0,0-.042.229.7.7,0,0,0,.063.294l-.616-.026" style="fill:#a81800"/><path id="path76529" d="M81.695,77.2a2.738,2.738,0,0,1,.571-.253c-.282-.442-.091-1.138-.372-1.58-.378-.192-.726-.477-1.2-.35-.471-.031-.379.506-.475.788-.691.714.259.953.592,1.466l.884-.071" style="fill:#008600"/><path id="path76530" d="M80.8,78.12a.785.785,0,0,1-.336.306,1.247,1.247,0,0,0,.505.221c.567-.187,1.355.194,1.641-.344-.094-.061-.19-.221-.346-.155-.1-.031-.2-.063-.31-.106L80.8,78.12" style="fill:#008600"/><path id="path76531" d="M81.664,77.875a.5.5,0,0,1-.188-.364h-.568a.556.556,0,0,1,0,.378l.757-.014" style="fill:#a81800"/><path id="path76532" d="M97.951,75.791c-.194,1.612-1.553,2.74-2.22,4.162a2.437,2.437,0,0,0-.793,1.573,5.758,5.758,0,0,1-.286.693,31.512,31.512,0,0,1-.987,3.563,5.8,5.8,0,0,0-1.26-.414A19.075,19.075,0,0,1,94.087,81.3a10.7,10.7,0,0,1,1.079-2.047A27.02,27.02,0,0,1,96.659,76.2c-.157-.974.851-.282,1.293-.4" style="fill:#a81800"/><path id="path76533" d="M101.35,84.127a1.782,1.782,0,0,0-.581-.756c-.538.192-.665.881-1.3.6a3.8,3.8,0,0,1-1.168.061c-.409-.6-.944-1.013-1-1.71l1.2-1.349-.062-.064c.287-.6,1.136-.028,1.641-.153.693.224,1.608.226,2.176.447a15.1,15.1,0,0,1,1.86.2.849.849,0,0,1,.472.033c0,.348-.569.535-.348.851.282.5.785.918.848,1.546a6.354,6.354,0,0,0-.979.218c-.694.052-1.537-.068-2.2.054l-.562.027" style="fill:#a89982"/><path id="path76534" d="M101.448,84.508a6.013,6.013,0,0,1-.168,1.958,3.556,3.556,0,0,1-5.4,1.118c-.061-.155-.157-.286.064-.411a3.742,3.742,0,0,0,1.642-.782c-.376-.663-.784-1.359-1.193-2.054-.346.032-.755.028-.945-.224-.061-.286.254-.6.444-.849a2.582,2.582,0,0,0-.66-.949A24.964,24.964,0,0,0,94.121,86c.411.16,1.041-.122,1.325.321.059,1.42-1.079,2.617-2.188,3.528l1.137-.061c.41.19,1.168-.153,1.545.289l-.062.061a1.9,1.9,0,0,1,.468,1.265c.411-.127.694.221,1.009.033.129-.411.067-.853.51-1.166a10.094,10.094,0,0,1,1.485-.564c.282.064.7-.183.726.035,1.1-.218,2.27.418,3.312.357a15.427,15.427,0,0,0,7.1-.7c1.483-.218,3.632-1.314,5.049-.176-.508.788-1.488,1.417-2.153,2.265v.25c.188.317.564.888.945.792a26.052,26.052,0,0,0,5.316-5.222,2.024,2.024,0,0,0,.6-1.009c-.031-.03,0,.191-.156.095-.094-.095-.282-.031-.441-.221l-.127.282a28.2,28.2,0,0,0-2.9-.513,4.334,4.334,0,0,1-1.578.275v-.061c-.317.188-.883-.064-1.072-.16-.725-.632-2.021.31-2.552-.8-.566-.821.757-.532.571-1.321.411-.727.976-.252,1.451-.374l.127-.127c.063.063.155.007.251-.026l.313-.11a1.2,1.2,0,0,1,0-.146c-.249-.411-.789-.319-1.01-.571-1.258-.285-2.141-.667-3.4-.924-1.042.5-1.956.183-2.967.4-.126-.155-.442.063-.442-.19h-.188a.551.551,0,0,1-.347-.442,1.686,1.686,0,0,0,.413-1.135,2.343,2.343,0,0,1,.729-.564c-.186-1.105,1.453-1.258,1.4-2.4a5.617,5.617,0,0,0-.849-1.231,59.532,59.532,0,0,0-4.528,4.874c.7.1,1.327.195,1.894.323.221.065.219.347.219.472-.127.1-.189.348-.412.348,0,.728,1.039,1.328.752,2.148a3.553,3.553,0,0,1-1.2.153c-.568.251-.946.03-1.483.187-.079-.119-.373-.044-.662-.014l-.6-.023" style="fill:#a2d100"/><path id="path76535" d="M113.783,83.593a3.719,3.719,0,0,1-1.152.1c-.317.035-.348.377-.381.6a.738.738,0,0,1-.569.407c-.094.282.125.411.283.568,1.452-.343,2.71,1.143,4.258.3-.284-.03-.282-.472-.566-.411a3.371,3.371,0,0,1-1.479-1.636l-.394.075" style="fill:#008600"/><path id="path76536" d="M120.318,76.618c.348-.157.7-.413,1.074-.253.156,0,.692.6,1.04.256a1.7,1.7,0,0,1,.853-.188c-.379.347-.632.032-1.042.282l-.032-.061a.421.421,0,0,1-.631.058.809.809,0,0,0-.852-.225c-.315.1-.694.348-1.072.218-.44-.789-1.229-.1-1.89-.223.691.033,1.514-.595,2.047.132h.5" style="fill:#fff"/><path id="path76537" d="M94.407,79.191c.156.473-.348.785-.319,1.261-.062-.034-.095.03-.127.061-.566-.666-.91-1.486-1.7-1.961a4.063,4.063,0,0,1-.437-1.356c1.424-1.069,1.8,1.328,2.58,2" style="fill:#a81800"/><path id="path76538" d="M113.057,77.6l-.062.064a1.018,1.018,0,0,0,1.136.161c.443-.5,1.01.475,1.546.068,0-.1-.127-.161-.19-.225.253.129.538.225.758-.061.062-.061.127-.157.222-.125.155.376-.41.156-.475.471-.538.093-1.105.279-1.577-.132-.378.126-.98.5-1.42.122-.126-.632-.538-.157-.916-.19a1.938,1.938,0,0,1-.726.247,3.374,3.374,0,0,1,1.2-.468c.033.033.412-.282.5.065" style="fill:#fff"/><path id="path76539" d="M109.641,81.224a12.84,12.84,0,0,1-3.062.339l-.411-.158c.475-.443.132-1.388.921-1.544.346-.126.223-.6.35-.914.411-.284.98-.724,1.075-1.229a25.245,25.245,0,0,0,1.127,3.506" style="fill:#008600"/><path id="path76540" d="M93.74,80.8l-.475,1.074c-.755-.289-1.61.025-2.367-.071a36.161,36.161,0,0,0-4.891.207,8.063,8.063,0,0,0-.058-2.144l-.219-.474c.788-.061,1.673-.061,2.555-.214a28.021,28.021,0,0,1,3.629-.083l.315-.067A8.445,8.445,0,0,1,93.738,80.8" style="fill:#354600"/><path id="path76541" d="M85.564,81.847H85.5c0-.885-.5-1.644-.213-2.557a3.379,3.379,0,0,1,.275,2.557" style="fill:#fff"/><path id="path76542" d="M119.964,79.391c0,.252.253-.061.188.221-.6-.129-.853.659-1.547.438a3.264,3.264,0,0,0-1.072-.1.79.79,0,0,1-.852.09,2.778,2.778,0,0,0,1.422-.308,1.193,1.193,0,0,0,1.356.033.643.643,0,0,1,.507-.377" style="fill:#fff"/><path id="path76543" d="M120.246,79.486l.063.19-.063-.19" style="fill:#fff"/><path id="path76544" d="M120.657,79.676c-.033.1-.157.032-.221.063l.063-.188c.094.125.094-.033.156.125" style="fill:#fff"/><path id="path76545" d="M73.107,80.613a49.69,49.69,0,0,1,7.914,1.444.475.475,0,0,1,.093.564,7.387,7.387,0,0,1-2.62.686.46.46,0,0,0-.035.663c.693.728,1.7.888,2.552,1.426,1.923.353,3.476-1.629,5.681-.834a3.009,3.009,0,0,1,1.64.984c-.285.44-.16,1.039-.479,1.477-1.232.629-2.5,1.415-3.792,2.009a10.338,10.338,0,0,0-5.52-.111c-.346-.093-.663.377-.947.346-.475.378-.947.439-1.265.945h-.124c-2.423-2.879-4.969-5.664-6.158-9.1l-.376-1.074a16.113,16.113,0,0,0,3.438.578" style="fill:#e86f00"/><path id="path76546" d="M98.993,85.956c-.156.347-.5.442-.79.564-.754-1.23-1.568-2.621-2.2-3.916l-.628-.853.225-.945c1.319,1.641,2.135,3.477,3.39,5.154" style="fill:#a81800"/><path id="path76547" d="M115.319,82.3a.185.185,0,0,0,.062.13c.157.03.033-.157.127-.13.127-.122.19,0,.317-.122-.033,0-.1.282-.317.186-.094.031-.062.092-.062.157-.538.217-.975-1.043-1.544-.632-.378-.256-.7.4-1.01-.1.284.131.851-.122,1.232-.118.632-.061.6.823,1.2.632" style="fill:#fff"/><path id="path76548" d="M119.292,82.386c-.062-.061-.127-.156-.221-.1l.568,0c.031.157-.159.157-.253.218h-.221c0-.251-.156.064-.221-.187a.159.159,0,0,0-.062.126c-.282-.251-.409,0-.726-.065l-.19.188c.033-.5.6-.409.978-.284,0,.131.251.2.348.1" style="fill:#fff"/><path id="path76549" d="M82.879,83.542a5.509,5.509,0,0,0,.63.917,7.408,7.408,0,0,1-2.117.66,10.567,10.567,0,0,1-2.71-1.427,23.421,23.421,0,0,0,2.367-.5c.284-.19.6-.442.476-.85a16,16,0,0,1,1.352,1.2" style="fill:#a81800"/><path id="path76550" d="M95.813,83.866l.253-.282.156.221-.411.061" style="fill:#a89982"/><path id="path76551" d="M100.412,86.874a3.1,3.1,0,0,1-3.285.778l-.471-.155a7.58,7.58,0,0,0,1.989-.688c.7-.346.949-1.2,1.615-1.573a2.665,2.665,0,0,0,.664-1.071,2.708,2.708,0,0,1-.512,2.712" style="fill:#a89982"/><path id="path76552" d="M99,85.232l-.566-.917,1.262.064-.7.85" style="fill:#a2d100"/><path id="path76553" d="M100.417,84.383a4.267,4.267,0,0,1-1.2,1.291c.253-.346.665-.851.982-1.23.094,0,.127-.093.221-.061" style="fill:#3c5858"/><path id="path76554" d="M94.1,86.224c-.036,1.327-1.016,2.522-1.873,3.656l-.915.092c.223-.348-.347-.634-.375-1.011a3.972,3.972,0,0,1,.23-3.532c1.041.129,1.924.635,2.931.8" style="fill:#a89982"/><path id="path76555" d="M95.018,86.353c.155,1.262-1.113,2.207-1.871,2.992a5.864,5.864,0,0,0,1.366-3.056c.157.064.284-.058.5.064" style="fill:#3c5858"/><path id="path76556" d="M115.014,89.189c-.634.88-1.645,1.354-2.057,2.264.059.789.91,1.234,1.35,1.709-2.212,1.066-4.987.049-7.26.613a14.641,14.641,0,0,1-6.437.482c-.156-1.135.7-2.644-.779-3.058-.6-.381-1.517.343-1.765-.7,2.433-1.474,5.268.552,7.669.021,2.964.2,5.9-1.591,8.711-1.486a3,3,0,0,0,.568.157" style="fill:#e8d9a8"/><path id="path76557" d="M91.03,90.383c.284.125.822-.282,1.137.1l.222-.219a20.565,20.565,0,0,1,2.839-.086c-.381.754-1.58.942-1.867,1.917a15.236,15.236,0,0,0-.8,2.367c-1.07-.667-2.809.18-3.974-.517a27.37,27.37,0,0,0-8.295-.531c-.223.157-.6,0-.789-.224-.061-.282.286-.629.571-.971l-.063-.067c.253-.376.791-.628.634-1.067a15.732,15.732,0,0,0-1.983-1.869c4.39-1.469,7.882,2.486,12.364,1.173" style="fill:#e8d9a8"/><path id="path76558" d="M78.381,89.431a12.243,12.243,0,0,1,1.981,1.836L79.1,92.84,76.452,90.4a4.16,4.16,0,0,1,1.706-.973c.1.033.033.189.159.16.06,0,.062-.1.062-.16" style="fill:#a81800"/><path id="path76559" d="M95.919,91.185l-.978-.129a2.034,2.034,0,0,0,.759-.79c.063.317.315.538.219.919" style="fill:#a81800"/><path id="path76560" d="M98.342,91.528a1.033,1.033,0,0,1-.595-.115l.047-.731a7.712,7.712,0,0,0,.548.846" style="fill:#a81800"/><path id="path76561" d="M94.276,91.4a3.023,3.023,0,0,0-.76,1.6c-.19.316-.035.632-.319.883.094.317-.348.409-.129.63-.25.125,0,.411,0,.632a1.856,1.856,0,0,0,1.543.285,8.5,8.5,0,0,1,4.637.521c.822-.252.824-1.262,1.047-1.986-.157-.754.287-1.482-.183-2.209-.378-.346-.726-.256-1.2-.414a1.065,1.065,0,0,1-.964.571,10.9,10.9,0,0,1-1.955-.314L94.275,91.4" style="fill:#e8d9a8"/><path id="path76562" d="M92.154,94.645c.537.19.375,1.074.975.949,1.071.571,1.809-.111,3.259-.075a12.613,12.613,0,0,1,2.858.785,1.36,1.36,0,0,0,1.075-.971l.192-.728a13.992,13.992,0,0,0,6.026-.391,26.562,26.562,0,0,1,5.474-.232l-1.368,1a23.909,23.909,0,0,1-7.257,3.156c-3.157.9-6.642.371-9.7.425A26.275,26.275,0,0,1,84.1,95.533a39.171,39.171,0,0,1-3.53-1.775,25.24,25.24,0,0,1,8.644.813l2.933.071" style="fill:#a2d100"/><path id="path76570" d="M90.377,43.685a2.058,2.058,0,0,0-1.183.237.733.733,0,0,1-.27.042c-.244.115-.244.468-.164.707.079.275.395.353.63.431a1.058,1.058,0,0,0,.711,0c.2-.036.355-.275.551-.313a3.837,3.837,0,0,1,1.776-.04c.315,0,.668.118.907,0,.2-.118.431-.2.59-.275.275-.12.59.04.863.075a3.445,3.445,0,0,1,.569-.092.268.268,0,0,0,.347.034,2.383,2.383,0,0,1,.626-.017.126.126,0,0,1,.037.082c.16.118.122-.275.346.064.011-.028.052-.064,0,0a3.135,3.135,0,0,1,.486-.028c.118,0,.08-.156.21-.193.143-.082.3-.118.46-.2a1.1,1.1,0,0,1,.769-.014c.136.014.136-.143.223-.191a1.719,1.719,0,0,1,.585.048c.08.037,0,.119-.014.143.014.054.094.054.132.054a.269.269,0,0,0,.148.232c.406.043.877.16,1.1-.249a3.124,3.124,0,0,1,.316-.033.984.984,0,0,0,.483.088.22.22,0,0,0-.073-.149,2.577,2.577,0,0,1,.744.149,3.436,3.436,0,0,0,1.855.394.575.575,0,0,0,.392-.394c0-.16.038-.316-.039-.435a.808.808,0,0,0-.9-.5c-.049-.012-.087-.132-.127-.132a5.88,5.88,0,0,1-1.483-.125c-.016.007-.016-.11-.031-.093a2.959,2.959,0,0,0-1.248-.135c-.4.118-.671.395-1.064.513-.393.078-.708-.16-1.095-.228a1.183,1.183,0,0,0-.915.409c-.079.058-.315.094-.354-.021-.04-.156-.2-.2-.317-.238a1.02,1.02,0,0,0-.811.061c-.095.017-.214-.061-.346-.03a.946.946,0,0,0-.261-.545,2.68,2.68,0,0,0-1.1-.156c-.08,0-.118.12-.21.224a.922.922,0,0,1-.474.221c.056.032.012.032,0,0a1.562,1.562,0,0,1-1.011.307,6.3,6.3,0,0,1-.914.034,1.311,1.311,0,0,0-1.452.279" style="fill:#fff"/><path id="path76571" d="M90.022,46.683c-.277,0-.59-.118-.788.078-.157.12,0,.317.061.421a1.959,1.959,0,0,0,.727.171,1.632,1.632,0,0,0,1.856.632c.236-.078.353-.472.666-.507a7.928,7.928,0,0,1,1.736.192,2.281,2.281,0,0,0,1.733-.181c.279-.133.516.143.792.221.08.042,0,.2.154.191.36.044.675.006,1.03.084a2.19,2.19,0,0,0,.867.038,1.4,1.4,0,0,0,.438-.275c.075-.038.232.04.312,0a.375.375,0,0,1,.477.037c.036-.153.155-.075.273-.115v-.079c.512.119,1.065-.038,1.577.119a1.328,1.328,0,0,0,.867,0c.237-.078.435-.4.277-.592-.237-.315-.71-.155-1.067-.275-.275-.04-.589.078-.85,0a5.37,5.37,0,0,0-.645-.275c-.275-.118-.474-.395-.711-.473a.953.953,0,0,0-1.072.174c.047.024.009.024,0,0a1.006,1.006,0,0,1-.858.1,1.213,1.213,0,0,0-.686-.106.271.271,0,0,0-.259.028c-.118.04-.2.235-.355.2a.432.432,0,0,0-.434-.04c-.08.04-.2.118-.181.094-.369.106-.645.341-1,.221-.039-.037-.039-.079-.074-.129-.043-.068-.163.014-.2-.068-.2-.353-.632-.313-.932-.313-.015,0-.055.078,0,0a1.268,1.268,0,0,1-.844.038,1.149,1.149,0,0,0-.868-.157c-.039,0-.237.079-.119.207a.543.543,0,0,1-.442-.033,1.052,1.052,0,0,0-.94.023c-.2.117-.513.117-.432.392-.038,0-.038-.039-.08-.039" style="fill:#fff"/><path id="path76572" d="M103.825,49.4a.946.946,0,0,0-1.222.082c-.236.315-.316.945.119,1.1a.687.687,0,0,0,.275.038c.433.078.907.157,1.222-.238,0-.037.04-.157-.039-.235a3.038,3.038,0,0,1,1.026.038c.236.078.393.353.63.4.156.04.236.155.395.155a1.489,1.489,0,0,0,.433,0,2.171,2.171,0,0,1,.554-.315.883.883,0,0,1,.632,0c.275.082.59.2.866.275a.567.567,0,0,0,.594-.157.591.591,0,0,1,.273-.078.519.519,0,0,1,.012-.143,1.882,1.882,0,0,0,.382.065c.08.038.156.116.236.156.2.079.4,0,.592.038a.615.615,0,0,0,.749-.2c.118-.078.276-.118.395-.2a.49.49,0,0,1,.395.041.553.553,0,0,0,.431,0c.079,0,.079-.155.162-.18a6.926,6.926,0,0,0,1.139-.057c.4-.12.71-.71.4-.987a1.068,1.068,0,0,0-1.262,0c-.078.042-.118-.037-.2-.03-.033-.01-.033.108-.062.094-.364.014-.718.014-1.073,0a1.393,1.393,0,0,1-.978,0,1.751,1.751,0,0,0-.56-.017c-.037,0-.079-.082-.131-.079-.419.079-.774.51-1.208.314a1.176,1.176,0,0,1-.395-.277c-.038,0-.078.042-.1.021a1.331,1.331,0,0,0-1.121-.1c-.038,0-.157.157-.237.192a3.141,3.141,0,0,1-1.813-.228.568.568,0,0,0-.395.061,1.628,1.628,0,0,1-.512.014c-.237.04-.355.238-.592.317" style="fill:#fff"/><path id="path76573" d="M114.2,52.246c-.395-.042-.788-.277-1.105-.079-.275.194,0,.55.237.747a4.884,4.884,0,0,0,.67.317,2.636,2.636,0,0,0,1.1,0c.157-.037.355-.118.355-.353h.237a3.182,3.182,0,0,1,1.062,0,.744.744,0,0,1,.242.033c.191.16.428.358.586.2.355-.235.2-.634.119-.987-.039-.2-.355-.157-.552-.157-.038,0-.118-.077-.15-.064a.971.971,0,0,1-.837.106,1.615,1.615,0,0,0-1.575.036c-.039.042-.157,0-.235.007" style="fill:#fff"/><path id="path76574" d="M113.071,54.044c.067.061-.015-.064,0,0-.015-.064-.015.014,0,0a5.112,5.112,0,0,1-1.436-.028.975.975,0,0,0-.67-.078c-.08,0-.156.042-.275.042,0,.036,0,.114.016.088-.1.026-.1-.01-.063.061-.308-.071-.545.086-.741-.035-.237-.118-.512-.315-.749-.2-.038,0-.118.114-.149.163a.929.929,0,0,1-.639-.007,1.811,1.811,0,0,0-1.262.235.555.555,0,0,1-.435.04c-.157-.078-.275-.2-.409-.275a2.029,2.029,0,0,0-1.012.183c-.235.052-.511.052-.63-.183,0-.042.039-.078.063-.1-.5-.014-1.365-.133-1.445.537,0,.157.2.312.242.375a5.861,5.861,0,0,0,2.176.511c-.052-.06-.012.018,0,0a.759.759,0,0,0,.442-.189,1.084,1.084,0,0,1,.453-.026,2.361,2.361,0,0,0,1.537.393c.158-.393.591-.2.913-.292a.2.2,0,0,1,.061.188.338.338,0,0,1,.315.033,3.613,3.613,0,0,0,.878-.047c0-.039-.039-.079-.027-.11.107.031.225-.089.347,0,0-.047,0-.129,0-.129a1.6,1.6,0,0,1,.919.068,1.336,1.336,0,0,0,.284,0c.1-.028.216-.146.284-.092.089.064.207.024.284.1a.961.961,0,0,0,.752-.031c.4-.237.2-.75.2-1.145,0-.037-.078.082-.219-.051" style="fill:#fff"/><path id="path76575" d="M103.037,56.74a1.749,1.749,0,0,0-.789.16c-.315.115-.632.037-.945.233-.157.117-.435.039-.67.039.078.118-.04.275,0,.4a.824.824,0,0,0,.59.431,3.853,3.853,0,0,0,1.144-.036c.156,0,.156-.239.275-.357.236-.235.513-.078.788-.117.435.67,1.262.354,1.894.474.237-.275.632-.474.632-.909a1.431,1.431,0,0,1-.307.014c-.245-.172-.442-.371-.718-.251-.4.119-.907.315-1.262.119-.2.193-.275-.119-.514-.119" style="fill:#fff"/><path id="path76576" d="M82.625,51.8l1.483-.657,2.128,5.59-1.42.846L82.625,51.8" style="fill:#fff"/><path id="path76577" d="M85.486,50.077l1.6,6.592,1.485-.439L87.143,49.6l-1.657.474" style="fill:#fff"/><path id="path76578" d="M89.509,49.135l-.235,7.17,1.34.432.411-7.473-1.516-.129" style="fill:#fff"/><path id="path76579" d="M90.929,57.1l.473,1.1,3.826-4.933-.75-1.377-3.551,5.2" style="fill:#fff"/><path id="path76580" d="M91.785,58.8l.209,1.02L97,57.332l-.035-1.582L91.785,58.8" style="fill:#fff"/><path id="path76581" d="M92.073,60.408v1.1l5.009-1.34-.08-1.3-4.929,1.541" style="fill:#fff"/><path id="path76582" d="M102.523,65.337A5.85,5.85,0,0,1,103,64.274a13.565,13.565,0,0,1,3.509-1.858c1.143-.193,1.784.032,2.762-.115a22.841,22.841,0,0,1,3.943.235s-.2.711-.472.711a5.246,5.246,0,0,0-2.486-.354,11.155,11.155,0,0,1-2.642.037,4.222,4.222,0,0,0-2.484.908,9.256,9.256,0,0,0-1.143,1.421l-1.461.078" style="fill:#e8d9a8"/><path id="path76583" d="M95.188,70.426a3.807,3.807,0,0,0,.791.528c.367.157,1,.679,1.208.785s1.206.371,1.629,0a5.787,5.787,0,0,1,3.208-.418c.734.207,3.732.839,4.153.526s.894-1.053,1.946-.949,4.153-.207,4.47-.05,2.68.473,2.943.207a3.017,3.017,0,0,1,2.051-.789,10.3,10.3,0,0,1,2.786.267A6.256,6.256,0,0,0,123,70.266c.526-.156,2-.207,2.261-.367a.409.409,0,0,0,.157-.472,5.98,5.98,0,0,0-1.894.051,8.43,8.43,0,0,1-3.208.265,4.751,4.751,0,0,0-2.1-.316c-.736.051-5.521.208-5.943.262s-2.891.37-3.577.37-1.42.051-2.208,0-3.628,0-4.153.051-1.631.21-2.1.263-3.314.156-3.629.1-1.421-.051-1.421-.051" style="fill:#fff"/><path id="path76584" d="M120.929,72.357l.127-.129-.063-.061.125.19.033-.065c.094,0-.156.1-.283.065h-.033v-.225h.032c.033.067-.032.16.062.225" style="fill:#fff"/><path id="path76585" d="M120.582,72.449H120.2l.062-.033c-.031-.031-.061-.092-.125-.063,0,.221-.252,0-.346,0l.062.063c.127-.221.251-.063.411-.188-.033.1.061.125.094.191.031-.16.221-.156.346-.252-.033.125.126.286-.127.282" style="fill:#fff"/><path id="path76586" d="M117.806,72.346c0-.064-.159.128-.348.221-.188-.128-.378.063-.568.157l-.094-.094-.062.061c.156.061.79-.378,1.074-.345" style="fill:#fff"/><path id="path76587" d="M116.384,72.566v.125a.751.751,0,0,0-.945.026l-.063-.029c-.569.442-1.61-.161-2.273.275-.127-.032-.315.031-.409-.061.632-.032,1.3-.439,1.829-.122a1.593,1.593,0,0,0,1.137-.218c.062-.031.062-.127.062-.156.032-.032.063.029.1.029l.063-.09a1.489,1.489,0,0,0,.5.221" style="fill:#fff"/><path id="path76588" d="M118.655,72.507l.063-.061-.063.061.127.13.063-.066v.066a1.472,1.472,0,0,0,.6-.127c-.061,0-.253.413-.505.188h-.157c-.062-.031-.346-.157-.5-.256V72.35c.127.063.283.063.377.157" style="fill:#fff"/><path id="path76589" d="M111.837,74.033l.061-.061a2.95,2.95,0,0,1-1.483.214c.223-.313.79-.153,1.328-.275l.094.126" style="fill:#fff"/><path id="path76590" d="M112.4,75.741l.063-.061c0,.061,0,.155.061.155l.1-.094-.034.064c.378.157.568-.157.885-.061,0,.061.031.094.061.094l-.157.063v-.063l-.284,0v.191a.154.154,0,0,0-.127-.061c-.127.122.063,0,0-.064-.062-.032-.094-.127-.156-.1s-.063.1-.063.157a.172.172,0,0,0-.063-.127c0,.191-.221.127-.283.062-.093-.283-.535-.1-.281-.377.155-.065.249.125.282.221" style="fill:#fff"/><path id="path76591" d="M111.162,75.713c-.223.567-.853.378-1.232.407-.284-.251-.852,0-1.137,0,.127-.127.127-.156.284-.221l.033.065c.127-.192.283-.127.411-.127.221-.286.44.316.63.066a.166.166,0,0,0-.063.09c.127.16.223-.029.346-.029.188-.032.5-.249.728-.249l.061-.1v.157l-.061-.061" style="fill:#fff"/><path id="path76592" d="M118.641,77.525c.348-.157.7-.408,1.074-.251.157,0,.693.6,1.041.254a1.731,1.731,0,0,1,.853-.186c-.379.346-.632.03-1.043.282l-.031-.064a.423.423,0,0,1-.632.061.8.8,0,0,0-.849-.222c-.315.093-.7.343-1.072.218-.441-.792-1.231-.1-1.892-.228.692.035,1.514-.595,2.047.132h.5" style="fill:#fff"/><path id="path76593" d="M110.908,78.731l-.063.066a1.015,1.015,0,0,0,1.137.159c.442-.5,1.008.477,1.545.067,0-.094-.127-.158-.189-.222.252.128.538.222.757-.063.063-.061.127-.155.223-.125.155.377-.413.156-.476.473-.537.091-1.105.279-1.577-.134-.379.127-.979.5-1.42.124-.125-.634-.536-.161-.915-.192a2.021,2.021,0,0,1-.726.249,3.289,3.289,0,0,1,1.2-.47c.033.035.413-.282.5.066" style="fill:#fff"/><path id="path76594" d="M118.288,80.3c0,.251.251-.061.188.225-.6-.129-.853.656-1.547.435a3.246,3.246,0,0,0-1.073-.1.8.8,0,0,1-.851.1,2.808,2.808,0,0,0,1.422-.314,1.2,1.2,0,0,0,1.356.039.635.635,0,0,1,.507-.378" style="fill:#fff"/><path id="path76595" d="M118.57,80.4l.063.19-.063-.19" style="fill:#fff"/><path id="path76596" d="M118.981,80.585c-.033.1-.157.033-.221.061l.062-.187c.094.126.094-.031.157.126" style="fill:#fff"/><path id="path76597" d="M117.291,84.155a.167.167,0,0,0,.061.128c.158.032.033-.156.127-.128.127-.127.189,0,.316-.127-.031,0-.095.287-.316.191-.094.03-.063.092-.063.157-.538.221-.975-1.045-1.544-.637-.378-.254-.694.409-1.01-.1.284.129.853-.125,1.233-.123.632-.061.6.823,1.2.633" style="fill:#fff"/><path id="path76598" d="M119.122,84.1c-.063-.061-.127-.155-.221-.094l.567,0c.031.157-.158.157-.252.218H119c0-.253-.159.06-.221-.192a.166.166,0,0,0-.063.131c-.284-.256-.411,0-.728-.068l-.189.189c.034-.5.6-.407.98-.278,0,.122.252.186.346.094" style="fill:#fff"/><path id="path76599" d="M119.729,74.51c-.224.567-.853.376-1.232.407-.282-.25-.851,0-1.137,0,.127-.125.127-.157.286-.221l.031.061c.127-.187.284-.122.411-.122.223-.282.442.317.632.061-.033.035-.063.064-.063.1.124.16.221-.032.346-.032.188-.029.5-.251.728-.251l.063-.092,0,.157-.061-.065" style="fill:#fff"/><path id="path76600" d="M118.058,73.622l.063-.064a3.015,3.015,0,0,1-1.485.217c.223-.316.79-.156,1.328-.278l.094.125" style="fill:#fff"/><path id="path76601" d="M118.622,75.325l.063-.061c0,.061,0,.156.061.156l.1-.095-.034.066c.378.155.57-.157.885-.063,0,.064.031.1.062.1l-.158.061v-.061l-.284,0v.192a.167.167,0,0,0-.127-.063c-.127.127.063,0,0-.064-.061-.03-.094-.126-.156-.094s-.063.094-.063.155a.156.156,0,0,0-.063-.122c0,.188-.221.122-.284.057-.092-.282-.534-.094-.28-.377.155-.061.249.127.282.221" style="fill:#fff"/><path id="path76602" d="M118.053,75.417c-.223.567-.851.378-1.232.409-.282-.252-.851,0-1.137,0,.127-.127.129-.156.286-.221l.031.065c.127-.192.284-.127.411-.127.222-.286.442.316.63.066-.032.029-.061.061-.061.09.123.16.221-.029.348-.029.186-.032.5-.249.726-.249l.061-.1v.157l-.061-.061" style="fill:#fff"/><path id="path76603" d="M111.4,71.817c-.223.568-.851.378-1.232.408-.282-.251-.851,0-1.137,0,.127-.129.127-.157.286-.221l.031.061c.127-.186.284-.125.411-.125.223-.279.442.32.632.064-.033.035-.063.064-.063.1.125.156.221-.032.346-.032.188-.029.5-.247.726-.247l.063-.1v.157l-.063-.061" style="fill:#fff"/><path id="path76604" d="M110.246,71.393l.063-.061a3.015,3.015,0,0,1-1.485.217c.223-.317.791-.156,1.327-.284l.095.131" style="fill:#fff"/><path id="path76605" d="M110.807,73.1l.063-.061c0,.061,0,.157.062.157l.1-.1-.033.065c.378.156.567-.157.884-.061,0,.061.03.1.061.1l-.157.06V73.2H111.5v.186a.17.17,0,0,0-.127-.061c-.128.125.062,0,0-.061-.063-.035-.094-.129-.157-.1s-.063.095-.063.156a.168.168,0,0,0-.062-.125c0,.19-.221.125-.284.061-.094-.282-.535-.1-.28-.378.155-.061.249.126.28.221" style="fill:#fff"/><path id="path76606" d="M110.239,73.194c-.222.564-.851.374-1.232.4-.282-.251-.851,0-1.137,0,.127-.125.127-.156.286-.221l.031.065c.127-.19.284-.129.411-.125.223-.282.442.316.63.064-.031.031-.061.061-.061.092.124.157.221-.031.348-.031.187-.03.5-.251.726-.247l.061-.1v.157l-.061-.061" style="fill:#fff"/><path id="path76607" d="M114.955,79.979c-.223.564-.853.374-1.233.406-.283-.253-.851,0-1.136,0,.127-.127.127-.157.283-.217l.032.06c.129-.189.285-.125.411-.125.222-.282.442.315.631.065-.031.029-.062.06-.062.093.127.157.221-.029.348-.029.19-.035.506-.252.727-.252l.063-.095v.156l-.063-.061" style="fill:#fff"/><path id="path76608" d="M113.284,79.09l.062-.067a2.955,2.955,0,0,1-1.483.218c.221-.312.789-.155,1.327-.279l.094.128" style="fill:#fff"/><path id="path76609" d="M113.846,80.792l.063-.061c0,.061,0,.16.062.16l.094-.1-.031.061c.378.157.567-.156.882-.061,0,.065.03.1.061.1l-.155.061v-.061h-.283l0,.186a.165.165,0,0,0-.125-.061c-.127.126.062,0,0-.06-.063-.035-.094-.126-.157-.1s-.063.1-.064.156a.167.167,0,0,0-.061-.125c0,.186-.221.122-.282.058-.094-.282-.538-.1-.284-.378.158-.061.251.129.284.221" style="fill:#fff"/><path id="path76610" d="M113.2,80.745c-.223.567-.853.378-1.232.407-.284-.251-.852,0-1.137,0,.127-.126.127-.157.284-.221l.031.061c.127-.187.286-.122.411-.122.223-.286.442.316.63.061-.03.034-.061.064-.061.095.127.16.221-.031.346-.031.188-.03.5-.251.728-.251l.061-.092v.157l-.061-.065" style="fill:#fff"/><path id="path76611" d="M119.761,77.706c-.223.567-.853.376-1.233.407-.284-.254-.851,0-1.136-.007.127-.122.127-.156.283-.217l.033.061c.127-.187.284-.126.411-.122.221-.286.441.316.63.061-.031.034-.062.061-.062.095.127.157.222-.031.348-.031.189-.03.506-.251.727-.251l.063-.092v.157l-.063-.065" style="fill:#fff"/><path id="path76612" d="M118.09,76.818l.062-.061a3.005,3.005,0,0,1-1.483.214c.223-.317.789-.153,1.327-.278l.094.125" style="fill:#fff"/><path id="path76613" d="M118.652,78.52l.062-.06c0,.06,0,.156.063.156l.094-.1-.031.065c.376.156.567-.155.882-.061,0,.061.032.1.061.1l-.155.061v-.065h-.283l0,.19a.181.181,0,0,0-.126-.065c-.127.131.063,0,0-.06-.062-.03-.094-.126-.156-.1s-.063.1-.063.156a.182.182,0,0,0-.062-.125c0,.19-.222.125-.282.061-.094-.285-.538-.094-.282-.378.156-.064.248.127.282.221" style="fill:#fff"/><path id="path76614" d="M118.084,78.616c-.222.564-.853.374-1.232.4-.284-.251-.851,0-1.137,0,.127-.127.127-.157.284-.217l.033.06c.127-.191.284-.126.411-.126.221-.283.44.316.63.066-.031.029-.063.06-.063.094.127.156.223-.03.347-.03.189-.031.5-.252.727-.252l.063-.1v.157l-.063-.061" style="fill:#fff"/><path id="path76615" d="M113.188,76.233c-.223.568-.853.378-1.231.407-.283-.25-.851,0-1.136,0,.127-.125.127-.155.283-.221l.034.063c.127-.188.283-.127.41-.127.221-.279.441.32.63.064-.031.035-.062.066-.062.1.127.156.223-.03.346-.03.19-.031.5-.249.728-.249l.061-.095v.156l-.061-.061" style="fill:#fff"/><path id="path76616" d="M111.517,75.342l.063-.061a3.021,3.021,0,0,1-1.483.218c.222-.317.788-.157,1.326-.279l.094.125" style="fill:#fff"/><path id="path76617" d="M112.079,77.05l.063-.061c0,.061,0,.155.063.155l.094-.094-.032.064c.378.157.568-.157.883-.061,0,.064.031.094.062.094l-.156.061v-.061h-.284l0,.188a.159.159,0,0,0-.125-.061c-.127.125.063,0,0-.066-.063-.03-.094-.125-.157-.091s-.062.091-.062.157a.173.173,0,0,0-.063-.13c0,.191-.219.127-.282.062-.094-.283-.538-.095-.282-.378.157-.06.251.129.282.222" style="fill:#fff"/><path id="path76618" d="M111.251,77.117c-.223.568-.853.378-1.233.408-.282-.251-.849,0-1.135,0,.126-.125.128-.156.284-.221l.032.061c.127-.186.283-.122.41-.122.223-.285.442.317.632.061-.031.035-.063.065-.063.1.128.16.222-.031.347-.031.188-.03.5-.251.727-.251l.061-.092v.156l-.06-.064" style="fill:#fff"/><path id="path76619" d="M122.834,80.317c-.222.567-.852.372-1.232.4-.284-.25-.851,0-1.136,0,.127-.125.127-.157.283-.221l.033.064c.127-.186.284-.125.411-.125.221-.282.44.317.63.064-.031.032-.062.061-.062.1.127.157.222-.035.346-.035.19-.029.5-.247.727-.247l.063-.095v.156l-.063-.061" style="fill:#fff"/><path id="path76620" d="M121.163,79.429l.063-.064a3.007,3.007,0,0,1-1.483.217c.223-.317.789-.157,1.327-.278l.093.125" style="fill:#fff"/><path id="path76621" d="M121.726,81.131l.062-.064c0,.064,0,.157.063.157l.094-.093-.031.063c.377.158.567-.153.882-.059,0,.061.032.092.063.092l-.157.064v-.064h-.284v.19a.162.162,0,0,0-.127-.065c-.127.127.063,0,0-.061-.062-.033-.094-.125-.156-.095s-.063.092-.063.156a.176.176,0,0,0-.063-.128c0,.189-.221.128-.283.064-.094-.285-.535-.094-.281-.381.155-.061.249.13.281.224" style="fill:#fff"/><path id="path76622" d="M121.158,81.224c-.223.567-.853.374-1.232.407-.284-.251-.851,0-1.137,0,.127-.127.127-.157.284-.218l.033.061c.127-.191.284-.127.411-.127.221-.282.44.317.632.066-.033.03-.065.064-.065.094.127.157.223-.03.348-.03.19-.031.507-.252.728-.252l.063-.1v.157l-.063-.061" style="fill:#fff"/><path id="path76623" d="M117.07,74.282c-.223.567-.852.378-1.233.407-.282-.25-.851,0-1.136,0,.127-.129.127-.157.285-.221l.031.061c.127-.187.284-.126.411-.126.223-.278.442.321.632.065-.033.035-.063.064-.063.095.124.157.221-.031.347-.031.188-.029.5-.247.726-.247l.06-.1v.157l-.06-.061" style="fill:#fff"/><path id="path76624" d="M115.4,73.391l.062-.061a3.013,3.013,0,0,1-1.484.217c.222-.316.79-.156,1.326-.278l.1.125" style="fill:#fff"/><path id="path76625" d="M115.961,75.1l.062-.062c0,.062,0,.156.063.156l.1-.094-.033.065c.378.156.567-.157.884-.061,0,.064.03.094.061.094l-.157.061V75.2l-.283,0v.192a.17.17,0,0,0-.127-.063c-.128.127.062,0,0-.064-.063-.03-.094-.126-.157-.091s-.063.091-.063.155a.176.176,0,0,0-.062-.129c0,.192-.222.127-.284.061-.094-.282-.535-.094-.28-.376.154-.062.248.126.28.221" style="fill:#fff"/><path id="path76626" d="M115.393,75.189c-.222.567-.851.378-1.232.409-.282-.253-.851,0-1.137,0,.127-.127.127-.156.286-.221l.031.061c.127-.186.284-.122.411-.122.223-.285.442.316.632.065-.033.029-.063.061-.063.09.125.161.221-.029.347-.029.188-.032.5-.253.725-.253l.063-.09v.155l-.063-.065" style="fill:#fff"/><path id="path76627" d="M124.063,74.143c-.222.567-.853.377-1.232.407-.282-.251-.851,0-1.137,0,.127-.129.127-.157.286-.221l.031.06c.127-.186.284-.125.411-.125.223-.278.442.32.632.065-.032.034-.063.064-.063.1.124.157.221-.031.347-.031.189-.03.5-.247.727-.247l.063-.1,0,.157-.061-.061" style="fill:#fff"/><path id="path76628" d="M122.392,73.255l.063-.061a3.009,3.009,0,0,1-1.483.214c.221-.317.789-.153,1.326-.278l.094.128" style="fill:#fff"/><path id="path76629" d="M122.956,74.957l.063-.061c0,.061,0,.157.061.157l.1-.1-.033.066c.377.155.569-.156.884-.062,0,.066.031.1.062.1l-.158.061v-.061l-.284,0v.192a.152.152,0,0,0-.127-.063c-.127.127.063,0,0-.064-.061-.03-.094-.126-.156-.095s-.063.095-.063.159a.178.178,0,0,0-.061-.129c0,.192-.223.125-.285.061-.093-.282-.535-.094-.281-.376.155-.066.251.125.282.219" style="fill:#fff"/><path id="path76630" d="M122.387,75.05c-.224.567-.853.377-1.232.409-.284-.253-.853,0-1.137,0,.129-.127.129-.156.286-.221l.031.065c.127-.192.284-.126.411-.126.223-.287.442.315.63.065-.03.029-.061.061-.061.09.124.16.221-.029.346-.029.188-.032.5-.249.728-.249l.061-.094,0,.155-.059-.061" style="fill:#fff"/><path id="path76631" d="M125.01,72.5c-.223.569-.853.374-1.232.409-.284-.256-.851,0-1.137,0,.127-.125.127-.157.284-.221l.033.061c.127-.186.284-.125.411-.125.221-.282.44.318.63.064-.031.033-.063.061-.063.1.127.155.221-.032.347-.032.189-.031.5-.252.727-.252l.063-.094v.16l-.063-.066" style="fill:#fff"/><path id="path76632" d="M123.339,71.61l.063-.061a3.013,3.013,0,0,1-1.483.218c.223-.317.788-.157,1.326-.284l.094.131" style="fill:#fff"/><path id="path76633" d="M123.9,73.316l.063-.061c0,.061,0,.157.063.157l.094-.1-.032.061c.378.16.568-.153.883-.058,0,.061.03.1.063.1l-.157.061v-.061h-.284V73.6a.17.17,0,0,0-.126-.064c-.127.129.063,0,0-.061-.062-.031-.094-.125-.156-.1s-.063.1-.063.157a.159.159,0,0,0-.063-.125c0,.189-.219.125-.282.061-.094-.282-.538-.1-.282-.382.157-.057.251.129.282.225" style="fill:#fff"/><path id="path76634" d="M123.334,73.408c-.223.568-.853.378-1.232.408-.284-.251-.851,0-1.137,0,.127-.129.127-.157.284-.221l.033.061c.127-.186.284-.125.411-.125.221-.279.44.32.63.064-.032.035-.063.064-.063.1.127.156.221-.032.346-.032.19-.029.507-.247.728-.247l.063-.095v.156l-.063-.061" style="fill:#fff"/><path id="path76635" d="M123.433,77.963c-.223.568-.853.375-1.232.408-.284-.254-.851,0-1.137-.006.127-.127.127-.156.284-.217l.031.061c.127-.192.286-.127.411-.127.223-.282.442.316.632.066-.031.029-.063.064-.063.094.127.156.221-.03.348-.03.19-.031.505-.252.728-.252l.061-.1v.157l-.061-.061" style="fill:#fff"/><path id="path76636" d="M121.762,77.072l.063-.061a2.953,2.953,0,0,1-1.483.214c.221-.311.788-.156,1.326-.278l.094.125" style="fill:#fff"/><path id="path76637" d="M122.721,79.062l.065-.065c0,.065,0,.157.061.157l.095-.092-.033.061c.378.156.568-.157.885-.061,0,.061.029.095.06.095l-.156.061v-.061l-.284,0v.19a.164.164,0,0,0-.127-.061c-.127.122.063,0,0-.065-.063-.031-.094-.125-.157-.095s-.062.095-.062.156a.164.164,0,0,0-.063-.125c0,.19-.221.125-.284.061-.094-.282-.534-.1-.28-.378.155-.061.249.125.28.221" style="fill:#fff"/><path id="path76638" d="M121.757,78.872c-.223.567-.853.376-1.232.4-.284-.253-.851,0-1.137,0,.127-.122.127-.156.284-.217l.031.061c.127-.187.284-.126.411-.122.223-.286.442.315.632.061-.032.035-.063.061-.063.095.125.157.221-.031.346-.031.19-.029.505-.25.728-.25l.063-.093,0,.157-.061-.064" style="fill:#fff"/><path id="path76639" d="M101.686,72.024c-.225.564-.853.375-1.232.4-.284-.25-.851,0-1.137,0,.127-.122.129-.155.286-.218l.031.063c.127-.192.284-.127.411-.127.222-.282.442.32.631.064-.031.031-.062.063-.062.1.125.157.221-.03.346-.03.19-.031.505-.252.728-.252l.062-.092v.156l-.061-.064" style="fill:#fff"/><path id="path76640" d="M103.319,73.486l.062-.06c0,.06,0,.155.063.155l.094-.095-.031.061c.377.161.567-.156.882-.057,0,.061.032.094.063.094l-.159.063v-.066h-.282v.191a.153.153,0,0,0-.126-.061c-.127.122.061,0,0-.064-.062-.032-.095-.127-.156-.1s-.065.1-.065.157a.171.171,0,0,0-.059-.127c0,.188-.223.127-.284.062-.094-.285-.537-.1-.283-.378.158-.064.252.126.283.221" style="fill:#fff"/><path id="path76641" d="M103.2,72.545c-.223.564-.853.374-1.233.4-.281-.251-.851,0-1.136,0,.127-.125.127-.156.284-.221l.033.065c.127-.19.283-.129.41-.129.222-.282.443.32.631.064-.032.035-.061.065-.061.1.123.157.221-.031.346-.031.188-.03.505-.248.728-.248l.061-.1v.16l-.061-.061" style="fill:#fff"/><path id="path76642" d="M104.381,72.487l.062-.066c0,.066,0,.157.063.157l.1-.091-.034.061c.378.161.568-.156.885-.057,0,.061.029.09.059.09l-.155.065v-.065h-.284v.192a.156.156,0,0,0-.127-.064c-.127.125.063,0,0-.063-.062-.033-.094-.129-.156-.094s-.063.094-.063.157a.167.167,0,0,0-.063-.128c0,.188-.221.128-.283.061-.094-.285-.537-.094-.282-.379.156-.061.252.129.282.224" style="fill:#fff"/><path id="path76643" d="M107.609,71.9l.063-.061c0,.061,0,.155.063.155l.095-.094-.033.064c.378.157.568-.157.885-.061,0,.061.029.091.059.091l-.155.066V71.99H108.3v.191a.157.157,0,0,0-.127-.064c-.127.129.063,0,0-.061-.063-.032-.094-.131-.157-.1s-.062.1-.062.157a.17.17,0,0,0-.063-.127c0,.191-.221.127-.284.062-.094-.285-.536-.1-.282-.381.157-.061.251.129.282.225" style="fill:#fff"/><path id="path76644" d="M111.943,71.643l.063-.061c0,.061,0,.16.061.16l.1-.095-.033.061c.377.156.569-.157.884-.061,0,.061.03.095.061.095l-.157.061v-.061h-.284v.187a.168.168,0,0,0-.127-.065c-.127.129.063,0,0-.061-.062-.031-.1-.125-.158-.095s-.063.095-.063.156a.166.166,0,0,0-.061-.125c0,.19-.223.125-.284.061-.094-.282-.537-.1-.283-.378.158-.061.252.127.283.221" style="fill:#fff"/><path id="path76645" d="M124.394,70.855c-.223.564-.853.374-1.232.405-.284-.252-.851,0-1.137,0,.127-.127.127-.157.284-.221l.033.064c.127-.191.284-.127.411-.127.221-.282.44.317.632.066-.034.03-.063.061-.063.094.123.157.221-.029.346-.029.19-.032.5-.253.728-.253l.061-.1v.157l-.061-.061" style="fill:#fff"/><path id="path76646" d="M116.074,76.341c-.225.569-.853.374-1.232.409-.282-.256-.852,0-1.135,0,.127-.129.127-.157.283-.221l.032.061c.127-.187.285-.126.411-.126.222-.282.442.315.631.065a.146.146,0,0,0-.062.095c.127.155.221-.031.348-.031.188-.035.505-.252.727-.252l.061-.094V76.4l-.06-.062" style="fill:#fff"/><path id="path76647" d="M121.962,82.868c-.222.57-.851.378-1.232.41-.282-.256-.851,0-1.137,0,.128-.125.128-.157.286-.221l.031.061c.127-.186.284-.126.411-.122.223-.285.442.315.632.064-.033.03-.063.058-.063.093.124.155.221-.032.347-.032.188-.031.5-.252.725-.252l.063-.091v.157l-.063-.066" style="fill:#fff"/><path id="path76648" d="M122.335,66.032c.567.222.376.852.407,1.234-.252.282,0,.849,0,1.134-.127-.128-.157-.128-.221-.285l.062-.031c-.188-.129-.125-.286-.125-.411-.282-.221.317-.439.064-.629.034.03.063.061.094.061.159-.125-.031-.221-.031-.346-.031-.191-.251-.506-.251-.727l-.094-.067h.157l-.063.067" style="fill:#fff"/><path id="path76649" d="M121.174,68.736c.566-.224.374-.849.406-1.234-.253-.278,0-.846,0-1.135-.125.129-.157.129-.219.286l.062.031c-.189.129-.127.286-.125.411-.284.221.317.442.064.632.032-.03.061-.065.094-.065.157.126-.031.221-.031.347-.031.191-.251.506-.251.727l-.094.065.157,0-.063-.061" style="fill:#fff"/><path id="path76650" d="M119.191,65.851c.568.224.376.852.408,1.234-.253.282,0,.849,0,1.134-.127-.125-.156-.125-.221-.282l.063-.033c-.19-.125-.126-.282-.126-.412-.283-.221.317-.441.065-.628.031.031.063.06.094.06.158-.125-.031-.221-.031-.346-.032-.19-.251-.506-.251-.727l-.094-.062h.157l-.063.062" style="fill:#fff"/><path id="path76651" d="M118.029,68.557c.565-.221.374-.851.405-1.23-.252-.283,0-.853,0-1.141-.126.131-.157.131-.22.288l.061.029c-.188.129-.125.286-.125.411-.282.225.319.442.064.634.033-.035.063-.061.1-.061.157.122-.031.219-.031.342-.032.19-.251.507-.251.728l-.1.061h.159l-.063-.061" style="fill:#fff"/><path id="path76652" d="M115.084,66.428c.567.225.376.853.407,1.234-.253.282,0,.85,0,1.135-.127-.125-.156-.125-.221-.282l.063-.029c-.188-.129-.125-.286-.125-.413-.284-.223.316-.44.064-.632.031.032.063.061.094.061.158-.125-.031-.221-.031-.343-.032-.189-.251-.506-.251-.727l-.094-.065.157,0-.063.061" style="fill:#fff"/><path id="path76653" d="M113.921,69.139c.566-.225.374-.853.4-1.235-.252-.282,0-.851,0-1.136-.125.127-.157.127-.219.283l.062.03c-.189.129-.127.286-.125.414-.284.221.317.439.064.63.032-.031.061-.06.094-.06.157.125-.031.221-.031.346-.031.19-.252.506-.251.728l-.094.06h.157l-.063-.06" style="fill:#fff"/><path id="path76654" d="M117.089,65.694c.565.221.376.851.405,1.23-.252.282,0,.852,0,1.137-.126-.127-.157-.127-.22-.282l.063-.035c-.19-.125-.127-.282-.125-.407-.284-.225.317-.442.064-.634.032.035.061.061.094.061.157-.122-.031-.219-.031-.346-.031-.186-.252-.5-.251-.724l-.094-.065.157,0-.063.061" style="fill:#fff"/><path id="path76655" d="M115.924,68.4c.568-.224.376-.852.408-1.234-.253-.282,0-.849,0-1.134-.127.125-.157.125-.221.282l.063.032c-.188.128-.126.282-.126.413-.282.221.317.439.065.628.031-.031.062-.06.094-.06.158.125-.032.221-.03.346-.033.19-.25.506-.25.727l-.094.061h.156l-.062-.061" style="fill:#fff"/><path id="path76656" d="M113.038,65.946c.568.221.376.85.408,1.231-.253.282,0,.849,0,1.135-.127-.126-.157-.126-.219-.282l.061-.035c-.188-.125-.126-.282-.126-.411-.282-.221.319-.438.065-.628.033.029.062.064.1.064.156-.129-.032-.221-.032-.346-.031-.192-.25-.507-.25-.728l-.094-.064h.156l-.062.064" style="fill:#fff"/><path id="path76657" d="M111.877,68.651c.568-.223.376-.853.408-1.234-.253-.282,0-.849,0-1.135-.127.129-.157.129-.221.286l.063.031c-.19.129-.126.285-.126.411-.283.221.317.442.065.631.031-.029.062-.064.094-.064.158.127-.032.221-.032.346-.031.192-.25.507-.25.728l-.094.066.157,0-.063-.063" style="fill:#fff"/><path id="path76658" d="M110.73,66.639c.568.225.376.853.408,1.234-.253.282,0,.849,0,1.137-.127-.127-.157-.127-.221-.284l.063-.033c-.188-.125-.126-.282-.126-.411-.282-.221.317-.439.065-.63.033.031.062.061.095.061.157-.125-.033-.221-.031-.343-.031-.19-.25-.506-.25-.728l-.094-.064h.156l-.062.064" style="fill:#fff"/><path id="path76659" d="M109.569,69.346c.566-.222.376-.85.406-1.231-.253-.282,0-.853,0-1.138-.127.128-.158.128-.221.285l.063.03c-.19.129-.126.285-.126.412-.283.223.317.441.065.632a.144.144,0,0,1,.094-.061c.158.122-.032.221-.032.343-.031.19-.25.506-.25.728l-.094.064.156,0-.062-.061" style="fill:#fff"/><path id="path76660" d="M108.478,66c.567.221.376.853.405,1.23-.252.286,0,.853,0,1.139-.127-.129-.159-.129-.221-.286l.062-.029c-.189-.129-.125-.286-.125-.413-.284-.221.317-.44.064-.628.032.031.063.061.094.061.159-.126-.031-.225-.031-.347-.031-.19-.251-.506-.251-.727l-.094-.061h.157l-.063.061" style="fill:#fff"/><path id="path76661" d="M107.313,68.7c.568-.224.376-.853.408-1.234-.253-.282,0-.851,0-1.136-.127.127-.156.127-.221.285l.063.031c-.188.126-.125.282-.125.411-.282.221.318.442.064.63.033-.031.063-.061.1-.061.156.126-.032.221-.032.347-.031.19-.25.5-.25.724l-.094.064h.156l-.062-.064" style="fill:#fff"/><path id="path76662" d="M106.307,66.85c.568.224.376.854.408,1.234-.253.282,0,.851,0,1.136-.127-.127-.156-.127-.221-.285l.063-.031c-.188-.126-.126-.282-.126-.411-.283-.221.317-.442.065-.634.031.035.063.064.094.064.158-.125-.031-.219-.031-.346-.032-.19-.251-.5-.251-.727l-.094-.061h.157l-.063.061" style="fill:#fff"/><path id="path76663" d="M105.146,69.556c.566-.221.375-.853.406-1.23-.252-.286,0-.853,0-1.139-.125.129-.156.129-.219.286l.063.029c-.19.131-.127.286-.127.413-.282.221.318.442.064.628.033-.031.063-.061.1-.061.157.126-.031.225-.031.347-.032.189-.251.506-.251.727l-.1.061h.159l-.063-.061" style="fill:#fff"/><path id="path76664" d="M104.349,66.011c.568.221.376.849.407,1.23-.252.282,0,.85,0,1.135-.127-.125-.158-.125-.221-.282l.063-.033c-.19-.127-.127-.282-.126-.412-.283-.222.317-.439.065-.629.031.031.062.065.094.065.158-.129-.032-.225-.032-.347-.031-.191-.25-.506-.25-.727l-.094-.065h.156l-.062.065" style="fill:#fff"/><path id="path76665" d="M103.186,68.714c.568-.221.376-.851.408-1.231-.253-.284,0-.851,0-1.137-.127.128-.156.128-.221.282l.063.035c-.188.126-.125.282-.125.408-.282.224.316.442.064.633.033-.035.063-.063.1-.063.156.124-.033.222-.032.349-.031.189-.252.5-.252.727l-.094.061h.157l-.063-.061" style="fill:#fff"/><path id="path76666" d="M102.173,67c.568.221.376.851.408,1.23-.253.282,0,.852,0,1.137-.127-.127-.156-.127-.221-.285l.063-.032c-.19-.125-.125-.282-.125-.411-.284-.221.316-.442.064-.633.031.035.063.066.094.066.158-.127-.031-.221-.031-.348-.032-.186-.251-.5-.251-.728l-.094-.061h.157l-.063.061" style="fill:#fff"/><path id="path76667" d="M101.012,69.7c.566-.221.375-.849.406-1.231-.252-.282,0-.849,0-1.135-.127.126-.156.126-.219.282l.061.034c-.188.127-.125.282-.125.412-.282.221.318.442.064.628.033-.031.063-.061.1-.061.157.126-.031.222-.031.347-.032.19-.251.506-.251.727l-.1.061h.159l-.063-.061" style="fill:#fff"/><path id="path76668" d="M100.53,66.061c.568.225.376.853.408,1.231-.253.282,0,.853,0,1.136-.127-.127-.157-.127-.221-.283l.063-.03c-.188-.129-.126-.286-.126-.411-.282-.224.317-.442.065-.633.033.034.062.061.094.061.158-.122-.032-.222-.03-.347-.033-.19-.25-.506-.25-.727L100.435,66h.156l-.062.061" style="fill:#fff"/><path id="path76669" d="M99.368,68.768c.565-.221.376-.853.405-1.231-.252-.285,0-.853,0-1.138-.126.129-.157.129-.22.285l.063.03c-.19.129-.127.285-.125.411-.284.221.316.442.064.63.031-.032.061-.061.094-.061.157.125-.031.224-.031.346-.032.19-.251.507-.251.728l-.094.061h.157l-.063-.061" style="fill:#fff"/><path id="path76670" d="M99,67.638c.567.225.376.855.407,1.234-.253.284,0,.851,0,1.137-.127-.127-.156-.127-.221-.286l.063-.031c-.188-.125-.125-.282-.125-.411-.282-.221.316-.442.064-.632.033.033.063.065.1.065.156-.127-.032-.221-.032-.348-.033-.187-.25-.5-.25-.728l-.094-.061h.156L99,67.638" style="fill:#fff"/><path id="path76671" d="M97.885,69.974c.567-.225.376-.85.407-1.231-.253-.282,0-.849,0-1.134-.126.128-.157.128-.22.285l.063.029c-.19.128-.125.288-.125.413-.284.221.316.442.064.628.031-.029.063-.06.094-.06.157.125-.031.22-.031.346-.032.191-.251.506-.251.727l-.094.065.157,0-.063-.061" style="fill:#fff"/><path id="path76672" d="M97.124,66.2c.567.224.376.853.407,1.23-.252.282,0,.853,0,1.14-.127-.13-.157-.13-.221-.287l.062-.029c-.189-.129-.125-.286-.125-.411-.284-.221.317-.442.064-.63.032.031.063.061.094.061.159-.126-.031-.225-.031-.347-.031-.189-.251-.506-.251-.727l-.094-.061h.157l-.063.061" style="fill:#fff"/><path id="path76673" d="M95.963,68.91c.566-.221.374-.849.405-1.23-.252-.282,0-.853,0-1.138-.127.128-.157.128-.219.285l.061.029c-.188.129-.126.286-.126.413-.282.223.319.44.065.632.033-.035.062-.061.095-.061.157.122-.031.221-.031.346-.031.19-.251.5-.251.724l-.095.065h.158l-.063-.065" style="fill:#fff"/><path id="path76674" d="M95.213,65.936c.565.221.374.849.405,1.23-.252.282,0,.85,0,1.135-.126-.125-.157-.125-.22-.282l.063-.033c-.19-.127-.127-.282-.125-.412-.284-.221.317-.439.062-.629a.2.2,0,0,0,.1.065c.157-.129-.031-.225-.031-.347-.031-.189-.253-.506-.251-.727l-.094-.065h.157l-.063.065" style="fill:#fff"/><path id="path76675" d="M94.05,68.639c.567-.225.376-.855.407-1.234-.252-.282,0-.851,0-1.137-.127.127-.157.127-.221.286l.062.031c-.188.125-.125.282-.125.411-.284.221.317.442.064.633.032-.034.063-.066.094-.066.159.127-.031.221-.031.352-.031.186-.251.5-.251.724l-.094.061h.157l-.063-.061" style="fill:#fff"/><path id="path76676" d="M94.424,66.061c.568.225.376.853.408,1.231-.255.282,0,.853-.006,1.136-.125-.127-.156-.127-.219-.283l.063-.03c-.19-.129-.127-.286-.126-.411-.283-.224.317-.442.065-.633.031.034.061.061.094.061.156-.122-.032-.222-.032-.347-.031-.19-.25-.506-.25-.727L94.327,66h.156l-.062.061" style="fill:#1691ff"/><path id="path76677" d="M93.261,68.768c.568-.221.376-.853.408-1.231-.253-.285,0-.853,0-1.138-.127.129-.156.129-.221.285l.063.03c-.188.129-.125.285-.125.411-.282.221.316.442.064.63.033-.032.063-.061.1-.061.156.125-.033.224-.032.346-.031.19-.25.507-.25.728l-.094.061h.156l-.062-.061" style="fill:#1691ff"/><path id="path76678" d="M97.693,67.123c.566.221.376.853.406,1.231-.253.281,0,.849,0,1.134-.125-.125-.157-.125-.219-.282l.062-.034c-.189-.126-.127-.282-.125-.408-.284-.221.317-.442.065-.632.031.03.062.065.094.065.156-.129-.032-.225-.032-.347-.031-.191-.25-.506-.25-.727l-.094-.066h.156l-.062.066" style="fill:#1691ff"/><path id="path76679" d="M96.53,69.824c.568-.221.376-.849.408-1.23-.253-.282,0-.85,0-1.135-.127.125-.156.125-.221.285l.063.032c-.188.125-.126.281-.126.407-.282.224.317.442.065.632.033-.03.063-.061.094-.061.158.125-.031.221-.03.346-.033.188-.25.5-.25.724l-.094.065h.156l-.062-.065" style="fill:#1691ff"/><path id="path76680" d="M95.893,67.057c.568.224.376.854.408,1.234-.253.283,0,.851-.006,1.136-.125-.127-.156-.127-.219-.285l.063-.031c-.19-.126-.126-.282-.126-.411-.283-.221.317-.442.065-.632.031.033.062.064.094.064.156-.127-.032-.221-.032-.348-.031-.189-.25-.5-.25-.727L95.8,67h.156l-.062.061" style="fill:#1691ff"/><path id="path76681" d="M94.729,69.763c.567-.224.376-.853.407-1.23-.252-.286,0-.853,0-1.139-.127.129-.157.129-.221.286l.062.029c-.188.131-.125.286-.125.413-.282.221.318.442.064.628.033-.029.063-.061.1-.061.157.126-.033.221-.031.347-.032.191-.251.506-.251.727l-.094.065h.158l-.064-.065" style="fill:#1691ff"/><path id="path76682" d="M99.465,65.96c.567.221.376.85.407,1.231-.254.282,0,.849,0,1.135-.127-.126-.157-.126-.221-.286l.062-.031c-.188-.126-.125-.282-.125-.408-.284-.224.317-.442.065-.631.031.029.062.061.094.061.156-.126-.032-.221-.032-.347-.031-.188-.25-.506-.25-.727l-.094-.063h.156l-.062.063" style="fill:#1691ff"/><path id="path76683" d="M98.3,68.662c.568-.225.376-.85.408-1.235-.253-.281,0-.849,0-1.134-.127.128-.157.128-.219.285l.061.031c-.188.129-.126.286-.126.411-.282.221.319.439.065.629.033-.03.062-.061.1-.061.156.125-.032.221-.032.346-.031.188-.25.506-.25.728l-.094.06h.156l-.062-.06" style="fill:#1691ff"/><path id="path76684" d="M101.256,67.163c.566.224.374.853.406,1.231-.253.285,0,.852,0,1.138-.125-.129-.156-.129-.219-.286l.063-.029c-.19-.127-.128-.286-.128-.413-.282-.221.319-.442.065-.628.031.031.063.061.1.061.155-.126-.032-.221-.032-.347-.031-.189-.252-.506-.25-.727l-.1-.061h.158l-.062.061" style="fill:#1691ff"/><path id="path76685" d="M100.093,69.87c.568-.222.376-.855.408-1.231-.253-.285,0-.851,0-1.137-.127.127-.156.127-.221.282l.063.032c-.188.125-.126.285-.126.41-.283.221.317.442.065.634.031-.035.063-.066.094-.066.158.13-.031.221-.031.351-.032.187-.251.5-.251.728l-.094.061.157,0-.063-.058" style="fill:#1691ff"/><path id="path76686" d="M102.729,65.847c.567.225.376.853.407,1.234-.254.282,0,.85,0,1.135-.127-.125-.158-.125-.221-.282l.063-.033c-.19-.125-.125-.282-.125-.413-.284-.219.317-.437.064-.628.031.031.063.061.094.061.159-.125-.031-.221-.031-.343-.032-.19-.251-.506-.251-.727l-.094-.065h.157l-.063.065" style="fill:#1691ff"/><path id="path76687" d="M101.566,68.554c.566-.221.374-.85.405-1.231-.252-.282,0-.853,0-1.137-.125.128-.157.128-.221.284l.063.03c-.188.128-.126.285-.126.41-.282.225.319.443.065.634.033-.035.062-.061.095-.061.157.122-.031.221-.031.346-.031.19-.252.5-.251.725l-.095.064h.158l-.063-.064" style="fill:#1691ff"/><path id="path76688" d="M103.575,67.166c.565.225.376.853.405,1.231-.252.285,0,.853,0,1.138-.127-.128-.158-.128-.221-.285l.063-.03c-.19-.13-.127-.285-.125-.412-.284-.221.316-.442.064-.632.031.035.063.064.094.064.157-.125-.031-.221-.031-.346-.032-.19-.251-.507-.251-.728l-.094-.064h.157l-.063.064" style="fill:#1691ff"/><path id="path76689" d="M102.41,69.873c.568-.225.376-.855.407-1.231-.252-.283,0-.851,0-1.136-.127.127-.157.127-.221.282l.063.035c-.188.125-.126.282-.126.407-.282.224.317.442.065.634.033-.035.062-.063.095-.063.157.123-.033.221-.031.348-.031.186-.251.5-.251.728l-.094.06.157,0-.063-.057" style="fill:#1691ff"/><path id="path76690" d="M105.677,65.851c.568.224.376.852.408,1.234-.253.282,0,.849,0,1.134-.127-.125-.157-.125-.221-.282l.063-.033c-.188-.125-.126-.282-.126-.412-.282-.221.317-.441.065-.628.033.031.062.06.094.06.158-.125-.032-.221-.032-.346-.031-.19-.25-.506-.25-.727l-.094-.062h.156l-.062.062" style="fill:#1691ff"/><path id="path76691" d="M104.515,68.557c.565-.221.374-.851.405-1.23-.252-.283,0-.853,0-1.141-.126.131-.157.131-.22.288l.063.029c-.19.129-.127.286-.125.411-.284.225.316.442.064.634a.141.141,0,0,1,.094-.061c.157.122-.031.219-.031.342-.032.19-.251.507-.251.728l-.094.061h.157l-.063-.061" style="fill:#1691ff"/><path id="path76692" d="M106.3,67.1c.567.22.376.849.407,1.23-.252.282,0,.849,0,1.135-.127-.125-.157-.125-.221-.286l.062-.029c-.188-.127-.125-.284-.125-.413-.284-.221.317-.442.064-.628.032.031.063.061.094.061.159-.125-.031-.221-.031-.346-.031-.19-.251-.507-.251-.728l-.094-.061h.157l-.063.061" style="fill:#1691ff"/><path id="path76693" d="M108.074,65.932c.568.225.376.853.407,1.231-.252.285,0,.853,0,1.138-.127-.129-.157-.129-.221-.285l.063-.03c-.188-.13-.126-.285-.126-.412-.284-.221.317-.442.065-.629.033.032.062.061.094.061.158-.125-.032-.221-.03-.346-.031-.19-.251-.507-.251-.728l-.094-.061h.157l-.063.061" style="fill:#1691ff"/><path id="path76694" d="M106.913,68.639c.566-.225.376-.855.406-1.234-.253-.282,0-.851,0-1.137-.125.127-.156.127-.219.282l.063.035c-.19.125-.128.282-.126.411-.284.221.317.438.065.63.031-.031.061-.063.094-.063.156.127-.032.221-.032.348-.031.19-.25.507-.25.728l-.094.061h.156l-.062-.061" style="fill:#1691ff"/><path id="path76695" d="M109.867,67.139c.567.221.376.854.405,1.23-.252.282,0,.851,0,1.137-.125-.127-.157-.127-.219-.282l.062-.035c-.189-.125-.125-.282-.125-.407-.284-.221.317-.442.064-.634.032.035.061.063.094.063.157-.124-.031-.221-.031-.348-.031-.187-.251-.5-.251-.728l-.094-.061h.157l-.063.061" style="fill:#1691ff"/><path id="path76696" d="M108.821,69.4c.566-.225.376-.853.405-1.231-.252-.286,0-.853,0-1.138-.125.128-.157.128-.219.285l.062.03c-.189.13-.127.287-.125.412-.284.221.317.442.064.629.032-.03.061-.061.094-.061.157.125-.031.221-.031.346-.031.192-.251.506-.251.728l-.094.06h.157l-.063-.06" style="fill:#1691ff"/><path id="path76697" d="M111.338,65.823c.567.224.376.854.407,1.234-.252.283,0,.851,0,1.136-.128-.125-.157-.125-.221-.285l.062-.031c-.188-.126-.125-.282-.125-.411-.284-.221.317-.442.064-.632.032.033.063.064.094.064.159-.127-.031-.221-.029-.351-.032-.187-.251-.5-.251-.724l-.094-.061h.157l-.063.061" style="fill:#1691ff"/><path id="path76698" d="M110.177,68.529c.565-.224.376-.849.4-1.23-.252-.282,0-.853,0-1.139-.125.129-.157.129-.219.286l.062.029c-.19.131-.127.287-.125.413-.284.224.317.442.064.632.032-.033.061-.065.094-.065.157.126-.031.221-.031.347-.031.191-.251.506-.251.727l-.095.061h.158l-.063-.061" style="fill:#1691ff"/><path id="path76699" d="M112.184,67.142c.567.221.376.851.407,1.231-.252.282,0,.851,0,1.136-.127-.127-.156-.127-.221-.282l.063-.035c-.188-.125-.125-.282-.125-.407-.284-.224.317-.442.064-.634.032.035.063.063.094.063.159-.123-.031-.221-.031-.348-.031-.186-.251-.5-.251-.724l-.094-.061h.157l-.063.061" style="fill:#1691ff"/><path id="path76700" d="M110.772,69.175c.566-.221.376-.849.406-1.231-.253-.282,0-.849,0-1.134-.125.125-.157.125-.219.282l.062.033c-.189.127-.127.283-.125.412-.284.221.317.439.065.629a.192.192,0,0,1,.094-.065c.156.129-.032.225-.032.35-.031.191-.25.506-.25.727l-.094.061h.156l-.062-.061" style="fill:#1691ff"/><path id="path76701" d="M114.288,65.826c.566.225.374.855.406,1.231-.253.283,0,.851,0,1.136-.127-.125-.156-.125-.221-.282l.063-.034c-.188-.126-.126-.282-.126-.408-.282-.224.319-.442.065-.633.033.034.063.062.1.062.156-.123-.033-.221-.032-.348-.031-.186-.25-.5-.25-.727l-.1-.061.158,0-.062.058" style="fill:#1691ff"/><path id="path76702" d="M113.124,68.533c.567-.225.376-.853.407-1.231-.254-.285,0-.853-.005-1.138-.126.129-.157.129-.22.285l.063.03c-.188.13-.125.285-.125.412-.284.221.316.442.064.629.031-.032.063-.061.094-.061.157.125-.031.221-.031.346-.032.19-.251.507-.251.728l-.094.064h.157l-.063-.064" style="fill:#1691ff"/><path id="path76703" d="M116.57,66.992c.566.221.374.851.406,1.231-.253.282,0,.851,0,1.137-.125-.127-.157-.127-.221-.282l.063-.035c-.188-.126-.126-.282-.126-.408-.282-.224.319-.442.065-.633.033.035.062.063.1.063.156-.124-.032-.222-.032-.349-.031-.186-.25-.5-.25-.727l-.1-.061h.156l-.06.061" style="fill:#1691ff"/><path id="path76704" d="M118.34,65.826c.566.225.374.855.406,1.234-.253.284,0,.851,0,1.137-.125-.127-.156-.127-.219-.282l.063-.035c-.19-.125-.127-.282-.126-.407-.283-.225.317-.442.065-.634.031.031.061.063.094.063.156-.124-.032-.221-.032-.348-.031-.187-.252-.5-.25-.728l-.094-.061.156,0-.062.057" style="fill:#1691ff"/><path id="path76705" d="M117.177,68.533c.568-.221.376-.85.408-1.231-.253-.282,0-.849,0-1.135-.127.126-.156.126-.221.282l.063.033c-.188.127-.125.282-.125.413-.284.221.316.438.064.628.031-.031.063-.064.094-.064.158.129-.031.221-.031.35-.032.189-.251.506-.251.727l-.094.061h.157l-.063-.061" style="fill:#1691ff"/><path id="path76706" d="M120.131,67.034c.568.225.376.853.408,1.231-.253.285,0,.853,0,1.138-.127-.129-.157-.129-.221-.285l.063-.032c-.188-.129-.126-.285-.126-.41-.283-.222.317-.443.065-.629.033.03.062.061.094.061.158-.125-.032-.221-.032-.346-.031-.192-.25-.507-.25-.728l-.094-.061h.156l-.062.061" style="fill:#1691ff"/><path id="path76707" d="M119.082,69.071c.565-.225.374-.855.405-1.234-.252-.282,0-.852,0-1.137-.126.127-.157.127-.221.285l.062.032c-.188.125-.125.282-.125.41-.282.222.319.443.066.634.032-.035.061-.066.094-.066.157.127-.031.221-.031.351-.031.187-.252.5-.251.725l-.095.06h.158l-.063-.06" style="fill:#1691ff"/><path id="path76708" d="M121.6,65.722c.566.221.376.849.405,1.23-.252.282,0,.85,0,1.135-.125-.125-.157-.125-.219-.282l.061-.033c-.188-.127-.126-.284-.126-.412-.282-.221.319-.439.066-.629.032.031.061.061.094.061.157-.125-.031-.221-.031-.346-.031-.192-.251-.507-.251-.728l-.095-.061h.158l-.063.061" style="fill:#1691ff"/><path id="path76709" d="M120.441,68.425c.568-.221.376-.851.407-1.231-.252-.284,0-.851,0-1.136-.127.125-.157.125-.221.282l.063.034c-.188.126-.126.282-.126.408-.283.224.317.442.065.633a.15.15,0,0,1,.094-.062c.158.123-.032.221-.032.348-.031.186-.25.5-.25.724l-.094.061h.156l-.062-.061" style="fill:#1691ff"/><path id="path76710" d="M122.412,66.5c.565.225.375.853.4,1.234-.252.282,0,.85,0,1.135-.126-.125-.157-.125-.22-.282l.063-.033c-.19-.125-.127-.282-.125-.411-.284-.221.316-.438.064-.63.031.032.061.061.094.061.157-.125-.031-.221-.031-.346-.032-.186-.253-.5-.251-.724l-.094-.065h.157l-.063.065" style="fill:#1691ff"/><path id="path76711" d="M121.087,69.379c.567-.223.376-.853.407-1.234-.252-.282,0-.85,0-1.135-.127.129-.159.129-.221.285l.062.032c-.189.128-.125.285-.125.407-.284.224.317.442.064.632.032-.03.063-.061.094-.061.159.125-.031.221-.031.346-.031.192-.251.507-.251.728l-.094.066.157,0-.063-.062" style="fill:#1691ff"/><path id="path76712" d="M124.552,65.725c.568.221.376.849.408,1.231-.254.282,0,.849,0,1.135-.126-.126-.157-.126-.22-.286l.063-.029c-.19-.127-.125-.284-.125-.413-.284-.221.316-.442.064-.628.031.029.061.061.094.061.157-.126-.031-.222-.031-.347-.032-.191-.251-.5-.251-.724l-.094-.064h.157l-.063.064" style="fill:#1691ff"/><path id="path76713" d="M123.388,68.428c.567-.221.376-.854.407-1.23-.252-.288,0-.852,0-1.137-.127.125-.157.125-.221.282l.062.035c-.188.125-.125.282-.125.407-.282.221.317.442.065.632.033-.033.062-.061.093-.061.159.124-.031.221-.029.348-.031.186-.251.5-.251.726l-.094.063h.157l-.063-.063" style="fill:#1691ff"/><path id="path76714" d="M114.838,69.074c.566-.224.374-.855.406-1.234-.253-.282,0-.851,0-1.137-.125.127-.156.127-.219.286l.063.031c-.19.126-.128.282-.128.411-.282.221.319.439.065.634.031-.035.061-.067.1-.067.155.127-.032.221-.032.348-.031.187-.252.5-.25.728l-.1.061h.158l-.062-.061" style="fill:#1691ff"/><path id="path76715" d="M115.566,68.04c.567-.221.376-.853.407-1.23-.252-.286,0-.853,0-1.139-.128.129-.157.129-.222.286l.063.029c-.188.129-.125.286-.125.413-.282.219.317.44.064.632a.181.181,0,0,1,.094-.065c.159.126-.031.225-.029.347-.033.189-.251.506-.251.727l-.094.061h.157l-.063-.061" style="fill:#1691ff"/><path id="path76716" d="M123.971,68.9c.566-.224.374-.853.406-1.231-.253-.282,0-.849,0-1.135-.125.126-.156.126-.219.282l.063.034c-.19.127-.128.282-.126.412-.284.221.317.439.065.628.031-.031.061-.064.094-.064.156.129-.032.225-.032.346-.031.19-.25.507-.25.728l-.1.064h.158l-.062-.064" style="fill:#fff"/><path id="path76717" d="M123.029,66.035c.568.223.376.853.406,1.234-.252.282,0,.85,0,1.135-.126-.129-.157-.129-.22-.285l.063-.032c-.19-.129-.127-.285-.125-.407-.284-.225.316-.442.064-.632.031.03.063.061.094.061.157-.127-.031-.221-.031-.347-.032-.188-.251-.508-.251-.727l-.094-.063h.157l-.063.063" style="fill:#fff"/><path id="path76718" d="M116.92,72.728c0,.252.252-.061.188.221-.6-.129-.853.659-1.546.438a3.211,3.211,0,0,0-1.072-.1.789.789,0,0,1-.851.09,2.775,2.775,0,0,0,1.42-.308,1.188,1.188,0,0,0,1.356.033.648.648,0,0,1,.507-.377" style="fill:#a8efff"/><path id="path76719" d="M115.244,73.636c0,.251.252-.061.189.225-.6-.131-.854.659-1.547.435a3.108,3.108,0,0,0-1.072-.1.8.8,0,0,1-.851.092,2.806,2.806,0,0,0,1.42-.313,1.2,1.2,0,0,0,1.356.037.649.649,0,0,1,.506-.376" style="fill:#a8efff"/><path id="path76720" d="M115.042,71.953c-.223.564-.853.374-1.233.4-.283-.251-.851,0-1.136,0,.127-.125.129-.154.285-.221l.032.067c.127-.192.285-.131.41-.128.223-.282.442.317.63.065-.029.031-.06.063-.06.092.123.157.221-.029.346-.029.188-.032.5-.249.728-.249l.06-.1v.157l-.059-.061" style="fill:#a8efff"/><path id="path76721" d="M121.115,71.65c0,.253.25-.061.188.221-.6-.125-.853.66-1.548.439a3.24,3.24,0,0,0-1.072-.1.786.786,0,0,1-.851.092,2.768,2.768,0,0,0,1.422-.31,1.193,1.193,0,0,0,1.356.035.641.641,0,0,1,.506-.378" style="fill:#a8efff"/><path id="path76722" d="M119.439,72.559c0,.25.25-.063.188.221-.6-.131-.853.658-1.548.437a3.146,3.146,0,0,0-1.07-.094.8.8,0,0,1-.853.088,2.728,2.728,0,0,0,1.422-.313,1.183,1.183,0,0,0,1.356.037.643.643,0,0,1,.5-.376" style="fill:#a8efff"/><path id="path76723" d="M119.235,70.872c-.223.568-.853.378-1.232.407-.282-.25-.852,0-1.137,0,.127-.129.127-.157.284-.221l.033.061c.127-.186.283-.126.411-.126.221-.278.442.321.631.065-.033.035-.062.064-.062.1.125.156.221-.032.346-.032.19-.029.507-.247.728-.247l.062-.1v.157l-.062-.061" style="fill:#a8efff"/><path id="path76724" d="M123.13,72.32c0,.251.253-.061.19.225-.6-.129-.855.659-1.547.435a3.246,3.246,0,0,0-1.073-.1.8.8,0,0,1-.851.1,2.789,2.789,0,0,0,1.421-.314,1.2,1.2,0,0,0,1.357.038.643.643,0,0,1,.505-.377" style="fill:#a8efff"/><path id="path76725" d="M121.454,73.227c0,.253.253-.061.19.221-.6-.125-.853.66-1.547.439a3.159,3.159,0,0,0-1.073-.094.8.8,0,0,1-.851.09,2.785,2.785,0,0,0,1.42-.311,1.191,1.191,0,0,0,1.358.033.638.638,0,0,1,.505-.374" style="fill:#a8efff"/><path id="path76726" d="M121.254,71.546c-.223.564-.853.372-1.232.4-.284-.253-.852,0-1.137,0,.127-.125.127-.157.284-.221l.031.061c.129-.186.286-.122.411-.122.223-.282.442.317.632.061-.032.035-.063.064-.063.1.127.157.221-.035.346-.035.19-.029.505-.25.728-.247l.063-.095V71.6l-.063-.061" style="fill:#a8efff"/><path id="path76727" d="M124.605,75.363c0,.251.25-.061.188.221-.6-.129-.853.66-1.546.439a3.281,3.281,0,0,0-1.072-.1.79.79,0,0,1-.853.093,2.718,2.718,0,0,0,1.422-.314,1.181,1.181,0,0,0,1.356.039c.1-.157.251-.378.505-.375" style="fill:#a8efff"/><path id="path76728" d="M122.928,76.27c0,.252.251-.061.188.221-.6-.129-.852.659-1.545.439a3.249,3.249,0,0,0-1.072-.1.793.793,0,0,1-.853.091,2.788,2.788,0,0,0,1.422-.309,1.188,1.188,0,0,0,1.356.033.639.639,0,0,1,.5-.377" style="fill:#a8efff"/><path id="path76729" d="M122.725,74.588c-.223.568-.851.373-1.233.4-.282-.25-.851,0-1.136,0,.127-.126.127-.157.285-.221l.032.064c.127-.186.283-.125.41-.125.221-.282.443.316.632.064-.033.031-.062.061-.062.1.123.156.221-.035.346-.032.188-.033.5-.25.726-.25l.062-.092v.156l-.062-.064" style="fill:#a8efff"/><path id="path76730" d="M124.2,76.8c0,.256.251-.057.188.225-.6-.129-.853.659-1.547.435a3.373,3.373,0,0,0-1.072-.1.792.792,0,0,1-.851.092,2.77,2.77,0,0,0,1.422-.313,1.18,1.18,0,0,0,1.356.038.642.642,0,0,1,.506-.377" style="fill:#a8efff"/><path id="path76731" d="M122.015,78.085c0,.253.25-.061.188.221-.6-.129-.853.66-1.548.439a3.267,3.267,0,0,0-1.072-.1.787.787,0,0,1-.851.091,2.789,2.789,0,0,0,1.422-.308,1.188,1.188,0,0,0,1.356.033.632.632,0,0,1,.506-.374" style="fill:#a8efff"/><path id="path76732" d="M121.811,76.4c-.223.568-.851.376-1.232.408-.284-.253-.852,0-1.137,0,.127-.125.127-.157.285-.221l.032.061c.127-.186.284-.122.411-.122.222-.285.44.317.631.061-.033.035-.062.064-.064.1.127.16.223-.032.348-.032.188-.029.505-.247.726-.247l.063-.095v.156l-.063-.061" style="fill:#a8efff"/><path id="path76733" d="M118.258,75.958c0,.251.253-.061.19.221-.6-.13-.854.66-1.547.439a3.108,3.108,0,0,0-1.072-.1.792.792,0,0,1-.852.089,2.779,2.779,0,0,0,1.421-.31,1.191,1.191,0,0,0,1.356.035.641.641,0,0,1,.506-.374" style="fill:#a8efff"/><path id="path76734" d="M116.582,76.865c0,.252.253-.061.19.221-.6-.125-.855.66-1.547.439a3.277,3.277,0,0,0-1.073-.1.779.779,0,0,1-.851.093,2.735,2.735,0,0,0,1.42-.31,1.185,1.185,0,0,0,1.356.038.65.65,0,0,1,.507-.377" style="fill:#a8efff"/><path id="path76735" d="M116.38,75.178c-.224.57-.853.378-1.232.409-.284-.252-.851,0-1.137,0,.127-.125.127-.157.284-.221l.031.061c.127-.186.284-.122.411-.122.223-.282.442.315.632.064-.031.03-.063.061-.063.093.127.158.221-.032.347-.032.189-.031.5-.25.727-.25l.063-.093,0,.157-.061-.064" style="fill:#a8efff"/><path id="path76736" d="M114.02,75.319c0,.251.252-.062.188.22-.6-.129-.853.659-1.546.438a3.269,3.269,0,0,0-1.072-.1.8.8,0,0,1-.853.092,2.84,2.84,0,0,0,1.422-.31,1.188,1.188,0,0,0,1.356.033.642.642,0,0,1,.5-.376" style="fill:#a8efff"/><path id="path76737" d="M112.344,76.226c0,.253.252-.061.188.221-.6-.125-.853.66-1.546.439a3.249,3.249,0,0,0-1.072-.1.789.789,0,0,1-.853.092,2.738,2.738,0,0,0,1.422-.31,1.19,1.19,0,0,0,1.356.038.645.645,0,0,1,.5-.377" style="fill:#a8efff"/><path id="path76738" d="M112.142,74.543c-.223.564-.851.374-1.232.406-.282-.253-.852,0-1.137,0,.127-.127.127-.156.285-.217l.032.061c.127-.192.283-.126.41-.126.223-.284.443.315.631.065a.148.148,0,0,0-.061.094c.123.156.221-.03.348-.03.186-.031.5-.252.726-.252l.061-.094V74.6l-.061-.061" style="fill:#a8efff"/><path id="path76739" d="M115.277,78.7c0,.249.252-.065.189.221-.6-.129-.854.66-1.547.439a3.148,3.148,0,0,0-1.072-.1.79.79,0,0,1-.851.1,2.787,2.787,0,0,0,1.422-.314,1.187,1.187,0,0,0,1.356.039.641.641,0,0,1,.5-.378" style="fill:#a8efff"/><path id="path76740" d="M113.087,79.6c0,.251.252-.063.19.223-.6-.129-.853.66-1.548.435a3.255,3.255,0,0,0-1.072-.094.8.8,0,0,1-.851.092,2.818,2.818,0,0,0,1.422-.313,1.2,1.2,0,0,0,1.356.037.639.639,0,0,1,.5-.376" style="fill:#a8efff"/><path id="path76741" d="M111.94,77.97c-.225.568-.853.378-1.232.408-.284-.251-.853,0-1.137,0,.127-.129.127-.155.284-.221l.031.063c.127-.188.284-.127.411-.127.223-.279.442.32.632.064-.033.035-.063.066-.063.1.124.157.221-.03.348-.03.188-.031.5-.252.728-.252l.061-.092,0,.156-.059-.064" style="fill:#a8efff"/><path id="path76742" d="M119.5,78.884c0,.253.252-.061.19.225-.6-.129-.855.659-1.548.435a3.155,3.155,0,0,0-1.072-.094.8.8,0,0,1-.851.09,2.785,2.785,0,0,0,1.42-.311,1.189,1.189,0,0,0,1.356.033.647.647,0,0,1,.507-.378" style="fill:#a8efff"/><path id="path76743" d="M117.82,79.8c0,.251.252-.061.19.221-.6-.128-.855.66-1.548.439a3.114,3.114,0,0,0-1.072-.1.79.79,0,0,1-.851.092,2.806,2.806,0,0,0,1.42-.313,1.192,1.192,0,0,0,1.356.038.647.647,0,0,1,.507-.378" style="fill:#a8efff"/><path id="path76744" d="M117.62,78.11c-.225.567-.853.374-1.233.407-.283-.251-.853,0-1.136,0,.127-.128.127-.154.283-.219l.032.061c.127-.188.283-.127.41-.127.223-.282.443.32.632.066-.031.033-.062.065-.062.094.127.157.221-.029.348-.029.19-.032.506-.249.727-.249l.063-.1,0,.157-.061-.061" style="fill:#a8efff"/><path id="path76745" d="M122.692,80.01c0,.251.252-.061.188.221-.6-.125-.853.66-1.546.439a3.249,3.249,0,0,0-1.072-.1.786.786,0,0,1-.851.092,2.725,2.725,0,0,0,1.42-.313,1.186,1.186,0,0,0,1.356.038.632.632,0,0,1,.506-.374" style="fill:#a8efff"/><path id="path76746" d="M121.016,80.917c0,.253.252-.061.188.221-.6-.128-.853.66-1.546.439a3.276,3.276,0,0,0-1.072-.1.789.789,0,0,1-.852.091,2.787,2.787,0,0,0,1.421-.308,1.188,1.188,0,0,0,1.356.033.63.63,0,0,1,.506-.374" style="fill:#a8efff"/><path id="path76747" d="M120.812,79.236c-.223.567-.851.372-1.232.4-.282-.253-.852,0-1.137,0,.127-.125.127-.157.285-.221l.032.064c.127-.186.283-.125.41-.125.223-.282.443.317.632.064-.033.032-.062.061-.062.1.125.157.221-.035.346-.035.188-.029.5-.247.726-.247l.064-.095v.156l-.063-.061" style="fill:#a8efff"/><path id="path76748" d="M119.827,83.453c0,.253.252-.061.188.221-.6-.125-.853.66-1.548.439a3.153,3.153,0,0,0-1.072-.094.793.793,0,0,1-.851.087,2.758,2.758,0,0,0,1.422-.308,1.188,1.188,0,0,0,1.356.033.637.637,0,0,1,.506-.374" style="fill:#a8efff"/><path id="path76749" d="M117.924,82.4c0,.25.253-.065.19.221-.6-.129-.855.66-1.547.438a3.282,3.282,0,0,0-1.073-.1.78.78,0,0,1-.851.1,2.765,2.765,0,0,0,1.42-.313,1.188,1.188,0,0,0,1.358.038.643.643,0,0,1,.5-.377" style="fill:#a8efff"/><path id="path76750" d="M117.949,82.679c-.223.567-.853.374-1.233.407-.283-.251-.851,0-1.136,0,.127-.129.127-.155.283-.22l.033.061c.127-.188.284-.127.411-.127.221-.282.441.317.632.066-.033.033-.063.065-.064.094.127.157.222-.029.348-.029.189-.032.506-.249.727-.249l.063-.1v.157l-.063-.061" style="fill:#a8efff"/><path id="path76751" d="M121.586,83.641c0,.251.253-.061.19.221-.6-.128-.854.66-1.547.439a3.114,3.114,0,0,0-1.072-.1.792.792,0,0,1-.852.092,2.807,2.807,0,0,0,1.421-.313,1.2,1.2,0,0,0,1.357.038.642.642,0,0,1,.5-.378" style="fill:#a8efff"/><path id="path76752" d="M119.91,84.548c0,.252.253-.064.19.221-.6-.129-.853.66-1.547.439a3.217,3.217,0,0,0-1.073-.1.787.787,0,0,1-.851.091,2.757,2.757,0,0,0,1.422-.312,1.188,1.188,0,0,0,1.356.037.642.642,0,0,1,.505-.378" style="fill:#a8efff"/><path id="path76753" d="M119.708,82.863c-.222.568-.853.373-1.232.4-.284-.252-.851,0-1.137,0,.127-.126.127-.157.284-.222l.033.065c.127-.186.284-.125.409-.125.223-.282.442.318.632.064-.031.035-.063.061-.063.1.127.156.221-.035.347-.032.189-.029.506-.25.727-.25l.063-.093v.157l-.063-.064" style="fill:#a8efff"/><path id="path76754" d="M104.971,72.656c0,.253.252-.064.188.221-.6-.129-.855.66-1.548.439a3.164,3.164,0,0,0-1.072-.1.786.786,0,0,1-.851.092A2.783,2.783,0,0,0,103.11,73a1.188,1.188,0,0,0,1.356.037.641.641,0,0,1,.506-.378" style="fill:#a8efff"/><path id="path76755" d="M103.092,71.878c-.222.568-.852.378-1.232.407-.284-.25-.851,0-1.137,0,.128-.129.128-.155.284-.221l.033.063c.127-.188.284-.127.411-.127.221-.282.44.32.63.064-.031.031-.063.066-.063.1.128.156.222-.03.347-.03.19-.031.505-.252.727-.252l.061-.093v.157l-.061-.064" style="fill:#a8efff"/><path id="path76756" d="M83.216,91.589A1.181,1.181,0,1,1,84.4,92.776,1.076,1.076,0,0,1,83.216,91.589Zm1.181-.745c-.429,0-.517.4-.517.752,0,.339.088.734.517.734s.516-.395.516-.734-.088-.752-.516-.752"/><path id="path76757" d="M86.94,93.143h-.632V90.865h1.053c.384,0,.882.106.882.585,0,.342-.261.52-.579.56v.011c.4.01.478.214.52.567a2.6,2.6,0,0,0,.105.552H87.6a4.318,4.318,0,0,1-.069-.481c-.025-.275-.037-.389-.359-.389H86.94v.873Zm.245-1.312c.2,0,.4-.031.4-.263s-.195-.261-.4-.261H86.94v.524h.245"/><path id="path76758" d="M88.792,92.358a1.18,1.18,0,1,1,1.18,1.186A1.075,1.075,0,0,1,88.792,92.358Zm1.18-.745c-.428,0-.517.4-.517.754,0,.338.089.735.517.735s.517-.4.517-.735c0-.357-.089-.754-.517-.754"/><path id="path76759" d="M94.717,94.146v-.378" style="fill:none;stroke:#000;stroke-width:1.57712px"/><path id="path76760" d="M98.661,94.1v-.378" style="fill:none;stroke:#000;stroke-width:1.57712px"/><path id="path76761" d="M101.178,93.575V91.3h1.046c.559,0,.924.181.924.731s-.367.731-.924.731h-.416v.813h-.632Zm.955-1.255c.249-.011.352-.122.352-.289s-.1-.278-.352-.292h-.323v.581h.323"/><path id="path76762" d="M103.4,93.537V91.26h.632v1.834h1.029v.443H103.4"/><path id="path76763" d="M105.324,93.258l.9-2.273h.769l.9,2.273h-.71l-.152-.442H106.1l-.148.442h-.63Zm1.551-.884-.291-.945h-.01l-.308.945h.609"/><path id="path76764" d="M108.469,91.307h-.7v-.442h2.042v.442H109.1v1.836h-.63V91.307"/><path id="path76765" d="M109.7,92.987l.9-2.279h.769l.9,2.279h-.712l-.151-.446h-.924l-.148.446h-.63Zm1.55-.888-.29-.949h-.011l-.31.949h.611"/><path id="path76766" d="M96.342,93.911l-.863-1.427h.726l.492.945.51-.945h.643l-.885,1.427-.031,1.217h-.625l.033-1.217"/><path id="path3767" d="M43.28,31.417V20.128h3.433l2.246,8.591,2.215-8.591h3.448V31.417H52.446v-9.1l-2.292,9.105H47.779l-2.323-9.1v9.105H43.28" style="fill:#ffd90f"/><path id="path3765" d="M63.336,25.784a4.527,4.527,0,0,0,.828,2.9,2.806,2.806,0,0,0,2.314,1.027,2.847,2.847,0,0,0,2.338-1.027,4.5,4.5,0,0,0,.835-2.9,4.466,4.466,0,0,0-.835-2.89,2.838,2.838,0,0,0-2.338-1.034,2.8,2.8,0,0,0-2.314,1.027,4.5,4.5,0,0,0-.828,2.9m-2.368,0a6.122,6.122,0,0,1,1.487-4.338,5.835,5.835,0,0,1,8.047,0A6.106,6.106,0,0,1,72,25.784a6.1,6.1,0,0,1-1.5,4.337,5.833,5.833,0,0,1-8.047,0,6.138,6.138,0,0,1-1.487-4.337" style="fill:#ffd90f"/><path id="path3761" d="M78.319,31.417V20.128h2.429l4.583,7.755V20.128h2.292V31.417h-2.4L80.61,23.661v7.756H78.319" style="fill:#ffd90f"/><path id="path3759" d="M96.781,31.417V22.143H93.432V20.128h9v2.015H99.1v9.274H96.781" style="fill:#ffd90f"/><path id="path3757" d="M112.438,22.389l-1.564,4.805h3.135l-1.571-4.8m-1.349-2.261h2.682l4.07,11.289H115.4l-.767-2.323h-4.376l-.743,2.323h-2.445l4.016-11.289" style="fill:#ffd90f"/><path id="path3753" d="M123.474,31.417V20.128H125.9l4.583,7.755V20.128h2.292V31.417h-2.4l-4.614-7.756v7.756h-2.291" style="fill:#ffd90f"/><path id="path3751" d="M143.8,22.389l-1.563,4.805h3.134l-1.571-4.8m-1.349-2.261h2.683L149.2,31.417h-2.437L146,29.094h-4.376l-.744,2.323h-2.445l4.016-11.289" style="fill:#ffd90f"/></g></g></g></svg>