<svg xmlns="http://www.w3.org/2000/svg" viewBox="0 0 188.027 125.352"><g id="Layer_2" data-name="Layer 2"><g id="New_Mexico" data-name="New Mexico"><g id="New_Mexico-2" data-name="New Mexico"><rect width="188.027" height="125.352" style="fill:gold"/><path id="lin" d="M118.668,68.674H69.36m54.64-4H64.027m59.973-4H64.027m54.641-4H69.36"/><path d="M118.668,70.007H69.36a1.333,1.333,0,0,1,0-2.665h49.308a1.333,1.333,0,0,1,0,2.665Zm5.332-4H64.027a1.333,1.333,0,0,1,0-2.665H124a1.333,1.333,0,0,1,0,2.665Zm0-4H64.027a1.332,1.332,0,0,1,0-2.664H124a1.332,1.332,0,0,1,0,2.664Zm-5.332-4H69.36a1.333,1.333,0,0,1,0-2.665h49.308a1.333,1.333,0,0,1,0,2.665Z" style="fill:#bf0a30"/><path id="lin-2" data-name="lin" d="M88.015,87.33V38.022m4,54.64V32.689m3.995,59.973V32.689m4,54.641V38.022"/><path d="M96.012,93.994a1.332,1.332,0,0,1-1.332-1.332V32.689a1.332,1.332,0,1,1,2.664,0V92.662A1.333,1.333,0,0,1,96.012,93.994Zm-4,0a1.333,1.333,0,0,1-1.332-1.332V32.689a1.332,1.332,0,1,1,2.664,0V92.662A1.333,1.333,0,0,1,92.016,93.994Zm8-5.332A1.333,1.333,0,0,1,98.68,87.33V38.021a1.332,1.332,0,1,1,2.664,0V87.33A1.333,1.333,0,0,1,100.012,88.662Zm-12,0a1.333,1.333,0,0,1-1.332-1.332V38.021a1.333,1.333,0,0,1,2.665,0V87.33A1.333,1.333,0,0,1,88.015,88.662Z" style="fill:#bf0a30"/><circle cx="94.014" cy="62.676" r="10.077" style="fill:gold"/><path d="M94.014,73.585a10.91,10.91,0,1,1,10.909-10.91A10.922,10.922,0,0,1,94.014,73.585Zm0-20.155a9.246,9.246,0,1,0,9.244,9.245A9.256,9.256,0,0,0,94.014,53.43Z" style="fill:#bf0a30"/></g></g></g></svg>