<svg xmlns="http://www.w3.org/2000/svg" viewBox="0 0 187.246 125.729"><g id="Layer_2" data-name="Layer 2"><g id="New_York" data-name="New York"><g id="New_York-2" data-name="New York"><path id="path20" d="M0,125.729H187.246V0H0Z" style="fill:#002d72"/><g id="g6061"><path id="path28" d="M104.8,85.537c-.027,0-.052,0-.079.01.027,0,.052,0,.079-.01" style="fill:#0077c8"/><path id="path30" d="M104.524,85.572a1.165,1.165,0,0,1-.131,0,1.122,1.122,0,0,0,.131,0" style="fill:#0077c8"/><path id="path34" d="M104.659,85.557c-.03,0-.06,0-.09.01.028,0,.057,0,.09-.01" style="fill:#0077c8"/><path id="path36" d="M104.929,85.505a.348.348,0,0,1-.074.017c.027-.005.05-.012.074-.017" style="fill:#0077c8"/><path id="path38" d="M84.772,86.173c-.005,0-.007,0-.012.008,0-.008.007-.008.012-.008" style="fill:#0077c8"/><path id="path40" d="M111.9,86.305v-.147c0-.323-.007-1.858-.007-3.917v.014h-.162L102.1,82.6l1.605.8-1.148.114,1.493.345-.919.346,1.605.114-1.374.34,2.3.112-2.3.571,2.176-.111-.591.263a4.382,4.382,0,0,0,.936-.378s-.571-1.493,1.034-.457a7.084,7.084,0,0,0,2.409,1.148s1.146-1.379.915-.236,1.373,1.036,1.373,1.036l.274.146c0-.146,0-.355,0-.454" style="fill:#0077c8"/><path id="path42" d="M85.386,86a.1.1,0,0,1-.027,0l.027,0" style="fill:#0077c8"/><path id="path44" d="M80.2,86.844c1.262.343,1.49,0,1.49,0s1.262-.922,2.065-.8a6.018,6.018,0,0,1,.661.142l.253-.373-1.719-.231,2.062-.343-1.945-.231,1.488-.34-1.605-.226,1.259-.351-1.259-.34,1.95-.231L82.6,83.3l3.44-.35s.572-.454-1.719-.454-7-.346-7-.346h-.162c-.005,2.1-.007,3.682-.007,4.017v.147l.057-.038a6.55,6.55,0,0,1,2.978.572" style="fill:#0077c8"/><path id="path48" d="M85.2,86.064c-.012,0-.02.005-.03.005a.06.06,0,0,1,.03-.005" style="fill:#0077c8"/><path id="path50" d="M85.026,86.111s-.015,0-.02,0,.015,0,.02,0" style="fill:#0077c8"/><path id="path52" d="M94.511,50.845H84.417a11.837,11.837,0,0,1-6.412,5.761A9.527,9.527,0,0,1,77.171,69.4c0,.469,0,1.05,0,1.7l-.072.149a5.511,5.511,0,0,1,1.373-.916c.917-.46,1.26-.688,1.95-.229a6.552,6.552,0,0,0,1.374.691s.917-.577,1.719-1.145.572-.915,1.605-.691a10.127,10.127,0,0,0,4.472-.912c.916-.459,1.374.11,2.176-.919s.8-.917,1.948-1.381.916-1.252,2.407-.8,2.293.231,4.471,1.95,3.555,2.293,4.472,3.207a12.029,12.029,0,0,0,1.831,1.5s.919-.346,1.836-.805,1.259-.8,1.95-.341a3.8,3.8,0,0,0,1.259.569l-.072-.082c0-.586,0-1.108,0-1.542a9.521,9.521,0,0,1-.834-12.784,11.834,11.834,0,0,1-6.412-5.766H94.5" style="fill:#0077c8"/><path id="path54" d="M86.566,46.033s-.037,0-.1.007a20.454,20.454,0,0,0,3.148-.007c-1.031-.2-1.079-1.133-1.642-1.655a2.474,2.474,0,0,0-1.829-.767c-.862,0-1.3.459-1.215,1.272s.733,1.15,1.548,1.15" style="fill:#0077c8"/><path id="path56" d="M94.076,44.373a2.465,2.465,0,0,0-1.826-.762c-.48,0-.892.345-1.463.531.069.068.149.147.243.231.562.527.609,1.459,1.642,1.66,0,0-.037,0-.1.007a20.454,20.454,0,0,0,3.148-.007c-1.034-.2-1.078-1.133-1.642-1.66" style="fill:#0077c8"/><path id="path58" d="M100.185,44.373a2.469,2.469,0,0,0-1.829-.762c-.477,0-.889.345-1.461.531.07.068.149.147.244.231.561.527.606,1.459,1.639,1.66,0,0-.034,0-.1.007a20.461,20.461,0,0,0,3.148-.007c-1.034-.2-1.079-1.133-1.642-1.66" style="fill:#0077c8"/><path id="path60" d="M101.211,43.564a7.3,7.3,0,1,0-12.315.024l-.05.08a1.369,1.369,0,0,1,.348-.052,2.338,2.338,0,0,1,1.545.517l.194-.04a3.992,3.992,0,0,1,1.309-.477,2.341,2.341,0,0,1,1.506.484l.087.042c.571-.186.984-.536,1.463-.536a2.354,2.354,0,0,1,1.565.541l.025,0c.571-.186.984-.536,1.458-.536a2.311,2.311,0,0,1,1.493.492l.095.044a11.394,11.394,0,0,1,1.294-.521l-.027-.057" style="fill:#0077c8"/><path id="path62" d="M120.185,58.032a3.527,3.527,0,0,1,1.545-.944,17.429,17.429,0,0,1,3.441-.432c1.461-.09,1.031.091,2.062.258a4.79,4.79,0,0,1,2.578,1.21,61.307,61.307,0,0,1-.516,7.733c-.343,2.581-.517,2.671-.517,2.671v.084l1.376.6s.686,1.036,1.458.775.6-.172.517-4.044a68.893,68.893,0,0,0-1.289-9.716V56.4l-.256-.683c-.171-1.033-1.419-.815-1.674-.517s-.346.385-.346.385-.213-.044-.862-.26a7.747,7.747,0,0,0-2.491-.256,7.935,7.935,0,0,0-2.236.218,3.854,3.854,0,0,0-2.278.9l-.517,1.844" style="fill:#0077c8"/><path id="path64" d="M55.491,49.69s1.6-3.436,2.464-4.752c.554-.85.922-1.141,1.307-1.076a6.763,6.763,0,0,1,1.384-.356,8.013,8.013,0,0,0,2.091-.862v.025a24.153,24.153,0,0,0,.832,2.467c.373.83.487.634.863.6s1.346-.059,1.92-.059.372-.229.544-.944a10.591,10.591,0,0,0,.2-1.747l.087.231v-.144a2.245,2.245,0,0,0,1.317,1,15.045,15.045,0,0,0,1.833.423c.77.126,1.645,2.231,2.507,3.135a1.975,1.975,0,0,1,.728,1.843l.029.094a1.739,1.739,0,0,0-.5-.434c-1.419-.132-1.332,1.376-1.419,2.536a3.32,3.32,0,0,0,1.245,1.076l-.08.037s-.646,2.753-1.033,3.781-.813-.3-1.116-1.545a23.983,23.983,0,0,1-.857-5.244c-.216,1.287-.39,4.986-.39,4.986l-.074.079a1.415,1.415,0,0,0-.872.291c-.8.576-.286.288-1.26.288a8.828,8.828,0,0,1-3.324-.688,2.416,2.416,0,0,0-2.176,0,4.726,4.726,0,0,1-1.493.174,2.564,2.564,0,0,1-.228-2.122c.149-.6.228-.576-.115-.864S59.62,50.2,59.62,50.2a2.709,2.709,0,0,0-.4.976c-.115.574-1.046,3.891-1.046,3.891-.514,1.676-1.536,3.04-2.005,1.363l-.1-1.7c.862-.288,1.088-1.208,1.319-2.812A1.507,1.507,0,0,0,55.5,50.09v-.405" style="fill:#0077c8"/><path id="path66" d="M60.333,56.141c-1.031,1.118-1.29,2.41-1.546,4.385a22.231,22.231,0,0,0-.084,4.732c-.949,3.61,1.118,9.115,1.118,9.115a15.561,15.561,0,0,0,.258,5.5c-.519,1.029-.69.942-.69.942a4.88,4.88,0,0,1,.69,2.752c-.258,1.113-.174,1.2.517,1.891-.345.519.772,2.755.171,5.671.857-.338,2.494.949,4.127,1.637a6.667,6.667,0,0,0,4.9-.427c1.034-.524,2.579.427,2.579.427s.258.686-.171-.6A7.872,7.872,0,0,0,71,89.934a80.052,80.052,0,0,1-.432-9.465c.258-2.313.517-2.4.517-2.4a8.819,8.819,0,0,1-.517-2.668,19.533,19.533,0,0,1,.6-4.73,3.636,3.636,0,0,0-.087-2.057l0,0c-.112-.022-.226-.052-.343-.084-.6-.172-.6-.09-.857.084s-.516,0-1.117-.174-.174-1.545-.174-1.545l-.028-.114-.114-9.634s-2.233.233-3.321.293-.46-.345-1.665-.914a6.688,6.688,0,0,0-3.15-.293" style="fill:#0077c8"/><path id="path68" d="M94.416,103.67c6.648,0,7.57-.487,13.986-1.752-1.031-2.059-1.031-3.84-1.833-6.248s2.981-2.293,5.734-2.4,19.031.229,22.932.343,4.126-.229,7.335,1.6c-1.031,1.6-2.176,4.357-2.864,5.614s-.917,1.836-2.981,1.376l-.457,1.379c-2.867-.114-4.129-.345-2.981-1.719a6.379,6.379,0,0,0,1.376-2.412l-13.529.119,1.95,3.1s-10.091,6.759-28.665,6.759-28.661-6.759-28.661-6.759l1.945-3.1-13.524-.119a6.405,6.405,0,0,0,1.371,2.412c1.148,1.374-.114,1.605-2.976,1.719l-.459-1.379c-2.062.46-2.293-.111-2.981-1.376s-1.834-4.012-2.865-5.614c3.21-1.834,3.441-1.488,7.339-1.6s20.179-.46,22.932-.343,6.536,0,5.731,2.4-.688,4.02-1.717,6.082c6.417,1.259,7.219,1.918,13.87,1.918" style="fill:#fff"/><path id="path70" d="M95.1,65.343a2.919,2.919,0,1,0-2.917-2.917A2.919,2.919,0,0,0,95.1,65.343" style="fill:#ffd100"/><path id="path72" d="M126.266,47.859l2.388-.055-.9-4.084-.91-.191c.09.064.226.3.365,1.068.232,1.255.517,2.467.517,2.467l-1.262.05a.031.031,0,0,1,.02,0l-1.105.059,0-.005-1.61.067a14.922,14.922,0,0,0-1.262-3.783l-.6.191a26.993,26.993,0,0,1,1.373,4.293l1.814-.045c.02.328.079.708.079,1.036a15.491,15.491,0,0,1-.862,2.927c-.258.862-.988,3.393-.988,3.393l1.075-.122s.6-1.637,1.118-3.185a10.541,10.541,0,0,0,.775-3.269l-.042-.792" style="fill:#ffd100"/><path id="path74" d="M104.125,44s2.861-.04,3.544-.02.691-.584,0-.584H104.1c-.686,0-.969.564.023.6" style="fill:#ffd100"/><path id="path76" d="M105.5,46.083s.025.646.025.9.494.541.494.017C106.02,46.5,106,46,106,46" style="fill:#ffd100"/><path id="path78" d="M89.972,34.327c.412-.231.8,1.036.8,1.036l.117.74s-.174.229.171.065a.452.452,0,0,1,.569.164l-.087.032c-.169.172-.34.045-.6.341a3.356,3.356,0,0,1-.559.516s-.3-.039-.3.351-.132.554-.174.29-.044-.38-.387-.509a.96.96,0,0,0-.443-.1l-.029-.115A2.514,2.514,0,0,0,88.71,36.1a8.063,8.063,0,0,1,1.259-1.776" style="fill:#ffd100"/><path id="path80" d="M83.876,69.725c.1.007.2-.6.506-.723a8.35,8.35,0,0,0,2.388-1.615l-.264,0a11.018,11.018,0,0,1-4.238,1.794l-.253-.216c.981-1.086,2.382-1.578,3.5-2.46l.072-.375-.2-.037-1.107.313-1.466.122-.055-.127.609-.37c.112-.229-.331-.119-.47-.278l-.049-.186,1.577-.659.077-.219c-.209-.163-.606.162-.8-.159.149-.26.564-.265.973-.36-.027-.049.261.152.2-.1.373-.094.9-.176.964-.6a7.189,7.189,0,0,0-1.016-.022c-.874-.388.427-.3.3-.711a15.086,15.086,0,0,0-2.278-.022c-.584-.04-1.444.092-1.722-.368a5.819,5.819,0,0,1,1.461-.414.923.923,0,0,1-.606-.343l2.158-.127,1.839-.375c.189-.189-.1-.34-.164-.413-.969-.335-2.057-.832-3.173-1.239-.208-.147-.554-.323-.506-.6.822-.1,1.525.581,2.283.472.817-.067,1.816.621,2.71.377-.022-.126-.072-.285-.253-.253-1.3-.914-2.7-1.64-3.846-2.524-.042-.244.221-.129.266-.209l-.07-.166-1.523-.969.209-.164c1.7.142,2.974,1.145,4.6,1.8.115.044.209-.174.1-.259a13.316,13.316,0,0,1-1.91-1.374c.353-.583-.512-.715-.46-1.212l.157-.012c1.615.911,3.376,2.385,5.122,3.038l.236-.132c-1.257-1.5-2.678-2.462-3.969-3.97.019-.166-.333-.4-.045-.5l1.448.964.018-.338c1.107.658,2.074,1.791,3.107,2.335-.618-.847-.829-1.761-1.52-2.6l-.229-.609c.323-.159-.136-.33-.027-.554.065-.136.2.05.306.045L91.388,55.1l.206-.147-.1-.236c.08-.1-.067-.176-.134-.171-.315-.743-.663-1.227-.914-1.965.281-.186.348.487.628.256-.1-.338.246-.209.323-.428.048-.278-.323-.849-.077-1.222.231-.042.338.264.428.375A7.557,7.557,0,0,0,93.3,54.571c.432.3.258.8.8.929.561-.4.474-1.212.931-1.766a.7.7,0,0,1,.614.412l.422-.248.38.333c.154-.015.343-.45.539-.206a4.373,4.373,0,0,1-.186,1.764l.1.166.107-.057,1.612-3.769.253-.285.144.1-.427,1.577c.144.12.3-.158.415.01-.308.606.308.018.445.2.027.867-.447,1.61-.149,2.216a.83.83,0,0,0,.882-.3,28.5,28.5,0,0,1,1.555-2.445L102,53.2c-.413,1.113-1,2.05-1.292,3.044.154.131.136-.336.392-.308l.167-.241a6.181,6.181,0,0,1,1.642-1.466,2.17,2.17,0,0,1,.69-.616c.333.087.125.41.164.519l.157-.012c.293.161.005.412.089.616.169.032.467-.331.7-.241l.008.241-1,1.294-.112.079-.566.627-.745,1.16.079.2c.825-.762,1.66-.966,2.415-1.714l.479-.313.321-.067c.072.455.469.45.159.773l.3.035.142.136c-.644.36-1.076.994-1.769,1.178-.673.462-1.331.462-1.769,1.021l.092.231.082-.09c.919-.208,1.727-.474,2.75-.7.276-.313.569-.281.905-.363s.211.258.173.45c.1.059.629-.055.517.362l-.218.256.27.216a2.3,2.3,0,0,1-1.152.778,13.966,13.966,0,0,0-2.42.623l-.017.172.593-.027c.947.014,2.114-.554,3.215-.465a2.175,2.175,0,0,0,.445.544l-.239.286c.1.184.616.2.413.511-1.484.115-2.512.179-3.772.341l-.342.273.211.273.151.04a8.5,8.5,0,0,1,3.145.338l-.01.293c-.116.283.249.251.338.4l-.305.275c-.144.383.35.127.261.46l-.711.184-2.936-.189-.3.151c.432.189.882.686,1.289.726.771.7,1.963.919,2.862,1.518.124.169.326.208.276.343l.119.325c-.017,0-.285.072-.37-.075-1.264-.293-2.283-.643-3.5-1l.084.146c.3.251-.184.274-.2.445a8.655,8.655,0,0,0,3.374,1.923c.7.109,1.028.882,1.7.919l.219.37" style="fill:#ffd100"/><path id="path82" d="M123.139,43.213a3.624,3.624,0,0,0,.34-1.6,7.552,7.552,0,0,0-.171-1.657l-.4-.179s.571-.34.519-.569a2.829,2.829,0,0,1-.06-.574,23.744,23.744,0,0,0,3.21.172s.122.012.144.345c.022.308.194.427.2.857.01.721-.4.519-.4,1.493a15.61,15.61,0,0,1-.114,1.829l.343.178s.231-.178.459,1.081.517,2.467.517,2.467l-3.955.169a14.879,14.879,0,0,0-1.259-3.781l.631-.229" style="fill:#ffd9ee"/><path id="path84" d="M123.71,37.308s1.665.06,2.3.06a3.925,3.925,0,0,1-.4-.74c-.057-.231-.4-.405-.517.054s-.688.743-.859.4-.4-.4-.519.228" style="fill:#ffd9ee"/><path id="path86" d="M114.168,49.953s-1.376-1.118-2.668-2.32a25.487,25.487,0,0,1-2.581-2.415,4.245,4.245,0,0,0-2.236-1.118s-.171.356-.29.678a.606.606,0,0,1-.3.383l.219-.422a11.733,11.733,0,0,1-1.232-.52c-.283-.168-.8-.114-.631.227a1.492,1.492,0,0,1,.144.864c0,.368,0,.681.316.718.313.022.742,0,.742,0l.035-.067c.07.057.144.057.373-.087l-.033.022s-.1.241.862.487.87-.119,1.387.492,4.086,5.542,5.49,6.427a9.918,9.918,0,0,0,2.837,1.21l-2.432-4.559" style="fill:#ffd9ee"/><path id="path88" d="M116.63,54.534a10.683,10.683,0,0,0-.487-3.292c-.715.2-1.319.338-1.719-.459s-.43-.659-.373-.862" style="fill:#ffd9ee"/><path id="path90" d="M133.168,49.69a16.71,16.71,0,0,0,.6-3.781.611.611,0,0,1-.6-.472,5.245,5.245,0,0,1-.087-.86s-.472-.127-.343-.3.216.045.084-.132-.516-.474,0-.509.905-.045,1.034-.045.171,0,.514.39.517.3.646,1.118a12.847,12.847,0,0,1-.172,4.725c-.474,1.891-1.247,4.857-1.977,5.59s-1.289.6-1.376-.3-.127-1.334-.127-1.334a1.191,1.191,0,0,0,.73-.988,6.52,6.52,0,0,1,.731-1.635c.261-.559.561-1.16.345-1.456" style="fill:#ffd9ee"/><path id="path92" d="M62.74,42.669a1.478,1.478,0,0,0,.631-.658,3.6,3.6,0,0,0,.087-1.486c-.028-.832-.057-1-.057-1s-.487.228-.517-.231a6.979,6.979,0,0,1,.027-.974s.256-.022.4-.514a2.871,2.871,0,0,1,1.2-1.491,4,4,0,0,0,1-.6,1.25,1.25,0,0,0,.626.773c.457.171,1.118.171,1.232,1.118a3.813,3.813,0,0,1-.085,1.659,6.338,6.338,0,0,0-.315,1.662,4.269,4.269,0,0,0,.2,2.3l-.085-.231a10.591,10.591,0,0,1-.2,1.747c-.172.715.027.944-.542.944s-1.547.027-1.92.059-.487.231-.862-.6a23.892,23.892,0,0,1-.832-2.467" style="fill:#ffd9ee"/><path id="path94" d="M55.491,50.1a1.512,1.512,0,0,1,1.89,1.831c-.231,1.609-.457,2.526-1.319,2.812" style="fill:#ffd9ee"/><path id="path96" d="M55.376,55.023c-1.088-.566-2-2.345-2.409-5.562s-.8-5.269-.343-6.019a10.607,10.607,0,0,0,.745-2.171,5.386,5.386,0,0,1,.517-1.436c.343-.455.917-.745.631-.341a1.926,1.926,0,0,0-.462,1.031c-.169.686-.229,1.086.288.86s1.548,0,1.2.286-.228.231-.228.231.514.34.169.454-.169.06-.169.06.457.171.228.4-.4-.055-.171.109.286.35-.057.522a8.573,8.573,0,0,0-.976,1.031c-.517.631-.689.288-.46,1.2a9.55,9.55,0,0,0,.974,2.116" style="fill:#ffd9ee"/><path id="path98" d="M73.1,49.136a2.073,2.073,0,0,1,.946,1.376,40,40,0,0,0,4.6-2.879c1.118-.9.989-.646,1.635-1.16a3.9,3.9,0,0,1,1.843-.862c.947-.256,1.416-.3,1.8-.428s.733-.082.69.172-.044.131-.044.131.645.47.9.689.561.767.045.429a9.618,9.618,0,0,1-.862-.648s-.087.691-.217.691-.079-.607-.079-.607-.214-.079-.691.177a3.865,3.865,0,0,1-1.331.293s-.132.137.3.35.86.467.688.641-.173.172-.688-.037-.171-.172-.73-.129-1.076-.3-1.508.511-2.837,4.258-4.9,5.252c-.688.291-.772.47-1.545.172a5.1,5.1,0,0,1-2.278-1.593c.082-1.165,0-2.673,1.416-2.541" style="fill:#ffd9ee"/><path id="path100" d="M61.5,91.661a2.055,2.055,0,0,0-.992.683c-.3.469-.6.559-.044.778a1.4,1.4,0,0,0,1.289-.095,4.82,4.82,0,0,0,.989-.512l-.686-.477-.862.52s.042-.6.216-.644a1.224,1.224,0,0,0,.3-.129l-.214-.132" style="fill:#ffd9ee"/><path id="path102" d="M61.669,91.4l1.458.947.385-.3L61.8,91.231l-.127.166" style="fill:#ffd9ee"/><path id="path104" d="M69.447,92.6l.733.435s-.171-.435.39-.469a6.057,6.057,0,0,0,1.031-.174s-1.419-.475-2.151.208" style="fill:#ffd9ee"/><path id="path106" d="M70.57,93.246a6.8,6.8,0,0,0,.989,1.028,1.407,1.407,0,0,0,.516.132,1.73,1.73,0,0,1,.47,0,.361.361,0,0,0,.345-.172.27.27,0,0,0,.346.04c.169-.129.514-.129.126-.432A5.53,5.53,0,0,1,72.5,92.9s-.6.219-.258.559c-.47-.388-1.329-.947-1.672-.219" style="fill:#ffd9ee"/><path id="path108" d="M116.4,91.529l-.3.564.9.512.559-.644a1.538,1.538,0,0,0-1.16-.432" style="fill:#ffd9ee"/><path id="path110" d="M117.775,92.17l-.387.691.646.554.559-.554-.818-.691" style="fill:#ffd9ee"/><path id="path112" d="M116.744,94.58l1.034-.989s-.388-.512-.773-.04-.6.38-.43.082-.218-.862-.39-.946-.084-.172-.385.251-.472.392-.171.777.3.559.646.6a.637.637,0,0,1,.469.261" style="fill:#ffd9ee"/><path id="path114" d="M126.331,93.338c.388.218.517.559.862.6a2.523,2.523,0,0,0,.47.043,1.1,1.1,0,0,1,.387.126.623.623,0,0,0,.3,0s-.084,0,.341-.082.472-.218.472-.218a2.082,2.082,0,0,0-.472-.467c-.256-.174-1.2-.686-1.2-.686a.346.346,0,0,0-.514.119,1.844,1.844,0,0,1-.648.567" style="fill:#ffd9ee"/><path id="path116" d="M81.776,89.507a8.708,8.708,0,0,1,2.778-.944c1.262-.109,1.605.348,2.638.226s4.352-1.026,4.352-1.026c1.722-.805-.914-1.036-.914-1.036l-1.259-.109s-.229-.114-1.262-.8-1.26-.35-2.522.109a2.331,2.331,0,0,1-1.172.264l.253-.373-1.719-.229,2.062-.345-1.945-.231,1.488-.34-1.605-.229,1.259-.348-1.259-.34,1.95-.231L82.6,83.3l3.44-.35s.572-.455-1.719-.455-7-.345-7-.345h-.162c0-.782,0-1.634,0-2.521l.045-.11h34.511l.156.11c0,.926,0,1.821,0,2.635h-.161l-9.632.346,1.605.8-1.148.114,1.493.345-.919.346,1.605.111-1.374.346,2.3.116-2.3.569,2.177-.109-.594.261a2.337,2.337,0,0,1-.554.079,9.357,9.357,0,0,0-2.288.683,1.233,1.233,0,0,1-1.376,0,5,5,0,0,0-2.867-.8c-1.031.114-1.605,1.609-1.605,1.609s-.571.46.114,1.151-.231.452-1.262.683a8.417,8.417,0,0,1-2.176,0c-2.521.119-5.388,1.145-2.752,1.5s7.109.224,8.371.338-.69,1.145-3.326,1.145-5.16-.223-5.388-.685-1.831-1.029-2.176-.46-2.177.691-2.177.691" style="fill:#002d72"/><path id="path118" d="M77.1,71.25a5.753,5.753,0,0,1,1.373-.914c.915-.462,1.26-.69,1.948-.231a6.237,6.237,0,0,0,1.374.686s.919-.577,1.721-1.15.572-.917,1.605-.686a10.063,10.063,0,0,0,4.472-.917c.916-.454,1.374.119,2.176-.914s.8-.922,1.95-1.376.914-1.257,2.407-.805,2.291.231,4.469,1.955,3.555,2.293,4.472,3.207a12.085,12.085,0,0,0,1.836,1.5s.917-.351,1.833-.8,1.26-.8,1.95-.346a3.8,3.8,0,0,0,1.26.569v8.375l-34.74.231-.116-8.375" style="fill:#197352"/><path id="path120" d="M133.814,45.909l.044,3.222-.82-.04.214-3.391" style="fill:#bbbcbc"/><path id="path122" d="M133.915,42.294a.425.425,0,1,0-.66.353v.812l.519-.047-.04-.773a.418.418,0,0,0,.184-.345" style="fill:#bbbcbc"/><path id="path124" d="M84.554,88.563c1.262-.109,1.605.348,2.638.226s4.357-1.026,4.357-1.026c1.719-.805-.919-1.036-.919-1.036l-1.259-.114s-.229-.114-1.262-.8-1.26-.345-2.522.114a1.026,1.026,0,0,1-.2.07c-.007,0-.015.01-.027.01-.057.02-.112.037-.162.057-.012,0-.02.005-.03.005-.049.017-.1.027-.139.042-.005,0-.015,0-.02,0-.044.015-.082.025-.121.037h0c-.037,0-.072.015-.107.02h-.012a.355.355,0,0,1-.087.018s-.012,0-.017,0c-.028,0-.05.005-.075.005h-.079V86.2c-.025,0-.045,0-.068,0,0,0,0,0-.009,0h-.008c-.161-.028-.318-.1-.658-.15a4.012,4.012,0,0,0-2.067.808s-.229.343-1.486,0a6.5,6.5,0,0,0-2.981-.576l-.054.037c0,.1,0,.308,0,.454.047.03.109.067.2.127.487.263,2.234,1.262,4.509,2.566a8.454,8.454,0,0,1,2.681-.889" style="fill:#2c5234"/><path id="path126" d="M111.612,86.613s-1.6.109-1.374-1.036-.914.236-.914.236a7.207,7.207,0,0,1-2.41-1.15c-1.605-1.026-1.033.459-1.033.459a4.377,4.377,0,0,1-.937.378l0,0h-.013l-.072.017-.059.015c-.028,0-.052,0-.08.01a.141.141,0,0,1-.057.008c-.03,0-.057.007-.089.012a.157.157,0,0,0-.048.005,1.165,1.165,0,0,1-.131,0,9.29,9.29,0,0,0-2.293.691,1.237,1.237,0,0,1-1.371,0,4.929,4.929,0,0,0-2.867-.805c-1.031.114-1.6,1.6-1.6,1.6s-.571.46.114,1.151-.231.454-1.259.688a7.127,7.127,0,0,1-2.179,0c-2.521.114-5.388,1.143-2.752,1.488s7.109.231,8.371.34-.69,1.15-3.326,1.15-5.16-.231-5.386-.69-1.836-1.029-2.178-.46-2.177.691-2.177.691l-1.706-.89c3.619,2.08,7.939,4.571,10.746,6.191h.033c5.249-3.036,15.824-9.117,17.146-9.845.092-.05.151-.092.2-.122l-.279-.146" style="fill:#2c5234"/><path id="path128" d="M99.347,74.808s.688-1.036-1.033-1.15-2.176-.572-3.667-.346-2.521.229-2.521-.454.8-.917,1.49-.457.8-.117,1.605.109,1.031.226,1.607-.226.572-.574,1.488-.46,1.148,0-.228-.574-1.491-.231-.8-1.381.458-1.826-.571-1.712-1.033.567-1.493,1.374.917,1.26-.914,1.719a15.78,15.78,0,0,1-4.586.115c-.8,0-.8-.231-1.374.8s-.574.916-2.407,1.152S84.1,74,84.564,74.341s-.112.462-.917.462a15.583,15.583,0,0,0-2.29.228c-.8.115-.231.8-.231.8s1.147.346-.458.46-4.126,1.257-2.178,1.374,3.209.109,3.555.568.8,1.151.8,1.151H77.23V74.112c1.719-.914,2.981-1.711,4.129-1.6s1.948.917,2.636.457a4.24,4.24,0,0,1,1.6-.566s1.607.457,1.835.109.684-1.036.684-1.036a16.864,16.864,0,0,0-1.831-.8c-.457-.114-.691-.46.228-.683s.231-1.15.231-1.15l1.034-.117s.685.917.34,1.49c1.034,0,.919-.345,2.067.46a2.6,2.6,0,0,0,2.407.231s2.519-1.036,2.176-2.181-.8-2.176.346-2.291S96.148,67,96.148,67a6.842,6.842,0,0,1,2.067-.454,5.553,5.553,0,0,0,1.6-.231l1.262.916c-1.836.229-2.065,0-2.407.924a16.421,16.421,0,0,1-.688,1.943c-.232.345.914.345.914.345a1.818,1.818,0,0,0,1.719-.685,12.49,12.49,0,0,1,1.721-1.6s1.374.912,2.177,1.6,2.061,1.374,2.635,1.945a5.436,5.436,0,0,0,2.636,1.6,5.669,5.669,0,0,1,2.059.919l-.111,1.491a3.318,3.318,0,0,0-3.1,0c-1.373.919-1.262.35-2.3.35s-2.291-.35-2.979-.35-2.633.691-3.552.691a4.725,4.725,0,0,1-2.293-.462c-1.257-.46-1.145-.11-1.948.231s-1.49,0-2.638.685a2.28,2.28,0,0,1-1.95.348s.919-.348.114-1.155-.457-1.374-.457-1.374-1.148-1.714,0-1.374,1.262,1.034,2.75,1.265a28.5,28.5,0,0,0,3.555.231h2.41" style="fill:#2c5234"/><path id="path130" d="M93.914,34.819c-.171-.35-.084-.469.045-.772a.688.688,0,0,0,.04-.564c-.04-.174-.388-.388.126-.259a2.356,2.356,0,0,0,.731.08c.3.047.474.261.345.474s0,.346-.345.517-.512.256-.6.388-.345.131-.345.131" style="fill:#63666a"/><path id="path132" d="M95.462,34.432c.216-.082.519,0,.258.126s-.258-.126-.258-.126" style="fill:#63666a"/><path id="path134" d="M93.1,34.514c.129-.087.042-.219.216-.254s.172-.042.127-.3.04-.3-.214-.428-.474-.171-.3.038a.573.573,0,0,1,.129.434l-.3.3s.216.306.345.216" style="fill:#63666a"/><path id="path136" d="M96.836,35.853c0-.222.131-.308-.085-.475s-.39-.427-.087-.256.775.338.517.559-.345.172-.345.172" style="fill:#63666a"/><path id="path138" d="M96.451,35.763c0-.258.256-.472.213-.218s-.213.218-.213.218" style="fill:#63666a"/><path id="path140" d="M90.183,39.181c.171-.1.032-.2.226-.151s.174.042.258.142.14.191-.032.144-.127.019-.248-.02a.645.645,0,0,1-.2-.115" style="fill:#63666a"/><path id="path142" d="M89.947,38.752c-.07-.3-.171-.353-.3-.308s-.28-.127-.119-.127.174-.072.4.154.452.527.258.487-.216-.112-.236-.206" style="fill:#63666a"/><path id="path144" d="M99.5,43.757a1.336,1.336,0,0,1,.174-.9c.172-.333.343-.683.042-.9a.494.494,0,0,1-.258-.554c0-.214.3-.388-.214-.427a2.368,2.368,0,0,0-1.247.26.846.846,0,0,1-.988-.26,2.02,2.02,0,0,1-.43-.644c-.087-.171.042-.435-.045-.735a1.075,1.075,0,0,1,.172-.9,3.782,3.782,0,0,1,.432-.559l.127-.38s-.085-.174.3-.217a2.4,2.4,0,0,0,.862-.347c.256-.127.256-.043.385.126s.169.087.472.174.385.042.343-.087.042-.126.3-.174.514-.126.43-.422-.085-.263-.3-.171-.213,0-.343-.179-.171-.3,0-.43.43-.256.085-.427-.775-.219-.559.132.343.34.171.593.13.644-.129.393.129-.433-.516-.646-.644,0-.3.171.559.343.515.514-.169-.039-.169-.039-.129-.082-.43-.261-.574-.132-.6.179c-.045.467.129.554-.346.68s-.429.045-.514-.253-.3-.519.127-.519.517-.127.3-.3-.216-.176-.045-.435.129-.469.475-.6.343-.345.3-.472-.171-.174-.387-.3-.559-.512-.388-.219a2.683,2.683,0,0,0,.43.564c.085.082-.087.333-.256.119s-.174.095-.345-.077a.827.827,0,0,1-.258-.69c.044-.256-.174-.475.171-.475s.517,0,.517-.253.084-.177-.475-.39-1.031-.3-1.073-.51v-.069a7.3,7.3,0,0,1,5.746,4.387l-.072-.2a5.98,5.98,0,0,0,.045.685,2.41,2.41,0,0,1-.045,1.078c-.124.435-.211.04-.385-.3a5.716,5.716,0,0,0-.686-.9l-.174.121s.43.559.733.992.47.685.47.685l.256-.343a4.6,4.6,0,0,1-.085,1.456,5.5,5.5,0,0,0-.3,1.463,1.8,1.8,0,0,1-.3.947,10.553,10.553,0,0,1-.6,1.16l-.649.455-.472-.371" style="fill:#63666a"/><path id="path146" d="M90.69,44.018a1.386,1.386,0,0,0-.43-.73,2.935,2.935,0,0,1-.691-1.25c-.171-.472-.213-.73-.039-1.031s.3-.345,0-.6-.433-.164-.472-.733c-.043-.554-.3-.686-.472-1.024s-.3-.39-.087-1.123.129-1.416.3-1.711l-.2.427a7.3,7.3,0,0,1,3.744-3.354l.03.187a.768.768,0,0,0,.119.5c.256.477.3.385-.3.559s-.73.166-.643.559a1.347,1.347,0,0,1,0,.648,4.328,4.328,0,0,1,.385-.345c.171-.132.171-.214.34-.39s.261.044.39.087.042-.174.174.434.254,1.242.04,1.029-.04-.3-.388-.346a.585.585,0,0,0-.472.085s.3.3,0,.392-.3-.092-.469.077-.345.05-.606.346a3.356,3.356,0,0,1-.559.516s-.3-.034-.3.346-.132.559-.174.3-.043-.385-.388-.516-.6-.214-.688.263-.04,1.158.171.9.472-.226.271.072c-.275.408-.136.44-.012.609s.087.132.045.39,0,.474.126.474.174.177.388,0a.484.484,0,0,1,.688.04c.256.214.517.045.815.519s.345.38.6.517.043-.132.472.47a1.36,1.36,0,0,0,.947.69c.432.167,1.376.341.946.726s-.387.345-.429.606a.613.613,0,0,1-.13.34,2.63,2.63,0,0,0-1.331-.355,6.4,6.4,0,0,0-1.66.569l-.059-.169" style="fill:#63666a"/><path id="path150" d="M94.545,100.413s16.769-9.656,18.7-10.735a3.274,3.274,0,0,0,1.848-3.52V68.1l-.593-.648a6.332,6.332,0,0,1,.551-10.2l.606-.407-1.518-2.73a9.147,9.147,0,0,1-7.313-6.462H94.545l-.037,3.19h10.141a11.839,11.839,0,0,0,6.411,5.771,9.523,9.523,0,0,0,.83,12.784c-.017,3.992.008,15.787.008,16.763v.147c0,.1,0,.308-.008.454-.045.03-.1.067-.194.122-1.321.728-11.9,6.809-17.146,9.845h-.034c-5.252-3.036-15.828-9.117-17.149-9.845-.09-.05-.152-.092-.2-.122-.008-.146-.008-.355-.008-.454v-.147c0-.976.027-12.771.008-16.763a9.521,9.521,0,0,0,.834-12.784,11.842,11.842,0,0,0,6.412-5.771H94.511l.007-3.19H82.233a8.76,8.76,0,0,1-7.313,6.462l-1.515,2.73.6.407a6.335,6.335,0,0,1,.549,10.2l-.594.648V86.158a3.279,3.279,0,0,0,1.846,3.52c1.933,1.079,18.7,10.735,18.7,10.735h.029" style="fill:#fff"/><path id="path152" d="M87.55,80.777c.516-.73.258-1.07.258-1.07l2.365-.052.514,1.426a1.7,1.7,0,0,1-.819-.214l-2.36.04-.388.382" style="fill:#fff"/><path id="path154" d="M87.592,79.314a6.25,6.25,0,0,1,2.194-.035,1.276,1.276,0,0,0,.042-1.207l-2.32-.169s.469.258.079,1.416" style="fill:#fff"/><path id="path156" d="M88.066,77.685l1.416.126a.869.869,0,0,0,.174-.643l-1.547-.087s.082.129-.043.6" style="fill:#fff"/><path id="path158" d="M90.131,78.671l.213,1.167.733-.049-.69-1.118h-.256" style="fill:#fff"/><path id="path160" d="M87.122,80.522v-.863l-2.839-.38s.258.341,0,1.546l2.839-.3" style="fill:#fff"/><path id="path162" d="M84.929,79.19a2.159,2.159,0,0,0,.258-1.933l2.579.082s-.3.042-.427.733l-.132.688-2.278.43" style="fill:#fff"/><path id="path164" d="M87.378,77.257c-.988-.213-2.151-.345-2.151-.345l.045-.773,1.8.132a1.917,1.917,0,0,1,.3.986" style="fill:#fff"/><path id="path166" d="M85.1,78.671l-1.677-.129a2.4,2.4,0,0,0-.216-1.5l1.893.213" style="fill:#fff"/><path id="path168" d="M84.2,79.279l-1.332-.054c.214,1.083.3,1.167,0,1.726l1.332-.213v.6" style="fill:#fff"/><path id="path170" d="M104.592,81.856a7.566,7.566,0,0,1-1.461-4.353l-1.317.569v4.293l3.468-.651" style="fill:#fff"/><path id="path172" d="M101.325,82.288c-.487-1.406-.8-3.212-.373-4.216a21.636,21.636,0,0,0-2.092,3.61l2.467.6" style="fill:#fff"/><path id="path174" d="M122.9,38.642s.3-.683.385-.9.087-.433.562-.383,2.146.042,2.146.042a2.3,2.3,0,0,1,.649.341,2.17,2.17,0,0,1,.424.9c.085.219,0,.559-.211.388a1.2,1.2,0,0,0-.516-.209l-2.8-.131-.644-.043" style="fill:#fff"/><path id="path176" d="M106.3,43.328,105.95,25.4h-.342l-.346,17.929" style="fill:#fff"/><path id="path178" d="M54.574,44.306s4.184,47.978,4.3,48.669.633.46.633.46L54.974,43.906" style="fill:#fff"/><path id="path180" d="M54.316,41.271l-.129-1.332.345-.435.213,1.724" style="fill:#fff"/><path id="path182" d="M54.445,39.244l-.258-2.276-.388.214.3,2.235" style="fill:#fff"/><path id="path184" d="M94.535,99.772c2.01-1.165,16.647-9.587,18.438-10.578a2.679,2.679,0,0,0,1.563-2.894v-.142c0-1.08-.013-15.854,0-17.839l-.424-.467a6.887,6.887,0,0,1,.638-11.067s.075-.052.171-.12l-1.132-2.037a9.7,9.7,0,0,1-7.378-6.419H94.543l-.02,2.077h10.468a11.289,11.289,0,0,0,7.033,6.071,8.96,8.96,0,0,0,.425,12.8c-.02,4.062.008,16.021.008,17v.147a3.39,3.39,0,0,1-.04.735,1.522,1.522,0,0,1-.45.335c-1.408.773-12.5,7.153-17.424,10h-.02C89.6,94.52,78.5,88.148,77.1,87.375a1.622,1.622,0,0,1-.455-.335,3.991,3.991,0,0,1-.037-.735v-.147c0-.976.025-12.935.005-17a8.961,8.961,0,0,0,.422-12.8,11.284,11.284,0,0,0,7.033-6.071H94.493l.022-2.077H82.653a9.261,9.261,0,0,1-7.378,6.419l-1.133,2.037c.1.068.174.12.172.12a6.884,6.884,0,0,1,.638,11.067l-.425.467c.01,1.985,0,16.759,0,17.839V86.3a2.681,2.681,0,0,0,1.562,2.894c1.792.991,16.429,9.413,18.438,10.578h.013" style="fill:#ffd90f"/><path id="path186" d="M91.028,44.373a2.47,2.47,0,0,0-1.831-.762c-.48,0-.887.345-1.461.531.07.068.149.147.241.231.561.527.611,1.459,1.642,1.66,0,0-.035,0-.1.007a20.484,20.484,0,0,0,3.15-.007c-1.034-.2-1.078-1.133-1.642-1.66" style="fill:#f2a900"/><path id="path188" d="M97.129,44.373a2.462,2.462,0,0,0-1.826-.762c-.479,0-.889.345-1.463.531.069.068.151.147.243.231.562.527.611,1.459,1.642,1.66,0,0-.037,0-.1.007a20.474,20.474,0,0,0,3.15-.007c-1.033-.2-1.078-1.133-1.644-1.66" style="fill:#ffd90f"/><path id="path190" d="M101.407,43.611c-.48,0-.887.345-1.463.531.072.068.149.147.243.231.561.527.611,1.459,1.642,1.66,0,0-.037,0-.1.007,1.16.072,2.032.214,2.032-.785s-1.105-1.572-2.352-1.639" style="fill:#f2a900"/><path id="path192" d="M91.207,18.678a1.018,1.018,0,0,0-1.2.741,1.923,1.923,0,0,1,1.147-.11c.115.043.229.051.333.083l.122-.412-.395-.3" style="fill:#f2a900"/><path id="path194" d="M93.9,31.982a2.535,2.535,0,0,1-.171-.632l-.467.038a2.176,2.176,0,0,1,.122.594c0,.388.079.641-.373.768s-.6.218-.666.648c.194-.194.343-.474.539-.3a1.688,1.688,0,0,0,.472.278s-.3-.387.13-.519a4.887,4.887,0,0,1,1.182-.109s-.542-.249-.626-.423a3.419,3.419,0,0,1-.144-.345" style="fill:#f2a900"/><path id="path196" d="M96.938,32.091s-.058.231-.172-.69a1.241,1.241,0,0,0-.037-.232l-.41.061a3.071,3.071,0,0,0,.1.69c.042.171-.251.231-.422.445,0,0,.668-.085.6.241a.894.894,0,0,0,.065.551,1.427,1.427,0,0,1,.3-.213,3.421,3.421,0,0,1,.559.129.848.848,0,0,1,.492.32.707.707,0,0,0-.385-.857,4.408,4.408,0,0,1-.666-.365" style="fill:#f2a900"/><path id="path198" d="M123.022,36.908a3.674,3.674,0,0,1,2.064-.685c.46.109,1.836.571,1.836.571s.1-.616-.231-.743c-1.319-.516-2.176-.747-2.924-.288s-.119.219-.745.46c-.229.084-.214.817,0,.685" style="fill:#f2a900"/><path id="path200" d="M124.311,51.844a15.491,15.491,0,0,0,.862-2.927c0-.34-.062-.713-.087-1.033l-1.806.042a26.963,26.963,0,0,0-1.376-4.293l-.047-.087c-.969.179-2.882.6-3.264,1.245a4.621,4.621,0,0,1-.6,1.587,4.585,4.585,0,0,0-.6,1.163s.688,2.236-.169,2.834a11.339,11.339,0,0,1-1.118.728,10.329,10.329,0,0,1-.516,5.374l-.042.047s.558,1.113,1.075.685.085-.822.733-1.892,3-4.383,3-4.383.905,2.45.517,3.486-.517,1.545-.169,1.759a3.875,3.875,0,0,1,2.278-.905c.13-.027.241-.044.343-.062.167-.569.765-2.638.989-3.373" style="fill:#f2a900"/><path id="path202" d="M132.74,49.441a3.966,3.966,0,0,1-1.331-2.283,10.536,10.536,0,0,0-.86-1.98c-.261-.663-1.91-1.135-2.752-1.416l-.043-.042.9,4.084-2.385.06h-.034a2.672,2.672,0,0,1,.057.8,10.413,10.413,0,0,1-.775,3.265c-.475,1.42-1.016,2.916-1.106,3.145.2-.005.435-.005.805-.005a7.914,7.914,0,0,1,2.494.258c.646.214.857.258.857.258s.087-.087.346-.385,1.5-.519,1.676.517l.256.683a13.951,13.951,0,0,1,.261-2.581c.256-1.158.082.089.385,0s.43-.6.644-1.282.6-.862.862-1.726.429-.905-.259-1.372" style="fill:#f2a900"/><path id="path204" d="M130.162,72.137s.084-.082-.261.085.087-.512.087-.512l-.432.427V71.71l-.256.6v-.862l-.43.69v-.772l-.345.422.258-3.18v-.084s.171-.085.517-2.666a61.613,61.613,0,0,0,.516-7.738,4.841,4.841,0,0,0-2.581-1.2c-1.033-.172-.6-.343-2.062-.258a16.715,16.715,0,0,0-3.44.432,3.457,3.457,0,0,0-1.545.944,9.183,9.183,0,0,1-.6,1.977c-.432.944-.432,2.236-.772,5.326a19.547,19.547,0,0,0,.171,6.2c.256,1.714-.171,2.064-.517,4.894s-.516,5-.862,6.881A9.6,9.6,0,0,0,117.351,87c.171,1.208-.346,1.806-.862,2.753a6.319,6.319,0,0,0-1.031,2.834c.429-.939,1.286-1.371,2.064-.688s1.63,1.3,1.63,1.3l5.592.34a3.015,3.015,0,0,0,1.458-.773c.775-.685.859-.6,1.376-.087a1.508,1.508,0,0,0,1.374.254,3.619,3.619,0,0,1,1.118-.852c.606-.261-.43-5.076-.43-7.913s.258-10.063.519-11.785v-.251" style="fill:#f2a900"/><path id="path206" d="M67.07,35.79a1.112,1.112,0,0,0-.256-.372c-.144-.114-.087.2-.316-.023s-.285.11-.372,0c-.3-.4-.343,0-.542-.231s-.231.2-.517.058-.086.141-.4.029-.2.112-.482.08-.258.064-.432.064a.444.444,0,0,0-.286.11.893.893,0,0,0-.372.082l-.085.285-.06.46a3.561,3.561,0,0,1,2.179-.745,8.144,8.144,0,0,1,1.948.2" style="fill:#f2a900"/><path id="path208" d="M60.248,54.909a4.926,4.926,0,0,0,1.493-.166,2.4,2.4,0,0,1,2.176,0,8.9,8.9,0,0,0,3.322.683c.971,0,.454.288,1.259-.288s1.717-.286,1.2.628c.742.691.685,1.148.171,1.493,0,0,1.948,7.622,1.948,9.053a9.555,9.555,0,0,0-3.267.462l-.117-9.634s-2.236.233-3.324.288-.457-.34-1.659-.914a6.741,6.741,0,0,0-3.153-.288s.343-.338.057-1.317" style="fill:#f2a900"/><path id="path210" d="M72.918,92.6c.916-.313.658-.28.889-.509s.37-.378.37-.378l.313.52.345.6.2-.166.03-.147.171-.114.144.2.117-.114.228.231-.027.174.057.114-.256.286-.141-.171-.231.255.427.6a2.518,2.518,0,0,0,1.088-1.118c.256-.691.43-1.4-.226-1.578s-1.091-.487-1.349.057a3.3,3.3,0,0,1-.571.862l-.346-.491a3.419,3.419,0,0,1,.718-1.113,1.771,1.771,0,0,1,1.434,0c.454.168,1.314.4,1.229,1.2a2.677,2.677,0,0,1-.74,2.007c-.574.4-.919.6-.919.6l.146.146s.145-.35,1.061-.318,1.4-.027,1.891.435.767.509.569,1.342-.512,1.545-.915,1.525-1.346-.062-1.346-.062l-.169-.46s.8.063,1.086.063.427-.028.6-.545.346-.981.06-1.207-.544-.715-1.289-.574-1.287.291-1.287.291l.2.656.343-.028v-.141l.231-.087.144.114L77.3,95.5l.147.373-.147.082.06.286-.2.059-.115-.146-.228.146.514,1.113a4.733,4.733,0,0,0-1.833.231c-.37.284-.457.284-.457.284a5.77,5.77,0,0,0-.457-2,18.847,18.847,0,0,0-1.176-2.638,3.3,3.3,0,0,1-.486-.691" style="fill:#f2a900"/><path id="path212" d="M77.362,92.833a.815.815,0,0,1,.6.085c.231.166.06.256.288.141s.512-.6.283-.027-.2.979.023.857.432-.2.4.057-.03.2-.372.288-.569-.173-.972-.057-1.719.48-1.719.48l-.112-.224,1.059-.743.429-.631.087-.231" style="fill:#f2a900"/><path id="path214" d="M96.54,64.96a2.922,2.922,0,1,0-1.9.338" style="fill:#f2a900"/><path id="path216" d="M82.693,81.17l.472.857H89.7a3.272,3.272,0,0,0,.944-.857,53.161,53.161,0,0,1-6.623.209A4.161,4.161,0,0,1,82.7,81.17" style="fill:#d18644"/><path id="path218" d="M100.721,83.227h3.7a.749.749,0,0,0,.285-.89,40.531,40.531,0,0,1-4.24.2s-.087.233.256.688" style="fill:#d18644"/><path id="path220" d="M93.316,61.8c.149-.3.231-.335.583-.318s.383-.126.621-.114a.275.275,0,0,1,.269.209s-.162-.2-.405.015a1.026,1.026,0,0,1-.81.181l-.293.149.035-.122" style="fill:#d18644"/><path id="path222" d="M96.948,61.8c-.149-.3-.229-.335-.582-.318s-.382-.126-.618-.114a.275.275,0,0,0-.274.209.269.269,0,0,1,.405.015,1.034,1.034,0,0,0,.813.181l.293.149L96.95,61.8" style="fill:#d18644"/><path id="path224" d="M94.545,62.844a2.026,2.026,0,0,0,.6.037c.171-.037.345-.037.457-.06s.226,0,.03.082a1.291,1.291,0,0,1-.462.172,1.148,1.148,0,0,1-.457-.112c-.112-.06-.172-.171-.085-.144" style="fill:#d18644"/><path id="path226" d="M94.314,63.534c.46-.027.4,0,.716-.027a7.8,7.8,0,0,1,.8,0l.072.132a2.045,2.045,0,0,1-.3.01,7.113,7.113,0,0,0-.773,0,2.886,2.886,0,0,1-.569-.005l.05-.1" style="fill:#d18644"/><path id="path228" d="M95.606,64.056c-.258,0-.487-.122-.688-.122s-.373.206-.144.174" style="fill:#d18644"/><path id="path230" d="M94.446,62.508l-.574.567c-.084.092-.03.062-.03.35s-.171.338-.171.338a4.693,4.693,0,0,1,.69-1.232" style="fill:#d18644"/><path id="path232" d="M95.705,62.508l.572.567c.084.092.03.062.03.35s.171.338.171.338a4.73,4.73,0,0,0-.688-1.232" style="fill:#d18644"/><path id="path234" d="M123.022,36.223c.574-.351,0,0,.745-.46s1.605-.228,2.924.288l-.057-.079c-.129-.512-.261-.512-.775-.9a2.169,2.169,0,0,0-1.461-.385c-.474,0-.819.385-1.162.772a1.093,1.093,0,0,0-.3.78l.082-.017" style="fill:#d18644"/><path id="path236" d="M126.771,38.95s-.221-.089-.05.194a1.053,1.053,0,0,1,.2.862c-.1.716-.4.519-.4,1.488a15.754,15.754,0,0,1-.114,1.834l.343.178.231.078s-.132-.214.472.049c.258.109.8.264,1.376.467l.085-.04s-.043,0-.085-.131a.345.345,0,0,1,.211-.383c.172-.087.085-.3-.124-.944s-.387-.564-.817-.946-.3-.517-.346-1.5a5.413,5.413,0,0,0-.6-2.236c-.345-.817-.218-1.076-.218-1.076l-.013-.042s-1.374-.46-1.836-.571a3.677,3.677,0,0,0-2.061.685l-.085.057a.681.681,0,0,1-.343.435c-.3.167-.43.47-.733.982a1.783,1.783,0,0,0-.042,1.676c.258.649-.129.559-.643.82s-.646,1.2-.947,1.545.3.388.085.815-.214.3-.04.649l.007.027a17.377,17.377,0,0,1,2.142-.46l.079-.012.634-.229a3.661,3.661,0,0,0,.34-1.607,7.63,7.63,0,0,0-.171-1.662l-.4-.174s.571-.34.519-.569a2.829,2.829,0,0,1-.06-.574v.015c-.472.038-.516.038-.516.038s.1-.276.258-.644.258-.688.517-.641l.084-.092c.114-.626.345-.566.519-.223s.743.054.862-.4.458-.285.515-.054a3.959,3.959,0,0,0,.4.74l.072.032s.169-.179.516.254a1.916,1.916,0,0,1,.559,1.078c.125.6-.474.089-.474.089l.092.129" style="fill:#d18644"/><path id="path238" d="M70.282,44.51a17.7,17.7,0,0,1-1.779-.435,2.254,2.254,0,0,1-1.316-1l-.087-.087.087.226a4.154,4.154,0,0,1-.2-2.288,6.373,6.373,0,0,1,.316-1.662,3.77,3.77,0,0,0,.087-1.664c-.115-.942-.775-.942-1.232-1.113a1.266,1.266,0,0,1-.631-.773,3.787,3.787,0,0,1-1,.594,2.9,2.9,0,0,0-1.2,1.5c-.142.484-.4.514-.4.514a6.149,6.149,0,0,0-.025.969c.025.459.514.236.514.236s.025.171.057,1a3.628,3.628,0,0,1-.084,1.486,1.463,1.463,0,0,1-.634.658v-.025a8.06,8.06,0,0,1-2.087.858,9.009,9.009,0,0,0-1.348.317c.658-1.321.658-2.35,1.433-3.179a10.261,10.261,0,0,1,1.086-1.068,6.949,6.949,0,0,1-.055-1.518c.082-.487-.027-.572.082-.885s.03-.4.484-.574a4.4,4.4,0,0,1,.487-.174,1.464,1.464,0,0,1,.659-.454,4.23,4.23,0,0,1,1.259-.318,7.4,7.4,0,0,1,1.322.059,1.558,1.558,0,0,1,1.344.515,4.361,4.361,0,0,1,.742,3.408A6.04,6.04,0,0,1,69.1,41.7c.229.658-.231.427.286.6.129.042.206.308.256.321.144.015.052-.241.373.568a3.985,3.985,0,0,1,.4,1.317" style="fill:#d18644"/><path id="path240" d="M66.814,35.418c-.144-.114-.087.2-.316-.023s-.285.11-.372,0c-.3-.4-.343,0-.542-.231s-.231.2-.517.058-.089.141-.4.029-.2.112-.482.08-.256.064-.432.064a.441.441,0,0,0-.283.11.9.9,0,0,0-.373.082l.03-.06a9.363,9.363,0,0,1,.517-.944,1.283,1.283,0,0,1,1.232-.6c.77,0,1.118-.087,1.629.653s.316.723.316.723v.055" style="fill:#d18644"/><path id="path242" d="M55.786,35.743l.033-.019h-.905c-.6,0-.643-.174-.643-.174a2.175,2.175,0,0,0-.39-.731,3.738,3.738,0,0,0-.343-1.036,1.809,1.809,0,0,0-.042-1.16c.474-.082.688-.467.9-.944s.129-.3-.3-.339a1.148,1.148,0,0,0-1.459.982,1.581,1.581,0,0,0-.559,1.593c-.255.773-.042.862.085,1.036a.688.688,0,0,0,.037.641,1.274,1.274,0,0,0,0,1.289.31.31,0,0,0,.065.089.259.259,0,0,0-.015.043,4.249,4.249,0,0,0-.3,1.373l.084-.052c.02.1.112.157.259.142a8.076,8.076,0,0,0,1.5-.435l.516-.295a3.808,3.808,0,0,0,1.545-1.59c.072-.219.105-.4-.074-.413" style="fill:#d18644"/><path id="path244" d="M60.119,92.818a4.746,4.746,0,0,0,.946.346c.773.174,1.59-.731,1.59-.731l-.516-.519-.862.475s-.127-.3.131-.433a1.955,1.955,0,0,0,.3-.171l-.172-.174.214-.256,1.458.947.3-.127.345.174-1.587,1.284-1.379.264-.253-.05-.905-.641.259-.427" style="fill:#d18644"/><path id="path246" d="M69.107,92.652s1.418,1.8,2.623,2.057a2.727,2.727,0,0,0,1.8-.085l-.085-.432-.387.082s-.172.264-.346.221a.417.417,0,0,1-.213-.089s-.042.174-.3.132-.3.082-.683-.3-.9-.941-.9-.941-.042-.39.343-.35a1.737,1.737,0,0,1,1.073.35c.343.3.169.122.169.122s-.211-.209-.08-.293a3.594,3.594,0,0,1,.341-.219l-.125-.174-.775-.34s-1.16-.04-1.331.643l-.862-.559-.259.174" style="fill:#d18644"/><path id="path248" d="M125.345,93.42a5.327,5.327,0,0,0,1.374.986,2.252,2.252,0,0,0,1.5.263c.561-.089,1.073-.174,1.073-.174l-.127-.564-.643.214a.408.408,0,0,1-.517.089c-.3-.173-.129.085-.646-.173a4.046,4.046,0,0,1-.991-.773l.946-.773s.219-.648-.772.082a8.451,8.451,0,0,1-1.2.818" style="fill:#d18644"/><path id="path250" d="M118.593,92.771l-.559.606-.6-.648.342-.559-.3-.209-.388.636-1.115-.337-.082.213s.946.43.815.815a6.029,6.029,0,0,0-.169.609,2.177,2.177,0,0,0,.472-.346c.211-.221.427-.263.559-.131a1.164,1.164,0,0,0,.3.213l-.9.991-.433-.3s-.385,0-.514-.127a5.148,5.148,0,0,1-.385-.522l-.087-.3.86-1.761a2.869,2.869,0,0,0-.86.78c-.216.383-.817,1.374-.472,1.67s.857.988,1.332.988.645-.084,1.289-.559a12.754,12.754,0,0,0,1.458-1.373l-.559-.351" style="fill:#d18644"/><path id="path252" d="M96.722,31.158c-.092-.68-.04-.273.33-.324.4-.053.283-.858.283-.858s1.2-.177,1.719-.177.341-.623.972-.8.459-.395.459-.395.114-.18.688-.115.631-.23.631-.23v-.4l.629-.115.057-.511.917-.059.114-.348.745-.109-.057-.345.229-.115-.229-.455h.688l.057-.629.514-.171-.228-.345.4-.115-.174-.575.345-.109V23.5l.517-.225-.06-.4.629-.058-.112-.4v-.062a1.683,1.683,0,0,0,.974-.858,1.712,1.712,0,0,1,.8-.856l-.231-.284.457-.233.06-.4a12.074,12.074,0,0,0,1.95-.575,2.112,2.112,0,0,0,1.262-1.372s-2.35.4-5.333.741a51.255,51.255,0,0,0-6.879,1.035c-1.317.4-.229,1.487-1.891,3.207a1.809,1.809,0,0,1-2.807-.289,20.041,20.041,0,0,1-.917-2.234h.457l-.457-.858.457-.23s-.4-.23-1.316-.69a1.869,1.869,0,0,0-2.179.23,1.018,1.018,0,0,0-1.2.749,1.906,1.906,0,0,1,1.147-.115c.458.171.858-.174,1.031,2.407s-1.09,2.121-2.521,2.065c-1.2-.174-1.493-.519-1.779-1.49s.06-1.49-1.147-2.351-5.1-1.546-7.391-1.947-5.446-1.26-5.446-1.26a1.479,1.479,0,0,0,.743.915,6.167,6.167,0,0,1,1.086.917,6.318,6.318,0,0,1,.4.57,1.848,1.848,0,0,0,.914.69s.229.4.46.746a16.123,16.123,0,0,0,1.662,1.776,2.09,2.09,0,0,0,1.145.34c-.286,0-.4.174-.457.519a2.227,2.227,0,0,0,.916.575l-.114.4.743.168-.112.573,1.034.23-.232.339.977.174-.229.345.746.166-.174.345,1.033.115-.174.46h.974l-.229.4.8.115a11.414,11.414,0,0,0,2.639,1.311c1.088.294.568.634,1.945.179s.919-.345.919-.345.743.23.571.57.169.631.514,1.377.172.519.572.519c.171,0,.216.006.266.131l.487.03a1.148,1.148,0,0,1-.008-.335c.06-.4.286-.46.286-.46l.514.34s-.114-.34-.286-1.142-.059-.974-.059-.974l.462.11a3.67,3.67,0,0,0,1.148,1.725c.454.324.476.423.494.607l.432-.109" style="fill:#b3875a"/><path id="path254" d="M120.958,52.79a1.065,1.065,0,0,0,.089-.9,1.637,1.637,0,0,1,0-1.029c.127-.477.171-.174.085-1.031s-.043-.432-.388-.648-.517-.174-.258-.86.646-.477.387-1.249-.6-1.073-.474-1.2-.129.467-.214,1.2,0,.862-.089,1.634-.214,1.25-.085,1.414a5.171,5.171,0,0,1,.345.9l.559,1.891" style="fill:#b3875a"/><path id="path256" d="M122.592,90.453c.688-4.466,1.374-8.339,1.635-9.633A23.585,23.585,0,0,0,125,76.008a18.507,18.507,0,0,1,.515-4.561,28.864,28.864,0,0,0,.6-6.1,29.31,29.31,0,0,0-.516-4.907s.427-.427.6.517.346,1.118.517.6.345-.857.6-.255.606.6.606.6l.256-.174.43.427.6-.6.517-.857a6.845,6.845,0,0,1-.258,3.006c-.515,1.55-.515,1.2-.515,2.323a9.182,9.182,0,0,0,.087,1.553s-.258.159-.345-.947-.258-1.98-.517.256-1.118,4.385-.772,2.062.6-5.16,0-4.643-.862-.082-.947,2.064.174,2.062-.171,3.349,0,1.722-.43,4.221-.688,2.407-.775,4.037.258,2.573.087,4.727-.258,2.407-.688,2.581-.254,0-.428,2.062-.429,3.528-.429,3.528l-1.034-.085" style="fill:#b3875a"/><path id="path258" d="M129.471,72.483s-.688,4.3-.946,7.991-.087,6.191-.517,7.91a9.322,9.322,0,0,0-.085,3.525s-.087.688-.345-.683-1.118-3.182-.77-1.374.512,2.663.512,2.663.606.691,1.118.517.256-.261.685-.944.691-.089.259-2.412.087-5.93.258-7.483-.087-1.714-.087-4.471-.084-5.244-.084-5.244" style="fill:#b3875a"/><path id="path260" d="M121.474,90.453a30.92,30.92,0,0,0,1.464-6.62c.171-1.719.171-3.955-.261-1.635s-.86,4.3-1.118,6.278-.345,2.658-.087,1.977" style="fill:#b3875a"/><path id="path262" d="M122.505,79.7a7.626,7.626,0,0,1,.862-3.18,13.639,13.639,0,0,0,.77-3.441,38.305,38.305,0,0,0,.773-4.553,8.1,8.1,0,0,1,.261-1.8s-.087.43-.775,2.922a48.147,48.147,0,0,0-1.29,4.9,11.349,11.349,0,0,1-.772,3.183c-.517,1.289-.258,1.125-.343,2.236s.343.516.514-.261" style="fill:#b3875a"/><path id="path264" d="M117.259,55.279a4.923,4.923,0,0,0-.172-2.489c-.258-1.036-.43-1.548-.43-1.548s.085.085.346,0,.256-.26.6.512.258.78.084,1.553-.429,1.972-.429,1.972" style="fill:#b3875a"/><path id="path266" d="M118.55,52.7c.346-.35.433-.169.433-1.287s-.259-1.207-.172-1.726-.087-.855-.261.092-.084,1.115-.171,1.716-.171,1.463-.171,1.463l.342-.258" style="fill:#b3875a"/><path id="path268" d="M115.577,56.442s-.512-1.737-.631-2.477l1.518.5a3.855,3.855,0,0,1-.887,1.978" style="fill:#b3875a"/><path id="path270" d="M125.131,48.785s-.089,1.292-1.289,1.332a17.014,17.014,0,0,1-1.764,0,14.361,14.361,0,0,0,1.59.388,1.872,1.872,0,0,0,1.031-.125l.432-1.331" style="fill:#b3875a"/><path id="path272" d="M130.393,49.737a1.42,1.42,0,0,1-.1.345,1.822,1.822,0,0,1-.514.731s.472.472.6,2.32-.171,1.761-.171,1.761.345.517.256.39a11.4,11.4,0,0,1,.261-2.536,10.846,10.846,0,0,1,.472-1.975c.216-.519.559-.519.73-.649s.045-.25-.385-.079-.43-.214-.43-.214" style="fill:#b3875a"/><path id="path274" d="M131.041,49.253l-.025-.117-.171-.818a14.2,14.2,0,0,1-.472-1.763c-.172-.515-.646-1.031-.43-.254s.085,1.459.3,1.844a2.7,2.7,0,0,1,.228,1.2" style="fill:#b3875a"/><path id="path276" d="M93.728,31.35a1.269,1.269,0,0,1,0-.289c.06-.395.286-.457.286-.457l.516.348s-.114-.348-.285-1.148-.06-.976-.06-.976a2.264,2.264,0,0,0-.517-1.489c-.571-.69-1.89-1.431-1.95-.284a11.512,11.512,0,0,1-.2,1.792c.208.1.489.273.377.5-.174.345.172.632.517,1.375s.171.516.574.516a.29.29,0,0,1,.275.158l.465-.037" style="fill:#ffe8b8"/><path id="path278" d="M96.729,31.169a5.514,5.514,0,0,0-.251-.8c-.286-.749-.345-.973-.06-1.2a1.06,1.06,0,0,0,.346-.4,11.051,11.051,0,0,1-.346-1.61c-.111-.856-1.373-1.027-1.545-.573a3.908,3.908,0,0,0-.231,2.351A3.661,3.661,0,0,0,95.79,30.66c.4.289.5.418.529.57l.41-.059" style="fill:#ffe8b8"/><path id="path280" d="M95.1,22.46s-.4-.11-.457.971a2.485,2.485,0,0,1-1.322,2.356l-1.374.171a4.851,4.851,0,0,1-.231-1.032c-.054-.57.4-.629-1.316-.455s-2.293.115-4.184-1.955-1.259-2.292-3.9-3.035c0,0-2.976-.8-4.812-1.257S74.7,17.7,73.9,16.734c0,0,3.15.856,5.446,1.254s6.191,1.091,7.395,1.953.855,1.374,1.146,2.345.569,1.322,1.773,1.495c1.431.057,2.7.516,2.524-2.064-.131-1.931-.387-2.226-.7-2.325L91.6,19l-.4-.319a1.864,1.864,0,0,1,2.176-.23c.917.46,1.319.687,1.319.687l-.457.231.457.858h-.457a20.6,20.6,0,0,0,.917,2.236,1.81,1.81,0,0,0,2.807.286c1.665-1.717.574-2.8,1.893-3.207a51.085,51.085,0,0,1,6.876-1.035c2.979-.345,5.332-.741,5.332-.741-2.122.856-7.225,1.833-8.541,2.236s-1.6.4-2.922,2.351-4.012,2.517-4.531,1.771a2.39,2.39,0,0,1-.517-1.2" style="fill:#ffe8b8"/><path id="path282" d="M68.29,43.976s-.087.857-.259,1.975-.646.986-1.418,1.036c-.348.012-1.891.012-3.093.082-.778.045-.731-.132-1.118-1.078a21.134,21.134,0,0,1-.778-2.788l1.118-.559s.731,2.234.947,2.666,0,.385.859.343,1.374.042,1.717,0,.345.338.561-.688a14.324,14.324,0,0,0,.259-1.98,4.065,4.065,0,0,0,1.2.991" style="fill:#9bd9f4"/><path id="path284" d="M124.4,40.64c.229-.231.286-.231.631-.231s.4.089.572.025.4.2.4.2a1.487,1.487,0,0,0-.517.119c-.283.109-.343-.065-.574-.065a3.32,3.32,0,0,1-.514-.054" style="fill:#ff3515"/><path id="path286" d="M132.137,69.73v1.548c0,.772-.085.859-.085.859l-.258-.69-.345.862v-.517l-.517.773-.172-.689-.427.689-.171-.428s.084-.082-.259.085.085-.517.085-.517l-.427.432v-.432l-.259.6v-.857l-.43.69V71.36l-.345.432.258-3.185,1.248.688s.73.733,1.157.733a2.292,2.292,0,0,0,.947-.3" style="fill:#ff3515"/><path id="path288" d="M118.55,44.706l-.6.857a5.873,5.873,0,0,1-.946.6c-.517.255-.517.772-.688,1.808s-.686.512-1.372,1.029a2.451,2.451,0,0,0-.862,1.028,2.049,2.049,0,0,0,.517,1.034c.517.69,1.632.089,1.632.089l1.031-.691a2.657,2.657,0,0,0,.345-1.545,6.8,6.8,0,0,0-.255-1.371l.772-1.292a3.712,3.712,0,0,0,.427-1.548" style="fill:#ff3515"/><path id="path290" d="M115.542,56.529s.559,1.118,1.076.69.084-.822.733-1.89,3-4.385,3-4.385.9,2.445.517,3.486-.517,1.54-.169,1.758l-.517,1.844a8.937,8.937,0,0,1-.6,1.977c-.432.949-.432,2.236-.773,5.334a19.481,19.481,0,0,0,.172,6.188c.258,1.719-.172,2.064-.517,4.9s-.517,5-.862,6.881a9.623,9.623,0,0,0-.256,3.7c.171,1.2-.345,1.8-.862,2.75a6.341,6.341,0,0,0-1.033,2.839l-.286.654s-2.132-.04-3.232.032a3.979,3.979,0,0,1,.857-.773,1.47,1.47,0,0,0,.86-1.118,3.31,3.31,0,0,1,.946-1.634,5.705,5.705,0,0,0,.947-3.523c.084-1.634.342-8.513.427-11.1.087-2.571-.172-13.755,0-14.963s0-1.461.087-1.885A3.008,3.008,0,0,0,115.716,57" style="fill:#ff3515"/><path id="path292" d="M131.665,70.115c.775-.256.6-.171.516-4.044a69.4,69.4,0,0,0-1.289-9.714l-.258-.514.258.686a14.029,14.029,0,0,1,.258-2.576c.259-1.163.087.084.388,0l-.129-.048.129,1.334c.087.9.646,1.034,1.376.3l.122-.221s1.461,12.552,1.632,13.5-.6.171-.517,1.033.862,1.374.09,1.978-1.376.685-1.463,2.144.258,13.414.516,15.394.259,2.236.947,2.927a4.755,4.755,0,0,1,.946,1.289c-1.493-.114-6.106-.089-6.106-.089l-.231-.46,1.26-.822c.606-.264-.428-5.081-.428-7.92s.256-10.064.517-11.778" style="fill:#ff3515"/><path id="path294" d="M64.677,39.745a2.034,2.034,0,0,1,.219-.032A2.235,2.235,0,0,1,65.6,39.6a1,1,0,0,1,.425.114,1.158,1.158,0,0,0,.273.057,2.366,2.366,0,0,0-.527.114.49.49,0,0,1-.484,0,3.149,3.149,0,0,0-.614-.144" style="fill:#ff3515"/><path id="path296" d="M58.872,92.771a6.2,6.2,0,0,1-.775.09c-.86.082-1.891-2.142-3.525-4.04s-.775-6.282-.775-6.282a5.6,5.6,0,0,1-.86-.683c.087-1.118.517-5.848.517-5.848-.773-.167-.857-.512-.857-.512l2.834-19.948,3.436,37.231" style="fill:#ff3515"/><path id="path298" d="M72.4,92.771a.085.085,0,0,1-.024.008s.156.41.024-.008" style="fill:#ff3515"/><path id="path300" d="M72.975,88.044c-.259-2.663-.169-6.618-.259-9.887s.259-8.511.6-12.464-.174-12.645-.174-12.645l-.3-.258s-.646,2.758-1.033,3.781c-.383,1.038-.813-.293-1.118-1.548a24.107,24.107,0,0,1-.857-5.241c-.216,1.289-.39,4.988-.39,4.988l-.085.077c.425.02.668.35.345.924.743.691.689,1.148.172,1.488,0,0,1.95,7.622,1.95,9.058l-.02.059a12.262,12.262,0,0,0-1.672.085c-.345.087-1.547.427-1.547.427s-.428,1.374.173,1.55.863.346,1.118.169.259-.256.862-.092a1.926,1.926,0,0,0,.348.087l0,0a3.635,3.635,0,0,1,.085,2.057,19.585,19.585,0,0,0-.6,4.735,8.636,8.636,0,0,0,.514,2.663s-.258.087-.514,2.407.43,9.46.43,9.46a8,8,0,0,1,1.2,2.236c.1.293.159.482.2.6a3.391,3.391,0,0,0,.579-.169,2.658,2.658,0,0,0,1.63-1.545s-1.374-.34-1.63-3.008" style="fill:#ff3515"/><path id="path302" d="M60.678,91.142A3.723,3.723,0,0,0,59.389,92.6l-3.225-36.15c.472,1.677,1.493.313,2-1.364,0,0,.931-3.329,1.046-3.9a2.631,2.631,0,0,1,.4-.971s-.06,1.431.286,1.712.261.263.114.864a2.557,2.557,0,0,0,.229,2.119h.114c.286.979-.057,1.317-.057,1.317l.027-.08c-1.028,1.118-1.289,2.405-1.545,4.385a22.148,22.148,0,0,0-.087,4.727c-.947,3.61,1.118,9.115,1.118,9.115a15.582,15.582,0,0,0,.261,5.5c-.52,1.029-.691.942-.691.942a4.892,4.892,0,0,1,.691,2.752c-.261,1.118-.174,1.2.514,1.891-.343.519.683,2.755.082,5.671" style="fill:#ff3515"/><path id="path304" d="M73.2,94.9s1.061,2.32,1.232,2.606.547.914.547.372a19.289,19.289,0,0,0-.976-3.47,10.317,10.317,0,0,0-1.148-1.744L72.4,92.8a5.061,5.061,0,0,0,.487.571c.372.4.628.689.628,1s.028.434-.313.519" style="fill:#ff3515"/><path id="path306" d="M74.808,92.771a4.059,4.059,0,0,0-.256-.427l.316-.661s2.121-.022,1.975.487a2.593,2.593,0,0,1-.487,1.265c-.346.37-.631.544-.716.484a5.461,5.461,0,0,1-.457-.517l.172-.261.144.12.228-.2-.084-.146.112-.117-.231-.313-.144.055L75.3,92.4l-.345.087.059.169-.2.114" style="fill:#ff3515"/><path id="path308" d="M76.788,96.334l.229-.115.087.085.228-.057v-.264l.142-.025-.025-.372-.147-.025-.114-.174-.43.109.03.174-.231.09-.256-.723a1.607,1.607,0,0,1,.8-.229c.544-.025,1.088-.109,1.117.115s.346.747.058,1.209a1.857,1.857,0,0,1-1.118.8h-.085l-.285-.6" style="fill:#ff3515"/><path id="path310" d="M124.744,39.661c.285.174.228.174.457.114l.457-.114-.112-.46s.569.46.229.574a1.229,1.229,0,0,1-.743.114.381.381,0,0,1-.286-.228" style="fill:#d18644"/><path id="path312" d="M66.955,37.4c.313.209-1.06-.146-1.088.167a2.647,2.647,0,0,0,.2,1c.084.229.084.569-.289.542s-.715.114-.631-.114.112-.2.112-.2-.082.174.06.2a1.255,1.255,0,0,0,.315.027c.144,0,.316,0,.343-.171a1.189,1.189,0,0,0-.112-.629c-.114-.35-.174-.631-.059-.8a.566.566,0,0,1,.6-.231.936.936,0,0,1,.546.206" style="fill:#d18644"/><path id="path314" d="M65.209,37.8c.057-.256.027-.459-.286-.569a.934.934,0,0,0-.919.2,1.317,1.317,0,0,0,.46-.025.721.721,0,0,1,.631.115,1.484,1.484,0,0,1,.114.288" style="fill:#d18644"/><path id="path316" d="M65.149,40.148c-.181-.117.433.054.574.054a.49.49,0,0,1-.574-.054" style="fill:#d18644"/><path id="path318" d="M129.272,58.305c0,.942-1.142,1.7-2.553,1.7s-2.554-.762-2.554-1.7c0,0,1.7-.219,2.511-.219.885,0,2.6.219,2.6.219" style="fill:#bbbcbc"/><path id="path320" d="M142.69,58.305c0,.942-1.143,1.7-2.552,1.7s-2.556-.762-2.556-1.7c0,0,1.7-.089,2.509-.089s2.6.089,2.6.089" style="fill:#bbbcbc"/><path id="path322" d="M133.513,49.782l6.837.171v-.345c-.13-.042-6.278-.43-6.278-.43l-.475.045h-.084l-.475-.045s-6.146.38-6.277.43v.345l6.836-.171" style="fill:#bbbcbc"/><path id="path324" d="M72.848,52.7l-1.16-.991.084-1.545.562-.944.728-.127.472.385-.04-.345s-.947-1.076-1.632-.47-.991,1.675-1.076,3.652a32.562,32.562,0,0,0,0,3.269s.216.515.43,1.031.3.6.517,0,1.118-3.907,1.118-3.907" style="fill:#61619e"/><path id="path326" d="M56.335,54.638s1.161.517,1.031,1.25a32.711,32.711,0,0,0,0-3.617,3.331,3.331,0,0,1-1.031,2.362" style="fill:#61619e"/><path id="path328" d="M59.649,51.113a1.859,1.859,0,0,0,.43.641c.256.214.773.132.475.564a4.434,4.434,0,0,0-.39,1.672c-.043.3-.217.171-.217.171a3.212,3.212,0,0,1,.09-1.371c.214-.6.256-.477-.042-.775a1.133,1.133,0,0,1-.3-.73" style="fill:#61619e"/><path id="path330" d="M60.375,54.857l-.169.037-.172-.643s.043.131.815.174A4.115,4.115,0,0,0,62.27,54.2c.517-.082,1.076,0,1.63-.082s-.3.3.688.39a15.77,15.77,0,0,0,1.891.042c.472,0,1.03.469,1.674-.214s.946-.643.862-1.51a5.479,5.479,0,0,0-.686-1.886c-.174-.39-.216-.477.256-.991s.9-.383,1.031-1.287a5.277,5.277,0,0,0-.045-1.724c-.039-.509.132-2.313.216-1.456s.559.947.475,2.152-.129.988.385.559,1.545-1.16.73-.129a5.191,5.191,0,0,0-1.289,2.581c-.171.936-.04.936-.04.936l-.261-1.711-.387,4.9a6.848,6.848,0,0,0-1.2.472c-.559.306-.728.216-1.419.174a8.37,8.37,0,0,1-2.621-.6,2.185,2.185,0,0,0-1.937-.219,9.327,9.327,0,0,1-2.018.35" style="fill:#61619e"/><path id="path332" d="M58.442,51.113l-1.16-.864a2.347,2.347,0,0,1,.561,1.726L57.9,51.9a10.7,10.7,0,0,1,.073,2.052c-.087.946.042,1.766.084.606.037-1.083.152-2.492.1-3.028l.286-.413" style="fill:#523178"/><path id="path334" d="M61.108,49.558a3.165,3.165,0,0,0,2.238.35l-.3,3.053s0,.773.171.087,1.031-5.162,1.118-5.589,0-.646-.087-.3-.3,1.846-.775,2.147a4.539,4.539,0,0,1-2.407.044c-.174-.126-.216.087.042.217" style="fill:#523178"/><path id="path336" d="M65.582,47.206s.34,2.663.429,3.52.343,1.16.214.171-.517-1.421.345-1.247,1.675,1.033,2.621-.127.731-1.078.731-1.078-.256-1.716-.43-.9-.388,1.418-1.034,1.627-1.033.435-1.5.3-.772.559-.859-.082-.3-1.8-.3-2.022-.258-.6-.213-.171" style="fill:#523178"/><path id="path338" d="M59.649,50.726s.6.261.388-.944-.3-1.163-.216-1.632a2.015,2.015,0,0,0-.045-1.421c-.258-.815-.643.044-.643.044a4.324,4.324,0,0,1,.042,1.332c-.085.772-.174.467-.258.772s-.085,1.2-.212,2.144-.365,3.2-.131,2.281a1.225,1.225,0,0,1,.032-.122,13.835,13.835,0,0,0-.075,2.4,26.033,26.033,0,0,0,.174,2.711c.04.9-.087.9-.044,1.249s0,.512.211-.082a12.515,12.515,0,0,1,.82-2.541c.3-.254.3-.04-.174-.385a1.207,1.207,0,0,1-.472-1.29c.089-.476,0-1.8.089-2.623a3.827,3.827,0,0,0-.027-1.1c.278-.82.5-1.3.5-1.3l.042.522" style="fill:#523178"/><path id="path340" d="M61.023,56.1a7.855,7.855,0,0,0-.474,1.8c-.087.516.087.516.342-.085a10.255,10.255,0,0,1,.905-1.634l-.773-.082" style="fill:#523178"/><path id="path342" d="M63.172,56.529c.6.564,1.389.648,1.607,1.416s.3,1.982.515,1.083.643-1.21,1.073-1.25.931-.218,1.018.905a10.9,10.9,0,0,1,.04,3.048c-.169,2.1-.43,4.854-.169,4a24.678,24.678,0,0,0,.562-3.657c.166-1.55.166-1.468.3-1.249s.345.645.345.645V57.219l-3.867.254s-.644-1.026-1.374-1.076" style="fill:#523178"/><path id="path344" d="M59.446,72.279a11.92,11.92,0,0,1-.631-5.731c.228-1.2.459-.855.345.176a38.3,38.3,0,0,0,.514,5.1c.117,1.029.06,1.374-.228.46" style="fill:#523178"/><path id="path346" d="M64.779,64.2c-.231,2.8-.4.288-.116,3.155s.745,3.661.171,6.474a35.155,35.155,0,0,0-.629,7.107c0,1.781.231,3.729.458,1.036s.862-7.167.745-8.948.228-4.243.283-6.248.286-3.843.229-5.555-.458-1.155-.686-.459-.114.914-.114.914L64.779,64.2" style="fill:#523178"/><path id="path348" d="M68.389,63.967c-.345,2.524-.571,4.076-.917,6.652s-1.033,4.815-1.319,7.224-.231,4.3,0,2.236.743-3.957,1.26-6.652.976-5.679.976-5.679l.169-.964-.169-2.812" style="fill:#523178"/><path id="path350" d="M68.848,68.5a19.683,19.683,0,0,1-.69,5.964,52.96,52.96,0,0,0-1.374,6.648c-.343,2.636-.4.974-.686,3.612s-.8,2.805.169,3.781a5.115,5.115,0,0,0,2.065,1.26,6.9,6.9,0,0,1-1.2-1.2,2.691,2.691,0,0,1-.688-1.555c.057-.333.688-.05.688-.05s-.457-.231-.4-1.2.688-1.093.688-1.093a24.418,24.418,0,0,1,.231-3.781c.286-2.127.229-3.784.745-4.7s.974-1.9,1.088.109.4,6.3.4,8.546a12.31,12.31,0,0,0,.631,4.869,4.287,4.287,0,0,0,1.2,1.373l-.631-1.145s-.4-3.095-.514-5.386-.462-4.814.514-6.59c-.514-2.3-.976-2.524,0-6.882a5.839,5.839,0,0,0,0-2.466l-.916-.281s-.346.345-1.32.169" style="fill:#523178"/><path id="path352" d="M67.929,90.63c-1.545-.691-2.467-1.208-3.15-2.527a7.651,7.651,0,0,1-.976-3.952c-.171-2.236-.631-5.677-.517-3.61s-.169,5.1-.059,7.331,1.088,2.177.059,2.177-2.236-.05-.059.519.8,1.776,2.409,1.147.4-1.257,2.293-1.085" style="fill:#523178"/><path id="path354" d="M60.365,79.043c.112-.231,1.259-2.521,1.259-2.521A11.5,11.5,0,0,0,61.8,75.2c.057-.741-.343-.517-.743-.231s-.743-.281-.862,1.095a11.83,11.83,0,0,0,.174,2.976" style="fill:#523178"/><path id="path356" d="M62.772,75.779c1.148-2.581,1.6-3.9,1.493-5.276s.057-2.748-.114-1.891-.745,2.867-.517,1.379.229-2.236.457-2.236.4,0,.4,1.655a15.894,15.894,0,0,1-.4,5.4c-.688,2.745-.862,4.012-.862,4.012a4.063,4.063,0,0,0-.286-1.776c-.342-.582-.516-.582-.171-1.265" style="fill:#523178"/><path id="path358" d="M64.891,47.76c-.171,1.8-.087,3.353-.258,4.814s.258,1.63.3-.124.087-3.873.087-4.524-.044-.9-.129-.162" style="fill:#523178"/><path id="path360" d="M77.59,93.42a.244.244,0,1,0-.243-.241.243.243,0,0,0,.243.241" style="fill:#fff"/><path id="path362" d="M78.05,93.5a.241.241,0,0,0,.244-.241.244.244,0,0,0-.487,0,.24.24,0,0,0,.243.241" style="fill:#fff"/><path id="path364" d="M77.906,94.021a.244.244,0,1,0-.241-.241.242.242,0,0,0,.241.241" style="fill:#fff"/><path id="path366" d="M77.389,93.993a.243.243,0,1,0-.243-.245.245.245,0,0,0,.243.245" style="fill:#fff"/><path id="path368" d="M78.594,93.847a.238.238,0,0,0,.241-.241.242.242,0,1,0-.241.241" style="fill:#fff"/><path id="path370" d="M79.168,94.624a.243.243,0,0,0,.241-.25.243.243,0,1,0-.241.25" style="fill:#fff"/><path id="path372" d="M79.6,95.024a.239.239,0,0,0,.241-.241.243.243,0,1,0-.241.241" style="fill:#fff"/><path id="path374" d="M79.8,95.573a.243.243,0,1,0-.241-.241.244.244,0,0,0,.241.241" style="fill:#fff"/><path id="path376" d="M79.856,96.2a.243.243,0,1,0-.243-.241.245.245,0,0,0,.243.241" style="fill:#fff"/><path id="path378" d="M79.8,96.773a.243.243,0,0,0,.244-.241.243.243,0,0,0-.485,0,.243.243,0,0,0,.241.241" style="fill:#fff"/><path id="path380" d="M79.541,97.317a.237.237,0,0,0,.238-.241.241.241,0,0,0-.238-.241.244.244,0,0,0-.244.241.24.24,0,0,0,.244.241" style="fill:#fff"/><path id="path382" d="M77.762,92.761a.244.244,0,0,0,.243-.241.244.244,0,1,0-.243.241" style="fill:#fff"/><path id="path384" d="M77.846,92.242A.243.243,0,0,0,78.09,92a.243.243,0,1,0-.244.238" style="fill:#fff"/><path id="path386" d="M77.792,91.758a.24.24,0,1,0-.241-.241.242.242,0,0,0,.241.241" style="fill:#fff"/><path id="path388" d="M77.419,91.3a.241.241,0,1,0,0-.482.241.241,0,0,0,0,.482" style="fill:#fff"/><path id="path390" d="M91.433,18.448a1.852,1.852,0,0,1,1.319.281c.459.35-.172.064-.629,0a1.211,1.211,0,0,1-.69-.281"/><path id="path392" d="M104.728,44.065l1.632.641.388-.75-2.02.1"/><path id="path394" d="M64.148,37.828c.2-.058.343-.289.515-.147a.915.915,0,0,0,.26.176s-.116.06-.285.142-.147,0-.261-.055l-.229-.111"/><path id="path396" d="M66.1,37.855c.2-.06.345-.288.517-.142a.848.848,0,0,0,.26.167l-.288.141c-.174.087-.144,0-.258-.057s-.231-.109-.231-.109"/><path id="path398" d="M53.97,32.352a4.023,4.023,0,0,1-.862.172c-.4.027-.658.2-.285.315s.862.343.862.261a2.33,2.33,0,0,0-.172-.435l.457-.313"/><path id="path400" d="M53.742,34.5c-.457.345-.485.512-.229.46a2.1,2.1,0,0,0,.373-.115l-.147-.345"/><path id="path402" d="M52.164,34.961a1.685,1.685,0,0,0,.631.03.553.553,0,0,0-.315-.286c-.258-.117-.43-.345-.46-.117a.445.445,0,0,0,.144.373"/><path id="path404" d="M52.254,37.169c-.137.336.37-.228.8-.541s.656-.487.656-.487.169-.318-.286.027a2.279,2.279,0,0,1-.916.46c-.229.049-.346.077-.346.077a.407.407,0,0,1,.09.459"/><path id="path406" d="M53.824,37.385l.005.065s.057-.06-.005-.065"/><path id="path408" d="M54.832,36.076a8.769,8.769,0,0,0-1.348.778c-.517.253-.487.427-.487.427s-.286.169-.572.368c0,0-.2.288-.283.434s.082.142.283-.057.37-.2.974-.487a1.262,1.262,0,0,1,.425-.154l-.025-.278.43-.231.059.231c.025-.022.045-.047.065-.067l.022.015c.368-.114.341.144.6-.313a5.124,5.124,0,0,0,.258-.569,1.886,1.886,0,0,0,.428-.179c.258-.171-.226-.117-.828.082"/><path id="path410" d="M80.149,104.494l-.015-.015a1.512,1.512,0,0,0-1.2-1.418c-.328-.082-.464-.03-.529.231l-.2.778c.512.119.929.1,1.2-.353l0,0-.367,1.476,0,.017c-.015-.534-.377-.763-.892-.895l-.355,1.474c-.064.263.022.372.355.454A1.634,1.634,0,0,0,80,105.471l-.378,1.388-3.388-.839-.02-.01c.4.1.675-.413.74-.681l.574-2.281a.523.523,0,0,0-.39-.685l.005-.015,3.3.817-.293,1.324"/><path id="path412" d="M82.37,107.423l.042-.208c.368.069.44.037.46-.045a.523.523,0,0,0-.06-.3l-.335-.9-.691.681a.514.514,0,0,0-.144.223c-.022.127.082.214.442.284l-.037.221-1.528-.3-.017-.005c.306.027.661-.271.894-.489l.979-.91-.579-1.54c-.084-.226-.169-.718-.474-.767l-.005.009,1.858.353h0a.366.366,0,0,0-.475.3.518.518,0,0,0,.045.241l.271.782.606-.591a.468.468,0,0,0,.151-.224.423.423,0,0,0-.325-.454l.012.01,1.439.276h-.013c-.435-.058-.628.245-.939.529l-.807.735.678,1.831c.079.209.181.546.474.636h-.014l-1.9-.368"/><path id="path414" d="M88.782,105.95l-.017,0a1.555,1.555,0,0,0-1.28-1.361c-.676-.085-1.046.494-1.182,1.567-.137,1.113.161,1.744.9,1.831a1.259,1.259,0,0,0,1.468-1.123l.112.018a1.412,1.412,0,0,1-1.729,1.341,1.89,1.89,0,0,1-1.756-2.193,1.971,1.971,0,0,1,2.156-1.7,2.2,2.2,0,0,1,1.033.454l.467-.168h-.01l-.166,1.329"/><path id="path416" d="M93.057,106.186l0,.015a1.569,1.569,0,0,0-1.47-1.19c-.341-.015-.46.057-.475.323l-.022.817c.526.023.944-.1,1.118-.613l-.008.022-.074,1.53,0,0c-.12-.521-.515-.668-1.039-.695L91,107.91c-.015.271.1.355.435.378a1.651,1.651,0,0,0,1.671-1.111H93.1l-.1,1.439-3.488-.174-.005,0a.519.519,0,0,0,.569-.549l.129-2.614a.519.519,0,0,0-.491-.618l-.018.01,3.4.164-.032,1.351"/><path id="path418" d="M94,108.631l.008,0a.515.515,0,0,0,.516-.594l-.069-2.614c-.01-.275-.129-.576-.537-.566l-.02-.005,2-.055,0,0a.522.522,0,0,0-.529.594L95.445,108c.005.26.106.337.382.327a1.6,1.6,0,0,0,1.327-1.227l.007,0,.008,1.451-3.175.085"/><path id="path420" d="M98.006,107.033l.01,0a1.656,1.656,0,0,0,1.567,1.1c.373-.037.681-.241.636-.7-.079-.8-2.171-.3-2.3-1.563a1.208,1.208,0,0,1,1.15-1.364c.594-.057.822.209.969.194a.709.709,0,0,0,.417-.261l0-.005.134,1.3-.008,0a1.5,1.5,0,0,0-1.411-.986.574.574,0,0,0-.578.619c.089.849,2.193.213,2.342,1.627a1.3,1.3,0,0,1-1.22,1.381,3.086,3.086,0,0,1-1.137-.174.907.907,0,0,0-.413.261l-.015,0-.146-1.441"/><path id="path422" d="M101.986,108.042h-.008a.526.526,0,0,0,.445-.659L102,104.8a.526.526,0,0,0-.634-.487h.005l1.975-.327,0,0a.514.514,0,0,0-.43.658l.425,2.586a.519.519,0,0,0,.619.487l.005.005-1.975.318"/><path id="path424" d="M105.839,103.381a1.961,1.961,0,1,1-1.436,2.343A1.988,1.988,0,0,1,105.839,103.381Zm.829,3.573c.626-.144.728-.835.487-1.871s-.633-1.6-1.259-1.453-.726.832-.487,1.868.631,1.6,1.257,1.456"/><path id="path426" d="M112.5,105.575c-.231.077-.343.122-.343.122-.534.164-.832-.06-1.06-.664-.234-.636-.306-.8-.9-.7l.338,1.1c.09.3.269.609.706.465l-.008.012-1.863.569.005,0a.515.515,0,0,0,.338-.715l-.765-2.507a.513.513,0,0,0-.678-.392l-.008-.013,1.844-.559c.894-.268,1.455-.054,1.642.554.208.691-.423,1.073-1.009,1.26l.007.017a1,1,0,0,1,1.151.5c.32.467.4.681.524.646.514-.159.581.122.079.3v0Zm-2.36-1.436c.564-.2.892-.405.7-1-.131-.437-.442-.663-.807-.559a.311.311,0,0,0-.246.423l.348,1.14"/><path id="path428" d="M74.6,69.087c0,.8,1.906.273,1.906,1.073M75.9,66.98c-.534.581,1.214,1.495.68,2.077M76.545,66.1c-.44.658,1.435,1.282,1,1.945m-.5-2.909c-.327.718,1.62,1.031,1.3,1.759m-.962-2.8c-.208.768,1.767.768,1.558,1.536m-1.391-2.606c-.082.79,1.865.479,1.781,1.269m-1.791-2.353c.045.79,1.918.174,1.96.969m-2.139-2.044c.169.78,1.92-.129,2.089.643M77,59.84c.288.743,1.87-.427,2.161.308m-2.671-1.257c.4.679,1.782-.737,2.184-.054m-2.839-.818c.509.6,1.644-1,2.148-.395m-2.931-.355c.6.524,1.463-1.249,2.06-.725m.24-2.415c-.73.306.487,1.856-.243,2.169m1.24-2.683c-.691.392.685,1.8-.008,2.183M79.29,53c-.646.457.879,1.706.231,2.166m.626-2.882c-.594.527,1.056,1.61.464,2.132m.311-2.939c-.532.586,1.225,1.485.69,2.072m0-2.954c-.464.643,1.377,1.344.912,1.985M82.2,49.65c-.39.691,1.513,1.185,1.123,1.876m-.507-3.208c-.467.636,1.531,1.4,1.066,2.035M74.751,68.12c-.079.79,1.868.472,1.789,1.26m-1.936.693c0,.8,1.906.283,1.906,1.073m8.247-20.959c.793,0,.279-1.9,1.071-1.9m.249,1.9c.8,0,.278-1.9,1.068-1.9m.251,1.9c.792,0,.278-1.9,1.07-1.9m.246,1.9c.8,0,.279-1.9,1.074-1.9m.245,1.9c.793,0,.276-1.9,1.071-1.9m.249,1.9c.8,0,.278-1.9,1.07-1.9m.249,1.9c.792,0,.278-1.9,1.07-1.9m.246,1.9c.8,0,.279-1.9,1.074-1.9m.246,1.9c.792,0,.275-1.9,1.07-1.9m.249,1.9c.8,0,.278-1.9,1.07-1.9m.249,1.9c.8,0,.278-1.9,1.07-1.9m.249,1.9c.792,0,.278-1.9,1.071-1.9m.246,1.9c.792,0,.275-1.9,1.07-1.9m.249,1.9c.8,0,.278-1.9,1.07-1.9m.249,1.9c.8,0,.278-1.9,1.073-1.9m.246,1.9c.792,0,.278-1.9,1.071-1.9m-31,22.952c0,.79,1.906.276,1.906,1.071M74.6,72.4c0,.79,1.906.275,1.906,1.068m-1.906.089c0,.79,1.906.283,1.906,1.073m-1.906.092c0,.79,1.906.271,1.906,1.066m-1.906.092c0,.79,1.906.273,1.906,1.073m-1.906.09c0,.8,1.906.275,1.906,1.068M74.6,78.2c0,.8,1.906.283,1.906,1.073m-1.906.087c0,.79,1.906.279,1.906,1.071m-1.906.1c0,.787,1.906.268,1.906,1.063m-1.906.095c0,.787,1.906.278,1.906,1.073m-1.906.087c0,.8,1.906.275,1.906,1.07M74.6,84c0,.79,1.906.279,1.906,1.074m-1.819.258c0,.79,1.9.278,1.9,1.073M76.01,89.03c.686.405,1.195-1.5,1.879-1.108m-.761,1.756c.686.4,1.195-1.5,1.878-1.108m-.762,1.757c.688.392,1.195-1.511,1.878-1.113m-.76,1.761c.688.39,1.2-1.51,1.878-1.113m-.763,1.749c.688.405,1.195-1.5,1.878-1.108M81.6,92.26c.688.4,1.2-1.5,1.878-1.113m-.76,1.761c.688.4,1.2-1.511,1.878-1.118m-.763,1.761c.688.395,1.195-1.513,1.878-1.113m-.76,1.759c.688.4,1.2-1.51,1.878-1.105m-.762,1.749c.688.4,1.2-1.5,1.878-1.108m-.76,1.753c.688.4,1.194-1.507,1.878-1.112M88.3,96.132c.689.39,1.2-1.513,1.879-1.113m-.763,1.759c.688.4,1.2-1.51,1.878-1.113" style="fill:none;stroke:#000;stroke-linecap:round;stroke-width:0.28586px"/><path id="path430" d="M90.531,97.422c.688.395,1.195-1.511,1.878-1.108m-.763,1.749c.688.405,1.195-1.5,1.878-1.108M92.6,98.594c.686.4,1.193-1.508,1.876-1.118M74.508,86.8c.263.75,1.888-.363,2.151.383m-1.689.894c.561.564,1.54-1.155,2.1-.6m-.112-31.279a1.268,1.268,0,0,0-1.321-.477,1.553,1.553,0,0,1-.8-.109m39.613,13.467c0,.8-1.905.273-1.905,1.073m.609-3.18c.536.581-1.215,1.495-.681,2.077m.037-2.954c.437.658-1.436,1.282-1,1.945m.506-2.909c.328.718-1.619,1.031-1.294,1.759m.961-2.8c.209.768-1.766.768-1.557,1.536m1.391-2.606c.082.79-1.866.479-1.781,1.269m1.791-2.353c-.042.79-1.918.174-1.96.969m2.139-2.044c-.169.78-1.921-.129-2.089.643m2.437-1.672c-.291.743-1.874-.427-2.164.308m2.673-1.257c-.405.683-1.781-.728-2.186-.044m2.839-.828c-.509.6-1.644-1-2.149-.395M114,57.259c-.593.524-1.46-1.247-2.059-.725m-.239-2.405c.731.306-.487,1.856.244,2.169m-1.237-2.683c.69.392-.686,1.8.007,2.183M109.771,53c.646.457-.879,1.706-.231,2.166m-.626-2.882c.594.527-1.056,1.61-.464,2.132m-.316-2.939c.532.586-1.225,1.485-.691,2.072m0-2.954c.465.643-1.373,1.344-.911,1.985m.323-2.934c.39.691-1.516,1.185-1.123,1.876M114.31,68.12c.079.79-1.868.472-1.789,1.26m1.935.693c0,.8-1.905.283-1.905,1.073m1.905.092c0,.79-1.905.276-1.905,1.071m1.905.092c0,.79-1.905.275-1.905,1.068m1.905.089c0,.79-1.905.283-1.905,1.073m1.905.092c0,.79-1.905.271-1.905,1.066m1.905.092c0,.79-1.905.273-1.905,1.073m1.905.09c0,.8-1.905.275-1.905,1.068m1.905.089c0,.8-1.905.283-1.905,1.073m1.905.087c0,.79-1.905.279-1.905,1.071m1.905.1c0,.787-1.905.268-1.905,1.063m1.905.095c0,.787-1.905.278-1.905,1.073m1.905.087c0,.8-1.905.275-1.905,1.07m1.905.087c0,.79-1.905.279-1.905,1.074m1.818.258c0,.79-1.9.278-1.9,1.073m.586,2.626c-.691.4-1.195-1.513-1.881-1.118m.763,1.761c-.691.4-1.2-1.5-1.881-1.113m.763,1.769c-.688.385-1.195-1.518-1.878-1.12m.76,1.761c-.688.385-1.195-1.51-1.878-1.113m.763,1.749c-.688.4-1.2-1.508-1.878-1.108m.76,1.757c-.688.4-1.195-1.5-1.878-1.113m.76,1.761c-.688.39-1.195-1.516-1.878-1.118m.762,1.761c-.688.395-1.194-1.513-1.878-1.113m.761,1.759c-.689.39-1.195-1.513-1.879-1.113M103,94.841c-.688.4-1.195-1.5-1.878-1.108m.76,1.749c-.688.4-1.195-1.5-1.878-1.113m.76,1.763c-.688.39-1.2-1.512-1.878-1.113m.763,1.754c-.688.4-1.195-1.51-1.878-1.113m.76,1.762c-.688.392-1.2-1.516-1.878-1.108m.763,1.749c-.689.405-1.2-1.5-1.878-1.108m.929,1.639c-.686.4-1.193-1.508-1.876-1.113M114.553,86.8c-.263.75-1.888-.363-2.151.383m1.689.894c-.561.564-1.54-1.15-2.1-.6m.111-31.279a1.27,1.27,0,0,1,1.322-.477,1.553,1.553,0,0,0,.8-.109M84.243,50.154c.37-.228-.211-1.632.052-1.791m20.982,2.181s1.245-1.272,1.267-1.667" style="fill:none;stroke:#000;stroke-linecap:round;stroke-width:0.28586px"/><path id="path432" d="M96.54,64.96a2.922,2.922,0,1,0-1.9.338" style="fill:none;stroke:#d18644;stroke-width:0.17288499999999998px"/><path id="path434" d="M94.516,47.643H82.231a8.78,8.78,0,0,1-7.314,6.469L73.4,56.842l.606.405a6.331,6.331,0,0,1,.551,10.2l-.594.646v18.06a3.286,3.286,0,0,0,1.849,3.523c1.93,1.073,18.7,10.732,18.7,10.732h.024s16.769-9.659,18.7-10.732a3.285,3.285,0,0,0,1.848-3.523V68.093l-.593-.646a6.329,6.329,0,0,1,.551-10.2l.606-.405-1.518-2.73a9.154,9.154,0,0,1-7.313-6.469H94.54m-.034,3.2h10.14a11.827,11.827,0,0,0,6.409,5.761,9.531,9.531,0,0,0,.833,12.789c-.018,3.992,0,15.787,0,16.763v.147c0,.094,0,.308,0,.454-.045.025-.105.067-.194.122-1.322.736-11.9,6.809-17.149,9.845h-.034c-5.25-3.036-15.825-9.109-17.147-9.845-.089-.05-.151-.092-.2-.122-.007-.146-.007-.36-.007-.454v-.147c0-.976.027-12.771.007-16.763A9.524,9.524,0,0,0,78,56.606a11.846,11.846,0,0,0,6.415-5.761H94.508m.007-2.641H82.651a9.271,9.271,0,0,1-7.378,6.417L74.14,56.665c.1.063.174.11.171.11a6.884,6.884,0,0,1,.639,11.067l-.425.465c.01,1.984,0,16.771,0,17.846V86.3a2.683,2.683,0,0,0,1.563,2.894c1.791.991,16.428,9.41,18.438,10.578h.012c2.01-1.168,16.647-9.587,18.438-10.578a2.676,2.676,0,0,0,1.563-2.894v-.142c0-1.075-.013-15.862,0-17.846l-.424-.465a6.887,6.887,0,0,1,.638-11.067s.075-.047.171-.11l-1.132-2.044a9.7,9.7,0,0,1-7.379-6.417H94.545m-.02,2.077h10.469a11.284,11.284,0,0,0,7.033,6.071,8.957,8.957,0,0,0,.425,12.8c-.02,4.062.007,16.021.007,17V86.3a3.5,3.5,0,0,1-.037.735,1.519,1.519,0,0,1-.452.336c-1.409.777-12.5,7.149-17.427,10h-.02c-4.929-2.852-16.021-9.219-17.424-10a1.46,1.46,0,0,1-.453-.336,3.962,3.962,0,0,1-.037-.735v-.147c0-.976.025-12.935.005-17a8.965,8.965,0,0,0,.422-12.8,11.288,11.288,0,0,0,7.033-6.071H94.5M77.173,79.62l.045-.112h5.6m8.081,0h9.1m.715,0h1.118m1.635,0h8.255l.156.117M81.873,89.452a8.622,8.622,0,0,1,2.681-.889c1.262-.109,1.6.348,2.638.226s4.357-1.026,4.357-1.026c1.719-.805-.919-1.036-.919-1.036l-1.259-.114s-.229-.114-1.262-.8-1.26-.345-2.522.114a1.049,1.049,0,0,1-.2.07c-.008,0-.015.01-.027.01-.058.02-.112.037-.162.057-.012,0-.02.005-.03.005-.049.017-.1.027-.139.042-.005,0-.015,0-.02,0-.044.015-.082.025-.121.037h0c-.037,0-.072.015-.107.02h-.012a.311.311,0,0,1-.087.017s-.013,0-.017,0c-.028,0-.05.005-.075.005h-.08V86.2c-.024,0-.044,0-.067,0,0,0,0,0-.01,0h-.007c-.161-.028-.318-.1-.658-.15a4.012,4.012,0,0,0-2.067.808s-.229.343-1.486,0a6.5,6.5,0,0,0-2.981-.576l-.054.037" style="fill:none;stroke:#000;stroke-width:0.17288499999999998px"/><path id="path436" d="M94.545,96.731c5.252-3.041,15.827-9.114,17.149-9.845.089-.05.151-.1.2-.127l-.278-.146s-1.6.114-1.374-1.031-.914.231-.914.231a7.207,7.207,0,0,1-2.41-1.15c-1.605-1.034-1.033.454-1.033.454a4.545,4.545,0,0,1-.937.383h0a.017.017,0,0,0-.013,0l-.072.017c-.02,0-.037,0-.059.01s-.052.005-.08.01a.4.4,0,0,1-.057.015.52.52,0,0,1-.089,0c-.018,0-.03,0-.048,0a1.165,1.165,0,0,1-.131.005,9.29,9.29,0,0,0-2.293.691,1.237,1.237,0,0,1-1.371,0,4.963,4.963,0,0,0-2.867-.8c-1.031.109-1.6,1.6-1.6,1.6s-.571.46.114,1.146-.231.459-1.259.685a6.883,6.883,0,0,1-2.179,0c-2.521.117-5.388,1.146-2.752,1.491s7.109.231,8.371.345-.69,1.15-3.326,1.15-5.16-.231-5.386-.69S88,90.16,87.662,90.739s-2.177.686-2.177.686M82.693,81.17l.472.857H89.7a3.272,3.272,0,0,0,.944-.857,53.161,53.161,0,0,1-6.623.209A4.161,4.161,0,0,1,82.7,81.17Zm.085.04-1.2-.219,1.332-1.371m7.224.129c.042.6-.174.643-.3,1.033l-.3.393m1.55-1.386.688.862-1.033.472M86.3,75.19v.944m-.085.855-.042.221m.042,1.677-.087.643m0,1.118.045.688m-1.893-4.255V76.09m.045,2.452v.6m4.6-2.8v.733m0,.688v.3m-.084,1.118V79.7m0,1.2.042.39m-5.548-2.154.388-.517m5.5,2.194.171.432m-2.278-.778-.432.778m.86-1.9-1.16,1.9m.817-2.5-.43.82m.773,1.2c.516-.73.258-1.07.258-1.07l2.365-.052.514,1.426a1.7,1.7,0,0,1-.819-.214l-2.361.04-.387.382m.472-1.975a6.25,6.25,0,0,1,2.194-.035,1.276,1.276,0,0,0,.042-1.207L87.507,77.9s.47.258.08,1.416h0l0-.005Zm.474-1.629,1.416.126a.869.869,0,0,0,.174-.643l-1.547-.087S88.191,77.21,88.066,77.685Zm2.065.986.213,1.167.733-.049-.69-1.118Zm-3.009,1.851v-.863l-2.839-.38s.258.341,0,1.546ZM84.929,79.19a2.159,2.159,0,0,0,.258-1.933l2.579.082s-.3.042-.427.733l-.132.688Zm2.449-1.933c-.988-.213-2.151-.345-2.151-.345l.045-.773,1.8.132a1.917,1.917,0,0,1,.3.986ZM85.1,78.671l-1.677-.129a2.4,2.4,0,0,0-.216-1.5l1.893.213m-.9,2.022-1.331-.054c.214,1.083.3,1.167,0,1.726l1.331-.213v.6" style="fill:none;stroke:#000;stroke-width:0.17288499999999998px"/><path id="path438" d="M100.721,83.227h3.7a.749.749,0,0,0,.285-.89,40.531,40.531,0,0,1-4.24.2s-.087.233.256.688Zm.147-.688-2.239-.885m2.924.857V76.636m.259,1.436v4.293l3.468-.659m-.688.15a7.566,7.566,0,0,1-1.461-4.353m-1.806,4.785c-.487-1.406-.8-3.212-.373-4.216a21.636,21.636,0,0,0-2.092,3.61l2.467.6,0,0Zm-.432-4.191.658-1.257m.089,1.371,1.779-.887M77.1,71.25a5.753,5.753,0,0,1,1.373-.914c.915-.462,1.26-.69,1.948-.231a6.237,6.237,0,0,0,1.374.686s.919-.577,1.721-1.15.572-.917,1.605-.686a10.063,10.063,0,0,0,4.472-.917c.916-.454,1.374.12,2.176-.914s.8-.922,1.95-1.376.914-1.257,2.407-.805,2.291.231,4.469,1.955,3.555,2.293,4.472,3.207a12.085,12.085,0,0,0,1.836,1.5s.917-.351,1.833-.8,1.26-.8,1.95-.346a3.8,3.8,0,0,0,1.26.569m-4.921.572a15.989,15.989,0,0,0,2.061,1.6,14.306,14.306,0,0,0,2.639.921m-20.7-29.738a2.467,2.467,0,0,0-1.831-.763c-.48,0-.887.345-1.461.531.07.068.149.147.241.232.561.526.611,1.458,1.642,1.659,0,0-.035,0-.1.007a20.484,20.484,0,0,0,3.15-.007c-1.034-.2-1.078-1.133-1.642-1.659Zm-4.462,1.659s-.037,0-.1.007a20.454,20.454,0,0,0,3.148-.007c-1.031-.2-1.079-1.133-1.642-1.655a2.474,2.474,0,0,0-1.829-.767c-.862,0-1.3.459-1.215,1.272s.733,1.15,1.548,1.15m7.6-1.659a2.463,2.463,0,0,0-1.826-.763c-.48,0-.892.345-1.463.531.069.068.149.147.243.232.562.526.609,1.458,1.642,1.659,0,0-.037,0-.1.007a20.454,20.454,0,0,0,3.148-.007c-1.034-.2-1.078-1.133-1.642-1.659Zm3.053,0a2.46,2.46,0,0,0-1.826-.763c-.479,0-.889.345-1.463.531.069.068.151.147.243.232.562.526.611,1.458,1.642,1.659,0,0-.037,0-.1.007a20.474,20.474,0,0,0,3.15-.007c-1.033-.2-1.078-1.133-1.644-1.659Zm3.056,0a2.466,2.466,0,0,0-1.829-.763c-.477,0-.889.345-1.461.531.07.068.149.147.244.232.561.526.606,1.458,1.639,1.659,0,0-.034,0-.1.007a20.461,20.461,0,0,0,3.148-.007c-1.034-.2-1.079-1.133-1.642-1.659Zm1.222-.763c-.48,0-.887.345-1.463.531.072.068.149.147.243.232.561.526.611,1.458,1.642,1.659,0,0-.037,0-.1.007,1.16.072,2.032.214,2.032-.785s-1.105-1.572-2.352-1.639v-.005Zm-.2-.047a7.3,7.3,0,0,0-3.168-10.553m-1.461-.487a7.4,7.4,0,0,0-1.535-.154c-.3,0-.594.015-.884.044m-.847.159A7.295,7.295,0,0,0,88.9,43.588m7.84-12.379c-.085-.658-.055-.319.313-.372.4-.056.286-.861.286-.861s1.2-.177,1.721-.177.338-.623.967-.8.459-.395.459-.395.114-.179.688-.115.631-.23.631-.23v-.4l.629-.115.059-.511.917-.059.112-.345.745-.112-.059-.345.231-.115-.231-.455h.69l.055-.629.514-.171-.229-.345.4-.115-.171-.575.345-.109V23.5l.515-.225-.058-.4.629-.058-.112-.4v-.062a1.674,1.674,0,0,0,.971-.858,1.716,1.716,0,0,1,.8-.856l-.231-.284.457-.233.06-.4a12.106,12.106,0,0,0,1.95-.575,2.115,2.115,0,0,0,1.262-1.372s-2.35.4-5.334.741a51.255,51.255,0,0,0-6.879,1.035c-1.319.4-.228,1.487-1.89,3.207a1.809,1.809,0,0,1-2.807-.289,19.837,19.837,0,0,1-.917-2.234h.459l-.459-.858.459-.23s-.4-.23-1.319-.69a1.867,1.867,0,0,0-2.178.23,1.023,1.023,0,0,0-1.2.754,1.9,1.9,0,0,1,1.148-.12c.46.171.857-.174,1.031,2.407S91.08,23.859,89.646,23.8c-1.2-.174-1.49-.514-1.776-1.49s.057-1.49-1.147-2.351-5.1-1.546-7.4-1.947-5.445-1.26-5.445-1.26a1.489,1.489,0,0,0,.745.915,6.14,6.14,0,0,1,1.088.917s.057.059.4.57a1.836,1.836,0,0,0,.917.69s.226.4.457.746a16.374,16.374,0,0,0,1.659,1.776,2.092,2.092,0,0,0,1.145.34c-.285,0-.4.174-.454.519a2.213,2.213,0,0,0,.914.575l-.114.4.742.168-.111.573,1.033.23-.231.339.976.174-.231.345.748.166-.174.35,1.031.11-.174.46h.977l-.229.4.805.116a11.426,11.426,0,0,0,2.636,1.31c1.09.294.573.634,1.95.179s.916-.345.916-.345.743.23.572.575.171.631.516,1.372.172.519.572.519a.29.29,0,0,1,.276.155" style="fill:none;stroke:#000;stroke-width:0.17288499999999998px"/><path id="path440" d="M96.327,31.267c-.018-.173-.1-.294-.535-.607a3.669,3.669,0,0,1-1.147-1.722l-.46-.11s-.112.171.06.971.285,1.145.285,1.145l-.516-.34s-.229.056-.286.458a1.188,1.188,0,0,0,0,.315M75.844,18.619l.686.116m.574,1.034.976.116m-.345.8,1.661.171m-.8.92,1.836.051m-.348.8,1.493-.166m-.69,1.316,1.373-.288m-.857.919,1.148-.286m.86.69L82.32,25.1m.689.631,1.088-.4m-.572.805,1.088-.46m-.114.914.917-.519m-.231,1.036,1.088-.576m-.457.977.916-.46m-.342.863a2.371,2.371,0,0,0,1.031-.58m-.4.861A2.423,2.423,0,0,0,88,27.74m-.114.915a4.726,4.726,0,0,0,.971-.632m10.779,1.091-.745-.176m1.659-.34-.914-.289m2.179-.569-1.322-.287m1.953-.344-1.431-.287m2.462-.115-2.35-.519m3.038.115-1.491-.345m1.491-.115-1.491-.395m2.236-.351-1.433-.23m1.89-.345-1.433-.11m1.378-.46-.862-.171m1.32-.288-.974-.115m1.433-.568L105.2,22.7m1.6-.409-1.146-.109m2.119-.8-1.373.064m1.89-1.156-.974.115m1.548-.626-1.148.057M93.261,31.388a2.176,2.176,0,0,1,.122.594c0,.383.079.641-.373.773s-.6.213-.666.643c.194-.189.343-.338.539-.174a.685.685,0,0,0,.472.149s-.3-.382.13-.514a4.766,4.766,0,0,1,1.18-.1s-.54-.254-.624-.433a3.1,3.1,0,0,1-.144-.34,2.535,2.535,0,0,1-.171-.632m2.6-.12a3.034,3.034,0,0,0,.1.7c.04.165-.25.23-.422.439,0,0,.666-.085.6.241a.9.9,0,0,0,.062.551,1.391,1.391,0,0,1,.3-.213,3.345,3.345,0,0,1,.559.129.841.841,0,0,1,.5.325.713.713,0,0,0-.388-.862,4.314,4.314,0,0,1-.661-.365m-.034-.08s-.058.231-.172-.69a1.241,1.241,0,0,0-.037-.232m28.648,15.989-1.61.065a14.893,14.893,0,0,0-1.262-3.781l.634-.229a3.624,3.624,0,0,0,.34-1.6,7.552,7.552,0,0,0-.171-1.657l-.4-.179s.571-.34.519-.569a2.829,2.829,0,0,1-.06-.574,27.276,27.276,0,0,0,3.3.152s.027.209.057.365c.065.373.171.368.117.857-.085.721-.316.519-.316,1.493a15.754,15.754,0,0,1-.114,1.834l.343.173s.231-.173.459,1.081.517,2.467.517,2.467l-1.336.06m-2.681-9.806s1.665.06,2.3.06a3.925,3.925,0,0,1-.4-.74c-.057-.231-.4-.405-.517.054s-.688.743-.859.4-.4-.4-.519.228Zm2.75,4.012s-.343.865-1.088.8a3.243,3.243,0,0,1-1.262-.35m-1.088-4.867a3.674,3.674,0,0,1,2.064-.685c.46.109,1.836.571,1.836.571s.1-.616-.231-.743c-1.319-.516-2.176-.747-2.924-.288s-.119.219-.745.46C122.793,36.307,122.808,37.04,123.022,36.908Z" style="fill:none;stroke:#000;stroke-width:0.17288499999999998px"/><path id="path442" d="M123.367,38.642c-.472.043-.516.043-.516.043s.1-.281.258-.644c.171-.387.258-.683.517-.641m3.05,1.421s.6.51.475-.089a1.863,1.863,0,0,0-.562-1.078c-.342-.433-.514-.259-.514-.259m-5.806,6.5c-.173-.351-.173-.219.045-.649s-.387-.474-.087-.815.433-1.284.947-1.545.9-.171.646-.82a1.783,1.783,0,0,1,.037-1.677c.3-.519.43-.809.733-.986a.675.675,0,0,0,.345-.432m0-.733a1.092,1.092,0,0,1,.3-.775c.343-.387.685-.772,1.16-.772a2.153,2.153,0,0,1,1.458.385c.514.387.646.387.775.9m.3.869s-.126.254.219,1.076a5.336,5.336,0,0,1,.6,2.231c.037.986-.087,1.118.343,1.5s.6.3.815.946.3.855.129.944a.346.346,0,0,0-.216.388c.044.127.087.127.087.127m-6.489-.6s-3.312.47-3.828,1.332a4.621,4.621,0,0,1-.6,1.587,4.681,4.681,0,0,0-.6,1.168s.69,2.236-.172,2.834a10.545,10.545,0,0,1-1.118.728,5.242,5.242,0,0,1-.514,5.369,9.112,9.112,0,0,1-.643-2.529m.6,2.581s.559,1.118,1.076.69.084-.822.733-1.89,3-4.385,3-4.385.9,2.445.517,3.486-.517,1.54-.169,1.758a3.905,3.905,0,0,1,2.278-.9,8.115,8.115,0,0,1,2.233-.213,7.747,7.747,0,0,1,2.492.258,7.6,7.6,0,0,0,.862.258s.087-.087.345-.39,1.5-.514,1.677.517l.256.683a14.036,14.036,0,0,1,.258-2.576c.256-1.158.082.089.385,0s.43-.6.644-1.282.6-.862.862-1.726c.181-.609.323-.81.141-1.036m-.725-.614a4.856,4.856,0,0,1-1.006-2,10.23,10.23,0,0,0-.857-1.98c-.3-.772-2.5-1.286-3.1-1.545s-.47-.045-.47-.045m.773.127.9,4.084-2.387.055m-1.173.027-1.816.04a27.125,27.125,0,0,0-1.376-4.293M120.185,57.86l.517-1.808m10.143.174a68.893,68.893,0,0,1,1.289,9.716c.082,3.872.256,3.783-.514,4.044s-1.461-.775-1.461-.775h-.174c-.688-.427-1.2-.688-1.2-.688s.171-.085.516-2.666a61.621,61.621,0,0,0,.517-7.738,4.845,4.845,0,0,0-2.581-1.2c-1.034-.172-.6-.343-2.062-.258a16.726,16.726,0,0,0-3.441.432,3.443,3.443,0,0,0-1.545.944,9.122,9.122,0,0,1-.6,1.977c-.432.944-.432,2.236-.77,5.326a19.541,19.541,0,0,0,.172,6.2c.253,1.714-.172,2.064-.517,4.894s-.517,5-.862,6.881A9.609,9.609,0,0,0,117.348,87c.172,1.208-.345,1.806-.862,2.753a6.3,6.3,0,0,0-1.033,2.834c.432-.939,1.289-1.371,2.067-.688s1.629,1.3,1.629,1.3l5.59.34a3.012,3.012,0,0,0,1.46-.773c.773-.685.86-.6,1.377-.087a1.505,1.505,0,0,0,1.373.254,3.591,3.591,0,0,1,1.118-.852c.6-.261-.429-5.076-.429-7.913s.258-10.063.519-11.785m-1.374-3.766-.258,3.18.345-.427v.772l.43-.69v.862l.256-.6v.427l.432-.427s-.432.686-.087.517.258-.09.258-.09l.172.428.43-.689.168.689.517-.773v.517l.343-.862.261.69s.084-.082.084-.859V69.73m-8.809-14.49s.731-2.537.989-3.4a15.433,15.433,0,0,0,.859-2.927c0-.685-.245-1.577.1-1.749l1.213-.062c-.629.209-.107.286-.192,1.558a10.572,10.572,0,0,1-.772,3.262c-.517,1.552-1.118,3.189-1.118,3.189m-8.171-3.962s-1.118.6-1.634-.082a2.075,2.075,0,0,1-.517-1.031A2.43,2.43,0,0,1,114.941,49c.688-.509,1.2,0,1.374-1.031s.174-1.545.69-1.8a6.154,6.154,0,0,0,.944-.6l.6-.862" style="fill:none;stroke:#000;stroke-width:0.17288499999999998px"/><path id="path444" d="M116.6,54.512a10.024,10.024,0,0,1-2.837-1.2c-1.4-.89-4.971-5.816-5.49-6.432s-.43-.238-1.386-.492-.86-.479-.86-.479l.03-.03c-.372.243-.343.092-.524-.1s.258-.38.427-.517.313-.156.43-.474.291-.681.291-.681a4.2,4.2,0,0,1,2.236,1.118,25.113,25.113,0,0,0,2.581,2.41c1.289,1.207,2.668,2.32,2.668,2.32m-7.853-5.219a11.715,11.715,0,0,1-1.235-.52c-.285-.171-.8-.114-.631.232a1.478,1.478,0,0,1,.145.864c0,.368,0,.681.315.708a6.165,6.165,0,0,0,.745,0m.373-.166s.144-.082.373-.2a1.637,1.637,0,0,1,.69-.229m-2.467-.75a2.694,2.694,0,0,0,.487.2c.346.112.977.231.977.231m-1.436.059a3.28,3.28,0,0,0,1.031.229m-1,.226a1.813,1.813,0,0,0,.8.119M104.125,44s2.861-.04,3.545-.02.69-.584,0-.584H104.1c-.685,0-.969.564.023.6Zm1.376,2.087s.025.646.025.9.494.541.494.017C106.02,46.5,106,46,106,46m.3-2.668L105.95,25.4h-.342l-.346,17.929m28.509,2.581a.611.611,0,0,1-.6-.472,5.245,5.245,0,0,1-.087-.86s-.472-.131-.343-.3.216.05.084-.127-.516-.474,0-.509.905-.045,1.034-.045.171,0,.514.383.517.3.646,1.118a13.537,13.537,0,0,1-.042,4.129m-.127.6c-.475,1.89-1.247,4.861-1.977,5.589s-1.29.6-1.377-.3-.126-1.334-.126-1.334m1.758-9.246.472-.174m-.73-.3.517-.173m-.174,1.023.43-.119m-.388.554.388-.085M133,55.2s1.461,12.551,1.632,13.5-.6.171-.516,1.028.862,1.374.084,1.98-1.374.686-1.458,2.144.258,13.417.514,15.39.261,2.235.947,2.926a4.593,4.593,0,0,1,.946,1.292m-23.17-.216a3.668,3.668,0,0,1,.817-.726,1.467,1.467,0,0,0,.86-1.117,3.325,3.325,0,0,1,.944-1.635,5.756,5.756,0,0,0,.946-3.523c.085-1.632.343-8.511.427-11.1s-.169-13.756,0-14.96,0-1.464.09-1.891a2.921,2.921,0,0,0-.346-1.284m17.8-7.788-.475-.045s-6.148.388-6.277.43v.345l6.836-.171m0-.559.475-.045s6.146.388,6.278.43v.345l-6.837-.171m-.475-.691.214-3.4m.606,3.441-.044-3.227m-.087-3.349.044.857m-.519.042V42.6m.236.122a.429.429,0,1,0-.425-.425A.427.427,0,0,0,133.488,42.724Zm-4.216,15.581c0,.942-1.142,1.7-2.553,1.7s-2.554-.762-2.554-1.7c0,0,1.7.214,2.511.214s2.6-.214,2.6-.214Zm13.418,0c0,.942-1.143,1.7-2.552,1.7s-2.556-.762-2.556-1.7c0,0,1.7.214,2.509.214S142.69,58.305,142.69,58.305Zm-15.37.119-.559-8.471-2.624,8.3s2.281-.126,5.12-.039L126.979,50m13.758,8.424-.559-8.471-2.623,8.3c1.89-.126,4.039-.039,5.115-.039L140.392,50" style="fill:none;stroke:#000;stroke-width:0.17288499999999998px"/><path id="path446" d="M62.74,42.669a1.478,1.478,0,0,0,.631-.658,3.6,3.6,0,0,0,.087-1.486c-.028-.832-.057-1-.057-1s-.487.228-.517-.231a6.979,6.979,0,0,1,.027-.974s.256-.022.4-.514a2.871,2.871,0,0,1,1.2-1.491,4,4,0,0,0,1-.6,1.25,1.25,0,0,0,.626.773c.457.171,1.118.171,1.232,1.118a3.813,3.813,0,0,1-.085,1.659,6.338,6.338,0,0,0-.315,1.662,4.269,4.269,0,0,0,.2,2.3l-.085-.231a10.591,10.591,0,0,1-.2,1.747c-.172.715.027.944-.542.944s-1.547.027-1.92.059-.487.231-.862-.6a23.892,23.892,0,0,1-.832-2.467l.005-.005Zm4.273-2.521a1.2,1.2,0,0,1-1.26.976,2.278,2.278,0,0,1-1.289-.231M62.74,42.644a8.09,8.09,0,0,1-2.092.858,8.921,8.921,0,0,0-1.346.318c.658-1.322.658-2.351,1.433-3.18a10.087,10.087,0,0,1,1.088-1.068,7.014,7.014,0,0,1-.06-1.513c.087-.487-.027-.577.087-.89s.03-.4.487-.574a4.4,4.4,0,0,1,.487-.174,1.465,1.465,0,0,1,.656-.454,4.36,4.36,0,0,1,1.257-.318,7.379,7.379,0,0,1,1.322.059,1.559,1.559,0,0,1,1.346.515,4.348,4.348,0,0,1,.743,3.408,5.966,5.966,0,0,1,.946,2.067c.231.658-.228.427.286.6a.566.566,0,0,1,.348.36c.04.058.067-.015.281.525a4,4,0,0,1,.4,1.321m-3.224-1.431a2.254,2.254,0,0,0,1.316,1,17.481,17.481,0,0,0,1.779.435M67.07,35.79a1.112,1.112,0,0,0-.256-.372c-.144-.114-.087.2-.316-.023s-.285.11-.372,0c-.3-.4-.343,0-.542-.231s-.231.2-.517.058-.086.141-.4.029-.2.112-.482.08-.258.064-.432.064a.444.444,0,0,0-.286.11.893.893,0,0,0-.372.082l-.085.285-.06.46m.167-.8a9.3,9.3,0,0,1,.517-.947,1.272,1.272,0,0,1,1.232-.6c.772,0,1.118-.087,1.632.653.514.755.313.723.313.723M55.491,50.1a1.512,1.512,0,0,1,1.89,1.831c-.231,1.609-.457,2.526-1.319,2.812m-1.2-6.934a9.549,9.549,0,0,1-.971-2.126c-.231-.912-.06-.569.457-1.2a9.438,9.438,0,0,1,.976-1.036c.343-.167.286-.34.057-.512s-.057.112.169-.114-.228-.4-.228-.4-.172.055.169-.06-.169-.459-.169-.459-.114.059.228-.231-.688-.517-1.2-.281-.455-.174-.283-.86a1.944,1.944,0,0,1,.457-1.036c.286-.4-.286-.109-.629.346a5.379,5.379,0,0,0-.516,1.431,11.119,11.119,0,0,1-.743,2.181c-.46.745-.06,2.812.34,6.019s1.322,4.986,2.41,5.557M55.262,41.84h-.8m.859.516-.574-.057m.574.688-.631.055m-.114,1.264s4.184,47.978,4.3,48.669.633.46.633.46L54.974,43.906m18.13,5.23a2.073,2.073,0,0,1,.946,1.376,40,40,0,0,0,4.6-2.879c1.118-.9.989-.646,1.635-1.16a3.9,3.9,0,0,1,1.843-.862c.947-.256,1.416-.3,1.8-.428s.733-.082.69.172-.044.131-.044.131.645.47.9.689.561.767.045.429a9.618,9.618,0,0,1-.862-.648s-.087.691-.217.691-.079-.607-.079-.607-.214-.079-.691.177a3.865,3.865,0,0,1-1.331.293s-.132.137.3.35.86.467.688.641-.173.172-.688-.037-.171-.172-.73-.129-1.076-.3-1.508.511-2.837,4.258-4.9,5.252c-.688.291-.772.47-1.545.172a5.1,5.1,0,0,1-2.278-1.593c.082-1.165,0-2.673,1.416-2.541v0Zm11.437-3.7s-.087-.087-.559.044m.3.51.39-.035M59.217,43.9c-.385-.067-.7.187-1.262,1.037-.862,1.316-2.464,4.752-2.464,4.752" style="fill:none;stroke:#000;stroke-width:0.17288499999999998px"/><path id="path448" d="M60.248,54.909a2.561,2.561,0,0,1-.231-2.119c.152-.6.231-.576-.114-.864s-.286-1.717-.286-1.717a2.786,2.786,0,0,0-.4.976c-.112.569-1.044,3.9-1.044,3.9-.514,1.677-1.535,3.041-2.005,1.359m4.082-1.533a4.926,4.926,0,0,0,1.493-.166,2.4,2.4,0,0,1,2.176,0,8.9,8.9,0,0,0,3.322.683c.971,0,.454.288,1.259-.288s1.717-.286,1.2.628c.742.691.685,1.148.171,1.493,0,0,1.948,7.622,1.948,9.053a9.555,9.555,0,0,0-3.267.462l-.117-9.634s-2.236.233-3.324.288-.457-.34-1.659-.914a6.741,6.741,0,0,0-3.153-.288s.343-.338.057-1.317m9.09-.139s.174-3.7.39-4.988a23.805,23.805,0,0,0,.86,5.241c.3,1.25.73,2.586,1.118,1.548.385-1.023,1.031-3.781,1.031-3.781m.732-3.314a1.975,1.975,0,0,0-.73-1.843c-.862-.9-1.677-3.009-2.452-3.14m-1.806,22.4s-.432,1.374.174,1.545.86.346,1.118.174.258-.261.859-.084a4.917,4.917,0,0,0,1.2.174,12.183,12.183,0,0,0-.089-2.326m-.773,2.236a3.662,3.662,0,0,1,.087,2.062,19.45,19.45,0,0,0-.6,4.735,8.765,8.765,0,0,0,.514,2.663s-.258.085-.514,2.407.43,9.455.43,9.455a7.884,7.884,0,0,1,1.2,2.236c.432,1.292.172.6.172.6s-1.546-.941-2.579-.427a6.65,6.65,0,0,1-4.9.427c-1.633-.683-3.27-1.975-4.127-1.629.6-2.924-.516-5.16-.171-5.674-.691-.691-.775-.773-.517-1.891a4.894,4.894,0,0,0-.69-2.752s.171.089.69-.947a15.54,15.54,0,0,1-.258-5.5s-2.067-5.5-1.118-9.115a22.234,22.234,0,0,1,.084-4.732c.256-1.975.517-3.267,1.546-4.385m-4.9-.6L52.6,75.491s.084.345.859.517c0,0-.43,4.73-.517,5.848a6.738,6.738,0,0,0,.862.683s-.862,4.387.776,6.277,2.663,4.127,3.525,4.04a6.4,6.4,0,0,0,.77-.085M53.454,76a19.268,19.268,0,0,0,2.064.951c1.118.427,1.2.688.343,1.458s-3.438,3.354-2.753,3.7m.691.43s2.151.688,1.461,1.811-1.719,1.89-1.461,2.837m2.753-9.721a23.65,23.65,0,0,1,.258-7.393M59.389,92.6c.432-.683.775-1.282,1.2-1.455M54.746,41.224l-.214-1.72m-.216,1.767-.129-1.332m.258-.7-.258-2.276-.388.214.3,2.235m.216-1.676a3.815,3.815,0,0,0,1.545-1.59c.129-.393.129-.646-.947-.087a14.81,14.81,0,0,0-2.578,1.677c-.43.385-.388.772-.042.725a7.883,7.883,0,0,0,1.5-.43m2.022-2.312h-.905c-.6,0-.643-.179-.643-.179a2.131,2.131,0,0,0-.39-.726,3.738,3.738,0,0,0-.343-1.036,1.809,1.809,0,0,0-.042-1.16c.474-.082.688-.472.9-.944s.129-.3-.3-.339a1.145,1.145,0,0,0-1.459.983,1.578,1.578,0,0,0-.559,1.592c-.255.773-.042.862.085,1.036a.688.688,0,0,0,.037.641,1.274,1.274,0,0,0,0,1.289c.219.388.261-.385.047.132a4.214,4.214,0,0,0-.3,1.374m5.418,12.766c.045,1.975.343,5.073-.216,5.8m13.715-1.374c-.171-2.062-.042-5.76.649-6.578.573-.681,1.8-.6,1.972.174m-5.2-5.286s-.087.941-.259,2.059-.646.986-1.418,1.036c-.348.012-1.891.012-3.093.082-.778.045-.731-.132-1.118-1.078a21.134,21.134,0,0,1-.778-2.788m2.795,3.784c-.256.04-.387-.214-.127-.865m1.116-.469c.43.089.472.129.514.688s-.042.383-.042.383m3.227,45.963c.6.777,2.037,2.2,3.281,2.146,1.243-.035,1.188-.035,1.146-.377s0-.132,0-.132l-.169-.132s.385.09-.174-.469a7.1,7.1,0,0,1-.817-.944,3.127,3.127,0,0,0,.6-.174,2.616,2.616,0,0,0,1.719-1.488s-1.458-.405-1.719-3.068-.169-6.621-.259-9.887.259-8.511.6-12.469-.174-12.637-.174-12.637" style="fill:none;stroke:#000;stroke-width:0.17288499999999998px"/><path id="path450" d="M73.365,94.324a.354.354,0,0,1-.3,0c-.129-.085-.3.474-.475.214s-.345.131-.514-.043-.216.043-.472-.126a11.609,11.609,0,0,1-.947-1.031m-.129.3s-.129-.606.385-.69.905.084,1.461.69c0,0-.559-.735-.04-.646m-2.151.346a.688.688,0,0,1,.6-.775c.345-.043.859-.09.859-.09m1.376,1.851-.387-.388m-.171.47-.219-.345m-.34.345-.09-.345m-1.587-.987a1.682,1.682,0,0,1-.778-.511M63.86,92.4c-1.148.805-1.317,1.322-2.293,1.5s-.862.114-1.376-.231-.457-.341-.283-.691a1.549,1.549,0,0,0,2.121.286c.914-.46.8-.569.8-.569s0-.226-.343-.517-.4-.228-.862.06-.457.452-.457.452-.057-.4.111-.567a4.115,4.115,0,0,1,.4-.35.317.317,0,0,0-.323-.082,1.7,1.7,0,0,0-.884.651c-.112.231-.549.6-.112.688m.248-.3c-.084.1-.285.335-.174.4.219.117.1.06.1.06m.278-.395c-.224.347-.256.432-.02.474m.333-.375c-.258.248-.365.363-.171.363s.032-.03.352-.055.2,0,.606-.214a5.188,5.188,0,0,0,.684-.444m.526-.11a2.477,2.477,0,0,0-.772-.663,3.122,3.122,0,0,0-.646-.35l-.194.171M60.206,92.6l-.281.306m55.572-.251s-.991,1.153-.213,1.712,1.073,1.036,1.932.469a4.055,4.055,0,0,0,1.247-1.073,2.292,2.292,0,0,1,.641-.559m6.154.137c1.418,1.157,1.977,1.5,2.966,1.413a3.549,3.549,0,0,0,1.118-.171l-.174-.515s.132-.26-.214-.509-.988-.648-.988-.648m-.6-.311a2.806,2.806,0,0,0-1.075.78,2.307,2.307,0,0,0,.517.428,1.237,1.237,0,0,0,.775.3c.211,0,.079-.039.345.04.251.089.293.261.469.089s.127-.089.3-.089.216.089.3-.04a2.358,2.358,0,0,1,.216-.258m-.728.214-.345-.214m.817.174-.3-.179m-.817.219-.172-.164" style="fill:none;stroke:#000;stroke-width:0.17288499999999998px"/><path id="path452" d="M117.733,93.675c-.688.863-.9,1.158-1.076.905s-.345-.211-.345-.211-.084.037-.214-.087-.26-.127-.385-.435c-.129-.291-.387-.291-.171-.641s.427-.643.427-.643.9.34.688.944-.126.472-.126.472a1.367,1.367,0,0,0,.472-.388c.256-.3.472-.261.685-.04m-.126-1.595-.559.731a3.259,3.259,0,0,0-.947-.467l.472-.649m1.334.731-.387.559a1.06,1.06,0,0,1,.516.516c.13.346.087.179.087.179a.7.7,0,0,1,.174-.263c.125-.129.385-.475.385-.475m-2.191,1.456.129-.124m-.606-.089.132-.214m-.517-.256.172-.166m-40.113.521a2.431,2.431,0,0,0,1.175-1.488c.114-.516.144-1.061-.517-1.232s-.976-.373-1.175,0-.631,1-.631,1l.345.571.2-.114v-.139l.229-.179.144.206.141-.087.231.291-.114.139.085.174-.256.2-.144-.114-.229.223.427.544h.09ZM72.89,92.662s.085.117.487.6a11.847,11.847,0,0,1,1.29,2.986,3.983,3.983,0,0,1,.372,1.689,2.8,2.8,0,0,1,1.344-.4,12.822,12.822,0,0,1,1.727-.022.874.874,0,0,0,1.008-.356c.286-.432,1.054-2-.318-2.653a2.658,2.658,0,0,0-2.762.077l-.172-.159A2.516,2.516,0,0,0,77.5,92.3c.286-1.5-1.433-1.8-1.95-1.836a.937.937,0,0,0-.971.492m1.778,4.054a2.485,2.485,0,0,1,1.9-.057c.484.214.936.507.683,1.145s-.278,1.006-.7.944-1.18-.089-1.18-.089l-.259-.616.209-.092.114.087.276-.082-.077-.231.157-.07-.095-.35-.184.012-.089-.171-.316.087.008.181-.321.05-.183-.668.049-.073Zm-1.406,3.016s-.144.281-.6-.658S73.2,94.841,73.2,94.841m4.216-2.008c.174-.082.2-.032.4.028s.231.28.432.2.487-.313.286.082-.231.316-.144.549.025.224.228.147c.2-.094.343-.122.343.109s-.027.264-.283.288a.587.587,0,0,1-.345-.024m-.746-.79a.244.244,0,1,0-.243-.241A.243.243,0,0,0,77.59,93.42Zm.46.082a.241.241,0,0,0,.244-.241.244.244,0,0,0-.487,0A.24.24,0,0,0,78.05,93.5Zm-.144.519a.244.244,0,1,0-.241-.241A.242.242,0,0,0,77.906,94.021Zm-.517-.028a.243.243,0,1,0-.243-.245A.245.245,0,0,0,77.389,93.993Zm1.2-.146a.238.238,0,0,0,.241-.241.242.242,0,1,0-.241.241Zm.574.777a.243.243,0,0,0,.241-.25.243.243,0,1,0-.241.25Z" style="fill:none;stroke:#000;stroke-width:0.17288499999999998px"/><path id="path454" d="M79.6,95.024a.239.239,0,0,0,.241-.241.243.243,0,1,0-.241.241Zm.2.549a.243.243,0,1,0-.241-.241A.244.244,0,0,0,79.8,95.573Zm.06.631a.243.243,0,1,0-.243-.241A.245.245,0,0,0,79.856,96.2Zm-.06.569a.243.243,0,0,0,.244-.241.243.243,0,0,0-.485,0A.243.243,0,0,0,79.8,96.773Zm-.255.544a.237.237,0,0,0,.238-.241.241.241,0,0,0-.238-.241.244.244,0,0,0-.244.241A.24.24,0,0,0,79.541,97.317Zm-1.779-4.556a.244.244,0,0,0,.243-.241.244.244,0,1,0-.243.241Zm.084-.519A.243.243,0,0,0,78.09,92a.243.243,0,1,0-.244.238Zm-.054-.484a.24.24,0,1,0-.241-.241A.242.242,0,0,0,77.792,91.758Zm-.373-.46a.241.241,0,1,0,0-.482.241.241,0,0,0,0,.482Zm17,18.125c-18.572,0-28.663-6.757-28.663-6.757l1.948-3.1-13.527-.119a6.406,6.406,0,0,0,1.374,2.412c1.148,1.374-.114,1.6-2.979,1.719L52.11,102.2c-2.062.462-2.293-.109-2.979-1.374s-1.833-4.012-2.864-5.614c3.209-1.834,3.44-1.488,7.336-1.605,1.18-.035,3.495-.087,6.223-.149M62.7,93.4c2.3-.042,4.712-.082,6.878-.114m9.031.06c2.22.121,4.265.494,3.651,2.327-.8,2.4-.685,4.012-1.716,6.074,6.419,1.255,7.11,1.918,13.757,1.918m-44.713-1.918c-.688-1.257-.229-2.176,4.586-2.29m-1.948,2.862c1.719-.11,2.521-1.605,3.669.228m11.693-3.09c.917-1.61,1.034-3.212,2.867-2.41s10.779,3.329,11.81-1.374M68.848,97.158c-.69,1.836,2.639,3.1,11.7,4.586m13.872,7.679c18.575,0,28.666-6.757,28.666-6.757l-1.779-3.14,13.358-.077a6.429,6.429,0,0,1-1.377,2.412c-1.147,1.374.115,1.6,2.981,1.719l.458-1.374c2.064.455,2.29-.116,2.981-1.381s1.833-4.012,2.861-5.614c-3.209-1.834-3.438-1.488-7.335-1.605-1.173-.035-3.449-.087-6.146-.142m-13.93-.221c-1.321-.01-2.33,0-2.851.018-2.753.111-6.536,0-5.734,2.4s.8,4.184,1.833,6.248c-6.421,1.262-7.224,1.749-13.872,1.749m44.714-1.918c.691-1.257.231-2.176-4.583-2.29m1.95,2.862c-1.722-.11-2.524-1.605-3.672.228m-11.7-3.09c-.914-1.61-1.031-3.212-2.864-2.41s-10.779,3.329-11.81-1.374m13.415,1.488c.688,1.836-2.693,2.641-11.582,4.76" style="fill:none;stroke:#000;stroke-width:0.17288499999999998px"/></g></g></g></g></svg>