<svg xmlns="http://www.w3.org/2000/svg" viewBox="0 0 197.414 124.616"><g id="Layer_2" data-name="Layer 2"><g id="North_Carolina" data-name="North Carolina"><g id="North_Carolina-2" data-name="North Carolina"><rect id="rect172" x="0.515" y="0.615" width="196.899" height="61.791" style="fill:#bf0a30"/><rect id="rect603" x="0.515" y="62.422" width="196.899" height="61.733" style="fill:#fff"/><rect id="rect170" x="0.515" y="0.605" width="63.385" height="123.55" style="fill:#002868"/><path id="path607" d="M9.995,29.592A37.57,37.57,0,0,0,3.142,34.3l4.816.1c-.057.437-1.109,5.879-1.208,6.264a29.7,29.7,0,0,1,10.293-4.784c1.966-.532-.155-2.479-.359-3a12.876,12.876,0,0,0-3.368,2.154" style="fill:#ffca00;stroke:#002868;stroke-width:0.250283px"/><path id="path628" d="M13.38,34.992c7.387-6.595,31.83-6.438,38.637.2a81.15,81.15,0,0,0,4.4-7.242c-13.366-9.127-37.315-7.563-47.367-.361l.12.43Z" style="fill:#ffca00;stroke:#002868;stroke-width:0.250283px"/><path id="path613" d="M14.65,32.13C14.613,32.036,12.5,28.2,12.5,28.2l3.455,2.969-.8-4.338,2.263,3.711" style="fill:none;stroke:#002868;stroke-linecap:round;stroke-linejoin:round;stroke-width:0.7821349999999999px"/><path id="path618" d="M27.182,25.511c.015-1.171.978-1.25,1.641-1.048a1.361,1.361,0,0,1,.127,1.769l-.936.778a2.149,2.149,0,0,0-.658,1.34l2.114-.079" style="fill:none;stroke:#002868;stroke-linecap:round;stroke-linejoin:round;stroke-width:0.7821349999999999px"/><path id="path621" d="M31.021,24.26a1.1,1.1,0,0,0-.606.906,9.554,9.554,0,0,0,.072,2.152,1.409,1.409,0,0,0,.462.833.9.9,0,0,0,.879.023,1.253,1.253,0,0,0,.543-.811,7.011,7.011,0,0,0,.034-2.31,1.344,1.344,0,0,0-.485-.788A1.172,1.172,0,0,0,31.021,24.26Z" style="fill:none;stroke:#002868;stroke-linecap:round;stroke-linejoin:round;stroke-width:0.7821349999999999px"/><path id="path629" d="M41.121,25.386a2.569,2.569,0,0,0,1.044-.749l-.594,4.08" style="fill:none;stroke:#002868;stroke-linecap:round;stroke-linejoin:round;stroke-width:0.7821349999999999px"/><path id="path630" d="M44.213,25.177c.049.018,2.011.574,2.011.574a17.358,17.358,0,0,0-2.381,3.515" style="fill:none;stroke:#002868;stroke-linecap:round;stroke-linejoin:round;stroke-width:0.7821359999999999px"/><path id="path631" d="M47.937,26.193l1.945.935a12.124,12.124,0,0,0-2.944,3" style="fill:none;stroke:#002868;stroke-linecap:round;stroke-linejoin:round;stroke-width:0.7821359999999999px"/><path id="path632" d="M52.868,28.646l-1.274-.728-1.126,1.487c.809-.156,1.353.083,1.586.8a1.333,1.333,0,0,1-1.207,1.676c-.737-.017-1.117-.411-1.221-1.24" style="fill:none;stroke:#002868;stroke-linecap:round;stroke-linejoin:round;stroke-width:0.7821349999999999px"/><path id="path614" d="M18.5,30.015s.123-4.429.169-4.424c.02-.179,2.566,3.672,2.566,3.672h0" style="fill:none;stroke:#002868;stroke-linecap:round;stroke-linejoin:round;stroke-width:0.7821359999999999px"/><path id="path615" d="M18.582,28.438l1.729-.5" style="fill:none;stroke:#002868;stroke-linecap:round;stroke-linejoin:round;stroke-width:0.7821359999999999px"/><path id="path678" d="M8.485,71.8l2.527.033-.08-10.671,4.844,10.728h2.63V56.2l-2.567.033.039,9.925-4.528-9.88-2.826.033Z" style="fill:#ffca00"/><path id="path680" d="M54.672,61.177h2.691l-.032-1.383a4.686,4.686,0,0,0-3.566-4.131,5.746,5.746,0,0,0-3.681.32,6.2,6.2,0,0,0-2.777,3.551,17.755,17.755,0,0,0,.073,8.63,5.559,5.559,0,0,0,3,3.548,6.9,6.9,0,0,0,3.66.122,5.045,5.045,0,0,0,2.757-2.515,7.216,7.216,0,0,0,.7-3.465l-2.809.034a6.957,6.957,0,0,1-.248,1.685,1.893,1.893,0,0,1-2.029,1.246,2.159,2.159,0,0,1-1.828-.917,4.11,4.11,0,0,1-.82-2.25,12.765,12.765,0,0,1,.3-5.038,2.32,2.32,0,0,1,3.11-1.887,1.958,1.958,0,0,1,1.339,1.208A5.129,5.129,0,0,1,54.672,61.177Z" style="fill:#ffca00"/><path id="polygon693" d="M39.047,72.32l-6.033-4.571-6.192,4.542,2.453-7.113L23,60.676l7.549.174,2.312-7.325,2.213,7.221,7.707-.024L36.6,65.01Z" style="fill:#fff"/><path id="path668" d="M13.382,35.018h0" style="fill:none;stroke:#000;stroke-width:0.250283px"/><path id="path679" d="M13.4,35c.266.264.791.2,1.516.065.579-.068,1.238-.094,1.757-.153.859.069,1.351.265,1,.662" style="fill:none;stroke:#002868;stroke-width:0.250283px"/><path id="path685" d="M55.436,29.825a37.607,37.607,0,0,1,6.853,4.71l-4.816.1c.057.438,1.108,5.88,1.208,6.264a29.719,29.719,0,0,0-10.293-4.783c-1.966-.532.225-2.513.43-3.031a9.63,9.63,0,0,1,3.3,2.188" style="fill:#ffca00;stroke:#002868;stroke-width:0.250283px"/><path id="path689" d="M52.048,35.251h0" style="fill:none;stroke:#000;stroke-width:0.250283px"/><path id="path690" d="M51.973,35.229a2.868,2.868,0,0,1-1.46.066,15.891,15.891,0,0,0-1.717-.182c-.992.006-1.351.41-1.038.691" style="fill:none;stroke:#002868;stroke-width:0.250283px"/><path id="path622" d="M33.312,25.777c.767.013,1.509.043,1.509.043" style="fill:none;stroke:#002868;stroke-linecap:round;stroke-linejoin:round;stroke-width:0.563137px"/><path id="path624" d="M35.668,24.8l-.09,3.564" style="fill:none;stroke:#002868;stroke-linecap:round;stroke-linejoin:round;stroke-width:0.563139px"/><path id="path627" d="M37.259,28.525c.214-2.558-.129-2.649-1.4-2.644" style="fill:none;stroke:#002868;stroke-linecap:round;stroke-linejoin:round;stroke-width:0.563139px"/><path id="path661" d="M33.91,24.67l-.056,2.963c-.008.562.171.722.673.722" style="fill:none;stroke:#002868;stroke-linecap:round;stroke-linejoin:round;stroke-width:0.563138px"/><path id="path616" d="M20.948,25.058l1.878,1.858.34,2.017" style="fill:none;stroke:#002868;stroke-linecap:round;stroke-linejoin:round;stroke-width:0.7821359999999999px"/><path id="path617" d="M23.9,24.419l-1.029,2.586" style="fill:none;stroke:#002868;stroke-linecap:round;stroke-linejoin:round;stroke-width:0.7821359999999999px"/><path id="path671" d="M10.154,96.344A37.589,37.589,0,0,1,3.3,91.738l4.816-.1c-.058-.428-1.109-5.75-1.209-6.125A30.032,30.032,0,0,0,17.2,90.194c1.965.521-.155,2.424-.359,2.93a12.846,12.846,0,0,1-3.368-2.106" style="fill:#ffca00;stroke:#002868;stroke-width:0.250283px"/><path id="path683" d="M13.54,91.063c7.387,6.45,31.829,6.3,38.637-.2a78.711,78.711,0,0,1,4.4,7.082c-13.365,8.925-37.314,7.4-47.366.352l.119-.42Z" style="fill:#ffca00;stroke:#002868;stroke-width:0.250283px"/><path id="path686" d="M13.382,91.115h0" style="fill:none;stroke:#000;stroke-width:0.247498px"/><path id="path687" d="M13.561,91.059c.265-.259.791-.195,1.516-.064.578.067,1.238.092,1.757.149.859-.067,1.351-.258,1-.647" style="fill:none;stroke:#002868;stroke-width:0.250283px"/><path id="path693" d="M55.6,96.116a37.552,37.552,0,0,0,6.853-4.606l-4.816-.1c.057-.427,1.109-5.75,1.208-6.125a30.037,30.037,0,0,1-10.293,4.678c-1.966.52.226,2.457.43,2.963a9.64,9.64,0,0,0,3.3-2.139" style="fill:#ffca00;stroke:#002868;stroke-width:0.250283px"/><path id="path694" d="M52.048,90.888h0" style="fill:none;stroke:#000;stroke-width:0.247498px"/><path id="path695" d="M52.133,90.831a2.926,2.926,0,0,0-1.46-.063,16.448,16.448,0,0,1-1.717.177c-.993-.006-1.351-.4-1.038-.675" style="fill:none;stroke:#002868;stroke-width:0.250283px"/><path id="path646" d="M32.64,99.522c.318-1.065,1.043-.934,1.69-.789a1.3,1.3,0,0,1,.1,1.845l-.91.675a1.533,1.533,0,0,0-.753,1.229l2.2-.043" style="fill:none;stroke:#002868;stroke-linecap:round;stroke-linejoin:round;stroke-width:0.7821359999999999px"/><path id="path657" d="M30.415,99.378a1.77,1.77,0,0,0,.8-.728l-.171,3.848" style="fill:none;stroke:#002868;stroke-linecap:round;stroke-linejoin:round;stroke-width:0.7821349999999999px"/><path id="path676" d="M25.554,97.685c0,.023-.672,4.02-.7,4.183l2.136.3" style="fill:none;stroke:#002868;stroke-linecap:round;stroke-width:0.7821359999999999px"/><path id="path675" d="M23.047,101.655,23.7,97.3" style="fill:none;stroke:#002868;stroke-linecap:round;stroke-linejoin:round;stroke-width:0.7821349999999999px"/><path id="path672" d="M15.418,99.37l1.63-4.032a6.084,6.084,0,0,1,1.659.8,1.223,1.223,0,0,1-.819,1.852,5.5,5.5,0,0,1-1.508-.55" style="fill:none;stroke:#002868;stroke-linecap:round;stroke-width:0.7821349999999999px"/><path id="path654" d="M42.067,98.553a2.681,2.681,0,0,0,.725-1.114l.833,4.279" style="fill:none;stroke:#002868;stroke-linecap:round;stroke-linejoin:round;stroke-width:0.7719509999999999px"/><path id="path655" d="M43.947,97.322c.052-.013,2.132-.722,2.132-.722a21.886,21.886,0,0,0,.074,4.418" style="fill:none;stroke:#002868;stroke-linecap:round;stroke-linejoin:round;stroke-width:0.7821359999999999px"/><path id="path656" d="M47.172,96.233l2.132-.814a16.518,16.518,0,0,0,.1,4.429" style="fill:none;stroke:#002868;stroke-linecap:round;stroke-linejoin:round;stroke-width:0.7821349999999999px"/><path id="path677" d="M52.24,94.6a.934.934,0,0,0-1.14-.4,1.522,1.522,0,0,0-.609,1.247,4.148,4.148,0,0,0,.488,1.8,1.613,1.613,0,0,0,.957.963.853.853,0,0,0,.941-.151,1.725,1.725,0,0,0,.307-1.094,1.43,1.43,0,0,0-.773-1.135.931.931,0,0,0-.873-.04A1.288,1.288,0,0,0,51,97.2" style="fill:none;stroke:#002868;stroke-linecap:round;stroke-linejoin:round;stroke-width:0.7821349999999999px"/><path id="path706" d="M35.5,99.867c.767-.035,1.509-.052,1.509-.052" style="fill:none;stroke:#002868;stroke-linecap:round;stroke-linejoin:round;stroke-width:0.563137px"/><path id="path709" d="M36.023,98.726l.14,2.959c.029.562.219.71.719.679" style="fill:none;stroke:#002868;stroke-linecap:round;stroke-linejoin:round;stroke-width:0.563138px"/><path id="path707" d="M37.509,98.7l.421,3.541" style="fill:none;stroke:#002868;stroke-linecap:round;stroke-linejoin:round;stroke-width:0.563139px"/><path id="path708" d="M39.618,102.168c-.154-2.562-.507-2.606-1.761-2.428" style="fill:none;stroke:#002868;stroke-linecap:round;stroke-linejoin:round;stroke-width:0.563139px"/><path id="path659" d="M11.608,97.57s3.264-3.344,3.3-3.309c.144-.125-.642,4.586-.642,4.586h0" style="fill:none;stroke:#002868;stroke-linecap:round;stroke-linejoin:round;stroke-width:0.7821359999999999px"/><path id="path660" d="M12.8,96.405l1.693.792" style="fill:none;stroke:#002868;stroke-linecap:round;stroke-linejoin:round;stroke-width:0.7821359999999999px"/><path id="path673" d="M18.971,100.815c0-.023,1.188-4.326,1.188-4.326.509.121,1.04.194,1.527.362a.953.953,0,0,1,.657,1.181,1.684,1.684,0,0,1-.577.977" style="fill:none;stroke:#002868;stroke-linecap:round;stroke-width:0.7821349999999999px"/><path id="path674" d="M19.635,98.592,21.26,99a.829.829,0,0,1,.544.55,9.828,9.828,0,0,1-.192,1.859" style="fill:none;stroke:#002868;stroke-linecap:round;stroke-linejoin:round;stroke-width:0.7821349999999999px"/><rect x="0.537" y="0.537" width="196.313" height="123.542" style="fill:none;stroke:#3e3c3c;stroke-width:1.07393px"/></g></g></g></svg>