<svg xmlns="http://www.w3.org/2000/svg" viewBox="0 0 193.512 118.992"><g id="Layer_2" data-name="Layer 2"><g id="Ohio"><g id="Ohio-2" data-name="Ohio"><polygon points="102.978 51.033 160.235 51.033 179.66 34.235 38.045 18.662 102.978 51.033" style="fill:#fff"/><polygon points="37.88 99.936 179.714 84.339 160.019 67.033 103.305 67.033 37.88 99.936" style="fill:#fff"/><polygon points="179.771 84.618 179.714 84.625 37.88 100.127 0.149 118.992 193.512 96.681 179.771 84.618" style="fill:#c1133d"/><polygon points="179.66 34.426 179.716 34.432 193.512 22.311 0.149 0 38.045 18.948 179.66 34.426" style="fill:#c1133d"/><polygon points="119.141 59.115 103.305 67.033 160.019 67.033 160.173 67.033 151.172 59.131 160.389 51.033 160.235 51.033 102.978 51.033 119.141 59.115" style="fill:#c1133d"/><path d="M103.305,67.415,119.141,59.5l-16.163-8.081L37.97,18.948,0,0V118.992l37.806-18.865Zm-86.3,17.571,3.364-.3.757-3.291,1.322,3.107,3.364-.3-2.546,2.218,1.322,3.107-2.9-1.737-2.547,2.218.756-3.291Zm19.827,5.643-.963,3.237-1.123-3.185-3.376.084,2.682-2.052-1.123-3.185,2.78,1.916,2.683-2.052-.964,3.237,2.78,1.917Zm15.738.341-2.376-2.4L47.179,90.09l1.547-3-2.377-2.4,3.334.544,1.547-3,.513,3.338,3.333.543-3.016,1.52ZM81.177,70.712l-1.5-3.026-3.341.491,2.415-2.361-1.5-3.026,2.991,1.567L82.659,62l-.566,3.329,2.991,1.568-3.341.49ZM65.36,57.014,67,54.282v3.377L70.212,58.7,67,59.746v3.377l-1.653-2.732L62.4,61.435,64.392,58.7,62.3,55.971ZM100.212,58.7,97,59.746v3.377l-1.771-2.732-3.068,1.044,2.01-2.732-1.987-2.732,3.041,1.043L97,54.282v3.377ZM79.678,49.719l1.5-3.026.566,3.33,3.341.49L82.093,52.08l.566,3.329-2.415-2.36-2.991,1.567,1.5-3.026-2.415-2.361ZM59.231,59.5A22.311,22.311,0,1,1,36.92,37.185,22.311,22.311,0,0,1,59.231,59.5ZM10,95.836,7.329,93.775,4.542,95.683,5.676,92.5,3,90.44l3.375.095L7.51,87.354l.953,3.24,3.375.095L9.051,92.6ZM20.759,39.294l-3.341.489-.567,3.329-1.5-3.027-3.342.49,2.416-2.36-1.5-3.027,2.991,1.568,2.415-2.36-.567,3.329ZM10.3,27.177l.2,3.372L8.354,27.938,5.209,29.17,7.03,26.325l-2.143-2.61,3.268.852,1.82-2.845.2,3.372,3.268.852ZM4.914,48.643l3.37.215L9.531,45.72l.836,3.272,3.37.216-2.853,1.806.836,3.272L9.12,52.13,6.267,53.937,7.513,50.8Zm6.143,33.193-.889-3.258L6.8,78.416l2.824-1.852L8.73,73.306l2.634,2.114,2.824-1.852-1.2,3.158,2.634,2.113-3.373-.161ZM7.227,67.8l-.336-3.36-3.3-.719,3.092-1.358L6.347,59l2.247,2.521,3.092-1.358-1.7,2.917L12.23,65.6l-3.3-.719ZM29.791,34.6l-3.2-1.086-2.022,2.7.045-3.377-3.2-1.087,3.226-1,.045-3.377,1.948,2.759,3.226-1-2.022,2.7Zm12.074-8.935.566,3.329,3.341.49-2.991,1.568.566,3.329-2.415-2.361-2.991,1.567,1.5-3.026L37.025,28.2l3.341.49ZM19.679,15.015l2.043,2.69,3.189-1.112-1.927,2.774,2.043,2.69-3.233-.976-1.927,2.774L19.8,20.479,16.562,19.5l3.189-1.112Zm-1.94,86.509-2.388,2.387.528-3.335-3.008-1.534,3.335-.528.529-3.335,1.533,3.009L21.6,97.66l-2.388,2.388,1.533,3.009Z" style="fill:#001c5a"/><path d="M14.609,59.5A22.311,22.311,0,1,0,36.92,37.185,22.311,22.311,0,0,0,14.609,59.5Zm37.185,0A14.874,14.874,0,1,1,36.92,44.622,14.874,14.874,0,0,1,51.794,59.5Z" style="fill:#fff"/><circle cx="36.92" cy="59.496" r="14.874" transform="translate(-9.093 6.717) rotate(-9.261)" style="fill:#c1133d"/><polygon points="95.234 57.014 92.132 55.971 94.171 58.703 92.214 61.435 95.22 60.391 97 63.123 97 59.746 100.212 58.703 97 57.659 97 54.282 95.234 57.014" style="fill:#fff"/><polygon points="62.467 61.435 65.347 60.391 67 63.123 67 59.746 70.212 58.703 67 57.659 67 54.282 65.36 57.014 62.321 55.971 64.392 58.703 62.467 61.435" style="fill:#fff"/><polygon points="78.752 51.59 77.253 54.616 80.244 53.049 82.659 55.409 82.093 52.08 85.084 50.513 81.743 50.023 81.177 46.693 79.678 49.719 76.337 49.229 78.752 51.59" style="fill:#fff"/><polygon points="85.084 66.893 82.093 65.325 82.659 61.996 80.244 64.357 77.253 62.79 78.752 65.816 76.337 68.177 79.678 67.686 81.177 70.712 81.743 67.383 85.084 66.893" style="fill:#fff"/><polygon points="39.44 30.558 37.941 33.584 40.932 32.017 43.347 34.378 42.781 31.049 45.772 29.481 42.431 28.991 41.865 25.662 40.366 28.688 37.025 28.198 39.44 30.558" style="fill:#fff"/><polygon points="26.639 30.134 24.691 27.375 24.646 30.752 21.42 31.752 24.617 32.839 24.572 36.216 26.594 33.511 29.791 34.597 27.843 31.839 29.865 29.134 26.639 30.134" style="fill:#fff"/><polygon points="15.92 36.756 12.929 35.188 14.427 38.215 12.011 40.575 15.353 40.085 16.851 43.112 17.418 39.783 20.759 39.294 17.768 37.725 18.335 34.396 15.92 36.756" style="fill:#fff"/><polygon points="6.267 53.937 9.12 52.13 11.72 54.286 10.884 51.014 13.737 49.208 10.367 48.992 9.531 45.72 8.284 48.858 4.914 48.643 7.513 50.798 6.267 53.937" style="fill:#fff"/><polygon points="12.23 65.603 9.983 63.082 11.686 60.165 8.594 61.523 6.347 59.002 6.683 62.363 3.591 63.721 6.891 64.44 7.227 67.8 8.93 64.884 12.23 65.603" style="fill:#fff"/><polygon points="15.626 78.839 12.992 76.726 14.188 73.568 11.364 75.42 8.73 73.306 9.619 76.564 6.795 78.416 10.168 78.578 11.057 81.836 12.253 78.678 15.626 78.839" style="fill:#fff"/><polygon points="21.694 87.796 24.59 89.533 23.268 86.426 25.814 84.208 22.45 84.505 21.128 81.398 20.371 84.689 17.007 84.986 19.903 86.723 19.147 90.014 21.694 87.796" style="fill:#fff"/><polygon points="19.215 100.048 21.603 97.66 18.268 98.188 16.735 95.179 16.206 98.514 12.871 99.042 15.879 100.576 15.351 103.911 17.739 101.524 20.748 103.057 19.215 100.048" style="fill:#fff"/><polygon points="8.463 90.594 7.51 87.354 6.376 90.535 3.001 90.44 5.676 92.501 4.542 95.683 7.329 93.775 10.004 95.836 9.051 92.596 11.838 90.689 8.463 90.594" style="fill:#fff"/><polygon points="9.975 21.722 8.155 24.567 4.887 23.715 7.03 26.325 5.209 29.17 8.354 27.938 10.496 30.549 10.297 27.177 13.442 25.946 10.174 25.094 9.975 21.722" style="fill:#fff"/><polygon points="16.562 19.504 19.795 20.479 19.867 23.855 21.794 21.081 25.027 22.057 22.984 19.367 24.911 16.593 21.722 17.705 19.679 15.015 19.751 18.392 16.562 19.504" style="fill:#fff"/><polygon points="38.394 85.392 35.711 87.444 32.931 85.528 34.054 88.713 31.372 90.765 34.748 90.681 35.871 93.866 36.834 90.629 40.21 90.546 37.43 88.629 38.394 85.392" style="fill:#fff"/><polygon points="51.743 85.569 51.23 82.231 49.683 85.233 46.349 84.689 48.726 87.088 47.179 90.09 50.196 88.571 52.572 90.97 52.06 87.632 55.076 86.112 51.743 85.569" style="fill:#fff"/></g></g></g></svg>