<svg xmlns="http://www.w3.org/2000/svg" viewBox="0 0 194.854 122.549"><g id="Layer_2" data-name="Layer 2"><g id="Oklahoma"><g id="Oklahoma-2" data-name="Oklahoma"><path id="path82" d="M0,122.549H194.854V0H0Z" style="fill:#0073cf"/><path id="path390" d="M107.472,63.813h0" style="fill:#9a3b26"/><path id="path84" d="M85.023,21.739c-.1.092-.178.225-.319.139a10.721,10.721,0,0,0-2.067-5.931,1.217,1.217,0,0,0-.714-.5c.513,1.453.139,2.753.392,4.209.018.051.123.137,0,.188a8.843,8.843,0,0,1-.6-1.31,2.823,2.823,0,0,0-1.1-1.015,13.32,13.32,0,0,1-1.809-1.342c-.254-.053-.464-.372-.691-.415l-.349.01-.056.322a3.006,3.006,0,0,1,.057.4c.858,1.28,2.165,2.2,2.677,3.677-.294-.033-.539-.341-.9-.307-.086,0-.1.106-.085.175.229.6.665,1.157.843,1.746-1.513-.773-1.059-2.822-2.485-3.7-.209-.086-.368-.516-.627-.376a10.9,10.9,0,0,1,.424,1.28,5.968,5.968,0,0,1,.214.97l-.052-.07c-.521-.119-.887-.585-1.408-.668l-.1.087a13.351,13.351,0,0,1,2.081,3.073A7.355,7.355,0,0,0,80.275,25.6c-.154.2-.352.366-.492.549l-.384.389a6.792,6.792,0,0,0-.873-.492c-.191-.067-.189.157-.188.278l.624.913-.266.191-.026.033-.163.165a16.647,16.647,0,0,0-2.659,4.8c-.191-.036-.487-.19-.59,0-.33.405-.091.81.155,1.2L75.2,34a.915.915,0,0,0-.331-.363c-.726.37-.08,1.095-.059,1.595a21.243,21.243,0,0,0-1.183,4.951,4.61,4.61,0,0,0-.963,1.27l.035.034a1.381,1.381,0,0,0-.185.541c-.206.261-.675.139-1.057.212-.258.071-.118.33-.152.5.193.348.556.1.868.22L72.4,43c-.029.592-.707.492-1.087.652-.4.141-.918.074-1.212.355.139.047.193.206.279.309.107.364-.343.485-.5.781.021.7-.01,1.268.047,1.979.155.119.034.26-.033.4a16.012,16.012,0,0,0-.107,2.063c-.035.192.173.1.243.208l.013,1.941c.07.155.224.067.311.154-.218.9.186,1.889.054,2.877.07.118.209.087.277.17a6.351,6.351,0,0,0-.32,1.008c-.064.955-.23,2.013-.207,2.964l.07.071c.052.052.1-.018.157.016-.018.051.018.106-.035.137-.269,1.095.257,2.116.054,3.278.106.191.4.118.59.118a1.3,1.3,0,0,1-.377.591c-.515.7-.043,1.353-.195,2.15l.245.118c0,.121-.121.177-.121.3.108.486.13,1.193.6,1.574.262.031.242-.278.379-.438a3.744,3.744,0,0,1,.237-.814c.69-.542.616-1.253.646-2.049-.107-.536.323-.991.354-1.563-.073-.607.373-1.076.456-1.665-.193-.607.358-1.01.3-1.561-.542-.846.371-1.65-.068-2.5.415-.278.238-.693.357-1.095.326-.64-.405-1,.146-1.591.43-.559-.132-1.647.766-2l.316.345.034-.037.122.121a25.463,25.463,0,0,0,1.813,4.148,37.6,37.6,0,0,0,2.521,3.848c-.621.649-1.258,1.379-1.93,1.973a16.483,16.483,0,0,0-1.279-2.262l-.035.035-.07-.068a1.193,1.193,0,0,0-1.247.355,2.181,2.181,0,0,0-.825,1.1c-.392.989.912,1.4,1.314,1.93.191.157.572.17.573.431-.769,1.373-2.22,2.3-3.235,3.486-.67.924-2.052,1.748-2.183,2.98a.27.27,0,0,0,.4.2c2.4-1.608,4.309-3.753,6.549-5.85.105-.07.123.157.21.033a.65.65,0,0,0,.536.121,1.483,1.483,0,0,0-.125-.712c.723-.767,1.757-1.518,2.6-2.288a9.33,9.33,0,0,1-.541,1.771c-.206.348-.587.386-.881.58-.294.087-.539-.171-.781-.063-.258.277-.047.673.041.97-.155.208-.4-.032-.588.09-.468.229-.273.781-.409,1.162a.75.75,0,0,0,.453.312,4.539,4.539,0,0,1-.221.814c-.119.261-.465.418-.462.746.211.572-.115,1.115-.077,1.685l.123.19A2.283,2.283,0,0,0,77.993,70c.072.4-.325.539-.584.7-.36.676-.128,1.559-.228,2.269a1.809,1.809,0,0,0,.129,1.162c-.034.278-.326.59-.116.868a7.093,7.093,0,0,1,.133,1.82c0,.309-.185.938.163,1.106-.013.713.165,1.249.1,1.942.4.308-.1.73.075,1.055.036.157.159.227.279.31a2.078,2.078,0,0,0,.165,1.665,3.675,3.675,0,0,0,.443,1.453c.26-.106.258-.453.343-.676a2.484,2.484,0,0,0,.522-2.414c.621-.472.356-1.286.317-1.911a2.906,2.906,0,0,0,.215-1.646,1.681,1.681,0,0,0,.147-1.354c.412-.61.2-1.334.523-2,.154-.278-.21-.553.048-.814.344-.09.343-.5.271-.747-.178-.779.095-1.542-.015-2.374a6.065,6.065,0,0,0,.459-1.372c.154-.415-.161-.831-.094-1.249.139-.14.152-.555.5-.4.243.017.189-.3.153-.434-.229-.486.273-.781.149-1.232-.248-.692-.91-1.226-1.105-1.95.152-.488.306-.974.458-1.477a.927.927,0,0,1,.168.178l.139.268a.979.979,0,0,0-.111.247c.3.881,1.335.162,1.738.957a.367.367,0,0,0-.084.28c.071.415.524.549.854.652.3.157.6-.211.781.184,1.008.533,1.967,1.34,2.992,1.871v.071c-.015.05-.083.018-.154.034-.032.207-.274.368-.429.5a3.014,3.014,0,0,0-1.129-.288c-.017.125.07.175.037.294a.878.878,0,0,0,.469.4,1.535,1.535,0,0,0,.935-.093,7.089,7.089,0,0,1-.307.747A2.792,2.792,0,0,1,85.356,69.8a2.37,2.37,0,0,1-.063.59c.035.224.209.277.38.344.088.154-.013.345-.029.466-.049.419-.219.923.284,1.162.052.275-.188.435-.15.712.018.188.209.239.314.343.034.069-.035.1-.051.157.124.607-.165,1.249.374,1.714-.431.332.075.847-.165,1.213-.016.191.26.1.209.31-.188.211-.134.523-.15.817.436.412-.132.969-.111,1.491a3.242,3.242,0,0,1,.206,2.408c-.017.207.243.122.313.189.017.051-.034.051-.07.085,0,.659-.372,1.3-.142,2,.355,1.228.018,2.808.926,3.843a.621.621,0,0,0,.38-.281,10.113,10.113,0,0,0,.728-2.605,2.384,2.384,0,0,0,.577-1.6c0-.845.25-1.662.245-2.546a4.31,4.31,0,0,0,.255-3.245.451.451,0,0,1-.227-.311,2.372,2.372,0,0,0,.144-1.975c-.089-.175.086-.1.189-.161a.381.381,0,0,0,.224-.312c.033-.191.085-.348-.073-.5-.352-.881.371-1.669.209-2.515-.68-.673.1-1.493-.2-2.323-.193-.344-.59-.082-.87-.236-.712-.341-.111-1.158-.166-1.678l.277.047c.958.721,2.206.747,3.335,1.053.141.086.4.083.419.31a.652.652,0,0,0,.557.275c.379.047.635-.492.967-.265.26-.054.278.222.436.376.347.224.814-.007,1.161-.2l.143.435c-.072.469-.041.948-.08,1.4l-.052.067a2.03,2.03,0,0,1-.941-.736c-.347.1-.361.418-.567.66-.015.243.263.5.454.673a.454.454,0,0,1-.224.073c-.328.227-.867.054-1.126.371a5.886,5.886,0,0,0,.116,1.749c.157.156.329-.02.486-.054a2.206,2.206,0,0,1,.109.83c-.969.335-.235,1.2-.492,1.841-.186.52.437.376.628.412-.188.363.059,1.039-.548,1.216-.155.121-.1.328-.1.539.02.274.366.238.507.325a12.48,12.48,0,0,0-.335,1.858c0,.191.191.2.279.309a2.387,2.387,0,0,0-.046,1.057,1.77,1.77,0,0,0-.215,1.564c.018.1.086.067.156.117-.049.051-.014.157-.031.228-.153.5-.392.988.112,1.4a11.136,11.136,0,0,0-.265,1.771c.124.676.546,1.335.256,2.062-.166,1.075.445,2.043.451,3.154.469.011.5-.559.688-.907a7.265,7.265,0,0,0,.508-1.945,4.88,4.88,0,0,1,.8-2.258,2.175,2.175,0,0,0,.147-1.369,3.268,3.268,0,0,0,.338-1.338c0-.156-.158-.258-.072-.415a6.642,6.642,0,0,0,.484-2.776,5.124,5.124,0,0,0,.3-2.12,12.993,12.993,0,0,0,.415-2.933c-.038-.309-.489-.688.029-.884a2.78,2.78,0,0,0,.021-1.838l.311-.379c.085-.227-.124-.4-.195-.59a5,5,0,0,1-.91-1.328c-.175-.242-.5-.031-.658-.224.045-.673.026-1.056.021-1.765l-.07-.14c.728-.038,1.542-.045,2.166-.134a17.27,17.27,0,0,0,6.356-1.028c.157.24.486.083.677.116a6.332,6.332,0,0,1-.149,1.129c-.034.051-.121.086-.086.173-.448.316-.489-.448-.853-.549a1.146,1.146,0,0,0-.394.626c-.069.242-.361.573-.08.781-.19.157-.433.14-.623.23-.277.1-.224.329-.188.556.036.188.28.238.366.343-.137.157-.38.056-.518.211a4.552,4.552,0,0,0,.167,1.871c.036.224.3.536-.064.622a1.019,1.019,0,0,0-.045,1.039c.173.053.312-.068.469.053a4.053,4.053,0,0,0-.344.609c-.1,1.142.293,2.3.3,3.446l.4.033a3.132,3.132,0,0,0-.425,1.25,4.014,4.014,0,0,1,.209,2.771,6.926,6.926,0,0,1,.128,1.039c.036.19.173.033.276.12l.043,1.176c.053.314,0,.732.282.884l-.085.123a20.368,20.368,0,0,0-.07,2.529c-.015.157.106.365.279.278a.96.96,0,0,0,.584-.75,2.555,2.555,0,0,1,.186-.848l-.036-.036a2.986,2.986,0,0,0,.7-1.895A21.31,21.31,0,0,1,107,83.105c-.129-1.162.455-2.237.187-3.363.4-.4.235-.92.563-1.356.1-.5-.145-1.037.111-1.526.066-.469-.248-.83-.284-1.212.219-.713-.528-1.192-.515-1.832.329-.211.85.011,1.056-.391.049-.242-.09-.465-.126-.707a.853.853,0,0,1,.345-.141c.433-.09,0-.454.186-.626l-.068.071-.507-.69c-.123-.191.119-.348.031-.519a5.388,5.388,0,0,1-1.036-2.025c-.539-.255-.405-.951-.39-1.35a8.552,8.552,0,0,0,2.377.368c.971-.109,1.533.944,2.536.606.26.033.621-.175.933-.194.245.465.492.931.755,1.4a.381.381,0,0,1-.121.07,3.952,3.952,0,0,1-.131,1.216.5.5,0,0,0,.3.655c-.309.332-.236.851-.371,1.286.018.207.225.016.346.121-.619.452-.3,1.369-.732,1.928-.119.261.054.469.159.657a2.06,2.06,0,0,0,.255,1.941,1.232,1.232,0,0,0-.236,1.056c.4.465-.219.8-.147,1.286a2.13,2.13,0,0,1-.247,1.959c-.308.434.2.779.112,1.194-.239.626.318,1.108.132,1.732a.386.386,0,0,0,.555.381.922.922,0,0,0,.378-.817c-.353-.814.962-1.239.766-2.087,0-.88.649-1.479.765-2.326a1.036,1.036,0,0,0,.426-1.028c-.385-.861.389-1.526.384-2.3-.114-.754.283-1.268.357-1.961l.039-.3a14.965,14.965,0,0,1,1.194,1.708,14.949,14.949,0,0,1,1.209,1.812c.087.036.085-.07.12-.105a5.286,5.286,0,0,0,2.073,1.494c.327-.3-.109-.763-.2-1.124-.036-.192-.246-.345-.229-.5-.106-.244-.4-.5-.436-.71a.808.808,0,0,0-.473-.446c-.49-.83-.791-1.73-1.333-2.54a12.151,12.151,0,0,1-1.229-2.334l.347-.191a2.859,2.859,0,0,0-.288-1.474,2.546,2.546,0,0,1-.263-.552c.157.085.314.258.469.274a1.077,1.077,0,0,0,.464-.746c.1-.4-.333-.659-.561-.968a2.4,2.4,0,0,1,.5-.039c.347-.155.343-.554.463-.871-.018-.207-.21-.309-.282-.5.741-.906-.683-1.315-.862-2.179.137-.141.225-.126.433-.126.433,0,.238-.59.376-.868-.02-.382-.471-.449-.63-.76-.854-.79.076-1.768-.138-2.772.751-.438.689-1.242.539-2.03l.188-.114c.029.171.063.346.094.529a.31.31,0,0,0,.383.168,1.264,1.264,0,0,0,.207-1.165l.187-.148a9.066,9.066,0,0,0,.681-1.275c.2-.5.4-.992.6-1.487l.062.173c-.055.546.157,1.143.118,1.692,0,.222.278.2.435.238l-.309.4c-.448.629-.01,1.268-.369,1.877.246.623-.548,1.337.045,1.855-.1.121-.276.209-.31.366-.119.328.2.569.353.81a1.685,1.685,0,0,1-.24.469c-.291.469.024.92-.025,1.406a.981.981,0,0,0-.271,1.008c.541.482.024,1.142.253,1.73-.619.819.219,1.646.258,2.5h.105a3.369,3.369,0,0,0,.892-1.41c.379-.435.5-.99.84-1.462.557.291-.209-.224.172-.383-.179-.709.513-1.13.3-1.771a7.2,7.2,0,0,1,.9-2.448c.062-.954.559-1.944.622-2.9a4.808,4.808,0,0,0,.744-2.572c-.142-.881.232-1.7.139-2.652.828-.786-.079-1.835.382-2.776-.144-.729.25-1.58.106-2.183l.121-.124c-.106-.311-.452-.19-.712-.221l-.6-1.332c-.123-.258.067-.433.188-.621.032-.16.2-.418-.04-.54a.451.451,0,0,0-.621.2c-.465.429-.518-.134-.676-.525l-.371-.446a1.594,1.594,0,0,0-.474-1.118c.335-1.856-.335-3.5-.433-5.23,0-.66-.353-1.213-.323-1.838.034,0,.068-.017.086.036.156-.053.172-.211.154-.348a2.593,2.593,0,0,0-.943-1.089l-.054-.224c.052-.137-.122-.207-.106-.344.121-.087.33.067.415-.124.118-.659-.613-1.069-1.1-1.36,0-.348-.247-.591-.283-.9a25.737,25.737,0,0,0-2.4-3.922c1.1-1.028,2.118-2.2,3.341-3.261.309-.368.723-.7.773-1.221a2.674,2.674,0,0,0-.555-1.049l.242-.227a2.182,2.182,0,0,0,.491-.476c-.158-.308-.54-.548-.751-.807a1.79,1.79,0,0,0-.722.716c-.174-.157-.35-.467-.628-.552a.963.963,0,0,0-.866.2,28.07,28.07,0,0,0-2.665,2.643l-.281.114c-.539-.309-.605.4-.967.542-.192-.449-.848-.1-1.025-.65l.034-.036c.2-.14.134-.363,0-.519a1.959,1.959,0,0,0-1.054-.045l-.173-.277c-.108-.2-.412-.324-.529-.518a24.921,24.921,0,0,0-4.263-2.5,23.713,23.713,0,0,0-5.4-1.681l.018-.033a.467.467,0,0,0,.067-.4c-.159-.274-.433,0-.659.007-.362.312-.986.194-1.455.233.155-.193.4-.434.307-.728a4.2,4.2,0,0,0-1.59.6c-.868-.08-1.6-.068-2.445-.071a33.9,33.9,0,0,0-6.2,1.286c-.242.038-1.111.335-1.111.335-.051-.243-.289-.166-.482-.287-.657.245-.65,1.094-1.361,1.254a8.963,8.963,0,0,0-.755-1.4c-.332-.5-.838-1.123-1.479-.995a.32.32,0,0,0-.05.348,8.507,8.507,0,0,1,.738,2.843"/><path id="path86" d="M119.547,62.523a1.129,1.129,0,0,0,.023.355,1.109,1.109,0,0,0,1.281-.319,1.919,1.919,0,0,0,.066-.519c-.327.111-.667.207-.982.349l-.388.134" style="fill:#9a3b26"/><path id="path88" d="M121.959,62.786a1.656,1.656,0,0,1-.211-.753c.053.015.1.015.139.051.314.171.329-.245.484-.368.332.327-.17.626-.2.954a1.18,1.18,0,0,1-.06.247l-.147-.131" style="fill:#9a3b26"/><path id="path90" d="M123.126,58.621c-.222.077-.244.486-.423.683-.089-.067-.193-.121-.28-.188-.346.035-.279-.223-.281-.5h-.1c-.1.242.16.778-.235.887-.36.747-1.191.855-1.866.948-.663-.5.078-1.111-.132-1.718.343-.433.114-.97.181-1.439a3.251,3.251,0,0,1,.547-1.059c-.156-.036-.362.07-.469-.1-.036-.328-.075-.934-.094-1.369a1.587,1.587,0,0,1-.058-.389l-.05-.369a25.351,25.351,0,0,0,1.931-6.793c-.09-.348.224-.211.361-.417a2.333,2.333,0,0,1,.129,1.247,8.909,8.909,0,0,1-.305.884h.1c.6-.606.4-1.662.2-2.4l-.115-.464c-.143-.372-.451-.71-.263-1.135l.193.258c.052.173-.013.5.177.552-.018-.258.065-.587-.178-.743l.155-.1.255.235c-.012.167.186.291.217.453.06,1.338.088,2.946.186,4.49.223-.382.079-.9.111-1.367.192.187.228.48.4.653.12-.242-.124-.466-.212-.693-.087-.016-.19.04-.224-.047-.023-.833-.1-1.976-.088-2.809.364.188.568-.368.915-.386.193.259-.1.536-.219.782-.049.364.193.622.283.932a4.941,4.941,0,0,1,.421.966c.121-.137.294-.1.485-.07a3.2,3.2,0,0,1-.009,1.284c.2,1.022-.456,1.772-.085,2.874.158.365-.239.595-.342.9.162.8-.385,1.618-.1,2.394-.2.609-.095,1.216-.265,1.822-.3-.325-.663-.584-.977-.928-.052-.067-.02-.278-.191-.224a5,5,0,0,0,.475,1.346c.054.208.314.329.314.556-.07.188-.128.377-.18.565l-.287,0" style="fill:#efe8c7"/><path id="path92" d="M123.371,58.783a15.076,15.076,0,0,1-.554,2.116l-.07-.07c-.263-.309-.285-.969-.786-.928a1.955,1.955,0,0,1-.235,1.2c-.226-.07-.09-.433-.35-.45a2.768,2.768,0,0,1-1.271.62l-.324.117c-.116-.127-.255-.255-.238-.429.014-.193.171-.294.325-.384a4.439,4.439,0,0,0,1.505-.389c.326-.368.723-.613.859-1.064l.384.275c.379.089.41-.38.551-.67l.2.063" style="fill:#9a3b26"/><path id="path94" d="M119.815,61.427a.3.3,0,0,1,.061.392,1.32,1.32,0,0,0-.314.606l.371-.166a6.153,6.153,0,0,1,1.1-.36,1.656,1.656,0,0,1-.116.918,1.568,1.568,0,0,1-1.213.182c-.068.137,0,.278-.031.451-.1.3-.448.539-.307.9l.466-.47c.452.412.884.045,1.4.023.123.016.175.243.314.121.188-.332.5-.473.462-.852.013-.041.028-.083.045-.124l-.2-.188a1.146,1.146,0,0,1-.271-.984c.225-.107.3.154.468.115a3.2,3.2,0,0,1,.291-.59c.209.031.09.5.332.309,0-.07-.018-.155.069-.191a2.078,2.078,0,0,0,.063-.5c-.362-.173-.452-.639-.665-.968-.171.226.054.383-.063.626-.12.191-.118.5-.4.539-.155.015-.209-.156-.261-.259.018-.035-.035-.054-.053-.085a3.264,3.264,0,0,1-1.274.478l-.288.074" style="fill:#efe8c7"/><path id="path96" d="M116.01,74.134a4.293,4.293,0,0,0-.583-.516,2.09,2.09,0,0,0,.352,1.106l-.155.039c.07.082.105.208.227.259a2.859,2.859,0,0,0,.113-.518l.044-.37" style="fill:#9a3b26"/><path id="path98" d="M97.121,82.234a1.79,1.79,0,0,0-.208-.261c-.243-.051-.016.261-.171.348-.121-.087-.157-.244-.312-.19-.209.056-.137.33-.1.471.159.379.474.911.268,1.243-.07-.031-.156-.1-.225-.031l-.029.9c-.035.035-.069.085-.121.071-.035-.036-.087-.069-.087-.123-.14-.034-.261-.2-.417-.1.126.744.96,1.1,1.017,1.863a2.788,2.788,0,0,1-.685,1.376c-.312-.105-.366-.486-.66-.623a.877.877,0,0,0-.047.94,2.982,2.982,0,0,1-.366,2.255c-.246-.415-.025-1.04-.322-1.4l-.311.245c.052-.171.015-.484.152-.676l.1.052a.275.275,0,0,0,.362-.09,5.825,5.825,0,0,0-.217-1.647.806.806,0,0,0-.575-.376,3.433,3.433,0,0,1,.3-1.338,3.14,3.14,0,0,0,1.054-.628c.067-.227.291-.434.15-.7-.485-.013-1.07.754-1.42.08.031-.14,0-.4.24-.348a9.622,9.622,0,0,0,1.152-1.2c-.313-.449-.936.074-1.318-.353a2.369,2.369,0,0,1,.112-1.217.344.344,0,0,1-.312-.1,11.435,11.435,0,0,1,.334-2.03c-.175-.036-.383-.016-.5-.189-.245-.692.742-.7.564-1.407.085-.172-.089-.52.272-.556a.6.6,0,0,0,.362-.5,1.323,1.323,0,0,1-1.141.577l-.113-1.628c.155-.175.4-.351.567-.506a6.16,6.16,0,0,0-.126-.987c-.191-.016-.258.245-.467.157-.139-.138-.019-.345-.142-.463a3.075,3.075,0,0,1,.062-1.251c.433-.074.915-.231,1.368-.355-.141-.242-.507-.431-.508-.74a1.684,1.684,0,0,1,.379-.543c.3.329.625.777,1.13.651.1-.414.008-1.052.064-1.57l.007-.313c.192.033.4.036.591.061.018.07-.069.05-.085.1-.031.363.074.831.041,1.145.214.845-.423,1.494-.245,2.288-.028.676.544,1.124.74,1.711l.121-.071a2.964,2.964,0,0,0-.544-.928,2.609,2.609,0,0,1-.128-1.215,4.517,4.517,0,0,1,.149-.937c.242.067.554-.021.66.272.074.591.734.916.946,1.432.226.244-.155.318-.24.47-.155.16.02.348.056.5.072.52.094,1.3-.355,1.647-.119.313.2.52.214.814a12.714,12.714,0,0,0-.229,2.273c-.155.191-.085.346-.186.539a3.836,3.836,0,0,1-.315-.743,1.255,1.255,0,0,0-.4-.534,5.981,5.981,0,0,0,.132,1.816l-.068.054a.963.963,0,0,1-.314-.083c0-.261-.227-.5-.281-.778H96.41a.854.854,0,0,0,.368.744l-.051.121c.141.395.335.774.441,1.192.437.324.18.8.2,1.246l-.243.076" style="fill:#efe8c7"/><path id="path100" d="M97.011,82.311a.179.179,0,0,0-.062-.03c-.034.071-.032.192-.153.195-.173.036-.157-.155-.28-.222-.153.309.161.6.231.9a1.294,1.294,0,0,1,.057.726l-.121.09c-.018-.053-.087-.017-.121-.036-.033.278-.049.59-.064.884-.085.211-.277.073-.4.019a.341.341,0,0,0-.191-.153l-.035.034a4.784,4.784,0,0,0,.786,1.034,2.084,2.084,0,0,0,.214-1.665c.425-.384.338-1.014.451-1.554l-.314-.22" style="fill:#9a3b26"/><path id="path102" d="M72.415,42.837c.015-.193-.005-.371.008-.562a3.928,3.928,0,0,0-1,.127c-.052.087-.016.227-.032.312.245.275.59,0,.885.133l.144-.01" style="fill:#efe8c7"/><path id="path104" d="M122.07,46.123a1.664,1.664,0,0,1-.165-.319,3.136,3.136,0,0,0-.666-1.155c-.157,0-.3-.328-.505-.345-.1.02-.244-.031-.312.107.089.4.438.707.63,1.088.3.429.406.985.894,1.33.155-.038.085-.245.049-.348-.052-.087-.139-.157-.122-.278.13,0,.153.176.251.234l-.054-.314" style="fill:#9a3b26"/><path id="path106" d="M75.511,33.783a2.074,2.074,0,0,1,.17.306c.262.258.177.465.058.779a1.582,1.582,0,0,1-.469-.719l.241-.366" style="fill:#9a3b26"/><path id="path108" d="M81.724,62.409c-.213-.262-.464-.523-.7-.775a1.774,1.774,0,0,0,.447-.384,13.611,13.611,0,0,0,1.273,1.188,2.78,2.78,0,0,1-.83.092l-.191-.121" style="fill:#9a3b26"/><path id="path110" d="M118.27,57.028c-.036-.184-.08-.361-.11-.5a35.647,35.647,0,0,0,2.869-9.381,8.32,8.32,0,0,1,.219-1c.781.569.216,1.316.239,2.062a22.458,22.458,0,0,1-1.1,4.028c-.067.332-.342.747-.376,1.008-.637,1.19-.907,2.549-1.611,3.683l-.129.108" style="fill:#9a3b26"/><path id="path112" d="M119.458,34.52a6.013,6.013,0,0,1,.674.363l-.022-.239.047.007c-.056-.174.018-.425-.268-.448a3.2,3.2,0,0,0-.714-.4.556.556,0,0,0,.113.4l.17.307" style="fill:#9a3b26"/><path id="path114" d="M115.3,24.394c.836,1.324.629,3.031.686,4.371,1.464-1.567,3-3.015,4.5-4.515.206-.281.377-.524.217-.887l-.069-.052-.034.036c-.178-.8-1-1.226-1.467-1.9a.713.713,0,0,0-.695-.029,19.8,19.8,0,0,0-2.915,2.805l-.22.17" style="fill:#efe8c7"/><path id="path116" d="M120.476,22.281c.132-.153.361-.237.424-.447a3.484,3.484,0,0,0-.627-.584,1.873,1.873,0,0,0-.551.66c.165.172.352.362.528.566l.226-.2" style="fill:#efe8c7"/><path id="path118" d="M111.188,23.969a1.265,1.265,0,0,0-.1.08c-.018,0-.036-.019-.036-.052-.017.016-.017.033-.051.033l0,.331c.5.151,1.246-.233,1.407.442-.139.07-.121.191-.154.312.193.431.588.047.936.08l.662.465-.034.157a14.2,14.2,0,0,0-1.62,1.445c-.241.211-.534.559-.934.371-.139-.048,0-.154,0-.242-.072-.451.15-.85-.059-1.281a5.244,5.244,0,0,0-1.63-.182,3.766,3.766,0,0,0-.152.626,5.421,5.421,0,0,1-.219.919l-1.37.009a4.342,4.342,0,0,0-.147,1.491c.1.086.348.173.469.086.175.138.642-.006.85.131.055.348-.132.853.129,1.057-2.618,2.686-5.444,5.3-7.992,8.061h-.1c-.126-.727-.149-1.718-.224-2.391-.157-.1-.02-.418-.3-.345a6.571,6.571,0,0,0-.737,1.479,5.264,5.264,0,0,0-.453,2.271c-.049.247.125.486-.045.7-.136-2.1-.237-4.333-1.669-5.99-.14-.168-.21-.309-.436-.341a.435.435,0,0,0-.118.382c.631,1.121.293,2.564-.045,3.709-.057-.606-.026-1.194-.046-1.748a7.394,7.394,0,0,0-1.4-4.415c-.157-.1-.366-.219-.536-.1-.1.1.053.242.035.379A23.517,23.517,0,0,1,94.9,37.29a24.073,24.073,0,0,0,.5,2.491,1.68,1.68,0,0,1-.044.971c-.121-.083-.227-.275-.348-.376-.3-.622-.876-1.191-1.226-1.832.36-.661.649-1.356.958-2.032a14.446,14.446,0,0,0-.832-8c-.263-.415-.457-1.072-1.047-1.119-.155.07-.085.261-.119.346.72,1.626-.4,3.278.222,4.992.028,1.647.542,3.428-.036,5.149-.052.034-.1.124-.19.088a1.8,1.8,0,0,1-.688-1.8,4.306,4.306,0,0,0,.732-2.065c-.029-1.839.115-3.868-1.369-5.334-.452-.2-.768-.74-1.253-.8a4.132,4.132,0,0,0-.09,2.1,4.546,4.546,0,0,1,.869,3.236l-.572-.431c-.348-.047-.674.3-.9.526a9.39,9.39,0,0,1-.562-1.018.592.592,0,0,1,.24-.382c.423-1.58,1-3.093.438-4.771-.195-.5.5-.16.653-.473l.059-1.717a9.144,9.144,0,0,0-1.439-.335,9.242,9.242,0,0,1-.009-1.4,3.214,3.214,0,0,0-1.529-.391,3.548,3.548,0,0,0-.162-1.039c0-.119-.176-.325.015-.4.123.152.036.277.193.4.554-.09.55-.75.964-1.028a20.92,20.92,0,0,1,3.546-1.047,57.167,57.167,0,0,1,5.7-.61l.216.03a.661.661,0,0,0-.044.509c.556.187.827-.717,1.451-.58.123.067.134-.049.436.125.329-.007-.034.322.227.439.383.1.623-.3.933-.42.174.1.4.067.556.188a29.51,29.51,0,0,1,3.041.915c2.266,1.074,4.666,1.881,6.73,3.4l.067.186" style="fill:#b3995d"/><path id="path120" d="M111.984,23.442a22.246,22.246,0,0,0-10.347-4.793l-.724.577c.644.341,1.442.268,2.067.645a35.551,35.551,0,0,1,6.85,2.92c.436.237,1.075.713,1.5,1.018l.649-.369" style="fill:#9a3b26"/><path id="path122" d="M109.631,66.009A3.944,3.944,0,0,0,111.9,67.1c.035-.016.121-.05.121-.121-.122-.05.017-.086-.07-.156l-.688-1.762a6.005,6.005,0,0,0-1.42.77l-.212.175" style="fill:#1691ff"/><path id="path124" d="M109.407,65.847c-.077-.056-.155-.11-.235-.157l.322-.271c.508-.252.968-.6,1.454-.891a2.532,2.532,0,0,1,.193.348c-.458.325-.971.58-1.394.878l-.34.093" style="fill:#9a3b26"/><path id="path126" d="M105.508,67.317l-.021.167a1.067,1.067,0,0,0-.1.268,20.11,20.11,0,0,1-2.474.727,35.016,35.016,0,0,1-4.211.409,16.745,16.745,0,0,1-2.65.016l.653-.575a20.9,20.9,0,0,0,3.156-.108c1.946-.247,3.684-.1,5.442-.846l.206-.058" style="fill:#9a3b26"/><path id="path128" d="M111.554,50.8a.537.537,0,0,1-.227.067c-.866-.029-1.433.8-1.863,1.381-.652,1.15-.886,2.484-1.8,3.495-.159-.364-.507-.653-.562-1.088a5.542,5.542,0,0,0,1.152-1.461c1.1-1.552.67-3.612.8-5.433a4.468,4.468,0,0,0,.054-2.287c-.069-.09-.036-.3-.226-.244.018.106-.121.157-.155.247-2.243,1.624-1.253,4.618-2.227,6.841a6.554,6.554,0,0,0-.266,1.631,13.681,13.681,0,0,0-1.084-1.155l-.018-.152.773-1.275a18.869,18.869,0,0,0,1.039-2.728c.25-1.525.987-2.917.96-4.458-.126-.642-.061-1.369-.6-1.851a4.93,4.93,0,0,1-1.2,1.55,3.838,3.838,0,0,0-1.34,4.342l-.069.191c-.086-.016-.1-.153-.209-.1-.727.11-1.085.977-1.221,1.638a1.643,1.643,0,0,1-.439-1.123,4.606,4.606,0,0,0,1.072-3.2c-.113-1.335-.538-2.665-.737-4.05a36.163,36.163,0,0,0,3.565-3.507l5.205-4.992c.877-.89,1.774-1.711,2.7-2.55a13.569,13.569,0,0,0-.452,2.119c0,.5.385.933.477,1.436a4.363,4.363,0,0,0-.1,3.24,5.362,5.362,0,0,0-.364,2.726c-.636.871-.352,2-.1,3a3.879,3.879,0,0,0-.05,2.964,3.592,3.592,0,0,0-.768,2.052c.021.517.665.964.235,1.471-.136.4.126.743.129,1.088a.9.9,0,0,0-.307.75c0,.278.245.536.16.779a.919.919,0,0,0-.028,1,.733.733,0,0,0-.24.348.831.831,0,0,0,.212.709,3.1,3.1,0,0,0,.041,1.059c.105.138.26-.054.312-.16-.054-.207.257-.332.118-.519a3.825,3.825,0,0,0,.129-1.162,2.37,2.37,0,0,0,.165-1.252l.07.07.121-.14.025-1.42.121-.034a1.087,1.087,0,0,0,.222-.5,3.677,3.677,0,0,0,.18-1.682l.173-.156c.065-.644.374-.976.3-1.635a2.539,2.539,0,0,0-.126-.656c-.072-.365-.248-.709.149-.991L115.4,45a3.044,3.044,0,0,0,.281-1.717,2.666,2.666,0,0,0,.3-1.025c-.14-.328.241-.449.152-.781.9-.943.731-2.222.6-3.348.687-1.011.384-2.256.221-3.348a7.359,7.359,0,0,0,.533-3.555,4.82,4.82,0,0,1-.179-.556,9.551,9.551,0,0,1,1.159,2.11l-.052.066c-.035-.05-.087-.03-.139-.03-.121.05-.017.191-.085.241a1.249,1.249,0,0,0,.818.656,1.894,1.894,0,0,0,.177.506l.07.258a1.731,1.731,0,0,1-.5-.225.213.213,0,0,0-.276.034c.005.833.941.776,1.361,1.449a22.322,22.322,0,0,1,1,7.082l-.173,0c-.275.435.2.814.44,1.139-.1.107.088.4-.154.348-.016-.016-.034-.034-.034-.05-.192-.067-.417-.154-.554.054-.084.609.542.986.72,1.523a38.443,38.443,0,0,1-3.018,10.5l-.192-.238a.369.369,0,0,0-.244-.106,2.471,2.471,0,0,0-.121.91l-.237.13c-.006-.031-.011-.067-.016-.1l-.123-.173c-.209-.191-.33.051-.467.157-.19-.067.136-.381-.191-.345a3.546,3.546,0,0,0-1.2,1.778,3.312,3.312,0,0,1-.613,1.822c-.253-1.734,1.352-2.971.716-4.6-.176-.5-.283-.863-.475-1.332-.089-.157-.072-.415-.247-.465a4.965,4.965,0,0,1-1.108,2.815c-.238.59-.582,1.129-.838,1.719l-.054-.118a37.991,37.991,0,0,1,.322-6.7,3.383,3.383,0,0,0-.165-1.42,3.715,3.715,0,0,0-.848.659l-.412.067" style="fill:#b3995d"/><path id="path130" d="M99.719,47.623a1.928,1.928,0,0,0-1.013.288c-.605.351-.15.867-.131,1.336a12.22,12.22,0,0,1-1.248-.165,14.08,14.08,0,0,0-1.526-.248c.135-.263.411-.419.565-.665l.082-.2a2.6,2.6,0,0,0,.557-.36c.619-.611,1.748-.323,2.407-.256a.632.632,0,0,1,.256.131l.051.137" style="fill:#b3995d"/><path id="path132" d="M106.18,63.938a9.794,9.794,0,0,1,1.727-.411,2.238,2.238,0,0,1,.006,1.021,7.512,7.512,0,0,1-1.768-.057l-.014-.16.049-.393" style="fill:#9a3b26"/><path id="path134" d="M89.333,35.294a8.938,8.938,0,0,0-1.63-2.669c-.571.245-1.105.8-1.675,1.085-2.214.606-4.028-.93-6.278-.532-.155-.084-.31.056-.4-.12a3.456,3.456,0,0,1,.894-.906c.226-.192.538-.14.78-.281-.682-.862-.708-2.145-1.77-2.712-.033-.154-.173-.327-.087-.467a.368.368,0,0,1,.43-.089c1.683.2,2.319,2.03,3.711,2.716.66.15,1.369.041,2,.211.694.081,1.286.583,2.031.385-.265-.689-.791-1.57-1.641-1.634a11.97,11.97,0,0,0-3.156-.449c-.035-.087-.26-.083-.4-.137a6.168,6.168,0,0,1-2.461-1.871l-.3.265c-.17.294-.439.571-.594.88A17.491,17.491,0,0,0,76.2,33.546c.056.5.424.967.288,1.436-.106-.137-.348-.169-.436-.375l-.275.433a1.9,1.9,0,0,1,.319,1.071c-.069.071-.137.157-.242.126l-.314-.224-.137.157c-.322,1.129-.845,3.593-.845,3.593a23.152,23.152,0,0,0,.435,8.265,13.644,13.644,0,0,1,.291,1.905c.279.3.817.394.836.844-.171.21-.415.16-.64.178,0,.207.108.4.021.606.418.327.94.444,1.255.859.105.191-.137.294-.276.383h-.19c.072.384.37.779.476,1.142a32.414,32.414,0,0,0,3.5,5.631l1.118-1.188,5.578-5.757c.079-.067,0-.106.087-.191.207-.02.33.152.5.188-.054-.345-.2-.865.062-1.213,1.121-.98,2.206-2.042,3.291-3.109a2.994,2.994,0,0,1-.628-.5c.19-.176.45-.263.623-.4a4.735,4.735,0,0,1-1.631.061c-.433-.17-.71-.151-1.129-.358-.121.054-.207-.083-.278-.134v-.121c.311-.09.535-.351.847-.472-.662-.26-1.548-.616-1.518-1.486-.07-.152.1-.191.189-.225.659-.039,1.6.56,2.34.108,1.057-.249,2.5-.051,3.5-.855-1.333.1-2.665.711-3.931.683a6.384,6.384,0,0,1-2.538-1.06,2.726,2.726,0,0,1-1.167-.824c1.121-.961,2.308.2,3.589-.057.848-.16,1.5-.823,2.336-.724.917-.18,2.066.5,2.806-.364-.139-.121-.177-.345-.332-.415.033-.191-.194-.379-.3-.517a1.248,1.248,0,0,0-.68-.532,1.63,1.63,0,0,0-.9.349c-.534.334-1.086.754-1.657,1.035a3.221,3.221,0,0,1-1.768.2,5.78,5.78,0,0,1-3.008-1.437c-.42-.55-.683-1.173-1.1-1.709-.052-.137.085-.207.12-.26.415-.14.73.257,1.094.218,1.043.459,2.1,1.269,3.352.877.794-.366,1.732-.181,2.509-.6L91,38.012a14.013,14.013,0,0,1-1.849.72c-1.557.513-2.521-1.127-4.149-.683a6.306,6.306,0,0,1-1.181-.338c-.451-.067-.7-.307-1.129-.392a1.345,1.345,0,0,1-.7-.76c-.192-.083-.159-.325-.35-.462l.034-.016a7.274,7.274,0,0,0-.82-.847c.119-.278.467-.124.693-.158a10.278,10.278,0,0,1,1.876.643c.624.188,1.228-.024,1.906.265a4.364,4.364,0,0,1,1.844.891,3.819,3.819,0,0,0,.782.184c.017-.155-.158-.292-.194-.465a1.669,1.669,0,0,1,.1-.969,3.389,3.389,0,0,1,1.5.024l-.026-.355" style="fill:#b3995d"/><path id="path136" d="M105.7,67.247c.2.057.395.118.583.188a.784.784,0,0,1-.691.472c-.134-.13,0-.242.031-.362l.077-.3" style="fill:#9a3b26"/><path id="path138" d="M117.315,57.223c.02.1.041.2.061.3l.209-.019c-.023-.131-.041-.259-.056-.386l-.192.15" style="fill:#9a3b26"/><path id="path140" d="M79.48,26.6c.162.1.453.277.612.37a5.553,5.553,0,0,1,.807-1.008,5.618,5.618,0,0,0-.574-.31,3.284,3.284,0,0,1-.536.619l-.309.329" style="fill:#9a3b26"/><path id="path142" d="M97.866,19.048c.059-.1.128-.208.185-.306a3.71,3.71,0,0,0,.325-.434,11.875,11.875,0,0,0-3.016.019,28.957,28.957,0,0,0-6.076,1.337,1.686,1.686,0,0,0-.645.258,1.975,1.975,0,0,1-.25.753c.52-.124,1.055-.385,1.609-.513a34.6,34.6,0,0,1,5.42-.97c.683.029,1.463-.154,2.2-.141l.248,0" style="fill:#9a3b26"/><path id="path144" d="M85.023,21.739a.219.219,0,0,1,.113-.07"/><path id="path146" d="M84.73,23.072c-.044.479-.125.964-.165,1.443a1.747,1.747,0,0,0,.281.552c-.057-.869.6-1.493.487-2.346-.068.02-.132.111-.2.181l-.406.17" style="fill:#b3995d"/><path id="path148" d="M99.881,17.793c-.222.485-.809.82-1.152,1.255-.347.14-.518.472-.865.6a2.192,2.192,0,0,1,.963-1.5,4.241,4.241,0,0,1,1.054-.351" style="fill:#9a3b26"/><path id="path150" d="M101.721,18.093c.089.4-.4.523-.549.747-.4.265-.812.508-1.192.737-.019-.137.1-.312.188-.452a2.655,2.655,0,0,1,1.553-1.032" style="fill:#9a3b26"/><path id="path152" d="M100.51,18.482l-.574.649-.425-.023a1.749,1.749,0,0,1-.436-.095l.551-.594c.245.039.572,0,.884.063" style="fill:#9a3b26"/><path id="path154" d="M87.7,21.375a.857.857,0,0,1-.24.312,2,2,0,0,1,.853-2.067c.525.637-.443,1.145-.613,1.755" style="fill:#9a3b26"/><path id="path156" d="M80.551,20.327c.281.451.818.6,1.15.981s.889.79.894,1.362a1.6,1.6,0,0,1-.7-.392c-.419-.327-1.025-.186-1.409-.616-.247-.572-.63-1.088-.843-1.676.312.067.575.29.9.341" style="fill:#395839"/><path id="path158" d="M87.263,20.718c-.137.171-.067.469-.222.624-.036-.137-.054-.278-.09-.415.123-.038.173-.209.312-.209" style="fill:#9a3b26"/><path id="path160" d="M88.685,23.394a5.117,5.117,0,0,0,.008,1.459,3.521,3.521,0,0,1,1.441.335l-.059,1.49c-.139.141-.382.02-.537.108a7.552,7.552,0,0,0-1.121-1.9c-.105,0-.191-.121-.3-.031-.324.848.219,1.728.018,2.616a5.711,5.711,0,0,0-.111,1.784,2.863,2.863,0,0,1-.657-.064,5.864,5.864,0,0,0-.209-5.582,1.7,1.7,0,0,1,.168-.586,3.223,3.223,0,0,1,1.355.369" style="fill:#9a3b26"/><path id="path162" d="M81.824,24.03l-.224.242-.75-.651.034-.019a3.581,3.581,0,0,0,.94.428" style="fill:#1691ff"/><path id="path164" d="M113.183,23.915a2.781,2.781,0,0,1-1.974.326h-.052c.067-.262.431-.352.655-.527a1.586,1.586,0,0,1,1.369.045l0,.156" style="fill:#9a3b26"/><path id="path166" d="M82.572,24.492c-.069.087-.155.244-.276.208l-.575-.358c.24-.5.589.064.851.15" style="fill:#9a3b26"/><path id="path168" d="M113.221,24.381c-.312-.013-.621.523-.85.077.224-.2.554-.126.779-.32-.07.019,0,.176.071.243" style="fill:#9a3b26"/><path id="path170" d="M100.237,24.62l.011,1.6a1.737,1.737,0,0,1,.989.271c.211.258.039.657.041.971-.172.242.039.9-.515.747-.312.021-.537-.151-.85-.08a13.991,13.991,0,0,1-.364,2.585c-.449.331-1.023.111-1.56.044-.486-.084-.126-.673-.18-.9.117-.59-.008-1.246.075-1.908-.4-.134-.953.059-1.25-.232a11.327,11.327,0,0,1,.111-1.667c.448-.453,1.6.338,1.5-.686a4,4,0,0,1,.149-1.092c.626.17,1.216.147,1.84.352"/><path id="path172" d="M114.765,29.991a.225.225,0,0,1-.087.1c-.033.191-.206.295-.361.433-3.256,3.089-6.721,6.3-9.681,9.46a19.929,19.929,0,0,1-1.517,1.414c-.318-1-.326-2.2-1.2-2.87-.069,0-.121,0-.156.071.265.864-.214,1.732-.173,2.668.124.606-.217,1.216-.178,1.822l-.345.211a8.27,8.27,0,0,0,0-4.682l.034-.157c2.908-3.016,5.787-5.738,8.768-8.687,1.291-1.206,2.583-2.582,3.944-3.8a10.006,10.006,0,0,0,1.111,3.514l-.166.5" style="fill:#efe8c7"/><path id="path174" d="M115.039,27.7a4.14,4.14,0,0,1-.289-2.551,6.121,6.121,0,0,1,.436,2.86l-.147-.309" style="fill:#efe8c7"/><path id="path176" d="M114.838,27.843a4.883,4.883,0,0,1-.364-2.534c.052-.171.153-.364.363-.278.261.188.263.463.385.71a8.8,8.8,0,0,1-.044,3.743l-.155.637c-.039.071-.11.144-.152.211-.271,1.044-.938,2.384-.134,3.4l.121.033c.036.05-.034.086-.015.121a11.982,11.982,0,0,1,.753,1.5,15.056,15.056,0,0,0,1.074,2.488,4.643,4.643,0,0,0-.02-3.343,8.857,8.857,0,0,1-1.741-4.013c.034-.05.031-.155.12-.155.316.935.566,1.922.955,2.837.261.447.627.846.89,1.292a6.864,6.864,0,0,0,.466-3.088,2.7,2.7,0,0,0-1.815-2.136c.034-.054.1-.036.155-.036l.031-.277a9.619,9.619,0,0,0-.373-4.28c-.121-.137-.227-.485-.469-.359-.206.362-.639.452-.774.871a5.157,5.157,0,0,0,.521,2.89,6.357,6.357,0,0,1,.4,1.074l.034,0c.069-.119,0-.326.067-.415.016-.137.031-.277.044-.418l-.327-.476" style="fill:#773141"/><path id="path178" d="M100.047,24.726c.107.449-.062,1.126.045,1.578.14.138.382.013.555.1l.467.188a3.63,3.63,0,0,1-.179,1.423c-.4.123-.937-.238-1.247.077a14.308,14.308,0,0,1-.3,2.582c-.276.16-.624-.014-.9.042a1.1,1.1,0,0,1-.557-.189,20.291,20.291,0,0,0,.1-2.7,2.945,2.945,0,0,0-.867-.064l-.312-.05a5.276,5.276,0,0,1,.111-1.6c.5-.175.8.033,1.3-.127a7.169,7.169,0,0,0,.215-1.51l1.562.25" style="fill:#9a3b26"/><path id="path180" d="M83.477,25.041a4.3,4.3,0,0,1-.869-.237c.24-.436.59.116.869.237" style="fill:#b3995d"/><path id="path182" d="M113.863,24.639a.365.365,0,0,1,.14.208,2.181,2.181,0,0,1-.813.16c-.278-.016-.536.194-.78.072,0-.085.085-.155.155-.226.174.071.19-.121.311-.156a1.593,1.593,0,0,1,.987-.058" style="fill:#9a3b26"/><path id="path184" d="M113.851,25.433c-.157,0-.261-.137-.382-.2a1.081,1.081,0,0,0,.433-.124.514.514,0,0,0-.051.328" style="fill:#9a3b26"/><path id="path186" d="M86.152,26.232a.786.786,0,0,1,.418.2,12.76,12.76,0,0,1-.143,1.838c-.28-.294-.334-.743-.6-1.088a2.035,2.035,0,0,1,.064-.961l.258.016" style="fill:#b3995d"/><path id="path188" d="M86.157,26.063c.124.022.26.107.4.083a6.51,6.51,0,0,0-.264-.811,4.6,4.6,0,0,0-.329.69l.2.038" style="fill:#9a3b26"/><path id="path190" d="M84.266,26.665c.353.865,1,1.59,1.37,2.451-.817-.13-1.239-1.031-2.036-1.165A10.647,10.647,0,0,1,80.247,27a4.166,4.166,0,0,1,.774-.888,10.406,10.406,0,0,0,3.245.549" style="fill:#b3995d"/><path id="path192" d="M111.013,26.11l.121.122a14.165,14.165,0,0,1-.059,1.474.507.507,0,0,0,.469.118,23.717,23.717,0,0,1-2.377,2.356l-.008-1.127c-.417-.188-.814.006-1.283-.147a3.888,3.888,0,0,1,.06-1.263,10.682,10.682,0,0,0,1.456-.048c.17-.5.185-1.041.337-1.526.485-.039.831.15,1.284.041" style="fill:#9a3b26"/><path id="path194" d="M78.99,27.321a7.853,7.853,0,0,0-1.039,1.256,17.028,17.028,0,0,0-2.106,3.948,7.278,7.278,0,0,0,.317.779A22.233,22.233,0,0,1,79.539,27.7l-.549-.376" style="fill:#9a3b26"/><path id="path196" d="M116.056,28.858a.5.5,0,0,0-.152.446,1.757,1.757,0,0,1,.941.636l-.691-.811-.1-.271" style="fill:#d1b881"/><path id="path198" d="M116.157,28.762a1.764,1.764,0,0,0,.521-.5h.052a32.281,32.281,0,0,1,2.331,3.918l.263.709c-1.04.108-.925-1.155-1.448-1.707a14.976,14.976,0,0,0-1.608-2.142l-.111-.278" style="fill:#9a3b26"/><path id="path200" d="M88.065,29.569c.038.608.615,1.229.133,1.8-.3-.623-1.221-1.136-.915-1.989.245.121.555.03.782.185" style="fill:#b3995d"/><path id="path202" d="M75.794,32.7c.247.674.391,1.4.637,2.058a6.459,6.459,0,0,1-1.207-1.675.575.575,0,0,1,.188-.623.378.378,0,0,1,.382.24" style="fill:#9a3b26"/><path id="path204" d="M120.477,34.076c-.016.07.052.176-.05.21-.662-.309-1.183-.7-1.844-.941a.719.719,0,0,1-.263-.379,2.322,2.322,0,0,1,2.157,1.11" style="fill:#9a3b26"/><path id="path206" d="M75.234,34.456c.245.533.751.982.737,1.588a1.623,1.623,0,0,1-.978-1.017c.071-.051-.086-.067-.086-.067-.054-.379-.472-.744-.146-1.126.329.05.314.415.473.622" style="fill:#9a3b26"/><path id="path208" d="M116.444,37.883c.123.153-.066.33.143.467a3.817,3.817,0,0,1-.433,2.811,8.648,8.648,0,0,0-.339-1.384c-.32-1.386-1.367-2.507-1.377-3.978a7.233,7.233,0,0,1,.337-1.6c.7,1.178.918,2.524,1.669,3.683" style="fill:#773141"/><path id="path210" d="M121.15,36.255c-.954.007-1.359-1.168-2.228-1.387-.087-.137-.33-.24-.28-.415a3.377,3.377,0,0,1,2.508,1.8" style="fill:#9a3b26"/><path id="path212" d="M75.312,35.893a20.821,20.821,0,0,0-1.088,6.127,15.345,15.345,0,0,0,.144,3.551c.08,1.456.624,2.72.791,4.245-.28-.348-1.077-.252-.925-.845a33.248,33.248,0,0,1-.549-4.677l.032-.312.017.035s-.04-.848-.025-1.213c.129-1.389-.106-3.121.4-4.63a17.349,17.349,0,0,1,.794-2.83c.088.187.281.325.4.549" style="fill:#9a3b26"/><path id="path214" d="M120.962,36.85c.425,1.35.35,3.064.723,4.4a10.237,10.237,0,0,1,.013,2.062c-.175-.243-.556-.2-.628-.5a27.719,27.719,0,0,0-.588-5.267,8.73,8.73,0,0,0-.426-1.627c.21.4,1.058.288.906.933" style="fill:#9a3b26"/><path id="path216" d="M89.08,36.584a2.523,2.523,0,0,1,.435.032c.225.084.537.17.626.432-.208-.036-.278-.244-.5-.24a1.97,1.97,0,0,0-1.3-.028c-.071-.036-.036-.1-.036-.154.086.031.086-.07.121-.106.156.083.554-.021.658.064"/><path id="path218" d="M115.913,41.474l-.086.089a3.754,3.754,0,0,1-.131,1.248c-.248-1-1.085-1.711-1.317-2.732a6.047,6.047,0,0,1,.226-2.6,9.826,9.826,0,0,1,1.308,4" style="fill:#773141"/><path id="path220" d="M97.418,41.767c-.207.157-.24.364-.465.454a7.262,7.262,0,0,1-.664-.776,9.285,9.285,0,0,1,.487-2.343l.119-.5a16.207,16.207,0,0,0,.523,3.168" style="fill:#b3995d"/><path id="path222" d="M73.391,41.71a5.03,5.03,0,0,0-.407,1.5,3,3,0,0,1,.505.311c.037-.642.083-1.249.1-1.894l-.2.087" style="fill:#1691ff"/><path id="path224" d="M73.565,41.334c.009-.335.015-.677.025-1.025a2.64,2.64,0,0,0-.825,1.306c-.392.938-.141,2.217-.325,3.155-.2.626.042,1.369-.179,2.029a1.073,1.073,0,0,1-.689.629c-.159-.241.242-.261.343-.436a2.419,2.419,0,0,0,.181-1.631l-.31.383c-.085.1-.139-.047-.226-.067a3.157,3.157,0,0,0,.62-.837c0-.536.251-1.162.179-1.509-.516.524-1.331.424-1.988.673a.735.735,0,0,1,.16.537c-1,.507-.286,1.508-.489,2.342.038.294.4.17.576.341,0,.3-.381.074-.536.18a5.333,5.333,0,0,0-.074,2.167c.069.014.087-.071.155-.107.018.036.071.053.053.1l.727-.106c.018.033.088.067.054.12-.242.1-.538.073-.78.161.018.157-.17.556.16.536.192.1.451.291.384.553.157.187.313-.074.5-.022.122.175-.033.312,0,.484-.312.227-.446.7-.846.508.04,1,.168,1.855.174,2.879.156.085.381-.055.5.118-.087.157-.191.051-.278.121a3.917,3.917,0,0,0-.335,1.634l.31-.074c.3.224.058.744.216,1.057a1.764,1.764,0,0,0,.757-.715c.344-.159.156.31.331.431.244.016.224-.314.414-.348.052.047.018.137.036.188.209.016.245.278.436.381.121-.036.137-.177.206-.262.07-.019.1.051.157.067,0-.086,0-.294,0-.381-.368-.482.567-.643.252-1.145.24-.555-.075-1.024.024-1.6a2.23,2.23,0,0,1-.322-1.678c.276-.035.262.431.332.465-.039-.64.41-.988.6-1.528.053-.086.139.015.175.048l-.049.573h.035a.54.54,0,0,0,.152-.624c.034-.036.068-.086.12-.07l.038-.157a1.1,1.1,0,0,1-.074-.086c.223-.626-.629-.674-.7-1.226-.1-.172-.089-.52.152-.59a21.786,21.786,0,0,1-.5-4.209c-.3-.482.267-1.44-.5-1.61-.122-.1-.139.036-.225.09a3.269,3.269,0,0,1,.461-1.985l.24-.235" style="fill:#efe8c7"/><path id="path226" d="M74.856,51.342c.5.43,1.185.606,1.722,1.046.018.055.089.086.054.156-.121.175-.364.09-.519.074-.471-.258-.938-.341-1.254-.807-.011-.077.056-.18.054-.265l-.057-.2" style="fill:#9a3b26"/><path id="path228" d="M99.154,44.7l-.455-.415c.275-.485-.006-1.072.129-1.611.1-.85.388-1.631.451-2.5a10.716,10.716,0,0,1-.125,4.525" style="fill:#efe8c7"/><path id="path230" d="M115.526,43.316a2.975,2.975,0,0,1-.25,1.56c-.65-1.295-1.681-2.658-1.153-4.2a.425.425,0,0,1,.135-.346c.234,1.071,1.312,1.828,1.268,2.99" style="fill:#773141"/><path id="path232" d="M97.471,41.92c.019.383.16.693.2,1.075-.14-.277-.575-.446-.542-.759.1-.085.242-.242.345-.312" style="fill:#efe8c7"/><path id="path234" d="M121.7,43.672c.346.193.384.606.438.971,0,.086-.1.207-.049.277-.368-.571-1.152-1.171-1.4-1.864l.035-.085c.33.2.833.271.975.7" style="fill:#9a3b26"/><path id="path236" d="M95.8,43.322c-.067.136-.24.226-.308.363,0-.121.137-.312.117-.5.105-.02.123.082.191.137" style="fill:#b3995d"/><path id="path238" d="M101.922,45.594c-.038-.038-.085-.077-.111-.108a1.168,1.168,0,0,0-1.038.421,1.193,1.193,0,0,0-.239.677c-.122-.26-.384-.518-.542-.8.1-.536.635-.938.719-1.443a1.944,1.944,0,0,1,.738-1.042,13.338,13.338,0,0,1,.567,2.278l-.094.013" style="fill:#b3995d"/><path id="path240" d="M101.722,45.737c-.067-.057-.14-.108-.222-.06a.884.884,0,0,0-.691.539c-.1.141-.033.312-.118.4a5.044,5.044,0,0,0,.909,1.206c.207-.208.119-.469.22-.747a2.679,2.679,0,0,0,.211-1.152l-.309-.188" style="fill:#1d5c42"/><path id="path242" d="M115.087,44.964c-.239.626.2,1.214.15,1.871a4.835,4.835,0,0,1-.219,1.129h-.034c-.564-1.47-1.441-3.13-.845-4.745.3.6.649,1.159.948,1.745" style="fill:#773141"/><path id="path244" d="M73.18,44.107c-.033.277-.152.7.127.849,0,.136.141.222.159.343-.035.036-.069.087-.121.056-.088-.123-.142-.314-.281-.4-.049.3-.325.714-.028.938a.864.864,0,0,1,.124.5c-.175-.1-.193-.328-.315-.466-.035.107-.051.262-.154.314h-.052c.082-.763.3-1.369.386-2.1l.068-.051c0,.036.052.017.087.017"/><path id="path246" d="M121.709,45.041c-.054-.359-.644-.462-.474-.9.193.294.7.549.474.9" style="fill:#9a3b26"/><path id="path248" d="M88.727,46.331c-.019-.3-.626-.275-.871-.568a1.044,1.044,0,0,1-.508-.862c.659-.124,1.181.323,1.874.194a5.9,5.9,0,0,1,1.749-.341,22.546,22.546,0,0,0-2.244,1.577" style="fill:#1d5c42"/><path id="path250" d="M97.876,45.664c-1.525.01-2.575,1.021-3.961,1.413a5.189,5.189,0,0,1-1.923.134,1.863,1.863,0,0,0,.516-.573,6.079,6.079,0,0,1,.819-.463,15.379,15.379,0,0,0,2.09-.147c.639-.351,1.349-.546,1.988-.913l.471.549" style="fill:#efe8c7"/><path id="path252" d="M114.776,48l-.068.051a4.19,4.19,0,0,1-.211,2.327,14.29,14.29,0,0,1-1.074-2.474,3.637,3.637,0,0,1,.613-1.721c.265.572.493,1.214.74,1.817" style="fill:#773141"/><path id="path254" d="M101.4,46.577c-.242.312.229.641.109.938-.173-.087-.158-.382-.3-.552-.052-.141-.037-.435.19-.386"/><path id="path256" d="M91.333,47.3a2.541,2.541,0,0,0,.968-.526c-.311.245-.551.574-.968.526" style="fill:#b3995d"/><path id="path260" d="M72.232,47.582c-.051.242.021.572-.186.727-.036-.242.065-.5.029-.778a.089.089,0,0,1,.157.048"/><path id="path262" d="M123.286,47.754c.02.348.351.606.25.97a8.086,8.086,0,0,1-.528-1.212c.172-.07.209.157.278.242"/><path id="path264" d="M96.3,48.058c-.381.174-.513,1.018-1.018.656l-.381-.031a8.544,8.544,0,0,1,1.4-.625" style="fill:#efe8c7"/><path id="path266" d="M72.654,48.46c.089.519-.375,1.148.287,1.56.035.106.141.224.036.329-.173-.138-.227-.38-.384-.553a2.716,2.716,0,0,1-.392,1.165c-.034.087-.139.036-.19,0,.654-.68.231-1.768.643-2.5"/><path id="path268" d="M101.051,48.68a3.581,3.581,0,0,1-.624-.067l0-.086c.209.05.451,0,.626.153"/><path id="path270" d="M72.194,49.922c-.068.034-.086.085-.155.07,0-.207-.073-.622.169-.7l-.014.626"/><path id="path272" d="M76,50.623c.036.176-.155.14-.24.211-.642-.118-1.51-.249-1.672-1.046a.557.557,0,0,1-.019-.244l.122-.07A9.572,9.572,0,0,1,76,50.623" style="fill:#9a3b26"/><path id="path274" d="M114.376,50.549c-.051,0-.085.071-.119.107l0,.555c-.316-.536-.824-1.225-.551-1.9a10.6,10.6,0,0,0,.667,1.24" style="fill:#773141"/><path id="path276" d="M104.353,49.94c-.154.294-.152.779-.426,1.095l-.053-.1a1.793,1.793,0,0,0,.2-.485c0-.177-.055-.572.275-.505"/><path id="path278" d="M70.57,50.744c-.016.14,0,.3.159.348l.38-.038c0,.259-.24.368-.411.54-.139,0-.278.1-.433.022a5.335,5.335,0,0,1-.079-1.214c.157.1.314.154.384.342" style="fill:#9a3b26"/><path id="path280" d="M122.453,50.134c-.121.157-.275.384-.484.438a.732.732,0,0,1,.484-.438"/><path id="path282" d="M124.637,50.331c-.05.07,0,.155-.085.14-.07-.122-.243-.193-.279-.314a.294.294,0,0,1,.364.174"/><path id="path284" d="M112.444,63.925c-.016-.05-.032-.1-.045-.15a.449.449,0,0,1,.063-.093l.422-.366c.129-.134.307-.244.36-.361l.034.032a4.511,4.511,0,0,0,.738-.939c.252.93-.781,1.127-1.348,1.6l-.224.274" style="fill:#9a3b26"/><path id="path286" d="M112.791,63.839c.353-.3.815-.53,1.145-.8a6.716,6.716,0,0,1-.9,2.19c-.147-.3-.356-.687-.51-1.082l.268-.3" style="fill:#1691ff"/><path id="path288" d="M111.606,62.272a5.468,5.468,0,0,0-.331-.708,2.474,2.474,0,0,0,1.258-1.258,5.364,5.364,0,0,1-.352,2c-.009.162-.156.275-.245.392l-.33-.418" style="fill:#b3995d"/><path id="path290" d="M111.909,62.961a3.138,3.138,0,0,0,.818-2.1,8.3,8.3,0,0,1,.242-2.62c.425-1.391,1.632-2.473,1.814-3.963.456,1.159.916,2.629.109,3.758-.58,1.392-.309,3.193-1.34,4.412l-.776.753-.415.357a.465.465,0,0,0-.135.217,8.317,8.317,0,0,0,.756,1.868c.244.031.121-.244.242-.348a5.783,5.783,0,0,0,1.034-3.509c.131-1.215,1.286-2.227,1.226-3.56a3.715,3.715,0,0,1,.962-1.376c.255,2.1.479,4.363-.48,6.328a26.087,26.087,0,0,1-2.267,3.447,19.275,19.275,0,0,0,1.3,2.49c1.386,2.454,3.048,4.764,4.19,7.3-.31.073-.778.23-.9.612-2.116-2.862-3.9-5.852-5.726-8.839.087-.138.21.05.242-.156l-.121-.086a2.636,2.636,0,0,1-2.844-.1c-.973-.342-1.96-.092-2.932-.415a17.3,17.3,0,0,0-2.657-.677,3.6,3.6,0,0,1-1.915-1.269c-.07-.137-.055-.379.154-.4.935-.163,1.614.507,2.585.348.9-.007,1.8-.515,2.652-.07l1.006.2a5.852,5.852,0,0,0,3.443,1.608l.069-.121a18.778,18.778,0,0,0-.865-2.126,6.331,6.331,0,0,0-.349-.623c-.388-.8-1.2-.74-1.879-.925-.381-.1-.762-.012-1.128-.111a24.232,24.232,0,0,1-3.235.8c-1.023.024-2.185.2-2.745-.881-.106-.261-.334-.466-.352-.743a11.636,11.636,0,0,0,4.956-.224c.54.134,1.144-.164,1.665.026.556.219,1.095.51,1.687.7.31-.1.031-.383,0-.556a8.72,8.72,0,0,0-.629-.931c-.95.578-2.355.344-3.376.454-1.373-.508-2.8-1.178-4.392-.837-.381.054-.848.3-1.16.022.379-.347.531-.9,1.117-.906.814-.351,1.683.108,2.551.087.9-.16,1.649.353,2.495,0l1.005-.213c.3.118.47.427.748.494l.035-.031a.64.64,0,0,0,.589.083c.087-.09-.036-.208-.122-.243-.641.14-.992-.443-1.34-.808-.072-.242.188-.382.309-.539.086.07.157.224.33.137.415-.21.469.239.851.236a7.553,7.553,0,0,0,.664.812c.034.054.085-.017.119-.036-.07-.309-.4-.569-.593-.776a1.166,1.166,0,0,1,.114-1.247c-.158-.157.134-.332.222-.435.343-.315.8-.057,1.211-.235,0,.59.266,1.2.219,1.752-.1.308-.448.5-.515.851.035.016.071.083.121.052.327-.368.758-.719.582-1.286-.281-.485.01-1.041-.217-1.526.732-2.033-.656-4.938,1.361-6.562l.431-.4c.2,1.439-.31,3.054-.248,4.564a30.948,30.948,0,0,0,.078,4.175,2.322,2.322,0,0,1-1.01,2.07,1.837,1.837,0,0,0-.5.278,3.575,3.575,0,0,0,.386.936l.474.586" style="fill:#1d5c42"/><path id="path292" d="M122.99,50.324c-.031.379.232.794-.078,1.055l-.007-1.055h.085"/><path id="path294" d="M75.338,50.943l.074.551a1.043,1.043,0,0,1-.592-.427l0-.313c.209-.035.332.173.521.189" style="fill:#9a3b26"/><path id="path296" d="M114.178,52.149c-.016.051-.034-.14-.139-.09a1.356,1.356,0,0,0,0,.523c-.316-.5-.806-1.263-.342-1.869a2.1,2.1,0,0,1,.477,1.436" style="fill:#773141"/><path id="path298" d="M72.293,51.76a3.961,3.961,0,0,0,.441,1.119l-.087.107a3.722,3.722,0,0,1-.51-1.226c-.1.155-.135.466-.379.417a3.854,3.854,0,0,0,.412-.784c.225.034.036.261.123.367"/><path id="path300" d="M121.752,51.785c.173-.087.362-.329.552-.366a.581.581,0,0,1-.552.366"/><path id="path302" d="M88.807,53.8c.169.268.391.6.752.539,1.8-1.034,3.1-2.745,4.6-4.245a2.42,2.42,0,0,1,.314.157A26.816,26.816,0,0,1,97.6,51.594c1.386.1,2.609-.881,3.662-1.739.38-.087.644.359.887.6.02.137.35.289.056.4-.332-.2-.744.007-1.094-.06-.207,0-.276.261-.24.418a2.584,2.584,0,0,0,.935,1.41l-.226.151-.575.117a13.987,13.987,0,0,1-2.969-.727,4.1,4.1,0,0,0-.817-.3,8.773,8.773,0,0,0-2.773.067.891.891,0,0,0,.092.66c.853.652,1.825.958,2.7,1.543.975.653,1.838-.029,2.771-.262l1.82-.045a1.593,1.593,0,0,1,.625.083,1.9,1.9,0,0,0,1.6-.345l.468.466c-.2-.092-.455.006-.732.01-.329.086-.832.054-1.143.163-.225.121-.519.07-.727.211-1.039.214-1.763.982-2.854,1.059-.762.124-1.476-.389-2.219-.023a2.13,2.13,0,0,0,.946,1.433,2.433,2.433,0,0,0,2.34-.012l.034.015a2.637,2.637,0,0,1,.763-.412l-.083.388a3.413,3.413,0,0,1-2.7,1.544c-.278.019-.5.264-.779.163a4.858,4.858,0,0,0-.08-1.6c-.139-.048-.312-.154-.468-.064-.467-.224-.864.023-1.315.163.14.242.021.657-.011.969-.432.211-.867-.008-1.316.2-.016.208-.135.4-.083.589a2.74,2.74,0,0,0,.01,1.406c.139.138.312-.037.467.064.209.017.33-.034.485.033-.063.848-.109,1.627-.1,2.425a5.7,5.7,0,0,0,1.872.143,13.481,13.481,0,0,0,.213-2.147l1.331-.269c.223-.245.08-.8.115-1.093l.068-.087a5.9,5.9,0,0,0,1.837-.047c-.431.349-.931.647-1.363.944l.123.262a.8.8,0,0,0,.781.08l.034.034a3.616,3.616,0,0,1,.848-.23c-.119.31-.448.434-.567.748.177.413.729.273,1.093.252a4.277,4.277,0,0,1,2.183-.115,18.289,18.289,0,0,1,2.572.9,4.762,4.762,0,0,1-1.367.253,9.237,9.237,0,0,1-3.156-.17l-.07.067a3.213,3.213,0,0,0,.755,1.436,2.438,2.438,0,0,0,2.17.5,4.781,4.781,0,0,0,1.523-.22l.039.3a1.321,1.321,0,0,0,0,.288,7.212,7.212,0,0,0,2.028.109,3.469,3.469,0,0,0,.114-1.162c.121-.192.365.015.52-.055.782.287,1.854-.064,2.191.957-.588.368-1.105.77-1.709,1.1l.034.016a.515.515,0,0,0,.085-.036l-.3.033a2.429,2.429,0,0,0-1.316-.352,4.76,4.76,0,0,0-2.253.067c-1.108.335-1.98-.558-3.018-.294a.408.408,0,0,0-.222.419c.634,1.222,1.993,1.442,3.25,1.768l-.193.055a12.744,12.744,0,0,1-2.038.564c-2.078.134-4.279.441-6.307.508l-.121-.087a2.021,2.021,0,0,0,.375-.938c-.139-.07-.192-.31-.383-.223-.465.348-.7.973-1.2,1.255a5.587,5.587,0,0,0-.781-.2c.206-.384,1.07-.665.667-1.2-.035-.054-.138,0-.172-.051-.155-.016-.312,0-.381.191-.5.195-.706.649-1.119.945-.052.07-.157-.035-.191-.067a23.79,23.79,0,0,1-7.685-3.3c-.382-.188-.037-.435-.108-.744-.263-.469-.625-.137-.938-.119-.276.211-.469-.219-.66-.341.085-.121.208-.121.293-.242a.832.832,0,0,0-.038-.572,5.926,5.926,0,0,0-1.528-.165,14,14,0,0,0-1.009-1l-.035.036-.21-.309c.828-.82,1.776-1.61,2.531-2.477.04.951-.022,1.748-.015,2.7l.139.154c.451-.09,1.109-.007,1.56-.127.167-.716.146-1.339.262-2.069.328-.3.884.013,1.3-.092l.022-2.1c-.3-.412-1.281.355-1.1-.51a31.449,31.449,0,0,0,2.43-2.358c.24-.243-.2-.431-.231-.655a1.375,1.375,0,0,0,.115-.114l.162.278" style="fill:#b3995d"/><path id="path304" d="M88.737,53.415a1.339,1.339,0,0,1,.191-.168,1.75,1.75,0,0,0-.474-.743c-.242.018-.413.4-.639.248a1.211,1.211,0,0,1-.2-1.111,1.724,1.724,0,0,1,1.253.773c.176.572.82,1.034.668,1.678.053,0,.087-.07.121-.1.031-.712-.51-1.178-.756-1.764a1.882,1.882,0,0,0-1.2-.737c1.155-1.048,2.24-2.113,3.361-3.177a6.806,6.806,0,0,0,1.616.613c-.053.052-.139.106-.155.191a.513.513,0,0,0,.228.642,3.538,3.538,0,0,1,1.286.335,45.508,45.508,0,0,1-3.446,3.456c-.413.3-.74.665-1.243.632a1.313,1.313,0,0,1-.432-.392l-.181-.371" style="fill:#efe8c7"/><path id="path306" d="M101.008,56.729a3.187,3.187,0,0,1-2.65,1.709c-.209.087-.435.071-.624.211.194.4.627.412.905.565a3.282,3.282,0,0,0,3.028-.9,3.752,3.752,0,0,0,1.74-1.848,16.226,16.226,0,0,1-2.257-.015l-.142.281" style="fill:#1d5c42"/><path id="path308" d="M95.582,44.208c.255.006.456.126.725.01.121-.071.311-.124.275-.312a6.439,6.439,0,0,0-.977-1l-.085.105c-.234,1.526-1.768,2.782-3.064,3.466a4.034,4.034,0,0,1-4.314.478c.863-.612,1.794-1.343,2.709-1.956.881-.456,2.043-.4,2.731-1.2-.208-.085-.433.019-.659.019-.1,0-.242.141-.328,0l.016-.017a15.9,15.9,0,0,1-3.046.662,11.873,11.873,0,0,1-1.336-.268,8.24,8.24,0,0,1-2.454-1.443c.723-.591,1.732-.113,2.5.038,1.043.322,1.749-.446,2.649-.693,1.158-.2,2.551.4,3.464-.319l-.034-.016.1-.141a3.641,3.641,0,0,0-1.138-1.55c-.243-.051-.521-.154-.745-.013-1.366.652-2.619,2.166-4.307,1.362a4.277,4.277,0,0,1-2.505-1.317c-.384-.552-.717-1.124-1.067-1.691l.121-.055a8.763,8.763,0,0,1,2.414.974c1.442.753,2.392-.154,3.588-.231.346-.073.848-.091.933-.475l-.629-.724c-.729-.013-1.244.65-1.973.74-1.035.389-2.027-.5-2.931-.75a7.524,7.524,0,0,1-2.812-.425c-1.041-.134-1.377-1.237-2.007-1.926-.07-.123-.277-.173-.313-.314.64-.158,1.163.217,1.719.391a4.542,4.542,0,0,0,2.117.366c1.2.045,1.861,1.165,3.04,1.228.223-.21.348.154.555.118.332.19.66.083,1.041.15a.09.09,0,0,0,.052-.158,1.763,1.763,0,0,1-1.563-.458c-.244-.274-.141-.622-.161-.969.309-.47,1.022-.143,1.5-.166.556.134.732.724,1.064,1.068.087,0,.07.1.157.017-.054-.208-.3-.309-.384-.517a1.461,1.461,0,0,0-.67-.578l-.087-.348a9.172,9.172,0,0,0-1.66-2.907c-.225-.083-.363.191-.57.23-1.17,1.477-3.167.938-4.694.584-.974-.479-1.96-.058-3.036-.294a5.985,5.985,0,0,1,.81-.75c.381-.054.778-.437,1.144-.162.085-.087-.02-.157-.054-.208a3.317,3.317,0,0,1,1.559-.358,2.482,2.482,0,0,0-1.716.291c-.75-.7-.688-1.8-1.523-2.42-.175-.171-.523-.375-.4-.653,1.612-.013,2.317,1.717,3.536,2.508a5.083,5.083,0,0,0,2.133.382,22.014,22.014,0,0,0,2.275.525c.191.031.26-.177.224-.3A3.482,3.482,0,0,0,86.355,30.3c-.625-.118-1.182-.392-1.806-.459a5.176,5.176,0,0,1-3.822-1.188c-.436-.412-.889-.9-1.327-1.4a3.04,3.04,0,0,1-.8-.7c-.036-.121-.211-.258-.107-.381.7.412,1.358.891,2.071,1.232.642.275,1.389.324,2.067.562,1.091-.026,1.841.783,2.712,1.316l.312.031A.332.332,0,0,0,85.792,29c-.455-.827-1.016-1.587-1.419-2.435a12.717,12.717,0,0,1-2.344-.348A4.328,4.328,0,0,1,79.1,23.79a15.536,15.536,0,0,0-2.454-4.283l.034-.034c.366.325.956.3,1.306.737a5.56,5.56,0,0,0,2.152,3.053c.242.121.521.221.627.515a4.763,4.763,0,0,0,2.713,1.458c.157,0,.3.361.416.083-.385-.69-1.219-.894-1.794-1.325,0,0-.07-.085-.121-.067l-1.79-.784c-1.8-1.219-2.154-3.368-2.739-5.2a3.955,3.955,0,0,1,.629.588c.087.051-.069.222.087.118.82.776.655,2.023,1.491,2.833.558.569,1.337.565,2.033.837.3.242.68.568,1.095.428-.007-.936-1.015-1.57-1.677-2.088-.732-.618-.946-1.639-1.627-2.381-.528-.708-1.5-1.286-1.658-2.173l.267-.223a12.7,12.7,0,0,1,1.556,1.2c.7.513,1.634.8,2.021,1.65.355,1.244,1.314,2.262,1.669,3.51.385.5.006,1.057.132,1.593.052.137.124.466.314.376a1.463,1.463,0,0,0-.157-.309,4.49,4.49,0,0,0-.45-2.477c-1.207-1.672-.562-3.634-.972-5.575-.052-.067-.052-.1,0-.191a10.27,10.27,0,0,1,2.343,5.792c.372,1.314-.608,2.693.284,3.814.087.121.106.449.279.395-.455-.967.249-1.768.383-2.652a8.651,8.651,0,0,0-.809-4.487c0-.173.224-.173.345-.124a5.036,5.036,0,0,1,1.823,2.987,5.646,5.646,0,0,1,.3,1.577,31.259,31.259,0,0,1-1.486,3.353c-.34.943.445,1.542.673,2.3.071.136,0,.293.072.379.27-1.2.659-2.638-.008-3.849.066-.484.5-.9.651-1.407a5.924,5.924,0,0,1,.035,5.618c-.307.918.617,1.451.984,2.16l.226,0a1.362,1.362,0,0,0,.273-.813,5.1,5.1,0,0,1-.28-3.067c.271-.923-.255-1.734-.036-2.652.332.258.438.706.719,1.034a6.1,6.1,0,0,1,.494,4.139c-.273.66-.146,1.474-.68,2.033-.1.469.353.849.511,1.279l.156.067L89.5,34.8c.036.345.573.306.385.76a.371.371,0,0,0,.469.152c-.331-.466-.147-1.283-.2-1.819l-.1-.086c.074.622-.113,1.215.168,1.75l-.052.053c-.314-.156-.126-.658-.542-.779a6.454,6.454,0,0,1-.043-1.3c.1-.312.466-.418.724-.539,1.252.475.131,1.456.258,2.269l.069,0c.016-.1.085-.243.05-.328a5.185,5.185,0,0,0,.236-3.469c-.04-.917-1.152-1.482-.794-2.49a2.484,2.484,0,0,1,.148-.888l.819.62c1.6,1.222,1.495,3.354,1.559,5.086a4.78,4.78,0,0,1-.832,2.538,1.878,1.878,0,0,0,.98,1.828c.226-.034-.054-.188.156-.258a7.688,7.688,0,0,0,.219-3.606c.024-1.525-.489-3.118-.084-4.717.17-.762-.2-1.4-.166-2.1a1.135,1.135,0,0,1,.434.415,13.873,13.873,0,0,1,1.383,7.446,7.892,7.892,0,0,1-1.125,3.214,19.669,19.669,0,0,0,1.1,1.656c.209.223.317.709.75.639.375-1.064-.291-1.96-.3-2.966-.317-.951.144-2.116.172-3.015a24.643,24.643,0,0,0-.177-3.274c.069-.04.1.047.173.031.856.913,1.02,2.125,1.459,3.23a16.809,16.809,0,0,1-.214,4.372A9.3,9.3,0,0,0,96.1,41.5l1.642,1.864.087-.054c-.131-1.4-.641-2.578-.737-3.964-.337-1.4.452-2.484.444-3.871.013-.6-.3-1.1-.323-1.66a7.02,7.02,0,0,1,1.6,3.057,11.349,11.349,0,0,1-.119,5.652c-.187.592.147,1.283-.162,1.838.227.192.314.329.559.553-.053.036-.017.1-.035.157.071.034.105-.036.121-.054a7.753,7.753,0,0,0,.357-4.128,1.315,1.315,0,0,1,.062-1.058h-.035c-.228-.533.01-1.041-.011-1.68a8.463,8.463,0,0,1,1.042-2.345l.071.118c-.056,2.222.929,4.519.405,6.549A10.735,10.735,0,0,1,99.8,45.794a3.6,3.6,0,0,0,.631.827l.034-.034a5.369,5.369,0,0,0,1.048,1.4c.155,0,.207-.087.31-.175a8.086,8.086,0,0,0,.35-2.256c.01-1.159-.933-2.229-.42-3.392-.111-1.025.263-2.223.255-3.317a3.1,3.1,0,0,1,.351.5c.476,1.259.657,2.645,1.013,3.941.394,1.975.806,4.018-.761,5.571.07.154.088.345.176.5.054.345.4.657.544,1.018.121.121.228.363.4.4,0-.259-.35-.466-.317-.8.24-.521.217-1.161.84-1.478a.552.552,0,0,1,.467.032,6.53,6.53,0,0,0-.178,1.909c.4.586-.513.868-.337,1.4.205-.5.723-.836.562-1.44-.212-.851.232-1.685.071-2.6-.915-2.18,1.519-3.635,2.532-5.219a4.155,4.155,0,0,1,.294,2.582,31.451,31.451,0,0,1-1.835,5.939c-.22.59-.772,1.063-.856,1.688l1.066,1.223c.121-.035.209.156.312,0a16.8,16.8,0,0,1,.756-3.472c.144-1.818.167-3.794,1.84-5.039a3.015,3.015,0,0,1,.095,1.248c-.489,2.291.412,4.835-1.2,6.754a2.96,2.96,0,0,1-.86,1.027c-.119.192.056.345.09.536a3.541,3.541,0,0,1,.472.865c.486-.074.6-.559.845-.906.8-1.465,1.049-3.875,3.216-4.08l.106.08a4.152,4.152,0,0,0-.745,3.131,4.5,4.5,0,0,1-2.76,2.187c.105.083.054.258.072.4a3.982,3.982,0,0,0,.717,1.018c.245.467-.271.923-.078,1.389a1.387,1.387,0,0,0-.624-.224,3.288,3.288,0,0,0-.858-1.206c-.4-.5-.989-.15-1.438-.026a14.221,14.221,0,0,1-4.077,2.176,12.66,12.66,0,0,1-2.51.589c-.086-.017-.209-.1-.191-.188,1.985-1.175,3.672-3.164,6.026-3.629a3.779,3.779,0,0,0,1.281-.2c-.07-.294-.315-.5-.42-.776h-.122v.086a7.546,7.546,0,0,1-2.892.626c-.9.281-2.013-.351-2.84.329a3.148,3.148,0,0,1-2.219.134c-.416-.326-1.129-.7-1.029-1.309.191-.035.364-.054.552-.093a3.888,3.888,0,0,0,3.275-.453,6.834,6.834,0,0,1,2.283-.775c.565.061,1.022-.21,1.609-.112l-.588-.667a2.715,2.715,0,0,1-1.438.382c-.678-.308-1.543.043-2.394-.107-.953.06-1.8.88-2.717.452-.837-.533-1.724-.925-2.575-1.387-.244-.157-.523-.4-.491-.709.277-.3.848-.108,1.144-.164,1.559-.215,2.69.643,4.062.879a3.688,3.688,0,0,0,1.856.064l.388-.1a3.978,3.978,0,0,0,.722.412.506.506,0,0,1,.069-.121,2.814,2.814,0,0,0,.936-.163l0-.067c-.33-.137-.693.16-1.091.113a2.538,2.538,0,0,1-1.608-1.968,2.15,2.15,0,0,1,.9-.127,1.264,1.264,0,0,1,.9.565c.105.208.384.466.2.674a1.305,1.305,0,0,0-.817-.272,3.779,3.779,0,0,1,1.08.687c0-.017.016-.051.051-.033.052-.069-.053-.206.1-.226a3.309,3.309,0,0,0-.77-1.174c.034-.071.087,0,.139,0-.07-.157-.072-.435-.3-.435-.21-.275-.472-.5-.715-.771-.191-.071-.383-.174-.59-.067-1.119.944-2.466,2.045-3.995,1.55a16.818,16.818,0,0,0-3.6-1.534,3.414,3.414,0,0,1-.938-.24.382.382,0,0,1,.151-.536c1.245-.6,2.479.019,3.779.044a9.2,9.2,0,0,0,3.713.257c.189-.126.588-.11.568-.388-.224.106-.465.192-.691.3-.417-.033-1.055.2-1.369-.058a1.416,1.416,0,0,1-.249-.936,1.244,1.244,0,0,1,1.246-.51c.018.035.088.071.053.118a2.57,2.57,0,0,1,1.009.655c-.017-.036.034-.052.05-.086-.036-.138-.157-.174-.245-.275-.225-.157-.554-.207-.66-.451l-.209-.276a.828.828,0,0,0-.417-.2c-.694,0-1.215-.288-1.872.008a24.767,24.767,0,0,1-2.834,1.423,5.352,5.352,0,0,0-1.8.167,5.971,5.971,0,0,1-2.381-.954,5.138,5.138,0,0,1,2.754-.45c1.4-.2,2.575-1.021,3.89-1.465a9.372,9.372,0,0,0,1.023-.128,4.445,4.445,0,0,0-.631-.81c-.537-.083-.9.456-1.4.529a3.451,3.451,0,0,1-2.181.463c-.156-.031-.277.16-.4,0l.586-.469a12.628,12.628,0,0,0,.93-1.011,3.012,3.012,0,0,1,.155-.312l.366.014" style="fill:#1d5c42"/><path id="path310" d="M95.279,44.087a2.448,2.448,0,0,1,.607-.683,2.128,2.128,0,0,1,.541.552l-.121.107c-.246.155-.513-.007-.749-.01l-.278.034" style="fill:#efe8c7"/><path id="path312" d="M73.98,52.6a1.866,1.866,0,0,1-.235,1.319,2.354,2.354,0,0,1-.317-.967c.069.086.105.207.209.243.4-.23.134-.817.461-1.134.07.191-.085.368-.118.539" style="fill:#9a3b26"/><path id="path314" d="M124.061,52.049a2.9,2.9,0,0,1,.23.814c-.227-.085-.247-.433-.317-.676-.018-.067,0-.172.087-.138"/><path id="path316" d="M76.114,52.826a34.941,34.941,0,0,0,2.86,5.39l.034-.036,1.051,1.469c.07.208-.258.348-.379.52A26.674,26.674,0,0,1,75.418,52.5a4.953,4.953,0,0,1,.7.326" style="fill:#9a3b26"/><path id="path318" d="M113.892,53.361a1.044,1.044,0,0,1-.336-1.088l.052-.019c.14.348.524.725.284,1.107" style="fill:#773141"/><path id="path320" d="M88.214,52.852l.19-.157.349.5c-.137.1-.465.3-.377.521.088.191.418.415.126.623-2.224,2.01-4.309,3.982-6.445,6.161-1.292,1.067-2.621,2.27-3.913,3.335a6.439,6.439,0,0,1-.409-1.4c.708-.559,1.223-1.359,1.982-1.884,2.29-2.652,4.977-5.163,7.4-7.815l.118-.064c.362.121.612.546.973.18" style="fill:#773141"/><path id="path322" d="M123.074,52.471c.036.207.091.52-.1.676l-.056-.743a.2.2,0,0,1,.156.067"/><path id="path324" d="M122.3,52.842c-.137.054-.224.191-.379.14.137-.207.379-.263.55-.418.141.067-.1.222-.171.278"/><path id="path326" d="M72.819,55.324l-.069.054a10.683,10.683,0,0,0-.407-1.279c-.173.05-.189.258-.274.383l.021.708h-.052c-.352-.7.478-1.165.353-1.892-.239.75.423,1.283.428,2.026"/><path id="path328" d="M113.846,54.281c-.156.018-.313-.22-.418-.341a.764.764,0,0,1,.064-.7.949.949,0,0,1,.354,1.037" style="fill:#773141"/><path id="path330" d="M122.944,53.808c-.1.344.11.815-.114,1.091l-.052-.05c0-.329-.075-.834.166-1.041"/><path id="path332" d="M113.745,54.714a1.168,1.168,0,0,0-.119.4,3.123,3.123,0,0,1-.057-.707c.173,0,.124.207.176.308" style="fill:#773141"/><path id="path334" d="M122.275,54.781l-.313,0c.156-.121.416-.144.553-.352.1.174-.12.278-.24.348"/><path id="path336" d="M110.588,57.319c-.572.023-1.091.041-1.4.479-.087-.051-.088-.262-.227-.278-.157-.224-.263-.482-.438-.709.207-.141-.106-.222-.072-.379a3.4,3.4,0,0,0,1.469-.788,4.41,4.41,0,0,0,1.015-1.1,4.666,4.666,0,0,1-.347,2.776" style="fill:#b3995d"/><path id="path338" d="M72.549,56.469a.087.087,0,0,1-.069.04c-.14-.121-.071-.348-.228-.435-.121.176-.223.435-.4.525.222-.435.6-.857.494-1.409l.119-.312c-.015.449-.235,1.109.08,1.591"/><path id="path340" d="M122.781,55.334a.87.87,0,0,1-.067.5h-.086c.05-.157,0-.4.153-.5"/><path id="path342" d="M106.3,56.358c-.484.124-1.092-.029-1.525.252-.536,0-1.036.457-1.59.6.138-.243.378-.488.376-.748.226-.124.59-.021.866-.092a4.853,4.853,0,0,0,1.662-.428l.211.415" style="fill:#b3995d"/><path id="path344" d="M117.917,56.613l-.035.036a1.833,1.833,0,0,1,.236,1.436.115.115,0,0,1-.156.089,4.741,4.741,0,0,1-.272-1.991.627.627,0,0,1,.227.43" style="fill:#9a3b26"/><path id="path346" d="M70.765,56.71l.075.985c.382.033.727-.366.949-.683.106.294.247.622.007.9-.19.244-.484.3-.708.473-.295,0-.431.331-.709.438a7.375,7.375,0,0,1,.108-2.116c.087,0,.189-.141.278,0" style="fill:#9a3b26"/><path id="path348" d="M86.371,57.2c.346.047.675-.09.9.028l-.023,1.905c-.431.144-1.04-.318-1.333.167a14.038,14.038,0,0,1-.212,1.995c-.486.038-.953.057-1.4.06-.023-.866.039-1.925.052-2.774l-.036-.034,1.862-1.782c.1.138-.1.4.194.435" style="fill:#9a3b26"/><path id="path350" d="M123.732,57.808v.016a2.805,2.805,0,0,1-.631-1.211c.211.4,1.044.722.631,1.2" style="fill:#9a3b26"/><path id="path352" d="M97.134,57.061c.092.622.008,1.091.046,1.662.036.067.122.052.191.052.31-.176.348.289.626.376l.312.083a3.211,3.211,0,0,1-.095,1.162,4.132,4.132,0,0,0-1.368.251c-.031.7-.026,1.389-.107,2.1a6.047,6.047,0,0,1-1.562-.057,12.048,12.048,0,0,1,.106-2.461l-.071-.051-.952-.029a3.579,3.579,0,0,1,.109-1.873,5.948,5.948,0,0,0,1.213-.076l.068-.054.116-1.005c.432-.263.866-.043,1.368-.077" style="fill:#9a3b26"/><path id="path354" d="M117.034,56.878c.146.814.742,2.042-.139,2.655a12.711,12.711,0,0,0-.22-2.131c-.106-.227.134-.591.359-.524" style="fill:#9a3b26"/><path id="path356" d="M121.871,56.814a1.1,1.1,0,0,1-.428.7,2.137,2.137,0,0,1,.428-.7"/><path id="path358" d="M73.211,59.589c-.345.416.041,1.055-.3,1.438.052.07-.069.14-.085.227l.036.016a.1.1,0,0,0-.07.034c-.036-.222-.451-.188-.316-.5-.469-.466-.144-1.041-.2-1.613l-.087-.1c-.171.277-.013.692-.237.934.054.345-.256.626-.289.974.3.031.206-.418.378-.59a5.362,5.362,0,0,1,.317.688c-.138.263-.118.572-.237.833l-.227-.207c-.277.194-.136.575-.185.8-.242.3-.27.936-.861.732-.069.037-.173.037-.224.124.036.258.294.016.413.067a.707.707,0,0,0,.486-.16,3.291,3.291,0,0,1,.29-.469c.107.224.143.572.438.639-.1.519-.009,1.055-.111,1.594.072.435-.688.7-.616,1.2-.139.051-.014.208-.137.278a4.908,4.908,0,0,1-.25-1.351,1.466,1.466,0,0,0,.546-1.5c-.294.11-.327.472-.639.508-.069-.1-.1-.274-.262-.274-.137.05-.067.207-.153.312a1.332,1.332,0,0,1,.064-.969c.447-.211.375-.837.668-1.168.031-.314.238-.643-.057-.78a5.453,5.453,0,0,0-.479-1.557c-.191-.031-.242.14-.345.265.031-.3-.23-.8.08-1.075L71,58.509l.053.07a2.65,2.65,0,0,0,.88-.6,3.1,3.1,0,0,1,.283.935c.052.052.173-.018.191-.1-.037-.349-.23-.71-.3-1.092.207-.034.24-.261.309-.4a7.223,7.223,0,0,0,.8,2.267" style="fill:#efe8c7"/><path id="path360" d="M73.31,59.033a.6.6,0,0,1,0,.348,7.114,7.114,0,0,1-.638-1.972c.123.1.262.376.435.188l.121-.124.034.034.084-.157a2.676,2.676,0,0,0-.04,1.683" style="fill:#9a3b26"/><path id="path362" d="M72.208,57.409a.217.217,0,0,1-.069.124v-.121l.069,0" style="fill:#efe8c7"/><path id="path364" d="M122.015,57.473a2.741,2.741,0,0,1-.412.676c-.054-.258.239-.521.412-.676"/><path id="path366" d="M107.525,58.069a1.551,1.551,0,0,0-.78.09.566.566,0,0,0-.31.073c-.051.309-.082.8-.115,1.213a3.266,3.266,0,0,0-1.523.286l0,.348a18.915,18.915,0,0,1-2.255-.178c.173-.121.451-.124.623-.316a17.054,17.054,0,0,0,2-1.14c.242-.1.466-.4.778-.472.4-.226.673-.437,1.142-.319.139.172.314.239.435.415" style="fill:#b3995d"/><path id="path368" d="M107.98,58.688c-.258.242-.846.492-.653.958.036.085.157.155.158.258-.781.007-1.678.529-2.5.172a.3.3,0,0,1,.275-.417,5.211,5.211,0,0,1,1.178-.023c.24-.472.1-.763.183-1.252.417,0,1.279-.509,1.354.3" style="fill:#9a3b26"/><path id="path370" d="M109.86,59.821h-.069a1.864,1.864,0,0,1,.183-1.025,6.712,6.712,0,0,1-.114,1.025"/><path id="path372" d="M121.332,59.071c-.244.09-.536.331-.78.16,0-.067.087-.036.121-.036v.036c.208.016.415-.177.659-.16"/><path id="path374" d="M70.717,60.018c.107.486.317.9.391,1.406.294.134.054.5.039.743-.157.085-.363.278-.538.159a6.678,6.678,0,0,0-.168-1.976.58.58,0,0,1,.276-.332" style="fill:#9a3b26"/><path id="path376" d="M76.562,60.607l.757,1.642a6.608,6.608,0,0,0-1.294,1.013c0,.085-.138.155-.033.242-.016.036-.069.036-.105.036-.523-.6-1.879-1.08-1.572-2.053a2.282,2.282,0,0,1,1.551-1.379c.328-.037.5.275.7.5" style="fill:#773141"/><path id="path378" d="M109.446,60.169c-.173.07-.435-.154-.676-.115l0-.121c.226.082.521.064.678.239"/><path id="path380" d="M72.737,61.5a8.053,8.053,0,0,1-.44,1.789h-.052a2.068,2.068,0,0,1-.319-1.192.3.3,0,0,0,.432-.211l.118-.61c.12.017.156.157.261.224" style="fill:#9a3b26"/><path id="path382" d="M81.253,62.188a1.917,1.917,0,0,1-.153.415c0,.177-.136.332-.118.489.072.294-.256.555-.15.814.2.864,1.413,1.5.916,2.457a1.867,1.867,0,0,0,.076.814c-.139.188-.278.036-.417.07-.5.4-.324.887-.181,1.4.093,1.06-.891,1.76-.451,2.781-.273.586.008,1.142.013,1.782-.1.193-.415.228-.432.489.3.744-.387,1.423-.229,2.219-.619.49.286,1.2-.367,1.685-.017.294.037.586,0,.848-.209-.172-.178-.762-.559-.551a3.326,3.326,0,0,1,.039.711c-.1.05-.243-.154-.346,0a2.753,2.753,0,0,0,.529,1.469l.155-.07a1.3,1.3,0,0,1-.045.848l-.19.175.034.036c-.173.07-.174-.259-.382-.275-.191.016-.155.07-.242.227s.021.485.039.673c-.086-.066-.191,0-.259.074-.419-.415.307-.923-.164-1.248-.1-.035-.139.07-.243.036-.139-.224.014-.468-.263-.623.467-.07.619-.575.722-.94-.036-.225.049-.452-.074-.66a2.466,2.466,0,0,0,.567-.817c-.018-.07-.054-.171-.14-.191-.19.315-.343.593-.515.941-.173.036-.224.227-.343.348-.038-.308-.3-.516-.386-.813.363-.121.535-.576.844-.716a1.543,1.543,0,0,0,.338-1.283c-.263-.379-.536.211-.848.231,0-.294.55-.8.114-1.041-.225,0-.276.227-.466.317a1.42,1.42,0,0,0-.212-.713l-.119-.031c.153-.3.114-.7.511-.856.034-.157.276-.258.188-.435-.24-.047-.24.282-.394.419l-.292.211a3.766,3.766,0,0,1,.024-1.247A5.648,5.648,0,0,1,77.48,70.9c.12-.314.536-.211.62-.544.016-.172.085-.414.014-.554-.191.037-.38.229-.588.162-.16-.693.32-1.337.057-1.943a1.834,1.834,0,0,0,.615-1.322c.122,0,.158.345.313.154-.018-.188-.21-.309-.384-.362a.433.433,0,0,1-.348-.222c.049-.364.012-.815.34-.99a.674.674,0,0,0,.693-.194.952.952,0,0,1-.127-.884c.434.274.866-.074,1.264-.182a4.049,4.049,0,0,0,.992-2.175c.121.09.278.208.314.345" style="fill:#efe8c7"/><path id="path384" d="M109.3,61.7a4.033,4.033,0,0,1,.578,1,2.932,2.932,0,0,1-1.042-.5c-.243-.05-.469-.153-.712-.184.364-.023.83-.335,1.176-.319" style="fill:#b3995d"/><path id="path386" d="M107.551,62.02a1.182,1.182,0,0,1-.554.038c.155-.1.363,0,.554-.038" style="fill:#9a3b26"/><path id="path388" d="M106.685,62.027c-.087.12-.244,0-.383.07.087-.121.26-.036.383-.07" style="fill:#9a3b26"/><path id="path392" d="M117.34,63.951l.036.031c-.173.054-.556.041-.693.265-.031.61.561.847.876,1.3.07.157.3.345.16.572a.577.577,0,0,0-.206.485c.384.222.213.57.128.884-.118.52-1.025-.134-.742.557.122.294.662.4.508.776-.137.2-.118.54-.378.594a1.427,1.427,0,0,0-.591-.326c-.173.157.02.4.124.553a2.915,2.915,0,0,1,.445,1.643c-.121.054-.244.054-.347.144-.859-1.469-1.787-2.936-2.645-4.423l-.09-.345a29.648,29.648,0,0,0,2.163-3.22,5.931,5.931,0,0,1-.575,2.116.166.166,0,0,0,.157.07,6.118,6.118,0,0,0,.608-2.381l-.1,0a7.654,7.654,0,0,0,.374-1.13c.126.763,1.392.926.791,1.833" style="fill:#efe8c7"/><path id="path394" d="M77.74,63.216a3.04,3.04,0,0,1,.25.987c.121.067.123.309.159.466-.173-.033-.417,0-.469-.2a3.837,3.837,0,0,1-1.531-.874c.152-.591.827-.82,1.274-1.188.209.192.229.536.317.814" style="fill:#773141"/><path id="path396" d="M84.343,62.894c.106.278-.119.348-.309.438-.709.159-1.732.286-2.238-.333a.354.354,0,0,1,.085-.312,7,7,0,0,1,2.41.054l.052.153" style="fill:#9a3b26"/><path id="path398" d="M84.036,63.574c.088.121.243.137.279.275a1.4,1.4,0,0,1-.624.107c-.07-.171-.278-.171-.4-.309l.779-.194c-.052.02-.016.087-.034.121" style="fill:#9a3b26"/><path id="path400" d="M85.6,63.979a.643.643,0,0,1-.341.593,1.953,1.953,0,0,1-1.527-.024.514.514,0,0,1-.279-.4c.781.149,1.314-.408,2.026-.326l.121.153" style="fill:#9a3b26"/><path id="path402" d="M77.333,64.625C75.2,66.6,73.3,68.791,70.887,70.435c-.121-.067-.106-.258-.106-.415l.309-.52c1.41-1.6,2.876-2.983,4.34-4.5a3.887,3.887,0,0,0,.72-1.1c.384.275.8.463,1.183.723" style="fill:#773141"/><path id="path404" d="M70.7,65.185c-.226-.051-.124-.449-.108-.586.155-.054.085-.262.188-.368a.319.319,0,0,0,.382.173l.311-.281a1.221,1.221,0,0,1-.773,1.062" style="fill:#9a3b26"/><path id="path406" d="M121.611,64.809a.764.764,0,0,0-.784-.465,8.458,8.458,0,0,0-1.209.562c-.036-.138-.141-.291-.124-.432.191-.054.24-.313.395-.4.436.36.833.1,1.284-.006a.435.435,0,0,0,.381.153,1.374,1.374,0,0,0,.31-.313c0,.258.023.725-.253.9" style="fill:#9a3b26"/><path id="path408" d="M88.074,66.045a18.7,18.7,0,0,0,5.387,1.993c-.19.243-.5.281-.655.544.016-.055-.054-.207-.157-.193-1.147-.3-2.464-.312-3.371-1.032l.034-.04a5.859,5.859,0,0,1-1.2-.491c-1.077-.5-2.072-1.407-3.167-1.973a1.428,1.428,0,0,0,.605-.351,15.768,15.768,0,0,0,2.523,1.543" style="fill:#9a3b26"/><path id="path410" d="M71.842,65.125a.131.131,0,0,1-.156.053l-.124-.328c.173-.121.193.173.28.275"/><path id="path412" d="M121.6,65a.924.924,0,0,1-.031.642,1.329,1.329,0,0,0-.62.61.4.4,0,0,0-.383-.224l-.035.038c-.018-.035.291-.731-.281-.536a.445.445,0,0,0-.157-.278c-.155-.035-.224.09-.362.09a.651.651,0,0,0-.036-.242,2.736,2.736,0,0,1,1.436-.515c.189.087.243.348.469.415" style="fill:#efe8c7"/><path id="path414" d="M71.3,66.775l-.067.261c-.4-.344-.371-.915-.5-1.4.017-.121.033-.278.172-.314a3.847,3.847,0,0,0,.39,1.453" style="fill:#9a3b26"/><path id="path416" d="M116.1,65.188a6.876,6.876,0,0,1-.373,1.339h-.086c.171-.435.15-.937.356-1.339h.1"/><path id="path418" d="M79.562,66.1a14.907,14.907,0,0,1-.212,1.939c-.1.126-.172.3-.327.368a.544.544,0,0,1-.3-.016c.087-.141.433-.211.466-.469a3.014,3.014,0,0,0,.065-.661l-.225.157c-.035-.032-.035-.1-.087-.119a1.105,1.105,0,0,0,.427-1.078c-.139-.051-.208.14-.313-.084.033-.14.224-.07.311-.124l.413-.348c.107.208-.137.278-.222.435"/><path id="path420" d="M120.4,65.716c-.015.469-.553.453-.742.784l.036.036-.1.054a1.233,1.233,0,0,0-.005-.867c-.019-.3.312-.09.45-.231,0,.175.21.348.366.224" style="fill:#9a3b26"/><path id="path422" d="M80.258,66.407c.018.193.227.381.056.572l-.088-.188c-.174.118-.049.536-.257.587l-.052-.121a7.178,7.178,0,0,1,.3-1.4c.193.121.02.363.039.554"/><path id="path424" d="M120.224,67.468c-.142-.345.047-.713-.284-.968l.431-.315c-.24.469.838.982-.147,1.283" style="fill:#efe8c7"/><path id="path426" d="M120.91,66.46l.191-.056a1.384,1.384,0,0,1-.256.556c-.038-.259-.384-.43-.214-.744.14.036.14.208.279.244" style="fill:#9a3b26"/><path id="path428" d="M116.42,66.28a18.848,18.848,0,0,1-.242,2.982h-.121a21.76,21.76,0,0,0,.242-2.931c.034-.036.069-.087.121-.052"/><path id="path430" d="M119.855,66.728c.209.254-.048.794.353.931a.652.652,0,0,0,.31-.262l.087,0c-.084.453-.481.784-.687,1.2-.073-.626-.632-1.209-.375-1.869.088.137.207,0,.312,0" style="fill:#9a3b26"/><path id="path432" d="M95.361,67.09c-.4.5-.9.977-1.341,1.517-.26.106-.5.351-.832.214l-.157-.157a15.918,15.918,0,0,0,1.863-1.535c.052-.035.242-.053.155-.16.1.036.226.036.312.121" style="fill:#9a3b26"/><path id="path434" d="M88.708,67.481c-.172.292-.014.606-.237.868a7.977,7.977,0,0,0,.235,1.557c.087.05.052.157.157.157.1-.177-.072-.4-.108-.592l-.09-.5c.227.328.644.306,1.025.342a3.4,3.4,0,0,1-.077,1.506c-.033.433.456.778.286,1.263.073.606-.358,1.111-.267,1.717,0,.332.4.693.041.971l-.312.038c-.121.191.054.348.09.536-.384-.38-.284-1.022-.719-1.4a11.83,11.83,0,0,1-.155-2.481l-.052-.051-.069.087a7.644,7.644,0,0,0,.118,2.253c.019.3-.221.554-.185.9.057.8-.216,1.389-.106,2.273.088.188.312.031.434.1.108.642.989.2.907.9a5.392,5.392,0,0,1-.077,1.631c-.106-.453-.161-1-.511-1.279a.538.538,0,0,0-.1.4l-.043,1.507a1.531,1.531,0,0,0-.279-.76c-.123-.034-.226.106-.226.191-.183,1.131.915,2.146.575,3.271a3.213,3.213,0,0,1-.612,1.878c0,.105,0,.191,0,.278a.488.488,0,0,0-.245-.362c-.119.174-.064.435-.15.626-.172.278-.152.626-.376.868a11.932,11.932,0,0,0-.34-1.8c-.07-.07-.175-.137-.261-.07l-.12.124a3.43,3.43,0,0,1-.1-2.082c.139-.121.085-.379.17-.536a4.431,4.431,0,0,0,1.183-2.09l-.1-.1c-.241.243-.605.262-.777.594a1.551,1.551,0,0,0-.787-1.088,3.149,3.149,0,0,1,.253-1.092,2.567,2.567,0,0,0,1.363-1.152l-.07-.106a2.545,2.545,0,0,1-1.42.358c.067-.364.188-.434.586-.523.173-.07.45-.109.553-.351.016-.208.117-.539-.092-.658a3.056,3.056,0,0,1-1.124.2l-.07-.07.222-.471c-.61-.4-.285-1.052-.41-1.642.1-.036,0-.173.121-.157-.141-.191-.278-.188-.384-.381.032-.346.375-.851-.162-1.055a9.133,9.133,0,0,1,.095-1.213c-.1-.191-.33-.173-.417-.345l.065-.589a2.47,2.47,0,0,0,2.02-1.262c.154-.449.531-.887.338-1.4.121.014.083-.126.172-.161.193.208.64.188.626.432" style="fill:#efe8c7"/><path id="path436" d="M96.923,67.273a2.436,2.436,0,0,1-1.74,1.812c-.087,0-.242-.016-.243-.117a3.653,3.653,0,0,0,1.259-1c.206-.262.344-.61.654-.765l.07.07" style="fill:#9a3b26"/><path id="path438" d="M87.719,67.4c.211.415-.345.3-.5.488a.9.9,0,0,1-.712-.17.443.443,0,0,1-.107-.348c.486-.088.958.585,1.319.03" style="fill:#efe8c7"/><path id="path440" d="M115.68,67.3a6.5,6.5,0,0,1-.25,1.53c-.035,0-.052.019-.051.034-.106-.191,0-.449.048-.657l.184-.9h.069"/><path id="path442" d="M104.4,80.291a2,2,0,0,1,.259.28.239.239,0,0,0,.364.029c.137-.087.224-.191.415-.157-.029.747-.98,1.219-.716,1.979.087.087.262.224.417.121l.431-.472a2.758,2.758,0,0,1-1.08,1.915c-.268-1.213.314-2.394-.335-3.567a1.6,1.6,0,0,1,.04-.275l.2.147" style="fill:#9a3b26"/><path id="path444" d="M104.248,79.964a.961.961,0,0,1,.089-.171l-.035-.016c.167-.852,1.223-1.12.922-2.107-.123-.1-.381-.047-.538-.15a6.884,6.884,0,0,0,.308-.711c-.141-.243-.4.018-.59.054a1.926,1.926,0,0,0-.4.5c-.108-.778-.408-1.729.229-2.342-.193-.24-.763.127-.627-.428a.645.645,0,0,1,.308-.626c.259-.226-.055-.433-.091-.657a4.774,4.774,0,0,1-.2-1.681.863.863,0,0,0,.654-.419c-.209-.12-.572-.153-.469-.517v-.105c.33-.036.586-.281.933-.284.034-.031.086-.067.086-.121-.1-.118-.469-.118-.281-.379l.376-.834c.261.172.335.673.75.62l.121-.107a7.364,7.364,0,0,1,.165,1.543c.036.034.07.034.122.054.156-.124,0-.332.031-.505.067-.536-.3-1.041-.044-1.49a10.311,10.311,0,0,0,.149-1.216l.121-.121c0,.969.428,1.886.052,2.894.056.451.561.74.441,1.209.071.07.174-.015.192-.085.307-.592-.857-.9-.254-1.507a14.51,14.51,0,0,0-.13-1.56c.488.552.354,1.384,1,1.848.036.141.191.208.192.363-.325.575.44.917.546,1.436-.137.244-.485.02-.569.317-.034.293.35.6.04.845a1.264,1.264,0,0,1-.554.093c-.121.1-.347-.033-.45.158a6.53,6.53,0,0,0,.634,1.52c-.085.3-.169.5,0,.783a.13.13,0,0,0-.155.1c0,.051.034.138-.016.174-.053-.087-.175-.224-.3-.154-.069.085.018.1-.016.188-.1-.1-.174-.291-.383-.275l-.068.09a4.256,4.256,0,0,0,.823,1.554c.07.067.105,0,.155-.019.283.588-.336,1.13-.3,1.767a.561.561,0,0,0-.152.626c-.031.4.112,1.041-.111,1.44h-.034c-.108-.485-.423-.9-.564-1.366-.052-.033-.088-.087-.157-.067a1.985,1.985,0,0,0-.029.9,8.031,8.031,0,0,0,.565,1.436c.069.035.085-.036.138-.052a3.86,3.86,0,0,1-.031.556c-.314-.3-.281-.711-.543-1.021-.086-.035-.121.035-.189.089-.066.708.37,1.383.08,2.027-.188.313-.6.264-.845.542-.157-.157-.142-.606-.471-.446l-.016.034c-.036-.07.051-.1.016-.191l-.052-.051c.24-.331.534-.491.583-.852a2.439,2.439,0,0,0,.389-1.22c-.032-.066-.016-.207-.155-.187l-.619.7c-.209-.084-.106-.4-.092-.572.1-.571.863-.871.615-1.528-.278-.119-.5.108-.692.229a1.483,1.483,0,0,1-.321-.379l-.291-.174" style="fill:#efe8c7"/><path id="path446" d="M79.928,69.1a.192.192,0,0,1-.155.07,1.685,1.685,0,0,1-.075-.974l.1-.121c.175.294-.1.711.127,1.025"/><path id="path448" d="M95.456,68.339c-.345.191-.724.578-1.142.284l.361-.438a3.9,3.9,0,0,0,.781.154" style="fill:#9a3b26"/><path id="path450" d="M88.007,68.958a3.53,3.53,0,0,0,.094,1.42c-.191-.031-.4.176-.518.315-.07-.222.259-.331.4-.469-.036-.362-.056-.657-.093-.988-.121.054-.138.14-.224.245-.036-.172.206-.4.345-.523"/><path id="path452" d="M79.34,69.169,79.188,70c-.346-.119.015-.588.013-.9.069-.02.087.031.139.067"/><path id="path454" d="M115.781,69.456a.1.1,0,0,1-.069.035c-.122-.172-.021-.415.03-.59.193.086.037.418.039.555"/><path id="path456" d="M112.726,80.028a2.171,2.171,0,0,1-.3,1.845c-.121.157.07.173.159.24.622-.039.583-.782,1.049-1.064.243-.034.366.174.541.275.359-.472-.285-.814-.286-1.283-.018.017-.035.054-.071.036-.121.105-.24.383-.5.316a1.794,1.794,0,0,1-.443-.312l-.151-.053" style="fill:#9a3b26"/><path id="path458" d="M112.7,79.827a.119.119,0,0,0-.044-.1c.763-.094.825-1.012,1.238-1.52.017-.118.12-.278.033-.395-.07-.105-.227-.067-.312-.036-.105.07-.155.317-.31.23l-.35-.309c.1-.09.069-.227.1-.314.727-.127,1.051-.874,1.291-1.447-.3-.257-.553.385-.713-.1-.086-.171-.088-.379-.245-.516-.314-.137-.657.436-.763-.064a5.1,5.1,0,0,0,2.242-1.629c0-.155.119-.292.033-.449-.332-.379-.639.331-.969.455-.379.157-.672.473-1.018.649.067-.469-.075-.954.459-1.271a.177.177,0,0,0-.157-.222l-.155,0c.083-.4.011-.884.356-1.181.033-.332-.521-.208-.351-.572a3.472,3.472,0,0,0,.13-1.334c.84,1.259,1.577,2.554,2.417,3.814-.034.07-.314-.309-.4,0a2,2,0,0,0,.407,1.21c-.157-.084-.313-.309-.523-.326-.465.245-.047.713.007,1.056.193.157.247.435.488.518-.014.227.072.469-.047.626-.279-.381-.387-.951-.856-1.141a2.572,2.572,0,0,0,.042,1.147,2.979,2.979,0,0,0,.507,1.072,2.083,2.083,0,0,0-.059,1.3,6.619,6.619,0,0,1-.823-1.433c-.053-.016-.087.035-.121.071l.036.117-.157.07a1.768,1.768,0,0,0,.6,1.956,2.868,2.868,0,0,1-.272,1.008c-.261-.272-.246-.691-.509-.965-.277.018-.309.348-.551.4a1.8,1.8,0,0,1-.417-.3l-.271-.066" style="fill:#efe8c7"/><path id="path460" d="M79.5,70.033a11.032,11.032,0,0,1,.028,1.53c-.069.07-.139.034-.157-.053l-.008-1.438c.052,0,.068-.055.137-.036"/><path id="path462" d="M88.521,70.95l-.034.031a1.306,1.306,0,0,1-.126-.775c.1.188.054.5.16.744"/><path id="path464" d="M107.61,71.224l-.051.121c-.3-.134-.35-.466-.438-.74l.051-.124c.192.207.194.539.438.743"/><path id="path466" d="M96.257,71.576l-.085.1c.209.157-.015.418.055.59-.238.642-.008,1.353-.194,2.065H95.91a12.813,12.813,0,0,1,.229-2.41l-.036-.155-.155.191c-.053-.07-.123-.07-.088-.188l.276-.317c.086.016.068.123.121.123"/><path id="path468" d="M88.1,72.1a3.216,3.216,0,0,1-.3,1.718l-.068,0c-.036-.177.153-.247.187-.4a4.489,4.489,0,0,0,.041-1.593c.089.047.089.188.141.274"/><path id="path470" d="M105.935,72.136a14.829,14.829,0,0,0,.119,2.477l-.155,0a7.016,7.016,0,0,1-.017-2.481h.053"/><path id="path472" d="M79.516,72.34a10.907,10.907,0,0,1-.286,1.44c.036.106.089.294-.119.314h-.052a10.1,10.1,0,0,1,.387-1.755h.07"/><path id="path474" d="M106.374,73.053a15.814,15.814,0,0,0,.116,2.026c-.034-.016-.052.02-.068.02l-.053-.051a6.091,6.091,0,0,1-.117-2.1.176.176,0,0,1,.189-.124c.087.086-.068.14-.067.227"/><path id="path476" d="M114.714,73.518a4.034,4.034,0,0,1-2.1,1.538c.1-.794.982-1.028,1.55-1.413l.518-.469c.139.086.02.277.036.344" style="fill:#9a3b26"/><path id="path478" d="M78.9,73.6a.941.941,0,0,1-.341.848c-.036-.137.153-.379.186-.59,0-.1.016-.258.155-.258"/><path id="path480" d="M88,73.883a1.774,1.774,0,0,1-.24.554c-.086-.192.137-.347.154-.554H88"/><path id="path482" d="M88.039,74.121a1.728,1.728,0,0,1-.116.853,8.366,8.366,0,0,1,.082-.849h.034"/><path id="path484" d="M88.7,74.154c.263.469.215,1.126.789,1.366a2.888,2.888,0,0,1-.181,1.387c-.123.017-.156.174-.085.278l.052.051c-.312.07-.351-.587-.817-.4-.025-.967.162-1.732.173-2.686H88.7" style="fill:#9a3b26"/><path id="path486" d="M96.864,74.326a1.579,1.579,0,0,0,.2,1.369c.07.034,0,.086-.035.121-.173-.067-.243-.293-.331-.466a1.541,1.541,0,0,1,.114-1.091l.052.067"/><path id="path488" d="M94.992,74.389a3.5,3.5,0,0,1-.516.388c-.089-.138.084-.177.153-.278a.6.6,0,0,1,.363-.11"/><path id="path490" d="M77.629,75.541a.724.724,0,0,0,.467-.281c-.05.334-.429.716-.15.994a1.242,1.242,0,0,0,.673-.319,3.286,3.286,0,0,1-.08.9c-.4.247-.55.747-1.018.891a11.788,11.788,0,0,0-.209-2.93c.141.224.074.572.317.743" style="fill:#9a3b26"/><path id="path492" d="M115.732,75.35a.674.674,0,0,0-.1.449c-.245-.343-.593-.723-.51-1.192.261.171.591.465.611.743" style="fill:#9a3b26"/><path id="path494" d="M98,75.254l-.051.09A.782.782,0,0,1,97.6,75.1l.033-.1a1.759,1.759,0,0,1,.366.255"/><path id="path496" d="M105.871,75.708l.155.016c-.15.781.133,1.768-.487,2.325h-.07a4.7,4.7,0,0,0,.4-2.29c-.121.191-.118.555-.377.539-.036-.137.119-.278.151-.431.156-.316.064-.661.273-.886l-.047.727"/><path id="path498" d="M113.516,75.989c.09.258.383.137.556.1a1.854,1.854,0,0,1-1.083,1.137c-.2-.364-.561-.76-.286-1.2a.761.761,0,0,0,.083-.433,2.193,2.193,0,0,0,.467-.157l.263.552" style="fill:#9a3b26"/><path id="path500" d="M106.394,76.345v.141c-.225-.121-.158-.415-.212-.657l.034-.16a1.629,1.629,0,0,1,.177.676"/><path id="path502" d="M87.083,76.419c-.173.106-.38.055-.554.157-.174-.1.049-.4-.073-.587a2.425,2.425,0,0,0,1.091-.163c.228.364-.222.488-.464.593" style="fill:#9a3b26"/><path id="path504" d="M96.325,76.879a2.163,2.163,0,0,1-.425,1.095h-.1c0-.224.188-.364.256-.555a5.268,5.268,0,0,0,.18-1.631c.261.293,0,.761.093,1.091"/><path id="path506" d="M115.482,76.824l-.152.626a3.1,3.1,0,0,1-.479-1.678,5.751,5.751,0,0,0,.631,1.052" style="fill:#9a3b26"/><path id="path508" d="M107.645,76.79c.123.277-.186.589-.081.864a3.926,3.926,0,0,1-.665-1.119c.1.031.191.188.278.121.034-.039.086-.071.068-.125.088.1.155-.035.242-.035.07.1.02.258.158.294" style="fill:#9a3b26"/><path id="path510" d="M119.328,76.679c.071.12.09.261.211.362.26-.21.245.244.437.291a5.516,5.516,0,0,1,.772,1.678,5.842,5.842,0,0,1-2.23-1.738c-.105-.208.082-.432.275-.505.173-.031.326-.191.534-.089" style="fill:#1d5c42"/><path id="path512" d="M104.683,76.981c-.034.258-.448.575-.118.782l.469.032c.143.552-.289.937-.668,1.215-.069,0-.173.157-.225,0,.065-.555-.112-1.024-.1-1.56.312.033.309-.469.639-.472" style="fill:#9a3b26"/><path id="path514" d="M87.677,77.125a3.1,3.1,0,0,1-.863.663c-.1-.067-.242-.067-.312-.188l0-.242a2.148,2.148,0,0,0,1.177-.233" style="fill:#9a3b26"/><path id="path516" d="M106.124,77.422c-.016.278.2.691-.046.868a1.794,1.794,0,0,1-.04-.865l.086,0"/><path id="path518" d="M115.134,79.257a.652.652,0,0,1-.155.345.892.892,0,0,1-.5-.464,2.168,2.168,0,0,1-.165-1.334,4.183,4.183,0,0,0,.825,1.453" style="fill:#9a3b26"/><path id="path520" d="M88.029,78.005c-.1.523.076.938-.026,1.459h-.05a2.842,2.842,0,0,0-.074-.658c-.086.087-.049.26-.207.261a4.432,4.432,0,0,0,.271-1.062h.086"/><path id="path522" d="M113.5,78.172l.224-.243v.191a10.816,10.816,0,0,1-.91,1.411h-.086c.55-.508-.2-1.076.179-1.666.209.067.316.466.592.307" style="fill:#9a3b26"/><path id="path524" d="M78.17,78.816l.155-.157A1.032,1.032,0,0,1,78,79.683c-.07-.034-.157.071-.225.107a6.72,6.72,0,0,0-.1-1.541c.226.152.041.884.489.567" style="fill:#9a3b26"/><path id="path526" d="M97.659,79.278a4.582,4.582,0,0,1-.215,1.788c-.124-.449-.385-.811-.509-1.245.207.032.294.067.415-.105a14.429,14.429,0,0,1-.2-1.49,8.415,8.415,0,0,0,.51,1.052" style="fill:#9a3b26"/><path id="path528" d="M79.68,79.013c-.275.3-.013.592-.1.92a3.12,3.12,0,0,1-.441-1.088c.088-.019.156.067.225,0a.53.53,0,0,0,.119-.415.77.77,0,0,1,.2.586" style="fill:#9a3b26"/><path id="path530" d="M96.11,78.388a.827.827,0,0,1-.118.521c-.139-.118,0-.364.031-.521h.087"/><path id="path532" d="M89.172,80.513l-.062,1.128h-.017c-.194-.642-.65-1.3-.516-1.922.193.208-.028.626.317.744.294-.141.171-.435.238-.66l-.04-1.092c.176.556.527,1.28.08,1.8" style="fill:#9a3b26"/><path id="path534" d="M78.832,79.278c.054.227.246.5.16.677-.19.055-.123-.414-.312-.242.086.07-.018.121-.035.191h-.086a2.389,2.389,0,0,1,.184-.938c.139.07.071.157.089.312"/><path id="path536" d="M105.944,79.193a9.933,9.933,0,0,1-.006,1.631c-.069.015-.087-.036-.139-.07.065-.536-.006-1.022.059-1.561h.086"/><path id="path538" d="M87.108,80.406l.1.07a2.834,2.834,0,0,1,.639-.508,3.984,3.984,0,0,1-.977,1.634v-.031l-.26-.036a4.237,4.237,0,0,0-.1-2.183,1.635,1.635,0,0,1,.595,1.054" style="fill:#9a3b26"/><path id="path540" d="M96.121,79.95c-.018.034-.052.034-.087.034A.51.51,0,0,1,96,79.535c.173.067.054.292.124.415"/><path id="path542" d="M78.026,80.741h.3a1.334,1.334,0,0,0,.129,1.279.364.364,0,0,1,.155-.034,1.566,1.566,0,0,0-.148.972c.571.1.073.743.2,1.124-.454-.482-.163-1.229-.583-1.747-.142-.413.32-1.022-.2-1.367,0-.208-.141-.311,0-.5a.45.45,0,0,0,.157.275" style="fill:#9a3b26"/><path id="path544" d="M106.884,82.272a7.691,7.691,0,0,1-.513-1.558,5.15,5.15,0,0,1,.513,1.558" style="fill:#9a3b26"/><path id="path546" d="M79.271,82.8a8.475,8.475,0,0,0-.232-.936c0-.242-.176-.516-.075-.814a1.689,1.689,0,0,1,.307,1.75" style="fill:#9a3b26"/><path id="path548" d="M96.132,81.855c.09.52-.339.956-.511,1.27l-.123-.017c.069-.241.311-.418.43-.629a3.968,3.968,0,0,0,.026-1.279c.193.1.124.431.178.655"/><path id="path550" d="M113.958,82.538c-.048.64-.93.925-.736,1.6l-.554-.044c-.3-.4-.041-1.01-.166-1.475l-.141-.4c.245.243.467-.089.727-.074.486-.158.391-1.439,1.02-.663l-.15,1.057" style="fill:#efe8c7"/><path id="path552" d="M87.662,82.9c-.139-.171.119-.258.153-.433a2.417,2.417,0,0,1,.118-.625,1.139,1.139,0,0,1-.271,1.058"/><path id="path554" d="M79.116,83.108l-.188.278c-.07-.172.152-.5-.194-.552l-.035.036a.728.728,0,0,1,0-.469,2.165,2.165,0,0,1,.154-.471c.175.365.057.8.266,1.178" style="fill:#efe8c7"/><path id="path556" d="M95.425,82.331c-.414.382-.7.921-1.276,1.062-.141-.311,0-.657-.007-1l.19-.278c.348.292.693.083,1.093.221" style="fill:#9a3b26"/><path id="path558" d="M106.75,83.054h.069c-.169.744-.268,1.4-.489,2.136.067-.333-.439-.866.1-1.061a3.691,3.691,0,0,0-.01-1.509c.088.157.142.451.333.434" style="fill:#9a3b26"/><path id="path560" d="M94.972,84.759a8.017,8.017,0,0,0-.743.315c-.262-.258-.021-.657-.007-1,.123.067.193.224.366.294a5.642,5.642,0,0,0,.848-.3l.035-.05a.952.952,0,0,1-.5.75" style="fill:#9a3b26"/><path id="path562" d="M113.1,84.26l-.036.036.157.031a.7.7,0,0,1-.273.662c-.346.124-.193-.275-.315-.412l.032-.333c.174.016.3.087.435.016" style="fill:#9a3b26"/><path id="path564" d="M87.1,84.427c.246.693.026,1.369.464,1.94.139.066.206-.108.274-.2a8.51,8.51,0,0,0,.339-1.059,5.39,5.39,0,0,1-.3,1.786c-.1.193-.153.471-.379.559-.629-.811-.479-1.835-.642-2.84.121-.016.1-.188.242-.191" style="fill:#9a3b26"/><path id="path566" d="M105.147,84.656c.036.055.123.106.157.07l-.034.036c.243.153.344-.231.554-.231a2.47,2.47,0,0,1-.77,1.688H104.9a12.039,12.039,0,0,1-.1-1.768l.191-.1a2.572,2.572,0,0,1,.157.309" style="fill:#9a3b26"/><path id="path568" d="M106.279,85.429a3.494,3.494,0,0,1-.335,1.825c-.277-.121-.449.21-.727.21-.088-.207.066-.555-.246-.622.032-.379.308-.57.549-.871a1.886,1.886,0,0,0,.46-1.2c.141.172.108.485.3.653" style="fill:#efe8c7"/><path id="path570" d="M94.552,86.858a4.172,4.172,0,0,1,.219,1.644c-.294.054-.313-.17-.331-.395a2.626,2.626,0,0,1-.27-1.473c.19-.085.26.154.382.224" style="fill:#9a3b26"/><path id="path572" d="M105.219,87.726c.069-.105.155-.088.225-.141l-.035-.014c.174.117.225-.16.38-.144-.464.526-.041,1.56-.838,1.792a11.67,11.67,0,0,1,.021-2.186c.123.208-.152.626.247.693" style="fill:#9a3b26"/><path id="path574" d="M96.051,87.94l.1-.105c-.567.8-.283,1.893-.711,2.78a9.492,9.492,0,0,1-.579,1.513c-.071-.227-.073-.592-.161-.85a5.589,5.589,0,0,1-.326-1.956.78.78,0,0,0,.19-.227,1.157,1.157,0,0,1,.124.432,1.768,1.768,0,0,0,.2,1,.662.662,0,0,0,.345-.351,3.281,3.281,0,0,0,.159-2.5l0-.312c.245.155.3.606.664.57" style="fill:#9a3b26"/><path id="path592" d="M85.172,21.8c-.116.114-.308.181-.432.335a4.475,4.475,0,0,1,.008.676L85,22.808c.088-.115.253-.18.369-.311,0-.255,0-.5-.015-.753l-.179.059a.409.409,0,0,0,.068-.1" style="fill:#9a3b26"/><path id="text9621" d="M58.871,96.369a13.173,13.173,0,0,1,1.7.086,3.9,3.9,0,0,1,1.084.279,3.039,3.039,0,0,1,1.829,2.316,26.347,26.347,0,0,1,.031,5.107,3.1,3.1,0,0,1-1.72,2.471,4.9,4.9,0,0,1-1.31.364,14.368,14.368,0,0,1-1.975.109,11.678,11.678,0,0,1-1.93-.124,3.522,3.522,0,0,1-1.216-.449,3.128,3.128,0,0,1-1.472-2.193,12.277,12.277,0,0,1-.117-2.038,15.916,15.916,0,0,1,.279-3.665A2.928,2.928,0,0,1,56.1,96.664a9.411,9.411,0,0,1,2.774-.3M58.786,98.8a4,4,0,0,0-1.348.148.984.984,0,0,0-.612.72,11.534,11.534,0,0,0-.132,2.224,7.494,7.494,0,0,0,.186,2.123.859.859,0,0,0,.534.519,4.684,4.684,0,0,0,1.341.132,3.351,3.351,0,0,0,1.224-.155,1.028,1.028,0,0,0,.535-.6,7.72,7.72,0,0,0,.209-2.286c0-.729-.013-1.224-.039-1.488a2.127,2.127,0,0,0-.155-.689.858.858,0,0,0-.519-.5,4.011,4.011,0,0,0-1.224-.14m9.027-2.355v4.006h.852l2.727-4.006H74.8l-3.727,5.191,4.037,5.385H71.633l-2.945-4.168h-.875v4.168H64.969V96.447h2.844m10.909,0v8.143H83.17v2.433H75.879V96.447h2.843M90.446,105.2h-3.8l-.511,1.82H83.185l3.177-10.576h4.293l3.215,10.576H90.988l-.542-1.82m-.566-2.054-1.333-4.595-1.294,4.595H89.88m14.11-6.7v10.576h-2.844v-4.16H97.473v4.16H94.63V96.447h2.843v3.983h3.673V96.447h2.844m6.454-.078a13.173,13.173,0,0,1,1.7.086,3.9,3.9,0,0,1,1.084.279,3.039,3.039,0,0,1,1.829,2.316,26.347,26.347,0,0,1,.031,5.107,3.106,3.106,0,0,1-1.72,2.471,4.9,4.9,0,0,1-1.309.364,14.394,14.394,0,0,1-1.976.109,11.678,11.678,0,0,1-1.93-.124,3.522,3.522,0,0,1-1.216-.449,3.128,3.128,0,0,1-1.472-2.193,12.277,12.277,0,0,1-.117-2.038,15.916,15.916,0,0,1,.279-3.665,2.928,2.928,0,0,1,2.038-1.968,9.411,9.411,0,0,1,2.774-.3m-.085,2.433a4.031,4.031,0,0,0-1.348.148.988.988,0,0,0-.613.72,11.657,11.657,0,0,0-.131,2.224,7.494,7.494,0,0,0,.186,2.123.859.859,0,0,0,.534.519,4.684,4.684,0,0,0,1.341.132,3.351,3.351,0,0,0,1.224-.155,1.028,1.028,0,0,0,.535-.6,7.72,7.72,0,0,0,.209-2.286q0-1.092-.039-1.488a2.127,2.127,0,0,0-.155-.689.858.858,0,0,0-.519-.5,4.011,4.011,0,0,0-1.224-.14m19.278-2.355v10.576h-2.79v-3.169q.008-1.17.14-3.7l.07-1.232h-.093l-.372,1.208-.372,1.2-.8,2.41-1.093,3.285h-2.448l-1.116-3.293q-.822-2.441-1.573-4.811H119.1l.07,1.232q.155,2.649.163,3.7v3.169h-2.79V96.447h4.424l.992,3.03q.434,1.332,1.077,3.618h.109l.24-.9q.372-1.41.767-2.7l.961-3.045h4.525m8.012,8.756h-3.805l-.511,1.82h-2.945l3.177-10.576h4.293l3.215,10.576h-2.882l-.542-1.82m-.566-2.054-1.333-4.595-1.294,4.595h2.627" style="fill:#fff"/></g></g></g></svg>