<svg xmlns="http://www.w3.org/2000/svg" viewBox="0 0 197.113 118.268"><g id="Layer_2" data-name="Layer 2"><g id="Oregon"><g id="Oregon-2" data-name="Oregon"><path id="path76" d="M0,118.268H197.113V0H0Z" style="fill:#002a86"/><path id="path82" d="M86.966,31.209a8.626,8.626,0,0,0-4.607,1.733c.151.366.426.328.731.238l.09-.115a2.19,2.19,0,0,0,.731-.336.284.284,0,0,1,.058-.066l.024-.017c.2-.118.564-.069.74-.238a.334.334,0,0,0,.09-.164c1.247-.763,2.459-.547,4.041-.427v.3c-1.065-.213-3.013-.365-3.926.55a4.287,4.287,0,0,0,3.351,1.06l.911-.4c.456,1.792,2.405,2.582,3.893,3.162a2.532,2.532,0,0,0,.337-1.092c-.364-.427-1.008-.432-1.281-.92a1.97,1.97,0,0,1,1.5.764,1.317,1.317,0,0,1-.28,1.248.393.393,0,0,0,.469.074l.016-.008,2.135-1.708.025-.017a.321.321,0,0,1,.427.2l.066-.057c.7.883,1.824,1.125,2.554,1.914l-.09.123.016.024c-.152-.012-.356-.21-.534-.3-.73-.637-1.61-.976-2.34-1.618-.639.791-1.529,1.065-2.259,1.766a7.544,7.544,0,0,1-3.983-1.857,4.313,4.313,0,0,1-.756-1.3c-.3-.032-.583.273-.887.3-1.156-.061-2.643-.155-3.556-1.248-.852.152-1.766,1.4-2.587.337h-.148c-2.861,2.827-6.789,4.59-9.1,7.876.487.669,1.221-.242,1.8-.427.792-.669,2.041-1.034,2.8-2.037l.058-.271-.009-.008-.008-.008-.016-.008-.017-.009c-.119-.052-.32.008-.427-.049L77,38.174,77,38.166l-.017-.017-.008-.008-.008-.008-.008-.017v-.008l-.008-.016a.1.1,0,0,1,0-.025.356.356,0,0,1-.009-.049.208.208,0,0,0,0-.025c.152-.227.453-.17.567-.3l.008-.008.008-.008.009-.016.008-.017a.266.266,0,0,0,.008-.033.086.086,0,0,0,0-.016,11.274,11.274,0,0,0,2.891-1.955l1.306-1.092.016.008.009.008.016.009.016.008c.048.02.108.032.148.049l.017.008.008.008.008.009.008.008.009.016v.033a.257.257,0,0,1-.009.049c-1.49,1.128-2.526,2.462-4.229,3.072V38.2c.395.092.732-.325,1.158-.418a20.729,20.729,0,0,1,2.464-1.553.475.475,0,0,1,.09.337,4.113,4.113,0,0,1-.821.452l-.091.09.05.058a.2.2,0,0,0-.042,0,.47.47,0,0,0-.065,0,.852.852,0,0,0-.279.123v.1l-.058-.065c-.243.425-.757.58-1.183.821-.3.091-.556.331-.829.394a.217.217,0,0,0-.1-.1c-.045-.023-.1-.04-.139-.058l-.017-.008-.016-.008-.008-.008a.172.172,0,0,1-.042-.05l-.008-.024c-.463,1.509-2.136,1.752-3.227,2.661l-.009.016a.428.428,0,0,0,.28.468h.492a39.213,39.213,0,0,0,3.7-2.768.9.9,0,0,1,.534-.18.151.151,0,0,1,.066.041l.008.008v.041l-.008.016v.009c-.081.19-.423.231-.534.369a18.6,18.6,0,0,1-3.285,2.53.1.1,0,0,0,0,.025.2.2,0,0,0,0,.049l.008.024.008.017.009.016.008.009.008.008a.9.9,0,0,0,.23.115c1.339-.182,2.163-1.455,3.228-2.062,1.034-.85,1.887-1.579,2.8-2.464.059.058.172.092.206.148v.008a.306.306,0,0,1,.041.091V37.5l-.008.009v.008l-.009.016a.113.113,0,0,1-.024.025c-.037.027-.1.051-.132.082l-.008.008a.107.107,0,0,0-.016.025v.008l-.009.008v.033a.331.331,0,0,0,.017.058,23.737,23.737,0,0,0-2.316,1.913c-.639.517-1.455,1.067-2.062,1.643.518.487,1.152-.244,1.791-.214a1.687,1.687,0,0,1,.944-.944l.091.123a5.668,5.668,0,0,0-.641.854.838.838,0,0,0,.912-.369c1.277-.912,1.461-2.586,2.8-3.409.243.579-.61.609-.64,1.158a4.537,4.537,0,0,0-.822,1.372l-.057-.066-.46.608a.863.863,0,0,0,.673.337c.671-.637.943-1.4,1.643-2.095a.374.374,0,0,1,.123.066l.008.016.009.009.008.008V38.8l.008.016v.017l.008.008a.389.389,0,0,1-.008.123,2.337,2.337,0,0,0-.706,1c.79.363,1-.76,1.429-1.158a6.332,6.332,0,0,1,.977-1.79l.008.008a.361.361,0,0,0,.05.033,1.033,1.033,0,0,1,.106.049.2.2,0,0,1,.025.025l.008.008.008.008v.008l.009.009.008.024v.017c0,.005.008.012.008.016v.017l-.008.007v.009h-.008l-.009.008h-.008a.238.238,0,0,0-.049.017l-.008.008-.008.008-.009.008v.017a6.88,6.88,0,0,0-.887,1.765h.017l.008.009c.1.058.184.245.287.3h.009l.008.008H85.5c.005,0,.012.008.017.008h.024l.017-.008h.008l.016-.008h.009a.383.383,0,0,0,.057-.041l.017-.017c.012-.012.028-.033.041-.049.21-.273.4-.626.607-.871l.017.008.008.009a.247.247,0,0,1,.033.041l.008.016.008.008a.65.65,0,0,1,.017.247v.016a.25.25,0,0,1-.009.025c-.032.149-.217.287-.279.419l-.008.016-.008.017v.016a.132.132,0,0,0-.008.033l.008.016v.017l.008.016.008.017a.361.361,0,0,0,.132.123,1.228,1.228,0,0,0,.887-.789.249.249,0,0,1,.09.082l.008.009a.169.169,0,0,1,.008.024c.084.247-.274.689-.271.879,0,.009,0,.025,0,.033l.009.008.008.008v.009l.008.008H87l.008.008h.009l.008.008h.008a.9.9,0,0,0,.435-.074l.009-.008a.193.193,0,0,0,.057-.049l.017-.025c.025-.047.04-.107.065-.148l.008-.008a.12.12,0,0,1,.066-.041.188.188,0,0,1,.082,0,.221.221,0,0,1,.082.066.136.136,0,0,1,.041.106.325.325,0,0,1-.057.181.366.366,0,0,1-.066.074c.336.424.882.3,1.216.731.091-.151.179-.3.271-.452h.156v.009c.011.037,0,.095.008.139v.017l.008.008V40.3l.009.008.008.008.016.009-.008.016a.347.347,0,0,0-.041.033c-.065.072-.084.173-.14.238a.269.269,0,0,1-.041.033l-.024.016H89.2c.061.168.136.236.214.247a.316.316,0,0,0,.074-.008c.1-.023.212-.1.3-.115,0,0,.013-.008.017-.009h.025a.117.117,0,0,1,.024.009l.017.008a.159.159,0,0,1,.041.041.578.578,0,0,1,.049.222.794.794,0,0,0,.271.2.429.429,0,0,0,.189.016c.164-.14.257-.45.476-.484h.017a.192.192,0,0,1,.024,0,.209.209,0,0,1,.025,0c.03.3-.093.668.09.911a.247.247,0,0,0,.156.017.252.252,0,0,0,.041-.017,1.13,1.13,0,0,1,.181-.09.226.226,0,0,1,.082,0,.537.537,0,0,0-.008.1s.007.012.008.016v.016l.008.017.009.016.008.008a.213.213,0,0,0,.016.025l.008.008a.972.972,0,0,0,.157.082l.008.009.378.188a5.537,5.537,0,0,0,.451-1.634,1.027,1.027,0,0,0,.263-.394A.383.383,0,0,0,92.822,40c0-.009.009-.024.009-.033s-.008-.024-.009-.033a.192.192,0,0,0,0-.024l-.008-.025-.008-.016c-.151-.345-1.016-.413-1.224-.772l-.008-.009a14.279,14.279,0,0,1-3.285-3.071.342.342,0,0,1-.033-.033c-.135-.154-.1-.378-.238-.517-.73,1.155-2.127.763-3.253.763a3.7,3.7,0,0,1-2.62-2.283l.066-.394a.363.363,0,0,1,.066,0c.009,0,.024.006.033.008l.024.008a.146.146,0,0,1,.033.017l.008.008.009.008.008.008c0,.006.005.019.008.025l.008.008v.008c.036.112-.015.3.017.419l.008.017.008.016v.008l.008.009.008.016.009.008.016.017c.2.144.188.483.394.542.009,0,.024.007.033.008a5.781,5.781,0,0,1,.542-.616c.458.49-.91.856-.09,1.224l.583-.764.238.213a1.968,1.968,0,0,0-.452.764,3.228,3.228,0,0,1,.543.329A3.757,3.757,0,0,1,85,34.429c.335.336-.276.734-.336,1.158-.048.07-.147.13-.189.2l-.008.008v.017l-.009.008v.033c.882.031,1.941.552,2.4-.666a.263.263,0,0,1,.09.074c0,.006.013.019.016.025a.3.3,0,0,1,.009.041.417.417,0,0,1,.008.049.905.905,0,0,1-.066.263l-.271.214c.789.332.945-.64,1.462-1,.213.211.184.6.337.879,1.369,1.431,2.521,3.076,4.377,3.745a4.786,4.786,0,0,0,.7-1.429A1.881,1.881,0,0,1,94.8,37.87a2.691,2.691,0,0,1,.969,1.059A5.907,5.907,0,0,1,95.68,41a2.084,2.084,0,0,0,1.586-.123c-.062-.789-.706-2.126.328-2.612A4.5,4.5,0,0,1,99.27,38.2a4.382,4.382,0,0,0-.551-2.554.359.359,0,0,1,.058-.353.324.324,0,0,1,.074-.057c.2-.1.539-.067.722-.173a.285.285,0,0,0,.033-.025c1.735-.394,3.805-1.061,4.444-2.915h.115c-.092,1.854-2.222,2.489-3.622,3.006a5.256,5.256,0,0,0-1.544.46,2.683,2.683,0,0,0,.328.977,7.065,7.065,0,0,0,2.653-1.191c.213,0,.42-.214.542-.337,1.034-.244,1.7-1.576,2.768-1.576.334.033.672.578,1.068.427a2.044,2.044,0,0,0,2.127-.674.18.18,0,0,1,.041-.066c.1-.1.329-.082.509-.082a7.951,7.951,0,0,0,2.127,1.24,1.114,1.114,0,0,1,.271-.024l.016-.008h.017l.016-.009a.376.376,0,0,0,.074-.049c-1.763-1.4-3.526-2.734-5.806-2.792-2.465-.61-3.534,3.067-6.029,2.521-.577.028-1.519,0-1.823-.608A2.108,2.108,0,0,1,95.68,34c-.517-.4-1.065-.605-1.552-1-.517.365-1.06.877-1.79.607-1.856-.518-3.227-2.459-5.265-2.4C87.038,31.211,87,31.207,86.966,31.209Zm3.926,2.522H90.9a1.442,1.442,0,0,1,.879.7.324.324,0,0,1-.107.024.421.421,0,0,1-.049.009c-.011,0-.029-.007-.041-.009a.3.3,0,0,1-.041-.008c-.208-.069-.383-.331-.583-.443a.457.457,0,0,1-.082-.222v-.025l.008-.008V33.74h.009Z" style="fill:#ffea0f"/><path id="path84" d="M105.939,40.942a.448.448,0,0,0-.132.057,14.327,14.327,0,0,1-4.106,2.464,13.9,13.9,0,0,1-3.532.665l-.008.008-.008.025a.275.275,0,0,0-.017.041l-.008.033c0,.051,0,.107,0,.156a.276.276,0,0,1-.016.066.289.289,0,0,1-.091.1l.058.058c-.366.517-1.065.309-1.553.279-.53-.239-1.59.212-1.995-.271a.684.684,0,0,1-.132-.279l-.213-.271a9.537,9.537,0,0,1-2.349-.665l-.666-.2c-.416-.156-.976-.3-.878-.9h-.1l-.016.008h-.017c-.114.047-.179.187-.271.23l-.008.008h-.016l-.009.009h-.032l-.017-.009h-.016l-.017-.008-.016-.008-.016-.008L89.7,42.5l-.016-.016c-.193-.22-.192-.588-.46-.748a.679.679,0,0,0-.09-.041c-.062.186-.061.4-.214.55a3.909,3.909,0,0,1-1.306-.911.428.428,0,0,0-.082.181,1.1,1.1,0,0,1-.041.369c-.547-.186-.511-.859-1.183-.829a1.228,1.228,0,0,0-.065.55l-.009.008a.3.3,0,0,1-.049.033.378.378,0,0,1-.049.025.453.453,0,0,1-.049.008H86.03c-.238-.041-.5-.394-.788-.46a.46.46,0,0,0-.091-.008l-.057-.058c-.213.24.029.453-.214.665-.4-.186-.822-.577-1.248-.271.03.456.124.788-.238,1.15a.382.382,0,0,0,.156.1h.082l.025-.008c.191-.065.33-.4.525-.485.26-.021.473-.321.715-.394a.354.354,0,0,1,.312.057.432.432,0,0,1,.008.3c-.079.2-.3.336-.378.518,0,.008-.012.022-.016.032v.009l-.008.024a.619.619,0,0,0,.509.1l.025-.008.016-.009.024-.016.009-.008c.237-.19.26-.723.468-.953l.016-.016a.423.423,0,0,1,.041-.033l.025-.017.017-.008A.318.318,0,0,1,86,41.87a.727.727,0,0,1,.583.164l.009.016.016.033a.317.317,0,0,1,.016.066c.039.239-.193.457-.213.616a.182.182,0,0,0,0,.033v.016l.008.025.008.008c.006.007.012.019.017.025l.008.008a.491.491,0,0,0,.041.033.6.6,0,0,0,.181.065c.243-.274.4-.637.8-.731.122.155.214.4.091.551-.032.047-.077.078-.1.115l-.008.016v.008l-.008.009v.041l.008.016v.008l.008.017.008.008c.578.363.847-.854,1.577-.337.03.336-.092.551.091.764.394-.093.759-.515,1.215-.271a.266.266,0,0,1,.041.025l.008.008c.155.17.231.683.436.813l.016.008c.093.041.22.011.386-.156.579,0,1.064.548,1.643.181.4-.15.738-.04,1.273.9l8.2.247a6.39,6.39,0,0,1,4.369-1.487l.008-.008c.026-.024.059-.047.082-.066a.3.3,0,0,0,.025-.025l.008-.008v-.041c-1.582-.517-2.555.455-4.107.485-.039-.1-.14-.2-.18-.279l-.008-.017v-.008a.277.277,0,0,1-.009-.033v-.016c0-.006,0-.018,0-.025l.009-.008v-.008c1.155-.4,2.039-1.4,3.408-1.372a3.947,3.947,0,0,0,1.708-.756,1.412,1.412,0,0,0-.944-.065c-.486.3-1.127.976-1.643.55.15-.486.818-.583,1.093-.977l-.009-.025-.008-.016-.008-.009a.283.283,0,0,0-.025-.024l-.008-.009-.008-.008-.017-.008-.024-.008-.033-.008h-.09Zm-5.249,3.6a.62.62,0,0,1,.214.016l.025.009a.226.226,0,0,1,.1.073.341.341,0,0,1,.066.132.977.977,0,0,1-.715-.033l-.008-.008a.329.329,0,0,1-.041-.033l-.008-.008-.008-.017a.236.236,0,0,1-.041-.106A1.744,1.744,0,0,0,100.69,44.539Zm-1.576.008h.049l.025.008.024.009.016.008.009.008.008.008.025.025.016.016a.481.481,0,0,1,.041.082l-.008.017-.008.008a.294.294,0,0,1-.033.041c-.131.109-.409.028-.592.058l-.057-.066h.025l.024-.008c.109-.038.263-.159.394-.2l.033-.009Z" style="fill:#ffea0f"/><path id="path86" d="M96.51,29.493a2.3,2.3,0,0,0-.805.156c-.913.274-1,1.367-1.092,2.25-.061.359-.325.693-.362.994l.058-.049h.025a.294.294,0,0,1,.2.041.284.284,0,0,1,.049.049l.008.008.008.017.009.008c0,.008,0,.023.008.033a1.27,1.27,0,0,0,.624.23.378.378,0,0,0,.074-.017.444.444,0,0,0,.049-.024l.033-.025a.527.527,0,0,0,.164-.255.248.248,0,0,1,.222.033.313.313,0,0,1,.049.058c-.055.17-.012.39-.123.517l-.025.025a.312.312,0,0,0,.017.049l.016.016a.3.3,0,0,0,.025.025l.016.008c.006,0,.019.014.025.017l.025.008c.043.013.1.02.139.033l.025.008a.241.241,0,0,1,.025.008.251.251,0,0,1,.032.025c0,.005.013.011.017.016.761.245,1.151-.332,1.7-.7.121-.64-.7-1.369-.337-2.127.336-.456.764-.185,1.281-.337a.85.85,0,0,0,.14.23.529.529,0,0,0,.041.041.264.264,0,0,0,.247.066.961.961,0,0,0-.337-1.1.99.99,0,0,0-.969.156.351.351,0,0,1-.206.132h-.024l-.017-.008a.1.1,0,0,1-.024-.009l-.017-.008-.008-.008c-.006,0-.019-.011-.025-.016l-.008-.009c-.109-.114-.18-.363-.287-.435a.351.351,0,0,1-.066.016.579.579,0,0,1-.32-.082l.057-.057A2.918,2.918,0,0,0,96.51,29.493Zm.049.575c.142-.036.311.138.427.254.062.211-.187.3-.279.394a.461.461,0,0,1-.271-.55.259.259,0,0,1,.041-.049l.008-.008.009-.009.016-.008.008-.008h.008l.009-.008Z" style="fill:#ffea0f"/><path id="path90" d="M109.455,33.818c.791.336,1.521,1.036,2.464.823a54.2,54.2,0,0,0,4.654,3.009c.73.853,1.886,1.189,2.464,2.132-1.764-1.279-3.65-1.828-5.415-3.163-.7-.245-1.43.03-2.037-.429-.975-.394-1.735-1.367-2.678-1.885-.151-.271-.395-.545-.274-.849.427-.243.457.332.822.365" style="fill:#ffea0f"/><path id="path94" d="M105.623,34c-.153,2.312-2.829,3.772-4.381,5.2-.366.061-.639.425-1.094.367a7.439,7.439,0,0,1-.637-2.676c1.7-.457,3.161-1.645,4.681-2.468a2.251,2.251,0,0,1,.822-.7.643.643,0,0,1,.609.271" style="fill:#ffea0f"/><path id="path96" d="M109.942,35.583c-.366.429-.792.336-1.309.274.061-.184-.151-.184-.151-.336-.335.093-.639.762-1.035.275-.637-.213-.728.64-1.337.212l-.639.062c-.213.758.73.09.975.394.456.426.73-.911,1.216-.12.366.12.578-.213.821-.274.183.394.547.151.913.213.152-.032.271-.152.454-.093a4.319,4.319,0,0,0,1.7,1.919c.213-.487-.517-.792-.79-1.1-.3-.364-.73-.882-.638-1.217l-.12-.123c.088.031.181-.12.271.061l.062-.061-.062.061c.852.4,1.978,1.522,2.8,1.035a.154.154,0,0,1-.061.121c1-.121,1.673.973,2.586,1.247.7.486,1.43.822,2.19,1.339a2.6,2.6,0,0,1,1.582,1.367c0,.213,0,.519-.213.581l-.212-.032c-1.368-1.034-2.707-2.069-4.106-2.919-.244.12.03.331.092.456a42.1,42.1,0,0,1,3.68,2.676c-.123.213-.274.637-.609.363a7.484,7.484,0,0,1-2.8-1.642c-.852-1.093-2.129-1.61-2.738-2.827-.091.058-.213.058-.274.151v.181c1.583,1.432,3.012,3.38,4.929,4.26,0,.124.03.274-.091.335a2.229,2.229,0,0,0-1.371-.547c-.3.424-.85.123-1.216.062a20.079,20.079,0,0,1-2.4-2.649c-.092-.029-.153.061-.213.123.213.761,1.247,1.553,1.8,2.251-.152.12-.243.425-.426.3L112.2,41a.116.116,0,0,1-.213,0,7.609,7.609,0,0,1-2.037-2.615.257.257,0,0,0-.274.093,8.583,8.583,0,0,0,2.19,2.947c-.092.062-.03.153-.03.246-.79-.3-1.306-1.157-2.1-1.37-.153-.82-.76-1.337-.913-2.1-.122-.029-.152.061-.243.123.091.76.76,1.37.791,2.065.03,0,.06.035.09.062-.577,0-.881-.637-1.428-.942a4.258,4.258,0,0,0-.366-1.58h-.183c-.03.486.336,1.155.123,1.58-.274-.181-.426-.791-.883-.7-.364.669-1.46.245-1.7.975l.061.061h-.091c0-.184,0-.336-.183-.425-.273.212-.122.668-.424.911-.213-.181-.579-.03-.548-.424-.487.027-.091.637-.457.822-.243-.062-.151-.672-.547-.428l-.03.76c-.213-.061-.547-.12-.73.058-.153.123-.153.306-.211.491-.183-.032-.335-.306-.548-.123-.214.123-.153.609-.487.456.06-.272-.3-.333-.274-.549-.06-.514-.365-1.063-.182-1.487,1.612-.275,2.616-1.735,3.8-2.739a4.991,4.991,0,0,0,1.856-3.012,3.044,3.044,0,0,0,2.249-.274c.151.823,1.126,1.065,1.673,1.7" style="fill:#ffea0f"/><path id="path98" d="M95.614,39.14a40.22,40.22,0,0,1-.547,4.446h-.334a1.112,1.112,0,0,0-.062-.885c-.517.093.153,1.49-.881.973-.275-.182.121-.517-.305-.547-.06.123-.183.272-.06.4a1.737,1.737,0,0,1-.668-.125c.061-.485.791-.941.455-1.428a2.277,2.277,0,0,0-.73,1.34h-.273c.548-1.124.273-2.372.882-3.467l-.06-.062.181-.09a1.873,1.873,0,0,1,.275-.823.823.823,0,0,1,.547-.547.184.184,0,0,0,.3-.182,1.662,1.662,0,0,1,1.277,1" style="fill:#ffea0f"/><path id="path100" d="M98.276,38.527c-.165,0-.354.008-.592.008-.3.12-.339.455-.369.7.364,1.491.127,3.015.583,4.444a.443.443,0,0,0,.058.073.377.377,0,0,0,.049.042l.016.008.017.008a.29.29,0,0,0,.041.016c.185.054.406-.09.607-.09l-.057-.213c.023-.282-.262-.7-.14-.937a.331.331,0,0,1,.058-.074.475.475,0,0,1,.172-.082,3.542,3.542,0,0,1,.271,1.364l1.709-.452c-.183-.305-.1-.76-.28-1.093a.426.426,0,0,1-.049-.09l-.008-.016v-.074l.008-.017v-.008l.008-.008a.279.279,0,0,1,.017-.025l.016-.016.008-.008.009-.009a.581.581,0,0,1,.057-.032c-.761-1.036-.276-2.378-1.158-3.351A6.147,6.147,0,0,0,98.276,38.527ZM99.721,42.7c.245.123.21.455.271.7v.009l-.008.008-.008.008-.008.008a.181.181,0,0,1-.041.025.217.217,0,0,1-.05.008h-.1c-.046-.183-.208-.4-.173-.591a.318.318,0,0,1,.008-.033l.009-.025a.3.3,0,0,1,.033-.049A.367.367,0,0,1,99.721,42.7Z" style="fill:#ffea0f"/><path id="path102" d="M97.2,41.424a5.2,5.2,0,0,0,.608,2.8c.092.212-.151.332-.213.455-.395.182-.7-.455-1.094-.243.03-.181.151-.487,0-.638-.153.06-.336.213-.336.364V44.5h-.454c-.151-.274.153-.762-.273-.973.092-.61.092-1.43.243-2.19.454.274,1.156-.093,1.519.09" style="fill:#ffea0f"/><path id="path106" d="M94.854,44.558V44.01c.183.058.274-.12.426-.153l.06.7h-.486" style="fill:#ffea0f"/><path id="path114" d="M80.345,45.115s-.989-1.85-2.282-2a4.122,4.122,0,0,0-2.941.427c-.913.533-2.629,1.6-3.6,5.2a18.118,18.118,0,0,0-.76,7.836s1.217,9.048,5.932,15.513,8.618,9.582,11.33,11.1C90.346,84.489,97,86.916,97,86.916a33.835,33.835,0,0,0,14.9-8.9c6.464-6.844,7.428-9.429,9.254-13.839a20.056,20.056,0,0,0,1.621-10.342c-.3-2.51-1.292-7.605-3.649-9.2s-3.8-1.368-4.944-.912a6.4,6.4,0,0,0-2.129,1.672Z" style="fill:none;stroke:#ffea0f;stroke-width:0.913028px"/><path id="path116" d="M91.1,47.5V47.5l-.033.016a.255.255,0,0,0-.033.017.187.187,0,0,0-.082.115c-.045.235.246.657.246.657l.452,7.3-.706-.049-.157-2.333-1.108.1v1.881H88.56l-.764.706-.148-2.185,1.569-.1-.148-.657-1.536.156-.345-3.7H86.63l.106,6.693-1.371-.2L84.4,51.405l-.411.049-.2.2-1.117-.1v1.519l1.314.206.666,2.989a1.193,1.193,0,0,0-.321.132l-.024.016-.009.008-.008.008-.008.009-.025.032-.008.009v.008l-.008.008-.008.025V56.6l.008.016v.008a4.625,4.625,0,0,0,.608.813l2.891-.246.41-.46.5.4.969.057.354-.509.706.4a13.956,13.956,0,0,1,2.587-.558c.76,0,13.938.353,13.938.353l-.452.714a.591.591,0,0,0,.509.51c.457.049,8.213.041,8.213.041l-.46,1.322.2.862-.911,1.273.862.05-1.273,1.815.813.107-.813.813,1.167-.058v2.842l.607-.049V66.1h.813l-.049,1.068h.813V65.6l.452.049v1.627h.558l.255-4.468.706.46-.1-1.216.3-.049a5.421,5.421,0,0,1-.715-1.676c0-.507-.049-1.117-.049-1.117l.558.255.354.608-.247.657.608-.255-.107,4.567-.706.961.657-.3.156.361.755-1.478V60.522l.206-1.265.813-.1.049-.4L121,58.3l.813-.452-.607-.616-.107-1.265.764-.657-.764-.254-.2-1.265.5-.362s-.4-.654-.5-.9a6.264,6.264,0,0,1-.206-.764l1.019-.353a16.671,16.671,0,0,0-1.881-1.421c-.682-.388-1.88-.875-2.152-1.092l-.024-.025c-.2-.2-.814-.862-.814-.862a1.536,1.536,0,0,0-.8-.041.275.275,0,0,0-.041.024l-.017.009-.008.008-.008.008c-.3.278-3.645,3-3.795,3.236-.1.2-.405,1.275-.558,1.528s-.659.956-.912,1.314a2.728,2.728,0,0,0-.353.657.983.983,0,0,0,.288.156h.008l.033.008h.041l.024-.008h.009c.151-.049.813-.305,1.067-.206a1.04,1.04,0,0,1,.4.3h-.657a3.419,3.419,0,0,0-1.52.657,5.839,5.839,0,0,1-.961.559l-.2-.1,1.421-1.018c-.033-.027-.3-.229-.444-.156l-.016.008c-.151.1-1.063.5-1.47.706a3.388,3.388,0,0,0-.756.559v.14c-.076-.131-1.328-2.217-3.195-2.267s-3.118,2.138-3.194,2.275l-3.852-.608.1.411-2.226-.156,1.109-.354.107.206.657-.206-3.548-.911-.353.911-.969-.1-.805-7.3a.971.971,0,0,0,.041-.608l-.008-.017-.025-.033c-.005-.006-.019-.018-.025-.024l-.033-.025a.384.384,0,0,0-.139-.049A.458.458,0,0,0,91.2,47.5h-.1Zm27.39,2.652c.052.023.357.149.542.239.2.1.2.409.2.862a2.724,2.724,0,0,1-.1.756l.353.616.353-.666h.255l-.608,1.224.008.008.008.008.008.009a.358.358,0,0,0,.033.024l.017.009a.556.556,0,0,0,.23.041h.033l.032.008c.183.058.233.354.239.394,0,0-.05.715-.05,1.273a.652.652,0,0,1-.082.337.5.5,0,0,1-.065.082l-.009.008a.516.516,0,0,1-.09.066.549.549,0,0,1-.181.057H119.6a2.739,2.739,0,0,0,.345.312c.2.15.246.6.246,1.717a1.349,1.349,0,0,1-.755,1.372l-.764-1.52.608-.3-.805-1.527.805-.4a5.665,5.665,0,0,0-.5-.813c-.3-.4.049-1.265.049-1.265a.917.917,0,0,0,.049-.755.707.707,0,0,1,.1-.707V51.6a2.113,2.113,0,0,1-.05-.706.457.457,0,0,0,.009-.066v-.025A1.557,1.557,0,0,0,118.488,50.148Zm-.69.247-.238.4.452.5a3.554,3.554,0,0,0-.066,1.175v.008l.008.016.008.017a1.282,1.282,0,0,1,.3,1.577,3.667,3.667,0,0,0-.41,1.872,5.547,5.547,0,0,1,0,.961l-.247-.049-.156-.912-.148-.353a11.006,11.006,0,0,0,.148-1.273,4.4,4.4,0,0,0-.3-1.158,15.791,15.791,0,0,0-1.922.452c-.3.15-1.018.41-1.018.41l-.1-.312s2.2-.8,2.381-.911a1.416,1.416,0,0,1,.559-.1l.3-1.215s-.353-.355-.353-.51V50.97l.008-.008A3.466,3.466,0,0,1,117.8,50.4Zm-2.308,3.942h.1l.041.008h.016l.009.009h.008l.008.008h.008l.009.008.016.016.008.009a.315.315,0,0,1,.033.057.854.854,0,0,1,.041.345l-.361.764.2.2.706.361L116.591,55l.3-.147a4.279,4.279,0,0,1,.107.657,7.4,7.4,0,0,1-.51,1.47.79.79,0,0,0,.1.8l-.148.558h-.254v-.3a.786.786,0,0,0-.157-.558l-.008-.009-.008-.008-.033-.033-.008-.008c-.177-.14-.412-.018-.559.008h-.041a2.237,2.237,0,0,1-.607-.3,1.384,1.384,0,0,0-.354.147l-.008.009-.016.008h-.008l-.017.008h-.008c-.163.011-.417-.26-.55-.526a6.386,6.386,0,0,1-.3-1.117l-.255.107-.254-.254,1.067-.863.05.4-.3.353a4.879,4.879,0,0,0,.1.813.819.819,0,0,0,.608.657l.46-.353.353.509.706.1.255-.658a6.407,6.407,0,0,1-1.421-.813.478.478,0,0,1-.066-.106.884.884,0,0,1,.272-.855,1.763,1.763,0,0,1,.377-.336c.012-.006.03-.013.041-.017Zm2.423,3.1-.049.756-.3.813-.107-.2-.148-1.117ZM116.336,58.9l.3.607-.246.657-.362.255v-.862Zm1.167,1.322.459.1s.05.613.05.814a8.3,8.3,0,0,1-.353,1.166l-.354-.616Zm-1.413.755.246.411-.2.756-.3-.049v-.863Zm.2,1.627.2.451-.156.255-.5-.049Zm.862.607.51.1L117.4,64.94l-.255-.057Zm-1.166.863.657.2.058.2-.764.756-.206-.091-.049-.821Z" style="fill:#ffea0f"/><path id="path138" d="M92.371,56.99a2.568,2.568,0,0,0-1.175.649.343.343,0,0,0-.033.033l-.016.016c-.411.469.111,1.869.353,2.94a21.225,21.225,0,0,0,2.234,4.008L94.7,66.46a2.072,2.072,0,0,0-.4.459,4.4,4.4,0,0,0-.459,2.382c.1,1.166,1.17,1.617,1.626,1.873a3.336,3.336,0,0,0,1.519.1l.353.3-6.233-.3.451-1.774.362-.8s.2,1.209.246,1.412v.008c0,.011.012.024.016.033s.017.03.025.041l.008.009.017.016.016.016a.362.362,0,0,0,.058.041.422.422,0,0,0,.279.05l.025-.009.016-.008.016-.008a.148.148,0,0,0,.025-.025l.008-.008a5.251,5.251,0,0,0,.148-1.675c0-.86.051-3.2,0-3.8a.768.768,0,0,0-.608-.706l-1.568-.1a1.969,1.969,0,0,0-.05-.46v-.008L90.58,63.5l-.016-.025a2.4,2.4,0,0,0-.887-.419,25.46,25.46,0,0,0-2.99-.246c-.607,0-2.334.3-3.7.246a18.969,18.969,0,0,0-3.647.46l-.911-.755-.509.4-.666.049.206.863s-.4,1.979-.5,2.283l-.008.033a.362.362,0,0,0-.009.082v.008a1.388,1.388,0,0,0,.674.838,2.433,2.433,0,0,0,.862.148l.493-.485a.729.729,0,0,0-.041.238,1.409,1.409,0,0,0,.156.5,3.172,3.172,0,0,0,.953.206h.008c.254-.052.911-.156.911-.156s.456,1.063.657,1.519a5.331,5.331,0,0,1-.049,1.881,3.609,3.609,0,0,0-1.01.3l-.008.008a.342.342,0,0,0-.033.033l-.008.008-.008.008-.009.017-.008.024v.041l.008.009.017.032.008.017.008.016.008.008.009.009a1.694,1.694,0,0,0,1.026.328c.558,0,2.134.1,3.4.1s3.748-.1,4.863-.156,2.387-.2,3.654-.2,4.306.2,5.068.2,3.3.2,4.008.2,3.7.058,4.41.107,4.664.5,5.018.452a.607.607,0,0,0,.165-.05.48.48,0,0,0,.082-.049l.016-.016.017-.017.008-.008c.007-.009.019-.024.025-.033a.315.315,0,0,0,.024-.049l.017-.033v-.049l-1.167-.4s-2.243.1-2.431.082h-.008V72.11h.008c.035,0,.122-.014.255-.025a3.48,3.48,0,0,0,2.529-1.823,5.317,5.317,0,0,0,.1-1.93,6.9,6.9,0,0,0,.813.1,13.056,13.056,0,0,1,1.421,0,1.345,1.345,0,0,0,1.068-.4,4.53,4.53,0,0,1,.558-.4l-1.675-.156.254-.961.1.862.558-.156-.049-2.226-.156-.106-.608.665.206.148-.3.2-.354-.608-.714,1.314h.361l-.156.764h-1.01s.047-1.016.1-1.979a14.607,14.607,0,0,1,2.176-4.764,1.573,1.573,0,0,0,.46-1.519l-.008-.017-.017-.024-.008-.008a.257.257,0,0,0-.033-.033,3.644,3.644,0,0,0-1.659-.427c-.556,0-1.118.308-1.626.106a2.73,2.73,0,0,0-1.8.181l-.008.008-.016.009-.008.008a.542.542,0,0,1-.05.033,2.189,2.189,0,0,1-1.815-.14,2.554,2.554,0,0,0-1.93-.049,1.641,1.641,0,0,1-1.47-.353,1.458,1.458,0,0,0-1.519,0l-.017.008-.016.008a1.722,1.722,0,0,1-1.38-.172c-.457-.306-.762-.2-1.774-.107s-.968-.15-1.577-.4-2.079.259-2.891.312-.862-.1-1.725-.763a1.271,1.271,0,0,0-.829-.3h-.1C92.388,56.991,92.378,56.989,92.371,56.99ZM78.54,65.145a.071.071,0,0,1,.033,0V65.5a.168.168,0,0,1-.009.032.176.176,0,0,1-.024.042l-.017.016a.328.328,0,0,1-.074.049.788.788,0,0,1-.18.058.361.361,0,0,1-.1-.058.257.257,0,0,1-.033-.033.231.231,0,0,1-.041-.074.208.208,0,0,1,.017-.139C78.195,65.227,78.449,65.163,78.54,65.145Zm1.881.51a.267.267,0,0,1,.049,0,.375.375,0,0,1,.156.033c.01,0,.022.006.025.008a.923.923,0,0,1-.206.4.348.348,0,0,1-.082.066.266.266,0,0,1-.041.016l-.016.009h-.041a.194.194,0,0,1-.041-.017l-.017-.008-.016-.008s-.1-.358.106-.46A.428.428,0,0,1,80.421,65.655Zm30.593.451.107,1.364a2.036,2.036,0,0,0-.764-.756,6.21,6.21,0,0,0-2.127-.2,2.662,2.662,0,0,0-1.979,1.363l-.255-.1.3-1.314-6.735.205a3.57,3.57,0,0,1,2.119,2.127l-.148.2,2.587.05a2.969,2.969,0,0,0,0,1.363,9.506,9.506,0,0,0,.608.969H100.37a6.484,6.484,0,0,0,.912-1.273c.1-.355.254-1.109.254-1.109a2.058,2.058,0,0,1-.3-.558,3.2,3.2,0,0,0-.912-1.068l-.008-.008a9.719,9.719,0,0,0-2.883-.6l-.509-.3Zm-8.213.608.2.3v.5l-.353.058v-.559Zm6.086.255.255.246-.206.863-.148-.05Zm-26.569.049.254.559-.254,3.162a19.631,19.631,0,0,0-.55-2.5v-.008a4.906,4.906,0,0,1-.46-.863Zm13.182,0,1.018.2-.558.46-.608-.353Zm9.535,0,.353.1-.2.813-.2-.559Zm3.294,0,.156.961-.46.1-.3-.912Zm-1.117.255.353.706-.1.2-.657-.3Zm-9.224.049.452.049-.1.961-.657-.558Zm11.712,0,.255.3-.411.558-.2-.1Zm-10.545.1.451.411-.3.706H99l-.05-.254Zm-9.889.255.156.706,1.06.616-.452,2.078-1.774.05Zm5.683.156.912.3-.107.148-.961-.255Zm7.45,0,1.314.049.057.3h-1.322Zm-5.068.3.452.4-.255.4-.5-.049Zm9.38.049.706.452.049.361-.706.247Zm-23.276.148,1.215.961v1.782l-1.47-.156Zm26.971.049-.049.362-.706.2-.058-.5Zm-10.644.058h.3l.049.756-.607.049-.1-.247Zm-5.125.1,1.019.206-1.019.148Zm14.045.2h.057a.182.182,0,0,1,.033,0,.147.147,0,0,1,.025.008h.008l.033.016a.318.318,0,0,1,.107.091l.024.032a.436.436,0,0,1,.049.214.443.443,0,0,1-.008.09.438.438,0,0,1-.057.14l-.017.025a.331.331,0,0,1-.033.032l-.016.017-.025.016a.249.249,0,0,1-.123.033.255.255,0,0,1-.131-.033l-.025-.016-.016-.017c-.008-.007-.025-.023-.033-.032l-.017-.025a.438.438,0,0,1-.057-.14.479.479,0,0,1,.057-.328l.009-.008a.305.305,0,0,1,.106-.091l.033-.016h.008ZM88.1,68.792l-.961,2.333-1.117.049a3.437,3.437,0,0,1-.255-.657c-.05-.252,0-1.676,0-1.676Zm10.324.345s.012,0,.016,0h.1a.263.263,0,0,1,.082.041.259.259,0,0,1,.057.066l.008.016.009.017.008.016V69.3l.008.017v.057L98.7,69.4l-.008.024a.255.255,0,0,1-.017.033l-.016.025-.017.016a.22.22,0,0,1-.041.033l-.032.017-.033.008-.009.008h-.065l-.017-.008a.237.237,0,0,1-.123-.074c-.008-.011-.017-.027-.025-.041l-.008-.017-.008-.016v-.033l-.008-.016v-.025l.008-.016v-.025l.008-.016.008-.017.009-.016.008-.017a.381.381,0,0,1,.024-.032.218.218,0,0,1,.042-.033l.016-.009C98.407,69.15,98.415,69.14,98.424,69.137Zm-2.62.156.106.255-.862.46-.255-.4Zm13.9,0,.5.058-.049.254-.452-.057Zm-12.73.058h.764l.049.3-.452.5Zm8.262.1h.312l-.057.411-.255.2Zm2.185.049.1.3-.657.46-.2-.608Zm-7.959.107.707.148-.148.4-.657-.147Zm9.782.255.3.862-.558.247-.1-1.011Zm-13.182.049.206.2-.206.509-.5-.2Zm2.842.255h.255l.147.558-.353.148Zm-.706.049.4.3-.049.4-.657-.049Zm9.477.3-.049.608-.361-.156Zm.559.2.255.1v.5h-.46Z" style="fill:#ffea0f"/><path id="path176" d="M93.222,61.594a7.859,7.859,0,0,1-.76-1.777c-.052-.507.252-1.571.962-.86s.913,1.164.862,1.468a6.515,6.515,0,0,0-.05.811M95,58.8s.76,1.928,1.064,2.685a7.776,7.776,0,0,1,.406,1.777m1.066-.255-.3-2.938m3.548,3.7.153-2.635m3.092,1.471.152-1.622m2.586,2.281.3-2.586m2.687,3.042.811-2.383M96.973,63.721a5.217,5.217,0,0,1,1.115.306c.254.15.609.2.609.456v.757m0-.757s.05-.559.76-.51,1.167,0,1.217.608.051.813.051.813m.659-.049s-.2-1.066.558-1.066,1.52.052,1.571.407.1.708.1.708m1.978,0s0-1.115.76-1.063m2.534-.3s-.964.15-.913.659a1.675,1.675,0,0,0,.153.659m1.469-.105s.254-.86.609-.961.812-.2.812-.2m-16.376.1.913-.407" style="fill:none;stroke:#002a86;stroke-linecap:round;stroke-width:0.304343px"/><path id="path178" d="M112.487,69.146h.558m.607-.051,2.891-.609m-3.905,1.574.762-.052m-1.724.76,1.571-.3m.05.659a5.233,5.233,0,0,0,1.674.2" style="fill:none;stroke:#ffea0f;stroke-linecap:round;stroke-width:0.304343px"/><path id="path180" d="M94.9,64.691l.911-.405m-.772.856.913-.407m-.609.863.913-.407m-.76.856.912-.4" style="fill:none;stroke:#002a86;stroke-linecap:round;stroke-width:0.304343px"/><path id="path222" d="M79.787,64.279a17.338,17.338,0,0,1,2.179-.455c.457,0,.913.3,1.066.252s.71-.2,1.113-.306a26.471,26.471,0,0,1,3.143.2m3.146.1-.659.049m-6.541.561s-.506.2-.406.456.254.659.152.809-.506.558-.2.711a2.434,2.434,0,0,0,.557.2m.356-.809s-.153-.708.2-.81a1.944,1.944,0,0,1,.709-.052m.762,1.215.607,1.726" style="fill:none;stroke:#002a86;stroke-linecap:round;stroke-width:0.304343px"/><path id="path224" d="M75.575,47.7l-.353.057-.05.247-.862.4.862.058v.4l-.657.559-.509,1.117-.049,1.166-2.185,2.02,2.489,2.891,7.252.156.2-.763.509-.657.05-1.372.254.057.049-.262H81.258v.008L81.1,54.5l.4.1-.353.558-.559.148.156-2.891.707-.2-.05-.46-1.569-.1.1,3.7-1.314-.05-.058-1.724.814.1V51.15l-.756-.106v-.657l.608.057-.05-1.528-.509-.049-.107-.706h-.55l-.107,1.068-.607.657-.1.451.756.107V51L76.544,50.9v1.47h-.46l.049-2.538.814-.6-1.167-.263Zm-.452,4.969.206,2.784-.608-.049.049-2.686Zm-1.018.558V55.2l-.551-.5.4-1.42Zm3.195,0,.607.05V55.5H75.78v-.952l.3.041-.049.254L77.2,54.8Zm-4.353.5-.058.46-.3-.3Z" style="fill:#ffea0f"/><path id="path234" d="M107.873,55.051l3.092-1.269m-3.447.862,4.106-2.177L120.9,47.8m-.4-1.266-13.081,7.653m11.355-9.329-11.71,8.821m6.693-9.427-7,9.528,10.19-9.935m-5.678,1.774L106.1,53.583m2.383-8.012-2.941,7.553m1.419-7.654-1.724,7.654m.052-7.605-.659,7.405m-.963-7.405.254,7.405m-2.385-7.353,1.776,7.2m-5.172-7.25,4.614,7.351-2.992-7.3m-3.8-.052,6.135,7.807M94.032,45.47l7.555,8.414M91.9,45.47l9.276,8.618M88.761,45.47l12.319,8.365M85.617,45.421l15.259,8.768M75.731,43.644,100.624,54.5M73.8,44.811,99.965,55.357M72.538,46.585l27.274,9.228M71.878,47.952l25.3,7.2M71.472,49.929l2.687.66m10.546,2.335,5.373,1.619M70.915,56.218l3.294.1m7.15,0,3.092.2" style="fill:none;stroke:#ffea0f;stroke-width:0.6086849999999999px"/><path id="path236" d="M73.7,57.281s-.506-.4-.76-.353-.913.255-.913.255a3.066,3.066,0,0,0,.76.252,2.481,2.481,0,0,0,.913-.154" style="fill:#ffea0f;stroke:#ffea0f;stroke-width:0.262818px"/><path id="path238" d="M73.734,58.341s-.506-.407-.76-.355-.913.254-.913.254a2.949,2.949,0,0,0,.761.252,2.5,2.5,0,0,0,.912-.151" style="fill:#ffea0f;stroke:#ffea0f;stroke-width:0.262818px"/><path id="path240" d="M75.225,58.347s-.508-.407-.762-.355-.911.254-.911.254a2.977,2.977,0,0,0,.76.252,2.441,2.441,0,0,0,.913-.151" style="fill:#ffea0f;stroke:#ffea0f;stroke-width:0.262818px"/><path id="path242" d="M74.108,59.258s-.506-.406-.76-.353-.913.252-.913.252a2.993,2.993,0,0,0,.762.256,2.46,2.46,0,0,0,.911-.155" style="fill:#ffea0f;stroke:#ffea0f;stroke-width:0.262818px"/><path id="path244" d="M75.231,57.842s-.508-.407-.762-.358-.911.253-.911.253a3.014,3.014,0,0,0,.76.255,2.465,2.465,0,0,0,.913-.15" style="fill:#ffea0f;stroke:#ffea0f;stroke-width:0.262818px"/><path id="path246" d="M77,57.688s-.508-.407-.762-.355-.911.254-.911.254a3.014,3.014,0,0,0,.76.255A2.486,2.486,0,0,0,77,57.688" style="fill:#ffea0f;stroke:#ffea0f;stroke-width:0.262818px"/><path id="path248" d="M77,58.55s-.508-.407-.762-.358-.911.256-.911.256a2.987,2.987,0,0,0,.76.254A2.435,2.435,0,0,0,77,58.55" style="fill:#ffea0f;stroke:#ffea0f;stroke-width:0.262818px"/><path id="path250" d="M78.823,57.658s-.506-.407-.76-.355-.913.252-.913.252a3.048,3.048,0,0,0,.76.253,2.439,2.439,0,0,0,.913-.15" style="fill:#ffea0f;stroke:#ffea0f;stroke-width:0.262818px"/><path id="path252" d="M76.808,59.168s-.506-.4-.76-.353-.913.253-.913.253a3.012,3.012,0,0,0,.761.255,2.472,2.472,0,0,0,.912-.155" style="fill:#ffea0f;stroke:#ffea0f;stroke-width:0.262818px"/><path id="path254" d="M78.842,59.372s-.506-.4-.76-.353-.913.255-.913.255a3.066,3.066,0,0,0,.76.252,2.481,2.481,0,0,0,.913-.154" style="fill:#ffea0f;stroke:#ffea0f;stroke-width:0.262818px"/><path id="path256" d="M78.164,60.275s-.506-.406-.76-.354-.913.249-.913.249a3.014,3.014,0,0,0,.76.255,2.461,2.461,0,0,0,.913-.15" style="fill:#ffea0f;stroke:#ffea0f;stroke-width:0.262818px"/><path id="path258" d="M79.642,58.2s-.508-.4-.762-.35-.912.252-.912.252a2.949,2.949,0,0,0,.761.252,2.486,2.486,0,0,0,.913-.154" style="fill:#ffea0f;stroke:#ffea0f;stroke-width:0.262818px"/><path id="path260" d="M80.8,58.55s-.507-.407-.76-.358-.914.256-.914.256a3,3,0,0,0,.761.254,2.435,2.435,0,0,0,.913-.152" style="fill:#ffea0f;stroke:#ffea0f;stroke-width:0.262818px"/><path id="path262" d="M81.662,57.992s-.507-.4-.761-.353-.911.252-.911.252a2.894,2.894,0,0,0,.76.252,2.5,2.5,0,0,0,.912-.151" style="fill:#ffea0f;stroke:#ffea0f;stroke-width:0.262818px"/><path id="path264" d="M83.893,57.484s-.506-.406-.76-.353-.913.252-.913.252a3,3,0,0,0,.76.256,2.474,2.474,0,0,0,.913-.155" style="fill:#ffea0f;stroke:#ffea0f;stroke-width:0.262818px"/><path id="path266" d="M83.639,58.347s-.506-.407-.76-.355-.913.254-.913.254a3.006,3.006,0,0,0,.762.252,2.428,2.428,0,0,0,.911-.151" style="fill:#ffea0f;stroke:#ffea0f;stroke-width:0.262818px"/><path id="path268" d="M85.465,58.4s-.508-.4-.76-.353-.913.255-.913.255a3.066,3.066,0,0,0,.76.252,2.481,2.481,0,0,0,.913-.154" style="fill:#ffea0f;stroke:#ffea0f;stroke-width:0.262818px"/><path id="path270" d="M82.423,59.616s-.508-.407-.761-.354-.912.249-.912.249a3.014,3.014,0,0,0,.76.255,2.465,2.465,0,0,0,.913-.15" style="fill:#ffea0f;stroke:#ffea0f;stroke-width:0.262818px"/><path id="path272" d="M83.994,60.121s-.506-.407-.76-.355-.913.254-.913.254a3.091,3.091,0,0,0,.761.255,2.474,2.474,0,0,0,.912-.154" style="fill:#ffea0f;stroke:#ffea0f;stroke-width:0.262818px"/><path id="path274" d="M86.5,59.952s-.508-.407-.76-.355-.913.25-.913.25a3.014,3.014,0,0,0,.76.255,2.465,2.465,0,0,0,.913-.15" style="fill:#ffea0f;stroke:#ffea0f;stroke-width:0.262818px"/><path id="path276" d="M74.92,68.486l2.94.153-.71.507,1.065-.66,3.092-.1" style="fill:#ffea0f;stroke:#ffea0f;stroke-width:0.6086849999999999px"/><path id="path278" d="M80.339,69.7s-.508-.407-.762-.353-.912.252-.912.252a3.012,3.012,0,0,0,.761.256,2.479,2.479,0,0,0,.913-.155" style="fill:#ffea0f;stroke:#ffea0f;stroke-width:0.262818px"/><path id="path280" d="M80.649,70.413s-.508-.405-.761-.353-.912.253-.912.253a2.935,2.935,0,0,0,.76.252,2.5,2.5,0,0,0,.913-.152" style="fill:#ffea0f;stroke:#ffea0f;stroke-width:0.262818px"/><path id="path282" d="M78.823,71.224s-.506-.407-.76-.355-.913.254-.913.254a3.059,3.059,0,0,0,.76.255,2.476,2.476,0,0,0,.913-.154" style="fill:#ffea0f;stroke:#ffea0f;stroke-width:0.262818px"/><path id="path284" d="M81.155,73.405s-.506-.407-.76-.355-.913.252-.913.252a2.961,2.961,0,0,0,.76.254,2.437,2.437,0,0,0,.913-.151" style="fill:#ffea0f;stroke:#ffea0f;stroke-width:0.262818px"/><path id="path286" d="M84.26,75.166s1.014-.2,1.623-.252a2.121,2.121,0,0,1,1.419.353c.609.3.152.4.2,1.014s-1.317.811-2.484.912-.76-.912-.709-2.181-.305-1.062-1.318-1.062a7.258,7.258,0,0,0-2.585.861l1.369.71-.153.911,2.485-.3" style="fill:none;stroke:#ffea0f;stroke-linecap:round;stroke-width:0.6086849999999999px"/><path id="path288" d="M112.2,75.471a7.763,7.763,0,0,0-2.586-1.42c-1.014-.154-1.774-.154-1.621.912a14.563,14.563,0,0,0,.342,1.738,5.1,5.1,0,0,1,1.027-.065,2.339,2.339,0,0,1,1.216.3l.1-1.164ZM86.339,73.238s-.507,2.129,1.876,2.029,17.8-.052,17.8-.052,1.115-.15,1.064-1.115.5-1.671-2.687-1.823-16.477-.154-16.477-.154S86.238,71.973,86.339,73.238Z" style="fill:none;stroke:#ffea0f;stroke-width:0.6086849999999999px"/><path id="path290" d="M105.694,75.33s.033,1.183.81,1.52c1.623.713,2.332-.049,2.332-.049m-.963-2.13-.861.2" style="fill:none;stroke:#ffea0f;stroke-linecap:round;stroke-width:0.6086849999999999px"/><path id="path292" d="M94.309,75.453l.657,1.109-1.166-.5-.3.451.755.764-1.264-.2-.5,1.068,2.48.4-.255,1.774-2.283-.2-.8-2.275-.764.1.51,2.234-2.891-.057.813,2.743h.558l-.46-1.93,2.283.156.255.961-1.371-.3.1.862,2.439.764.4,1.216a8.216,8.216,0,0,0,2.078.5,36.772,36.772,0,0,0,4.714-.148l-.156-1.117a6.232,6.232,0,0,1,1.068-.559c.709-.3,1.47-2.225,1.47-2.225l.764-.3-.863-.354,1.265-1.831,2.185-.049v-.51l-2.333-.049-.862.559.558-.912,1.922-.2.049-.4-2.332-.057-2.686,3.252-.657-.107.1-1.724.813.2-.353-.509.657-.2-.353-.3.3-.559-1.519-.3.706-.813-.607-.353-1.011.862.247-.862H96.789l-.1.764-.3-.813h-.863l-.049.706-.254-.657Zm-.2,5.527.1.509-.912.8-.509-1.264Z" style="fill:#ffea0f"/><path id="path296" d="M94.71,82.854l-.556.81m2.129.557.3-.557m1.165.76.153-.556m-2.181-3.6h2.282m1.369.914-1.217,1.825h1.673" style="fill:none;stroke:#002a86;stroke-linecap:round;stroke-width:0.6086849999999999px"/><path id="path298" d="M89.073,73.208h-.59v-.343h1.73v.343h-.6v1.413h-.535V73.208" style="fill:#ffea0f;stroke:#ffea0f;stroke-width:0.262818px"/><path id="path300" d="M90.418,74.621V72.865h.538v.7h.654v-.7h.533v1.756H91.61V73.9h-.657v.721h-.535" style="fill:#ffea0f"/><path id="path302" d="M92.508,74.621V72.865h1.471v.343h-.937v.359H93.9v.339h-.861v.374h.937v.337H92.508" style="fill:#ffea0f"/><path id="path304" d="M97.036,72.865v1.112c0,.487-.435.678-.921.678s-.917-.187-.922-.678V72.865h.535v1.089a.388.388,0,0,0,.774,0V72.865h.533" style="fill:#ffea0f"/><path id="path306" d="M97.4,72.865h.749l.647,1.306.006,0v-1.3h.479v1.756h-.741l-.653-1.346h0v1.346H97.4V72.865" style="fill:#ffea0f"/><path id="path308" d="M99.624,74.617h.55V72.869h-.55Z" style="fill:#ffea0f"/><path id="path310" d="M100.465,73.744a1,1,0,1,1,1,.914C100.824,74.658,100.465,74.323,100.465,73.744Zm1-.577c-.364,0-.438.309-.438.583s.074.566.438.566.439-.3.439-.566-.076-.583-.439-.583" style="fill:#ffea0f"/><path id="path312" d="M102.751,72.865h.749l.647,1.306.006,0v-1.3h.481v1.756h-.741l-.655-1.346h0v1.346h-.483V72.865" style="fill:#ffea0f"/><path id="path314" d="M67.99,55.151l.514.808.8.1-.538.714.131.9-.826-.4-.9.3.2-.8-.558-.717.823-.1.344-.808" style="fill:#ffea0f"/><path id="path316" d="M67.974,51.606l.516.809.8.1-.537.714.132.906-.826-.4-.9.3.2-.8-.556-.718.823-.1.342-.809" style="fill:#ffea0f"/><path id="path318" d="M69.042,47.651l.413.869.783.2-.621.643.021.918-.771-.5-.928.186.3-.774-.465-.779.829,0,.439-.766" style="fill:#ffea0f"/><path id="path320" d="M70.317,44l.412.869.785.2-.621.647.019.915-.771-.5-.928.188.3-.776-.467-.779.829,0,.44-.765" style="fill:#ffea0f"/><path id="path322" d="M68.236,58.553l.526.808.8.085-.529.724.146.905-.833-.391L67.458,61l.193-.807-.569-.708.823-.112.331-.819" style="fill:#ffea0f"/><path id="path324" d="M68.671,62.206l.527.8.8.093-.528.721.143.905-.829-.391-.894.313.192-.807-.568-.708.822-.11.331-.82" style="fill:#ffea0f"/><path id="path326" d="M69.879,65.557l.564.779.808.053-.494.748.188.894-.848-.349-.879.355.153-.817-.6-.681.817-.147.292-.835" style="fill:#ffea0f"/><path id="path328" d="M71.062,68.616l.564.779.808.049-.494.752.188.892-.849-.348L70.4,71.1l.153-.817-.6-.68.815-.151.294-.831" style="fill:#ffea0f"/><path id="path330" d="M72.886,71.809l.565.779.807.052-.492.746.188.9-.85-.347-.877.353.153-.815-.6-.682.815-.151.292-.831" style="fill:#ffea0f"/><path id="path332" d="M74.864,74.852l.564.779.807.049-.492.749.188.9-.85-.349-.877.352.153-.814-.6-.679.815-.152.292-.831" style="fill:#ffea0f"/><path id="path334" d="M77.1,77.59l.564.779.808.05-.494.748.188.9-.85-.351-.877.357.153-.819-.6-.678.816-.151.293-.831" style="fill:#ffea0f"/><path id="path336" d="M79.883,80.174l.564.779.808.052-.492.746.186.9L80.1,82.3l-.878.354.155-.815-.6-.681.817-.152.292-.831" style="fill:#ffea0f"/><path id="path338" d="M83.029,82.146l.5.821.8.12-.554.7.112.909-.817-.42-.905.281.221-.8-.541-.727.825-.082.361-.8" style="fill:#ffea0f"/><path id="path340" d="M85.84,84.194l.5.822.8.119-.553.7.112.908-.819-.419-.9.28.22-.8-.54-.727L85.479,85l.361-.8" style="fill:#ffea0f"/><path id="path342" d="M89.034,86.02l.5.822.8.118-.553.705.112.908-.817-.419-.9.277.221-.8-.542-.73.824-.079.36-.8" style="fill:#ffea0f"/><path id="path344" d="M92.836,87.135l.5.821.8.119-.553.7.112.908-.817-.42-.9.281.221-.8-.542-.73.826-.079.358-.8" style="fill:#ffea0f"/><path id="path346" d="M96.74,87.843l.5.826.8.117-.554.7.112.908-.817-.418-.905.279.223-.8-.543-.727.825-.081.359-.807" style="fill:#ffea0f"/><path id="path348" d="M76.836,107.718h3.312V96.048H76.836Z" style="fill:#ffea0f"/><path id="path350" d="M86.927,101.887c-1.423-.2-1.918-1.106-1.918-2.627,0-2.375,1.9-3.042,3.824-3.042,2.091,0,3.679.65,3.679,3.042,0,1.438-.367,2.461-1.638,2.643v.086c1.64.166,2.55,1.549,2.55,3.354,0,2.744-2.7,2.951-4.909,2.951-2.023,0-4.318-.844-4.318-3.256a2.89,2.89,0,0,1,2.73-3.1Zm3.7,2.643c0-1.1-.8-1.59-1.79-1.59s-1.789.487-1.789,1.59.8,1.589,1.789,1.589S90.623,105.635,90.623,104.53ZM87.277,99.5a1.56,1.56,0,1,0,1.556-1.438A1.4,1.4,0,0,0,87.277,99.5" style="fill:#ffea0f"/><path id="path352" d="M97.784,104.635a4.56,4.56,0,0,0,2.13.809c1.155,0,1.519-.332,1.519-1.318,0-1.068-.505-1.826-1.011-1.783-.583.047-2.047.268-2.13.872l-1.826-.708,1.148-5.969,6.463.013v2.173l-4.062-.073-.405,1.826c.1-.306.2-.1,1.419-.1a3.354,3.354,0,0,1,3.651,3.548c0,2.695-1.617,4.158-4.259,4.158a6.04,6.04,0,0,1-3.651-1.012l1.014-2.434" style="fill:#ffea0f"/><path id="path354" d="M109.85,105.547c.018.385,1.211.159,1.5.326s.592-.176.938-.225a2.031,2.031,0,0,0,1.724-2.127c-.651.818-1.591.744-2.635.605a3.619,3.619,0,0,1-2.941-3.852c0-2.8,1.561-4,4.1-4.069,3.4-.086,4.734,2.99,4.617,6.5a6.927,6.927,0,0,1-1.419,4.059,5.394,5.394,0,0,1-3.5,1.515,6.8,6.8,0,0,1-3.3-.4Zm2.634-7.167a1.651,1.651,0,0,0-1.807,1.739,1.618,1.618,0,0,0,1.807,1.738,1.737,1.737,0,0,0,1.805-1.738,1.634,1.634,0,0,0-1.805-1.739" style="fill:#ffea0f"/><path id="path356" d="M36.237,17.865l-1.673,1.367a3.045,3.045,0,0,0-1.9-.912c-.909.078-1.895,1.192.153,2.511a4.769,4.769,0,0,1,2.434,4.488,3.183,3.183,0,0,1-3.042,3.038,9.554,9.554,0,0,1-4.715-1.444l1.368-2.205,2.509,1.066a1,1,0,0,0,.989-1.294c-.227-1.29-2.542-3.659-3.117-4.715-.912-1.672,1.141-4.256,2.661-4.105,2.271.227,3.042.533,3.422.989s.913,1.216.913,1.216" style="fill:#ffea0f"/><path id="path358" d="M37.835,16.343v2.815l2.737-.227.076,8.9,2.813-.3L43.385,18.7l2.434-.459-.152-2.506-7.832.609" style="fill:#ffea0f"/><path id="path360" d="M53.8,14.824l-3.646.3L47.568,27.3l2.818-.082.681-1.9,3.113-.3.616,1.289,2.505-.534Zm-1.593,3.5,1.519,4.41-2.513.378Z" style="fill:#ffea0f"/><path id="path364" d="M57.682,13.984v2.588l3.119-.379.151,9.275,3.345-.531-.074-9.127,2.2-.683V12.465l-8.745,1.519" style="fill:#ffea0f"/><path id="path366" d="M68.938,12.01l.3,11.71,7.3-1.066-.151-2.433-4.259.455.076-1.974,1.9-.382-.075-2.2-1.673.077-.152-2.361L76.694,13l-.228-2.436L68.938,12.01" style="fill:#ffea0f"/><path id="path368" d="M88.864,9.954c-2.512.1-5.1,1.6-4.8,5.478.44,5.618,2.664,7.145,5.248,7.145s4.644-3.494,4.493-6.537S92.514,9.8,88.864,9.954Zm.082,2.283a1.461,1.461,0,0,1,.148,0c2.128.077,2.127,2.435,2.127,3.8s-.3,3.724-2.431,3.646-2.055-2.356-2.284-3.95C86.286,14.193,87.621,12.323,88.946,12.237Z" style="fill:#ffea0f"/><path id="path372" d="M101.789,10.261l-6.159-.155-.076,12.018h2.965V17.03h1.37l-.077-2.281-1.369-.078V12.315l3.424.073-.078-2.127" style="fill:#ffea0f"/><path id="path374" d="M113.708,11.038c-2.477.049-5.037,1.463-4.887,5.289.221,5.63,2.386,7.243,4.969,7.343s4.764-3.312,4.731-6.357-1.044-6.285-4.7-6.275Zm.09,2.283a1.519,1.519,0,0,1,.165.008c2.124.161,2.033,2.518,1.979,3.885s-.453,3.709-2.579,3.548-1.953-2.435-2.119-4.041C111.087,15.177,112.476,13.37,113.8,13.321Z" style="fill:#ffea0f"/><path id="path378" d="M120.985,11.908a3.271,3.271,0,0,0-.411.025l-.3,12.771,2.431.46.157-2.891,4.18,3.877.452-2.661-2.128-2.2s2.967-1.6,2.891-3.425-.533-4.031-3.194-5.092A11,11,0,0,0,120.985,11.908Zm2.644,3.269a3.083,3.083,0,0,1,1.356.255c.988.456.682,2.279.377,3.195s-2.661,1.059-2.661,1.059l.157-4.41A3.633,3.633,0,0,1,123.629,15.177Z" style="fill:#ffea0f"/><path id="path382" d="M131.068,14.365l-.76,11.788,6.312,1.37.151-2.586-3.346-1.063.076-1.9h1.749l.077-2.507-1.6-.306v-2.05l3.042.378.152-2.282-5.855-.835" style="fill:#ffea0f"/><path id="path384" d="M147.19,19.232l-1.826,1.37a2.14,2.14,0,0,0-2.965-.914c-1.9,1.065-1.9,3.043-1.6,4.41s.7,2.714,1.977,2.892c2.205.3,1.673-1.066,1.673-1.066l-1.368-.15-.078-2.51,4.108.229s.144,4.437-.913,5.248c-1.293.988-4.3,1.785-6.159-.078a7.3,7.3,0,0,1-1.9-6.233c.182-1.519.911-4.032,2.355-4.792a5.575,5.575,0,0,1,4.107-.608,12.181,12.181,0,0,1,2.586,2.2" style="fill:#ffea0f"/><path id="path386" d="M153.747,18.167c-2.512.1-5.093,1.6-4.789,5.478.44,5.622,2.662,7.145,5.249,7.145s4.635-3.494,4.484-6.537S157.4,18.014,153.747,18.167Zm.1,2.283c.043,0,.089,0,.132,0,2.128.077,2.127,2.432,2.127,3.8s-.3,3.724-2.431,3.646-2.055-2.353-2.283-3.95C151.168,22.4,152.515,20.521,153.845,20.45Z" style="fill:#ffea0f"/><path id="path390" d="M160.575,18.626l.151,11.786,2.586-.077.076-5.016,3.345,4.56h2.888l-.38-12.014-2.662.228.3,6.234-4.411-5.778-1.9.077" style="fill:#ffea0f"/><path id="path392" d="M125.31,55.452l-.515.813-.8.1.538.715-.131.9.826-.4.9.3-.2-.8.558-.715-.823-.1-.344-.81" style="fill:#ffea0f"/><path id="path394" d="M125.326,51.907l-.516.814-.8.1.538.714-.133.905.826-.4.9.3-.2-.8.556-.714-.823-.1-.342-.811" style="fill:#ffea0f"/><path id="path396" d="M124.257,47.952l-.412.872-.783.2.621.643-.021.918.772-.5.927.187-.3-.772.465-.779-.829,0-.44-.768" style="fill:#ffea0f"/><path id="path398" d="M122.983,44.309l-.412.868-.785.2.621.648-.019.911.77-.5.929.191-.3-.776.467-.779-.829,0-.44-.764" style="fill:#ffea0f"/><path id="path400" d="M125.064,58.858l-.526.8-.8.09.529.724-.145.905.832-.391.893.31-.193-.8.568-.711-.822-.107-.331-.82" style="fill:#ffea0f"/><path id="path402" d="M124.629,62.512l-.527.8-.8.09.528.724-.145.905.831-.391.894.314-.192-.806.568-.711-.822-.109-.331-.818" style="fill:#ffea0f"/><path id="path404" d="M123.421,65.862l-.564.779-.808.049.494.749-.188.9.849-.348.878.354-.153-.816.6-.68-.815-.152-.294-.831" style="fill:#ffea0f"/><path id="path406" d="M122.238,68.92l-.564.779-.807.049.493.749-.188.9.849-.35.878.356-.153-.815.6-.681-.815-.152-.294-.831" style="fill:#ffea0f"/><path id="path408" d="M120.414,72.113l-.564.781-.808.052.492.744-.188.9.85-.351.877.355-.153-.814.6-.68-.815-.151-.292-.833" style="fill:#ffea0f"/><path id="path410" d="M118.437,75.157l-.565.779-.807.05.492.748-.186.9.848-.352.877.353-.153-.815.6-.678-.816-.15-.291-.832" style="fill:#ffea0f"/><path id="path412" d="M116.205,77.9l-.564.779-.808.049.494.749-.188.892.85-.348.877.355-.153-.817.6-.677-.815-.154-.294-.828" style="fill:#ffea0f"/><path id="path414" d="M113.417,80.479l-.564.779-.808.053.494.745-.188.9.849-.352.878.357-.155-.816.6-.681-.815-.15-.292-.832" style="fill:#ffea0f"/><path id="path416" d="M110.271,82.45l-.5.823-.8.12.553.7-.112.908.817-.418.905.279-.222-.8.542-.727-.825-.084-.361-.8" style="fill:#ffea0f"/><path id="path418" d="M107.46,84.5l-.5.825-.8.118.553.7-.112.908.819-.418.9.28-.22-.8.541-.728-.825-.08-.361-.8" style="fill:#ffea0f"/><path id="path420" d="M104.266,86.321l-.5.827-.8.116.553.7-.112.911.817-.421.9.279-.221-.8.542-.73-.824-.08-.362-.805" style="fill:#ffea0f"/><path id="path422" d="M100.463,87.436l-.5.826-.8.117.553.7-.112.908.817-.421.9.281-.221-.8.542-.727-.826-.084-.361-.8" style="fill:#ffea0f"/></g></g></g></svg>