<svg xmlns="http://www.w3.org/2000/svg" viewBox="0 0 184.732 124.163"><g id="Layer_2" data-name="Layer 2"><g id="Rhode_Island" data-name="Rhode Island"><g id="Rhode_Island-2" data-name="Rhode Island"><rect id="rect4" width="184.732" height="124.163" style="fill:#fec500"/><rect id="rect6" y="4.927" width="177.99" height="114.309" style="fill:#fff"/><g id="anchor"><path id="path9" d="M89.07,41.49s-.208,23.3-.208,24.995,0,4.025-1.871,3.6-4.158-.424-7.484-2.754-3.326-2.754-3.326-2.754L79.3,63.519A16,16,0,0,1,74.1,61.4c-2.079-1.483-3.742-2.754-3.742-2.754a13.7,13.7,0,0,0,.832,5.508A17.91,17.91,0,0,0,74.31,68.6V65.849a45.034,45.034,0,0,0,3.95,3.39c1.039.635,5.2,2.33,6.86,3.389a59.152,59.152,0,0,1,4.99,4.024s2.91-3.389,4.989-4.236a40.71,40.71,0,0,0,6.029-2.966c1.247-.847,4.573-4.024,4.573-4.024v3.6a19.564,19.564,0,0,0,2.911-4.66,27.634,27.634,0,0,0,.831-5.3,18.421,18.421,0,0,1-3.118,1.906c-1.455.636-5.613,2.33-5.613,2.33l3.326.848s-5.405,4.236-7.276,5.084-5.821,1.271-5.821-.848.208-26.9.208-26.9Z" style="fill:#fec500;stroke:#fec500;stroke-width:0.295627px"/><rect id="rect11" x="89.278" y="33.652" width="1.455" height="6.355" style="fill:#fec500;stroke:#fec500;stroke-width:0.295627px"/><path id="path13" d="M78.884,40.007A61.223,61.223,0,0,1,90.11,38.736a57.624,57.624,0,0,1,11.018,1.271v2.33A112.366,112.366,0,0,1,89.278,43.4a66.47,66.47,0,0,1-10.6-1.271l.208-2.118Z" style="fill:#fec500;stroke:#fff;stroke-width:0.295627px"/><path id="path15" d="M92.189,38.948a2.208,2.208,0,1,1-2.183-2.542A2.383,2.383,0,0,1,92.189,38.948Zm1.039-.106A3.33,3.33,0,1,1,89.9,35.347,3.414,3.414,0,0,1,93.228,38.842Z" style="fill:#fec500;stroke:#fff;stroke-width:0.295627px"/></g><g id="ribbon"><path id="path18" d="M109.143,79.5s-2.761,2.521-5.463,2.882a59.174,59.174,0,0,0-6.957,1.629s-.111,3.886.021,4.224.216.425.6.439a30.526,30.526,0,0,0,7.662-.727,34.007,34.007,0,0,0,8.641-3.64c-1-.409-3.41-.771-4.967-1.157Z" style="fill:#003271;stroke:#fff;stroke-linejoin:round;stroke-width:0.19708399999999998px"/><path id="path20" d="M101.057,85.5c.3.787-4.37,1.519-4.313,2.734" style="fill:#003271;stroke:#fff;stroke-linejoin:round;stroke-width:0.19708399999999998px"/><path id="path22" d="M70.662,79.5s2.761,2.521,5.463,2.882a59.174,59.174,0,0,1,6.957,1.629s.111,3.886-.021,4.224-.216.425-.6.439a30.523,30.523,0,0,1-7.662-.727,34.007,34.007,0,0,1-8.641-3.64c1-.409,3.41-.771,4.967-1.157Z" style="fill:#003271;stroke:#fff;stroke-linejoin:round;stroke-width:0.19708399999999998px"/><path id="path24" d="M78.748,85.5c-.3.787,4.37,1.519,4.313,2.734" style="fill:#003271;stroke:#fff;stroke-linejoin:round;stroke-width:0.19708399999999998px"/><path id="path26" d="M79.509,85.335a.736.736,0,0,0-.761.164V78.766a.746.746,0,0,1,.8-.041A30,30,0,0,0,89.9,81.094a29.989,29.989,0,0,0,10.353-2.369.749.749,0,0,1,.8.041V85.5a.734.734,0,0,0-.76-.164c-1.911.6-6.91,2.071-10.394,2.071s-8.484-1.476-10.394-2.071Z" style="fill:#003271;stroke:#fff;stroke-linejoin:round;stroke-width:0.19708399999999998px"/></g><path id="star" d="M89.9,13.8l2.086,5.013,5.412.434-4.124,3.532,1.26,5.282L89.9,25.227l-4.633,2.83,1.26-5.282-4.124-3.532,5.412-.434Z" style="fill:#fec500"/><g id="star6"><g id="use40"><path id="star-2" data-name="star" d="M112.342,19.327l-.484,5.408,4.591,2.9-5.293,1.212-1.339,5.262-2.787-4.66-5.419.353,3.57-4.091-2.009-5.044,4.994,2.131Z" style="fill:#fec500"/></g><g id="use42"><path id="star-3" data-name="star" d="M129.641,34.652,126.7,39.216l2.718,4.7-5.25-1.387-3.631,4.037-.3-5.421-4.961-2.206,5.062-1.964.565-5.4,3.431,4.208Z" style="fill:#fec500"/></g><g id="use44"><path id="star-4" data-name="star" d="M137.836,56.261l-4.725,2.675.221,5.425-4-3.668-5.092,1.887,2.251-4.941L123.12,53.38l5.395.614,3.01-4.519,1.083,5.321Z" style="fill:#fec500"/></g><g id="use46"><path id="star-5" data-name="star" d="M135.05,79.2l-5.427.172L127.3,84.283l-1.84-5.109-5.385-.7,4.289-3.329-1-5.336,4.492,3.051,4.765-2.6L131.1,75.476Z" style="fill:#fec500"/></g><g id="use48"><path id="star-6" data-name="star" d="M121.922,98.224l-4.885-2.37L112.7,99.118l.744-5.378L109,90.622l5.346-.954,1.591-5.191,2.56,4.788,5.429-.09-3.764,3.914Z" style="fill:#fec500"/></g><g id="use50"><path id="star-7" data-name="star" d="M101.458,108.964,98.234,104.6l-5.359.874,3.158-4.416-2.487-4.827,5.176,1.639,3.822-3.857.041,5.43,4.849,2.443-5.151,1.716Z" style="fill:#fec500"/></g></g><g id="stars"><g id="star6-2" data-name="star6"><g id="use40-2" data-name="use40"><path id="star-8" data-name="star" d="M67.463,19.327l.483,5.408-4.59,2.9,5.293,1.212,1.338,5.262,2.788-4.66,5.418.353-3.57-4.091,2.01-5.044L71.639,22.8Z" style="fill:#fec500"/></g><g id="use42-2" data-name="use42"><path id="star-9" data-name="star" d="M50.164,34.652l2.941,4.564-2.717,4.7,5.25-1.387,3.631,4.037.3-5.421,4.961-2.206-5.062-1.964-.565-5.4-3.431,4.208Z" style="fill:#fec500"/></g><g id="use44-2" data-name="use44"><path id="star-10" data-name="star" d="M41.969,56.261l4.725,2.675-.221,5.425,4-3.668,5.091,1.887-2.251-4.941,3.368-4.259-5.394.614-3.01-4.519L47.2,54.8Z" style="fill:#fec500"/></g><g id="use46-2" data-name="use46"><path id="star-11" data-name="star" d="M44.754,79.2l5.427.172,2.325,4.907,1.841-5.109,5.385-.7L55.443,75.15l1-5.336-4.492,3.051-4.765-2.6L48.7,75.476Z" style="fill:#fec500"/></g><g id="use48-2" data-name="use48"><path id="star-12" data-name="star" d="M57.883,98.224l4.885-2.37,4.339,3.264-.744-5.378,4.445-3.118-5.345-.954-1.591-5.191-2.56,4.788-5.429-.09,3.764,3.914Z" style="fill:#fec500"/></g><g id="use52"><path id="star-13" data-name="star" d="M78.347,108.964l3.224-4.369,5.359.874-3.158-4.416,2.487-4.827-5.176,1.639-3.822-3.857-.041,5.43-4.849,2.443,5.151,1.716Z" style="fill:#fec500"/></g></g></g><path id="path4197" d="M96.267,83.5v-2.22l1.6-.434,1.6-.434V81.3l-1.045.283-1.045.284v.891l.79-.214.789-.214v.892l-.8.217-.8.217v.873l1.057-.286,1.056-.286v.891l-1.6.435-1.6.434V83.5Zm-3.094.1c.38-.121.563-.329.5-.564s-.407-.319-1.013-.282l-.261.015v.956l.331-.044a3.666,3.666,0,0,0,.447-.081Zm-1.846.608V81.983l.725-.063a5,5,0,0,1,1.593.006c.69.142,1.071.513,1.111,1.08a1.062,1.062,0,0,1-.4.932,3.026,3.026,0,0,1-1.573.6l-.366.059v1.722l-.545.056-.546.055V84.205Zm-3.6,1.359a.891.891,0,0,0,.342-.539,3.4,3.4,0,0,0-.069-1.7c-.156-.386-.492-.517-.793-.308-.257.178-.362.576-.34,1.28.025.764.163,1.163.447,1.289A.472.472,0,0,0,87.724,85.564Zm-.541.91A1.653,1.653,0,0,1,86,85.584a3.729,3.729,0,0,1,0-2.741,1.626,1.626,0,0,1,1.707-.8,1.575,1.575,0,0,1,1.515,1.489,5.712,5.712,0,0,1,.012,1.23,1.771,1.771,0,0,1-1.07,1.629,2.074,2.074,0,0,1-.974.081Zm-6.8-3.841v-2.22l.545.134.546.134v1.783l.662.163.661.163V81.007l.558.137.557.137v4.44l-.557-.137-.558-.137V83.664l-.661-.163-.662-.163v1.783l-.546-.134-.545-.135Z" style="fill:#fec500"/></g></g></g></svg>