<svg xmlns="http://www.w3.org/2000/svg" viewBox="0 0 186.046 124.031"><g id="Layer_2" data-name="Layer 2"><g id="South_Carolina" data-name="South Carolina"><g id="South_Carolina-2" data-name="South Carolina"><rect id="rect552" width="186.046" height="124.031" style="fill:#036"/><path id="path557" d="M10.3,23.155C5.054,40.644,26.147,54.775,40.515,42.1c15.069-15.822-1.747-37.191-19.21-30.37A12.952,12.952,0,0,1,33.077,33.449,13.289,13.289,0,0,1,10.3,23.155Z" style="fill:#fff"/><path id="path554" d="M102.341,20.987a3.611,3.611,0,0,0-1.444,1.929c-.67,1.992-1.358,3.981-2.031,5.969-.351.895-.69,1.8-1.043,2.692-.65-.087.256-1.2.206-1.671a17.49,17.49,0,0,0,.732-2.919c-.163-.745.016-1.711-.353-2.316-.552,1.272-1.25,2.491-1.725,3.792-.357,1.562-.836,3.1-1.036,4.689a13.689,13.689,0,0,1-.532,2.429c-.661-.062-.486-1.226-.875-1.706a23.715,23.715,0,0,0-1.575-3.143c-.262-.26-.865-2.092-.854-1.071-.059.737-.11,1.476-.177,2.213q-2.2-4.114-4.409-8.226a11.749,11.749,0,0,0,.32,2.693c.712,1.536,1.364,3.1,2.044,4.651-.358.339-.43-.221-.609-.449l-4.073-7.191c-.548.385-.167,1.095-.237,1.651a15.341,15.341,0,0,0,1.091,2.213c.643,1.2,1.3,2.4,1.963,3.589-.473.521-.73-.955-1.069-1.288-1.228-2.13-2.443-4.267-3.707-6.376a.9.9,0,0,0-.632,1.134,1.868,1.868,0,0,0,.442,1.428q1.425,2.466,2.867,4.922c-.325.377-.424-.173-.613-.394l-4.624-7.316c-.375-.169-.905-.619-.785.128-.178.936.839,1.59,1.171,2.4,1.371,2.121,2.783,4.253,4.149,6.354-.286.385-.417-.107-.6-.318l-2.6-3.686c-.323-.084-.739-.294-.617.231-.021.333-.11.684.173.935,1.385,2.08,2.8,4.149,4.166,6.235.445.908.849,1.845,1.318,2.737l2.374,2.442c-.568.458-1.144-.994-1.709-1.256a7.691,7.691,0,0,1-1.744-2.077A6.181,6.181,0,0,0,84.4,35.16c-.7-.527-1.242-1.487-2.057-1.725a2.11,2.11,0,0,0,.74,2.335c.079.216,1.185.961.578.808a14.552,14.552,0,0,1-3.425-.958c-.674.646,1.61,1.164.328,1.428-.927.013-1.642-.828-2.489-1.14-2.113-1.154-4.276-2.218-6.436-3.277L70.3,32.225c-.125.782,1.1,1,1.5,1.556,1.639.885,3.317,1.723,4.959,2.611-.053.494-.5.121-.8.073L66.747,33.5c-.516-.123-.426.148-.217.5.051.4.451.422.764.539,2.411.809,4.821,1.625,7.234,2.43.095.38.174.764.257,1.147a3.355,3.355,0,0,0-1.839-1.017,18.8,18.8,0,0,0-4.782-.041c-.85-.2-.96.483-.114.629.681.528,1.557.232,2.348.274q1.928-.059,3.857-.126c.227.733-1.256.242-1.312.837-.148.707,1.185.707,1.666.562.735.013,1.245-1.077,1.87-.891-.164.7-1.391.855-1.53,1.578-.093.725,1.386.511,1.811.2.494-.41,1.343-1.029,1.389.069.143.992,1.456.608,2.169.944,1.272.194,2.574.275,3.835.483,1.2.547,2.415,1.09,3.618,1.64-.247.683-1.308-.352-1.857-.312a10.7,10.7,0,0,0-2.717-.781,8.481,8.481,0,0,0-2.515-.038c-2.542.213-5.089.385-7.628.623-2.363.4-4.732.781-7.095,1.171-.6.187-1.905.538-.656.781,2.683-.126,5.361-.352,8.039-.554.193.468-.382.308-.67.383L65.99,45.2c-.685.507-1.6.786-1.974,1.615.107,1.181,1.585.1,2.318.18a40.794,40.794,0,0,0,5.7-1.225c.554.044,1.938-.945,2.021-.234-2.1.648-4.207,1.3-6.325,1.892l-1.354.316c-.131,1.085,1.509.452,2.178.624,1.47-.343,2.871-.937,4.324-1.349.775-.064,1.949-.972,2.511-.6a13.259,13.259,0,0,1-2.382,1.2c-1.495.654-3.012,1.254-4.469,2-.96.972,1.02.883,1.506.38,1.557-.715,3.094-1.468,4.628-2.237.376.311-.177.459-.373.673a20.641,20.641,0,0,1-2.685,1.918c-.375.3-.989.407-1.062.959.851.484,1.664-.1,2.427-.483q2.989-1.936,6.04-3.785c.877-.393,1.777-.734,2.669-1.093.344.344-.219.448-.432.65-.979.655-1.962,1.306-2.94,1.964a24.981,24.981,0,0,1-3.3,3.217,13.686,13.686,0,0,0-1.654,1.478c-.922.927-1.877,1.822-2.791,2.758a8.282,8.282,0,0,0-.826,2.849c.012,1.092-.112,2.2-.009,3.281.112.451.372,1.479.46.452.05-.47.374-2.09.722-.953.191.425.379,1.707.606,1.484.332-.658.393-1.581.928-2.079.476.278.852.963,1.305.174.576-.67.491-1.677.777-2.493q.37-1.587.743-3.175c.451-.131.344.415.456.7q.217.978.433,1.957c.985-.427.583-1.757.9-2.6.063-.631.264-2.293.942-1.025.4.955,1.5-.145,1.467-.84.225-1.1.441-2.2.671-3.3.3.527.6,1.046.906,1.569,1.028-.048,1.381-1.079,2.048-1.69a21.837,21.837,0,0,1,1.8-1.884c.758-.391,1.468-.913,2.248-1.249.76.7-.388,1.652-.82,2.255-.964,1.192-2.155,2.173-3.164,3.327-.4.46-1.022.846-.855,1.531.507.225,1.035.431,1.545.66a22.518,22.518,0,0,0-2.31,1.186c-.688.6-1.432,1.124-2.154,1.678-.2.524-.321,1.115.455.9.553-.1,2.043.141.872.686-1.1.719-2.375,1.169-3.465,1.881-.3.4-1.112,1.035-.125,1.006.659-.094,1.646-1.1,2.136-.59-.693.765-1.591,1.5-2.349,2.269-.386.3-1.243,1.129-.736,1.363a17.063,17.063,0,0,0,3.069-2.476c.36-.572,1.323-1.079,1.018.035-1.188,1.479-2.337,3-3.559,4.441.123,1.446,1.053-.415,1.511-.8a11.649,11.649,0,0,1,2.313-2.364c.325-.07,1.18-1.289,1.225-.79-.022.414.106.876-.246,1.2A29.449,29.449,0,0,0,79.678,67.8c-.1.465-.2,1.8.469,1.171A45.036,45.036,0,0,0,82.552,64.5c.645-1.355,1.08-2.809,1.621-4.2.456-.68.678-.45.615.261.073.66.045,2.074.5,2.173.829-1.894,1.87-3.685,2.754-5.55.306-.911.669-1.8,1.047-2.691.476-.049.257.467.3.768a13.854,13.854,0,0,1-.047,1.814,33.551,33.551,0,0,1-1.614,4.392c-.435.9-1.048,1.707-1.468,2.61-.421.548-.265.552.209.23a6.074,6.074,0,0,0,1.983-1.789c.915-.733.236.934.025,1.288-.5,1.41-.819,2.889-1.382,4.282-.007.422-.153,1.392.384.649,1.009-.789,1.377-2.053,1.981-3.131.366.535,1.054.844,1.388.185-.056-.833-.44-1.7-.065-2.5a35.035,35.035,0,0,0,.883-4.062c.1-.831.157-1.672.26-2.5.462-.238.267.5.3.775v1.9c.453.05,1.285-.753,1.522-.226-.458.392-1.156.634-1.571,1.061l-.053,1.592,1.694-1.03c.4.282-.13.476-.312.709l-1.389,1.3L92.1,63.932c.393-.123.788-.238,1.179-.366.321.366-.234.449-.464.64-.26.242-.846.283-.761.738-.03,1.143-.072,2.286-.118,3.429.207-.409.935-1.392.828-1.448-.238.467-1.107.5-.515.012.245-.3,1.585-1.253,1.112-.3a24.906,24.906,0,0,1-1.346,2.1c-.138-.014-.3.964.114.771.347.236,1.416.343.678.754a12.505,12.505,0,0,0-.98.938A19.835,19.835,0,0,0,91.8,74.3c.282-.4,1.211-1.113,1.016-1.3-.391.187-1.585.1-.75-.206.509-.193,1.931-.248,1.023.554-.485.863-1.637,1.134-1.42,2.078.005.7-.281,1.122.572.995.976-.086,1.043.865.164,1.125-.605.353-1.133.33-.768,1.132.188.527,1.489.882,1.163,1.428-.049-.615-.187.237-.524-.38-.414-.33-.948-1.116-.772-.074q-.115,2.982-.234,5.964a1.21,1.21,0,0,1,1.145.715c-.423.392-1.432-1.321-1.17.035A12.556,12.556,0,0,0,91.22,88.4c.2-.172.526.318.776.4l.855.591c-.157.484-.491-.015-.759-.144l-.942-.652c.074.808-.281,2.3.044,2.713.371.274,1.34,1.06,1.316,1.5-.479.128-1.172-1.3-1.474-1.221q-.069,1.809-.136,3.619a4.757,4.757,0,0,1,1.79,1.237c-.455.386-1.416-1.046-1.809-.864-.072.975-.013,1.971-.153,2.934-.185.7,1.745.527,1.327,1.243-.711-.235-1.7-1.253-1.7.063-.152,1.048-1.107,2.119-.364,3.113.286.807,1.2,1.15,1.889,1.561a20.342,20.342,0,0,1,2.432-.56c1.244-.193,2.509-.263,3.749-.463.523-.382,1.173-.742.383-1.232-.629-.772-.479-1.871-.844-2.748,0-.713-.147-1.023-.775-.508-.491.1-1.256,1.146-1.535.493.735-.356,1.4-.819,2.146-1.163a24.626,24.626,0,0,1-.249-2.8c-.588.379-1.457,1.168-2.021,1.059.23-.525,1.354-.756,1.833-1.309.348,0,.121-.5.18-.79l-.024-2.44a3.39,3.39,0,0,1-2.021,1.186c-.613-.536.936-.343,1.136-.8.371-.418,1.057-.679.873-1.334Q97.13,90,97.12,88.921c-.479.318-1.357,1.459-1.82.986.5-.445,1.584-.872,1.811-1.539l-.03-2.8a3.693,3.693,0,0,1-2.056,1.38c-.41.455-1.245.051-.412-.176a3.837,3.837,0,0,0,2.138-1.3c.459-.246.3-.683.321-1.137l-.022-2c-.97.861-1.847,1.814-2.809,2.685-.507-.535.941-1,1.147-1.53.479-.574,1.291-1.129,1.661-1.622q-.012-1.089-.022-2.178c-.37.342-.969.775-.211.366.339.382-.257.421-.506.587-.344.161-.689.32-1.032.482-.358-.673,1.161-1,1.464-1.6.41.1.259-.286.277-.685L97,77.324c-.507.923-1.517.388-2.323.22-.6-.048-.035-.23.212-.377l1.916-1.029c.36.363-.234.432-.475.61l-1.133.6a1.211,1.211,0,0,0,1.794-.545c0-1.216-.033-2.411-.092-3.63-.56.563-.881,1.178-1.577,1.428.326-.15,1.667.045.765.281-.517.1-2.245.17-1.036-.49a3.31,3.31,0,0,0,1.411-1.211c.467-.269.462-.451.4-1l-.095-2.245c-.283.348-1.49,1.3-1.182,1.3.361-.228,1.777-.294.935.115-.54-.034-1.707.718-1.9.059a10.9,10.9,0,0,0,1.934-1.7c.368.048.125-.493.171-.828q-.135-3.371-.271-6.741c-.354.313-1.834,1.509-1.293.322.363-.416.733-1.143,1.136-1.284.263-.136.023-.626.084-.9a4.884,4.884,0,0,0-.564-1.905c-.014-.258-.5-.709-.086-.786.447.381.659,1.413,1.022,2.024.552,1.277,1.182,2.526,1.667,3.828a15.992,15.992,0,0,1,.594,3.285c.275-.1.789.066.77-.363.064-.423.37-.859.1-1.263-1.209-3.29-2.583-6.513-3.861-9.775.3-.315.4.114.522.37.743,1.482,1.229,3.076,1.848,4.613.629,1.666,1.29,3.323,2.047,4.936,1.164-.678.2-1.891.037-2.876-.544-1.8-1.28-3.542-1.911-5.316-.187-.315-.6-.463-.868-.714-.4-.3-.812-.595-1.207-.888.328-.62,1.057.47,1.561.524.867.913,1.08-.491,1.849-.652.216.791-1.246,1.432-.467,2.346.56,1.913,1.064,3.846,1.807,5.7.123.334.247.667.369,1-.251.361.107,1.907.619,1.508.176-.834.709-1.66.256-2.5-.665-2.543-1.578-5.013-2.347-7.526.01-.916.582.391.646.784.884,2.4,1.84,4.779,2.621,7.215-.166.715-.161,2.228.773,1.373a6.191,6.191,0,0,0-.281-2.833c-.808-2.15-1.451-4.364-2.17-6.547-.41.447-1.183.019-1.3-.475.138-1.084-.758-1.054-1.566-.984-.354-.035.617-.542.731-.726.437-.24,1.368-.975.47-1.173-.287-.131-.572-.267-.86-.4a12.831,12.831,0,0,1,1.44-2.1,1.8,1.8,0,0,0-.594-2.171c-.493-.271-.437-.894-.632-1.356-.257-.272,0-.8.206-.4l.384,1.319a1.945,1.945,0,0,1,1.068,1.873c.338.768-.553,1.234-.882,1.815-.2.285-.361.592-.545.885.412.194.834.371,1.24.577.086.776-1.253,1.288-1.155,1.553,1.3-.348.511,1.462,1.492,1.61.333,0,.622-.334.938-.472.563.106-.236.369-.1.62,1.049,2.851,2.125,5.7,3.122,8.567-.095,1.035.891,1.171,1.506,1.6.085.552.349,1.6.932,1.375.025-1.477.117-2.963.121-4.434.085-.5-.772-1.727-.07-1.788a35.219,35.219,0,0,1,1.187,3.47c.191.773-.189,2.027.918,2.142.489.2.111-1.576.634-1.093l.867.687c1.172.028.3-1.257.319-1.912-.368-.917-.718-1.844-1.084-2.763.545-.226-.293.08-.135-.505a5.18,5.18,0,0,0-1.239-2.3c-.223-.481-.208-1.049-.625-.368-.5.411-.277,1.088.071,1.52.565.875.509,2.031,1.215,2.822a2.48,2.48,0,0,1,.619,1.656c.028.291.051.87-.312.59-.049-.494.133-1.028-.173-1.421a7.233,7.233,0,0,1-1.06-2.021,10.224,10.224,0,0,0-.976-2.3c.079-.182-1.166.1-1.069-.289.344-.048.283-.2.867-.07a1.218,1.218,0,0,0,.14-1.545c-.586-1.313-1.489-2.465-2.146-3.738-.166-.831.164-1.854-.633-2.433a8.941,8.941,0,0,1-1.7-2.913,23.149,23.149,0,0,0-2.006-1.841c-.335.106-1.6.145-.971-.233.864-.346,1.459.147,2.009.732a3.6,3.6,0,0,1,1.5,1.792,7.582,7.582,0,0,0,1.625,2.516c.638.6.308,1.557.478,2.325a27.9,27.9,0,0,1,2.365,4.277c-.114.678.187-.217.509-.138-.03-.768.237-1.807-.259-2.523-.519-.965-1.123-1.895-1.592-2.88-.327-.7-.726-1.582-1.09-2.35a16.871,16.871,0,0,0-1.462-2.488c.523-.548.8,1.029,1.2,1.3.914,1.617,1.49,3.4,2.489,4.973a10.7,10.7,0,0,1,1.04,2.029c.1.44-.175,1.862.182,1.744.178-.343.359-.684.535-1.028.285-.135.848-.049.917-.361.1-.958-.867-1.656-.964-2.6a13.066,13.066,0,0,0-1.425-3.638c-.685-1.5-1.69-2.839-2.232-4.409-.144-.915.6.253.614.681.527,1.2,1.3,2.277,1.841,3.472a14.292,14.292,0,0,1,1.3,3.025,8.82,8.82,0,0,0,1.135,2.82c.09.4-.012.717.331.753.159.37-.611.183-.307.749.088.355-.092,1.7-.358.933.024-.629.32-1.652-.578-1.17-.24.207-.331.6-.515.88-.151.378-.717.351-.332.888a5.9,5.9,0,0,1,1.306,2.352c.107.833.8,1.4,1.217,2.117.454.466.987,1.894,1.442,1.638.2-.887-.575-1.478-.86-2.249-.609-1.3-1.162-2.633-1.744-3.948.473.341,1.075.539,1.345,1.1,1.082,1.442,2.147,2.9,3.259,4.316,1.166.56.45-.893.094-1.35-.889-1.794-2.106-3.4-3.156-5.1-.229-.233-.958-1.365-.277-1.016l3.6,4.439c.4.276,1.137.507.893-.182-1.028-1.878-2.337-3.583-3.482-5.391-1.2-1.7-2.213-3.522-3.287-5.306.565-.458,1.306.691,1.936.841a12.759,12.759,0,0,1,2.731,2.048c1.39,1.209,2.726,2.488,4.171,3.629a13.783,13.783,0,0,0,2.056,1.34c.013-.26-.792-1.236-.454-1.23a13.17,13.17,0,0,1,2.328.94c.5.247,2.074.839,1.286-.186-.25-.512-1.444-.789-1.249-1.345.222-.12.582.255.856.325a5.421,5.421,0,0,0,2.063.654c1.058-.048.394-1.15-.321-1.157-1.64-.873-3.267-1.773-4.9-2.66.338-.685,1.445.4,2.083.367.373-.117,1.743.165,1.264-.482-.2-.249-.623-.257-.913-.408-2.237-.81-4.477-1.61-6.711-2.426-.953-.642-1.922-1.265-2.88-1.9.147-.587,1.107.169,1.585.109a9.56,9.56,0,0,0,2.546.389,12.88,12.88,0,0,0,1.932.065c-.369-.2-2-.672-1.069-.927.467-.028,1.935-.058.683-.1a16.592,16.592,0,0,1-2.672-.3c.11-.317.553-.2,1.132-.136.633.217,1.913-.154,2.161.376a14.156,14.156,0,0,0,2.537-.008,21.184,21.184,0,0,0,3.394-.22c.366-.569,1.457-.753,1.437-1.491-.072-.685-.08-1.391-.193-2.063-.232-.254-.282-.77-.676-.793a17.373,17.373,0,0,1-3.065-.823c-2.083-.051-4.174-.032-6.251-.156-.673-.044-1.474.566-2.248.523a17.181,17.181,0,0,0-3.573.39c-.447.347-1.068-.153-.352-.242a10.044,10.044,0,0,1,2.729-.385,7.312,7.312,0,0,0,2.769-.487c.537-.364.656.254.761-.421.491-.186,2.064-.054,1.693-.572-1.94.066-3.881.089-5.821.125a4.969,4.969,0,0,0-2.279.694c-.81.328-.142-.493.359-.515.859-.509,1.928-.383,2.762-.936,1.3-.608,2.53-1.377,3.8-2.045.33-.292,1.249-.748.277-.842-.763-.176-1.578.263-2.369.272-1.042.185,0-.724.393-.9,1.217-.625,2.408-1.309,3.572-2.035.369-.282,1.459-.474,1.108-.944-.987.329-1.963.8-2.973,1.077-.342.081-1.891.273-1.126-.331,1.488-.983,2.952-2,4.427-3,.491-.661.135-.677-.455-.408a12.151,12.151,0,0,0-1.828,1.091c-.218.383-1.442.707-.792.044.659-.573,1.3-1.165,1.99-1.7.348-.484.7-1.636-.24-1.093-.609.32-1.391.368-1.815.96-.749.778-1.512,1.552-2.253,2.334-.541-.508.859-1.067,1.031-1.605.608-.7,1.249-1.373,1.794-2.118.116-.61.142-1.04-.477-.615l-.9.389c.091.63-1.246,1.287-1.67,1.912-.718.613-1.694.87-2.326,1.6-.5-.539.884-.948,1.241-1.265a11.4,11.4,0,0,0,2.505-2.161c-.889.18-1.914.143-2.435,1.03-1.346,1.28-2.656,2.605-4.034,3.847-1.68,1.165-3.388,2.307-5.112,3.395-.788.318-1.909.057-2.283,1.008-.659.926-1.439,1.755-2.173,2.621a3.372,3.372,0,0,1,2.252.356c.685.24,1.267.714,1.923,1.01a1.625,1.625,0,0,1-1.754,1.026,5.238,5.238,0,0,1-1.274-.441c.043-.513.478-.1.768-.027a1.449,1.449,0,0,0,1.765-.317c-.219-.451-1.383-.9-2.059-1.157-.613-.369-1.315-.115-1.98-.107-.786.179.22-.518.336-.79a34.854,34.854,0,0,0,2.458-3.057c-.055-.79.821-1.348,1.113-2.078a30.674,30.674,0,0,0,1.96-4.13,5.575,5.575,0,0,0,.208-1.864,3.544,3.544,0,0,0-.019-1.02c-.611,1.124-1.239,2.247-1.826,3.379-.723.042-.075-1.1.134-1.4.555-1.123,1.182-2.227,1.7-3.359l.045-1.42c-.468-.407-.7.981-1.076,1.306-.813,1.355-1.564,2.754-2.412,4.083-.084.449-.982.776-.622.139,1.212-2.229,2.456-4.45,3.7-6.656a6.6,6.6,0,0,0,.411-2.891c-.479-.757-.813.407-1.2.708a13.517,13.517,0,0,0-1.049,2.094c-.611,1.329-1.246,2.649-1.867,3.971-.695-.286.4-1.324.41-1.908q.894-2.311,1.783-4.623c-.3-.619-.965,1.013-1.28,1.389-.566,1.264-1.223,2.486-1.85,3.722-.669-.292.409-1.32.38-1.88.324-.936.751-1.863,1.064-2.787C102.286,21.911,102.78,21.005,102.341,20.987Zm4.292,16.794c.154.616-.773.9-1.155,1.374-.479.179-2.194.6-1.456.985q.732-.387,1.464-.774c.623.591,1.566,1.224,1.493,2.128-.593.148-.34-1.161-1.045-1.283-.325-.562-.736-.418-1.174-.109-.348.188-.7.362-1.045.559-.583-.8.063-1.438.9-1.533.831-.129,1.315-.845,1.94-1.323l.017-.014ZM111.05,39.5c.058.7-1.164.392-1.494.979-.533.257-1.072,1.049-1.549,1.043-.525-.1.632-.611.817-.9A4.368,4.368,0,0,1,111.05,39.5Zm-10.34,3.4a7.049,7.049,0,0,1,2.109.946c.793.28.83,1.187,1.06,1.871.022.44-.359,1.843-.758,1.543.161-.647.735-1.443.25-2.183-.064-.813-.908-1.038-1.479-1.43l-1.291-.458Zm20.4.078c1.472.06,2.955.125,4.418.265.162.173-.294.183-.227.274a44.24,44.24,0,0,0-5.685-.16c-.888-.114-1.664.564-2.563.373-.479.093-1.583-.163-.828-.362a4.725,4.725,0,0,0,2.542-.262C119.528,42.96,120.334,43.053,121.109,42.971ZM118.846,44.2a30.052,30.052,0,0,0,4.583.333,28.416,28.416,0,0,1,2.97.111c-.144.645-1.5.023-2.074.216a33.358,33.358,0,0,1-5.1-.3C118.894,44.572,118.793,44.521,118.846,44.2Zm1.647,1.7a2.633,2.633,0,0,0,2.421.623c1.059-.069,2.144.218,3.171-.176.893-.083-.065.5-.533.444-1.038.218-2.1-.07-3.147.061-.838.3-1.524-.409-2.125-.566a2.424,2.424,0,0,1-1.452.285h-2.19c-.148-.486.413-.264.7-.312.73-.005,1.462.011,2.19-.007A5.525,5.525,0,0,1,120.493,45.905ZM90.658,46.9c.761.314-.618,1.067-.393,1.562.034.519.095.889.339.171.111-.336.215-.674.335-1.007a1.455,1.455,0,0,0,1.3.8c.249.428.369,1.4.632.5a6.224,6.224,0,0,1,.773-1.376c.563.322-.078,1.466.085,2.053-.046.923.151,1.848.02,2.774.081.551-.463,1.955.517,1.286.338-.161.382-.638.59-.94a14.491,14.491,0,0,0,.481-2.379c.727-.187.067,2.021.769,1.32.2-.746-.349-1.376-.41-2.2V47.989c.487-.148.265.413.312.705a3.469,3.469,0,0,0,.281,1.714c.8.433.673-1.058,1.311-1.358.695-.277.3-1.726,1.007-1.568a3.563,3.563,0,0,1-1.178,2.239c-.253.426-.37,1.453-1.093,1.038.524.538-.071,1.666-.718,1.475-.143-.478-.155-1.037-.231-.22a5.666,5.666,0,0,1-.745,1.836c-.589.323-1.649.678-1.261-.418a19.2,19.2,0,0,0,.013-3.523c-.014-.385.2-1.6,0-1.359-.271.548-.53,1.106-.8,1.655-.336-.5-.2-1.687-1-1.567-.44-.087-.6-.613-.7.1-.2.211-.438,1.39-.789.859-.085-.649-.031-1.656-.772-.867-.136-.527-.265-1.056-.4-1.584.436-.265.359.333.475.606-.025.9.934.023,1.047-.442Q90.557,47.1,90.658,46.9ZM102.9,50.853c.832,1.686,1.714,3.352,2.607,5.01a16.568,16.568,0,0,1,1.268,3.593c-.191.6,1.227,1.417.534,1.573a3.869,3.869,0,0,1-1.053-2.419,24.582,24.582,0,0,0-2.019-4.469c-.576-1.025-1.065-2.09-1.6-3.132Zm-1.7,1.842c.8.091-.723.918.266,1.011.512.084.38.809.844.93,1.169.067-.126,1.729,1.075,1.485.576.453-.03,1.628.874,1.927.751.361.538,1.251.889,1.868.084.473.354.4.681.169.242-.161.728-.412.637.032l-1.271.631a5.772,5.772,0,0,1-.71-2.068c-.661-.5-1.26-1.05-1.157-1.959.158-.7-1.17.013-.82-.865.46-.891-.569-.776-.782-1.375-.058-.6-.959-.5-1.01-1.029C100.858,53.191,101.045,52.955,101.194,52.7ZM96.426,61.3c-.131.389-1.38,1.554-.456.818.477-.289.545-.1.459-.742l0-.054Zm-.188,2.771c.9.154-1.122,1.022-.687,1.044.265-.192.831-.168.537.166l-1.317.405c-.327-.7,1.111-1.05,1.452-1.6Zm.094,2.989c.741.023-.406.772-.617,1.092-.808.658.962-.651.82,0-.339.237-1.568,1.011-1.993.583C95.074,68.131,95.836,67.736,96.332,67.062Zm-4.448,2.677c-.041.57-.15,1.287.4.578C92.893,69.942,92.218,69.959,91.884,69.739Zm-.266,6.906c-.013.536-.215,1.388.492.718.524-.228.916-.639.073-.632C92,76.7,91.806,76.674,91.618,76.645ZM91.486,82.5c.471.287,1.673.359,1.643.9-.337-.053-1.584-.34-1.643-.746ZM89.34,102.219c-1.844.05-3.693-.009-5.533.054a9.323,9.323,0,0,0-2.337,1.574c-.47.661.791,1.228,1.439,1.08.327.217,1.494-.208,1.3.4-.306.886-1.3,1.042-1.959,1.577-.406.842.557,1.888,1.28,1.085.428-.408.8-.454,1.1.048.5.393-.352,1.452.747,1.395a17.322,17.322,0,0,0,2.033-1.472c.448-.572,1.172-1.208,1.456-.128a2.922,2.922,0,0,0,2.266.371,2.875,2.875,0,0,0,2.58-1.071c.9-.431,1.761.449,2.216,1.154.609.4,1.623.453,1.313-.56-.239-.662-.032-1.363.764-.936.873.167,1.55.827,2.387,1.058-.051-.636-.059-1.834.824-1.02a7.515,7.515,0,0,0,2.422,1.3,4.829,4.829,0,0,1,.055-1.139c.579-.595,1.737,1.15,1.483-.18.12-.456-.505-1.465.132-1.4a12.937,12.937,0,0,0,2.747.8,8.889,8.889,0,0,0-2.676-2.294,7.185,7.185,0,0,0-2.875-.662c-1.077-.1-2.18-.053-3.243-.211-.455-.331-.38-.036-.3.061-.636.911-1.771.735-2.732.907a15.306,15.306,0,0,0-3.972.74c-.879.114-1.657-.661-2.293-1.2A8.9,8.9,0,0,1,89.34,102.219Z" style="fill:#fff"/></g></g></g></svg>