<svg xmlns="http://www.w3.org/2000/svg" viewBox="0 0 198.766 119.26"><g id="Layer_2" data-name="Layer 2"><g id="Tennessee"><g id="Tennessee-2" data-name="Tennessee"><rect width="183.859" height="119.26" style="fill:#c00"/><rect x="183.859" width="2.485" height="119.26" style="fill:#fff"/><rect x="186.343" width="12.423" height="119.26" style="fill:#002d65"/><circle cx="91.929" cy="59.63" r="32.299" style="fill:#fff"/><circle cx="91.929" cy="59.63" r="29.815" transform="translate(-15.239 82.469) rotate(-45)" style="fill:#002d65"/><g id="c"><path id="t" d="M91.545,60.811,83.27,72.2l5.7,4.138" style="fill:#fff"/><path id="t-2" data-name="t" d="M91.545,60.811v14.08H84.506" style="fill:#fff"/></g><g id="c-2" data-name="c"><path id="t-3" data-name="t" d="M101.274,74.2l-13.39-4.351-2.176,6.7" style="fill:#fff"/><path id="t-4" data-name="t" d="M101.274,74.2l-13.39,4.35-2.176-6.7" style="fill:#fff"/></g><g id="c-3" data-name="c"><path id="t-5" data-name="t" d="M91.545,87.592V73.513H84.506" style="fill:#fff"/><path id="t-6" data-name="t" d="M91.545,87.592,83.27,76.2l5.7-4.137" style="fill:#fff"/></g><g id="c-4" data-name="c"><path id="t-7" data-name="t" d="M75.8,82.477,89.2,78.126l-2.176-6.7" style="fill:#fff"/><path id="t-8" data-name="t" d="M75.8,82.477l8.276-11.39,5.7,4.138" style="fill:#fff"/></g><g id="star"><g id="c-5" data-name="c"><path id="t-9" data-name="t" d="M75.8,65.926l8.276,11.39,5.7-4.137" style="fill:#fff"/><path id="t-10" data-name="t" d="M75.8,65.926,89.2,70.277l-2.176,6.695" style="fill:#fff"/></g></g><g id="c-6" data-name="c"><path id="t-11" data-name="t" d="M91.1,58.707,85.372,45.845,78.94,48.708" style="fill:#fff"/><path id="t-12" data-name="t" d="M91.1,58.707l-12.193-7.04,3.52-6.1" style="fill:#fff"/></g><g id="c-7" data-name="c"><path id="t-13" data-name="t" d="M74.638,60.437,85.1,51.016,80.39,45.784" style="fill:#fff"/><path id="t-14" data-name="t" d="M74.638,60.437l2.927-13.772,6.886,1.464" style="fill:#fff"/></g><g id="c-8" data-name="c"><path id="t-15" data-name="t" d="M67.906,45.317,80.1,52.356l3.519-6.1" style="fill:#fff"/><path id="t-16" data-name="t" d="M67.906,45.317l14-1.472.736,7" style="fill:#fff"/></g><g id="c-9" data-name="c"><path id="t-17" data-name="t" d="M80.206,34.242,77.278,48.013l6.886,1.464" style="fill:#fff"/><path id="t-18" data-name="t" d="M80.206,34.242,85.932,47.1,79.5,49.967" style="fill:#fff"/></g><g id="star-2" data-name="star"><g id="c-10" data-name="c"><path id="t-19" data-name="t" d="M94.539,42.517l-14,1.472.736,7" style="fill:#fff"/><path id="t-20" data-name="t" d="M94.539,42.517,84.076,51.938l-4.71-5.231" style="fill:#fff"/></g></g><g id="c-11" data-name="c"><path id="t-21" data-name="t" d="M93.144,59.372l14,1.471.735-7" style="fill:#fff"/><path id="t-22" data-name="t" d="M93.144,59.372l12.193-7.04,3.52,6.1" style="fill:#fff"/></g><g id="c-12" data-name="c"><path id="t-23" data-name="t" d="M99.876,44.251,102.8,58.023l6.886-1.464" style="fill:#fff"/><path id="t-24" data-name="t" d="M99.876,44.251l10.463,9.421-4.71,5.232" style="fill:#fff"/></g><g id="c-13" data-name="c"><path id="t-25" data-name="t" d="M116.337,45.981l-12.193,7.04,3.52,6.1" style="fill:#fff"/><path id="t-26" data-name="t" d="M116.337,45.981,110.61,58.844l-6.431-2.864" style="fill:#fff"/></g><g id="c-14" data-name="c"><path id="t-27" data-name="t" d="M119.778,62.171,109.315,52.75l-4.71,5.232" style="fill:#fff"/><path id="t-28" data-name="t" d="M119.778,62.171l-14-1.472.736-7" style="fill:#fff"/></g><g id="star-3" data-name="star"><g id="c-15" data-name="c"><path id="t-29" data-name="t" d="M105.444,70.447l5.727-12.862-6.431-2.864" style="fill:#fff"/><path id="t-30" data-name="t" d="M105.444,70.447l-2.927-13.772,6.886-1.464" style="fill:#fff"/></g></g></g></g></g></svg>