<svg xmlns="http://www.w3.org/2000/svg" viewBox="0 0 172.698 115"><g id="Layer_2" data-name="Layer 2"><g id="Texas"><g id="Texas-2" data-name="Texas"><rect width="172.698" height="115" style="fill:#fff"/><rect y="57.5" width="172.698" height="57.5" style="fill:#bf0a30"/><rect width="57.566" height="115" style="fill:#002868"/><g id="c"><path id="t" d="M28.783,35.938,22.112,56.445l10.265,3.331" style="fill:#fff"/><path id="t-2" data-name="t" d="M28.783,35.938l6.671,20.507L25.188,59.776" style="fill:#fff"/></g><g id="c-2" data-name="c"><path id="t-3" data-name="t" d="M49.314,50.837H27.726V61.618" style="fill:#fff"/><path id="t-4" data-name="t" d="M49.314,50.837,31.849,63.511l-6.344-8.722" style="fill:#fff"/></g><g id="c-3" data-name="c"><path id="t-5" data-name="t" d="M41.472,74.944,34.8,54.437,24.535,57.769" style="fill:#fff"/><path id="t-6" data-name="t" d="M41.472,74.944,24.007,62.27l6.344-8.722" style="fill:#fff"/></g><g id="c-4" data-name="c"><path id="t-7" data-name="t" d="M16.094,74.944,33.559,62.27l-6.345-8.722" style="fill:#fff"/><path id="t-8" data-name="t" d="M16.094,74.944l6.671-20.507L33.03,57.769" style="fill:#fff"/></g><g id="c-5" data-name="c"><path id="t-9" data-name="t" d="M8.252,50.837,25.717,63.511l6.344-8.722" style="fill:#fff"/><path id="t-10" data-name="t" d="M8.252,50.837H29.84V61.618" style="fill:#fff"/></g></g></g></g></svg>