<svg xmlns="http://www.w3.org/2000/svg" xmlns:xlink="http://www.w3.org/1999/xlink" viewBox="0 0 185.638 129.947"><defs><clipPath id="clip-path"><ellipse cx="86.65" cy="55.058" rx="14.785" ry="14.84" style="fill:none"/></clipPath></defs><g id="Layer_2" data-name="Layer 2"><g id="Wyoming"><g id="Wyoming-2" data-name="Wyoming"><rect id="rect2289" width="185.638" height="129.947" style="fill:#bf0a30"/><rect id="rect2290" x="9.282" y="9.282" width="167.074" height="111.383" style="fill:#fff"/><rect id="rect2291" x="13.923" y="13.923" width="157.792" height="102.101" style="fill:#002868"/><path id="path2288" d="M62.287,74.3c-.615-3.073-2.562-5.635-3.177-5.84s-1.742-.512-1.742-.512a1.508,1.508,0,0,0,.41-1.742c-.41-1.127-2.254-4.2-2.356-5.943s.41-4,0-5.43-1.947-2.664-2.05-5.328,4.3-6.352,6.865-6.455,4.918.82,6.353.717,3.176-1.946,4.3-2.356,1.64.2,2.357-.1,6.557-5.123,12.4-5.123,10.247,2.152,11.579,2.152,3.791-.615,5.635,0,4.1,3.381,6.762,4.1,18.033,3.484,19.775,6.25a20.085,20.085,0,0,1,2.869,8.709c0,1.947-.512,7.173-.512,8.2s.512,2.357.307,3.689a3.046,3.046,0,0,1-.82,1.844s-.409-2.254-.512-3.586.82-5.02.717-7.172a20.878,20.878,0,0,0-1.024-4.816s-.615,3.074-1.127,5.021-2.05,7.479-2.05,10.656a49.922,49.922,0,0,0,.923,7.787s-2.562,4.405-2.767,6.147-.614,5.84-.512,6.353-.615-.2-.82.41a3.86,3.86,0,0,0-.1,1.434l-2.357-.2a5.186,5.186,0,0,1,.512-1.742c.41-.717,1.025-1.229.923-2.151s.1-4.919.1-4.919-1.742,2.972-2.254,4.1a20.329,20.329,0,0,0-.717,3.074c-.205.512-.615.512-.82,1.127s-.512.615-.512.615l-1.845.1s3.587-8.812,3.791-11.066-2.254-6.864-2.766-8.4-.512-2.767-1.025-3.382-2.254-1.332-2.868-1.024a36.571,36.571,0,0,0-4.714,4.406,35.16,35.16,0,0,1-2.561,2.663,36.586,36.586,0,0,0-6.25-2.766,73.665,73.665,0,0,0-7.48-.922s.41,7.889.2,9.119-1.23,1.639-1.23,2.459V87c0,.614-1.639.819-2.049,1.332s0,.922-.512,1.639-1.229.512-1.537.922-.1,2.869-.1,2.869l-4.1-.1s1.64-3.381,1.537-5.327-1.742-4.816-2.049-6.353-1.23-3.894-2.459-3.894a4.886,4.886,0,0,0-2.254.615s.307-5.123-1.435-7.275-5.942-1.946-7.274-1.639S67.1,72.043,66.59,72.248s-.922,0-1.742.308A10.324,10.324,0,0,0,62.287,74.3Z" style="fill:#fff"/><path d="M105.017,55.088A18.454,18.454,0,1,1,86.563,36.66a18.447,18.447,0,0,1,18.454,18.428Z" style="fill:#fff;stroke:#002868;stroke-width:0.185638px"/><path id="text1951" d="M91.341,37.86a1.135,1.135,0,0,1,.46.3.779.779,0,0,1,.168.7l-.276-.1a.531.531,0,0,0-.088-.4.774.774,0,0,0-.362-.251.671.671,0,0,0-.56.038.982.982,0,0,0-.429.567,1.1,1.1,0,0,0-.059.657.634.634,0,0,0,.441.423.646.646,0,0,0,.9-.447l-.644-.236.085-.232.9.332-.4,1.1-.179-.066.03-.289a1.16,1.16,0,0,1-.33.124,1.009,1.009,0,0,1-.5-.068.968.968,0,0,1-.542-.468,1.193,1.193,0,0,1,.012-.92,1.249,1.249,0,0,1,.582-.72.949.949,0,0,1,.8-.038Z" style="fill:#002868"/><polygon id="path2004" points="76.866 40.303 77.174 40.136 78.995 41.167 78.147 39.607 78.395 39.472 79.441 41.398 79.149 41.557 77.315 40.535 78.162 42.094 77.913 42.229 76.866 40.303" style="fill:#002868"/><polygon id="path2002" points="75.227 41.579 75.449 41.377 76.923 43 76.7 43.202 75.227 41.579" style="fill:#002868"/><path id="path2000" d="M72.241,44.589l.261-.336,1.849.642-1.078-1.632.258-.332,1.73,1.347-.173.222-1.021-.8c-.035-.027-.093-.073-.174-.139s-.167-.134-.26-.206l1.074,1.629-.18.232-1.846-.639.053.041.2.149c.089.065.153.113.194.145l1.021.794-.175.224-1.729-1.346Z" style="fill:#002868"/><path id="path1999" d="M70.83,46.847a1,1,0,0,1,.689-.634,1.2,1.2,0,0,1,.769.1,1.308,1.308,0,0,1,.645.558,1.106,1.106,0,0,1-.616,1.509,1.262,1.262,0,0,1-.849-.093,1.313,1.313,0,0,1-.607-.51.96.96,0,0,1-.031-.932m1.887.8a.616.616,0,0,0-.027-.632,1.205,1.205,0,0,0-.521-.423.922.922,0,0,0-.651-.066.685.685,0,0,0-.439.409.717.717,0,0,0-.011.6.983.983,0,0,0,.542.475,1,1,0,0,0,.636.081.7.7,0,0,0,.471-.446Z" style="fill:#002868"/><polygon id="path1996" points="69.563 50.83 69.643 50.493 70.813 50.123 69.933 49.268 70.014 48.929 71.096 50.037 71.956 50.241 71.887 50.53 71.027 50.326 69.563 50.83" style="fill:#002868"/><polygon id="path1994" points="68.94 54.47 70.741 54.143 68.984 53.562 68.999 53.24 70.804 52.831 69.043 52.332 69.059 52.007 71.22 52.689 71.205 53 69.365 53.418 71.156 54.014 71.141 54.325 68.924 54.791 68.94 54.47" style="fill:#002868"/><polygon id="path1993" points="69.76 60.337 69.328 58.879 69.586 58.803 69.933 59.976 70.571 59.787 70.266 58.755 70.516 58.681 70.821 59.712 71.777 59.429 71.861 59.714 69.76 60.337" style="fill:#002868"/><path id="path1992" d="M70.741,62.878a1,1,0,0,1-.227-.909,1.212,1.212,0,0,1,.458-.626,1.3,1.3,0,0,1,.8-.3.986.986,0,0,1,.81.429,1,1,0,0,1,.219.835,1.262,1.262,0,0,1-.49.7,1.294,1.294,0,0,1-.738.288.957.957,0,0,1-.832-.419m1.609-1.271a.62.62,0,0,0-.568-.279,1.2,1.2,0,0,0-.621.254.921.921,0,0,0-.37.54.684.684,0,0,0,.149.581.716.716,0,0,0,.523.3.978.978,0,0,0,.677-.248,1.009,1.009,0,0,0,.376-.519.7.7,0,0,0-.166-.627Z" style="fill:#002868"/><polygon id="path1989" points="74.269 67.7 73.22 66.495 73.423 66.318 74.282 67.305 74.784 66.868 73.989 65.956 74.181 65.789 74.975 66.702 75.536 66.214 74.662 65.21 74.86 65.039 75.923 66.261 74.269 67.7" style="fill:#002868"/><polygon id="path1987" points="75.199 68.631 75.345 68.415 75.956 68.83 77.042 67.234 77.291 67.404 76.205 69 76.816 69.415 76.669 69.631 75.199 68.631" style="fill:#002868"/><path id="path1986" d="M78.386,69.233l-.173,1.01.775-.68-.6-.33m-.193,1.37-.3-.162.354-2.3.286.156-.12.682.76.416.523-.462.267.146L78.193,70.6Z" style="fill:#002868"/><polygon id="path1983" points="79.885 71.493 79.97 71.246 80.669 71.484 81.291 69.656 81.576 69.753 80.954 71.581 81.653 71.819 81.57 72.066 79.885 71.493" style="fill:#002868"/><path id="path1982" d="M83.862,71.071a.6.6,0,0,0-.039-.313.585.585,0,0,0-.48-.3.91.91,0,0,0-.308,0,.338.338,0,0,0-.315.285.288.288,0,0,0,.07.27,1.136,1.136,0,0,0,.331.184l.282.113a1.336,1.336,0,0,1,.384.208.457.457,0,0,1,.141.438.631.631,0,0,1-.278.447.82.82,0,0,1-.6.095,1,1,0,0,1-.551-.257.6.6,0,0,1-.154-.563l.275.044a.537.537,0,0,0,.052.282.554.554,0,0,0,.428.242.529.529,0,0,0,.39-.049.346.346,0,0,0,.154-.235.251.251,0,0,0-.095-.254,1.963,1.963,0,0,0-.375-.181l-.292-.118a.937.937,0,0,1-.317-.191.517.517,0,0,1-.136-.473.556.556,0,0,1,.344-.473,1.186,1.186,0,0,1,.632-.057.919.919,0,0,1,.6.307.7.7,0,0,1,.135.591l-.275-.044Z" style="fill:#002868"/><polygon id="path1980" points="90.132 72.413 88.559 72.695 88.511 72.431 89.8 72.2 89.682 71.544 88.491 71.758 88.446 71.509 89.638 71.295 89.506 70.564 88.196 70.798 88.15 70.541 89.745 70.256 90.132 72.413" style="fill:#002868"/><polygon id="path1978" points="93.645 71.354 93.36 71.449 93.076 70.588 91.994 70.946 92.278 71.806 91.993 71.9 91.305 69.819 91.59 69.725 91.912 70.699 92.994 70.341 92.672 69.368 92.957 69.274 93.645 71.354" style="fill:#002868"/><polygon id="path1977" points="95.191 70.563 95.052 70.342 95.678 69.949 94.65 68.314 94.905 68.154 95.933 69.789 96.558 69.395 96.697 69.617 95.191 70.563" style="fill:#002868"/><polygon id="path1976" points="100.438 66.228 99.43 67.366 99.229 67.189 100.04 66.272 99.542 65.832 98.829 66.637 98.634 66.464 99.346 65.658 98.601 64.998 98.798 64.775 100.438 66.228" style="fill:#002868"/><path id="path1975" d="M101.88,64.532a1.008,1.008,0,0,1-.849.4,1.205,1.205,0,0,1-.7-.331,1.3,1.3,0,0,1-.446-.727,1.108,1.108,0,0,1,1.045-1.252,1.263,1.263,0,0,1,.781.347,1.3,1.3,0,0,1,.423.67.958.958,0,0,1-.252.9M100.325,63.2a.616.616,0,0,0-.166.61,1.2,1.2,0,0,0,.368.561.921.921,0,0,0,.6.261.687.687,0,0,0,.542-.257.717.717,0,0,0,.193-.571.978.978,0,0,0-.373-.617,1.006,1.006,0,0,0-.582-.27.7.7,0,0,0-.583.283Z" style="fill:#002868"/><polygon id="path1972" points="103.992 58.709 103.913 58.995 102.052 58.48 101.755 59.549 101.504 59.48 101.879 58.124 103.992 58.709" style="fill:#002868"/><path id="path1971" d="M103.013,56.7l1-.213-.919-.468-.083.681m1.344-.328-.041.334-2.272.524.039-.323.679-.141.105-.861-.623-.315.037-.3,2.076,1.084Z" style="fill:#002868"/><polygon id="path1968" points="104.153 52.755 104.272 54.348 104.004 54.368 103.907 53.064 103.244 53.113 103.333 54.32 103.08 54.339 102.99 53.132 102.249 53.187 102.348 54.515 102.088 54.534 101.968 52.918 104.153 52.755" style="fill:#002868"/><path id="path1966" d="M102.068,50.1a.6.6,0,0,0-.254.186.583.583,0,0,0-.028.564.945.945,0,0,0,.148.27.34.34,0,0,0,.4.137.285.285,0,0,0,.2-.193,1.106,1.106,0,0,0,0-.377l-.037-.3a1.314,1.314,0,0,1,0-.436.457.457,0,0,1,.314-.336.633.633,0,0,1,.526.027.82.82,0,0,1,.375.48,1,1,0,0,1,.042.607.6.6,0,0,1-.417.408l-.095-.262a.549.549,0,0,0,.221-.182.557.557,0,0,0,0-.492.531.531,0,0,0-.233-.317.345.345,0,0,0-.28-.021.249.249,0,0,0-.176.206,2,2,0,0,0,.023.416l.039.312a.929.929,0,0,1-.014.37.522.522,0,0,1-.348.349.557.557,0,0,1-.58-.073,1.187,1.187,0,0,1-.357-.525.916.916,0,0,1-.021-.673.7.7,0,0,1,.452-.4l.094.262Z" style="fill:#002868"/><polygon id="path1964" points="101.93 46.257 101.707 46.393 101.324 45.761 99.673 46.761 99.517 46.503 101.168 45.503 100.786 44.871 101.009 44.736 101.93 46.257" style="fill:#002868"/><path id="path1963" d="M98.851,44.322l.541-.869-.974.337.433.532m.7-1.194.211.26-1.2,2-.206-.252.37-.587-.547-.673-.659.23-.193-.236,2.222-.742Z" style="fill:#002868"/><polygon id="path1960" points="96.542 40.449 97.811 41.421 97.648 41.634 96.609 40.838 96.204 41.366 97.165 42.102 97.011 42.303 96.05 41.568 95.598 42.158 96.655 42.967 96.496 43.174 95.21 42.189 96.542 40.449" style="fill:#002868"/><path id="path1956" d="M80.978,38.22a1.122,1.122,0,0,1,.547-.014.779.779,0,0,1,.534.486l-.285.071a.532.532,0,0,0-.3-.284.757.757,0,0,0-.439,0,.668.668,0,0,0-.442.346.986.986,0,0,0-.036.711,1.091,1.091,0,0,0,.322.576.635.635,0,0,0,.6.1.708.708,0,0,0,.434-.286.718.718,0,0,0,.058-.59l-.665.167-.06-.238.933-.235.286,1.138-.186.046-.138-.256a1.1,1.1,0,0,1-.2.288,1,1,0,0,1-.455.228.971.971,0,0,1-.711-.081,1.2,1.2,0,0,1-.508-.768,1.242,1.242,0,0,1,.076-.922.947.947,0,0,1,.637-.48Z" style="fill:#002868"/><path id="path2005" d="M94.057,40.191a.569.569,0,0,0,.331.079.341.341,0,0,0,.248-.21.323.323,0,0,0,0-.362.559.559,0,0,0-.194-.153l-.643-.336-.347.664.608.318m-.406-1.345.9.47a1,1,0,0,1,.332.256.516.516,0,0,1,.034.6.54.54,0,0,1-.516.321.456.456,0,0,1,.107.211.5.5,0,0,1-.063.278l-.128.266a.852.852,0,0,0-.067.175.182.182,0,0,0,.022.163l-.023.044-.323-.169a.3.3,0,0,1,.013-.076,1.489,1.489,0,0,1,.067-.16l.154-.333a.309.309,0,0,0-.008-.329.666.666,0,0,0-.218-.159l-.6-.314-.436.833-.263-.137,1.016-1.942Z" style="fill:#002868"/><g style="clip-path:url(#clip-path)"><path id="path1627" d="M74.522,64.087l24.568.037-2.62,3.858s-9.937,3.64-10.374,3.567-10.446-3.64-10.446-3.64l-1.128-3.822Z" style="fill:#fff;stroke:#002868;stroke-width:0.092819px"/><polygon id="path1634" points="83.803 60.084 83.803 65.58 84.349 65.435 84.349 60.011 83.803 60.084" style="fill:#fff;stroke:#002868;stroke-width:0.092819px"/><polygon id="path1635" points="88.753 60.011 88.862 65.58 89.408 65.58 89.335 60.011 88.753 60.011" style="fill:#fff;stroke:#002868;stroke-width:0.092819px"/><polygon id="path1630" points="83.294 65.471 83.33 66.417 89.772 66.417 89.736 65.471 83.294 65.471" style="fill:#fff;stroke:#002868;stroke-width:0.092819px"/><polygon id="path1629" points="82.966 66.017 82.966 66.89 90.027 66.927 89.991 66.017 82.966 66.017" style="fill:#fff;stroke:#002868;stroke-width:0.092819px"/><polygon id="path1653" points="91.729 68.407 91.729 69.977 90.54 69.871 90.555 67.995 91.729 68.407" style="fill:#fff;stroke:#002868;stroke-width:0.092819px"/><polygon id="path1652" points="82.399 68.117 82.353 69.779 81.301 69.23 81.423 68.209 82.399 68.117" style="fill:#fff;stroke:#002868;stroke-width:0.092819px"/><path id="path1651" d="M81.347,68.819c-.061-.808.244-1.22.488-1.22s8.8-.03,9.284,0a.7.7,0,0,1,.61.762v.869s-.049-.47-1.056-.531-.392.211-4.219.181a23.059,23.059,0,0,1-4.314-.226c-.58-.046-.732.012-.793.165Z" style="fill:#fff;stroke:#002868;stroke-width:0.092819px"/><polygon id="path1628" points="76.487 66.599 96.615 66.709 96.288 67.473 77.397 67.509 76.487 66.599" style="fill:#fff;stroke:#002868;stroke-width:0.092819px"/><polygon id="path1633" points="83.803 59.247 83.766 59.829 89.227 59.829 89.227 59.283 83.803 59.247" style="fill:#fff;stroke:#002868;stroke-width:0.092819px"/><path id="path1638" d="M87.188,62.232c-.073-.4-.255-2.184-.873-2.221a.78.78,0,0,0-.8.474s.873.109.8.473a3.764,3.764,0,0,1-.619,1.383c-.182.109,1.165-.073,1.492-.109Z" style="fill:#fff;stroke:#002868;stroke-width:0.092819px"/><polygon id="path1639" points="85.951 62.049 85.805 64.524 87.552 64.561 87.479 62.159 85.951 62.049" style="fill:#fff;stroke:#002868;stroke-width:0.092819px"/><path id="path1637" d="M84.349,63.931a13.963,13.963,0,0,1,.073-1.955c.073-.436.327-.728.764-.691s1.2.837,1.2.837,1.165-1.056,1.6-1.019a1.047,1.047,0,0,1,.8.907c.012.317.038,1.939.038,1.939a7.219,7.219,0,0,0-1.206-1.135c-.255-.073-.764-.146-.764-.146l-.07,1.98-.4-.015s-.036-.946-.072-1.31a2.587,2.587,0,0,0-.182-.692,3.84,3.84,0,0,0-.874.583c-.263.24-.91.717-.91.717Z" style="fill:#fff;stroke:#002868;stroke-width:0.092819px"/><g id="g1712"><path id="path1640" d="M84.385,64.073l4.368.014v1.82c-.034,1.6-2.206,3.86-2.206,3.86s-2.2-2.076-2.2-3.932C84.313,63.978,84.385,64.073,84.385,64.073Z" style="fill:#fff;stroke:#002868;stroke-width:0.092819px"/><polygon id="path1641" points="84.998 66.182 84.999 67.821 85.309 68.304 85.308 66.182 84.998 66.182" style="fill:#002868"/><polygon id="path1642" points="85.679 66.182 85.685 68.809 85.988 69.175 85.988 66.182 85.679 66.182" style="fill:#002868"/><polygon id="path1643" points="86.359 66.182 86.36 69.584 86.546 69.767 86.73 69.564 86.73 66.182 86.359 66.182" style="fill:#002868"/><polygon id="path1644" points="87.101 66.182 87.104 69.131 87.411 68.743 87.41 66.182 87.101 66.182" style="fill:#002868"/><polygon id="path1645" points="87.781 66.182 87.785 68.226 88.09 67.751 88.091 66.182 87.781 66.182" style="fill:#002868"/><polygon id="path1646" points="84.38 66.182 84.69 66.182 84.69 67.16 84.38 66.182" style="fill:#002868"/><polygon id="path1647" points="88.402 66.182 88.404 67.167 88.735 66.182 88.402 66.182" style="fill:#002868"/><polygon id="path1649" points="84.349 64.04 88.753 64.087 88.753 65.82 84.349 65.835 84.349 64.04" style="fill:#fff;stroke:#002868;stroke-width:0.092819px"/></g><path id="_132303184" data-name=" 132303184" d="M86.553,64.241l.183.562h.591l-.478.347.182.562-.478-.347-.478.347.183-.562L85.78,64.8h.591l.182-.562Z" style="fill:#002868"/><path id="path1825" d="M80.425,42.673c0-.844.728-.612,1.426-.932a7.864,7.864,0,0,0,1.31-.786l.029,2.183H80.512l-.087-.465Z" style="fill:#fff;stroke:#002868;stroke-width:0.092819px"/><path id="path1826" d="M91.98,44.768c-.728.437-.9.03-1.368-.407s-1.863-1.455-1.863-1.455l3.726.611-.495,1.251Z" style="fill:#fff;stroke:#002868;stroke-width:0.092819px"/><path id="path1824" d="M80.429,42.544a2.055,2.055,0,0,0,.4,1.846,1.032,1.032,0,0,0,1.106.2c.32-.059,4.22-1.63,5.414-1.63s2.823.058,3.725.9c.406.38.815.669.757.9s1.455-.815,1.426-1.484-2.124-2.008-4.366-2.329S83.661,42.44,81.5,42.614c-.775.074-1.073.188-1.072-.07Z" style="fill:#fff;stroke:#002868;stroke-linejoin:bevel;stroke-width:0.092819px"/><g id="use1823"><path id="path2293" d="M90.894,62.7a6.6,6.6,0,0,1-.86-.817c-.172-.258-.644-1.074-.644-1.074l1.2-1.246a7.129,7.129,0,0,1,.9,1.332,17.66,17.66,0,0,1-.6,1.8Z" style="fill:#fff;stroke:#002868;stroke-width:0.092819px"/><path id="path2294" d="M91.066,56.641a12.889,12.889,0,0,1-1.633-1.547,6.875,6.875,0,0,1-.172-1.375l.731-.172a4.624,4.624,0,0,0,.687.473,2.741,2.741,0,0,0,.945.257l-.558,2.364Z" style="fill:#fff;stroke:#002868;stroke-width:0.092819px"/><path id="path2295" d="M92.107,45.859s-.02-.493-.03-.72-.325-.512-.325-.512-.374.364-.394.5-.03.818-.03.818l.779-.089Z" style="fill:#fff;stroke:#002868;stroke-width:0.092819px"/><polygon id="path2296" points="92.689 63.229 92.421 48.76 90.867 48.814 90.652 63.337 92.689 63.229" style="fill:#fff;stroke:#002868;stroke-width:0.092819px"/><path id="path2297" d="M91.174,63.368l.137-15.077" style="fill:none;stroke:#002868;stroke-width:0.092819px"/><path id="path2298" d="M90.9,63.368l.028-15.077" style="fill:none;stroke:#002868;stroke-width:0.092819px"/><path id="path2299" d="M92,63.451l.11-15.215" style="fill:none;stroke:#002868;stroke-width:0.092819px"/><path id="path2300" d="M91.586,63.423c-.027-.137.11-15.214.11-15.214" style="fill:none;stroke:#002868;stroke-width:0.092819px"/><path id="path2301" d="M92.465,63.478l.027-15.27" style="fill:none;stroke:#002868;stroke-width:0.092819px"/><polygon id="path2302" points="93.011 64.301 93.011 63.39 92.743 63.176 90.813 63.176 90.331 63.444 90.438 64.408 93.011 64.301" style="fill:#fff;stroke:#002868;stroke-width:0.092819px"/><polygon id="path2303" points="92.63 46.628 92.344 46.175 92.916 45.672 90.598 45.632 91.101 46.175 90.875 46.618 92.63 46.628" style="fill:#fff;stroke:#002868;stroke-width:0.092819px"/><path id="path2304" d="M92.438,48.058l-.429-.444a7.75,7.75,0,0,1,1.065-.887c.128,0,.206.207.344.2s.217-.069.217-.217-.138-.217-.345-.207l-3.036-.039c-.217.009-.286.138-.276.246a.28.28,0,0,0,.285.207c.129-.01.168-.217.306-.207s.73.828.73.887l-.493.474,1.632-.01Z" style="fill:#fff;stroke:#002868;stroke-width:0.092819px"/><path id="path2305" d="M92.791,48.522a1.863,1.863,0,0,1,.681,1.5c0,.773-1.056,1.948-1.843,2.656s-2.2,1.227-2.2,1.857c0,.612.121.69.273.886a2.061,2.061,0,0,1-.786-1.618,3.645,3.645,0,0,1,1.848-2.75c.988-.6,2.191-1.418,2.191-1.848a1.24,1.24,0,0,0-.165-.685Z" style="fill:#fff;stroke:#002868;stroke-width:0.092819px"/><path id="path2306" d="M92.583,55.006c.015.423,0,.775.03,1.119.037.406-1.246,1.246-1.762,1.762s-1.8,1.074-1.891,1.847.677,1.494.855,1.788c-.195-.41.249-.885.759-1.3a17.255,17.255,0,0,0,1.91-1.434A3.577,3.577,0,0,0,93.515,56.6a1.755,1.755,0,0,0-.932-1.592Z" style="fill:#fff;stroke:#002868;stroke-width:0.092819px"/><polygon id="path2307" points="92.96 48.398 92.418 48.797 90.845 48.847 90.323 48.413 90.845 48.058 92.438 48.058 92.96 48.398" style="fill:#fff;stroke:#002868;stroke-width:0.092819px"/></g><g id="g1930"><path id="path1927" d="M85.37,44.539c-1.11.178-1.377,1.6-1.377,1.6s.489.089.489.533.044.977.044.977l.977-1.066-.133-2.043Z" style="fill:#fff;stroke:#002868;stroke-width:0.092819px"/><path id="path1928" d="M84.082,46.094a2.726,2.726,0,0,0-.578.888s-.532-1.2-.4-1.466.488-.577.444-.844-.267-.31-.533-.266-.267,1.555-.267,1.954a2.741,2.741,0,0,0,.311,1.377c.222.267.4.666.622.711s.844-.889.844-.889a3.261,3.261,0,0,0-.044-1.11A1.106,1.106,0,0,0,84.082,46.094Z" style="fill:#fff;stroke:#002868;stroke-width:0.092819px"/><path id="path1926" d="M88.212,44.939a2.2,2.2,0,0,1,1.244,2.4,2.691,2.691,0,0,0,0,.666,9.247,9.247,0,0,1,.888,1.022c.267.4,1.022,1.554,1.022,1.554l-.267.267a11.332,11.332,0,0,1-1.554-1.332c-.444-.534-2.4-3.731-2.4-3.731l1.066-.844Z" style="fill:#fff;stroke:#002868;stroke-width:0.092819px"/><path id="path1929" d="M84.526,59.684,83.416,44.04" style="fill:none;stroke:#002868;stroke-width:0.092819px"/><path id="path1905" d="M88.377,59.43l-3.845,0c0-.106.523-13,.523-13.708s-.106-1.256.045-1.422a3.794,3.794,0,0,1,1.8,0c.3.121,1.225.408,1.3.575a14.563,14.563,0,0,1-.182,1.513c0,.347.394,1.286.363,1.77s.4,5.469.4,5.8c0,.411-.337-.21-.489-.014-.183.236.532,5.288.088,5.488Z" style="fill:#fff;stroke:#002868;stroke-width:0.092819px"/><g id="g1911"><path id="path1904" d="M86.159,43.146s-.045.953-.045,1.21a1.065,1.065,0,0,0,.7.741c.272.046.56-.257.529-.68s-.166-.364-.166-.863a3.913,3.913,0,0,0-.091-.862l-.923.454Z" style="fill:#fff;stroke:#002868;stroke-width:0.092819px"/><path id="path1899" d="M85.962,42.011a4.628,4.628,0,0,0-.015,1.286c.046.166.046.62.318.666s.726-.545.863-.8a2.359,2.359,0,0,0,.2-.575L86.6,41.527Z" style="fill:#fff;stroke:#002868;stroke-width:0.092819px"/><path id="path1902" d="M85.993,43.524l.408-.03" style="fill:#fff;stroke:#002868;stroke-width:0.092819px"/><path id="path1903" d="M86.416,42.6h.318" style="fill:#fff;stroke:#002868;stroke-width:0.092819px"/><path id="path1898" d="M85.887,42.026a.6.6,0,0,1,.56-.832,1.42,1.42,0,0,1,1.074,1.135c0,.378-.106.726-.2.726s-.514-1.2-.862-1.21S86.144,42.041,85.887,42.026Z" style="fill:#fff;stroke:#002868;stroke-width:0.092819px"/></g><path id="path1906" d="M86.87,46.474c-.771,1.513-1.362,2.043-1.634,2.058a4.083,4.083,0,0,1-.62-.03l.154,3.139,2.207.059" style="fill:#fff;stroke:#002868;stroke-width:0.092819px"/><path id="path1907" d="M87.536,46.52a8.418,8.418,0,0,1-3.086,4.569l.288,4.664L87.03,53.48" style="fill:#fff;stroke:#002868;stroke-width:0.092819px"/><path id="path1908" d="M87.158,48.774c-.62,4.842-2.754,4.07-2.754,4.07l.118,4.292a2.288,2.288,0,0,0,1.914-1.849,1.155,1.155,0,0,0,1.066-.266c.444-.444.045-1.91.178-2.576a11.849,11.849,0,0,0,.177-1.377" style="fill:#fff;stroke:#002868;stroke-width:0.092819px"/><path id="path1919" d="M87.68,49.114c-.178.755-.356,2.354-.356,2.354" style="fill:none;stroke:#002868;stroke-width:0.092819px"/><path id="path1920" d="M85.192,51.557C85.947,51.2,86.88,48.8,86.88,48.8" style="fill:none;stroke:#002868;stroke-width:0.092819px"/><path id="path1921" d="M87.1,53.333a3.741,3.741,0,0,0,.045,1.155" style="fill:none;stroke:#002868;stroke-width:0.092819px"/><path id="path1922" d="M87.146,56.531c.045-1.11-.089-1.244-.089-1.244" style="fill:none;stroke:#002868;stroke-width:0.092819px"/><path id="path1923" d="M87.457,45.96a3.347,3.347,0,0,0,.311-1.243" style="fill:none;stroke:#002868;stroke-width:0.092819px"/><path id="path1925" d="M88.434,53.91a5.906,5.906,0,0,1-.754-.4" style="fill:none;stroke:#002868;stroke-width:0.092819px"/></g><g id="g1775"><path id="path1773" d="M82.19,62.8a6.6,6.6,0,0,0,.86-.817c.171-.257.644-1.074.644-1.074l-1.2-1.246a7.129,7.129,0,0,0-.9,1.332,17.66,17.66,0,0,0,.6,1.8Z" style="fill:#fff;stroke:#002868;stroke-width:0.092819px"/><path id="path1774" d="M82.018,56.741a12.889,12.889,0,0,0,1.633-1.547,6.859,6.859,0,0,0,.172-1.374l-.73-.172a4.619,4.619,0,0,1-.688.472,2.728,2.728,0,0,1-.945.258l.558,2.363Z" style="fill:#fff;stroke:#002868;stroke-width:0.092819px"/><path id="path1764" d="M80.977,45.96s.02-.493.029-.72.326-.513.326-.513.374.365.394.5.03.819.03.819Z" style="fill:#fff;stroke:#002868;stroke-width:0.092819px"/><polygon id="path1760" points="80.395 63.33 80.663 48.861 82.218 48.914 82.432 63.437 80.395 63.33" style="fill:#fff;stroke:#002868;stroke-width:0.092819px"/><path id="path1765" d="M81.911,63.469l-.138-15.077" style="fill:none;stroke:#002868;stroke-width:0.092819px"/><path id="path1769" d="M82.185,63.469l-.027-15.077" style="fill:none;stroke:#002868;stroke-width:0.092819px"/><path id="path1767" d="M81.086,63.551l-.11-15.214" style="fill:none;stroke:#002868;stroke-width:0.092819px"/><path id="path1766" d="M81.5,63.524c.028-.138-.11-15.215-.11-15.215" style="fill:none;stroke:#002868;stroke-width:0.092819px"/><path id="path1768" d="M80.62,63.579l-.028-15.27" style="fill:none;stroke:#002868;stroke-width:0.092819px"/><polygon id="path1759" points="80.074 64.402 80.074 63.491 80.342 63.277 82.271 63.277 82.753 63.545 82.646 64.509 80.074 64.402" style="fill:#fff;stroke:#002868;stroke-width:0.092819px"/><polygon id="path1763" points="80.455 46.729 80.74 46.275 80.169 45.772 82.485 45.733 81.983 46.275 82.209 46.719 80.455 46.729" style="fill:#fff;stroke:#002868;stroke-width:0.092819px"/><path id="path1762" d="M80.652,48.129l.424-.414a7.812,7.812,0,0,0-1.065-.888c-.128,0-.207.208-.345.2s-.217-.069-.217-.217.138-.217.345-.207l3.037-.04c.217.01.286.138.276.247a.282.282,0,0,1-.286.207c-.128-.01-.167-.217-.306-.207s-.729.828-.729.887l.493.473-1.627-.039Z" style="fill:#fff;stroke:#002868;stroke-width:0.092819px"/><path id="path1770" d="M80.322,48.644c-.422.516-.719.754-.71,1.48,0,.774,1.056,1.948,1.843,2.657s2.2,1.227,2.2,1.857c0,.612-.121.69-.273.886a2.061,2.061,0,0,0,.786-1.618,3.644,3.644,0,0,0-1.848-2.75c-.988-.6-2.191-1.418-2.191-1.848a1.213,1.213,0,0,1,.194-.664Z" style="fill:#fff;stroke:#002868;stroke-width:0.092819px"/><path id="path1772" d="M80.5,55.107c-.015.422,0,.775-.03,1.119-.038.406,1.246,1.246,1.761,1.761s1.8,1.075,1.891,1.848-.677,1.493-.855,1.787c.2-.409-.249-.885-.758-1.3A17.381,17.381,0,0,1,80.6,58.89,3.573,3.573,0,0,1,79.569,56.7a1.755,1.755,0,0,1,.933-1.591Z" style="fill:#fff;stroke:#002868;stroke-width:0.092819px"/><polygon id="path1761" points="80.124 48.499 80.666 48.898 82.239 48.947 82.761 48.513 82.239 48.158 80.647 48.158 80.124 48.499" style="fill:#fff;stroke:#002868;stroke-width:0.092819px"/></g><g id="g1566"><polygon id="path1547" points="97.59 63.135 97.743 57.205 98.152 57.205 98.101 63.186 97.59 63.135" style="fill:#fff;stroke:#002868;stroke-width:0.092819px"/><path id="path1548" d="M98.2,54.24v1.636c0,.46-.716,1.125-.665,1.483s.511.306.665.2a4.876,4.876,0,0,0,.971-2.3c0-.818.1-2.045-.1-2.1s-.92.766-.92.766l.051.307Z" style="fill:#fff;stroke:#002868;stroke-width:0.092819px"/><path id="path1543" d="M94.88,62.113s-.1,1.942-.1,2.454a1.8,1.8,0,0,1-.409,1.38c-.358.307-.665.2-.767.409a.317.317,0,0,0,.051.358l2.3-.051s-.1-1.841-.051-2.5.511-1.687.256-1.892A2.277,2.277,0,0,0,94.88,62.113Z" style="fill:#fff;stroke:#002868;stroke-width:0.092819px"/><path id="path1544" d="M92.477,61.551s1.227.971,1.176,1.329-.614.767-.409.971S93.6,64,93.6,64l1.687-1.533-1.943-1.585-.869.665Z" style="fill:#fff;stroke:#002868;stroke-width:0.092819px"/><path id="path1546" d="M96.465,62.318a1.73,1.73,0,0,0,1.175.715c.665,0,1.534-1.84,1.534-1.84s-.307,2.505-1.482,2.454-1.227-.818-1.227-1.329Z" style="fill:#fff;stroke:#002868;stroke-width:0.092819px"/><path id="path1545" d="M96.26,56.132c.307-.256.409-1.738.409-1.738l.46-.87s.767.87,1.125.818.869-.051.869-.357.154-.767-.1-1.023-1.585-1.329-1.84-1.483a23.041,23.041,0,0,0-3.119-.46,1.832,1.832,0,0,0-1.124.972,20.45,20.45,0,0,0-.307,2.4c0,.408.043,1.03.043,1.03l.775-.519.255.716,2.556.511Z" style="fill:#fff;stroke:#002868;stroke-width:0.092819px"/><path id="path1549" d="M93.551,51.224a4.926,4.926,0,0,1,.715,2.2,2.285,2.285,0,0,1,.563-1.176c.409-.306,1.38-.357,1.38-.818s-1.073-.613-1.38-.613a2.055,2.055,0,0,0-1.278.409Z" style="fill:#fff;stroke:#002868;stroke-width:0.092819px"/><path id="path1550" d="M94.267,50.968c0,.511.2.716.46.767s.869-.256.818-.511-1.278-.256-1.278-.256Z" style="fill:#fff;stroke:#002868;stroke-width:0.092819px"/><path id="path1551" d="M94.471,50.917s0,.614.307.562.563-.664.563-.664l-.87.1Z" style="fill:#fff;stroke:#002868;stroke-width:0.092819px"/><path id="path1554" d="M94.291,48.489a3.114,3.114,0,0,1-.114.854,1.723,1.723,0,0,0-.266.531c-.019.152.171.133.171.133s-.038.7-.057.835.3.019.437.246.132.551.208.494a6.409,6.409,0,0,0,.513-.513c.151-.17.379-.038.436-.265s.114-1.936.114-1.936l-1.442-.379Z" style="fill:#fff;stroke:#002868;stroke-width:0.092819px"/><path id="path1542" d="M95.494,62.164c-.563.051-.767-.051-.818-.306s-.051-1.892-.154-2.454a2.647,2.647,0,0,0-.255-.818s-1.329.971-1.329,1.431a1.249,1.249,0,0,0,.409.818l-.818.716s-1.687-.972-1.687-1.534,1.738-2.454,2.044-2.863.41-1.585.716-1.636a7.1,7.1,0,0,1,2.5.358,3.479,3.479,0,0,1,.92,2.1c-.051.716-.306.614-.358.869s0,.46-.051.818-.306.1-.306.409a7.764,7.764,0,0,1-.051,1.892c-.154.255-.256.2-.767.2Z" style="fill:#fff;stroke:#002868;stroke-width:0.092819px"/><path id="path1552" d="M94.522,47.952c-.358.307-.562.409-.46.614s.92.255,1.022.511a1.33,1.33,0,0,1,0,.664l.409-.1v1.176s1.023-.818.921-1.636-1.125-.92-1.432-.971a.587.587,0,0,1-.46-.256Z" style="fill:#fff;stroke:#002868;stroke-width:0.092819px"/><path id="path1553" d="M92.621,55.51a10.279,10.279,0,0,1-.019,1.878c-.095.209-.266.551-.038.816s.493.38.607.171-.038-1.176.095-1.727a4.241,4.241,0,0,0,.057-1.67c-.095-.132-.664-.075-.7.532Z" style="fill:#fff;stroke:#002868;stroke-width:0.092819px"/><path id="path1555" d="M94.272,58.584a2.642,2.642,0,0,1-.266-1.215" style="fill:none;stroke:#002868;stroke-width:0.092819px"/><path id="path1556" d="M93.475,55l.019-2.03" style="fill:none;stroke:#002868;stroke-width:0.092819px"/><path id="path1557" d="M96.682,54.409a3.638,3.638,0,0,1-.4-.341c-.095-.114-.208-.285-.208-.285" style="fill:none;stroke:#002868;stroke-width:0.092819px"/><path id="path1558" d="M97.858,54.2c-.019-.967,1.215-1.157,1.215-1.157" style="fill:none;stroke:#002868;stroke-width:0.092819px"/><path id="path1559" d="M94.044,50.348l.3.019" style="fill:none;stroke:#002868;stroke-width:0.092819px"/><path id="path1560" d="M94.215,49.172l.436.379" style="fill:none;stroke:#002868;stroke-width:0.092819px"/></g><g id="g1607"><path id="path1603" d="M76.939,49.532s-.161-.6-.021-.721a4.163,4.163,0,0,1,1.3-.74c.26.02.76.76.76.76l-2.041.7Z" style="fill:#fff;stroke:#002868;stroke-width:0.092819px"/><path id="path1588" d="M77.45,51.42s-3.311,2.428-3.348,3.053S75.573,56.9,75.573,56.9l.626-.588a5.506,5.506,0,0,0-.221-.846,3.979,3.979,0,0,0-.478-.847s.073.037.441-.11a3.293,3.293,0,0,0,.626-.331,2.586,2.586,0,0,0,.073,1.14c.184.4.773,1.4.773,1.4l2.17-.147s.074-2.869.037-3.531a5.972,5.972,0,0,0-.846-1.914l-1.324.3Z" style="fill:#fff;stroke:#002868;stroke-width:0.092819px"/><path id="path1595" d="M77.965,62.383s.883.626,1.214.92a3.478,3.478,0,0,1,.442.444l.035.334-.918,0-.957-1.106.184-.589Z" style="fill:#fff;stroke:#002868;stroke-width:0.092819px"/><path id="path1592" d="M77.54,51.36c-.04.16.9.722,1.161,1.016a6.406,6.406,0,0,0,.809.7,2.223,2.223,0,0,0-.294-1.1c-.331-.625-.191-.725-.338-.762s-1.48-.056-1.338.151Z" style="fill:#fff;stroke:#002868;stroke-width:0.092819px"/><path id="path1590" d="M77.229,57.122a26.748,26.748,0,0,0-.662,4.378,16.215,16.215,0,0,0,.405,3.9l1.4-.184V62.9s2.612-2.686,2.612-3.09-1.435-2.355-1.361-2.612a1.371,1.371,0,0,0-.037-.626l-2.355.552Z" style="fill:#fff;stroke:#002868;stroke-width:0.092819px"/><path id="path1591" d="M78.406,61.279s.378-1.174.488-1.505a3.428,3.428,0,0,0,.144-.588s.435.364.4.585-.551-.074-1.03,1.508Z" style="fill:#fff;stroke:#002868;stroke-width:0.092819px"/><path id="path1605" d="M76.318,62.144a12.506,12.506,0,0,0-.12-1.422,8.469,8.469,0,0,1-.381-1.941,2.52,2.52,0,0,1,.581-1.742,2.4,2.4,0,0,1,.9-.741s.44,0,1.1-.02,1.261-.06,1.261-.06l-.02.7a6.53,6.53,0,0,1-1.381.24,6.429,6.429,0,0,1-1.121-.12,2.832,2.832,0,0,0-.881,1.722c.04.84.28,2.062.26,2.4a6.484,6.484,0,0,1-.2.981Z" style="fill:#002868"/><path id="path1593" d="M77.4,51.443a7.148,7.148,0,0,1,.017-1.237,12.823,12.823,0,0,1,.405-1.251l1.288-.037-.037,1.729-.258-.037.111.589a2.823,2.823,0,0,1-.847.258,2.794,2.794,0,0,1-.679-.014Z" style="fill:#fff;stroke:#002868;stroke-width:0.092819px"/><path id="path1586" d="M77.648,50.106c-.81.184-1.228.541-1.486.284s.294-1.03,1.472-1.509,2.281-.221,2.354,0-.515.626-.809.662a3.241,3.241,0,0,0-1.067.148,3.087,3.087,0,0,0-.464.415Z" style="fill:#fff;stroke:#002868;stroke-width:0.092819px"/><path id="path1587" d="M77.38,51.022c-.454.022-.545-.427-.335-.743a2.589,2.589,0,0,1,1.1-1.067c.479-.147.883,0,.92.258a.762.762,0,0,1,.015.464s-.679-.529-.972-.243c-.257.294-.294.846-.515,1.1-.072.108-.091.222-.217.228Z" style="fill:#fff;stroke:#002868;stroke-width:0.092819px"/><path id="path1594" d="M76.935,56.386a.79.79,0,0,1,.736-.772c.14,0,.368.7.368,1.177s-.3,1.435-.552,1.472-.184-1.251-.184-1.251h-.3Z" style="fill:#fff;stroke:#002868;stroke-width:0.092819px"/><path id="path1596" d="M77.008,65.363l-.036,1.324,2.869-.073a.413.413,0,0,0-.11-.405c-.184-.184-.993-.258-1.14-.515a1.776,1.776,0,0,1-.184-.405l-1.4.074Z" style="fill:#fff;stroke:#002868;stroke-width:0.092819px"/><path id="path1598" d="M78.26,51.414a4.2,4.2,0,0,1,1.221,1.441,1.084,1.084,0,0,1,.04.221" style="fill:none;stroke:#002868;stroke-width:0.092819px"/><path id="path1599" d="M75.377,56.679a.852.852,0,0,1,.76-.541s.7.361.681.541-.561-.02-.6.1.3.5.121.681S75.557,57.1,75.377,56.679Z" style="fill:#fff;stroke:#002868;stroke-width:0.092819px"/><path id="path1601" d="M78.866,50.9l-.226-.031" style="fill:none;stroke:#002868;stroke-width:0.092819px"/><path id="path1602" d="M78.38,62.905a9.722,9.722,0,0,1,.04-1.722" style="fill:none;stroke:#002868;stroke-width:0.092819px"/><path id="path1604" d="M78.82,50.083a.2.2,0,1,0-.2.19A.2.2,0,0,0,78.82,50.083Z" style="fill:#002868"/><path id="path1606" d="M79.041,59.181a6.489,6.489,0,0,0,.04-1.5" style="fill:none;stroke:#002868;stroke-width:0.092819px"/></g><path id="text1660" d="M90.579,67.784a.219.219,0,0,1,.208.119.522.522,0,0,1,.05.252.613.613,0,0,1-.045.251.221.221,0,0,1-.214.142.214.214,0,0,1-.2-.116.527.527,0,0,1-.055-.261.641.641,0,0,1,.033-.218.225.225,0,0,1,.222-.169m0,.679a.132.132,0,0,0,.115-.065.464.464,0,0,0,.043-.24.588.588,0,0,0-.031-.208.119.119,0,0,0-.121-.082.127.127,0,0,0-.121.078.545.545,0,0,0-.038.229.565.565,0,0,0,.025.182.133.133,0,0,0,.128.106Z" style="fill:#002868"/><path id="path1677" d="M89.84,68.348a.12.12,0,0,0,.06.107.138.138,0,0,0,.065.015.146.146,0,0,0,.114-.055.467.467,0,0,0,.067-.227.171.171,0,0,1-.078.069.229.229,0,0,1-.1.02.222.222,0,0,1-.171-.067.244.244,0,0,1-.062-.172.276.276,0,0,1,.062-.178.218.218,0,0,1,.182-.077.226.226,0,0,1,.225.146.536.536,0,0,1,.034.2.674.674,0,0,1-.041.242.237.237,0,0,1-.231.175.222.222,0,0,1-.165-.057.194.194,0,0,1-.057-.143h.094m.142-.153a.144.144,0,0,0,.148-.165.163.163,0,0,0-.042-.122.142.142,0,0,0-.1-.04.138.138,0,0,0-.109.046.186.186,0,0,0-.04.123.182.182,0,0,0,.035.116A.141.141,0,0,0,89.982,68.195Z" style="fill:#002868"/><path id="path1675" d="M89.4,68.1a.13.13,0,0,0,.1-.034.114.114,0,0,0,.035-.082A.109.109,0,0,0,89.5,67.9a.134.134,0,0,0-.1-.035.124.124,0,0,0-.1.035.122.122,0,0,0-.03.082.1.1,0,0,0,.039.082.145.145,0,0,0,.092.029m0,.368a.166.166,0,0,0,.108-.034.128.128,0,0,0,.043-.105.138.138,0,0,0-.044-.11.169.169,0,0,0-.113-.037.162.162,0,0,0-.11.038.137.137,0,0,0-.042.106.149.149,0,0,0,.038.1.156.156,0,0,0,.12.041m-.132-.332a.169.169,0,0,1-.061-.039.142.142,0,0,1-.041-.108.2.2,0,0,1,.06-.143.277.277,0,0,1,.338,0,.175.175,0,0,1,.061.132.172.172,0,0,1-.035.112.2.2,0,0,1-.061.048.239.239,0,0,1,.072.049.189.189,0,0,1,.05.135.233.233,0,0,1-.066.167.249.249,0,0,1-.187.068.289.289,0,0,1-.183-.059.227.227,0,0,1-.043-.285.2.2,0,0,1,.1-.074Z" style="fill:#002868"/><path id="path1672" d="M88.617,68V67.93a.39.39,0,0,0,.141-.033.163.163,0,0,0,.06-.11h.074v.741h-.1V68Z" style="fill:#002868"/><path id="path1671" d="M84.188,68.329a.118.118,0,0,0,.06.107.128.128,0,0,0,.065.016.147.147,0,0,0,.114-.056.463.463,0,0,0,.067-.227.18.18,0,0,1-.078.07.245.245,0,0,1-.1.02.226.226,0,0,1-.171-.067.246.246,0,0,1-.062-.173.278.278,0,0,1,.062-.178.22.22,0,0,1,.182-.077.224.224,0,0,1,.224.147.51.51,0,0,1,.035.2.671.671,0,0,1-.041.242.239.239,0,0,1-.231.176.224.224,0,0,1-.166-.057.2.2,0,0,1-.056-.144h.094m.142-.153a.158.158,0,0,0,.1-.036.154.154,0,0,0,.047-.128.161.161,0,0,0-.042-.122.142.142,0,0,0-.105-.04.136.136,0,0,0-.109.046.205.205,0,0,0,0,.238.138.138,0,0,0,.112.042Z" style="fill:#002868"/><path id="path1669" d="M83.766,67.762a.2.2,0,0,1,.174.065.215.215,0,0,1,.049.133H83.9a.171.171,0,0,0-.027-.069.115.115,0,0,0-.1-.047.142.142,0,0,0-.125.073.408.408,0,0,0-.051.207.2.2,0,0,1,.081-.071.231.231,0,0,1,.1-.021.244.244,0,0,1,.164.06.223.223,0,0,1,.069.178.27.27,0,0,1-.066.18.232.232,0,0,1-.188.078.245.245,0,0,1-.18-.079.384.384,0,0,1-.076-.267.725.725,0,0,1,.034-.235.238.238,0,0,1,.237-.185m-.006.683a.129.129,0,0,0,.11-.05.194.194,0,0,0,.037-.117.2.2,0,0,0-.033-.109.131.131,0,0,0-.119-.051.154.154,0,0,0-.106.04.15.15,0,0,0-.045.12.179.179,0,0,0,.041.119.143.143,0,0,0,.115.048Z" style="fill:#002868"/><path id="path1667" d="M83.153,68.077a.134.134,0,0,0,.1-.034.116.116,0,0,0,.035-.083.107.107,0,0,0-.033-.076.133.133,0,0,0-.1-.035.113.113,0,0,0-.127.116.1.1,0,0,0,.039.082.143.143,0,0,0,.092.03m0,.368a.169.169,0,0,0,.108-.035.129.129,0,0,0,.043-.1.136.136,0,0,0-.044-.109.17.17,0,0,0-.114-.038.155.155,0,0,0-.109.039A.133.133,0,0,0,83,68.3a.149.149,0,0,0,.038.1.156.156,0,0,0,.12.042m-.133-.332a.173.173,0,0,1-.06-.039.146.146,0,0,1-.042-.108.2.2,0,0,1,.061-.143.23.23,0,0,1,.17-.06.234.234,0,0,1,.168.057.171.171,0,0,1,.061.131.177.177,0,0,1-.035.113.222.222,0,0,1-.062.048.231.231,0,0,1,.073.048.189.189,0,0,1,.049.135.235.235,0,0,1-.065.167.252.252,0,0,1-.187.068.286.286,0,0,1-.184-.059A.2.2,0,0,1,82.9,68.3a.191.191,0,0,1,.128-.187Z" style="fill:#002868"/><path id="path1664" d="M82.373,67.982V67.91a.385.385,0,0,0,.142-.032.166.166,0,0,0,.059-.11h.074v.741h-.1v-.527Z" style="fill:#002868"/><path id="text1791" d="M83.671,53.191l.06.054-.2.223.42-.026.086.076-.353.016-.047.446-.08-.071.043-.372-.135.006-.142.159-.06-.053.405-.458m-.252-.245a.248.248,0,0,1,.094.165.214.214,0,0,1-.039.151l-.06-.053A.157.157,0,0,0,83.372,53a.186.186,0,0,0-.152-.049.35.35,0,0,0-.248.272.175.175,0,0,0,.068.149.157.157,0,0,0,.151.04.259.259,0,0,0,.093-.048l.06.054a.278.278,0,0,1-.161.074.254.254,0,0,1-.2-.072.26.26,0,0,1-.091-.166.394.394,0,0,1,.3-.379.261.261,0,0,1,.222.071m-.491-.435a.279.279,0,0,1,.11.237.332.332,0,0,1-.092.2.361.361,0,0,1-.2.125.309.309,0,0,1-.348-.292.349.349,0,0,1,.1-.217.362.362,0,0,1,.187-.118.266.266,0,0,1,.25.07m-.373.433a.173.173,0,0,0,.17.047.335.335,0,0,0,.157-.1.251.251,0,0,0,.072-.167.189.189,0,0,0-.071-.152.2.2,0,0,0-.159-.053.27.27,0,0,0-.172.1.283.283,0,0,0-.076.162.2.2,0,0,0,.079.162m.107-.646-.048.055-.154-.137-.357.4-.063-.056.357-.4-.154-.136.048-.054.371.328m-.982-.317a.143.143,0,0,0,.03.221.277.277,0,0,0,.073.046.093.093,0,0,0,.116-.02.078.078,0,0,0,.024-.074.294.294,0,0,0-.05-.092l-.049-.069a.365.365,0,0,1-.06-.107.128.128,0,0,1,.033-.124.174.174,0,0,1,.132-.063.229.229,0,0,1,.156.067.28.28,0,0,1,.091.143.168.168,0,0,1-.048.156l-.058-.052a.129.129,0,0,0-.035-.2.15.15,0,0,0-.1-.047.1.1,0,0,0-.071.033.07.07,0,0,0-.016.074.633.633,0,0,0,.061.1l.052.072a.271.271,0,0,1,.046.092.146.146,0,0,1-.039.132.157.157,0,0,1-.152.059.323.323,0,0,1-.157-.08.257.257,0,0,1-.095-.163.2.2,0,0,1,.056-.159l.059.052m-.185-.717.333.3-.049.056-.274-.242-.123.139.253.223-.047.053-.252-.223-.138.155.278.246-.048.054-.338-.3.405-.458m-.4-.351-.214.506.475-.275.069.062-.572.309-.065-.058.238-.605.069.061m-.2-.176.062.055-.405.457-.062-.055.405-.457m-.367-.325.062.055-.357.4.232.205-.048.055-.294-.26.405-.458Z" style="fill:#002868"/><path id="text1794" d="M82.469,58.857l.073.065-.1.575.328-.371.059.052-.4.458-.07-.062L82.451,59l-.328.37-.059-.053.405-.457m-.163-.144.062.055-.405.458L81.9,59.17l.405-.457m-.447.086.11-.264-.253.137.143.127m.137-.36.07.062-.239.6-.068-.06.075-.178-.18-.16-.171.093-.064-.056.577-.3m-.56-.123a.156.156,0,0,0,.084.044.1.1,0,0,0,.081-.041.09.09,0,0,0,.024-.1.163.163,0,0,0-.043-.054l-.151-.134-.138.157.143.126m-.02-.391.212.188a.278.278,0,0,1,.073.091.144.144,0,0,1-.032.165.151.151,0,0,1-.076.052.163.163,0,0,1-.085,0,.122.122,0,0,1,.015.064.132.132,0,0,1-.036.071l-.052.063a.213.213,0,0,0-.03.043.052.052,0,0,0,0,.046l-.009.01-.076-.067a.05.05,0,0,1,.009-.02.372.372,0,0,1,.028-.039l.064-.08a.084.084,0,0,0,.02-.089.2.2,0,0,0-.048-.058l-.141-.125-.174.2-.062-.055.405-.457m-.29-.278a.315.315,0,0,1,.09.124.217.217,0,0,1-.028.2l-.061-.054a.149.149,0,0,0,.018-.114.216.216,0,0,0-.069-.1.187.187,0,0,0-.149-.047.274.274,0,0,0-.169.1.3.3,0,0,0-.082.164.178.178,0,0,0,.072.155.2.2,0,0,0,.134.055.2.2,0,0,0,.145-.08l-.144-.127.046-.051.2.178-.217.245-.04-.036.037-.072a.311.311,0,0,1-.1,0,.283.283,0,0,1-.124-.069.271.271,0,0,1-.093-.176.331.331,0,0,1,.1-.238.35.35,0,0,1,.224-.128.268.268,0,0,1,.211.071" style="fill:#002868"/><path id="text1797" d="M91.725,51.5a.171.171,0,0,0,.076.057.176.176,0,0,0,.163-.043.269.269,0,0,0,.064-.067.1.1,0,0,0,0-.127.085.085,0,0,0-.073-.041.331.331,0,0,0-.108.034l-.083.038a.435.435,0,0,1-.124.041.14.14,0,0,1-.125-.06.187.187,0,0,1-.039-.153.247.247,0,0,1,.1-.151.31.31,0,0,1,.17-.066.18.18,0,0,1,.154.083l-.066.05a.167.167,0,0,0-.072-.047.169.169,0,0,0-.141.043.161.161,0,0,0-.07.095.1.1,0,0,0,.019.082.076.076,0,0,0,.075.032.6.6,0,0,0,.117-.044l.086-.039a.265.265,0,0,1,.107-.029.156.156,0,0,1,.131.068.167.167,0,0,1,.031.172.348.348,0,0,1-.118.149.275.275,0,0,1-.191.067.212.212,0,0,1-.156-.093l.067-.051m-.795.047.381-.291.049.064-.312.238.121.159.288-.22.046.06-.288.22.135.177.317-.242.048.062-.386.295-.4-.522m-.529.4.084-.064.587.222-.323-.423.067-.051.4.522-.08.061L90.545,52l.323.423-.068.052-.4-.523m-.185.142.071-.054.4.522-.072.054-.4-.522m-.628.479.1-.077.487.327-.188-.555.1-.077.4.522-.067.052-.236-.308-.039-.054-.06-.08.187.554-.07.054-.486-.326.012.016.045.058q.031.037.045.057l.236.308-.068.052-.4-.523Z" style="fill:#002868"/><path id="text1800" d="M90.335,58.843l.071-.054.351.46.264-.2.048.062-.336.256-.4-.522m-.186.141.071-.054.4.522-.072.055-.4-.523m-.368.258a.3.3,0,0,1,.273-.067.363.363,0,0,1,.187.138.382.382,0,0,1,.089.239.3.3,0,0,1-.129.243.3.3,0,0,1-.25.065.382.382,0,0,1-.21-.147.4.4,0,0,1-.086-.221.29.29,0,0,1,.126-.25m.38.483a.181.181,0,0,0,.084-.17.358.358,0,0,0-.075-.186.279.279,0,0,0-.162-.111.2.2,0,0,0-.174.044.216.216,0,0,0-.09.157.3.3,0,0,0,.074.2.305.305,0,0,0,.155.113.209.209,0,0,0,.188-.05" style="fill:#002868"/><polygon id="path1631" points="83.439 59.865 83.475 60.266 84.749 60.266 84.785 59.829 83.439 59.865" style="fill:#fff;stroke:#002868;stroke-width:0.092819px"/><polygon id="path1632" points="88.462 59.829 88.498 60.266 89.59 60.266 89.627 59.829 88.462 59.829" style="fill:#fff;stroke:#002868;stroke-width:0.092819px"/><path id="text1827" d="M91.914,43.5a.2.2,0,0,0,.054.289c.068.055.181.108.25.023s.008-.151-.045-.218a.8.8,0,0,1-.153-.224.214.214,0,0,1,.2-.256.371.371,0,0,1,.337.262.218.218,0,0,1-.053.207l-.08-.064a.2.2,0,0,0,.035-.1.248.248,0,0,0-.225-.21.112.112,0,0,0-.108.145,1.093,1.093,0,0,0,.158.217.218.218,0,0,1,.023.294c-.115.142-.284.09-.408-.01a.282.282,0,0,1-.07-.42l.08.065Z" style="fill:#002868"/><polygon id="path1848" points="92.004 42.88 91.949 42.958 91.728 42.801 91.317 43.379 91.227 43.315 91.637 42.737 91.416 42.58 91.472 42.502 92.004 42.88" style="fill:#002868"/><polygon id="path1847" points="90.507 42.083 90.607 42.129 90.469 42.431 90.85 42.605 90.988 42.303 91.088 42.349 90.753 43.08 90.653 43.034 90.809 42.692 90.429 42.518 90.272 42.86 90.172 42.814 90.507 42.083" style="fill:#002868"/><path id="path1846" d="M89.69,41.878a.405.405,0,0,1,.179.091.284.284,0,0,1,.088.25l-.1-.027a.2.2,0,0,0-.047-.144.269.269,0,0,0-.141-.078.247.247,0,0,0-.2.035.357.357,0,0,0-.135.223.4.4,0,0,0,0,.242.232.232,0,0,0,.177.138.238.238,0,0,0,.312-.2l-.244-.062.022-.088.343.087-.106.417-.068-.017v-.107a.4.4,0,0,1-.116.058.375.375,0,0,1-.187-.006.351.351,0,0,1-.215-.15.439.439,0,0,1-.031-.337.454.454,0,0,1,.186-.284A.346.346,0,0,1,89.69,41.878Z" style="fill:#002868"/><polygon id="path1844" points="88.807 41.739 88.917 41.75 88.834 42.551 88.725 42.54 88.807 41.739" style="fill:#002868"/><path id="path1842" d="M88.188,42.062a.2.2,0,0,0,.122-.024.125.125,0,0,0,.051-.108.12.12,0,0,0-.056-.121.207.207,0,0,0-.088-.021l-.266-.014-.015.274.252.014m-.341-.388.372.02a.385.385,0,0,1,.15.035.19.19,0,0,1,.1.2.225.225,0,0,1-.036.117.23.23,0,0,1-.087.069.17.17,0,0,1,.067.054.186.186,0,0,1,.022.1l0,.108a.266.266,0,0,0,0,.069.067.067,0,0,0,.032.051v.018l-.134-.007a.163.163,0,0,1-.007-.028.475.475,0,0,1,0-.063v-.135a.116.116,0,0,0-.053-.109.269.269,0,0,0-.1-.02l-.248-.013-.018.344-.109,0,.043-.8Z" style="fill:#002868"/><polygon id="path1840" points="84.738 42.218 84.845 42.195 84.992 42.888 85.391 42.804 85.41 42.897 84.905 43.005 84.738 42.218" style="fill:#002868"/><path id="path1839" d="M84.26,42.882l-.211-.311-.032.377.243-.066m-.3-.412.119-.032.492.7-.115.031-.142-.212-.307.083-.021.256-.108.029.082-.856Z" style="fill:#002868"/><path id="path1836" d="M82.959,42.848l.1.487a.282.282,0,0,0,.061.135.172.172,0,0,0,.179.053.194.194,0,0,0,.165-.131.293.293,0,0,0,0-.141l-.1-.487.108-.023.092.443a.512.512,0,0,1,.008.231.336.336,0,0,1-.542.113.524.524,0,0,1-.086-.215l-.092-.443.108-.022Z" style="fill:#002868"/><polygon id="path1832" points="81.016 43.476 81.574 43.295 81.604 43.389 81.148 43.537 81.222 43.769 81.645 43.632 81.674 43.721 81.251 43.858 81.335 44.117 81.8 43.967 81.829 44.058 81.264 44.241 81.016 43.476" style="fill:#002868"/><path id="path1849" d="M82.79,43.751l-.036.078-.145-.06a.442.442,0,0,1-.19.106.373.373,0,0,1-.316-.044.524.524,0,0,1-.158-.557.351.351,0,0,1,.26-.222.372.372,0,0,1,.34.052.448.448,0,0,1,.146.245.459.459,0,0,1-.03.347l.129.055m-.323.006a.15.15,0,0,0,.045-.031l-.1-.045.036-.079.123.053a.4.4,0,0,0,.016-.276.344.344,0,0,0-.13-.2.253.253,0,0,0-.218-.032.268.268,0,0,0-.179.133.368.368,0,0,0-.009.266.348.348,0,0,0,.129.2.3.3,0,0,0,.29.009Z" style="fill:#002868"/></g><ellipse cx="86.563" cy="55.088" rx="14.785" ry="14.84" style="fill:none;stroke:#002868;stroke-width:0.185638px"/></g></g></g></svg>